<?xml version="1.0" encoding="utf-8" standalone="no"?>
<!DOCTYPE svg PUBLIC "-//W3C//DTD SVG 1.1//EN"
  "http://www.w3.org/Graphics/SVG/1.1/DTD/svg11.dtd">
<!-- Created with matplotlib (https://matplotlib.org/) -->
<svg height="288pt" version="1.1" viewBox="0 0 720 288" width="720pt" xmlns="http://www.w3.org/2000/svg" xmlns:xlink="http://www.w3.org/1999/xlink">
 <defs>
  <style type="text/css">
*{stroke-linecap:butt;stroke-linejoin:round;}
  </style>
 </defs>
 <g id="figure_1">
  <g id="patch_1">
   <path d="M 0 288 
L 720 288 
L 720 0 
L 0 0 
z
" style="fill:#ffffff;"/>
  </g>
  <g id="axes_1">
   <g id="patch_2">
    <path d="M 40.12 120.5216 
L 351.99 120.5216 
L 351.99 32.64 
L 40.12 32.64 
z
" style="fill:#ffffff;"/>
   </g>
   <g id="matplotlib.axis_1">
    <g id="xtick_1">
     <g id="line2d_1">
      <path clip-path="url(#pf9cf4a09a3)" d="M 51.460727 120.5216 
L 51.460727 32.64 
" style="fill:none;stroke:#b0b0b0;stroke-linecap:square;stroke-width:0.8;"/>
     </g>
     <g id="line2d_2">
      <defs>
       <path d="M 0 0 
L 0 3.5 
" id="m520b9b3f53" style="stroke:#000000;stroke-width:0.8;"/>
      </defs>
      <g>
       <use style="stroke:#000000;stroke-width:0.8;" x="51.460727" xlink:href="#m520b9b3f53" y="120.5216"/>
      </g>
     </g>
    </g>
    <g id="xtick_2">
     <g id="line2d_3">
      <path clip-path="url(#pf9cf4a09a3)" d="M 86.9005 120.5216 
L 86.9005 32.64 
" style="fill:none;stroke:#b0b0b0;stroke-linecap:square;stroke-width:0.8;"/>
     </g>
     <g id="line2d_4">
      <g>
       <use style="stroke:#000000;stroke-width:0.8;" x="86.9005" xlink:href="#m520b9b3f53" y="120.5216"/>
      </g>
     </g>
    </g>
    <g id="xtick_3">
     <g id="line2d_5">
      <path clip-path="url(#pf9cf4a09a3)" d="M 122.340273 120.5216 
L 122.340273 32.64 
" style="fill:none;stroke:#b0b0b0;stroke-linecap:square;stroke-width:0.8;"/>
     </g>
     <g id="line2d_6">
      <g>
       <use style="stroke:#000000;stroke-width:0.8;" x="122.340273" xlink:href="#m520b9b3f53" y="120.5216"/>
      </g>
     </g>
    </g>
    <g id="xtick_4">
     <g id="line2d_7">
      <path clip-path="url(#pf9cf4a09a3)" d="M 157.780045 120.5216 
L 157.780045 32.64 
" style="fill:none;stroke:#b0b0b0;stroke-linecap:square;stroke-width:0.8;"/>
     </g>
     <g id="line2d_8">
      <g>
       <use style="stroke:#000000;stroke-width:0.8;" x="157.780045" xlink:href="#m520b9b3f53" y="120.5216"/>
      </g>
     </g>
    </g>
    <g id="xtick_5">
     <g id="line2d_9">
      <path clip-path="url(#pf9cf4a09a3)" d="M 193.219818 120.5216 
L 193.219818 32.64 
" style="fill:none;stroke:#b0b0b0;stroke-linecap:square;stroke-width:0.8;"/>
     </g>
     <g id="line2d_10">
      <g>
       <use style="stroke:#000000;stroke-width:0.8;" x="193.219818" xlink:href="#m520b9b3f53" y="120.5216"/>
      </g>
     </g>
    </g>
    <g id="xtick_6">
     <g id="line2d_11">
      <path clip-path="url(#pf9cf4a09a3)" d="M 228.659591 120.5216 
L 228.659591 32.64 
" style="fill:none;stroke:#b0b0b0;stroke-linecap:square;stroke-width:0.8;"/>
     </g>
     <g id="line2d_12">
      <g>
       <use style="stroke:#000000;stroke-width:0.8;" x="228.659591" xlink:href="#m520b9b3f53" y="120.5216"/>
      </g>
     </g>
    </g>
    <g id="xtick_7">
     <g id="line2d_13">
      <path clip-path="url(#pf9cf4a09a3)" d="M 264.099364 120.5216 
L 264.099364 32.64 
" style="fill:none;stroke:#b0b0b0;stroke-linecap:square;stroke-width:0.8;"/>
     </g>
     <g id="line2d_14">
      <g>
       <use style="stroke:#000000;stroke-width:0.8;" x="264.099364" xlink:href="#m520b9b3f53" y="120.5216"/>
      </g>
     </g>
    </g>
    <g id="xtick_8">
     <g id="line2d_15">
      <path clip-path="url(#pf9cf4a09a3)" d="M 299.539136 120.5216 
L 299.539136 32.64 
" style="fill:none;stroke:#b0b0b0;stroke-linecap:square;stroke-width:0.8;"/>
     </g>
     <g id="line2d_16">
      <g>
       <use style="stroke:#000000;stroke-width:0.8;" x="299.539136" xlink:href="#m520b9b3f53" y="120.5216"/>
      </g>
     </g>
    </g>
    <g id="xtick_9">
     <g id="line2d_17">
      <path clip-path="url(#pf9cf4a09a3)" d="M 334.978909 120.5216 
L 334.978909 32.64 
" style="fill:none;stroke:#b0b0b0;stroke-linecap:square;stroke-width:0.8;"/>
     </g>
     <g id="line2d_18">
      <g>
       <use style="stroke:#000000;stroke-width:0.8;" x="334.978909" xlink:href="#m520b9b3f53" y="120.5216"/>
      </g>
     </g>
    </g>
   </g>
   <g id="matplotlib.axis_2">
    <g id="ytick_1">
     <g id="line2d_19">
      <path clip-path="url(#pf9cf4a09a3)" d="M 40.12 118.046372 
L 351.99 118.046372 
" style="fill:none;stroke:#b0b0b0;stroke-linecap:square;stroke-width:0.8;"/>
     </g>
     <g id="line2d_20">
      <defs>
       <path d="M 0 0 
L -3.5 0 
" id="m95f3a1f7e0" style="stroke:#000000;stroke-width:0.8;"/>
      </defs>
      <g>
       <use style="stroke:#000000;stroke-width:0.8;" x="40.12" xlink:href="#m95f3a1f7e0" y="118.046372"/>
      </g>
     </g>
     <g id="text_1">
      <!-- 0 -->
      <defs>
       <path d="M 31.78125 66.40625 
Q 24.171875 66.40625 20.328125 58.90625 
Q 16.5 51.421875 16.5 36.375 
Q 16.5 21.390625 20.328125 13.890625 
Q 24.171875 6.390625 31.78125 6.390625 
Q 39.453125 6.390625 43.28125 13.890625 
Q 47.125 21.390625 47.125 36.375 
Q 47.125 51.421875 43.28125 58.90625 
Q 39.453125 66.40625 31.78125 66.40625 
z
M 31.78125 74.21875 
Q 44.046875 74.21875 50.515625 64.515625 
Q 56.984375 54.828125 56.984375 36.375 
Q 56.984375 17.96875 50.515625 8.265625 
Q 44.046875 -1.421875 31.78125 -1.421875 
Q 19.53125 -1.421875 13.0625 8.265625 
Q 6.59375 17.96875 6.59375 36.375 
Q 6.59375 54.828125 13.0625 64.515625 
Q 19.53125 74.21875 31.78125 74.21875 
z
" id="DejaVuSans-48"/>
      </defs>
      <g transform="translate(26.7575 121.84559)scale(0.1 -0.1)">
       <use xlink:href="#DejaVuSans-48"/>
      </g>
     </g>
    </g>
    <g id="ytick_2">
     <g id="line2d_21">
      <path clip-path="url(#pf9cf4a09a3)" d="M 40.12 80.023842 
L 351.99 80.023842 
" style="fill:none;stroke:#b0b0b0;stroke-linecap:square;stroke-width:0.8;"/>
     </g>
     <g id="line2d_22">
      <g>
       <use style="stroke:#000000;stroke-width:0.8;" x="40.12" xlink:href="#m95f3a1f7e0" y="80.023842"/>
      </g>
     </g>
     <g id="text_2">
      <!-- 100 -->
      <defs>
       <path d="M 12.40625 8.296875 
L 28.515625 8.296875 
L 28.515625 63.921875 
L 10.984375 60.40625 
L 10.984375 69.390625 
L 28.421875 72.90625 
L 38.28125 72.90625 
L 38.28125 8.296875 
L 54.390625 8.296875 
L 54.390625 0 
L 12.40625 0 
z
" id="DejaVuSans-49"/>
      </defs>
      <g transform="translate(14.0325 83.823061)scale(0.1 -0.1)">
       <use xlink:href="#DejaVuSans-49"/>
       <use x="63.623047" xlink:href="#DejaVuSans-48"/>
       <use x="127.246094" xlink:href="#DejaVuSans-48"/>
      </g>
     </g>
    </g>
    <g id="ytick_3">
     <g id="line2d_23">
      <path clip-path="url(#pf9cf4a09a3)" d="M 40.12 42.001313 
L 351.99 42.001313 
" style="fill:none;stroke:#b0b0b0;stroke-linecap:square;stroke-width:0.8;"/>
     </g>
     <g id="line2d_24">
      <g>
       <use style="stroke:#000000;stroke-width:0.8;" x="40.12" xlink:href="#m95f3a1f7e0" y="42.001313"/>
      </g>
     </g>
     <g id="text_3">
      <!-- 200 -->
      <defs>
       <path d="M 19.1875 8.296875 
L 53.609375 8.296875 
L 53.609375 0 
L 7.328125 0 
L 7.328125 8.296875 
Q 12.9375 14.109375 22.625 23.890625 
Q 32.328125 33.6875 34.8125 36.53125 
Q 39.546875 41.84375 41.421875 45.53125 
Q 43.3125 49.21875 43.3125 52.78125 
Q 43.3125 58.59375 39.234375 62.25 
Q 35.15625 65.921875 28.609375 65.921875 
Q 23.96875 65.921875 18.8125 64.3125 
Q 13.671875 62.703125 7.8125 59.421875 
L 7.8125 69.390625 
Q 13.765625 71.78125 18.9375 73 
Q 24.125 74.21875 28.421875 74.21875 
Q 39.75 74.21875 46.484375 68.546875 
Q 53.21875 62.890625 53.21875 53.421875 
Q 53.21875 48.921875 51.53125 44.890625 
Q 49.859375 40.875 45.40625 35.40625 
Q 44.1875 33.984375 37.640625 27.21875 
Q 31.109375 20.453125 19.1875 8.296875 
z
" id="DejaVuSans-50"/>
      </defs>
      <g transform="translate(14.0325 45.800531)scale(0.1 -0.1)">
       <use xlink:href="#DejaVuSans-50"/>
       <use x="63.623047" xlink:href="#DejaVuSans-48"/>
       <use x="127.246094" xlink:href="#DejaVuSans-48"/>
      </g>
     </g>
    </g>
   </g>
   <g id="line2d_25">
    <path clip-path="url(#pf9cf4a09a3)" d="M 54.295909 116.525471 
L 63.51025 111.582542 
L 67.763023 111.10726 
L 69.889409 111.012204 
L 72.015795 110.822091 
L 74.142182 110.727035 
L 76.268568 110.536922 
L 79.10375 110.441866 
L 80.521341 110.34681 
L 82.647727 110.251753 
L 84.065318 110.156697 
L 86.9005 110.061641 
L 89.026886 109.871528 
L 92.570864 109.776472 
L 93.988455 109.681415 
L 96.823636 109.586359 
L 98.241227 109.491303 
L 101.076409 109.396246 
L 102.494 109.30119 
L 105.329182 109.206134 
L 106.746773 109.111077 
L 110.29075 109.016021 
L 111.708341 108.920965 
L 115.252318 108.825908 
L 116.669909 108.730852 
L 120.213886 108.635796 
L 121.631477 108.540739 
L 125.175455 108.445683 
L 126.593045 108.350627 
L 130.137023 108.25557 
L 131.554614 108.160514 
L 135.098591 108.065458 
L 136.516182 107.970401 
L 140.060159 107.875345 
L 141.47775 107.780289 
L 145.730523 107.685232 
L 147.148114 107.590176 
L 150.692091 107.49512 
L 152.109682 107.400063 
L 156.362455 107.305007 
L 157.780045 107.209951 
L 161.324023 107.114894 
L 162.741614 107.019838 
L 166.994386 106.924782 
L 168.411977 106.829726 
L 172.66475 106.734669 
L 174.082341 106.639613 
L 178.335114 106.544557 
L 179.752705 106.4495 
L 183.296682 106.354444 
L 184.714273 106.259388 
L 188.967045 106.164331 
L 190.384636 106.069275 
L 194.637409 105.974219 
L 196.055 105.879162 
L 200.307773 105.784106 
L 201.725364 105.68905 
L 205.978136 105.593993 
L 207.395727 105.498937 
L 211.6485 105.403881 
L 213.066091 105.308824 
L 217.318864 105.213768 
L 218.736455 105.118712 
L 222.989227 105.023655 
L 224.406818 104.928599 
L 228.659591 104.833543 
L 230.077182 104.738486 
L 234.329955 104.64343 
L 235.747545 104.548374 
L 240.000318 104.453317 
L 241.417909 104.358261 
L 245.670682 104.263205 
L 247.088273 104.168148 
L 251.341045 104.073092 
L 252.758636 103.978036 
L 257.011409 103.882979 
L 258.429 103.787923 
L 262.681773 103.692867 
L 264.099364 103.59781 
L 269.060932 103.502754 
L 270.478523 103.407698 
L 274.0225 103.312642 
L 275.440091 103.217585 
L 278.984068 103.122529 
L 280.401659 103.027473 
L 286.072023 102.932416 
L 287.489614 102.83736 
L 291.742386 102.742304 
L 293.159977 102.647247 
L 296.703955 102.552191 
L 298.121545 102.457135 
L 302.374318 102.362078 
L 303.791909 102.267022 
L 308.753477 102.171966 
L 310.171068 102.076909 
L 313.715045 101.981853 
L 315.132636 101.886797 
L 319.385409 101.79174 
L 320.803 101.696684 
L 325.055773 101.601628 
L 326.473364 101.506571 
L 331.434932 101.411515 
L 334.270114 101.126346 
L 337.814091 101.126346 
L 337.814091 101.126346 
" style="fill:none;stroke:#1f77b4;stroke-linecap:square;stroke-width:1.5;"/>
   </g>
   <g id="line2d_26">
    <path clip-path="url(#pf9cf4a09a3)" d="M 54.295909 116.526982 
L 63.51025 111.588965 
L 74.142182 108.641949 
L 337.814091 36.634618 
L 337.814091 36.634618 
" style="fill:none;stroke:#ff7f0e;stroke-linecap:square;stroke-width:1.5;"/>
   </g>
   <g id="patch_3">
    <path d="M 40.12 120.5216 
L 40.12 32.64 
" style="fill:none;stroke:#000000;stroke-linecap:square;stroke-linejoin:miter;stroke-width:0.8;"/>
   </g>
   <g id="patch_4">
    <path d="M 351.99 120.5216 
L 351.99 32.64 
" style="fill:none;stroke:#000000;stroke-linecap:square;stroke-linejoin:miter;stroke-width:0.8;"/>
   </g>
   <g id="patch_5">
    <path d="M 40.12 120.5216 
L 351.99 120.5216 
" style="fill:none;stroke:#000000;stroke-linecap:square;stroke-linejoin:miter;stroke-width:0.8;"/>
   </g>
   <g id="patch_6">
    <path d="M 40.12 32.64 
L 351.99 32.64 
" style="fill:none;stroke:#000000;stroke-linecap:square;stroke-linejoin:miter;stroke-width:0.8;"/>
   </g>
   <g id="text_4">
    <!-- Cons. Functions -->
    <defs>
     <path d="M 64.40625 67.28125 
L 64.40625 56.890625 
Q 59.421875 61.53125 53.78125 63.8125 
Q 48.140625 66.109375 41.796875 66.109375 
Q 29.296875 66.109375 22.65625 58.46875 
Q 16.015625 50.828125 16.015625 36.375 
Q 16.015625 21.96875 22.65625 14.328125 
Q 29.296875 6.6875 41.796875 6.6875 
Q 48.140625 6.6875 53.78125 8.984375 
Q 59.421875 11.28125 64.40625 15.921875 
L 64.40625 5.609375 
Q 59.234375 2.09375 53.4375 0.328125 
Q 47.65625 -1.421875 41.21875 -1.421875 
Q 24.65625 -1.421875 15.125 8.703125 
Q 5.609375 18.84375 5.609375 36.375 
Q 5.609375 53.953125 15.125 64.078125 
Q 24.65625 74.21875 41.21875 74.21875 
Q 47.75 74.21875 53.53125 72.484375 
Q 59.328125 70.75 64.40625 67.28125 
z
" id="DejaVuSans-67"/>
     <path d="M 30.609375 48.390625 
Q 23.390625 48.390625 19.1875 42.75 
Q 14.984375 37.109375 14.984375 27.296875 
Q 14.984375 17.484375 19.15625 11.84375 
Q 23.34375 6.203125 30.609375 6.203125 
Q 37.796875 6.203125 41.984375 11.859375 
Q 46.1875 17.53125 46.1875 27.296875 
Q 46.1875 37.015625 41.984375 42.703125 
Q 37.796875 48.390625 30.609375 48.390625 
z
M 30.609375 56 
Q 42.328125 56 49.015625 48.375 
Q 55.71875 40.765625 55.71875 27.296875 
Q 55.71875 13.875 49.015625 6.21875 
Q 42.328125 -1.421875 30.609375 -1.421875 
Q 18.84375 -1.421875 12.171875 6.21875 
Q 5.515625 13.875 5.515625 27.296875 
Q 5.515625 40.765625 12.171875 48.375 
Q 18.84375 56 30.609375 56 
z
" id="DejaVuSans-111"/>
     <path d="M 54.890625 33.015625 
L 54.890625 0 
L 45.90625 0 
L 45.90625 32.71875 
Q 45.90625 40.484375 42.875 44.328125 
Q 39.84375 48.1875 33.796875 48.1875 
Q 26.515625 48.1875 22.3125 43.546875 
Q 18.109375 38.921875 18.109375 30.90625 
L 18.109375 0 
L 9.078125 0 
L 9.078125 54.6875 
L 18.109375 54.6875 
L 18.109375 46.1875 
Q 21.34375 51.125 25.703125 53.5625 
Q 30.078125 56 35.796875 56 
Q 45.21875 56 50.046875 50.171875 
Q 54.890625 44.34375 54.890625 33.015625 
z
" id="DejaVuSans-110"/>
     <path d="M 44.28125 53.078125 
L 44.28125 44.578125 
Q 40.484375 46.53125 36.375 47.5 
Q 32.28125 48.484375 27.875 48.484375 
Q 21.1875 48.484375 17.84375 46.4375 
Q 14.5 44.390625 14.5 40.28125 
Q 14.5 37.15625 16.890625 35.375 
Q 19.28125 33.59375 26.515625 31.984375 
L 29.59375 31.296875 
Q 39.15625 29.25 43.1875 25.515625 
Q 47.21875 21.78125 47.21875 15.09375 
Q 47.21875 7.46875 41.1875 3.015625 
Q 35.15625 -1.421875 24.609375 -1.421875 
Q 20.21875 -1.421875 15.453125 -0.5625 
Q 10.6875 0.296875 5.421875 2 
L 5.421875 11.28125 
Q 10.40625 8.6875 15.234375 7.390625 
Q 20.0625 6.109375 24.8125 6.109375 
Q 31.15625 6.109375 34.5625 8.28125 
Q 37.984375 10.453125 37.984375 14.40625 
Q 37.984375 18.0625 35.515625 20.015625 
Q 33.0625 21.96875 24.703125 23.78125 
L 21.578125 24.515625 
Q 13.234375 26.265625 9.515625 29.90625 
Q 5.8125 33.546875 5.8125 39.890625 
Q 5.8125 47.609375 11.28125 51.796875 
Q 16.75 56 26.8125 56 
Q 31.78125 56 36.171875 55.265625 
Q 40.578125 54.546875 44.28125 53.078125 
z
" id="DejaVuSans-115"/>
     <path d="M 10.6875 12.40625 
L 21 12.40625 
L 21 0 
L 10.6875 0 
z
" id="DejaVuSans-46"/>
     <path id="DejaVuSans-32"/>
     <path d="M 9.8125 72.90625 
L 51.703125 72.90625 
L 51.703125 64.59375 
L 19.671875 64.59375 
L 19.671875 43.109375 
L 48.578125 43.109375 
L 48.578125 34.8125 
L 19.671875 34.8125 
L 19.671875 0 
L 9.8125 0 
z
" id="DejaVuSans-70"/>
     <path d="M 8.5 21.578125 
L 8.5 54.6875 
L 17.484375 54.6875 
L 17.484375 21.921875 
Q 17.484375 14.15625 20.5 10.265625 
Q 23.53125 6.390625 29.59375 6.390625 
Q 36.859375 6.390625 41.078125 11.03125 
Q 45.3125 15.671875 45.3125 23.6875 
L 45.3125 54.6875 
L 54.296875 54.6875 
L 54.296875 0 
L 45.3125 0 
L 45.3125 8.40625 
Q 42.046875 3.421875 37.71875 1 
Q 33.40625 -1.421875 27.6875 -1.421875 
Q 18.265625 -1.421875 13.375 4.4375 
Q 8.5 10.296875 8.5 21.578125 
z
M 31.109375 56 
z
" id="DejaVuSans-117"/>
     <path d="M 48.78125 52.59375 
L 48.78125 44.1875 
Q 44.96875 46.296875 41.140625 47.34375 
Q 37.3125 48.390625 33.40625 48.390625 
Q 24.65625 48.390625 19.8125 42.84375 
Q 14.984375 37.3125 14.984375 27.296875 
Q 14.984375 17.28125 19.8125 11.734375 
Q 24.65625 6.203125 33.40625 6.203125 
Q 37.3125 6.203125 41.140625 7.25 
Q 44.96875 8.296875 48.78125 10.40625 
L 48.78125 2.09375 
Q 45.015625 0.34375 40.984375 -0.53125 
Q 36.96875 -1.421875 32.421875 -1.421875 
Q 20.0625 -1.421875 12.78125 6.34375 
Q 5.515625 14.109375 5.515625 27.296875 
Q 5.515625 40.671875 12.859375 48.328125 
Q 20.21875 56 33.015625 56 
Q 37.15625 56 41.109375 55.140625 
Q 45.0625 54.296875 48.78125 52.59375 
z
" id="DejaVuSans-99"/>
     <path d="M 18.3125 70.21875 
L 18.3125 54.6875 
L 36.8125 54.6875 
L 36.8125 47.703125 
L 18.3125 47.703125 
L 18.3125 18.015625 
Q 18.3125 11.328125 20.140625 9.421875 
Q 21.96875 7.515625 27.59375 7.515625 
L 36.8125 7.515625 
L 36.8125 0 
L 27.59375 0 
Q 17.1875 0 13.234375 3.875 
Q 9.28125 7.765625 9.28125 18.015625 
L 9.28125 47.703125 
L 2.6875 47.703125 
L 2.6875 54.6875 
L 9.28125 54.6875 
L 9.28125 70.21875 
z
" id="DejaVuSans-116"/>
     <path d="M 9.421875 54.6875 
L 18.40625 54.6875 
L 18.40625 0 
L 9.421875 0 
z
M 9.421875 75.984375 
L 18.40625 75.984375 
L 18.40625 64.59375 
L 9.421875 64.59375 
z
" id="DejaVuSans-105"/>
    </defs>
    <g transform="translate(148.483438 26.64)scale(0.12 -0.12)">
     <use xlink:href="#DejaVuSans-67"/>
     <use x="69.824219" xlink:href="#DejaVuSans-111"/>
     <use x="131.005859" xlink:href="#DejaVuSans-110"/>
     <use x="194.384766" xlink:href="#DejaVuSans-115"/>
     <use x="246.484375" xlink:href="#DejaVuSans-46"/>
     <use x="278.271484" xlink:href="#DejaVuSans-32"/>
     <use x="310.058594" xlink:href="#DejaVuSans-70"/>
     <use x="367.5" xlink:href="#DejaVuSans-117"/>
     <use x="430.878906" xlink:href="#DejaVuSans-110"/>
     <use x="494.257812" xlink:href="#DejaVuSans-99"/>
     <use x="549.238281" xlink:href="#DejaVuSans-116"/>
     <use x="588.447266" xlink:href="#DejaVuSans-105"/>
     <use x="616.230469" xlink:href="#DejaVuSans-111"/>
     <use x="677.412109" xlink:href="#DejaVuSans-110"/>
     <use x="740.791016" xlink:href="#DejaVuSans-115"/>
    </g>
   </g>
   <g id="legend_1">
    <g id="patch_7">
     <path d="M 47.12 69.99625 
L 106.987188 69.99625 
Q 108.987188 69.99625 108.987188 67.99625 
L 108.987188 39.64 
Q 108.987188 37.64 106.987188 37.64 
L 47.12 37.64 
Q 45.12 37.64 45.12 39.64 
L 45.12 67.99625 
Q 45.12 69.99625 47.12 69.99625 
z
" style="fill:#ffffff;opacity:0.8;stroke:#cccccc;stroke-linejoin:miter;"/>
    </g>
    <g id="line2d_27">
     <path d="M 49.12 45.738438 
L 69.12 45.738438 
" style="fill:none;stroke:#1f77b4;stroke-linecap:square;stroke-width:1.5;"/>
    </g>
    <g id="line2d_28"/>
    <g id="text_5">
     <!-- CGM -->
     <defs>
      <path d="M 59.515625 10.40625 
L 59.515625 29.984375 
L 43.40625 29.984375 
L 43.40625 38.09375 
L 69.28125 38.09375 
L 69.28125 6.78125 
Q 63.578125 2.734375 56.6875 0.65625 
Q 49.8125 -1.421875 42 -1.421875 
Q 24.90625 -1.421875 15.25 8.5625 
Q 5.609375 18.5625 5.609375 36.375 
Q 5.609375 54.25 15.25 64.234375 
Q 24.90625 74.21875 42 74.21875 
Q 49.125 74.21875 55.546875 72.453125 
Q 61.96875 70.703125 67.390625 67.28125 
L 67.390625 56.78125 
Q 61.921875 61.421875 55.765625 63.765625 
Q 49.609375 66.109375 42.828125 66.109375 
Q 29.4375 66.109375 22.71875 58.640625 
Q 16.015625 51.171875 16.015625 36.375 
Q 16.015625 21.625 22.71875 14.15625 
Q 29.4375 6.6875 42.828125 6.6875 
Q 48.046875 6.6875 52.140625 7.59375 
Q 56.25 8.5 59.515625 10.40625 
z
" id="DejaVuSans-71"/>
      <path d="M 9.8125 72.90625 
L 24.515625 72.90625 
L 43.109375 23.296875 
L 61.8125 72.90625 
L 76.515625 72.90625 
L 76.515625 0 
L 66.890625 0 
L 66.890625 64.015625 
L 48.09375 14.015625 
L 38.1875 14.015625 
L 19.390625 64.015625 
L 19.390625 0 
L 9.8125 0 
z
" id="DejaVuSans-77"/>
     </defs>
     <g transform="translate(77.12 49.238438)scale(0.1 -0.1)">
      <use xlink:href="#DejaVuSans-67"/>
      <use x="69.824219" xlink:href="#DejaVuSans-71"/>
      <use x="147.314453" xlink:href="#DejaVuSans-77"/>
     </g>
    </g>
    <g id="line2d_29">
     <path d="M 49.12 60.416563 
L 69.12 60.416563 
" style="fill:none;stroke:#ff7f0e;stroke-linecap:square;stroke-width:1.5;"/>
    </g>
    <g id="line2d_30"/>
    <g id="text_6">
     <!-- HARK -->
     <defs>
      <path d="M 9.8125 72.90625 
L 19.671875 72.90625 
L 19.671875 43.015625 
L 55.515625 43.015625 
L 55.515625 72.90625 
L 65.375 72.90625 
L 65.375 0 
L 55.515625 0 
L 55.515625 34.71875 
L 19.671875 34.71875 
L 19.671875 0 
L 9.8125 0 
z
" id="DejaVuSans-72"/>
      <path d="M 34.1875 63.1875 
L 20.796875 26.90625 
L 47.609375 26.90625 
z
M 28.609375 72.90625 
L 39.796875 72.90625 
L 67.578125 0 
L 57.328125 0 
L 50.6875 18.703125 
L 17.828125 18.703125 
L 11.1875 0 
L 0.78125 0 
z
" id="DejaVuSans-65"/>
      <path d="M 44.390625 34.1875 
Q 47.5625 33.109375 50.5625 29.59375 
Q 53.5625 26.078125 56.59375 19.921875 
L 66.609375 0 
L 56 0 
L 46.6875 18.703125 
Q 43.0625 26.03125 39.671875 28.421875 
Q 36.28125 30.8125 30.421875 30.8125 
L 19.671875 30.8125 
L 19.671875 0 
L 9.8125 0 
L 9.8125 72.90625 
L 32.078125 72.90625 
Q 44.578125 72.90625 50.734375 67.671875 
Q 56.890625 62.453125 56.890625 51.90625 
Q 56.890625 45.015625 53.6875 40.46875 
Q 50.484375 35.9375 44.390625 34.1875 
z
M 19.671875 64.796875 
L 19.671875 38.921875 
L 32.078125 38.921875 
Q 39.203125 38.921875 42.84375 42.21875 
Q 46.484375 45.515625 46.484375 51.90625 
Q 46.484375 58.296875 42.84375 61.546875 
Q 39.203125 64.796875 32.078125 64.796875 
z
" id="DejaVuSans-82"/>
      <path d="M 9.8125 72.90625 
L 19.671875 72.90625 
L 19.671875 42.09375 
L 52.390625 72.90625 
L 65.09375 72.90625 
L 28.90625 38.921875 
L 67.671875 0 
L 54.6875 0 
L 19.671875 35.109375 
L 19.671875 0 
L 9.8125 0 
z
" id="DejaVuSans-75"/>
     </defs>
     <g transform="translate(77.12 63.916563)scale(0.1 -0.1)">
      <use xlink:href="#DejaVuSans-72"/>
      <use x="75.195312" xlink:href="#DejaVuSans-65"/>
      <use x="143.603516" xlink:href="#DejaVuSans-82"/>
      <use x="213.085938" xlink:href="#DejaVuSans-75"/>
     </g>
    </g>
   </g>
  </g>
  <g id="axes_2">
   <g id="patch_8">
    <path d="M 397.33 120.5216 
L 709.2 120.5216 
L 709.2 32.64 
L 397.33 32.64 
z
" style="fill:#ffffff;"/>
   </g>
   <g id="matplotlib.axis_3">
    <g id="xtick_10">
     <g id="line2d_31">
      <path clip-path="url(#p2ace53647e)" d="M 408.670727 120.5216 
L 408.670727 32.64 
" style="fill:none;stroke:#b0b0b0;stroke-linecap:square;stroke-width:0.8;"/>
     </g>
     <g id="line2d_32">
      <g>
       <use style="stroke:#000000;stroke-width:0.8;" x="408.670727" xlink:href="#m520b9b3f53" y="120.5216"/>
      </g>
     </g>
    </g>
    <g id="xtick_11">
     <g id="line2d_33">
      <path clip-path="url(#p2ace53647e)" d="M 444.1105 120.5216 
L 444.1105 32.64 
" style="fill:none;stroke:#b0b0b0;stroke-linecap:square;stroke-width:0.8;"/>
     </g>
     <g id="line2d_34">
      <g>
       <use style="stroke:#000000;stroke-width:0.8;" x="444.1105" xlink:href="#m520b9b3f53" y="120.5216"/>
      </g>
     </g>
    </g>
    <g id="xtick_12">
     <g id="line2d_35">
      <path clip-path="url(#p2ace53647e)" d="M 479.550273 120.5216 
L 479.550273 32.64 
" style="fill:none;stroke:#b0b0b0;stroke-linecap:square;stroke-width:0.8;"/>
     </g>
     <g id="line2d_36">
      <g>
       <use style="stroke:#000000;stroke-width:0.8;" x="479.550273" xlink:href="#m520b9b3f53" y="120.5216"/>
      </g>
     </g>
    </g>
    <g id="xtick_13">
     <g id="line2d_37">
      <path clip-path="url(#p2ace53647e)" d="M 514.990045 120.5216 
L 514.990045 32.64 
" style="fill:none;stroke:#b0b0b0;stroke-linecap:square;stroke-width:0.8;"/>
     </g>
     <g id="line2d_38">
      <g>
       <use style="stroke:#000000;stroke-width:0.8;" x="514.990045" xlink:href="#m520b9b3f53" y="120.5216"/>
      </g>
     </g>
    </g>
    <g id="xtick_14">
     <g id="line2d_39">
      <path clip-path="url(#p2ace53647e)" d="M 550.429818 120.5216 
L 550.429818 32.64 
" style="fill:none;stroke:#b0b0b0;stroke-linecap:square;stroke-width:0.8;"/>
     </g>
     <g id="line2d_40">
      <g>
       <use style="stroke:#000000;stroke-width:0.8;" x="550.429818" xlink:href="#m520b9b3f53" y="120.5216"/>
      </g>
     </g>
    </g>
    <g id="xtick_15">
     <g id="line2d_41">
      <path clip-path="url(#p2ace53647e)" d="M 585.869591 120.5216 
L 585.869591 32.64 
" style="fill:none;stroke:#b0b0b0;stroke-linecap:square;stroke-width:0.8;"/>
     </g>
     <g id="line2d_42">
      <g>
       <use style="stroke:#000000;stroke-width:0.8;" x="585.869591" xlink:href="#m520b9b3f53" y="120.5216"/>
      </g>
     </g>
    </g>
    <g id="xtick_16">
     <g id="line2d_43">
      <path clip-path="url(#p2ace53647e)" d="M 621.309364 120.5216 
L 621.309364 32.64 
" style="fill:none;stroke:#b0b0b0;stroke-linecap:square;stroke-width:0.8;"/>
     </g>
     <g id="line2d_44">
      <g>
       <use style="stroke:#000000;stroke-width:0.8;" x="621.309364" xlink:href="#m520b9b3f53" y="120.5216"/>
      </g>
     </g>
    </g>
    <g id="xtick_17">
     <g id="line2d_45">
      <path clip-path="url(#p2ace53647e)" d="M 656.749136 120.5216 
L 656.749136 32.64 
" style="fill:none;stroke:#b0b0b0;stroke-linecap:square;stroke-width:0.8;"/>
     </g>
     <g id="line2d_46">
      <g>
       <use style="stroke:#000000;stroke-width:0.8;" x="656.749136" xlink:href="#m520b9b3f53" y="120.5216"/>
      </g>
     </g>
    </g>
    <g id="xtick_18">
     <g id="line2d_47">
      <path clip-path="url(#p2ace53647e)" d="M 692.188909 120.5216 
L 692.188909 32.64 
" style="fill:none;stroke:#b0b0b0;stroke-linecap:square;stroke-width:0.8;"/>
     </g>
     <g id="line2d_48">
      <g>
       <use style="stroke:#000000;stroke-width:0.8;" x="692.188909" xlink:href="#m520b9b3f53" y="120.5216"/>
      </g>
     </g>
    </g>
   </g>
   <g id="matplotlib.axis_4">
    <g id="ytick_4">
     <g id="line2d_49">
      <path clip-path="url(#p2ace53647e)" d="M 397.33 107.289013 
L 709.2 107.289013 
" style="fill:none;stroke:#b0b0b0;stroke-linecap:square;stroke-width:0.8;"/>
     </g>
     <g id="line2d_50">
      <g>
       <use style="stroke:#000000;stroke-width:0.8;" x="397.33" xlink:href="#m95f3a1f7e0" y="107.289013"/>
      </g>
     </g>
     <g id="text_7">
      <!-- −150 -->
      <defs>
       <path d="M 10.59375 35.5 
L 73.1875 35.5 
L 73.1875 27.203125 
L 10.59375 27.203125 
z
" id="DejaVuSans-8722"/>
       <path d="M 10.796875 72.90625 
L 49.515625 72.90625 
L 49.515625 64.59375 
L 19.828125 64.59375 
L 19.828125 46.734375 
Q 21.96875 47.46875 24.109375 47.828125 
Q 26.265625 48.1875 28.421875 48.1875 
Q 40.625 48.1875 47.75 41.5 
Q 54.890625 34.8125 54.890625 23.390625 
Q 54.890625 11.625 47.5625 5.09375 
Q 40.234375 -1.421875 26.90625 -1.421875 
Q 22.3125 -1.421875 17.546875 -0.640625 
Q 12.796875 0.140625 7.71875 1.703125 
L 7.71875 11.625 
Q 12.109375 9.234375 16.796875 8.0625 
Q 21.484375 6.890625 26.703125 6.890625 
Q 35.15625 6.890625 40.078125 11.328125 
Q 45.015625 15.765625 45.015625 23.390625 
Q 45.015625 31 40.078125 35.4375 
Q 35.15625 39.890625 26.703125 39.890625 
Q 22.75 39.890625 18.8125 39.015625 
Q 14.890625 38.140625 10.796875 36.28125 
z
" id="DejaVuSans-53"/>
      </defs>
      <g transform="translate(362.862812 111.088231)scale(0.1 -0.1)">
       <use xlink:href="#DejaVuSans-8722"/>
       <use x="83.789062" xlink:href="#DejaVuSans-49"/>
       <use x="147.412109" xlink:href="#DejaVuSans-53"/>
       <use x="211.035156" xlink:href="#DejaVuSans-48"/>
      </g>
     </g>
    </g>
    <g id="ytick_5">
     <g id="line2d_51">
      <path clip-path="url(#p2ace53647e)" d="M 397.33 83.7402 
L 709.2 83.7402 
" style="fill:none;stroke:#b0b0b0;stroke-linecap:square;stroke-width:0.8;"/>
     </g>
     <g id="line2d_52">
      <g>
       <use style="stroke:#000000;stroke-width:0.8;" x="397.33" xlink:href="#m95f3a1f7e0" y="83.7402"/>
      </g>
     </g>
     <g id="text_8">
      <!-- −100 -->
      <g transform="translate(362.862812 87.539418)scale(0.1 -0.1)">
       <use xlink:href="#DejaVuSans-8722"/>
       <use x="83.789062" xlink:href="#DejaVuSans-49"/>
       <use x="147.412109" xlink:href="#DejaVuSans-48"/>
       <use x="211.035156" xlink:href="#DejaVuSans-48"/>
      </g>
     </g>
    </g>
    <g id="ytick_6">
     <g id="line2d_53">
      <path clip-path="url(#p2ace53647e)" d="M 397.33 60.191387 
L 709.2 60.191387 
" style="fill:none;stroke:#b0b0b0;stroke-linecap:square;stroke-width:0.8;"/>
     </g>
     <g id="line2d_54">
      <g>
       <use style="stroke:#000000;stroke-width:0.8;" x="397.33" xlink:href="#m95f3a1f7e0" y="60.191387"/>
      </g>
     </g>
     <g id="text_9">
      <!-- −50 -->
      <g transform="translate(369.225312 63.990606)scale(0.1 -0.1)">
       <use xlink:href="#DejaVuSans-8722"/>
       <use x="83.789062" xlink:href="#DejaVuSans-53"/>
       <use x="147.412109" xlink:href="#DejaVuSans-48"/>
      </g>
     </g>
    </g>
    <g id="ytick_7">
     <g id="line2d_55">
      <path clip-path="url(#p2ace53647e)" d="M 397.33 36.642574 
L 709.2 36.642574 
" style="fill:none;stroke:#b0b0b0;stroke-linecap:square;stroke-width:0.8;"/>
     </g>
     <g id="line2d_56">
      <g>
       <use style="stroke:#000000;stroke-width:0.8;" x="397.33" xlink:href="#m95f3a1f7e0" y="36.642574"/>
      </g>
     </g>
     <g id="text_10">
      <!-- 0 -->
      <g transform="translate(383.9675 40.441793)scale(0.1 -0.1)">
       <use xlink:href="#DejaVuSans-48"/>
      </g>
     </g>
    </g>
   </g>
   <g id="line2d_57">
    <path clip-path="url(#p2ace53647e)" d="M 411.505909 36.640702 
L 420.72025 36.634618 
L 424.973023 37.523987 
L 425.681818 37.767415 
L 426.390614 37.892622 
L 427.099409 38.135121 
L 427.808205 38.259452 
L 428.517 38.501127 
L 429.225795 38.623761 
L 429.934591 38.863529 
L 430.643386 38.985554 
L 431.352182 39.225322 
L 432.060977 39.347346 
L 432.769773 39.587114 
L 433.478568 39.709139 
L 434.896159 40.188675 
L 435.604955 40.3107 
L 436.31375 40.550468 
L 437.022545 40.672492 
L 438.440136 41.152029 
L 439.148932 41.274053 
L 439.857727 41.513821 
L 440.566523 41.635846 
L 441.984114 42.115382 
L 442.692909 42.237406 
L 444.1105 42.716943 
L 444.819295 42.838967 
L 445.528091 43.078735 
L 446.236886 43.20076 
L 447.654477 43.680296 
L 448.363273 43.80232 
L 449.780864 44.281857 
L 450.489659 44.403882 
L 451.90725 44.883418 
L 452.616045 45.005442 
L 454.033636 45.484979 
L 454.742432 45.607003 
L 456.160023 46.08654 
L 456.868818 46.208564 
L 458.286409 46.688101 
L 458.995205 46.810125 
L 460.412795 47.289661 
L 461.121591 47.411685 
L 462.539182 47.891222 
L 463.247977 48.013246 
L 465.374364 48.732552 
L 466.083159 48.854576 
L 467.50075 49.334112 
L 468.209545 49.456137 
L 469.627136 49.935673 
L 470.335932 50.057697 
L 472.462318 50.777002 
L 473.171114 50.899026 
L 474.588705 51.378563 
L 475.2975 51.500587 
L 477.423886 52.219892 
L 478.132682 52.341916 
L 479.550273 52.821453 
L 480.259068 52.943477 
L 482.385455 53.662783 
L 483.09425 53.784807 
L 484.511841 54.264343 
L 485.220636 54.386368 
L 487.347023 55.105672 
L 488.055818 55.227697 
L 489.473409 55.707233 
L 490.182205 55.829257 
L 492.308591 56.548562 
L 493.017386 56.670586 
L 495.143773 57.389891 
L 495.852568 57.511916 
L 497.270159 57.991452 
L 497.978955 58.113476 
L 500.105341 58.832781 
L 500.814136 58.954806 
L 502.940523 59.67411 
L 503.649318 59.796135 
L 505.066909 60.275671 
L 505.775705 60.397696 
L 507.902091 61.117001 
L 508.610886 61.239025 
L 510.737273 61.95833 
L 511.446068 62.080354 
L 513.572455 62.799659 
L 514.28125 62.921683 
L 516.407636 63.640989 
L 517.116432 63.763013 
L 518.534023 64.242549 
L 519.242818 64.364574 
L 521.369205 65.083878 
L 522.078 65.205903 
L 524.204386 65.925208 
L 524.913182 66.047232 
L 527.039568 66.766537 
L 527.748364 66.888561 
L 529.87475 67.607866 
L 530.583545 67.72989 
L 532.709932 68.449195 
L 533.418727 68.571219 
L 535.545114 69.290524 
L 536.253909 69.412548 
L 537.6715 69.892085 
L 538.380295 70.014109 
L 540.506682 70.733414 
L 541.215477 70.855438 
L 543.341864 71.574743 
L 544.050659 71.696767 
L 546.177045 72.416072 
L 546.885841 72.538096 
L 549.012227 73.257401 
L 549.721023 73.379426 
L 551.847409 74.098731 
L 552.556205 74.220755 
L 554.682591 74.94006 
L 555.391386 75.062084 
L 557.517773 75.781389 
L 558.226568 75.903413 
L 560.352955 76.622718 
L 561.06175 76.744742 
L 563.188136 77.464047 
L 563.896932 77.586071 
L 566.023318 78.305376 
L 566.732114 78.427401 
L 568.8585 79.146705 
L 569.567295 79.26873 
L 571.693682 79.988035 
L 572.402477 80.110059 
L 574.528864 80.829364 
L 575.237659 80.951388 
L 577.364045 81.670693 
L 578.072841 81.792717 
L 580.199227 82.512022 
L 580.908023 82.634046 
L 583.034409 83.353351 
L 583.743205 83.475376 
L 585.869591 84.194681 
L 586.578386 84.316705 
L 588.704773 85.03601 
L 589.413568 85.158034 
L 591.539955 85.877339 
L 592.24875 85.999363 
L 594.375136 86.718668 
L 595.083932 86.840692 
L 597.210318 87.559997 
L 597.919114 87.682022 
L 600.0455 88.401327 
L 600.754295 88.523351 
L 602.880682 89.242656 
L 603.589477 89.36468 
L 605.715864 90.083985 
L 606.424659 90.206009 
L 608.551045 90.925314 
L 609.259841 91.047338 
L 611.386227 91.766643 
L 612.095023 91.888668 
L 614.221409 92.607973 
L 614.930205 92.729997 
L 616.347795 93.209533 
L 617.056591 93.331558 
L 619.891773 94.290631 
L 620.600568 94.412655 
L 622.726955 95.13196 
L 623.43575 95.253984 
L 626.270932 96.213058 
L 626.979727 96.335082 
L 628.397318 96.814619 
L 629.106114 96.936643 
L 631.2325 97.655948 
L 631.941295 97.777972 
L 634.067682 98.497277 
L 634.776477 98.619301 
L 636.194068 99.098838 
L 636.902864 99.220862 
L 639.738045 100.179935 
L 640.446841 100.30196 
L 643.282023 101.261033 
L 643.990818 101.383057 
L 646.117205 102.102362 
L 646.826 102.224386 
L 648.952386 102.943691 
L 649.661182 103.065715 
L 651.078773 103.545252 
L 651.787568 103.667276 
L 653.913955 104.386581 
L 654.62275 104.508605 
L 656.749136 105.22791 
L 657.457932 105.349935 
L 659.584318 106.069239 
L 660.293114 106.191264 
L 663.128295 107.150337 
L 663.837091 107.272361 
L 665.963477 107.991666 
L 666.672273 108.11369 
L 668.798659 108.832995 
L 669.507455 108.955019 
L 670.925045 109.434556 
L 671.633841 109.55658 
L 673.760227 110.275885 
L 674.469023 110.397909 
L 676.595409 111.117214 
L 677.304205 111.239239 
L 678.721795 111.718775 
L 679.430591 111.840799 
L 682.265773 112.799873 
L 682.974568 112.921897 
L 685.80975 113.88097 
L 686.518545 114.002994 
L 688.644932 114.722299 
L 689.353727 114.844324 
L 690.062523 115.084092 
L 690.771318 115.088372 
L 695.024091 116.526982 
L 695.024091 116.526982 
" style="fill:none;stroke:#1f77b4;stroke-linecap:square;stroke-width:1.5;"/>
   </g>
   <g id="patch_9">
    <path d="M 397.33 120.5216 
L 397.33 32.64 
" style="fill:none;stroke:#000000;stroke-linecap:square;stroke-linejoin:miter;stroke-width:0.8;"/>
   </g>
   <g id="patch_10">
    <path d="M 709.2 120.5216 
L 709.2 32.64 
" style="fill:none;stroke:#000000;stroke-linecap:square;stroke-linejoin:miter;stroke-width:0.8;"/>
   </g>
   <g id="patch_11">
    <path d="M 397.33 120.5216 
L 709.2 120.5216 
" style="fill:none;stroke:#000000;stroke-linecap:square;stroke-linejoin:miter;stroke-width:0.8;"/>
   </g>
   <g id="patch_12">
    <path d="M 397.33 32.64 
L 709.2 32.64 
" style="fill:none;stroke:#000000;stroke-linecap:square;stroke-linejoin:miter;stroke-width:0.8;"/>
   </g>
   <g id="text_11">
    <!-- Cons. Difference -->
    <defs>
     <path d="M 19.671875 64.796875 
L 19.671875 8.109375 
L 31.59375 8.109375 
Q 46.6875 8.109375 53.6875 14.9375 
Q 60.6875 21.78125 60.6875 36.53125 
Q 60.6875 51.171875 53.6875 57.984375 
Q 46.6875 64.796875 31.59375 64.796875 
z
M 9.8125 72.90625 
L 30.078125 72.90625 
Q 51.265625 72.90625 61.171875 64.09375 
Q 71.09375 55.28125 71.09375 36.53125 
Q 71.09375 17.671875 61.125 8.828125 
Q 51.171875 0 30.078125 0 
L 9.8125 0 
z
" id="DejaVuSans-68"/>
     <path d="M 37.109375 75.984375 
L 37.109375 68.5 
L 28.515625 68.5 
Q 23.6875 68.5 21.796875 66.546875 
Q 19.921875 64.59375 19.921875 59.515625 
L 19.921875 54.6875 
L 34.71875 54.6875 
L 34.71875 47.703125 
L 19.921875 47.703125 
L 19.921875 0 
L 10.890625 0 
L 10.890625 47.703125 
L 2.296875 47.703125 
L 2.296875 54.6875 
L 10.890625 54.6875 
L 10.890625 58.5 
Q 10.890625 67.625 15.140625 71.796875 
Q 19.390625 75.984375 28.609375 75.984375 
z
" id="DejaVuSans-102"/>
     <path d="M 56.203125 29.59375 
L 56.203125 25.203125 
L 14.890625 25.203125 
Q 15.484375 15.921875 20.484375 11.0625 
Q 25.484375 6.203125 34.421875 6.203125 
Q 39.59375 6.203125 44.453125 7.46875 
Q 49.3125 8.734375 54.109375 11.28125 
L 54.109375 2.78125 
Q 49.265625 0.734375 44.1875 -0.34375 
Q 39.109375 -1.421875 33.890625 -1.421875 
Q 20.796875 -1.421875 13.15625 6.1875 
Q 5.515625 13.8125 5.515625 26.8125 
Q 5.515625 40.234375 12.765625 48.109375 
Q 20.015625 56 32.328125 56 
Q 43.359375 56 49.78125 48.890625 
Q 56.203125 41.796875 56.203125 29.59375 
z
M 47.21875 32.234375 
Q 47.125 39.59375 43.09375 43.984375 
Q 39.0625 48.390625 32.421875 48.390625 
Q 24.90625 48.390625 20.390625 44.140625 
Q 15.875 39.890625 15.1875 32.171875 
z
" id="DejaVuSans-101"/>
     <path d="M 41.109375 46.296875 
Q 39.59375 47.171875 37.8125 47.578125 
Q 36.03125 48 33.890625 48 
Q 26.265625 48 22.1875 43.046875 
Q 18.109375 38.09375 18.109375 28.8125 
L 18.109375 0 
L 9.078125 0 
L 9.078125 54.6875 
L 18.109375 54.6875 
L 18.109375 46.1875 
Q 20.953125 51.171875 25.484375 53.578125 
Q 30.03125 56 36.53125 56 
Q 37.453125 56 38.578125 55.875 
Q 39.703125 55.765625 41.0625 55.515625 
z
" id="DejaVuSans-114"/>
    </defs>
    <g transform="translate(503.509062 26.64)scale(0.12 -0.12)">
     <use xlink:href="#DejaVuSans-67"/>
     <use x="69.824219" xlink:href="#DejaVuSans-111"/>
     <use x="131.005859" xlink:href="#DejaVuSans-110"/>
     <use x="194.384766" xlink:href="#DejaVuSans-115"/>
     <use x="246.484375" xlink:href="#DejaVuSans-46"/>
     <use x="278.271484" xlink:href="#DejaVuSans-32"/>
     <use x="310.058594" xlink:href="#DejaVuSans-68"/>
     <use x="387.060547" xlink:href="#DejaVuSans-105"/>
     <use x="414.84375" xlink:href="#DejaVuSans-102"/>
     <use x="450.048828" xlink:href="#DejaVuSans-102"/>
     <use x="485.253906" xlink:href="#DejaVuSans-101"/>
     <use x="546.777344" xlink:href="#DejaVuSans-114"/>
     <use x="587.859375" xlink:href="#DejaVuSans-101"/>
     <use x="649.382812" xlink:href="#DejaVuSans-110"/>
     <use x="712.761719" xlink:href="#DejaVuSans-99"/>
     <use x="767.742188" xlink:href="#DejaVuSans-101"/>
    </g>
   </g>
   <g id="legend_2">
    <g id="patch_13">
     <path d="M 609.009375 55.318125 
L 702.2 55.318125 
Q 704.2 55.318125 704.2 53.318125 
L 704.2 39.64 
Q 704.2 37.64 702.2 37.64 
L 609.009375 37.64 
Q 607.009375 37.64 607.009375 39.64 
L 607.009375 53.318125 
Q 607.009375 55.318125 609.009375 55.318125 
z
" style="fill:#ffffff;opacity:0.8;stroke:#cccccc;stroke-linejoin:miter;"/>
    </g>
    <g id="line2d_58">
     <path d="M 611.009375 45.738438 
L 631.009375 45.738438 
" style="fill:none;stroke:#1f77b4;stroke-linecap:square;stroke-width:1.5;"/>
    </g>
    <g id="line2d_59"/>
    <g id="text_12">
     <!-- CGM - HARK -->
     <defs>
      <path d="M 4.890625 31.390625 
L 31.203125 31.390625 
L 31.203125 23.390625 
L 4.890625 23.390625 
z
" id="DejaVuSans-45"/>
     </defs>
     <g transform="translate(639.009375 49.238438)scale(0.1 -0.1)">
      <use xlink:href="#DejaVuSans-67"/>
      <use x="69.824219" xlink:href="#DejaVuSans-71"/>
      <use x="147.314453" xlink:href="#DejaVuSans-77"/>
      <use x="233.59375" xlink:href="#DejaVuSans-32"/>
      <use x="265.380859" xlink:href="#DejaVuSans-45"/>
      <use x="301.464844" xlink:href="#DejaVuSans-32"/>
      <use x="333.251953" xlink:href="#DejaVuSans-72"/>
      <use x="408.447266" xlink:href="#DejaVuSans-65"/>
      <use x="476.855469" xlink:href="#DejaVuSans-82"/>
      <use x="546.337891" xlink:href="#DejaVuSans-75"/>
     </g>
    </g>
   </g>
  </g>
  <g id="axes_3">
   <g id="patch_14">
    <path d="M 40.12 252.344 
L 351.99 252.344 
L 351.99 164.4624 
L 40.12 164.4624 
z
" style="fill:#ffffff;"/>
   </g>
   <g id="matplotlib.axis_5">
    <g id="xtick_19">
     <g id="line2d_60">
      <path clip-path="url(#p1fbd42a2c4)" d="M 51.460727 252.344 
L 51.460727 164.4624 
" style="fill:none;stroke:#b0b0b0;stroke-linecap:square;stroke-width:0.8;"/>
     </g>
     <g id="line2d_61">
      <g>
       <use style="stroke:#000000;stroke-width:0.8;" x="51.460727" xlink:href="#m520b9b3f53" y="252.344"/>
      </g>
     </g>
     <g id="text_13">
      <!-- 0 -->
      <g transform="translate(48.279477 266.942437)scale(0.1 -0.1)">
       <use xlink:href="#DejaVuSans-48"/>
      </g>
     </g>
    </g>
    <g id="xtick_20">
     <g id="line2d_62">
      <path clip-path="url(#p1fbd42a2c4)" d="M 86.9005 252.344 
L 86.9005 164.4624 
" style="fill:none;stroke:#b0b0b0;stroke-linecap:square;stroke-width:0.8;"/>
     </g>
     <g id="line2d_63">
      <g>
       <use style="stroke:#000000;stroke-width:0.8;" x="86.9005" xlink:href="#m520b9b3f53" y="252.344"/>
      </g>
     </g>
     <g id="text_14">
      <!-- 50 -->
      <g transform="translate(80.538 266.942437)scale(0.1 -0.1)">
       <use xlink:href="#DejaVuSans-53"/>
       <use x="63.623047" xlink:href="#DejaVuSans-48"/>
      </g>
     </g>
    </g>
    <g id="xtick_21">
     <g id="line2d_64">
      <path clip-path="url(#p1fbd42a2c4)" d="M 122.340273 252.344 
L 122.340273 164.4624 
" style="fill:none;stroke:#b0b0b0;stroke-linecap:square;stroke-width:0.8;"/>
     </g>
     <g id="line2d_65">
      <g>
       <use style="stroke:#000000;stroke-width:0.8;" x="122.340273" xlink:href="#m520b9b3f53" y="252.344"/>
      </g>
     </g>
     <g id="text_15">
      <!-- 100 -->
      <g transform="translate(112.796523 266.942437)scale(0.1 -0.1)">
       <use xlink:href="#DejaVuSans-49"/>
       <use x="63.623047" xlink:href="#DejaVuSans-48"/>
       <use x="127.246094" xlink:href="#DejaVuSans-48"/>
      </g>
     </g>
    </g>
    <g id="xtick_22">
     <g id="line2d_66">
      <path clip-path="url(#p1fbd42a2c4)" d="M 157.780045 252.344 
L 157.780045 164.4624 
" style="fill:none;stroke:#b0b0b0;stroke-linecap:square;stroke-width:0.8;"/>
     </g>
     <g id="line2d_67">
      <g>
       <use style="stroke:#000000;stroke-width:0.8;" x="157.780045" xlink:href="#m520b9b3f53" y="252.344"/>
      </g>
     </g>
     <g id="text_16">
      <!-- 150 -->
      <g transform="translate(148.236295 266.942437)scale(0.1 -0.1)">
       <use xlink:href="#DejaVuSans-49"/>
       <use x="63.623047" xlink:href="#DejaVuSans-53"/>
       <use x="127.246094" xlink:href="#DejaVuSans-48"/>
      </g>
     </g>
    </g>
    <g id="xtick_23">
     <g id="line2d_68">
      <path clip-path="url(#p1fbd42a2c4)" d="M 193.219818 252.344 
L 193.219818 164.4624 
" style="fill:none;stroke:#b0b0b0;stroke-linecap:square;stroke-width:0.8;"/>
     </g>
     <g id="line2d_69">
      <g>
       <use style="stroke:#000000;stroke-width:0.8;" x="193.219818" xlink:href="#m520b9b3f53" y="252.344"/>
      </g>
     </g>
     <g id="text_17">
      <!-- 200 -->
      <g transform="translate(183.676068 266.942437)scale(0.1 -0.1)">
       <use xlink:href="#DejaVuSans-50"/>
       <use x="63.623047" xlink:href="#DejaVuSans-48"/>
       <use x="127.246094" xlink:href="#DejaVuSans-48"/>
      </g>
     </g>
    </g>
    <g id="xtick_24">
     <g id="line2d_70">
      <path clip-path="url(#p1fbd42a2c4)" d="M 228.659591 252.344 
L 228.659591 164.4624 
" style="fill:none;stroke:#b0b0b0;stroke-linecap:square;stroke-width:0.8;"/>
     </g>
     <g id="line2d_71">
      <g>
       <use style="stroke:#000000;stroke-width:0.8;" x="228.659591" xlink:href="#m520b9b3f53" y="252.344"/>
      </g>
     </g>
     <g id="text_18">
      <!-- 250 -->
      <g transform="translate(219.115841 266.942437)scale(0.1 -0.1)">
       <use xlink:href="#DejaVuSans-50"/>
       <use x="63.623047" xlink:href="#DejaVuSans-53"/>
       <use x="127.246094" xlink:href="#DejaVuSans-48"/>
      </g>
     </g>
    </g>
    <g id="xtick_25">
     <g id="line2d_72">
      <path clip-path="url(#p1fbd42a2c4)" d="M 264.099364 252.344 
L 264.099364 164.4624 
" style="fill:none;stroke:#b0b0b0;stroke-linecap:square;stroke-width:0.8;"/>
     </g>
     <g id="line2d_73">
      <g>
       <use style="stroke:#000000;stroke-width:0.8;" x="264.099364" xlink:href="#m520b9b3f53" y="252.344"/>
      </g>
     </g>
     <g id="text_19">
      <!-- 300 -->
      <defs>
       <path d="M 40.578125 39.3125 
Q 47.65625 37.796875 51.625 33 
Q 55.609375 28.21875 55.609375 21.1875 
Q 55.609375 10.40625 48.1875 4.484375 
Q 40.765625 -1.421875 27.09375 -1.421875 
Q 22.515625 -1.421875 17.65625 -0.515625 
Q 12.796875 0.390625 7.625 2.203125 
L 7.625 11.71875 
Q 11.71875 9.328125 16.59375 8.109375 
Q 21.484375 6.890625 26.8125 6.890625 
Q 36.078125 6.890625 40.9375 10.546875 
Q 45.796875 14.203125 45.796875 21.1875 
Q 45.796875 27.640625 41.28125 31.265625 
Q 36.765625 34.90625 28.71875 34.90625 
L 20.21875 34.90625 
L 20.21875 43.015625 
L 29.109375 43.015625 
Q 36.375 43.015625 40.234375 45.921875 
Q 44.09375 48.828125 44.09375 54.296875 
Q 44.09375 59.90625 40.109375 62.90625 
Q 36.140625 65.921875 28.71875 65.921875 
Q 24.65625 65.921875 20.015625 65.03125 
Q 15.375 64.15625 9.8125 62.3125 
L 9.8125 71.09375 
Q 15.4375 72.65625 20.34375 73.4375 
Q 25.25 74.21875 29.59375 74.21875 
Q 40.828125 74.21875 47.359375 69.109375 
Q 53.90625 64.015625 53.90625 55.328125 
Q 53.90625 49.265625 50.4375 45.09375 
Q 46.96875 40.921875 40.578125 39.3125 
z
" id="DejaVuSans-51"/>
      </defs>
      <g transform="translate(254.555614 266.942437)scale(0.1 -0.1)">
       <use xlink:href="#DejaVuSans-51"/>
       <use x="63.623047" xlink:href="#DejaVuSans-48"/>
       <use x="127.246094" xlink:href="#DejaVuSans-48"/>
      </g>
     </g>
    </g>
    <g id="xtick_26">
     <g id="line2d_74">
      <path clip-path="url(#p1fbd42a2c4)" d="M 299.539136 252.344 
L 299.539136 164.4624 
" style="fill:none;stroke:#b0b0b0;stroke-linecap:square;stroke-width:0.8;"/>
     </g>
     <g id="line2d_75">
      <g>
       <use style="stroke:#000000;stroke-width:0.8;" x="299.539136" xlink:href="#m520b9b3f53" y="252.344"/>
      </g>
     </g>
     <g id="text_20">
      <!-- 350 -->
      <g transform="translate(289.995386 266.942437)scale(0.1 -0.1)">
       <use xlink:href="#DejaVuSans-51"/>
       <use x="63.623047" xlink:href="#DejaVuSans-53"/>
       <use x="127.246094" xlink:href="#DejaVuSans-48"/>
      </g>
     </g>
    </g>
    <g id="xtick_27">
     <g id="line2d_76">
      <path clip-path="url(#p1fbd42a2c4)" d="M 334.978909 252.344 
L 334.978909 164.4624 
" style="fill:none;stroke:#b0b0b0;stroke-linecap:square;stroke-width:0.8;"/>
     </g>
     <g id="line2d_77">
      <g>
       <use style="stroke:#000000;stroke-width:0.8;" x="334.978909" xlink:href="#m520b9b3f53" y="252.344"/>
      </g>
     </g>
     <g id="text_21">
      <!-- 400 -->
      <defs>
       <path d="M 37.796875 64.3125 
L 12.890625 25.390625 
L 37.796875 25.390625 
z
M 35.203125 72.90625 
L 47.609375 72.90625 
L 47.609375 25.390625 
L 58.015625 25.390625 
L 58.015625 17.1875 
L 47.609375 17.1875 
L 47.609375 0 
L 37.796875 0 
L 37.796875 17.1875 
L 4.890625 17.1875 
L 4.890625 26.703125 
z
" id="DejaVuSans-52"/>
      </defs>
      <g transform="translate(325.435159 266.942437)scale(0.1 -0.1)">
       <use xlink:href="#DejaVuSans-52"/>
       <use x="63.623047" xlink:href="#DejaVuSans-48"/>
       <use x="127.246094" xlink:href="#DejaVuSans-48"/>
      </g>
     </g>
    </g>
   </g>
   <g id="matplotlib.axis_6">
    <g id="ytick_8">
     <g id="line2d_78">
      <path clip-path="url(#p1fbd42a2c4)" d="M 40.12 248.349382 
L 351.99 248.349382 
" style="fill:none;stroke:#b0b0b0;stroke-linecap:square;stroke-width:0.8;"/>
     </g>
     <g id="line2d_79">
      <g>
       <use style="stroke:#000000;stroke-width:0.8;" x="40.12" xlink:href="#m95f3a1f7e0" y="248.349382"/>
      </g>
     </g>
     <g id="text_22">
      <!-- 0.0 -->
      <g transform="translate(17.216875 252.148601)scale(0.1 -0.1)">
       <use xlink:href="#DejaVuSans-48"/>
       <use x="63.623047" xlink:href="#DejaVuSans-46"/>
       <use x="95.410156" xlink:href="#DejaVuSans-48"/>
      </g>
     </g>
    </g>
    <g id="ytick_9">
     <g id="line2d_80">
      <path clip-path="url(#p1fbd42a2c4)" d="M 40.12 208.4032 
L 351.99 208.4032 
" style="fill:none;stroke:#b0b0b0;stroke-linecap:square;stroke-width:0.8;"/>
     </g>
     <g id="line2d_81">
      <g>
       <use style="stroke:#000000;stroke-width:0.8;" x="40.12" xlink:href="#m95f3a1f7e0" y="208.4032"/>
      </g>
     </g>
     <g id="text_23">
      <!-- 0.5 -->
      <g transform="translate(17.216875 212.202419)scale(0.1 -0.1)">
       <use xlink:href="#DejaVuSans-48"/>
       <use x="63.623047" xlink:href="#DejaVuSans-46"/>
       <use x="95.410156" xlink:href="#DejaVuSans-53"/>
      </g>
     </g>
    </g>
    <g id="ytick_10">
     <g id="line2d_82">
      <path clip-path="url(#p1fbd42a2c4)" d="M 40.12 168.457018 
L 351.99 168.457018 
" style="fill:none;stroke:#b0b0b0;stroke-linecap:square;stroke-width:0.8;"/>
     </g>
     <g id="line2d_83">
      <g>
       <use style="stroke:#000000;stroke-width:0.8;" x="40.12" xlink:href="#m95f3a1f7e0" y="168.457018"/>
      </g>
     </g>
     <g id="text_24">
      <!-- 1.0 -->
      <g transform="translate(17.216875 172.256237)scale(0.1 -0.1)">
       <use xlink:href="#DejaVuSans-49"/>
       <use x="63.623047" xlink:href="#DejaVuSans-46"/>
       <use x="95.410156" xlink:href="#DejaVuSans-48"/>
      </g>
     </g>
    </g>
   </g>
   <g id="line2d_84">
    <path clip-path="url(#p1fbd42a2c4)" d="M 54.295909 248.349382 
L 63.51025 248.349382 
L 64.219045 168.457018 
L 95.406045 168.457018 
L 97.532432 170.853789 
L 98.241227 172.451636 
L 98.950023 173.25056 
L 99.658818 173.25056 
L 100.367614 174.848407 
L 101.076409 174.848407 
L 103.911591 178.044102 
L 104.620386 178.044102 
L 108.164364 182.03872 
L 108.873159 182.03872 
L 110.29075 183.636567 
L 110.999545 183.636567 
L 112.417136 185.234415 
L 113.125932 185.234415 
L 113.834727 186.033338 
L 114.543523 186.033338 
L 115.961114 187.631185 
L 116.669909 187.631185 
L 117.378705 188.430109 
L 118.0875 188.430109 
L 118.796295 189.229033 
L 119.505091 189.229033 
L 120.213886 190.027956 
L 121.631477 190.027956 
L 123.049068 191.625804 
L 124.466659 191.625804 
L 125.175455 192.424727 
L 125.88425 192.424727 
L 126.593045 193.223651 
L 127.301841 193.223651 
L 128.010636 194.022575 
L 129.428227 194.022575 
L 130.845818 195.620422 
L 132.972205 195.620422 
L 133.681 196.419345 
L 135.098591 196.419345 
L 136.516182 198.017193 
L 138.642568 198.017193 
L 139.351364 198.816116 
L 141.47775 198.816116 
L 142.186545 199.61504 
L 143.604136 199.61504 
L 144.312932 200.413964 
L 146.439318 200.413964 
L 147.148114 201.212887 
L 149.2745 201.212887 
L 149.983295 202.011811 
L 151.400886 202.011811 
L 152.109682 202.810735 
L 154.236068 202.810735 
L 154.944864 203.609658 
L 157.07125 203.609658 
L 157.780045 204.408582 
L 159.906432 204.408582 
L 160.615227 205.207505 
L 163.450409 205.207505 
L 164.159205 206.006429 
L 166.285591 206.006429 
L 166.994386 206.805353 
L 170.538364 206.805353 
L 171.247159 207.604276 
L 173.373545 207.604276 
L 174.082341 208.4032 
L 177.626318 208.4032 
L 178.335114 209.202124 
L 181.170295 209.202124 
L 181.879091 210.001047 
L 186.131864 210.001047 
L 186.840659 210.799971 
L 190.384636 210.799971 
L 191.093432 211.598895 
L 196.055 211.598895 
L 196.763795 212.397818 
L 201.016568 212.397818 
L 201.725364 213.196742 
L 204.560545 213.196742 
L 205.269341 213.995665 
L 205.978136 213.196742 
L 206.686932 213.196742 
L 207.395727 213.995665 
L 213.066091 213.995665 
L 213.774886 214.794589 
L 218.027659 214.794589 
L 218.736455 215.593513 
L 219.44525 214.794589 
L 220.154045 215.593513 
L 223.698023 215.593513 
L 224.406818 216.392436 
L 234.329955 216.392436 
L 235.03875 217.19136 
L 239.291523 217.19136 
L 240.000318 217.990284 
L 251.341045 217.990284 
L 252.049841 218.789207 
L 257.720205 218.789207 
L 258.429 219.588131 
L 259.137795 219.588131 
L 259.846591 218.789207 
L 260.555386 219.588131 
L 270.478523 219.588131 
L 271.187318 220.387055 
L 271.896114 220.387055 
L 272.604909 219.588131 
L 273.313705 220.387055 
L 280.401659 220.387055 
L 281.110455 221.185978 
L 294.577568 221.185978 
L 295.286364 221.984902 
L 295.995159 221.984902 
L 296.703955 221.185978 
L 297.41275 221.984902 
L 306.627091 221.984902 
L 307.335886 222.783825 
L 308.044682 221.984902 
L 308.753477 221.984902 
L 309.462273 222.783825 
L 320.094205 222.783825 
L 320.803 223.582749 
L 324.346977 223.582749 
L 325.055773 224.381673 
L 325.764568 223.582749 
L 326.473364 223.582749 
L 327.182159 224.381673 
L 328.59975 224.381673 
L 332.852523 229.175215 
L 333.561318 229.175215 
L 337.814091 233.968756 
L 337.814091 233.968756 
" style="fill:none;stroke:#1f77b4;stroke-linecap:square;stroke-width:1.5;"/>
   </g>
   <g id="line2d_85">
    <path clip-path="url(#p1fbd42a2c4)" d="M 54.295909 168.457018 
L 55.004705 168.457018 
L 55.7135 173.61751 
L 56.422295 181.459807 
L 57.131091 187.338208 
L 57.839886 191.913513 
L 58.548682 195.571087 
L 59.257477 198.563292 
L 60.675068 203.169426 
L 62.092659 206.546037 
L 63.51025 209.128836 
L 64.927841 211.168031 
L 66.345432 212.81746 
L 67.763023 214.182564 
L 69.889409 215.833156 
L 72.015795 217.144202 
L 74.142182 218.207474 
L 76.977364 219.352102 
L 79.812545 220.266247 
L 83.356523 221.18003 
L 87.609295 222.042083 
L 92.570864 222.821298 
L 98.950023 223.582069 
L 106.746773 224.276388 
L 116.669909 224.919577 
L 129.428227 225.505148 
L 145.730523 226.021943 
L 169.120773 226.51332 
L 201.016568 226.937176 
L 245.670682 227.296832 
L 317.967818 227.623116 
L 337.814091 227.683899 
L 337.814091 227.683899 
" style="fill:none;stroke:#ff7f0e;stroke-linecap:square;stroke-width:1.5;"/>
   </g>
   <g id="patch_15">
    <path d="M 40.12 252.344 
L 40.12 164.4624 
" style="fill:none;stroke:#000000;stroke-linecap:square;stroke-linejoin:miter;stroke-width:0.8;"/>
   </g>
   <g id="patch_16">
    <path d="M 351.99 252.344 
L 351.99 164.4624 
" style="fill:none;stroke:#000000;stroke-linecap:square;stroke-linejoin:miter;stroke-width:0.8;"/>
   </g>
   <g id="patch_17">
    <path d="M 40.12 252.344 
L 351.99 252.344 
" style="fill:none;stroke:#000000;stroke-linecap:square;stroke-linejoin:miter;stroke-width:0.8;"/>
   </g>
   <g id="patch_18">
    <path d="M 40.12 164.4624 
L 351.99 164.4624 
" style="fill:none;stroke:#000000;stroke-linecap:square;stroke-linejoin:miter;stroke-width:0.8;"/>
   </g>
   <g id="text_25">
    <!-- Risky Sh. Functions -->
    <defs>
     <path d="M 9.078125 75.984375 
L 18.109375 75.984375 
L 18.109375 31.109375 
L 44.921875 54.6875 
L 56.390625 54.6875 
L 27.390625 29.109375 
L 57.625 0 
L 45.90625 0 
L 18.109375 26.703125 
L 18.109375 0 
L 9.078125 0 
z
" id="DejaVuSans-107"/>
     <path d="M 32.171875 -5.078125 
Q 28.375 -14.84375 24.75 -17.8125 
Q 21.140625 -20.796875 15.09375 -20.796875 
L 7.90625 -20.796875 
L 7.90625 -13.28125 
L 13.1875 -13.28125 
Q 16.890625 -13.28125 18.9375 -11.515625 
Q 21 -9.765625 23.484375 -3.21875 
L 25.09375 0.875 
L 2.984375 54.6875 
L 12.5 54.6875 
L 29.59375 11.921875 
L 46.6875 54.6875 
L 56.203125 54.6875 
z
" id="DejaVuSans-121"/>
     <path d="M 53.515625 70.515625 
L 53.515625 60.890625 
Q 47.90625 63.578125 42.921875 64.890625 
Q 37.9375 66.21875 33.296875 66.21875 
Q 25.25 66.21875 20.875 63.09375 
Q 16.5 59.96875 16.5 54.203125 
Q 16.5 49.359375 19.40625 46.890625 
Q 22.3125 44.4375 30.421875 42.921875 
L 36.375 41.703125 
Q 47.40625 39.59375 52.65625 34.296875 
Q 57.90625 29 57.90625 20.125 
Q 57.90625 9.515625 50.796875 4.046875 
Q 43.703125 -1.421875 29.984375 -1.421875 
Q 24.8125 -1.421875 18.96875 -0.25 
Q 13.140625 0.921875 6.890625 3.21875 
L 6.890625 13.375 
Q 12.890625 10.015625 18.65625 8.296875 
Q 24.421875 6.59375 29.984375 6.59375 
Q 38.421875 6.59375 43.015625 9.90625 
Q 47.609375 13.234375 47.609375 19.390625 
Q 47.609375 24.75 44.3125 27.78125 
Q 41.015625 30.8125 33.5 32.328125 
L 27.484375 33.5 
Q 16.453125 35.6875 11.515625 40.375 
Q 6.59375 45.0625 6.59375 53.421875 
Q 6.59375 63.09375 13.40625 68.65625 
Q 20.21875 74.21875 32.171875 74.21875 
Q 37.3125 74.21875 42.625 73.28125 
Q 47.953125 72.359375 53.515625 70.515625 
z
" id="DejaVuSans-83"/>
     <path d="M 54.890625 33.015625 
L 54.890625 0 
L 45.90625 0 
L 45.90625 32.71875 
Q 45.90625 40.484375 42.875 44.328125 
Q 39.84375 48.1875 33.796875 48.1875 
Q 26.515625 48.1875 22.3125 43.546875 
Q 18.109375 38.921875 18.109375 30.90625 
L 18.109375 0 
L 9.078125 0 
L 9.078125 75.984375 
L 18.109375 75.984375 
L 18.109375 46.1875 
Q 21.34375 51.125 25.703125 53.5625 
Q 30.078125 56 35.796875 56 
Q 45.21875 56 50.046875 50.171875 
Q 54.890625 44.34375 54.890625 33.015625 
z
" id="DejaVuSans-104"/>
    </defs>
    <g transform="translate(137.769688 158.4624)scale(0.12 -0.12)">
     <use xlink:href="#DejaVuSans-82"/>
     <use x="69.482422" xlink:href="#DejaVuSans-105"/>
     <use x="97.265625" xlink:href="#DejaVuSans-115"/>
     <use x="149.365234" xlink:href="#DejaVuSans-107"/>
     <use x="207.228516" xlink:href="#DejaVuSans-121"/>
     <use x="266.408203" xlink:href="#DejaVuSans-32"/>
     <use x="298.195312" xlink:href="#DejaVuSans-83"/>
     <use x="361.671875" xlink:href="#DejaVuSans-104"/>
     <use x="425.050781" xlink:href="#DejaVuSans-46"/>
     <use x="456.837891" xlink:href="#DejaVuSans-32"/>
     <use x="488.625" xlink:href="#DejaVuSans-70"/>
     <use x="546.066406" xlink:href="#DejaVuSans-117"/>
     <use x="609.445312" xlink:href="#DejaVuSans-110"/>
     <use x="672.824219" xlink:href="#DejaVuSans-99"/>
     <use x="727.804688" xlink:href="#DejaVuSans-116"/>
     <use x="767.013672" xlink:href="#DejaVuSans-105"/>
     <use x="794.796875" xlink:href="#DejaVuSans-111"/>
     <use x="855.978516" xlink:href="#DejaVuSans-110"/>
     <use x="919.357422" xlink:href="#DejaVuSans-115"/>
    </g>
   </g>
   <g id="legend_3">
    <g id="patch_19">
     <path d="M 285.122813 201.81865 
L 344.99 201.81865 
Q 346.99 201.81865 346.99 199.81865 
L 346.99 171.4624 
Q 346.99 169.4624 344.99 169.4624 
L 285.122813 169.4624 
Q 283.122813 169.4624 283.122813 171.4624 
L 283.122813 199.81865 
Q 283.122813 201.81865 285.122813 201.81865 
z
" style="fill:#ffffff;opacity:0.8;stroke:#cccccc;stroke-linejoin:miter;"/>
    </g>
    <g id="line2d_86">
     <path d="M 287.122813 177.560837 
L 307.122813 177.560837 
" style="fill:none;stroke:#1f77b4;stroke-linecap:square;stroke-width:1.5;"/>
    </g>
    <g id="line2d_87"/>
    <g id="text_26">
     <!-- CGM -->
     <g transform="translate(315.122813 181.060837)scale(0.1 -0.1)">
      <use xlink:href="#DejaVuSans-67"/>
      <use x="69.824219" xlink:href="#DejaVuSans-71"/>
      <use x="147.314453" xlink:href="#DejaVuSans-77"/>
     </g>
    </g>
    <g id="line2d_88">
     <path d="M 287.122813 192.238962 
L 307.122813 192.238962 
" style="fill:none;stroke:#ff7f0e;stroke-linecap:square;stroke-width:1.5;"/>
    </g>
    <g id="line2d_89"/>
    <g id="text_27">
     <!-- HARK -->
     <g transform="translate(315.122813 195.738962)scale(0.1 -0.1)">
      <use xlink:href="#DejaVuSans-72"/>
      <use x="75.195312" xlink:href="#DejaVuSans-65"/>
      <use x="143.603516" xlink:href="#DejaVuSans-82"/>
      <use x="213.085938" xlink:href="#DejaVuSans-75"/>
     </g>
    </g>
   </g>
  </g>
  <g id="axes_4">
   <g id="patch_20">
    <path d="M 397.33 252.344 
L 709.2 252.344 
L 709.2 164.4624 
L 397.33 164.4624 
z
" style="fill:#ffffff;"/>
   </g>
   <g id="matplotlib.axis_7">
    <g id="xtick_28">
     <g id="line2d_90">
      <path clip-path="url(#pf93cdbf4ac)" d="M 408.670727 252.344 
L 408.670727 164.4624 
" style="fill:none;stroke:#b0b0b0;stroke-linecap:square;stroke-width:0.8;"/>
     </g>
     <g id="line2d_91">
      <g>
       <use style="stroke:#000000;stroke-width:0.8;" x="408.670727" xlink:href="#m520b9b3f53" y="252.344"/>
      </g>
     </g>
     <g id="text_28">
      <!-- 0 -->
      <g transform="translate(405.489477 266.942437)scale(0.1 -0.1)">
       <use xlink:href="#DejaVuSans-48"/>
      </g>
     </g>
    </g>
    <g id="xtick_29">
     <g id="line2d_92">
      <path clip-path="url(#pf93cdbf4ac)" d="M 444.1105 252.344 
L 444.1105 164.4624 
" style="fill:none;stroke:#b0b0b0;stroke-linecap:square;stroke-width:0.8;"/>
     </g>
     <g id="line2d_93">
      <g>
       <use style="stroke:#000000;stroke-width:0.8;" x="444.1105" xlink:href="#m520b9b3f53" y="252.344"/>
      </g>
     </g>
     <g id="text_29">
      <!-- 50 -->
      <g transform="translate(437.748 266.942437)scale(0.1 -0.1)">
       <use xlink:href="#DejaVuSans-53"/>
       <use x="63.623047" xlink:href="#DejaVuSans-48"/>
      </g>
     </g>
    </g>
    <g id="xtick_30">
     <g id="line2d_94">
      <path clip-path="url(#pf93cdbf4ac)" d="M 479.550273 252.344 
L 479.550273 164.4624 
" style="fill:none;stroke:#b0b0b0;stroke-linecap:square;stroke-width:0.8;"/>
     </g>
     <g id="line2d_95">
      <g>
       <use style="stroke:#000000;stroke-width:0.8;" x="479.550273" xlink:href="#m520b9b3f53" y="252.344"/>
      </g>
     </g>
     <g id="text_30">
      <!-- 100 -->
      <g transform="translate(470.006523 266.942437)scale(0.1 -0.1)">
       <use xlink:href="#DejaVuSans-49"/>
       <use x="63.623047" xlink:href="#DejaVuSans-48"/>
       <use x="127.246094" xlink:href="#DejaVuSans-48"/>
      </g>
     </g>
    </g>
    <g id="xtick_31">
     <g id="line2d_96">
      <path clip-path="url(#pf93cdbf4ac)" d="M 514.990045 252.344 
L 514.990045 164.4624 
" style="fill:none;stroke:#b0b0b0;stroke-linecap:square;stroke-width:0.8;"/>
     </g>
     <g id="line2d_97">
      <g>
       <use style="stroke:#000000;stroke-width:0.8;" x="514.990045" xlink:href="#m520b9b3f53" y="252.344"/>
      </g>
     </g>
     <g id="text_31">
      <!-- 150 -->
      <g transform="translate(505.446295 266.942437)scale(0.1 -0.1)">
       <use xlink:href="#DejaVuSans-49"/>
       <use x="63.623047" xlink:href="#DejaVuSans-53"/>
       <use x="127.246094" xlink:href="#DejaVuSans-48"/>
      </g>
     </g>
    </g>
    <g id="xtick_32">
     <g id="line2d_98">
      <path clip-path="url(#pf93cdbf4ac)" d="M 550.429818 252.344 
L 550.429818 164.4624 
" style="fill:none;stroke:#b0b0b0;stroke-linecap:square;stroke-width:0.8;"/>
     </g>
     <g id="line2d_99">
      <g>
       <use style="stroke:#000000;stroke-width:0.8;" x="550.429818" xlink:href="#m520b9b3f53" y="252.344"/>
      </g>
     </g>
     <g id="text_32">
      <!-- 200 -->
      <g transform="translate(540.886068 266.942437)scale(0.1 -0.1)">
       <use xlink:href="#DejaVuSans-50"/>
       <use x="63.623047" xlink:href="#DejaVuSans-48"/>
       <use x="127.246094" xlink:href="#DejaVuSans-48"/>
      </g>
     </g>
    </g>
    <g id="xtick_33">
     <g id="line2d_100">
      <path clip-path="url(#pf93cdbf4ac)" d="M 585.869591 252.344 
L 585.869591 164.4624 
" style="fill:none;stroke:#b0b0b0;stroke-linecap:square;stroke-width:0.8;"/>
     </g>
     <g id="line2d_101">
      <g>
       <use style="stroke:#000000;stroke-width:0.8;" x="585.869591" xlink:href="#m520b9b3f53" y="252.344"/>
      </g>
     </g>
     <g id="text_33">
      <!-- 250 -->
      <g transform="translate(576.325841 266.942437)scale(0.1 -0.1)">
       <use xlink:href="#DejaVuSans-50"/>
       <use x="63.623047" xlink:href="#DejaVuSans-53"/>
       <use x="127.246094" xlink:href="#DejaVuSans-48"/>
      </g>
     </g>
    </g>
    <g id="xtick_34">
     <g id="line2d_102">
      <path clip-path="url(#pf93cdbf4ac)" d="M 621.309364 252.344 
L 621.309364 164.4624 
" style="fill:none;stroke:#b0b0b0;stroke-linecap:square;stroke-width:0.8;"/>
     </g>
     <g id="line2d_103">
      <g>
       <use style="stroke:#000000;stroke-width:0.8;" x="621.309364" xlink:href="#m520b9b3f53" y="252.344"/>
      </g>
     </g>
     <g id="text_34">
      <!-- 300 -->
      <g transform="translate(611.765614 266.942437)scale(0.1 -0.1)">
       <use xlink:href="#DejaVuSans-51"/>
       <use x="63.623047" xlink:href="#DejaVuSans-48"/>
       <use x="127.246094" xlink:href="#DejaVuSans-48"/>
      </g>
     </g>
    </g>
    <g id="xtick_35">
     <g id="line2d_104">
      <path clip-path="url(#pf93cdbf4ac)" d="M 656.749136 252.344 
L 656.749136 164.4624 
" style="fill:none;stroke:#b0b0b0;stroke-linecap:square;stroke-width:0.8;"/>
     </g>
     <g id="line2d_105">
      <g>
       <use style="stroke:#000000;stroke-width:0.8;" x="656.749136" xlink:href="#m520b9b3f53" y="252.344"/>
      </g>
     </g>
     <g id="text_35">
      <!-- 350 -->
      <g transform="translate(647.205386 266.942437)scale(0.1 -0.1)">
       <use xlink:href="#DejaVuSans-51"/>
       <use x="63.623047" xlink:href="#DejaVuSans-53"/>
       <use x="127.246094" xlink:href="#DejaVuSans-48"/>
      </g>
     </g>
    </g>
    <g id="xtick_36">
     <g id="line2d_106">
      <path clip-path="url(#pf93cdbf4ac)" d="M 692.188909 252.344 
L 692.188909 164.4624 
" style="fill:none;stroke:#b0b0b0;stroke-linecap:square;stroke-width:0.8;"/>
     </g>
     <g id="line2d_107">
      <g>
       <use style="stroke:#000000;stroke-width:0.8;" x="692.188909" xlink:href="#m520b9b3f53" y="252.344"/>
      </g>
     </g>
     <g id="text_36">
      <!-- 400 -->
      <g transform="translate(682.645159 266.942437)scale(0.1 -0.1)">
       <use xlink:href="#DejaVuSans-52"/>
       <use x="63.623047" xlink:href="#DejaVuSans-48"/>
       <use x="127.246094" xlink:href="#DejaVuSans-48"/>
      </g>
     </g>
    </g>
   </g>
   <g id="matplotlib.axis_8">
    <g id="ytick_11">
     <g id="line2d_108">
      <path clip-path="url(#pf93cdbf4ac)" d="M 397.33 248.349382 
L 709.2 248.349382 
" style="fill:none;stroke:#b0b0b0;stroke-linecap:square;stroke-width:0.8;"/>
     </g>
     <g id="line2d_109">
      <g>
       <use style="stroke:#000000;stroke-width:0.8;" x="397.33" xlink:href="#m95f3a1f7e0" y="248.349382"/>
      </g>
     </g>
     <g id="text_37">
      <!-- −1.0 -->
      <g transform="translate(366.047187 252.148601)scale(0.1 -0.1)">
       <use xlink:href="#DejaVuSans-8722"/>
       <use x="83.789062" xlink:href="#DejaVuSans-49"/>
       <use x="147.412109" xlink:href="#DejaVuSans-46"/>
       <use x="179.199219" xlink:href="#DejaVuSans-48"/>
      </g>
     </g>
    </g>
    <g id="ytick_12">
     <g id="line2d_110">
      <path clip-path="url(#pf93cdbf4ac)" d="M 397.33 224.643089 
L 709.2 224.643089 
" style="fill:none;stroke:#b0b0b0;stroke-linecap:square;stroke-width:0.8;"/>
     </g>
     <g id="line2d_111">
      <g>
       <use style="stroke:#000000;stroke-width:0.8;" x="397.33" xlink:href="#m95f3a1f7e0" y="224.643089"/>
      </g>
     </g>
     <g id="text_38">
      <!-- −0.5 -->
      <g transform="translate(366.047187 228.442307)scale(0.1 -0.1)">
       <use xlink:href="#DejaVuSans-8722"/>
       <use x="83.789062" xlink:href="#DejaVuSans-48"/>
       <use x="147.412109" xlink:href="#DejaVuSans-46"/>
       <use x="179.199219" xlink:href="#DejaVuSans-53"/>
      </g>
     </g>
    </g>
    <g id="ytick_13">
     <g id="line2d_112">
      <path clip-path="url(#pf93cdbf4ac)" d="M 397.33 200.936795 
L 709.2 200.936795 
" style="fill:none;stroke:#b0b0b0;stroke-linecap:square;stroke-width:0.8;"/>
     </g>
     <g id="line2d_113">
      <g>
       <use style="stroke:#000000;stroke-width:0.8;" x="397.33" xlink:href="#m95f3a1f7e0" y="200.936795"/>
      </g>
     </g>
     <g id="text_39">
      <!-- 0.0 -->
      <g transform="translate(374.426875 204.736014)scale(0.1 -0.1)">
       <use xlink:href="#DejaVuSans-48"/>
       <use x="63.623047" xlink:href="#DejaVuSans-46"/>
       <use x="95.410156" xlink:href="#DejaVuSans-48"/>
      </g>
     </g>
    </g>
    <g id="ytick_14">
     <g id="line2d_114">
      <path clip-path="url(#pf93cdbf4ac)" d="M 397.33 177.230502 
L 709.2 177.230502 
" style="fill:none;stroke:#b0b0b0;stroke-linecap:square;stroke-width:0.8;"/>
     </g>
     <g id="line2d_115">
      <g>
       <use style="stroke:#000000;stroke-width:0.8;" x="397.33" xlink:href="#m95f3a1f7e0" y="177.230502"/>
      </g>
     </g>
     <g id="text_40">
      <!-- 0.5 -->
      <g transform="translate(374.426875 181.029721)scale(0.1 -0.1)">
       <use xlink:href="#DejaVuSans-48"/>
       <use x="63.623047" xlink:href="#DejaVuSans-46"/>
       <use x="95.410156" xlink:href="#DejaVuSans-53"/>
      </g>
     </g>
    </g>
   </g>
   <g id="line2d_116">
    <path clip-path="url(#pf93cdbf4ac)" d="M 411.505909 248.349382 
L 412.214705 248.349382 
L 412.9235 245.286858 
L 413.632295 240.632801 
L 414.341091 237.14423 
L 415.049886 234.428989 
L 415.758682 232.258381 
L 417.176273 229.002001 
L 418.593864 226.675718 
L 420.011455 224.930429 
L 420.72025 224.212456 
L 421.429045 176.161574 
L 422.846636 175.07532 
L 424.973023 173.800705 
L 427.099409 172.821151 
L 429.934591 171.818888 
L 432.769773 171.052288 
L 436.31375 170.315391 
L 440.566523 169.648018 
L 446.236886 168.99176 
L 452.616045 168.457018 
L 454.742432 169.734285 
L 455.451227 170.63723 
L 456.160023 171.067269 
L 456.868818 171.02436 
L 457.577614 171.930877 
L 458.286409 171.890286 
L 461.121591 173.635648 
L 461.830386 173.600285 
L 465.374364 175.807837 
L 466.083159 175.777686 
L 467.50075 176.667662 
L 468.209545 176.639657 
L 469.627136 177.533709 
L 470.335932 177.507581 
L 471.044727 177.956012 
L 471.753523 177.931199 
L 473.171114 178.83111 
L 473.879909 178.807783 
L 474.588705 179.258947 
L 475.2975 179.236711 
L 476.006295 179.688788 
L 476.715091 179.667506 
L 477.423886 180.120549 
L 478.841477 180.07988 
L 480.259068 180.989065 
L 481.676659 180.951512 
L 482.385455 181.407404 
L 483.09425 181.389513 
L 483.803045 181.846107 
L 484.511841 181.828862 
L 485.220636 182.286133 
L 486.638227 182.25328 
L 488.055818 183.169852 
L 490.182205 183.124322 
L 490.891 183.583862 
L 492.308591 183.555295 
L 493.726182 184.475965 
L 495.852568 184.436386 
L 496.561364 184.897806 
L 498.68775 184.860645 
L 499.396545 185.322704 
L 500.814136 185.299315 
L 501.522932 185.762021 
L 503.649318 185.728757 
L 504.358114 186.19213 
L 506.4845 186.160764 
L 507.193295 186.624623 
L 508.610886 186.604871 
L 509.319682 187.069165 
L 511.446068 187.040798 
L 512.154864 187.505863 
L 514.28125 187.479007 
L 514.990045 187.944444 
L 517.116432 187.91891 
L 517.825227 188.384673 
L 520.660409 188.352402 
L 521.369205 188.818821 
L 523.495591 188.795951 
L 524.204386 189.262749 
L 527.748364 189.226972 
L 528.457159 189.694091 
L 530.583545 189.673976 
L 531.292341 190.14143 
L 534.836318 190.109734 
L 535.545114 190.577742 
L 538.380295 190.553828 
L 539.089091 191.02211 
L 543.341864 190.988443 
L 544.050659 191.457242 
L 547.594636 191.431101 
L 548.303432 191.900144 
L 553.265 191.865976 
L 553.973795 192.335478 
L 558.226568 192.308329 
L 558.935364 192.778048 
L 561.770545 192.760975 
L 562.479341 193.2309 
L 563.188136 192.752574 
L 563.896932 192.748468 
L 564.605727 193.218593 
L 570.276091 193.187363 
L 570.984886 193.657678 
L 575.237659 193.635829 
L 575.946455 194.106468 
L 576.65525 193.62889 
L 577.364045 194.099564 
L 580.908023 194.082621 
L 581.616818 194.553463 
L 591.539955 194.509911 
L 592.24875 194.981069 
L 596.501523 194.963987 
L 597.210318 195.435292 
L 608.551045 195.393549 
L 609.259841 195.865261 
L 614.930205 195.846261 
L 615.639 196.318097 
L 616.347795 196.315806 
L 617.056591 195.83939 
L 617.765386 196.311226 
L 627.688523 196.281223 
L 628.397318 196.75329 
L 629.106114 196.751231 
L 629.814909 196.275047 
L 630.523705 196.747174 
L 637.611659 196.727871 
L 638.320455 197.20015 
L 651.787568 197.166708 
L 652.496364 197.639178 
L 653.205159 197.637523 
L 653.913955 197.161741 
L 654.62275 197.634212 
L 663.837091 197.613853 
L 664.545886 198.086498 
L 665.254682 197.610892 
L 665.963477 197.609411 
L 666.672273 198.082056 
L 677.304205 198.060692 
L 678.013 198.53348 
L 681.556977 198.526871 
L 682.265773 198.999675 
L 682.974568 198.524228 
L 683.683364 198.522906 
L 684.392159 198.99571 
L 685.80975 198.993126 
L 690.062523 201.830393 
L 690.771318 201.829144 
L 695.024091 204.66658 
L 695.024091 204.66658 
" style="fill:none;stroke:#1f77b4;stroke-linecap:square;stroke-width:1.5;"/>
   </g>
   <g id="patch_21">
    <path d="M 397.33 252.344 
L 397.33 164.4624 
" style="fill:none;stroke:#000000;stroke-linecap:square;stroke-linejoin:miter;stroke-width:0.8;"/>
   </g>
   <g id="patch_22">
    <path d="M 709.2 252.344 
L 709.2 164.4624 
" style="fill:none;stroke:#000000;stroke-linecap:square;stroke-linejoin:miter;stroke-width:0.8;"/>
   </g>
   <g id="patch_23">
    <path d="M 397.33 252.344 
L 709.2 252.344 
" style="fill:none;stroke:#000000;stroke-linecap:square;stroke-linejoin:miter;stroke-width:0.8;"/>
   </g>
   <g id="patch_24">
    <path d="M 397.33 164.4624 
L 709.2 164.4624 
" style="fill:none;stroke:#000000;stroke-linecap:square;stroke-linejoin:miter;stroke-width:0.8;"/>
   </g>
   <g id="text_41">
    <!-- Risky Sh. Difference -->
    <g transform="translate(492.795312 158.4624)scale(0.12 -0.12)">
     <use xlink:href="#DejaVuSans-82"/>
     <use x="69.482422" xlink:href="#DejaVuSans-105"/>
     <use x="97.265625" xlink:href="#DejaVuSans-115"/>
     <use x="149.365234" xlink:href="#DejaVuSans-107"/>
     <use x="207.228516" xlink:href="#DejaVuSans-121"/>
     <use x="266.408203" xlink:href="#DejaVuSans-32"/>
     <use x="298.195312" xlink:href="#DejaVuSans-83"/>
     <use x="361.671875" xlink:href="#DejaVuSans-104"/>
     <use x="425.050781" xlink:href="#DejaVuSans-46"/>
     <use x="456.837891" xlink:href="#DejaVuSans-32"/>
     <use x="488.625" xlink:href="#DejaVuSans-68"/>
     <use x="565.626953" xlink:href="#DejaVuSans-105"/>
     <use x="593.410156" xlink:href="#DejaVuSans-102"/>
     <use x="628.615234" xlink:href="#DejaVuSans-102"/>
     <use x="663.820312" xlink:href="#DejaVuSans-101"/>
     <use x="725.34375" xlink:href="#DejaVuSans-114"/>
     <use x="766.425781" xlink:href="#DejaVuSans-101"/>
     <use x="827.949219" xlink:href="#DejaVuSans-110"/>
     <use x="891.328125" xlink:href="#DejaVuSans-99"/>
     <use x="946.308594" xlink:href="#DejaVuSans-101"/>
    </g>
   </g>
   <g id="legend_4">
    <g id="patch_25">
     <path d="M 609.009375 187.140525 
L 702.2 187.140525 
Q 704.2 187.140525 704.2 185.140525 
L 704.2 171.4624 
Q 704.2 169.4624 702.2 169.4624 
L 609.009375 169.4624 
Q 607.009375 169.4624 607.009375 171.4624 
L 607.009375 185.140525 
Q 607.009375 187.140525 609.009375 187.140525 
z
" style="fill:#ffffff;opacity:0.8;stroke:#cccccc;stroke-linejoin:miter;"/>
    </g>
    <g id="line2d_117">
     <path d="M 611.009375 177.560837 
L 631.009375 177.560837 
" style="fill:none;stroke:#1f77b4;stroke-linecap:square;stroke-width:1.5;"/>
    </g>
    <g id="line2d_118"/>
    <g id="text_42">
     <!-- CGM - HARK -->
     <g transform="translate(639.009375 181.060837)scale(0.1 -0.1)">
      <use xlink:href="#DejaVuSans-67"/>
      <use x="69.824219" xlink:href="#DejaVuSans-71"/>
      <use x="147.314453" xlink:href="#DejaVuSans-77"/>
      <use x="233.59375" xlink:href="#DejaVuSans-32"/>
      <use x="265.380859" xlink:href="#DejaVuSans-45"/>
      <use x="301.464844" xlink:href="#DejaVuSans-32"/>
      <use x="333.251953" xlink:href="#DejaVuSans-72"/>
      <use x="408.447266" xlink:href="#DejaVuSans-65"/>
      <use x="476.855469" xlink:href="#DejaVuSans-82"/>
      <use x="546.337891" xlink:href="#DejaVuSans-75"/>
     </g>
    </g>
   </g>
  </g>
  <g id="text_43">
   <!-- Year 79 -->
   <defs>
    <path d="M -0.203125 72.90625 
L 10.40625 72.90625 
L 30.609375 42.921875 
L 50.6875 72.90625 
L 61.28125 72.90625 
L 35.5 34.71875 
L 35.5 0 
L 25.59375 0 
L 25.59375 34.71875 
z
" id="DejaVuSans-89"/>
    <path d="M 34.28125 27.484375 
Q 23.390625 27.484375 19.1875 25 
Q 14.984375 22.515625 14.984375 16.5 
Q 14.984375 11.71875 18.140625 8.90625 
Q 21.296875 6.109375 26.703125 6.109375 
Q 34.1875 6.109375 38.703125 11.40625 
Q 43.21875 16.703125 43.21875 25.484375 
L 43.21875 27.484375 
z
M 52.203125 31.203125 
L 52.203125 0 
L 43.21875 0 
L 43.21875 8.296875 
Q 40.140625 3.328125 35.546875 0.953125 
Q 30.953125 -1.421875 24.3125 -1.421875 
Q 15.921875 -1.421875 10.953125 3.296875 
Q 6 8.015625 6 15.921875 
Q 6 25.140625 12.171875 29.828125 
Q 18.359375 34.515625 30.609375 34.515625 
L 43.21875 34.515625 
L 43.21875 35.40625 
Q 43.21875 41.609375 39.140625 45 
Q 35.0625 48.390625 27.6875 48.390625 
Q 23 48.390625 18.546875 47.265625 
Q 14.109375 46.140625 10.015625 43.890625 
L 10.015625 52.203125 
Q 14.9375 54.109375 19.578125 55.046875 
Q 24.21875 56 28.609375 56 
Q 40.484375 56 46.34375 49.84375 
Q 52.203125 43.703125 52.203125 31.203125 
z
" id="DejaVuSans-97"/>
    <path d="M 8.203125 72.90625 
L 55.078125 72.90625 
L 55.078125 68.703125 
L 28.609375 0 
L 18.3125 0 
L 43.21875 64.59375 
L 8.203125 64.59375 
z
" id="DejaVuSans-55"/>
    <path d="M 10.984375 1.515625 
L 10.984375 10.5 
Q 14.703125 8.734375 18.5 7.8125 
Q 22.3125 6.890625 25.984375 6.890625 
Q 35.75 6.890625 40.890625 13.453125 
Q 46.046875 20.015625 46.78125 33.40625 
Q 43.953125 29.203125 39.59375 26.953125 
Q 35.25 24.703125 29.984375 24.703125 
Q 19.046875 24.703125 12.671875 31.3125 
Q 6.296875 37.9375 6.296875 49.421875 
Q 6.296875 60.640625 12.9375 67.421875 
Q 19.578125 74.21875 30.609375 74.21875 
Q 43.265625 74.21875 49.921875 64.515625 
Q 56.59375 54.828125 56.59375 36.375 
Q 56.59375 19.140625 48.40625 8.859375 
Q 40.234375 -1.421875 26.421875 -1.421875 
Q 22.703125 -1.421875 18.890625 -0.6875 
Q 15.09375 0.046875 10.984375 1.515625 
z
M 30.609375 32.421875 
Q 37.25 32.421875 41.125 36.953125 
Q 45.015625 41.5 45.015625 49.421875 
Q 45.015625 57.28125 41.125 61.84375 
Q 37.25 66.40625 30.609375 66.40625 
Q 23.96875 66.40625 20.09375 61.84375 
Q 16.21875 57.28125 16.21875 49.421875 
Q 16.21875 41.5 20.09375 36.953125 
Q 23.96875 32.421875 30.609375 32.421875 
z
" id="DejaVuSans-57"/>
   </defs>
   <g transform="translate(336.970312 14.878125)scale(0.12 -0.12)">
    <use xlink:href="#DejaVuSans-89"/>
    <use x="60.880859" xlink:href="#DejaVuSans-101"/>
    <use x="122.404297" xlink:href="#DejaVuSans-97"/>
    <use x="183.683594" xlink:href="#DejaVuSans-114"/>
    <use x="224.796875" xlink:href="#DejaVuSans-32"/>
    <use x="256.583984" xlink:href="#DejaVuSans-55"/>
    <use x="320.207031" xlink:href="#DejaVuSans-57"/>
   </g>
  </g>
 </g>
 <defs>
  <clipPath id="pf9cf4a09a3">
   <rect height="87.8816" width="311.87" x="40.12" y="32.64"/>
  </clipPath>
  <clipPath id="p2ace53647e">
   <rect height="87.8816" width="311.87" x="397.33" y="32.64"/>
  </clipPath>
  <clipPath id="p1fbd42a2c4">
   <rect height="87.8816" width="311.87" x="40.12" y="164.4624"/>
  </clipPath>
  <clipPath id="pf93cdbf4ac">
   <rect height="87.8816" width="311.87" x="397.33" y="164.4624"/>
  </clipPath>
 </defs>
</svg>
