<?xml version="1.0" encoding="utf-8" standalone="no"?>
<!DOCTYPE svg PUBLIC "-//W3C//DTD SVG 1.1//EN"
  "http://www.w3.org/Graphics/SVG/1.1/DTD/svg11.dtd">
<!-- Created with matplotlib (https://matplotlib.org/) -->
<svg height="288pt" version="1.1" viewBox="0 0 720 288" width="720pt" xmlns="http://www.w3.org/2000/svg" xmlns:xlink="http://www.w3.org/1999/xlink">
 <defs>
  <style type="text/css">
*{stroke-linecap:butt;stroke-linejoin:round;}
  </style>
 </defs>
 <g id="figure_1">
  <g id="patch_1">
   <path d="M 0 288 
L 720 288 
L 720 0 
L 0 0 
z
" style="fill:#ffffff;"/>
  </g>
  <g id="axes_1">
   <g id="patch_2">
    <path d="M 40.12 120.5216 
L 351.99 120.5216 
L 351.99 32.64 
L 40.12 32.64 
z
" style="fill:#ffffff;"/>
   </g>
   <g id="matplotlib.axis_1">
    <g id="xtick_1">
     <g id="line2d_1">
      <path clip-path="url(#p8ba1043652)" d="M 51.460727 120.5216 
L 51.460727 32.64 
" style="fill:none;stroke:#b0b0b0;stroke-linecap:square;stroke-width:0.8;"/>
     </g>
     <g id="line2d_2">
      <defs>
       <path d="M 0 0 
L 0 3.5 
" id="md8081cbe48" style="stroke:#000000;stroke-width:0.8;"/>
      </defs>
      <g>
       <use style="stroke:#000000;stroke-width:0.8;" x="51.460727" xlink:href="#md8081cbe48" y="120.5216"/>
      </g>
     </g>
    </g>
    <g id="xtick_2">
     <g id="line2d_3">
      <path clip-path="url(#p8ba1043652)" d="M 86.9005 120.5216 
L 86.9005 32.64 
" style="fill:none;stroke:#b0b0b0;stroke-linecap:square;stroke-width:0.8;"/>
     </g>
     <g id="line2d_4">
      <g>
       <use style="stroke:#000000;stroke-width:0.8;" x="86.9005" xlink:href="#md8081cbe48" y="120.5216"/>
      </g>
     </g>
    </g>
    <g id="xtick_3">
     <g id="line2d_5">
      <path clip-path="url(#p8ba1043652)" d="M 122.340273 120.5216 
L 122.340273 32.64 
" style="fill:none;stroke:#b0b0b0;stroke-linecap:square;stroke-width:0.8;"/>
     </g>
     <g id="line2d_6">
      <g>
       <use style="stroke:#000000;stroke-width:0.8;" x="122.340273" xlink:href="#md8081cbe48" y="120.5216"/>
      </g>
     </g>
    </g>
    <g id="xtick_4">
     <g id="line2d_7">
      <path clip-path="url(#p8ba1043652)" d="M 157.780045 120.5216 
L 157.780045 32.64 
" style="fill:none;stroke:#b0b0b0;stroke-linecap:square;stroke-width:0.8;"/>
     </g>
     <g id="line2d_8">
      <g>
       <use style="stroke:#000000;stroke-width:0.8;" x="157.780045" xlink:href="#md8081cbe48" y="120.5216"/>
      </g>
     </g>
    </g>
    <g id="xtick_5">
     <g id="line2d_9">
      <path clip-path="url(#p8ba1043652)" d="M 193.219818 120.5216 
L 193.219818 32.64 
" style="fill:none;stroke:#b0b0b0;stroke-linecap:square;stroke-width:0.8;"/>
     </g>
     <g id="line2d_10">
      <g>
       <use style="stroke:#000000;stroke-width:0.8;" x="193.219818" xlink:href="#md8081cbe48" y="120.5216"/>
      </g>
     </g>
    </g>
    <g id="xtick_6">
     <g id="line2d_11">
      <path clip-path="url(#p8ba1043652)" d="M 228.659591 120.5216 
L 228.659591 32.64 
" style="fill:none;stroke:#b0b0b0;stroke-linecap:square;stroke-width:0.8;"/>
     </g>
     <g id="line2d_12">
      <g>
       <use style="stroke:#000000;stroke-width:0.8;" x="228.659591" xlink:href="#md8081cbe48" y="120.5216"/>
      </g>
     </g>
    </g>
    <g id="xtick_7">
     <g id="line2d_13">
      <path clip-path="url(#p8ba1043652)" d="M 264.099364 120.5216 
L 264.099364 32.64 
" style="fill:none;stroke:#b0b0b0;stroke-linecap:square;stroke-width:0.8;"/>
     </g>
     <g id="line2d_14">
      <g>
       <use style="stroke:#000000;stroke-width:0.8;" x="264.099364" xlink:href="#md8081cbe48" y="120.5216"/>
      </g>
     </g>
    </g>
    <g id="xtick_8">
     <g id="line2d_15">
      <path clip-path="url(#p8ba1043652)" d="M 299.539136 120.5216 
L 299.539136 32.64 
" style="fill:none;stroke:#b0b0b0;stroke-linecap:square;stroke-width:0.8;"/>
     </g>
     <g id="line2d_16">
      <g>
       <use style="stroke:#000000;stroke-width:0.8;" x="299.539136" xlink:href="#md8081cbe48" y="120.5216"/>
      </g>
     </g>
    </g>
    <g id="xtick_9">
     <g id="line2d_17">
      <path clip-path="url(#p8ba1043652)" d="M 334.978909 120.5216 
L 334.978909 32.64 
" style="fill:none;stroke:#b0b0b0;stroke-linecap:square;stroke-width:0.8;"/>
     </g>
     <g id="line2d_18">
      <g>
       <use style="stroke:#000000;stroke-width:0.8;" x="334.978909" xlink:href="#md8081cbe48" y="120.5216"/>
      </g>
     </g>
    </g>
   </g>
   <g id="matplotlib.axis_2">
    <g id="ytick_1">
     <g id="line2d_19">
      <path clip-path="url(#p8ba1043652)" d="M 40.12 118.700552 
L 351.99 118.700552 
" style="fill:none;stroke:#b0b0b0;stroke-linecap:square;stroke-width:0.8;"/>
     </g>
     <g id="line2d_20">
      <defs>
       <path d="M 0 0 
L -3.5 0 
" id="mc16a5b2779" style="stroke:#000000;stroke-width:0.8;"/>
      </defs>
      <g>
       <use style="stroke:#000000;stroke-width:0.8;" x="40.12" xlink:href="#mc16a5b2779" y="118.700552"/>
      </g>
     </g>
     <g id="text_1">
      <!-- 0 -->
      <defs>
       <path d="M 31.78125 66.40625 
Q 24.171875 66.40625 20.328125 58.90625 
Q 16.5 51.421875 16.5 36.375 
Q 16.5 21.390625 20.328125 13.890625 
Q 24.171875 6.390625 31.78125 6.390625 
Q 39.453125 6.390625 43.28125 13.890625 
Q 47.125 21.390625 47.125 36.375 
Q 47.125 51.421875 43.28125 58.90625 
Q 39.453125 66.40625 31.78125 66.40625 
z
M 31.78125 74.21875 
Q 44.046875 74.21875 50.515625 64.515625 
Q 56.984375 54.828125 56.984375 36.375 
Q 56.984375 17.96875 50.515625 8.265625 
Q 44.046875 -1.421875 31.78125 -1.421875 
Q 19.53125 -1.421875 13.0625 8.265625 
Q 6.59375 17.96875 6.59375 36.375 
Q 6.59375 54.828125 13.0625 64.515625 
Q 19.53125 74.21875 31.78125 74.21875 
z
" id="DejaVuSans-48"/>
      </defs>
      <g transform="translate(26.7575 122.499771)scale(0.1 -0.1)">
       <use xlink:href="#DejaVuSans-48"/>
      </g>
     </g>
    </g>
    <g id="ytick_2">
     <g id="line2d_21">
      <path clip-path="url(#p8ba1043652)" d="M 40.12 91.503851 
L 351.99 91.503851 
" style="fill:none;stroke:#b0b0b0;stroke-linecap:square;stroke-width:0.8;"/>
     </g>
     <g id="line2d_22">
      <g>
       <use style="stroke:#000000;stroke-width:0.8;" x="40.12" xlink:href="#mc16a5b2779" y="91.503851"/>
      </g>
     </g>
     <g id="text_2">
      <!-- 50 -->
      <defs>
       <path d="M 10.796875 72.90625 
L 49.515625 72.90625 
L 49.515625 64.59375 
L 19.828125 64.59375 
L 19.828125 46.734375 
Q 21.96875 47.46875 24.109375 47.828125 
Q 26.265625 48.1875 28.421875 48.1875 
Q 40.625 48.1875 47.75 41.5 
Q 54.890625 34.8125 54.890625 23.390625 
Q 54.890625 11.625 47.5625 5.09375 
Q 40.234375 -1.421875 26.90625 -1.421875 
Q 22.3125 -1.421875 17.546875 -0.640625 
Q 12.796875 0.140625 7.71875 1.703125 
L 7.71875 11.625 
Q 12.109375 9.234375 16.796875 8.0625 
Q 21.484375 6.890625 26.703125 6.890625 
Q 35.15625 6.890625 40.078125 11.328125 
Q 45.015625 15.765625 45.015625 23.390625 
Q 45.015625 31 40.078125 35.4375 
Q 35.15625 39.890625 26.703125 39.890625 
Q 22.75 39.890625 18.8125 39.015625 
Q 14.890625 38.140625 10.796875 36.28125 
z
" id="DejaVuSans-53"/>
      </defs>
      <g transform="translate(20.395 95.30307)scale(0.1 -0.1)">
       <use xlink:href="#DejaVuSans-53"/>
       <use x="63.623047" xlink:href="#DejaVuSans-48"/>
      </g>
     </g>
    </g>
    <g id="ytick_3">
     <g id="line2d_23">
      <path clip-path="url(#p8ba1043652)" d="M 40.12 64.30715 
L 351.99 64.30715 
" style="fill:none;stroke:#b0b0b0;stroke-linecap:square;stroke-width:0.8;"/>
     </g>
     <g id="line2d_24">
      <g>
       <use style="stroke:#000000;stroke-width:0.8;" x="40.12" xlink:href="#mc16a5b2779" y="64.30715"/>
      </g>
     </g>
     <g id="text_3">
      <!-- 100 -->
      <defs>
       <path d="M 12.40625 8.296875 
L 28.515625 8.296875 
L 28.515625 63.921875 
L 10.984375 60.40625 
L 10.984375 69.390625 
L 28.421875 72.90625 
L 38.28125 72.90625 
L 38.28125 8.296875 
L 54.390625 8.296875 
L 54.390625 0 
L 12.40625 0 
z
" id="DejaVuSans-49"/>
      </defs>
      <g transform="translate(14.0325 68.106368)scale(0.1 -0.1)">
       <use xlink:href="#DejaVuSans-49"/>
       <use x="63.623047" xlink:href="#DejaVuSans-48"/>
       <use x="127.246094" xlink:href="#DejaVuSans-48"/>
      </g>
     </g>
    </g>
    <g id="ytick_4">
     <g id="line2d_25">
      <path clip-path="url(#p8ba1043652)" d="M 40.12 37.110448 
L 351.99 37.110448 
" style="fill:none;stroke:#b0b0b0;stroke-linecap:square;stroke-width:0.8;"/>
     </g>
     <g id="line2d_26">
      <g>
       <use style="stroke:#000000;stroke-width:0.8;" x="40.12" xlink:href="#mc16a5b2779" y="37.110448"/>
      </g>
     </g>
     <g id="text_4">
      <!-- 150 -->
      <g transform="translate(14.0325 40.909667)scale(0.1 -0.1)">
       <use xlink:href="#DejaVuSans-49"/>
       <use x="63.623047" xlink:href="#DejaVuSans-53"/>
       <use x="127.246094" xlink:href="#DejaVuSans-48"/>
      </g>
     </g>
    </g>
   </g>
   <g id="line2d_27">
    <path clip-path="url(#p8ba1043652)" d="M 54.295909 116.524816 
L 63.51025 109.453674 
L 65.636636 109.045723 
L 66.345432 109.045723 
L 67.763023 108.773756 
L 68.471818 108.773756 
L 69.180614 108.637773 
L 69.889409 108.637773 
L 70.598205 108.501789 
L 71.307 108.501789 
L 72.015795 108.365806 
L 72.724591 108.365806 
L 73.433386 108.229822 
L 74.850977 108.229822 
L 75.559773 108.093839 
L 76.268568 108.093839 
L 76.977364 107.957855 
L 78.394955 107.957855 
L 79.10375 107.821872 
L 79.812545 107.821872 
L 80.521341 107.685888 
L 81.938932 107.685888 
L 82.647727 107.549905 
L 83.356523 107.549905 
L 84.065318 107.413921 
L 85.482909 107.413921 
L 86.191705 107.277938 
L 87.609295 107.277938 
L 88.318091 107.141954 
L 89.735682 107.141954 
L 90.444477 107.005971 
L 91.862068 107.005971 
L 92.570864 106.869987 
L 93.988455 106.869987 
L 94.69725 106.734004 
L 96.114841 106.734004 
L 96.823636 106.59802 
L 98.241227 106.59802 
L 98.950023 106.462037 
L 100.367614 106.462037 
L 101.076409 106.326053 
L 102.494 106.326053 
L 103.202795 106.19007 
L 104.620386 106.19007 
L 105.329182 106.054086 
L 107.455568 106.054086 
L 108.164364 105.918103 
L 109.581955 105.918103 
L 110.29075 105.782119 
L 111.708341 105.782119 
L 112.417136 105.646136 
L 114.543523 105.646136 
L 115.252318 105.510152 
L 116.669909 105.510152 
L 117.378705 105.374169 
L 119.505091 105.374169 
L 120.213886 105.238185 
L 121.631477 105.238185 
L 122.340273 105.102202 
L 124.466659 105.102202 
L 125.175455 104.966218 
L 127.301841 104.966218 
L 128.010636 104.830235 
L 129.428227 104.830235 
L 130.137023 104.694251 
L 132.263409 104.694251 
L 132.972205 104.558268 
L 135.098591 104.558268 
L 135.807386 104.422284 
L 137.224977 104.422284 
L 137.933773 104.286301 
L 140.060159 104.286301 
L 140.768955 104.150317 
L 142.895341 104.150317 
L 143.604136 104.014334 
L 145.730523 104.014334 
L 146.439318 103.87835 
L 148.565705 103.87835 
L 149.2745 103.742367 
L 150.692091 103.742367 
L 151.400886 103.606383 
L 153.527273 103.606383 
L 154.236068 103.4704 
L 156.362455 103.4704 
L 157.07125 103.334416 
L 159.197636 103.334416 
L 159.906432 103.198433 
L 162.032818 103.198433 
L 162.741614 103.062449 
L 164.868 103.062449 
L 165.576795 102.926466 
L 167.703182 102.926466 
L 168.411977 102.790482 
L 170.538364 102.790482 
L 171.247159 102.654499 
L 173.373545 102.654499 
L 174.082341 102.518515 
L 176.208727 102.518515 
L 176.917523 102.382532 
L 179.043909 102.382532 
L 179.752705 102.246548 
L 181.879091 102.246548 
L 182.587886 102.110565 
L 184.714273 102.110565 
L 185.423068 101.974581 
L 187.549455 101.974581 
L 188.25825 101.838598 
L 190.384636 101.838598 
L 191.093432 101.702614 
L 193.219818 101.702614 
L 193.928614 101.566631 
L 196.055 101.566631 
L 196.763795 101.430647 
L 198.890182 101.430647 
L 199.598977 101.294664 
L 201.725364 101.294664 
L 202.434159 101.15868 
L 204.560545 101.15868 
L 205.269341 101.022697 
L 207.395727 101.022697 
L 208.104523 100.886713 
L 210.230909 100.886713 
L 210.939705 100.75073 
L 213.066091 100.75073 
L 213.774886 100.614746 
L 216.610068 100.614746 
L 217.318864 100.478762 
L 219.44525 100.478762 
L 220.154045 100.342779 
L 222.280432 100.342779 
L 222.989227 100.206795 
L 225.115614 100.206795 
L 225.824409 100.070812 
L 227.950795 100.070812 
L 228.659591 99.934828 
L 230.785977 99.934828 
L 231.494773 99.798845 
L 233.621159 99.798845 
L 234.329955 99.662861 
L 236.456341 99.662861 
L 237.165136 99.526878 
L 240.000318 99.526878 
L 240.709114 99.390894 
L 242.8355 99.390894 
L 243.544295 99.254911 
L 244.961886 99.254911 
L 245.670682 99.118927 
L 248.505864 99.118927 
L 249.214659 98.982944 
L 251.341045 98.982944 
L 252.049841 98.84696 
L 254.176227 98.84696 
L 254.885023 98.710977 
L 257.720205 98.710977 
L 258.429 98.574993 
L 260.555386 98.574993 
L 261.264182 98.43901 
L 263.390568 98.43901 
L 264.099364 98.303026 
L 265.516955 98.303026 
L 266.22575 98.167043 
L 268.352136 98.167043 
L 269.060932 98.031059 
L 271.896114 98.031059 
L 272.604909 97.895076 
L 275.440091 97.895076 
L 276.148886 97.759092 
L 278.275273 97.759092 
L 278.984068 97.623109 
L 281.110455 97.623109 
L 281.81925 97.487125 
L 283.236841 97.487125 
L 283.945636 97.351142 
L 286.072023 97.351142 
L 286.780818 97.215158 
L 288.907205 97.215158 
L 289.616 97.079175 
L 292.451182 97.079175 
L 293.159977 96.943191 
L 295.995159 96.943191 
L 296.703955 96.807208 
L 298.830341 96.807208 
L 299.539136 96.671224 
L 301.665523 96.671224 
L 302.374318 96.535241 
L 304.500705 96.535241 
L 305.2095 96.399257 
L 306.627091 96.399257 
L 307.335886 96.263274 
L 309.462273 96.263274 
L 310.171068 96.12729 
L 313.00625 96.12729 
L 313.715045 95.991307 
L 316.550227 95.991307 
L 317.259023 95.855323 
L 319.385409 95.855323 
L 320.094205 95.71934 
L 322.220591 95.71934 
L 322.929386 95.583356 
L 324.346977 95.583356 
L 325.055773 95.447373 
L 327.182159 95.447373 
L 327.890955 95.311389 
L 330.017341 95.311389 
L 330.726136 95.039422 
L 336.3965 95.039422 
L 337.105295 94.903439 
L 337.814091 94.631472 
L 337.814091 94.631472 
" style="fill:none;stroke:#1f77b4;stroke-linecap:square;stroke-width:1.5;"/>
   </g>
   <g id="line2d_28">
    <path clip-path="url(#p8ba1043652)" d="M 54.295909 116.526982 
L 63.51025 109.46386 
L 68.471818 108.068058 
L 84.774114 103.700988 
L 337.814091 36.634618 
L 337.814091 36.634618 
" style="fill:none;stroke:#ff7f0e;stroke-linecap:square;stroke-width:1.5;"/>
   </g>
   <g id="patch_3">
    <path d="M 40.12 120.5216 
L 40.12 32.64 
" style="fill:none;stroke:#000000;stroke-linecap:square;stroke-linejoin:miter;stroke-width:0.8;"/>
   </g>
   <g id="patch_4">
    <path d="M 351.99 120.5216 
L 351.99 32.64 
" style="fill:none;stroke:#000000;stroke-linecap:square;stroke-linejoin:miter;stroke-width:0.8;"/>
   </g>
   <g id="patch_5">
    <path d="M 40.12 120.5216 
L 351.99 120.5216 
" style="fill:none;stroke:#000000;stroke-linecap:square;stroke-linejoin:miter;stroke-width:0.8;"/>
   </g>
   <g id="patch_6">
    <path d="M 40.12 32.64 
L 351.99 32.64 
" style="fill:none;stroke:#000000;stroke-linecap:square;stroke-linejoin:miter;stroke-width:0.8;"/>
   </g>
   <g id="text_5">
    <!-- Cons. Functions -->
    <defs>
     <path d="M 64.40625 67.28125 
L 64.40625 56.890625 
Q 59.421875 61.53125 53.78125 63.8125 
Q 48.140625 66.109375 41.796875 66.109375 
Q 29.296875 66.109375 22.65625 58.46875 
Q 16.015625 50.828125 16.015625 36.375 
Q 16.015625 21.96875 22.65625 14.328125 
Q 29.296875 6.6875 41.796875 6.6875 
Q 48.140625 6.6875 53.78125 8.984375 
Q 59.421875 11.28125 64.40625 15.921875 
L 64.40625 5.609375 
Q 59.234375 2.09375 53.4375 0.328125 
Q 47.65625 -1.421875 41.21875 -1.421875 
Q 24.65625 -1.421875 15.125 8.703125 
Q 5.609375 18.84375 5.609375 36.375 
Q 5.609375 53.953125 15.125 64.078125 
Q 24.65625 74.21875 41.21875 74.21875 
Q 47.75 74.21875 53.53125 72.484375 
Q 59.328125 70.75 64.40625 67.28125 
z
" id="DejaVuSans-67"/>
     <path d="M 30.609375 48.390625 
Q 23.390625 48.390625 19.1875 42.75 
Q 14.984375 37.109375 14.984375 27.296875 
Q 14.984375 17.484375 19.15625 11.84375 
Q 23.34375 6.203125 30.609375 6.203125 
Q 37.796875 6.203125 41.984375 11.859375 
Q 46.1875 17.53125 46.1875 27.296875 
Q 46.1875 37.015625 41.984375 42.703125 
Q 37.796875 48.390625 30.609375 48.390625 
z
M 30.609375 56 
Q 42.328125 56 49.015625 48.375 
Q 55.71875 40.765625 55.71875 27.296875 
Q 55.71875 13.875 49.015625 6.21875 
Q 42.328125 -1.421875 30.609375 -1.421875 
Q 18.84375 -1.421875 12.171875 6.21875 
Q 5.515625 13.875 5.515625 27.296875 
Q 5.515625 40.765625 12.171875 48.375 
Q 18.84375 56 30.609375 56 
z
" id="DejaVuSans-111"/>
     <path d="M 54.890625 33.015625 
L 54.890625 0 
L 45.90625 0 
L 45.90625 32.71875 
Q 45.90625 40.484375 42.875 44.328125 
Q 39.84375 48.1875 33.796875 48.1875 
Q 26.515625 48.1875 22.3125 43.546875 
Q 18.109375 38.921875 18.109375 30.90625 
L 18.109375 0 
L 9.078125 0 
L 9.078125 54.6875 
L 18.109375 54.6875 
L 18.109375 46.1875 
Q 21.34375 51.125 25.703125 53.5625 
Q 30.078125 56 35.796875 56 
Q 45.21875 56 50.046875 50.171875 
Q 54.890625 44.34375 54.890625 33.015625 
z
" id="DejaVuSans-110"/>
     <path d="M 44.28125 53.078125 
L 44.28125 44.578125 
Q 40.484375 46.53125 36.375 47.5 
Q 32.28125 48.484375 27.875 48.484375 
Q 21.1875 48.484375 17.84375 46.4375 
Q 14.5 44.390625 14.5 40.28125 
Q 14.5 37.15625 16.890625 35.375 
Q 19.28125 33.59375 26.515625 31.984375 
L 29.59375 31.296875 
Q 39.15625 29.25 43.1875 25.515625 
Q 47.21875 21.78125 47.21875 15.09375 
Q 47.21875 7.46875 41.1875 3.015625 
Q 35.15625 -1.421875 24.609375 -1.421875 
Q 20.21875 -1.421875 15.453125 -0.5625 
Q 10.6875 0.296875 5.421875 2 
L 5.421875 11.28125 
Q 10.40625 8.6875 15.234375 7.390625 
Q 20.0625 6.109375 24.8125 6.109375 
Q 31.15625 6.109375 34.5625 8.28125 
Q 37.984375 10.453125 37.984375 14.40625 
Q 37.984375 18.0625 35.515625 20.015625 
Q 33.0625 21.96875 24.703125 23.78125 
L 21.578125 24.515625 
Q 13.234375 26.265625 9.515625 29.90625 
Q 5.8125 33.546875 5.8125 39.890625 
Q 5.8125 47.609375 11.28125 51.796875 
Q 16.75 56 26.8125 56 
Q 31.78125 56 36.171875 55.265625 
Q 40.578125 54.546875 44.28125 53.078125 
z
" id="DejaVuSans-115"/>
     <path d="M 10.6875 12.40625 
L 21 12.40625 
L 21 0 
L 10.6875 0 
z
" id="DejaVuSans-46"/>
     <path id="DejaVuSans-32"/>
     <path d="M 9.8125 72.90625 
L 51.703125 72.90625 
L 51.703125 64.59375 
L 19.671875 64.59375 
L 19.671875 43.109375 
L 48.578125 43.109375 
L 48.578125 34.8125 
L 19.671875 34.8125 
L 19.671875 0 
L 9.8125 0 
z
" id="DejaVuSans-70"/>
     <path d="M 8.5 21.578125 
L 8.5 54.6875 
L 17.484375 54.6875 
L 17.484375 21.921875 
Q 17.484375 14.15625 20.5 10.265625 
Q 23.53125 6.390625 29.59375 6.390625 
Q 36.859375 6.390625 41.078125 11.03125 
Q 45.3125 15.671875 45.3125 23.6875 
L 45.3125 54.6875 
L 54.296875 54.6875 
L 54.296875 0 
L 45.3125 0 
L 45.3125 8.40625 
Q 42.046875 3.421875 37.71875 1 
Q 33.40625 -1.421875 27.6875 -1.421875 
Q 18.265625 -1.421875 13.375 4.4375 
Q 8.5 10.296875 8.5 21.578125 
z
M 31.109375 56 
z
" id="DejaVuSans-117"/>
     <path d="M 48.78125 52.59375 
L 48.78125 44.1875 
Q 44.96875 46.296875 41.140625 47.34375 
Q 37.3125 48.390625 33.40625 48.390625 
Q 24.65625 48.390625 19.8125 42.84375 
Q 14.984375 37.3125 14.984375 27.296875 
Q 14.984375 17.28125 19.8125 11.734375 
Q 24.65625 6.203125 33.40625 6.203125 
Q 37.3125 6.203125 41.140625 7.25 
Q 44.96875 8.296875 48.78125 10.40625 
L 48.78125 2.09375 
Q 45.015625 0.34375 40.984375 -0.53125 
Q 36.96875 -1.421875 32.421875 -1.421875 
Q 20.0625 -1.421875 12.78125 6.34375 
Q 5.515625 14.109375 5.515625 27.296875 
Q 5.515625 40.671875 12.859375 48.328125 
Q 20.21875 56 33.015625 56 
Q 37.15625 56 41.109375 55.140625 
Q 45.0625 54.296875 48.78125 52.59375 
z
" id="DejaVuSans-99"/>
     <path d="M 18.3125 70.21875 
L 18.3125 54.6875 
L 36.8125 54.6875 
L 36.8125 47.703125 
L 18.3125 47.703125 
L 18.3125 18.015625 
Q 18.3125 11.328125 20.140625 9.421875 
Q 21.96875 7.515625 27.59375 7.515625 
L 36.8125 7.515625 
L 36.8125 0 
L 27.59375 0 
Q 17.1875 0 13.234375 3.875 
Q 9.28125 7.765625 9.28125 18.015625 
L 9.28125 47.703125 
L 2.6875 47.703125 
L 2.6875 54.6875 
L 9.28125 54.6875 
L 9.28125 70.21875 
z
" id="DejaVuSans-116"/>
     <path d="M 9.421875 54.6875 
L 18.40625 54.6875 
L 18.40625 0 
L 9.421875 0 
z
M 9.421875 75.984375 
L 18.40625 75.984375 
L 18.40625 64.59375 
L 9.421875 64.59375 
z
" id="DejaVuSans-105"/>
    </defs>
    <g transform="translate(148.483438 26.64)scale(0.12 -0.12)">
     <use xlink:href="#DejaVuSans-67"/>
     <use x="69.824219" xlink:href="#DejaVuSans-111"/>
     <use x="131.005859" xlink:href="#DejaVuSans-110"/>
     <use x="194.384766" xlink:href="#DejaVuSans-115"/>
     <use x="246.484375" xlink:href="#DejaVuSans-46"/>
     <use x="278.271484" xlink:href="#DejaVuSans-32"/>
     <use x="310.058594" xlink:href="#DejaVuSans-70"/>
     <use x="367.5" xlink:href="#DejaVuSans-117"/>
     <use x="430.878906" xlink:href="#DejaVuSans-110"/>
     <use x="494.257812" xlink:href="#DejaVuSans-99"/>
     <use x="549.238281" xlink:href="#DejaVuSans-116"/>
     <use x="588.447266" xlink:href="#DejaVuSans-105"/>
     <use x="616.230469" xlink:href="#DejaVuSans-111"/>
     <use x="677.412109" xlink:href="#DejaVuSans-110"/>
     <use x="740.791016" xlink:href="#DejaVuSans-115"/>
    </g>
   </g>
   <g id="legend_1">
    <g id="patch_7">
     <path d="M 47.12 69.99625 
L 106.987188 69.99625 
Q 108.987188 69.99625 108.987188 67.99625 
L 108.987188 39.64 
Q 108.987188 37.64 106.987188 37.64 
L 47.12 37.64 
Q 45.12 37.64 45.12 39.64 
L 45.12 67.99625 
Q 45.12 69.99625 47.12 69.99625 
z
" style="fill:#ffffff;opacity:0.8;stroke:#cccccc;stroke-linejoin:miter;"/>
    </g>
    <g id="line2d_29">
     <path d="M 49.12 45.738438 
L 69.12 45.738438 
" style="fill:none;stroke:#1f77b4;stroke-linecap:square;stroke-width:1.5;"/>
    </g>
    <g id="line2d_30"/>
    <g id="text_6">
     <!-- CGM -->
     <defs>
      <path d="M 59.515625 10.40625 
L 59.515625 29.984375 
L 43.40625 29.984375 
L 43.40625 38.09375 
L 69.28125 38.09375 
L 69.28125 6.78125 
Q 63.578125 2.734375 56.6875 0.65625 
Q 49.8125 -1.421875 42 -1.421875 
Q 24.90625 -1.421875 15.25 8.5625 
Q 5.609375 18.5625 5.609375 36.375 
Q 5.609375 54.25 15.25 64.234375 
Q 24.90625 74.21875 42 74.21875 
Q 49.125 74.21875 55.546875 72.453125 
Q 61.96875 70.703125 67.390625 67.28125 
L 67.390625 56.78125 
Q 61.921875 61.421875 55.765625 63.765625 
Q 49.609375 66.109375 42.828125 66.109375 
Q 29.4375 66.109375 22.71875 58.640625 
Q 16.015625 51.171875 16.015625 36.375 
Q 16.015625 21.625 22.71875 14.15625 
Q 29.4375 6.6875 42.828125 6.6875 
Q 48.046875 6.6875 52.140625 7.59375 
Q 56.25 8.5 59.515625 10.40625 
z
" id="DejaVuSans-71"/>
      <path d="M 9.8125 72.90625 
L 24.515625 72.90625 
L 43.109375 23.296875 
L 61.8125 72.90625 
L 76.515625 72.90625 
L 76.515625 0 
L 66.890625 0 
L 66.890625 64.015625 
L 48.09375 14.015625 
L 38.1875 14.015625 
L 19.390625 64.015625 
L 19.390625 0 
L 9.8125 0 
z
" id="DejaVuSans-77"/>
     </defs>
     <g transform="translate(77.12 49.238438)scale(0.1 -0.1)">
      <use xlink:href="#DejaVuSans-67"/>
      <use x="69.824219" xlink:href="#DejaVuSans-71"/>
      <use x="147.314453" xlink:href="#DejaVuSans-77"/>
     </g>
    </g>
    <g id="line2d_31">
     <path d="M 49.12 60.416563 
L 69.12 60.416563 
" style="fill:none;stroke:#ff7f0e;stroke-linecap:square;stroke-width:1.5;"/>
    </g>
    <g id="line2d_32"/>
    <g id="text_7">
     <!-- HARK -->
     <defs>
      <path d="M 9.8125 72.90625 
L 19.671875 72.90625 
L 19.671875 43.015625 
L 55.515625 43.015625 
L 55.515625 72.90625 
L 65.375 72.90625 
L 65.375 0 
L 55.515625 0 
L 55.515625 34.71875 
L 19.671875 34.71875 
L 19.671875 0 
L 9.8125 0 
z
" id="DejaVuSans-72"/>
      <path d="M 34.1875 63.1875 
L 20.796875 26.90625 
L 47.609375 26.90625 
z
M 28.609375 72.90625 
L 39.796875 72.90625 
L 67.578125 0 
L 57.328125 0 
L 50.6875 18.703125 
L 17.828125 18.703125 
L 11.1875 0 
L 0.78125 0 
z
" id="DejaVuSans-65"/>
      <path d="M 44.390625 34.1875 
Q 47.5625 33.109375 50.5625 29.59375 
Q 53.5625 26.078125 56.59375 19.921875 
L 66.609375 0 
L 56 0 
L 46.6875 18.703125 
Q 43.0625 26.03125 39.671875 28.421875 
Q 36.28125 30.8125 30.421875 30.8125 
L 19.671875 30.8125 
L 19.671875 0 
L 9.8125 0 
L 9.8125 72.90625 
L 32.078125 72.90625 
Q 44.578125 72.90625 50.734375 67.671875 
Q 56.890625 62.453125 56.890625 51.90625 
Q 56.890625 45.015625 53.6875 40.46875 
Q 50.484375 35.9375 44.390625 34.1875 
z
M 19.671875 64.796875 
L 19.671875 38.921875 
L 32.078125 38.921875 
Q 39.203125 38.921875 42.84375 42.21875 
Q 46.484375 45.515625 46.484375 51.90625 
Q 46.484375 58.296875 42.84375 61.546875 
Q 39.203125 64.796875 32.078125 64.796875 
z
" id="DejaVuSans-82"/>
      <path d="M 9.8125 72.90625 
L 19.671875 72.90625 
L 19.671875 42.09375 
L 52.390625 72.90625 
L 65.09375 72.90625 
L 28.90625 38.921875 
L 67.671875 0 
L 54.6875 0 
L 19.671875 35.109375 
L 19.671875 0 
L 9.8125 0 
z
" id="DejaVuSans-75"/>
     </defs>
     <g transform="translate(77.12 63.916563)scale(0.1 -0.1)">
      <use xlink:href="#DejaVuSans-72"/>
      <use x="75.195312" xlink:href="#DejaVuSans-65"/>
      <use x="143.603516" xlink:href="#DejaVuSans-82"/>
      <use x="213.085938" xlink:href="#DejaVuSans-75"/>
     </g>
    </g>
   </g>
  </g>
  <g id="axes_2">
   <g id="patch_8">
    <path d="M 397.33 120.5216 
L 709.2 120.5216 
L 709.2 32.64 
L 397.33 32.64 
z
" style="fill:#ffffff;"/>
   </g>
   <g id="matplotlib.axis_3">
    <g id="xtick_10">
     <g id="line2d_33">
      <path clip-path="url(#p751ba5d3a0)" d="M 408.670727 120.5216 
L 408.670727 32.64 
" style="fill:none;stroke:#b0b0b0;stroke-linecap:square;stroke-width:0.8;"/>
     </g>
     <g id="line2d_34">
      <g>
       <use style="stroke:#000000;stroke-width:0.8;" x="408.670727" xlink:href="#md8081cbe48" y="120.5216"/>
      </g>
     </g>
    </g>
    <g id="xtick_11">
     <g id="line2d_35">
      <path clip-path="url(#p751ba5d3a0)" d="M 444.1105 120.5216 
L 444.1105 32.64 
" style="fill:none;stroke:#b0b0b0;stroke-linecap:square;stroke-width:0.8;"/>
     </g>
     <g id="line2d_36">
      <g>
       <use style="stroke:#000000;stroke-width:0.8;" x="444.1105" xlink:href="#md8081cbe48" y="120.5216"/>
      </g>
     </g>
    </g>
    <g id="xtick_12">
     <g id="line2d_37">
      <path clip-path="url(#p751ba5d3a0)" d="M 479.550273 120.5216 
L 479.550273 32.64 
" style="fill:none;stroke:#b0b0b0;stroke-linecap:square;stroke-width:0.8;"/>
     </g>
     <g id="line2d_38">
      <g>
       <use style="stroke:#000000;stroke-width:0.8;" x="479.550273" xlink:href="#md8081cbe48" y="120.5216"/>
      </g>
     </g>
    </g>
    <g id="xtick_13">
     <g id="line2d_39">
      <path clip-path="url(#p751ba5d3a0)" d="M 514.990045 120.5216 
L 514.990045 32.64 
" style="fill:none;stroke:#b0b0b0;stroke-linecap:square;stroke-width:0.8;"/>
     </g>
     <g id="line2d_40">
      <g>
       <use style="stroke:#000000;stroke-width:0.8;" x="514.990045" xlink:href="#md8081cbe48" y="120.5216"/>
      </g>
     </g>
    </g>
    <g id="xtick_14">
     <g id="line2d_41">
      <path clip-path="url(#p751ba5d3a0)" d="M 550.429818 120.5216 
L 550.429818 32.64 
" style="fill:none;stroke:#b0b0b0;stroke-linecap:square;stroke-width:0.8;"/>
     </g>
     <g id="line2d_42">
      <g>
       <use style="stroke:#000000;stroke-width:0.8;" x="550.429818" xlink:href="#md8081cbe48" y="120.5216"/>
      </g>
     </g>
    </g>
    <g id="xtick_15">
     <g id="line2d_43">
      <path clip-path="url(#p751ba5d3a0)" d="M 585.869591 120.5216 
L 585.869591 32.64 
" style="fill:none;stroke:#b0b0b0;stroke-linecap:square;stroke-width:0.8;"/>
     </g>
     <g id="line2d_44">
      <g>
       <use style="stroke:#000000;stroke-width:0.8;" x="585.869591" xlink:href="#md8081cbe48" y="120.5216"/>
      </g>
     </g>
    </g>
    <g id="xtick_16">
     <g id="line2d_45">
      <path clip-path="url(#p751ba5d3a0)" d="M 621.309364 120.5216 
L 621.309364 32.64 
" style="fill:none;stroke:#b0b0b0;stroke-linecap:square;stroke-width:0.8;"/>
     </g>
     <g id="line2d_46">
      <g>
       <use style="stroke:#000000;stroke-width:0.8;" x="621.309364" xlink:href="#md8081cbe48" y="120.5216"/>
      </g>
     </g>
    </g>
    <g id="xtick_17">
     <g id="line2d_47">
      <path clip-path="url(#p751ba5d3a0)" d="M 656.749136 120.5216 
L 656.749136 32.64 
" style="fill:none;stroke:#b0b0b0;stroke-linecap:square;stroke-width:0.8;"/>
     </g>
     <g id="line2d_48">
      <g>
       <use style="stroke:#000000;stroke-width:0.8;" x="656.749136" xlink:href="#md8081cbe48" y="120.5216"/>
      </g>
     </g>
    </g>
    <g id="xtick_18">
     <g id="line2d_49">
      <path clip-path="url(#p751ba5d3a0)" d="M 692.188909 120.5216 
L 692.188909 32.64 
" style="fill:none;stroke:#b0b0b0;stroke-linecap:square;stroke-width:0.8;"/>
     </g>
     <g id="line2d_50">
      <g>
       <use style="stroke:#000000;stroke-width:0.8;" x="692.188909" xlink:href="#md8081cbe48" y="120.5216"/>
      </g>
     </g>
    </g>
   </g>
   <g id="matplotlib.axis_4">
    <g id="ytick_5">
     <g id="line2d_51">
      <path clip-path="url(#p751ba5d3a0)" d="M 397.33 111.45551 
L 709.2 111.45551 
" style="fill:none;stroke:#b0b0b0;stroke-linecap:square;stroke-width:0.8;"/>
     </g>
     <g id="line2d_52">
      <g>
       <use style="stroke:#000000;stroke-width:0.8;" x="397.33" xlink:href="#mc16a5b2779" y="111.45551"/>
      </g>
     </g>
     <g id="text_8">
      <!-- −100 -->
      <defs>
       <path d="M 10.59375 35.5 
L 73.1875 35.5 
L 73.1875 27.203125 
L 10.59375 27.203125 
z
" id="DejaVuSans-8722"/>
      </defs>
      <g transform="translate(362.862812 115.254728)scale(0.1 -0.1)">
       <use xlink:href="#DejaVuSans-8722"/>
       <use x="83.789062" xlink:href="#DejaVuSans-49"/>
       <use x="147.412109" xlink:href="#DejaVuSans-48"/>
       <use x="211.035156" xlink:href="#DejaVuSans-48"/>
      </g>
     </g>
    </g>
    <g id="ytick_6">
     <g id="line2d_53">
      <path clip-path="url(#p751ba5d3a0)" d="M 397.33 74.052068 
L 709.2 74.052068 
" style="fill:none;stroke:#b0b0b0;stroke-linecap:square;stroke-width:0.8;"/>
     </g>
     <g id="line2d_54">
      <g>
       <use style="stroke:#000000;stroke-width:0.8;" x="397.33" xlink:href="#mc16a5b2779" y="74.052068"/>
      </g>
     </g>
     <g id="text_9">
      <!-- −50 -->
      <g transform="translate(369.225312 77.851287)scale(0.1 -0.1)">
       <use xlink:href="#DejaVuSans-8722"/>
       <use x="83.789062" xlink:href="#DejaVuSans-53"/>
       <use x="147.412109" xlink:href="#DejaVuSans-48"/>
      </g>
     </g>
    </g>
    <g id="ytick_7">
     <g id="line2d_55">
      <path clip-path="url(#p751ba5d3a0)" d="M 397.33 36.648627 
L 709.2 36.648627 
" style="fill:none;stroke:#b0b0b0;stroke-linecap:square;stroke-width:0.8;"/>
     </g>
     <g id="line2d_56">
      <g>
       <use style="stroke:#000000;stroke-width:0.8;" x="397.33" xlink:href="#mc16a5b2779" y="36.648627"/>
      </g>
     </g>
     <g id="text_10">
      <!-- 0 -->
      <g transform="translate(383.9675 40.447846)scale(0.1 -0.1)">
       <use xlink:href="#DejaVuSans-48"/>
      </g>
     </g>
    </g>
   </g>
   <g id="line2d_57">
    <path clip-path="url(#p751ba5d3a0)" d="M 411.505909 36.645649 
L 421.429045 36.741775 
L 422.846636 36.913486 
L 423.555432 37.184805 
L 424.973023 37.350578 
L 425.681818 37.619169 
L 426.390614 37.699923 
L 427.099409 37.966919 
L 427.808205 38.046154 
L 428.517 38.311702 
L 429.225795 38.389557 
L 429.934591 38.653787 
L 430.643386 38.730269 
L 432.060977 39.255559 
L 432.769773 39.329615 
L 433.478568 39.588478 
L 434.187364 39.660272 
L 435.604955 40.177738 
L 436.31375 40.249139 
L 437.022545 40.507503 
L 437.731341 40.57885 
L 439.148932 41.095578 
L 439.857727 41.166924 
L 440.566523 41.425288 
L 441.275318 41.496635 
L 442.692909 42.013363 
L 443.401705 42.084709 
L 444.819295 42.601438 
L 445.528091 42.672784 
L 446.945682 43.189512 
L 447.654477 43.260859 
L 449.072068 43.777587 
L 449.780864 43.848934 
L 451.198455 44.365661 
L 451.90725 44.437008 
L 453.324841 44.953736 
L 454.033636 45.025083 
L 455.451227 45.54181 
L 456.160023 45.613157 
L 457.577614 46.129885 
L 458.286409 46.201233 
L 459.704 46.71796 
L 460.412795 46.789306 
L 461.830386 47.306034 
L 462.539182 47.377381 
L 464.665568 48.152474 
L 465.374364 48.22382 
L 466.791955 48.740548 
L 467.50075 48.811894 
L 468.918341 49.328622 
L 469.627136 49.399969 
L 471.753523 50.175061 
L 472.462318 50.246408 
L 473.879909 50.763136 
L 474.588705 50.834483 
L 476.715091 51.609574 
L 477.423886 51.680921 
L 478.841477 52.197648 
L 479.550273 52.268995 
L 481.676659 53.044087 
L 482.385455 53.115434 
L 484.511841 53.890526 
L 485.220636 53.961873 
L 486.638227 54.478601 
L 487.347023 54.549948 
L 489.473409 55.32504 
L 490.182205 55.396386 
L 492.308591 56.171478 
L 493.017386 56.242824 
L 494.434977 56.759552 
L 495.143773 56.830899 
L 497.270159 57.605991 
L 497.978955 57.677337 
L 500.105341 58.452429 
L 500.814136 58.523776 
L 502.940523 59.298868 
L 503.649318 59.370214 
L 505.775705 60.145306 
L 506.4845 60.216653 
L 507.902091 60.733381 
L 508.610886 60.804728 
L 510.737273 61.57982 
L 511.446068 61.651167 
L 513.572455 62.426259 
L 514.28125 62.497606 
L 516.407636 63.272698 
L 517.116432 63.344044 
L 519.242818 64.119136 
L 519.951614 64.190483 
L 522.078 64.965574 
L 522.786795 65.036921 
L 524.913182 65.812013 
L 525.621977 65.883359 
L 527.748364 66.658451 
L 528.457159 66.729798 
L 530.583545 67.50489 
L 531.292341 67.576236 
L 533.418727 68.351328 
L 534.127523 68.422675 
L 536.253909 69.197767 
L 536.962705 69.269113 
L 539.089091 70.044205 
L 539.797886 70.115552 
L 541.924273 70.890644 
L 542.633068 70.961991 
L 544.759455 71.737083 
L 545.46825 71.808429 
L 547.594636 72.583521 
L 548.303432 72.654868 
L 550.429818 73.42996 
L 551.138614 73.501307 
L 553.265 74.276399 
L 553.973795 74.347746 
L 556.100182 75.122838 
L 556.808977 75.194185 
L 558.935364 75.969277 
L 559.644159 76.040623 
L 561.770545 76.815715 
L 562.479341 76.887062 
L 564.605727 77.662154 
L 565.314523 77.733501 
L 567.440909 78.508593 
L 568.149705 78.579939 
L 570.276091 79.355031 
L 570.984886 79.426378 
L 573.820068 80.459834 
L 574.528864 80.53118 
L 576.65525 81.306272 
L 577.364045 81.377619 
L 579.490432 82.15271 
L 580.199227 82.224057 
L 582.325614 82.999149 
L 583.034409 83.070496 
L 585.160795 83.845587 
L 585.869591 83.916934 
L 587.995977 84.692026 
L 588.704773 84.763373 
L 590.831159 85.538464 
L 591.539955 85.609811 
L 593.666341 86.384903 
L 594.375136 86.45625 
L 597.210318 87.489705 
L 597.919114 87.561052 
L 600.0455 88.336144 
L 600.754295 88.407491 
L 602.171886 88.924218 
L 602.880682 88.995565 
L 605.715864 90.029021 
L 606.424659 90.100368 
L 608.551045 90.875459 
L 609.259841 90.946806 
L 611.386227 91.721898 
L 612.095023 91.793245 
L 614.930205 92.8267 
L 615.639 92.898047 
L 617.765386 93.673139 
L 618.474182 93.744486 
L 620.600568 94.519578 
L 621.309364 94.590924 
L 622.726955 95.107652 
L 623.43575 95.178999 
L 625.562136 95.954091 
L 626.270932 96.025437 
L 629.106114 97.058893 
L 629.814909 97.13024 
L 632.650091 98.163696 
L 633.358886 98.235043 
L 635.485273 99.010134 
L 636.194068 99.081481 
L 638.320455 99.856573 
L 639.02925 99.92792 
L 640.446841 100.444648 
L 641.155636 100.515994 
L 643.282023 101.291086 
L 643.990818 101.362433 
L 646.117205 102.137525 
L 646.826 102.208872 
L 649.661182 103.242327 
L 650.369977 103.313674 
L 653.205159 104.34713 
L 653.913955 104.418477 
L 656.040341 105.193569 
L 656.749136 105.264915 
L 658.875523 106.040007 
L 659.584318 106.111354 
L 661.710705 106.886446 
L 662.4195 106.957793 
L 663.837091 107.474521 
L 664.545886 107.545867 
L 666.672273 108.320959 
L 667.381068 108.392306 
L 670.21625 109.425762 
L 670.925045 109.497109 
L 673.760227 110.530564 
L 674.469023 110.601911 
L 676.595409 111.377003 
L 677.304205 111.44835 
L 679.430591 112.223442 
L 680.139386 112.294789 
L 681.556977 112.811516 
L 682.265773 112.882863 
L 684.392159 113.657955 
L 685.100955 113.729302 
L 687.227341 114.504394 
L 687.936136 114.388723 
L 693.6065 116.455635 
L 694.315295 116.526982 
L 695.024091 116.411311 
L 695.024091 116.411311 
" style="fill:none;stroke:#1f77b4;stroke-linecap:square;stroke-width:1.5;"/>
   </g>
   <g id="patch_9">
    <path d="M 397.33 120.5216 
L 397.33 32.64 
" style="fill:none;stroke:#000000;stroke-linecap:square;stroke-linejoin:miter;stroke-width:0.8;"/>
   </g>
   <g id="patch_10">
    <path d="M 709.2 120.5216 
L 709.2 32.64 
" style="fill:none;stroke:#000000;stroke-linecap:square;stroke-linejoin:miter;stroke-width:0.8;"/>
   </g>
   <g id="patch_11">
    <path d="M 397.33 120.5216 
L 709.2 120.5216 
" style="fill:none;stroke:#000000;stroke-linecap:square;stroke-linejoin:miter;stroke-width:0.8;"/>
   </g>
   <g id="patch_12">
    <path d="M 397.33 32.64 
L 709.2 32.64 
" style="fill:none;stroke:#000000;stroke-linecap:square;stroke-linejoin:miter;stroke-width:0.8;"/>
   </g>
   <g id="text_11">
    <!-- Cons. Difference -->
    <defs>
     <path d="M 19.671875 64.796875 
L 19.671875 8.109375 
L 31.59375 8.109375 
Q 46.6875 8.109375 53.6875 14.9375 
Q 60.6875 21.78125 60.6875 36.53125 
Q 60.6875 51.171875 53.6875 57.984375 
Q 46.6875 64.796875 31.59375 64.796875 
z
M 9.8125 72.90625 
L 30.078125 72.90625 
Q 51.265625 72.90625 61.171875 64.09375 
Q 71.09375 55.28125 71.09375 36.53125 
Q 71.09375 17.671875 61.125 8.828125 
Q 51.171875 0 30.078125 0 
L 9.8125 0 
z
" id="DejaVuSans-68"/>
     <path d="M 37.109375 75.984375 
L 37.109375 68.5 
L 28.515625 68.5 
Q 23.6875 68.5 21.796875 66.546875 
Q 19.921875 64.59375 19.921875 59.515625 
L 19.921875 54.6875 
L 34.71875 54.6875 
L 34.71875 47.703125 
L 19.921875 47.703125 
L 19.921875 0 
L 10.890625 0 
L 10.890625 47.703125 
L 2.296875 47.703125 
L 2.296875 54.6875 
L 10.890625 54.6875 
L 10.890625 58.5 
Q 10.890625 67.625 15.140625 71.796875 
Q 19.390625 75.984375 28.609375 75.984375 
z
" id="DejaVuSans-102"/>
     <path d="M 56.203125 29.59375 
L 56.203125 25.203125 
L 14.890625 25.203125 
Q 15.484375 15.921875 20.484375 11.0625 
Q 25.484375 6.203125 34.421875 6.203125 
Q 39.59375 6.203125 44.453125 7.46875 
Q 49.3125 8.734375 54.109375 11.28125 
L 54.109375 2.78125 
Q 49.265625 0.734375 44.1875 -0.34375 
Q 39.109375 -1.421875 33.890625 -1.421875 
Q 20.796875 -1.421875 13.15625 6.1875 
Q 5.515625 13.8125 5.515625 26.8125 
Q 5.515625 40.234375 12.765625 48.109375 
Q 20.015625 56 32.328125 56 
Q 43.359375 56 49.78125 48.890625 
Q 56.203125 41.796875 56.203125 29.59375 
z
M 47.21875 32.234375 
Q 47.125 39.59375 43.09375 43.984375 
Q 39.0625 48.390625 32.421875 48.390625 
Q 24.90625 48.390625 20.390625 44.140625 
Q 15.875 39.890625 15.1875 32.171875 
z
" id="DejaVuSans-101"/>
     <path d="M 41.109375 46.296875 
Q 39.59375 47.171875 37.8125 47.578125 
Q 36.03125 48 33.890625 48 
Q 26.265625 48 22.1875 43.046875 
Q 18.109375 38.09375 18.109375 28.8125 
L 18.109375 0 
L 9.078125 0 
L 9.078125 54.6875 
L 18.109375 54.6875 
L 18.109375 46.1875 
Q 20.953125 51.171875 25.484375 53.578125 
Q 30.03125 56 36.53125 56 
Q 37.453125 56 38.578125 55.875 
Q 39.703125 55.765625 41.0625 55.515625 
z
" id="DejaVuSans-114"/>
    </defs>
    <g transform="translate(503.509062 26.64)scale(0.12 -0.12)">
     <use xlink:href="#DejaVuSans-67"/>
     <use x="69.824219" xlink:href="#DejaVuSans-111"/>
     <use x="131.005859" xlink:href="#DejaVuSans-110"/>
     <use x="194.384766" xlink:href="#DejaVuSans-115"/>
     <use x="246.484375" xlink:href="#DejaVuSans-46"/>
     <use x="278.271484" xlink:href="#DejaVuSans-32"/>
     <use x="310.058594" xlink:href="#DejaVuSans-68"/>
     <use x="387.060547" xlink:href="#DejaVuSans-105"/>
     <use x="414.84375" xlink:href="#DejaVuSans-102"/>
     <use x="450.048828" xlink:href="#DejaVuSans-102"/>
     <use x="485.253906" xlink:href="#DejaVuSans-101"/>
     <use x="546.777344" xlink:href="#DejaVuSans-114"/>
     <use x="587.859375" xlink:href="#DejaVuSans-101"/>
     <use x="649.382812" xlink:href="#DejaVuSans-110"/>
     <use x="712.761719" xlink:href="#DejaVuSans-99"/>
     <use x="767.742188" xlink:href="#DejaVuSans-101"/>
    </g>
   </g>
   <g id="legend_2">
    <g id="patch_13">
     <path d="M 609.009375 55.318125 
L 702.2 55.318125 
Q 704.2 55.318125 704.2 53.318125 
L 704.2 39.64 
Q 704.2 37.64 702.2 37.64 
L 609.009375 37.64 
Q 607.009375 37.64 607.009375 39.64 
L 607.009375 53.318125 
Q 607.009375 55.318125 609.009375 55.318125 
z
" style="fill:#ffffff;opacity:0.8;stroke:#cccccc;stroke-linejoin:miter;"/>
    </g>
    <g id="line2d_58">
     <path d="M 611.009375 45.738438 
L 631.009375 45.738438 
" style="fill:none;stroke:#1f77b4;stroke-linecap:square;stroke-width:1.5;"/>
    </g>
    <g id="line2d_59"/>
    <g id="text_12">
     <!-- CGM - HARK -->
     <defs>
      <path d="M 4.890625 31.390625 
L 31.203125 31.390625 
L 31.203125 23.390625 
L 4.890625 23.390625 
z
" id="DejaVuSans-45"/>
     </defs>
     <g transform="translate(639.009375 49.238438)scale(0.1 -0.1)">
      <use xlink:href="#DejaVuSans-67"/>
      <use x="69.824219" xlink:href="#DejaVuSans-71"/>
      <use x="147.314453" xlink:href="#DejaVuSans-77"/>
      <use x="233.59375" xlink:href="#DejaVuSans-32"/>
      <use x="265.380859" xlink:href="#DejaVuSans-45"/>
      <use x="301.464844" xlink:href="#DejaVuSans-32"/>
      <use x="333.251953" xlink:href="#DejaVuSans-72"/>
      <use x="408.447266" xlink:href="#DejaVuSans-65"/>
      <use x="476.855469" xlink:href="#DejaVuSans-82"/>
      <use x="546.337891" xlink:href="#DejaVuSans-75"/>
     </g>
    </g>
   </g>
  </g>
  <g id="axes_3">
   <g id="patch_14">
    <path d="M 40.12 252.344 
L 351.99 252.344 
L 351.99 164.4624 
L 40.12 164.4624 
z
" style="fill:#ffffff;"/>
   </g>
   <g id="matplotlib.axis_5">
    <g id="xtick_19">
     <g id="line2d_60">
      <path clip-path="url(#pbac16dd9e4)" d="M 51.460727 252.344 
L 51.460727 164.4624 
" style="fill:none;stroke:#b0b0b0;stroke-linecap:square;stroke-width:0.8;"/>
     </g>
     <g id="line2d_61">
      <g>
       <use style="stroke:#000000;stroke-width:0.8;" x="51.460727" xlink:href="#md8081cbe48" y="252.344"/>
      </g>
     </g>
     <g id="text_13">
      <!-- 0 -->
      <g transform="translate(48.279477 266.942437)scale(0.1 -0.1)">
       <use xlink:href="#DejaVuSans-48"/>
      </g>
     </g>
    </g>
    <g id="xtick_20">
     <g id="line2d_62">
      <path clip-path="url(#pbac16dd9e4)" d="M 86.9005 252.344 
L 86.9005 164.4624 
" style="fill:none;stroke:#b0b0b0;stroke-linecap:square;stroke-width:0.8;"/>
     </g>
     <g id="line2d_63">
      <g>
       <use style="stroke:#000000;stroke-width:0.8;" x="86.9005" xlink:href="#md8081cbe48" y="252.344"/>
      </g>
     </g>
     <g id="text_14">
      <!-- 50 -->
      <g transform="translate(80.538 266.942437)scale(0.1 -0.1)">
       <use xlink:href="#DejaVuSans-53"/>
       <use x="63.623047" xlink:href="#DejaVuSans-48"/>
      </g>
     </g>
    </g>
    <g id="xtick_21">
     <g id="line2d_64">
      <path clip-path="url(#pbac16dd9e4)" d="M 122.340273 252.344 
L 122.340273 164.4624 
" style="fill:none;stroke:#b0b0b0;stroke-linecap:square;stroke-width:0.8;"/>
     </g>
     <g id="line2d_65">
      <g>
       <use style="stroke:#000000;stroke-width:0.8;" x="122.340273" xlink:href="#md8081cbe48" y="252.344"/>
      </g>
     </g>
     <g id="text_15">
      <!-- 100 -->
      <g transform="translate(112.796523 266.942437)scale(0.1 -0.1)">
       <use xlink:href="#DejaVuSans-49"/>
       <use x="63.623047" xlink:href="#DejaVuSans-48"/>
       <use x="127.246094" xlink:href="#DejaVuSans-48"/>
      </g>
     </g>
    </g>
    <g id="xtick_22">
     <g id="line2d_66">
      <path clip-path="url(#pbac16dd9e4)" d="M 157.780045 252.344 
L 157.780045 164.4624 
" style="fill:none;stroke:#b0b0b0;stroke-linecap:square;stroke-width:0.8;"/>
     </g>
     <g id="line2d_67">
      <g>
       <use style="stroke:#000000;stroke-width:0.8;" x="157.780045" xlink:href="#md8081cbe48" y="252.344"/>
      </g>
     </g>
     <g id="text_16">
      <!-- 150 -->
      <g transform="translate(148.236295 266.942437)scale(0.1 -0.1)">
       <use xlink:href="#DejaVuSans-49"/>
       <use x="63.623047" xlink:href="#DejaVuSans-53"/>
       <use x="127.246094" xlink:href="#DejaVuSans-48"/>
      </g>
     </g>
    </g>
    <g id="xtick_23">
     <g id="line2d_68">
      <path clip-path="url(#pbac16dd9e4)" d="M 193.219818 252.344 
L 193.219818 164.4624 
" style="fill:none;stroke:#b0b0b0;stroke-linecap:square;stroke-width:0.8;"/>
     </g>
     <g id="line2d_69">
      <g>
       <use style="stroke:#000000;stroke-width:0.8;" x="193.219818" xlink:href="#md8081cbe48" y="252.344"/>
      </g>
     </g>
     <g id="text_17">
      <!-- 200 -->
      <defs>
       <path d="M 19.1875 8.296875 
L 53.609375 8.296875 
L 53.609375 0 
L 7.328125 0 
L 7.328125 8.296875 
Q 12.9375 14.109375 22.625 23.890625 
Q 32.328125 33.6875 34.8125 36.53125 
Q 39.546875 41.84375 41.421875 45.53125 
Q 43.3125 49.21875 43.3125 52.78125 
Q 43.3125 58.59375 39.234375 62.25 
Q 35.15625 65.921875 28.609375 65.921875 
Q 23.96875 65.921875 18.8125 64.3125 
Q 13.671875 62.703125 7.8125 59.421875 
L 7.8125 69.390625 
Q 13.765625 71.78125 18.9375 73 
Q 24.125 74.21875 28.421875 74.21875 
Q 39.75 74.21875 46.484375 68.546875 
Q 53.21875 62.890625 53.21875 53.421875 
Q 53.21875 48.921875 51.53125 44.890625 
Q 49.859375 40.875 45.40625 35.40625 
Q 44.1875 33.984375 37.640625 27.21875 
Q 31.109375 20.453125 19.1875 8.296875 
z
" id="DejaVuSans-50"/>
      </defs>
      <g transform="translate(183.676068 266.942437)scale(0.1 -0.1)">
       <use xlink:href="#DejaVuSans-50"/>
       <use x="63.623047" xlink:href="#DejaVuSans-48"/>
       <use x="127.246094" xlink:href="#DejaVuSans-48"/>
      </g>
     </g>
    </g>
    <g id="xtick_24">
     <g id="line2d_70">
      <path clip-path="url(#pbac16dd9e4)" d="M 228.659591 252.344 
L 228.659591 164.4624 
" style="fill:none;stroke:#b0b0b0;stroke-linecap:square;stroke-width:0.8;"/>
     </g>
     <g id="line2d_71">
      <g>
       <use style="stroke:#000000;stroke-width:0.8;" x="228.659591" xlink:href="#md8081cbe48" y="252.344"/>
      </g>
     </g>
     <g id="text_18">
      <!-- 250 -->
      <g transform="translate(219.115841 266.942437)scale(0.1 -0.1)">
       <use xlink:href="#DejaVuSans-50"/>
       <use x="63.623047" xlink:href="#DejaVuSans-53"/>
       <use x="127.246094" xlink:href="#DejaVuSans-48"/>
      </g>
     </g>
    </g>
    <g id="xtick_25">
     <g id="line2d_72">
      <path clip-path="url(#pbac16dd9e4)" d="M 264.099364 252.344 
L 264.099364 164.4624 
" style="fill:none;stroke:#b0b0b0;stroke-linecap:square;stroke-width:0.8;"/>
     </g>
     <g id="line2d_73">
      <g>
       <use style="stroke:#000000;stroke-width:0.8;" x="264.099364" xlink:href="#md8081cbe48" y="252.344"/>
      </g>
     </g>
     <g id="text_19">
      <!-- 300 -->
      <defs>
       <path d="M 40.578125 39.3125 
Q 47.65625 37.796875 51.625 33 
Q 55.609375 28.21875 55.609375 21.1875 
Q 55.609375 10.40625 48.1875 4.484375 
Q 40.765625 -1.421875 27.09375 -1.421875 
Q 22.515625 -1.421875 17.65625 -0.515625 
Q 12.796875 0.390625 7.625 2.203125 
L 7.625 11.71875 
Q 11.71875 9.328125 16.59375 8.109375 
Q 21.484375 6.890625 26.8125 6.890625 
Q 36.078125 6.890625 40.9375 10.546875 
Q 45.796875 14.203125 45.796875 21.1875 
Q 45.796875 27.640625 41.28125 31.265625 
Q 36.765625 34.90625 28.71875 34.90625 
L 20.21875 34.90625 
L 20.21875 43.015625 
L 29.109375 43.015625 
Q 36.375 43.015625 40.234375 45.921875 
Q 44.09375 48.828125 44.09375 54.296875 
Q 44.09375 59.90625 40.109375 62.90625 
Q 36.140625 65.921875 28.71875 65.921875 
Q 24.65625 65.921875 20.015625 65.03125 
Q 15.375 64.15625 9.8125 62.3125 
L 9.8125 71.09375 
Q 15.4375 72.65625 20.34375 73.4375 
Q 25.25 74.21875 29.59375 74.21875 
Q 40.828125 74.21875 47.359375 69.109375 
Q 53.90625 64.015625 53.90625 55.328125 
Q 53.90625 49.265625 50.4375 45.09375 
Q 46.96875 40.921875 40.578125 39.3125 
z
" id="DejaVuSans-51"/>
      </defs>
      <g transform="translate(254.555614 266.942437)scale(0.1 -0.1)">
       <use xlink:href="#DejaVuSans-51"/>
       <use x="63.623047" xlink:href="#DejaVuSans-48"/>
       <use x="127.246094" xlink:href="#DejaVuSans-48"/>
      </g>
     </g>
    </g>
    <g id="xtick_26">
     <g id="line2d_74">
      <path clip-path="url(#pbac16dd9e4)" d="M 299.539136 252.344 
L 299.539136 164.4624 
" style="fill:none;stroke:#b0b0b0;stroke-linecap:square;stroke-width:0.8;"/>
     </g>
     <g id="line2d_75">
      <g>
       <use style="stroke:#000000;stroke-width:0.8;" x="299.539136" xlink:href="#md8081cbe48" y="252.344"/>
      </g>
     </g>
     <g id="text_20">
      <!-- 350 -->
      <g transform="translate(289.995386 266.942437)scale(0.1 -0.1)">
       <use xlink:href="#DejaVuSans-51"/>
       <use x="63.623047" xlink:href="#DejaVuSans-53"/>
       <use x="127.246094" xlink:href="#DejaVuSans-48"/>
      </g>
     </g>
    </g>
    <g id="xtick_27">
     <g id="line2d_76">
      <path clip-path="url(#pbac16dd9e4)" d="M 334.978909 252.344 
L 334.978909 164.4624 
" style="fill:none;stroke:#b0b0b0;stroke-linecap:square;stroke-width:0.8;"/>
     </g>
     <g id="line2d_77">
      <g>
       <use style="stroke:#000000;stroke-width:0.8;" x="334.978909" xlink:href="#md8081cbe48" y="252.344"/>
      </g>
     </g>
     <g id="text_21">
      <!-- 400 -->
      <defs>
       <path d="M 37.796875 64.3125 
L 12.890625 25.390625 
L 37.796875 25.390625 
z
M 35.203125 72.90625 
L 47.609375 72.90625 
L 47.609375 25.390625 
L 58.015625 25.390625 
L 58.015625 17.1875 
L 47.609375 17.1875 
L 47.609375 0 
L 37.796875 0 
L 37.796875 17.1875 
L 4.890625 17.1875 
L 4.890625 26.703125 
z
" id="DejaVuSans-52"/>
      </defs>
      <g transform="translate(325.435159 266.942437)scale(0.1 -0.1)">
       <use xlink:href="#DejaVuSans-52"/>
       <use x="63.623047" xlink:href="#DejaVuSans-48"/>
       <use x="127.246094" xlink:href="#DejaVuSans-48"/>
      </g>
     </g>
    </g>
   </g>
   <g id="matplotlib.axis_6">
    <g id="ytick_8">
     <g id="line2d_78">
      <path clip-path="url(#pbac16dd9e4)" d="M 40.12 248.349382 
L 351.99 248.349382 
" style="fill:none;stroke:#b0b0b0;stroke-linecap:square;stroke-width:0.8;"/>
     </g>
     <g id="line2d_79">
      <g>
       <use style="stroke:#000000;stroke-width:0.8;" x="40.12" xlink:href="#mc16a5b2779" y="248.349382"/>
      </g>
     </g>
     <g id="text_22">
      <!-- 0.0 -->
      <g transform="translate(17.216875 252.148601)scale(0.1 -0.1)">
       <use xlink:href="#DejaVuSans-48"/>
       <use x="63.623047" xlink:href="#DejaVuSans-46"/>
       <use x="95.410156" xlink:href="#DejaVuSans-48"/>
      </g>
     </g>
    </g>
    <g id="ytick_9">
     <g id="line2d_80">
      <path clip-path="url(#pbac16dd9e4)" d="M 40.12 208.4032 
L 351.99 208.4032 
" style="fill:none;stroke:#b0b0b0;stroke-linecap:square;stroke-width:0.8;"/>
     </g>
     <g id="line2d_81">
      <g>
       <use style="stroke:#000000;stroke-width:0.8;" x="40.12" xlink:href="#mc16a5b2779" y="208.4032"/>
      </g>
     </g>
     <g id="text_23">
      <!-- 0.5 -->
      <g transform="translate(17.216875 212.202419)scale(0.1 -0.1)">
       <use xlink:href="#DejaVuSans-48"/>
       <use x="63.623047" xlink:href="#DejaVuSans-46"/>
       <use x="95.410156" xlink:href="#DejaVuSans-53"/>
      </g>
     </g>
    </g>
    <g id="ytick_10">
     <g id="line2d_82">
      <path clip-path="url(#pbac16dd9e4)" d="M 40.12 168.457018 
L 351.99 168.457018 
" style="fill:none;stroke:#b0b0b0;stroke-linecap:square;stroke-width:0.8;"/>
     </g>
     <g id="line2d_83">
      <g>
       <use style="stroke:#000000;stroke-width:0.8;" x="40.12" xlink:href="#mc16a5b2779" y="168.457018"/>
      </g>
     </g>
     <g id="text_24">
      <!-- 1.0 -->
      <g transform="translate(17.216875 172.256237)scale(0.1 -0.1)">
       <use xlink:href="#DejaVuSans-49"/>
       <use x="63.623047" xlink:href="#DejaVuSans-46"/>
       <use x="95.410156" xlink:href="#DejaVuSans-48"/>
      </g>
     </g>
    </g>
   </g>
   <g id="line2d_84">
    <path clip-path="url(#pbac16dd9e4)" d="M 54.295909 248.349382 
L 63.51025 248.349382 
L 64.219045 168.457018 
L 96.114841 168.457018 
L 96.823636 169.255942 
L 97.532432 170.853789 
L 98.241227 170.853789 
L 98.950023 171.652713 
L 99.658818 173.25056 
L 100.367614 173.25056 
L 104.620386 178.044102 
L 105.329182 178.044102 
L 108.164364 181.239796 
L 108.873159 181.239796 
L 110.29075 182.837644 
L 110.999545 182.837644 
L 112.417136 184.435491 
L 113.125932 184.435491 
L 114.543523 186.033338 
L 115.961114 186.033338 
L 117.378705 187.631185 
L 118.796295 187.631185 
L 119.505091 189.229033 
L 120.922682 189.229033 
L 121.631477 190.027956 
L 122.340273 190.027956 
L 123.049068 190.82688 
L 123.757864 190.82688 
L 124.466659 191.625804 
L 125.88425 191.625804 
L 127.301841 193.223651 
L 128.719432 193.223651 
L 129.428227 194.022575 
L 130.845818 194.022575 
L 131.554614 194.821498 
L 132.263409 194.821498 
L 132.972205 195.620422 
L 134.389795 195.620422 
L 135.098591 196.419345 
L 136.516182 196.419345 
L 137.224977 197.218269 
L 138.642568 197.218269 
L 139.351364 198.017193 
L 140.768955 198.017193 
L 141.47775 198.816116 
L 143.604136 198.816116 
L 144.312932 199.61504 
L 145.730523 199.61504 
L 146.439318 200.413964 
L 147.856909 200.413964 
L 148.565705 201.212887 
L 151.400886 201.212887 
L 152.109682 202.011811 
L 153.527273 202.011811 
L 154.236068 202.810735 
L 154.944864 202.810735 
L 155.653659 203.609658 
L 156.362455 202.810735 
L 157.07125 203.609658 
L 159.197636 203.609658 
L 159.906432 204.408582 
L 162.032818 204.408582 
L 162.741614 205.207505 
L 165.576795 205.207505 
L 166.285591 206.006429 
L 168.411977 206.006429 
L 169.120773 206.805353 
L 169.829568 206.006429 
L 170.538364 206.805353 
L 172.66475 206.805353 
L 173.373545 207.604276 
L 176.208727 207.604276 
L 176.917523 208.4032 
L 181.170295 208.4032 
L 181.879091 209.202124 
L 184.714273 209.202124 
L 185.423068 210.001047 
L 189.675841 210.001047 
L 190.384636 210.799971 
L 193.928614 210.799971 
L 194.637409 211.598895 
L 199.598977 211.598895 
L 200.307773 212.397818 
L 205.269341 212.397818 
L 205.978136 213.196742 
L 210.230909 213.196742 
L 210.939705 213.995665 
L 218.027659 213.995665 
L 218.736455 214.794589 
L 223.698023 214.794589 
L 224.406818 215.593513 
L 230.077182 215.593513 
L 230.785977 216.392436 
L 239.291523 216.392436 
L 240.000318 217.19136 
L 245.670682 217.19136 
L 246.379477 217.990284 
L 257.011409 217.990284 
L 257.720205 218.789207 
L 265.516955 218.789207 
L 266.22575 219.588131 
L 276.857682 219.588131 
L 277.566477 220.387055 
L 278.275273 219.588131 
L 278.984068 219.588131 
L 279.692864 220.387055 
L 287.489614 220.387055 
L 288.198409 221.185978 
L 301.665523 221.185978 
L 302.374318 221.984902 
L 313.00625 221.984902 
L 313.715045 222.783825 
L 315.132636 222.783825 
L 315.841432 221.984902 
L 316.550227 222.783825 
L 321.511795 222.783825 
L 322.220591 223.582749 
L 327.182159 223.582749 
L 330.017341 226.778444 
L 330.726136 226.778444 
L 337.105295 233.968756 
L 337.814091 233.968756 
L 337.814091 233.968756 
" style="fill:none;stroke:#1f77b4;stroke-linecap:square;stroke-width:1.5;"/>
   </g>
   <g id="line2d_85">
    <path clip-path="url(#pbac16dd9e4)" d="M 54.295909 168.457018 
L 58.548682 168.457018 
L 59.257477 169.648315 
L 60.675068 178.409038 
L 62.092659 185.024768 
L 63.51025 190.139286 
L 64.927841 194.17739 
L 66.345432 197.446021 
L 67.763023 200.147367 
L 69.180614 202.414723 
L 70.598205 204.345783 
L 72.724591 206.760854 
L 74.850977 208.73867 
L 76.977364 210.384363 
L 79.10375 211.77798 
L 81.938932 213.332747 
L 84.774114 214.623799 
L 88.318091 215.957286 
L 91.862068 217.058293 
L 96.114841 218.146384 
L 101.076409 219.182624 
L 106.746773 220.137803 
L 113.834727 221.087282 
L 122.340273 221.977348 
L 132.263409 222.778071 
L 144.312932 223.51884 
L 159.906432 224.235546 
L 178.335114 224.855436 
L 201.725364 225.422661 
L 231.494773 225.930632 
L 275.440091 226.432928 
L 334.270114 226.863237 
L 337.814091 226.883522 
L 337.814091 226.883522 
" style="fill:none;stroke:#ff7f0e;stroke-linecap:square;stroke-width:1.5;"/>
   </g>
   <g id="patch_15">
    <path d="M 40.12 252.344 
L 40.12 164.4624 
" style="fill:none;stroke:#000000;stroke-linecap:square;stroke-linejoin:miter;stroke-width:0.8;"/>
   </g>
   <g id="patch_16">
    <path d="M 351.99 252.344 
L 351.99 164.4624 
" style="fill:none;stroke:#000000;stroke-linecap:square;stroke-linejoin:miter;stroke-width:0.8;"/>
   </g>
   <g id="patch_17">
    <path d="M 40.12 252.344 
L 351.99 252.344 
" style="fill:none;stroke:#000000;stroke-linecap:square;stroke-linejoin:miter;stroke-width:0.8;"/>
   </g>
   <g id="patch_18">
    <path d="M 40.12 164.4624 
L 351.99 164.4624 
" style="fill:none;stroke:#000000;stroke-linecap:square;stroke-linejoin:miter;stroke-width:0.8;"/>
   </g>
   <g id="text_25">
    <!-- Risky Sh. Functions -->
    <defs>
     <path d="M 9.078125 75.984375 
L 18.109375 75.984375 
L 18.109375 31.109375 
L 44.921875 54.6875 
L 56.390625 54.6875 
L 27.390625 29.109375 
L 57.625 0 
L 45.90625 0 
L 18.109375 26.703125 
L 18.109375 0 
L 9.078125 0 
z
" id="DejaVuSans-107"/>
     <path d="M 32.171875 -5.078125 
Q 28.375 -14.84375 24.75 -17.8125 
Q 21.140625 -20.796875 15.09375 -20.796875 
L 7.90625 -20.796875 
L 7.90625 -13.28125 
L 13.1875 -13.28125 
Q 16.890625 -13.28125 18.9375 -11.515625 
Q 21 -9.765625 23.484375 -3.21875 
L 25.09375 0.875 
L 2.984375 54.6875 
L 12.5 54.6875 
L 29.59375 11.921875 
L 46.6875 54.6875 
L 56.203125 54.6875 
z
" id="DejaVuSans-121"/>
     <path d="M 53.515625 70.515625 
L 53.515625 60.890625 
Q 47.90625 63.578125 42.921875 64.890625 
Q 37.9375 66.21875 33.296875 66.21875 
Q 25.25 66.21875 20.875 63.09375 
Q 16.5 59.96875 16.5 54.203125 
Q 16.5 49.359375 19.40625 46.890625 
Q 22.3125 44.4375 30.421875 42.921875 
L 36.375 41.703125 
Q 47.40625 39.59375 52.65625 34.296875 
Q 57.90625 29 57.90625 20.125 
Q 57.90625 9.515625 50.796875 4.046875 
Q 43.703125 -1.421875 29.984375 -1.421875 
Q 24.8125 -1.421875 18.96875 -0.25 
Q 13.140625 0.921875 6.890625 3.21875 
L 6.890625 13.375 
Q 12.890625 10.015625 18.65625 8.296875 
Q 24.421875 6.59375 29.984375 6.59375 
Q 38.421875 6.59375 43.015625 9.90625 
Q 47.609375 13.234375 47.609375 19.390625 
Q 47.609375 24.75 44.3125 27.78125 
Q 41.015625 30.8125 33.5 32.328125 
L 27.484375 33.5 
Q 16.453125 35.6875 11.515625 40.375 
Q 6.59375 45.0625 6.59375 53.421875 
Q 6.59375 63.09375 13.40625 68.65625 
Q 20.21875 74.21875 32.171875 74.21875 
Q 37.3125 74.21875 42.625 73.28125 
Q 47.953125 72.359375 53.515625 70.515625 
z
" id="DejaVuSans-83"/>
     <path d="M 54.890625 33.015625 
L 54.890625 0 
L 45.90625 0 
L 45.90625 32.71875 
Q 45.90625 40.484375 42.875 44.328125 
Q 39.84375 48.1875 33.796875 48.1875 
Q 26.515625 48.1875 22.3125 43.546875 
Q 18.109375 38.921875 18.109375 30.90625 
L 18.109375 0 
L 9.078125 0 
L 9.078125 75.984375 
L 18.109375 75.984375 
L 18.109375 46.1875 
Q 21.34375 51.125 25.703125 53.5625 
Q 30.078125 56 35.796875 56 
Q 45.21875 56 50.046875 50.171875 
Q 54.890625 44.34375 54.890625 33.015625 
z
" id="DejaVuSans-104"/>
    </defs>
    <g transform="translate(137.769688 158.4624)scale(0.12 -0.12)">
     <use xlink:href="#DejaVuSans-82"/>
     <use x="69.482422" xlink:href="#DejaVuSans-105"/>
     <use x="97.265625" xlink:href="#DejaVuSans-115"/>
     <use x="149.365234" xlink:href="#DejaVuSans-107"/>
     <use x="207.228516" xlink:href="#DejaVuSans-121"/>
     <use x="266.408203" xlink:href="#DejaVuSans-32"/>
     <use x="298.195312" xlink:href="#DejaVuSans-83"/>
     <use x="361.671875" xlink:href="#DejaVuSans-104"/>
     <use x="425.050781" xlink:href="#DejaVuSans-46"/>
     <use x="456.837891" xlink:href="#DejaVuSans-32"/>
     <use x="488.625" xlink:href="#DejaVuSans-70"/>
     <use x="546.066406" xlink:href="#DejaVuSans-117"/>
     <use x="609.445312" xlink:href="#DejaVuSans-110"/>
     <use x="672.824219" xlink:href="#DejaVuSans-99"/>
     <use x="727.804688" xlink:href="#DejaVuSans-116"/>
     <use x="767.013672" xlink:href="#DejaVuSans-105"/>
     <use x="794.796875" xlink:href="#DejaVuSans-111"/>
     <use x="855.978516" xlink:href="#DejaVuSans-110"/>
     <use x="919.357422" xlink:href="#DejaVuSans-115"/>
    </g>
   </g>
   <g id="legend_3">
    <g id="patch_19">
     <path d="M 285.122813 201.81865 
L 344.99 201.81865 
Q 346.99 201.81865 346.99 199.81865 
L 346.99 171.4624 
Q 346.99 169.4624 344.99 169.4624 
L 285.122813 169.4624 
Q 283.122813 169.4624 283.122813 171.4624 
L 283.122813 199.81865 
Q 283.122813 201.81865 285.122813 201.81865 
z
" style="fill:#ffffff;opacity:0.8;stroke:#cccccc;stroke-linejoin:miter;"/>
    </g>
    <g id="line2d_86">
     <path d="M 287.122813 177.560837 
L 307.122813 177.560837 
" style="fill:none;stroke:#1f77b4;stroke-linecap:square;stroke-width:1.5;"/>
    </g>
    <g id="line2d_87"/>
    <g id="text_26">
     <!-- CGM -->
     <g transform="translate(315.122813 181.060837)scale(0.1 -0.1)">
      <use xlink:href="#DejaVuSans-67"/>
      <use x="69.824219" xlink:href="#DejaVuSans-71"/>
      <use x="147.314453" xlink:href="#DejaVuSans-77"/>
     </g>
    </g>
    <g id="line2d_88">
     <path d="M 287.122813 192.238962 
L 307.122813 192.238962 
" style="fill:none;stroke:#ff7f0e;stroke-linecap:square;stroke-width:1.5;"/>
    </g>
    <g id="line2d_89"/>
    <g id="text_27">
     <!-- HARK -->
     <g transform="translate(315.122813 195.738962)scale(0.1 -0.1)">
      <use xlink:href="#DejaVuSans-72"/>
      <use x="75.195312" xlink:href="#DejaVuSans-65"/>
      <use x="143.603516" xlink:href="#DejaVuSans-82"/>
      <use x="213.085938" xlink:href="#DejaVuSans-75"/>
     </g>
    </g>
   </g>
  </g>
  <g id="axes_4">
   <g id="patch_20">
    <path d="M 397.33 252.344 
L 709.2 252.344 
L 709.2 164.4624 
L 397.33 164.4624 
z
" style="fill:#ffffff;"/>
   </g>
   <g id="matplotlib.axis_7">
    <g id="xtick_28">
     <g id="line2d_90">
      <path clip-path="url(#p2cab569c0f)" d="M 408.670727 252.344 
L 408.670727 164.4624 
" style="fill:none;stroke:#b0b0b0;stroke-linecap:square;stroke-width:0.8;"/>
     </g>
     <g id="line2d_91">
      <g>
       <use style="stroke:#000000;stroke-width:0.8;" x="408.670727" xlink:href="#md8081cbe48" y="252.344"/>
      </g>
     </g>
     <g id="text_28">
      <!-- 0 -->
      <g transform="translate(405.489477 266.942437)scale(0.1 -0.1)">
       <use xlink:href="#DejaVuSans-48"/>
      </g>
     </g>
    </g>
    <g id="xtick_29">
     <g id="line2d_92">
      <path clip-path="url(#p2cab569c0f)" d="M 444.1105 252.344 
L 444.1105 164.4624 
" style="fill:none;stroke:#b0b0b0;stroke-linecap:square;stroke-width:0.8;"/>
     </g>
     <g id="line2d_93">
      <g>
       <use style="stroke:#000000;stroke-width:0.8;" x="444.1105" xlink:href="#md8081cbe48" y="252.344"/>
      </g>
     </g>
     <g id="text_29">
      <!-- 50 -->
      <g transform="translate(437.748 266.942437)scale(0.1 -0.1)">
       <use xlink:href="#DejaVuSans-53"/>
       <use x="63.623047" xlink:href="#DejaVuSans-48"/>
      </g>
     </g>
    </g>
    <g id="xtick_30">
     <g id="line2d_94">
      <path clip-path="url(#p2cab569c0f)" d="M 479.550273 252.344 
L 479.550273 164.4624 
" style="fill:none;stroke:#b0b0b0;stroke-linecap:square;stroke-width:0.8;"/>
     </g>
     <g id="line2d_95">
      <g>
       <use style="stroke:#000000;stroke-width:0.8;" x="479.550273" xlink:href="#md8081cbe48" y="252.344"/>
      </g>
     </g>
     <g id="text_30">
      <!-- 100 -->
      <g transform="translate(470.006523 266.942437)scale(0.1 -0.1)">
       <use xlink:href="#DejaVuSans-49"/>
       <use x="63.623047" xlink:href="#DejaVuSans-48"/>
       <use x="127.246094" xlink:href="#DejaVuSans-48"/>
      </g>
     </g>
    </g>
    <g id="xtick_31">
     <g id="line2d_96">
      <path clip-path="url(#p2cab569c0f)" d="M 514.990045 252.344 
L 514.990045 164.4624 
" style="fill:none;stroke:#b0b0b0;stroke-linecap:square;stroke-width:0.8;"/>
     </g>
     <g id="line2d_97">
      <g>
       <use style="stroke:#000000;stroke-width:0.8;" x="514.990045" xlink:href="#md8081cbe48" y="252.344"/>
      </g>
     </g>
     <g id="text_31">
      <!-- 150 -->
      <g transform="translate(505.446295 266.942437)scale(0.1 -0.1)">
       <use xlink:href="#DejaVuSans-49"/>
       <use x="63.623047" xlink:href="#DejaVuSans-53"/>
       <use x="127.246094" xlink:href="#DejaVuSans-48"/>
      </g>
     </g>
    </g>
    <g id="xtick_32">
     <g id="line2d_98">
      <path clip-path="url(#p2cab569c0f)" d="M 550.429818 252.344 
L 550.429818 164.4624 
" style="fill:none;stroke:#b0b0b0;stroke-linecap:square;stroke-width:0.8;"/>
     </g>
     <g id="line2d_99">
      <g>
       <use style="stroke:#000000;stroke-width:0.8;" x="550.429818" xlink:href="#md8081cbe48" y="252.344"/>
      </g>
     </g>
     <g id="text_32">
      <!-- 200 -->
      <g transform="translate(540.886068 266.942437)scale(0.1 -0.1)">
       <use xlink:href="#DejaVuSans-50"/>
       <use x="63.623047" xlink:href="#DejaVuSans-48"/>
       <use x="127.246094" xlink:href="#DejaVuSans-48"/>
      </g>
     </g>
    </g>
    <g id="xtick_33">
     <g id="line2d_100">
      <path clip-path="url(#p2cab569c0f)" d="M 585.869591 252.344 
L 585.869591 164.4624 
" style="fill:none;stroke:#b0b0b0;stroke-linecap:square;stroke-width:0.8;"/>
     </g>
     <g id="line2d_101">
      <g>
       <use style="stroke:#000000;stroke-width:0.8;" x="585.869591" xlink:href="#md8081cbe48" y="252.344"/>
      </g>
     </g>
     <g id="text_33">
      <!-- 250 -->
      <g transform="translate(576.325841 266.942437)scale(0.1 -0.1)">
       <use xlink:href="#DejaVuSans-50"/>
       <use x="63.623047" xlink:href="#DejaVuSans-53"/>
       <use x="127.246094" xlink:href="#DejaVuSans-48"/>
      </g>
     </g>
    </g>
    <g id="xtick_34">
     <g id="line2d_102">
      <path clip-path="url(#p2cab569c0f)" d="M 621.309364 252.344 
L 621.309364 164.4624 
" style="fill:none;stroke:#b0b0b0;stroke-linecap:square;stroke-width:0.8;"/>
     </g>
     <g id="line2d_103">
      <g>
       <use style="stroke:#000000;stroke-width:0.8;" x="621.309364" xlink:href="#md8081cbe48" y="252.344"/>
      </g>
     </g>
     <g id="text_34">
      <!-- 300 -->
      <g transform="translate(611.765614 266.942437)scale(0.1 -0.1)">
       <use xlink:href="#DejaVuSans-51"/>
       <use x="63.623047" xlink:href="#DejaVuSans-48"/>
       <use x="127.246094" xlink:href="#DejaVuSans-48"/>
      </g>
     </g>
    </g>
    <g id="xtick_35">
     <g id="line2d_104">
      <path clip-path="url(#p2cab569c0f)" d="M 656.749136 252.344 
L 656.749136 164.4624 
" style="fill:none;stroke:#b0b0b0;stroke-linecap:square;stroke-width:0.8;"/>
     </g>
     <g id="line2d_105">
      <g>
       <use style="stroke:#000000;stroke-width:0.8;" x="656.749136" xlink:href="#md8081cbe48" y="252.344"/>
      </g>
     </g>
     <g id="text_35">
      <!-- 350 -->
      <g transform="translate(647.205386 266.942437)scale(0.1 -0.1)">
       <use xlink:href="#DejaVuSans-51"/>
       <use x="63.623047" xlink:href="#DejaVuSans-53"/>
       <use x="127.246094" xlink:href="#DejaVuSans-48"/>
      </g>
     </g>
    </g>
    <g id="xtick_36">
     <g id="line2d_106">
      <path clip-path="url(#p2cab569c0f)" d="M 692.188909 252.344 
L 692.188909 164.4624 
" style="fill:none;stroke:#b0b0b0;stroke-linecap:square;stroke-width:0.8;"/>
     </g>
     <g id="line2d_107">
      <g>
       <use style="stroke:#000000;stroke-width:0.8;" x="692.188909" xlink:href="#md8081cbe48" y="252.344"/>
      </g>
     </g>
     <g id="text_36">
      <!-- 400 -->
      <g transform="translate(682.645159 266.942437)scale(0.1 -0.1)">
       <use xlink:href="#DejaVuSans-52"/>
       <use x="63.623047" xlink:href="#DejaVuSans-48"/>
       <use x="127.246094" xlink:href="#DejaVuSans-48"/>
      </g>
     </g>
    </g>
   </g>
   <g id="matplotlib.axis_8">
    <g id="ytick_11">
     <g id="line2d_108">
      <path clip-path="url(#p2cab569c0f)" d="M 397.33 248.349382 
L 709.2 248.349382 
" style="fill:none;stroke:#b0b0b0;stroke-linecap:square;stroke-width:0.8;"/>
     </g>
     <g id="line2d_109">
      <g>
       <use style="stroke:#000000;stroke-width:0.8;" x="397.33" xlink:href="#mc16a5b2779" y="248.349382"/>
      </g>
     </g>
     <g id="text_37">
      <!-- −1.0 -->
      <g transform="translate(366.047187 252.148601)scale(0.1 -0.1)">
       <use xlink:href="#DejaVuSans-8722"/>
       <use x="83.789062" xlink:href="#DejaVuSans-49"/>
       <use x="147.412109" xlink:href="#DejaVuSans-46"/>
       <use x="179.199219" xlink:href="#DejaVuSans-48"/>
      </g>
     </g>
    </g>
    <g id="ytick_12">
     <g id="line2d_110">
      <path clip-path="url(#p2cab569c0f)" d="M 397.33 223.720949 
L 709.2 223.720949 
" style="fill:none;stroke:#b0b0b0;stroke-linecap:square;stroke-width:0.8;"/>
     </g>
     <g id="line2d_111">
      <g>
       <use style="stroke:#000000;stroke-width:0.8;" x="397.33" xlink:href="#mc16a5b2779" y="223.720949"/>
      </g>
     </g>
     <g id="text_38">
      <!-- −0.5 -->
      <g transform="translate(366.047187 227.520168)scale(0.1 -0.1)">
       <use xlink:href="#DejaVuSans-8722"/>
       <use x="83.789062" xlink:href="#DejaVuSans-48"/>
       <use x="147.412109" xlink:href="#DejaVuSans-46"/>
       <use x="179.199219" xlink:href="#DejaVuSans-53"/>
      </g>
     </g>
    </g>
    <g id="ytick_13">
     <g id="line2d_112">
      <path clip-path="url(#p2cab569c0f)" d="M 397.33 199.092517 
L 709.2 199.092517 
" style="fill:none;stroke:#b0b0b0;stroke-linecap:square;stroke-width:0.8;"/>
     </g>
     <g id="line2d_113">
      <g>
       <use style="stroke:#000000;stroke-width:0.8;" x="397.33" xlink:href="#mc16a5b2779" y="199.092517"/>
      </g>
     </g>
     <g id="text_39">
      <!-- 0.0 -->
      <g transform="translate(374.426875 202.891735)scale(0.1 -0.1)">
       <use xlink:href="#DejaVuSans-48"/>
       <use x="63.623047" xlink:href="#DejaVuSans-46"/>
       <use x="95.410156" xlink:href="#DejaVuSans-48"/>
      </g>
     </g>
    </g>
    <g id="ytick_14">
     <g id="line2d_114">
      <path clip-path="url(#p2cab569c0f)" d="M 397.33 174.464084 
L 709.2 174.464084 
" style="fill:none;stroke:#b0b0b0;stroke-linecap:square;stroke-width:0.8;"/>
     </g>
     <g id="line2d_115">
      <g>
       <use style="stroke:#000000;stroke-width:0.8;" x="397.33" xlink:href="#mc16a5b2779" y="174.464084"/>
      </g>
     </g>
     <g id="text_40">
      <!-- 0.5 -->
      <g transform="translate(374.426875 178.263303)scale(0.1 -0.1)">
       <use xlink:href="#DejaVuSans-48"/>
       <use x="63.623047" xlink:href="#DejaVuSans-46"/>
       <use x="95.410156" xlink:href="#DejaVuSans-53"/>
      </g>
     </g>
    </g>
   </g>
   <g id="line2d_116">
    <path clip-path="url(#p2cab569c0f)" d="M 411.505909 248.349382 
L 415.758682 248.349382 
L 416.467477 247.614899 
L 417.885068 242.21356 
L 419.302659 238.134696 
L 420.72025 234.981389 
L 421.429045 184.410457 
L 422.846636 182.176426 
L 424.264227 180.349567 
L 425.681818 178.826295 
L 427.808205 176.965645 
L 429.934591 175.476656 
L 432.060977 174.257253 
L 434.896159 172.940768 
L 437.731341 171.881438 
L 441.275318 170.814586 
L 445.528091 169.806685 
L 450.489659 168.889081 
L 453.324841 168.457018 
L 454.033636 168.849589 
L 454.742432 169.73795 
L 455.451227 169.644248 
L 456.160023 170.045897 
L 456.868818 170.942752 
L 457.577614 170.856967 
L 461.830386 173.345891 
L 462.539182 173.275321 
L 465.374364 174.981599 
L 466.083159 174.919791 
L 467.50075 175.785511 
L 468.209545 175.728133 
L 469.627136 176.601915 
L 470.335932 176.548117 
L 471.753523 177.42925 
L 473.171114 177.329702 
L 474.588705 178.219514 
L 476.006295 178.128311 
L 476.715091 179.069619 
L 478.132682 178.984019 
L 478.841477 179.435013 
L 479.550273 179.394428 
L 480.259068 179.84713 
L 480.967864 179.808089 
L 481.676659 180.262366 
L 483.09425 180.18798 
L 484.511841 181.10151 
L 485.929432 181.032522 
L 486.638227 181.491741 
L 488.055818 181.426528 
L 488.764614 181.887055 
L 489.473409 181.856162 
L 490.182205 182.317953 
L 491.599795 182.25838 
L 492.308591 182.721719 
L 493.726182 182.664968 
L 494.434977 183.130152 
L 495.852568 183.076119 
L 496.561364 183.542554 
L 497.978955 183.4912 
L 498.68775 183.958699 
L 500.814136 183.885802 
L 501.522932 184.35486 
L 502.940523 184.30863 
L 503.649318 184.778803 
L 505.066909 184.734321 
L 505.775705 185.205563 
L 508.610886 185.122123 
L 509.319682 185.594345 
L 510.737273 185.555179 
L 511.446068 186.028195 
L 512.154864 186.009436 
L 512.863659 186.483246 
L 513.572455 185.971919 
L 514.28125 186.446428 
L 516.407636 186.393023 
L 517.116432 186.868393 
L 519.242818 186.817756 
L 519.951614 187.293865 
L 522.786795 187.230061 
L 523.495591 187.707106 
L 525.621977 187.661914 
L 526.330773 188.139876 
L 527.039568 187.632903 
L 527.748364 188.111067 
L 529.87475 188.069092 
L 530.583545 188.547892 
L 533.418727 188.494706 
L 534.127523 188.97419 
L 538.380295 188.899921 
L 539.089091 189.380485 
L 541.924273 189.334003 
L 542.633068 189.815111 
L 546.885841 189.749724 
L 547.594636 190.231857 
L 551.138614 190.18084 
L 551.847409 190.663456 
L 556.808977 190.596739 
L 557.517773 191.080264 
L 562.479341 191.018533 
L 563.188136 191.502485 
L 567.440909 191.453066 
L 568.149705 191.937821 
L 575.237659 191.861774 
L 575.946455 192.347197 
L 580.908023 192.298324 
L 581.616818 192.784164 
L 587.287182 192.731917 
L 587.995977 193.218089 
L 596.501523 193.146463 
L 597.210318 193.633257 
L 602.880682 193.589201 
L 603.589477 194.076564 
L 614.221409 194.001268 
L 614.930205 194.489153 
L 622.726955 194.438905 
L 623.43575 194.92701 
L 634.067682 194.864389 
L 634.776477 195.35294 
L 635.485273 194.856354 
L 636.194068 194.852337 
L 636.902864 195.3411 
L 644.699614 195.299879 
L 645.408409 195.788845 
L 658.875523 195.723911 
L 659.584318 196.213254 
L 670.21625 196.166801 
L 670.925045 196.656487 
L 672.342636 196.650723 
L 673.051432 196.155272 
L 673.760227 196.644958 
L 678.721795 196.625068 
L 679.430591 197.114914 
L 684.392159 197.095855 
L 687.227341 199.055664 
L 687.936136 199.053093 
L 694.315295 203.463276 
L 695.024091 203.460849 
L 695.024091 203.460849 
" style="fill:none;stroke:#1f77b4;stroke-linecap:square;stroke-width:1.5;"/>
   </g>
   <g id="patch_21">
    <path d="M 397.33 252.344 
L 397.33 164.4624 
" style="fill:none;stroke:#000000;stroke-linecap:square;stroke-linejoin:miter;stroke-width:0.8;"/>
   </g>
   <g id="patch_22">
    <path d="M 709.2 252.344 
L 709.2 164.4624 
" style="fill:none;stroke:#000000;stroke-linecap:square;stroke-linejoin:miter;stroke-width:0.8;"/>
   </g>
   <g id="patch_23">
    <path d="M 397.33 252.344 
L 709.2 252.344 
" style="fill:none;stroke:#000000;stroke-linecap:square;stroke-linejoin:miter;stroke-width:0.8;"/>
   </g>
   <g id="patch_24">
    <path d="M 397.33 164.4624 
L 709.2 164.4624 
" style="fill:none;stroke:#000000;stroke-linecap:square;stroke-linejoin:miter;stroke-width:0.8;"/>
   </g>
   <g id="text_41">
    <!-- Risky Sh. Difference -->
    <g transform="translate(492.795312 158.4624)scale(0.12 -0.12)">
     <use xlink:href="#DejaVuSans-82"/>
     <use x="69.482422" xlink:href="#DejaVuSans-105"/>
     <use x="97.265625" xlink:href="#DejaVuSans-115"/>
     <use x="149.365234" xlink:href="#DejaVuSans-107"/>
     <use x="207.228516" xlink:href="#DejaVuSans-121"/>
     <use x="266.408203" xlink:href="#DejaVuSans-32"/>
     <use x="298.195312" xlink:href="#DejaVuSans-83"/>
     <use x="361.671875" xlink:href="#DejaVuSans-104"/>
     <use x="425.050781" xlink:href="#DejaVuSans-46"/>
     <use x="456.837891" xlink:href="#DejaVuSans-32"/>
     <use x="488.625" xlink:href="#DejaVuSans-68"/>
     <use x="565.626953" xlink:href="#DejaVuSans-105"/>
     <use x="593.410156" xlink:href="#DejaVuSans-102"/>
     <use x="628.615234" xlink:href="#DejaVuSans-102"/>
     <use x="663.820312" xlink:href="#DejaVuSans-101"/>
     <use x="725.34375" xlink:href="#DejaVuSans-114"/>
     <use x="766.425781" xlink:href="#DejaVuSans-101"/>
     <use x="827.949219" xlink:href="#DejaVuSans-110"/>
     <use x="891.328125" xlink:href="#DejaVuSans-99"/>
     <use x="946.308594" xlink:href="#DejaVuSans-101"/>
    </g>
   </g>
   <g id="legend_4">
    <g id="patch_25">
     <path d="M 609.009375 187.140525 
L 702.2 187.140525 
Q 704.2 187.140525 704.2 185.140525 
L 704.2 171.4624 
Q 704.2 169.4624 702.2 169.4624 
L 609.009375 169.4624 
Q 607.009375 169.4624 607.009375 171.4624 
L 607.009375 185.140525 
Q 607.009375 187.140525 609.009375 187.140525 
z
" style="fill:#ffffff;opacity:0.8;stroke:#cccccc;stroke-linejoin:miter;"/>
    </g>
    <g id="line2d_117">
     <path d="M 611.009375 177.560837 
L 631.009375 177.560837 
" style="fill:none;stroke:#1f77b4;stroke-linecap:square;stroke-width:1.5;"/>
    </g>
    <g id="line2d_118"/>
    <g id="text_42">
     <!-- CGM - HARK -->
     <g transform="translate(639.009375 181.060837)scale(0.1 -0.1)">
      <use xlink:href="#DejaVuSans-67"/>
      <use x="69.824219" xlink:href="#DejaVuSans-71"/>
      <use x="147.314453" xlink:href="#DejaVuSans-77"/>
      <use x="233.59375" xlink:href="#DejaVuSans-32"/>
      <use x="265.380859" xlink:href="#DejaVuSans-45"/>
      <use x="301.464844" xlink:href="#DejaVuSans-32"/>
      <use x="333.251953" xlink:href="#DejaVuSans-72"/>
      <use x="408.447266" xlink:href="#DejaVuSans-65"/>
      <use x="476.855469" xlink:href="#DejaVuSans-82"/>
      <use x="546.337891" xlink:href="#DejaVuSans-75"/>
     </g>
    </g>
   </g>
  </g>
  <g id="text_43">
   <!-- Year 78 -->
   <defs>
    <path d="M -0.203125 72.90625 
L 10.40625 72.90625 
L 30.609375 42.921875 
L 50.6875 72.90625 
L 61.28125 72.90625 
L 35.5 34.71875 
L 35.5 0 
L 25.59375 0 
L 25.59375 34.71875 
z
" id="DejaVuSans-89"/>
    <path d="M 34.28125 27.484375 
Q 23.390625 27.484375 19.1875 25 
Q 14.984375 22.515625 14.984375 16.5 
Q 14.984375 11.71875 18.140625 8.90625 
Q 21.296875 6.109375 26.703125 6.109375 
Q 34.1875 6.109375 38.703125 11.40625 
Q 43.21875 16.703125 43.21875 25.484375 
L 43.21875 27.484375 
z
M 52.203125 31.203125 
L 52.203125 0 
L 43.21875 0 
L 43.21875 8.296875 
Q 40.140625 3.328125 35.546875 0.953125 
Q 30.953125 -1.421875 24.3125 -1.421875 
Q 15.921875 -1.421875 10.953125 3.296875 
Q 6 8.015625 6 15.921875 
Q 6 25.140625 12.171875 29.828125 
Q 18.359375 34.515625 30.609375 34.515625 
L 43.21875 34.515625 
L 43.21875 35.40625 
Q 43.21875 41.609375 39.140625 45 
Q 35.0625 48.390625 27.6875 48.390625 
Q 23 48.390625 18.546875 47.265625 
Q 14.109375 46.140625 10.015625 43.890625 
L 10.015625 52.203125 
Q 14.9375 54.109375 19.578125 55.046875 
Q 24.21875 56 28.609375 56 
Q 40.484375 56 46.34375 49.84375 
Q 52.203125 43.703125 52.203125 31.203125 
z
" id="DejaVuSans-97"/>
    <path d="M 8.203125 72.90625 
L 55.078125 72.90625 
L 55.078125 68.703125 
L 28.609375 0 
L 18.3125 0 
L 43.21875 64.59375 
L 8.203125 64.59375 
z
" id="DejaVuSans-55"/>
    <path d="M 31.78125 34.625 
Q 24.75 34.625 20.71875 30.859375 
Q 16.703125 27.09375 16.703125 20.515625 
Q 16.703125 13.921875 20.71875 10.15625 
Q 24.75 6.390625 31.78125 6.390625 
Q 38.8125 6.390625 42.859375 10.171875 
Q 46.921875 13.96875 46.921875 20.515625 
Q 46.921875 27.09375 42.890625 30.859375 
Q 38.875 34.625 31.78125 34.625 
z
M 21.921875 38.8125 
Q 15.578125 40.375 12.03125 44.71875 
Q 8.5 49.078125 8.5 55.328125 
Q 8.5 64.0625 14.71875 69.140625 
Q 20.953125 74.21875 31.78125 74.21875 
Q 42.671875 74.21875 48.875 69.140625 
Q 55.078125 64.0625 55.078125 55.328125 
Q 55.078125 49.078125 51.53125 44.71875 
Q 48 40.375 41.703125 38.8125 
Q 48.828125 37.15625 52.796875 32.3125 
Q 56.78125 27.484375 56.78125 20.515625 
Q 56.78125 9.90625 50.3125 4.234375 
Q 43.84375 -1.421875 31.78125 -1.421875 
Q 19.734375 -1.421875 13.25 4.234375 
Q 6.78125 9.90625 6.78125 20.515625 
Q 6.78125 27.484375 10.78125 32.3125 
Q 14.796875 37.15625 21.921875 38.8125 
z
M 18.3125 54.390625 
Q 18.3125 48.734375 21.84375 45.5625 
Q 25.390625 42.390625 31.78125 42.390625 
Q 38.140625 42.390625 41.71875 45.5625 
Q 45.3125 48.734375 45.3125 54.390625 
Q 45.3125 60.0625 41.71875 63.234375 
Q 38.140625 66.40625 31.78125 66.40625 
Q 25.390625 66.40625 21.84375 63.234375 
Q 18.3125 60.0625 18.3125 54.390625 
z
" id="DejaVuSans-56"/>
   </defs>
   <g transform="translate(336.970312 14.878125)scale(0.12 -0.12)">
    <use xlink:href="#DejaVuSans-89"/>
    <use x="60.880859" xlink:href="#DejaVuSans-101"/>
    <use x="122.404297" xlink:href="#DejaVuSans-97"/>
    <use x="183.683594" xlink:href="#DejaVuSans-114"/>
    <use x="224.796875" xlink:href="#DejaVuSans-32"/>
    <use x="256.583984" xlink:href="#DejaVuSans-55"/>
    <use x="320.207031" xlink:href="#DejaVuSans-56"/>
   </g>
  </g>
 </g>
 <defs>
  <clipPath id="p8ba1043652">
   <rect height="87.8816" width="311.87" x="40.12" y="32.64"/>
  </clipPath>
  <clipPath id="p751ba5d3a0">
   <rect height="87.8816" width="311.87" x="397.33" y="32.64"/>
  </clipPath>
  <clipPath id="pbac16dd9e4">
   <rect height="87.8816" width="311.87" x="40.12" y="164.4624"/>
  </clipPath>
  <clipPath id="p2cab569c0f">
   <rect height="87.8816" width="311.87" x="397.33" y="164.4624"/>
  </clipPath>
 </defs>
</svg>
