<?xml version="1.0" encoding="utf-8" standalone="no"?>
<!DOCTYPE svg PUBLIC "-//W3C//DTD SVG 1.1//EN"
  "http://www.w3.org/Graphics/SVG/1.1/DTD/svg11.dtd">
<!-- Created with matplotlib (https://matplotlib.org/) -->
<svg height="345.6pt" version="1.1" viewBox="0 0 460.8 345.6" width="460.8pt" xmlns="http://www.w3.org/2000/svg" xmlns:xlink="http://www.w3.org/1999/xlink">
 <defs>
  <style type="text/css">
*{stroke-linecap:butt;stroke-linejoin:round;}
  </style>
 </defs>
 <g id="figure_1">
  <g id="patch_1">
   <path d="M 0 345.6 
L 460.8 345.6 
L 460.8 0 
L 0 0 
z
" style="fill:#ffffff;"/>
  </g>
  <g id="axes_1">
   <g id="patch_2">
    <path d="M 57.6 307.584 
L 414.72 307.584 
L 414.72 41.472 
L 57.6 41.472 
z
" style="fill:#ffffff;"/>
   </g>
   <g id="matplotlib.axis_1">
    <g id="xtick_1">
     <g id="line2d_1">
      <path clip-path="url(#p13ce199b9d)" d="M 113.702584 307.584 
L 113.702584 41.472 
" style="fill:none;stroke:#b0b0b0;stroke-linecap:square;stroke-width:0.8;"/>
     </g>
     <g id="line2d_2">
      <defs>
       <path d="M 0 0 
L 0 3.5 
" id="m3d961e56d3" style="stroke:#000000;stroke-width:0.8;"/>
      </defs>
      <g>
       <use style="stroke:#000000;stroke-width:0.8;" x="113.702584" xlink:href="#m3d961e56d3" y="307.584"/>
      </g>
     </g>
     <g id="text_1">
      <!-- 30 -->
      <defs>
       <path d="M 40.578125 39.3125 
Q 47.65625 37.796875 51.625 33 
Q 55.609375 28.21875 55.609375 21.1875 
Q 55.609375 10.40625 48.1875 4.484375 
Q 40.765625 -1.421875 27.09375 -1.421875 
Q 22.515625 -1.421875 17.65625 -0.515625 
Q 12.796875 0.390625 7.625 2.203125 
L 7.625 11.71875 
Q 11.71875 9.328125 16.59375 8.109375 
Q 21.484375 6.890625 26.8125 6.890625 
Q 36.078125 6.890625 40.9375 10.546875 
Q 45.796875 14.203125 45.796875 21.1875 
Q 45.796875 27.640625 41.28125 31.265625 
Q 36.765625 34.90625 28.71875 34.90625 
L 20.21875 34.90625 
L 20.21875 43.015625 
L 29.109375 43.015625 
Q 36.375 43.015625 40.234375 45.921875 
Q 44.09375 48.828125 44.09375 54.296875 
Q 44.09375 59.90625 40.109375 62.90625 
Q 36.140625 65.921875 28.71875 65.921875 
Q 24.65625 65.921875 20.015625 65.03125 
Q 15.375 64.15625 9.8125 62.3125 
L 9.8125 71.09375 
Q 15.4375 72.65625 20.34375 73.4375 
Q 25.25 74.21875 29.59375 74.21875 
Q 40.828125 74.21875 47.359375 69.109375 
Q 53.90625 64.015625 53.90625 55.328125 
Q 53.90625 49.265625 50.4375 45.09375 
Q 46.96875 40.921875 40.578125 39.3125 
z
" id="DejaVuSans-51"/>
       <path d="M 31.78125 66.40625 
Q 24.171875 66.40625 20.328125 58.90625 
Q 16.5 51.421875 16.5 36.375 
Q 16.5 21.390625 20.328125 13.890625 
Q 24.171875 6.390625 31.78125 6.390625 
Q 39.453125 6.390625 43.28125 13.890625 
Q 47.125 21.390625 47.125 36.375 
Q 47.125 51.421875 43.28125 58.90625 
Q 39.453125 66.40625 31.78125 66.40625 
z
M 31.78125 74.21875 
Q 44.046875 74.21875 50.515625 64.515625 
Q 56.984375 54.828125 56.984375 36.375 
Q 56.984375 17.96875 50.515625 8.265625 
Q 44.046875 -1.421875 31.78125 -1.421875 
Q 19.53125 -1.421875 13.0625 8.265625 
Q 6.59375 17.96875 6.59375 36.375 
Q 6.59375 54.828125 13.0625 64.515625 
Q 19.53125 74.21875 31.78125 74.21875 
z
" id="DejaVuSans-48"/>
      </defs>
      <g transform="translate(107.340084 322.182437)scale(0.1 -0.1)">
       <use xlink:href="#DejaVuSans-51"/>
       <use x="63.623047" xlink:href="#DejaVuSans-48"/>
      </g>
     </g>
    </g>
    <g id="xtick_2">
     <g id="line2d_3">
      <path clip-path="url(#p13ce199b9d)" d="M 170.659522 307.584 
L 170.659522 41.472 
" style="fill:none;stroke:#b0b0b0;stroke-linecap:square;stroke-width:0.8;"/>
     </g>
     <g id="line2d_4">
      <g>
       <use style="stroke:#000000;stroke-width:0.8;" x="170.659522" xlink:href="#m3d961e56d3" y="307.584"/>
      </g>
     </g>
     <g id="text_2">
      <!-- 40 -->
      <defs>
       <path d="M 37.796875 64.3125 
L 12.890625 25.390625 
L 37.796875 25.390625 
z
M 35.203125 72.90625 
L 47.609375 72.90625 
L 47.609375 25.390625 
L 58.015625 25.390625 
L 58.015625 17.1875 
L 47.609375 17.1875 
L 47.609375 0 
L 37.796875 0 
L 37.796875 17.1875 
L 4.890625 17.1875 
L 4.890625 26.703125 
z
" id="DejaVuSans-52"/>
      </defs>
      <g transform="translate(164.297022 322.182437)scale(0.1 -0.1)">
       <use xlink:href="#DejaVuSans-52"/>
       <use x="63.623047" xlink:href="#DejaVuSans-48"/>
      </g>
     </g>
    </g>
    <g id="xtick_3">
     <g id="line2d_5">
      <path clip-path="url(#p13ce199b9d)" d="M 227.616459 307.584 
L 227.616459 41.472 
" style="fill:none;stroke:#b0b0b0;stroke-linecap:square;stroke-width:0.8;"/>
     </g>
     <g id="line2d_6">
      <g>
       <use style="stroke:#000000;stroke-width:0.8;" x="227.616459" xlink:href="#m3d961e56d3" y="307.584"/>
      </g>
     </g>
     <g id="text_3">
      <!-- 50 -->
      <defs>
       <path d="M 10.796875 72.90625 
L 49.515625 72.90625 
L 49.515625 64.59375 
L 19.828125 64.59375 
L 19.828125 46.734375 
Q 21.96875 47.46875 24.109375 47.828125 
Q 26.265625 48.1875 28.421875 48.1875 
Q 40.625 48.1875 47.75 41.5 
Q 54.890625 34.8125 54.890625 23.390625 
Q 54.890625 11.625 47.5625 5.09375 
Q 40.234375 -1.421875 26.90625 -1.421875 
Q 22.3125 -1.421875 17.546875 -0.640625 
Q 12.796875 0.140625 7.71875 1.703125 
L 7.71875 11.625 
Q 12.109375 9.234375 16.796875 8.0625 
Q 21.484375 6.890625 26.703125 6.890625 
Q 35.15625 6.890625 40.078125 11.328125 
Q 45.015625 15.765625 45.015625 23.390625 
Q 45.015625 31 40.078125 35.4375 
Q 35.15625 39.890625 26.703125 39.890625 
Q 22.75 39.890625 18.8125 39.015625 
Q 14.890625 38.140625 10.796875 36.28125 
z
" id="DejaVuSans-53"/>
      </defs>
      <g transform="translate(221.253959 322.182437)scale(0.1 -0.1)">
       <use xlink:href="#DejaVuSans-53"/>
       <use x="63.623047" xlink:href="#DejaVuSans-48"/>
      </g>
     </g>
    </g>
    <g id="xtick_4">
     <g id="line2d_7">
      <path clip-path="url(#p13ce199b9d)" d="M 284.573397 307.584 
L 284.573397 41.472 
" style="fill:none;stroke:#b0b0b0;stroke-linecap:square;stroke-width:0.8;"/>
     </g>
     <g id="line2d_8">
      <g>
       <use style="stroke:#000000;stroke-width:0.8;" x="284.573397" xlink:href="#m3d961e56d3" y="307.584"/>
      </g>
     </g>
     <g id="text_4">
      <!-- 60 -->
      <defs>
       <path d="M 33.015625 40.375 
Q 26.375 40.375 22.484375 35.828125 
Q 18.609375 31.296875 18.609375 23.390625 
Q 18.609375 15.53125 22.484375 10.953125 
Q 26.375 6.390625 33.015625 6.390625 
Q 39.65625 6.390625 43.53125 10.953125 
Q 47.40625 15.53125 47.40625 23.390625 
Q 47.40625 31.296875 43.53125 35.828125 
Q 39.65625 40.375 33.015625 40.375 
z
M 52.59375 71.296875 
L 52.59375 62.3125 
Q 48.875 64.0625 45.09375 64.984375 
Q 41.3125 65.921875 37.59375 65.921875 
Q 27.828125 65.921875 22.671875 59.328125 
Q 17.53125 52.734375 16.796875 39.40625 
Q 19.671875 43.65625 24.015625 45.921875 
Q 28.375 48.1875 33.59375 48.1875 
Q 44.578125 48.1875 50.953125 41.515625 
Q 57.328125 34.859375 57.328125 23.390625 
Q 57.328125 12.15625 50.6875 5.359375 
Q 44.046875 -1.421875 33.015625 -1.421875 
Q 20.359375 -1.421875 13.671875 8.265625 
Q 6.984375 17.96875 6.984375 36.375 
Q 6.984375 53.65625 15.1875 63.9375 
Q 23.390625 74.21875 37.203125 74.21875 
Q 40.921875 74.21875 44.703125 73.484375 
Q 48.484375 72.75 52.59375 71.296875 
z
" id="DejaVuSans-54"/>
      </defs>
      <g transform="translate(278.210897 322.182437)scale(0.1 -0.1)">
       <use xlink:href="#DejaVuSans-54"/>
       <use x="63.623047" xlink:href="#DejaVuSans-48"/>
      </g>
     </g>
    </g>
    <g id="xtick_5">
     <g id="line2d_9">
      <path clip-path="url(#p13ce199b9d)" d="M 341.530335 307.584 
L 341.530335 41.472 
" style="fill:none;stroke:#b0b0b0;stroke-linecap:square;stroke-width:0.8;"/>
     </g>
     <g id="line2d_10">
      <g>
       <use style="stroke:#000000;stroke-width:0.8;" x="341.530335" xlink:href="#m3d961e56d3" y="307.584"/>
      </g>
     </g>
     <g id="text_5">
      <!-- 70 -->
      <defs>
       <path d="M 8.203125 72.90625 
L 55.078125 72.90625 
L 55.078125 68.703125 
L 28.609375 0 
L 18.3125 0 
L 43.21875 64.59375 
L 8.203125 64.59375 
z
" id="DejaVuSans-55"/>
      </defs>
      <g transform="translate(335.167835 322.182437)scale(0.1 -0.1)">
       <use xlink:href="#DejaVuSans-55"/>
       <use x="63.623047" xlink:href="#DejaVuSans-48"/>
      </g>
     </g>
    </g>
    <g id="xtick_6">
     <g id="line2d_11">
      <path clip-path="url(#p13ce199b9d)" d="M 398.487273 307.584 
L 398.487273 41.472 
" style="fill:none;stroke:#b0b0b0;stroke-linecap:square;stroke-width:0.8;"/>
     </g>
     <g id="line2d_12">
      <g>
       <use style="stroke:#000000;stroke-width:0.8;" x="398.487273" xlink:href="#m3d961e56d3" y="307.584"/>
      </g>
     </g>
     <g id="text_6">
      <!-- 80 -->
      <defs>
       <path d="M 31.78125 34.625 
Q 24.75 34.625 20.71875 30.859375 
Q 16.703125 27.09375 16.703125 20.515625 
Q 16.703125 13.921875 20.71875 10.15625 
Q 24.75 6.390625 31.78125 6.390625 
Q 38.8125 6.390625 42.859375 10.171875 
Q 46.921875 13.96875 46.921875 20.515625 
Q 46.921875 27.09375 42.890625 30.859375 
Q 38.875 34.625 31.78125 34.625 
z
M 21.921875 38.8125 
Q 15.578125 40.375 12.03125 44.71875 
Q 8.5 49.078125 8.5 55.328125 
Q 8.5 64.0625 14.71875 69.140625 
Q 20.953125 74.21875 31.78125 74.21875 
Q 42.671875 74.21875 48.875 69.140625 
Q 55.078125 64.0625 55.078125 55.328125 
Q 55.078125 49.078125 51.53125 44.71875 
Q 48 40.375 41.703125 38.8125 
Q 48.828125 37.15625 52.796875 32.3125 
Q 56.78125 27.484375 56.78125 20.515625 
Q 56.78125 9.90625 50.3125 4.234375 
Q 43.84375 -1.421875 31.78125 -1.421875 
Q 19.734375 -1.421875 13.25 4.234375 
Q 6.78125 9.90625 6.78125 20.515625 
Q 6.78125 27.484375 10.78125 32.3125 
Q 14.796875 37.15625 21.921875 38.8125 
z
M 18.3125 54.390625 
Q 18.3125 48.734375 21.84375 45.5625 
Q 25.390625 42.390625 31.78125 42.390625 
Q 38.140625 42.390625 41.71875 45.5625 
Q 45.3125 48.734375 45.3125 54.390625 
Q 45.3125 60.0625 41.71875 63.234375 
Q 38.140625 66.40625 31.78125 66.40625 
Q 25.390625 66.40625 21.84375 63.234375 
Q 18.3125 60.0625 18.3125 54.390625 
z
" id="DejaVuSans-56"/>
      </defs>
      <g transform="translate(392.124773 322.182437)scale(0.1 -0.1)">
       <use xlink:href="#DejaVuSans-56"/>
       <use x="63.623047" xlink:href="#DejaVuSans-48"/>
      </g>
     </g>
    </g>
    <g id="text_7">
     <!-- Age -->
     <defs>
      <path d="M 34.1875 63.1875 
L 20.796875 26.90625 
L 47.609375 26.90625 
z
M 28.609375 72.90625 
L 39.796875 72.90625 
L 67.578125 0 
L 57.328125 0 
L 50.6875 18.703125 
L 17.828125 18.703125 
L 11.1875 0 
L 0.78125 0 
z
" id="DejaVuSans-65"/>
      <path d="M 45.40625 27.984375 
Q 45.40625 37.75 41.375 43.109375 
Q 37.359375 48.484375 30.078125 48.484375 
Q 22.859375 48.484375 18.828125 43.109375 
Q 14.796875 37.75 14.796875 27.984375 
Q 14.796875 18.265625 18.828125 12.890625 
Q 22.859375 7.515625 30.078125 7.515625 
Q 37.359375 7.515625 41.375 12.890625 
Q 45.40625 18.265625 45.40625 27.984375 
z
M 54.390625 6.78125 
Q 54.390625 -7.171875 48.1875 -13.984375 
Q 42 -20.796875 29.203125 -20.796875 
Q 24.46875 -20.796875 20.265625 -20.09375 
Q 16.0625 -19.390625 12.109375 -17.921875 
L 12.109375 -9.1875 
Q 16.0625 -11.328125 19.921875 -12.34375 
Q 23.78125 -13.375 27.78125 -13.375 
Q 36.625 -13.375 41.015625 -8.765625 
Q 45.40625 -4.15625 45.40625 5.171875 
L 45.40625 9.625 
Q 42.625 4.78125 38.28125 2.390625 
Q 33.9375 0 27.875 0 
Q 17.828125 0 11.671875 7.65625 
Q 5.515625 15.328125 5.515625 27.984375 
Q 5.515625 40.671875 11.671875 48.328125 
Q 17.828125 56 27.875 56 
Q 33.9375 56 38.28125 53.609375 
Q 42.625 51.21875 45.40625 46.390625 
L 45.40625 54.6875 
L 54.390625 54.6875 
z
" id="DejaVuSans-103"/>
      <path d="M 56.203125 29.59375 
L 56.203125 25.203125 
L 14.890625 25.203125 
Q 15.484375 15.921875 20.484375 11.0625 
Q 25.484375 6.203125 34.421875 6.203125 
Q 39.59375 6.203125 44.453125 7.46875 
Q 49.3125 8.734375 54.109375 11.28125 
L 54.109375 2.78125 
Q 49.265625 0.734375 44.1875 -0.34375 
Q 39.109375 -1.421875 33.890625 -1.421875 
Q 20.796875 -1.421875 13.15625 6.1875 
Q 5.515625 13.8125 5.515625 26.8125 
Q 5.515625 40.234375 12.765625 48.109375 
Q 20.015625 56 32.328125 56 
Q 43.359375 56 49.78125 48.890625 
Q 56.203125 41.796875 56.203125 29.59375 
z
M 47.21875 32.234375 
Q 47.125 39.59375 43.09375 43.984375 
Q 39.0625 48.390625 32.421875 48.390625 
Q 24.90625 48.390625 20.390625 44.140625 
Q 15.875 39.890625 15.1875 32.171875 
z
" id="DejaVuSans-101"/>
     </defs>
     <g transform="translate(226.488906 335.860562)scale(0.1 -0.1)">
      <use xlink:href="#DejaVuSans-65"/>
      <use x="68.408203" xlink:href="#DejaVuSans-103"/>
      <use x="131.884766" xlink:href="#DejaVuSans-101"/>
     </g>
    </g>
   </g>
   <g id="matplotlib.axis_2">
    <g id="ytick_1">
     <g id="line2d_13">
      <path clip-path="url(#p13ce199b9d)" d="M 57.6 291.810241 
L 414.72 291.810241 
" style="fill:none;stroke:#b0b0b0;stroke-linecap:square;stroke-width:0.8;"/>
     </g>
     <g id="line2d_14">
      <defs>
       <path d="M 0 0 
L -3.5 0 
" id="m3ea110a5b4" style="stroke:#000000;stroke-width:0.8;"/>
      </defs>
      <g>
       <use style="stroke:#000000;stroke-width:0.8;" x="57.6" xlink:href="#m3ea110a5b4" y="291.810241"/>
      </g>
     </g>
     <g id="text_8">
      <!-- 0.4 -->
      <defs>
       <path d="M 10.6875 12.40625 
L 21 12.40625 
L 21 0 
L 10.6875 0 
z
" id="DejaVuSans-46"/>
      </defs>
      <g transform="translate(34.696875 295.60946)scale(0.1 -0.1)">
       <use xlink:href="#DejaVuSans-48"/>
       <use x="63.623047" xlink:href="#DejaVuSans-46"/>
       <use x="95.410156" xlink:href="#DejaVuSans-52"/>
      </g>
     </g>
    </g>
    <g id="ytick_2">
     <g id="line2d_15">
      <path clip-path="url(#p13ce199b9d)" d="M 57.6 252.103201 
L 414.72 252.103201 
" style="fill:none;stroke:#b0b0b0;stroke-linecap:square;stroke-width:0.8;"/>
     </g>
     <g id="line2d_16">
      <g>
       <use style="stroke:#000000;stroke-width:0.8;" x="57.6" xlink:href="#m3ea110a5b4" y="252.103201"/>
      </g>
     </g>
     <g id="text_9">
      <!-- 0.5 -->
      <g transform="translate(34.696875 255.90242)scale(0.1 -0.1)">
       <use xlink:href="#DejaVuSans-48"/>
       <use x="63.623047" xlink:href="#DejaVuSans-46"/>
       <use x="95.410156" xlink:href="#DejaVuSans-53"/>
      </g>
     </g>
    </g>
    <g id="ytick_3">
     <g id="line2d_17">
      <path clip-path="url(#p13ce199b9d)" d="M 57.6 212.396161 
L 414.72 212.396161 
" style="fill:none;stroke:#b0b0b0;stroke-linecap:square;stroke-width:0.8;"/>
     </g>
     <g id="line2d_18">
      <g>
       <use style="stroke:#000000;stroke-width:0.8;" x="57.6" xlink:href="#m3ea110a5b4" y="212.396161"/>
      </g>
     </g>
     <g id="text_10">
      <!-- 0.6 -->
      <g transform="translate(34.696875 216.19538)scale(0.1 -0.1)">
       <use xlink:href="#DejaVuSans-48"/>
       <use x="63.623047" xlink:href="#DejaVuSans-46"/>
       <use x="95.410156" xlink:href="#DejaVuSans-54"/>
      </g>
     </g>
    </g>
    <g id="ytick_4">
     <g id="line2d_19">
      <path clip-path="url(#p13ce199b9d)" d="M 57.6 172.689121 
L 414.72 172.689121 
" style="fill:none;stroke:#b0b0b0;stroke-linecap:square;stroke-width:0.8;"/>
     </g>
     <g id="line2d_20">
      <g>
       <use style="stroke:#000000;stroke-width:0.8;" x="57.6" xlink:href="#m3ea110a5b4" y="172.689121"/>
      </g>
     </g>
     <g id="text_11">
      <!-- 0.7 -->
      <g transform="translate(34.696875 176.488339)scale(0.1 -0.1)">
       <use xlink:href="#DejaVuSans-48"/>
       <use x="63.623047" xlink:href="#DejaVuSans-46"/>
       <use x="95.410156" xlink:href="#DejaVuSans-55"/>
      </g>
     </g>
    </g>
    <g id="ytick_5">
     <g id="line2d_21">
      <path clip-path="url(#p13ce199b9d)" d="M 57.6 132.98208 
L 414.72 132.98208 
" style="fill:none;stroke:#b0b0b0;stroke-linecap:square;stroke-width:0.8;"/>
     </g>
     <g id="line2d_22">
      <g>
       <use style="stroke:#000000;stroke-width:0.8;" x="57.6" xlink:href="#m3ea110a5b4" y="132.98208"/>
      </g>
     </g>
     <g id="text_12">
      <!-- 0.8 -->
      <g transform="translate(34.696875 136.781299)scale(0.1 -0.1)">
       <use xlink:href="#DejaVuSans-48"/>
       <use x="63.623047" xlink:href="#DejaVuSans-46"/>
       <use x="95.410156" xlink:href="#DejaVuSans-56"/>
      </g>
     </g>
    </g>
    <g id="ytick_6">
     <g id="line2d_23">
      <path clip-path="url(#p13ce199b9d)" d="M 57.6 93.27504 
L 414.72 93.27504 
" style="fill:none;stroke:#b0b0b0;stroke-linecap:square;stroke-width:0.8;"/>
     </g>
     <g id="line2d_24">
      <g>
       <use style="stroke:#000000;stroke-width:0.8;" x="57.6" xlink:href="#m3ea110a5b4" y="93.27504"/>
      </g>
     </g>
     <g id="text_13">
      <!-- 0.9 -->
      <defs>
       <path d="M 10.984375 1.515625 
L 10.984375 10.5 
Q 14.703125 8.734375 18.5 7.8125 
Q 22.3125 6.890625 25.984375 6.890625 
Q 35.75 6.890625 40.890625 13.453125 
Q 46.046875 20.015625 46.78125 33.40625 
Q 43.953125 29.203125 39.59375 26.953125 
Q 35.25 24.703125 29.984375 24.703125 
Q 19.046875 24.703125 12.671875 31.3125 
Q 6.296875 37.9375 6.296875 49.421875 
Q 6.296875 60.640625 12.9375 67.421875 
Q 19.578125 74.21875 30.609375 74.21875 
Q 43.265625 74.21875 49.921875 64.515625 
Q 56.59375 54.828125 56.59375 36.375 
Q 56.59375 19.140625 48.40625 8.859375 
Q 40.234375 -1.421875 26.421875 -1.421875 
Q 22.703125 -1.421875 18.890625 -0.6875 
Q 15.09375 0.046875 10.984375 1.515625 
z
M 30.609375 32.421875 
Q 37.25 32.421875 41.125 36.953125 
Q 45.015625 41.5 45.015625 49.421875 
Q 45.015625 57.28125 41.125 61.84375 
Q 37.25 66.40625 30.609375 66.40625 
Q 23.96875 66.40625 20.09375 61.84375 
Q 16.21875 57.28125 16.21875 49.421875 
Q 16.21875 41.5 20.09375 36.953125 
Q 23.96875 32.421875 30.609375 32.421875 
z
" id="DejaVuSans-57"/>
      </defs>
      <g transform="translate(34.696875 97.074259)scale(0.1 -0.1)">
       <use xlink:href="#DejaVuSans-48"/>
       <use x="63.623047" xlink:href="#DejaVuSans-46"/>
       <use x="95.410156" xlink:href="#DejaVuSans-57"/>
      </g>
     </g>
    </g>
    <g id="ytick_7">
     <g id="line2d_25">
      <path clip-path="url(#p13ce199b9d)" d="M 57.6 53.568 
L 414.72 53.568 
" style="fill:none;stroke:#b0b0b0;stroke-linecap:square;stroke-width:0.8;"/>
     </g>
     <g id="line2d_26">
      <g>
       <use style="stroke:#000000;stroke-width:0.8;" x="57.6" xlink:href="#m3ea110a5b4" y="53.568"/>
      </g>
     </g>
     <g id="text_14">
      <!-- 1.0 -->
      <defs>
       <path d="M 12.40625 8.296875 
L 28.515625 8.296875 
L 28.515625 63.921875 
L 10.984375 60.40625 
L 10.984375 69.390625 
L 28.421875 72.90625 
L 38.28125 72.90625 
L 38.28125 8.296875 
L 54.390625 8.296875 
L 54.390625 0 
L 12.40625 0 
z
" id="DejaVuSans-49"/>
      </defs>
      <g transform="translate(34.696875 57.367219)scale(0.1 -0.1)">
       <use xlink:href="#DejaVuSans-49"/>
       <use x="63.623047" xlink:href="#DejaVuSans-46"/>
       <use x="95.410156" xlink:href="#DejaVuSans-48"/>
      </g>
     </g>
    </g>
    <g id="text_15">
     <!-- Risky share -->
     <defs>
      <path d="M 44.390625 34.1875 
Q 47.5625 33.109375 50.5625 29.59375 
Q 53.5625 26.078125 56.59375 19.921875 
L 66.609375 0 
L 56 0 
L 46.6875 18.703125 
Q 43.0625 26.03125 39.671875 28.421875 
Q 36.28125 30.8125 30.421875 30.8125 
L 19.671875 30.8125 
L 19.671875 0 
L 9.8125 0 
L 9.8125 72.90625 
L 32.078125 72.90625 
Q 44.578125 72.90625 50.734375 67.671875 
Q 56.890625 62.453125 56.890625 51.90625 
Q 56.890625 45.015625 53.6875 40.46875 
Q 50.484375 35.9375 44.390625 34.1875 
z
M 19.671875 64.796875 
L 19.671875 38.921875 
L 32.078125 38.921875 
Q 39.203125 38.921875 42.84375 42.21875 
Q 46.484375 45.515625 46.484375 51.90625 
Q 46.484375 58.296875 42.84375 61.546875 
Q 39.203125 64.796875 32.078125 64.796875 
z
" id="DejaVuSans-82"/>
      <path d="M 9.421875 54.6875 
L 18.40625 54.6875 
L 18.40625 0 
L 9.421875 0 
z
M 9.421875 75.984375 
L 18.40625 75.984375 
L 18.40625 64.59375 
L 9.421875 64.59375 
z
" id="DejaVuSans-105"/>
      <path d="M 44.28125 53.078125 
L 44.28125 44.578125 
Q 40.484375 46.53125 36.375 47.5 
Q 32.28125 48.484375 27.875 48.484375 
Q 21.1875 48.484375 17.84375 46.4375 
Q 14.5 44.390625 14.5 40.28125 
Q 14.5 37.15625 16.890625 35.375 
Q 19.28125 33.59375 26.515625 31.984375 
L 29.59375 31.296875 
Q 39.15625 29.25 43.1875 25.515625 
Q 47.21875 21.78125 47.21875 15.09375 
Q 47.21875 7.46875 41.1875 3.015625 
Q 35.15625 -1.421875 24.609375 -1.421875 
Q 20.21875 -1.421875 15.453125 -0.5625 
Q 10.6875 0.296875 5.421875 2 
L 5.421875 11.28125 
Q 10.40625 8.6875 15.234375 7.390625 
Q 20.0625 6.109375 24.8125 6.109375 
Q 31.15625 6.109375 34.5625 8.28125 
Q 37.984375 10.453125 37.984375 14.40625 
Q 37.984375 18.0625 35.515625 20.015625 
Q 33.0625 21.96875 24.703125 23.78125 
L 21.578125 24.515625 
Q 13.234375 26.265625 9.515625 29.90625 
Q 5.8125 33.546875 5.8125 39.890625 
Q 5.8125 47.609375 11.28125 51.796875 
Q 16.75 56 26.8125 56 
Q 31.78125 56 36.171875 55.265625 
Q 40.578125 54.546875 44.28125 53.078125 
z
" id="DejaVuSans-115"/>
      <path d="M 9.078125 75.984375 
L 18.109375 75.984375 
L 18.109375 31.109375 
L 44.921875 54.6875 
L 56.390625 54.6875 
L 27.390625 29.109375 
L 57.625 0 
L 45.90625 0 
L 18.109375 26.703125 
L 18.109375 0 
L 9.078125 0 
z
" id="DejaVuSans-107"/>
      <path d="M 32.171875 -5.078125 
Q 28.375 -14.84375 24.75 -17.8125 
Q 21.140625 -20.796875 15.09375 -20.796875 
L 7.90625 -20.796875 
L 7.90625 -13.28125 
L 13.1875 -13.28125 
Q 16.890625 -13.28125 18.9375 -11.515625 
Q 21 -9.765625 23.484375 -3.21875 
L 25.09375 0.875 
L 2.984375 54.6875 
L 12.5 54.6875 
L 29.59375 11.921875 
L 46.6875 54.6875 
L 56.203125 54.6875 
z
" id="DejaVuSans-121"/>
      <path id="DejaVuSans-32"/>
      <path d="M 54.890625 33.015625 
L 54.890625 0 
L 45.90625 0 
L 45.90625 32.71875 
Q 45.90625 40.484375 42.875 44.328125 
Q 39.84375 48.1875 33.796875 48.1875 
Q 26.515625 48.1875 22.3125 43.546875 
Q 18.109375 38.921875 18.109375 30.90625 
L 18.109375 0 
L 9.078125 0 
L 9.078125 75.984375 
L 18.109375 75.984375 
L 18.109375 46.1875 
Q 21.34375 51.125 25.703125 53.5625 
Q 30.078125 56 35.796875 56 
Q 45.21875 56 50.046875 50.171875 
Q 54.890625 44.34375 54.890625 33.015625 
z
" id="DejaVuSans-104"/>
      <path d="M 34.28125 27.484375 
Q 23.390625 27.484375 19.1875 25 
Q 14.984375 22.515625 14.984375 16.5 
Q 14.984375 11.71875 18.140625 8.90625 
Q 21.296875 6.109375 26.703125 6.109375 
Q 34.1875 6.109375 38.703125 11.40625 
Q 43.21875 16.703125 43.21875 25.484375 
L 43.21875 27.484375 
z
M 52.203125 31.203125 
L 52.203125 0 
L 43.21875 0 
L 43.21875 8.296875 
Q 40.140625 3.328125 35.546875 0.953125 
Q 30.953125 -1.421875 24.3125 -1.421875 
Q 15.921875 -1.421875 10.953125 3.296875 
Q 6 8.015625 6 15.921875 
Q 6 25.140625 12.171875 29.828125 
Q 18.359375 34.515625 30.609375 34.515625 
L 43.21875 34.515625 
L 43.21875 35.40625 
Q 43.21875 41.609375 39.140625 45 
Q 35.0625 48.390625 27.6875 48.390625 
Q 23 48.390625 18.546875 47.265625 
Q 14.109375 46.140625 10.015625 43.890625 
L 10.015625 52.203125 
Q 14.9375 54.109375 19.578125 55.046875 
Q 24.21875 56 28.609375 56 
Q 40.484375 56 46.34375 49.84375 
Q 52.203125 43.703125 52.203125 31.203125 
z
" id="DejaVuSans-97"/>
      <path d="M 41.109375 46.296875 
Q 39.59375 47.171875 37.8125 47.578125 
Q 36.03125 48 33.890625 48 
Q 26.265625 48 22.1875 43.046875 
Q 18.109375 38.09375 18.109375 28.8125 
L 18.109375 0 
L 9.078125 0 
L 9.078125 54.6875 
L 18.109375 54.6875 
L 18.109375 46.1875 
Q 20.953125 51.171875 25.484375 53.578125 
Q 30.03125 56 36.53125 56 
Q 37.453125 56 38.578125 55.875 
Q 39.703125 55.765625 41.0625 55.515625 
z
" id="DejaVuSans-114"/>
     </defs>
     <g transform="translate(28.617187 203.405344)rotate(-90)scale(0.1 -0.1)">
      <use xlink:href="#DejaVuSans-82"/>
      <use x="69.482422" xlink:href="#DejaVuSans-105"/>
      <use x="97.265625" xlink:href="#DejaVuSans-115"/>
      <use x="149.365234" xlink:href="#DejaVuSans-107"/>
      <use x="207.228516" xlink:href="#DejaVuSans-121"/>
      <use x="266.408203" xlink:href="#DejaVuSans-32"/>
      <use x="298.195312" xlink:href="#DejaVuSans-115"/>
      <use x="350.294922" xlink:href="#DejaVuSans-104"/>
      <use x="413.673828" xlink:href="#DejaVuSans-97"/>
      <use x="474.953125" xlink:href="#DejaVuSans-114"/>
      <use x="516.035156" xlink:href="#DejaVuSans-101"/>
     </g>
    </g>
   </g>
   <g id="line2d_27">
    <defs>
     <path d="M 0 1.5 
C 0.397805 1.5 0.77937 1.341951 1.06066 1.06066 
C 1.341951 0.77937 1.5 0.397805 1.5 0 
C 1.5 -0.397805 1.341951 -0.77937 1.06066 -1.06066 
C 0.77937 -1.341951 0.397805 -1.5 0 -1.5 
C -0.397805 -1.5 -0.77937 -1.341951 -1.06066 -1.06066 
C -1.341951 -0.77937 -1.5 -0.397805 -1.5 0 
C -1.5 0.397805 -1.341951 0.77937 -1.06066 1.06066 
C -0.77937 1.341951 -0.397805 1.5 0 1.5 
z
" id="m39cdb8391f" style="stroke:#1f77b4;"/>
    </defs>
    <g clip-path="url(#p13ce199b9d)">
     <use style="fill:#1f77b4;stroke:#1f77b4;" x="73.832727" xlink:href="#m39cdb8391f" y="53.568"/>
     <use style="fill:#1f77b4;stroke:#1f77b4;" x="79.528421" xlink:href="#m39cdb8391f" y="53.568"/>
     <use style="fill:#1f77b4;stroke:#1f77b4;" x="85.224115" xlink:href="#m39cdb8391f" y="53.568"/>
     <use style="fill:#1f77b4;stroke:#1f77b4;" x="90.919809" xlink:href="#m39cdb8391f" y="53.568"/>
     <use style="fill:#1f77b4;stroke:#1f77b4;" x="96.615502" xlink:href="#m39cdb8391f" y="53.568"/>
     <use style="fill:#1f77b4;stroke:#1f77b4;" x="102.311196" xlink:href="#m39cdb8391f" y="53.568"/>
     <use style="fill:#1f77b4;stroke:#1f77b4;" x="108.00689" xlink:href="#m39cdb8391f" y="53.568"/>
     <use style="fill:#1f77b4;stroke:#1f77b4;" x="113.702584" xlink:href="#m39cdb8391f" y="53.568"/>
     <use style="fill:#1f77b4;stroke:#1f77b4;" x="119.398278" xlink:href="#m39cdb8391f" y="53.568"/>
     <use style="fill:#1f77b4;stroke:#1f77b4;" x="125.093971" xlink:href="#m39cdb8391f" y="53.568"/>
     <use style="fill:#1f77b4;stroke:#1f77b4;" x="130.789665" xlink:href="#m39cdb8391f" y="53.568"/>
     <use style="fill:#1f77b4;stroke:#1f77b4;" x="136.485359" xlink:href="#m39cdb8391f" y="53.568"/>
     <use style="fill:#1f77b4;stroke:#1f77b4;" x="142.181053" xlink:href="#m39cdb8391f" y="53.568"/>
     <use style="fill:#1f77b4;stroke:#1f77b4;" x="147.876746" xlink:href="#m39cdb8391f" y="53.568"/>
     <use style="fill:#1f77b4;stroke:#1f77b4;" x="153.57244" xlink:href="#m39cdb8391f" y="53.568"/>
     <use style="fill:#1f77b4;stroke:#1f77b4;" x="159.268134" xlink:href="#m39cdb8391f" y="53.568"/>
     <use style="fill:#1f77b4;stroke:#1f77b4;" x="164.963828" xlink:href="#m39cdb8391f" y="53.568"/>
     <use style="fill:#1f77b4;stroke:#1f77b4;" x="170.659522" xlink:href="#m39cdb8391f" y="53.568"/>
     <use style="fill:#1f77b4;stroke:#1f77b4;" x="176.355215" xlink:href="#m39cdb8391f" y="70.796495"/>
     <use style="fill:#1f77b4;stroke:#1f77b4;" x="182.050909" xlink:href="#m39cdb8391f" y="71.056058"/>
     <use style="fill:#1f77b4;stroke:#1f77b4;" x="187.746603" xlink:href="#m39cdb8391f" y="128.67924"/>
     <use style="fill:#1f77b4;stroke:#1f77b4;" x="193.442297" xlink:href="#m39cdb8391f" y="162.87891"/>
     <use style="fill:#1f77b4;stroke:#1f77b4;" x="199.13799" xlink:href="#m39cdb8391f" y="185.325906"/>
     <use style="fill:#1f77b4;stroke:#1f77b4;" x="204.833684" xlink:href="#m39cdb8391f" y="200.619337"/>
     <use style="fill:#1f77b4;stroke:#1f77b4;" x="210.529378" xlink:href="#m39cdb8391f" y="139.076083"/>
     <use style="fill:#1f77b4;stroke:#1f77b4;" x="216.225072" xlink:href="#m39cdb8391f" y="136.754681"/>
     <use style="fill:#1f77b4;stroke:#1f77b4;" x="221.920766" xlink:href="#m39cdb8391f" y="149.006582"/>
     <use style="fill:#1f77b4;stroke:#1f77b4;" x="227.616459" xlink:href="#m39cdb8391f" y="177.827566"/>
     <use style="fill:#1f77b4;stroke:#1f77b4;" x="233.312153" xlink:href="#m39cdb8391f" y="193.804453"/>
     <use style="fill:#1f77b4;stroke:#1f77b4;" x="239.007847" xlink:href="#m39cdb8391f" y="216.470377"/>
     <use style="fill:#1f77b4;stroke:#1f77b4;" x="244.703541" xlink:href="#m39cdb8391f" y="224.503486"/>
     <use style="fill:#1f77b4;stroke:#1f77b4;" x="250.399234" xlink:href="#m39cdb8391f" y="213.258159"/>
     <use style="fill:#1f77b4;stroke:#1f77b4;" x="256.094928" xlink:href="#m39cdb8391f" y="233.468504"/>
     <use style="fill:#1f77b4;stroke:#1f77b4;" x="261.790622" xlink:href="#m39cdb8391f" y="216.657037"/>
     <use style="fill:#1f77b4;stroke:#1f77b4;" x="267.486316" xlink:href="#m39cdb8391f" y="200.800375"/>
     <use style="fill:#1f77b4;stroke:#1f77b4;" x="273.18201" xlink:href="#m39cdb8391f" y="217.026274"/>
     <use style="fill:#1f77b4;stroke:#1f77b4;" x="278.877703" xlink:href="#m39cdb8391f" y="205.29188"/>
     <use style="fill:#1f77b4;stroke:#1f77b4;" x="284.573397" xlink:href="#m39cdb8391f" y="205.657914"/>
     <use style="fill:#1f77b4;stroke:#1f77b4;" x="290.269091" xlink:href="#m39cdb8391f" y="216.880394"/>
     <use style="fill:#1f77b4;stroke:#1f77b4;" x="295.964785" xlink:href="#m39cdb8391f" y="221.528081"/>
     <use style="fill:#1f77b4;stroke:#1f77b4;" x="301.660478" xlink:href="#m39cdb8391f" y="231.439846"/>
     <use style="fill:#1f77b4;stroke:#1f77b4;" x="307.356172" xlink:href="#m39cdb8391f" y="231.296603"/>
     <use style="fill:#1f77b4;stroke:#1f77b4;" x="313.051866" xlink:href="#m39cdb8391f" y="242.190423"/>
     <use style="fill:#1f77b4;stroke:#1f77b4;" x="318.74756" xlink:href="#m39cdb8391f" y="233.090532"/>
     <use style="fill:#1f77b4;stroke:#1f77b4;" x="324.443254" xlink:href="#m39cdb8391f" y="236.092385"/>
     <use style="fill:#1f77b4;stroke:#1f77b4;" x="330.138947" xlink:href="#m39cdb8391f" y="234.833341"/>
     <use style="fill:#1f77b4;stroke:#1f77b4;" x="335.834641" xlink:href="#m39cdb8391f" y="262.426183"/>
     <use style="fill:#1f77b4;stroke:#1f77b4;" x="341.530335" xlink:href="#m39cdb8391f" y="259.889066"/>
     <use style="fill:#1f77b4;stroke:#1f77b4;" x="73.832727" xlink:href="#m39cdb8391f" y="53.568"/>
     <use style="fill:#1f77b4;stroke:#1f77b4;" x="79.528421" xlink:href="#m39cdb8391f" y="53.568"/>
     <use style="fill:#1f77b4;stroke:#1f77b4;" x="85.224115" xlink:href="#m39cdb8391f" y="53.568"/>
     <use style="fill:#1f77b4;stroke:#1f77b4;" x="90.919809" xlink:href="#m39cdb8391f" y="53.568"/>
     <use style="fill:#1f77b4;stroke:#1f77b4;" x="96.615502" xlink:href="#m39cdb8391f" y="53.568"/>
     <use style="fill:#1f77b4;stroke:#1f77b4;" x="102.311196" xlink:href="#m39cdb8391f" y="53.568"/>
     <use style="fill:#1f77b4;stroke:#1f77b4;" x="108.00689" xlink:href="#m39cdb8391f" y="53.568"/>
     <use style="fill:#1f77b4;stroke:#1f77b4;" x="113.702584" xlink:href="#m39cdb8391f" y="53.568"/>
     <use style="fill:#1f77b4;stroke:#1f77b4;" x="119.398278" xlink:href="#m39cdb8391f" y="53.568"/>
     <use style="fill:#1f77b4;stroke:#1f77b4;" x="125.093971" xlink:href="#m39cdb8391f" y="53.568"/>
    </g>
   </g>
   <g id="line2d_28">
    <defs>
     <path d="M 0 1.5 
C 0.397805 1.5 0.77937 1.341951 1.06066 1.06066 
C 1.341951 0.77937 1.5 0.397805 1.5 0 
C 1.5 -0.397805 1.341951 -0.77937 1.06066 -1.06066 
C 0.77937 -1.341951 0.397805 -1.5 0 -1.5 
C -0.397805 -1.5 -0.77937 -1.341951 -1.06066 -1.06066 
C -1.341951 -0.77937 -1.5 -0.397805 -1.5 0 
C -1.5 0.397805 -1.341951 0.77937 -1.06066 1.06066 
C -0.77937 1.341951 -0.397805 1.5 0 1.5 
z
" id="mc2d9fb7faa" style="stroke:#ff7f0e;"/>
    </defs>
    <g clip-path="url(#p13ce199b9d)">
     <use style="fill:#ff7f0e;stroke:#ff7f0e;" x="73.832727" xlink:href="#mc2d9fb7faa" y="53.568"/>
     <use style="fill:#ff7f0e;stroke:#ff7f0e;" x="79.528421" xlink:href="#mc2d9fb7faa" y="53.568"/>
     <use style="fill:#ff7f0e;stroke:#ff7f0e;" x="85.224115" xlink:href="#mc2d9fb7faa" y="53.568"/>
     <use style="fill:#ff7f0e;stroke:#ff7f0e;" x="90.919809" xlink:href="#mc2d9fb7faa" y="53.568"/>
     <use style="fill:#ff7f0e;stroke:#ff7f0e;" x="96.615502" xlink:href="#mc2d9fb7faa" y="53.568"/>
     <use style="fill:#ff7f0e;stroke:#ff7f0e;" x="102.311196" xlink:href="#mc2d9fb7faa" y="53.568"/>
     <use style="fill:#ff7f0e;stroke:#ff7f0e;" x="108.00689" xlink:href="#mc2d9fb7faa" y="53.568"/>
     <use style="fill:#ff7f0e;stroke:#ff7f0e;" x="113.702584" xlink:href="#mc2d9fb7faa" y="53.568"/>
     <use style="fill:#ff7f0e;stroke:#ff7f0e;" x="119.398278" xlink:href="#mc2d9fb7faa" y="53.568"/>
     <use style="fill:#ff7f0e;stroke:#ff7f0e;" x="125.093971" xlink:href="#mc2d9fb7faa" y="53.568"/>
     <use style="fill:#ff7f0e;stroke:#ff7f0e;" x="130.789665" xlink:href="#mc2d9fb7faa" y="53.568"/>
     <use style="fill:#ff7f0e;stroke:#ff7f0e;" x="136.485359" xlink:href="#mc2d9fb7faa" y="53.568"/>
     <use style="fill:#ff7f0e;stroke:#ff7f0e;" x="142.181053" xlink:href="#mc2d9fb7faa" y="53.568"/>
     <use style="fill:#ff7f0e;stroke:#ff7f0e;" x="147.876746" xlink:href="#mc2d9fb7faa" y="53.568"/>
     <use style="fill:#ff7f0e;stroke:#ff7f0e;" x="153.57244" xlink:href="#mc2d9fb7faa" y="53.568"/>
     <use style="fill:#ff7f0e;stroke:#ff7f0e;" x="159.268134" xlink:href="#mc2d9fb7faa" y="53.568"/>
     <use style="fill:#ff7f0e;stroke:#ff7f0e;" x="164.963828" xlink:href="#mc2d9fb7faa" y="53.568"/>
     <use style="fill:#ff7f0e;stroke:#ff7f0e;" x="170.659522" xlink:href="#mc2d9fb7faa" y="53.575707"/>
     <use style="fill:#ff7f0e;stroke:#ff7f0e;" x="176.355215" xlink:href="#mc2d9fb7faa" y="113.983848"/>
     <use style="fill:#ff7f0e;stroke:#ff7f0e;" x="182.050909" xlink:href="#mc2d9fb7faa" y="89.005694"/>
     <use style="fill:#ff7f0e;stroke:#ff7f0e;" x="187.746603" xlink:href="#mc2d9fb7faa" y="133.458367"/>
     <use style="fill:#ff7f0e;stroke:#ff7f0e;" x="193.442297" xlink:href="#mc2d9fb7faa" y="146.539077"/>
     <use style="fill:#ff7f0e;stroke:#ff7f0e;" x="199.13799" xlink:href="#mc2d9fb7faa" y="172.261986"/>
     <use style="fill:#ff7f0e;stroke:#ff7f0e;" x="204.833684" xlink:href="#mc2d9fb7faa" y="193.089197"/>
     <use style="fill:#ff7f0e;stroke:#ff7f0e;" x="210.529378" xlink:href="#mc2d9fb7faa" y="135.496717"/>
     <use style="fill:#ff7f0e;stroke:#ff7f0e;" x="216.225072" xlink:href="#mc2d9fb7faa" y="136.321613"/>
     <use style="fill:#ff7f0e;stroke:#ff7f0e;" x="221.920766" xlink:href="#mc2d9fb7faa" y="157.706907"/>
     <use style="fill:#ff7f0e;stroke:#ff7f0e;" x="227.616459" xlink:href="#mc2d9fb7faa" y="185.097866"/>
     <use style="fill:#ff7f0e;stroke:#ff7f0e;" x="233.312153" xlink:href="#mc2d9fb7faa" y="201.095448"/>
     <use style="fill:#ff7f0e;stroke:#ff7f0e;" x="239.007847" xlink:href="#mc2d9fb7faa" y="212.187835"/>
     <use style="fill:#ff7f0e;stroke:#ff7f0e;" x="244.703541" xlink:href="#mc2d9fb7faa" y="219.56454"/>
     <use style="fill:#ff7f0e;stroke:#ff7f0e;" x="250.399234" xlink:href="#mc2d9fb7faa" y="209.252345"/>
     <use style="fill:#ff7f0e;stroke:#ff7f0e;" x="256.094928" xlink:href="#mc2d9fb7faa" y="229.618528"/>
     <use style="fill:#ff7f0e;stroke:#ff7f0e;" x="261.790622" xlink:href="#mc2d9fb7faa" y="221.866252"/>
     <use style="fill:#ff7f0e;stroke:#ff7f0e;" x="267.486316" xlink:href="#mc2d9fb7faa" y="206.884306"/>
     <use style="fill:#ff7f0e;stroke:#ff7f0e;" x="273.18201" xlink:href="#mc2d9fb7faa" y="222.291147"/>
     <use style="fill:#ff7f0e;stroke:#ff7f0e;" x="278.877703" xlink:href="#mc2d9fb7faa" y="211.251383"/>
     <use style="fill:#ff7f0e;stroke:#ff7f0e;" x="284.573397" xlink:href="#mc2d9fb7faa" y="211.655437"/>
     <use style="fill:#ff7f0e;stroke:#ff7f0e;" x="290.269091" xlink:href="#mc2d9fb7faa" y="222.309741"/>
     <use style="fill:#ff7f0e;stroke:#ff7f0e;" x="295.964785" xlink:href="#mc2d9fb7faa" y="226.735597"/>
     <use style="fill:#ff7f0e;stroke:#ff7f0e;" x="301.660478" xlink:href="#mc2d9fb7faa" y="236.118172"/>
     <use style="fill:#ff7f0e;stroke:#ff7f0e;" x="307.356172" xlink:href="#mc2d9fb7faa" y="236.009227"/>
     <use style="fill:#ff7f0e;stroke:#ff7f0e;" x="313.051866" xlink:href="#mc2d9fb7faa" y="246.313363"/>
     <use style="fill:#ff7f0e;stroke:#ff7f0e;" x="318.74756" xlink:href="#mc2d9fb7faa" y="237.74336"/>
     <use style="fill:#ff7f0e;stroke:#ff7f0e;" x="324.443254" xlink:href="#mc2d9fb7faa" y="240.601599"/>
     <use style="fill:#ff7f0e;stroke:#ff7f0e;" x="330.138947" xlink:href="#mc2d9fb7faa" y="239.410849"/>
     <use style="fill:#ff7f0e;stroke:#ff7f0e;" x="335.834641" xlink:href="#mc2d9fb7faa" y="266.157522"/>
     <use style="fill:#ff7f0e;stroke:#ff7f0e;" x="341.530335" xlink:href="#mc2d9fb7faa" y="263.784571"/>
     <use style="fill:#ff7f0e;stroke:#ff7f0e;" x="73.832727" xlink:href="#mc2d9fb7faa" y="53.568"/>
     <use style="fill:#ff7f0e;stroke:#ff7f0e;" x="79.528421" xlink:href="#mc2d9fb7faa" y="53.568"/>
     <use style="fill:#ff7f0e;stroke:#ff7f0e;" x="85.224115" xlink:href="#mc2d9fb7faa" y="53.568"/>
     <use style="fill:#ff7f0e;stroke:#ff7f0e;" x="90.919809" xlink:href="#mc2d9fb7faa" y="53.568"/>
     <use style="fill:#ff7f0e;stroke:#ff7f0e;" x="96.615502" xlink:href="#mc2d9fb7faa" y="53.568"/>
     <use style="fill:#ff7f0e;stroke:#ff7f0e;" x="102.311196" xlink:href="#mc2d9fb7faa" y="53.568"/>
     <use style="fill:#ff7f0e;stroke:#ff7f0e;" x="108.00689" xlink:href="#mc2d9fb7faa" y="53.568"/>
     <use style="fill:#ff7f0e;stroke:#ff7f0e;" x="113.702584" xlink:href="#mc2d9fb7faa" y="53.568"/>
     <use style="fill:#ff7f0e;stroke:#ff7f0e;" x="119.398278" xlink:href="#mc2d9fb7faa" y="53.568"/>
     <use style="fill:#ff7f0e;stroke:#ff7f0e;" x="125.093971" xlink:href="#mc2d9fb7faa" y="53.568"/>
    </g>
   </g>
   <g id="line2d_29">
    <defs>
     <path d="M 0 1.5 
C 0.397805 1.5 0.77937 1.341951 1.06066 1.06066 
C 1.341951 0.77937 1.5 0.397805 1.5 0 
C 1.5 -0.397805 1.341951 -0.77937 1.06066 -1.06066 
C 0.77937 -1.341951 0.397805 -1.5 0 -1.5 
C -0.397805 -1.5 -0.77937 -1.341951 -1.06066 -1.06066 
C -1.341951 -0.77937 -1.5 -0.397805 -1.5 0 
C -1.5 0.397805 -1.341951 0.77937 -1.06066 1.06066 
C -0.77937 1.341951 -0.397805 1.5 0 1.5 
z
" id="m9f57bff145" style="stroke:#2ca02c;"/>
    </defs>
    <g clip-path="url(#p13ce199b9d)">
     <use style="fill:#2ca02c;stroke:#2ca02c;" x="73.832727" xlink:href="#m9f57bff145" y="53.568"/>
     <use style="fill:#2ca02c;stroke:#2ca02c;" x="79.528421" xlink:href="#m9f57bff145" y="53.568"/>
     <use style="fill:#2ca02c;stroke:#2ca02c;" x="85.224115" xlink:href="#m9f57bff145" y="53.568"/>
     <use style="fill:#2ca02c;stroke:#2ca02c;" x="90.919809" xlink:href="#m9f57bff145" y="53.568"/>
     <use style="fill:#2ca02c;stroke:#2ca02c;" x="96.615502" xlink:href="#m9f57bff145" y="53.568"/>
     <use style="fill:#2ca02c;stroke:#2ca02c;" x="102.311196" xlink:href="#m9f57bff145" y="53.568"/>
     <use style="fill:#2ca02c;stroke:#2ca02c;" x="108.00689" xlink:href="#m9f57bff145" y="53.568"/>
     <use style="fill:#2ca02c;stroke:#2ca02c;" x="113.702584" xlink:href="#m9f57bff145" y="53.568"/>
     <use style="fill:#2ca02c;stroke:#2ca02c;" x="119.398278" xlink:href="#m9f57bff145" y="53.568"/>
     <use style="fill:#2ca02c;stroke:#2ca02c;" x="125.093971" xlink:href="#m9f57bff145" y="53.568"/>
     <use style="fill:#2ca02c;stroke:#2ca02c;" x="130.789665" xlink:href="#m9f57bff145" y="53.568"/>
     <use style="fill:#2ca02c;stroke:#2ca02c;" x="136.485359" xlink:href="#m9f57bff145" y="53.568"/>
     <use style="fill:#2ca02c;stroke:#2ca02c;" x="142.181053" xlink:href="#m9f57bff145" y="53.568"/>
     <use style="fill:#2ca02c;stroke:#2ca02c;" x="147.876746" xlink:href="#m9f57bff145" y="53.568"/>
     <use style="fill:#2ca02c;stroke:#2ca02c;" x="153.57244" xlink:href="#m9f57bff145" y="53.568"/>
     <use style="fill:#2ca02c;stroke:#2ca02c;" x="159.268134" xlink:href="#m9f57bff145" y="53.568"/>
     <use style="fill:#2ca02c;stroke:#2ca02c;" x="164.963828" xlink:href="#m9f57bff145" y="53.568"/>
     <use style="fill:#2ca02c;stroke:#2ca02c;" x="170.659522" xlink:href="#m9f57bff145" y="53.568"/>
     <use style="fill:#2ca02c;stroke:#2ca02c;" x="176.355215" xlink:href="#m9f57bff145" y="65.270596"/>
     <use style="fill:#2ca02c;stroke:#2ca02c;" x="182.050909" xlink:href="#m9f57bff145" y="53.568"/>
     <use style="fill:#2ca02c;stroke:#2ca02c;" x="187.746603" xlink:href="#m9f57bff145" y="94.149281"/>
     <use style="fill:#2ca02c;stroke:#2ca02c;" x="193.442297" xlink:href="#m9f57bff145" y="113.405212"/>
     <use style="fill:#2ca02c;stroke:#2ca02c;" x="199.13799" xlink:href="#m9f57bff145" y="130.58546"/>
     <use style="fill:#2ca02c;stroke:#2ca02c;" x="204.833684" xlink:href="#m9f57bff145" y="154.941805"/>
     <use style="fill:#2ca02c;stroke:#2ca02c;" x="210.529378" xlink:href="#m9f57bff145" y="98.46072"/>
     <use style="fill:#2ca02c;stroke:#2ca02c;" x="216.225072" xlink:href="#m9f57bff145" y="91.86596"/>
     <use style="fill:#2ca02c;stroke:#2ca02c;" x="221.920766" xlink:href="#m9f57bff145" y="109.374068"/>
     <use style="fill:#2ca02c;stroke:#2ca02c;" x="227.616459" xlink:href="#m9f57bff145" y="144.544733"/>
     <use style="fill:#2ca02c;stroke:#2ca02c;" x="233.312153" xlink:href="#m9f57bff145" y="172.843741"/>
     <use style="fill:#2ca02c;stroke:#2ca02c;" x="239.007847" xlink:href="#m9f57bff145" y="196.302143"/>
     <use style="fill:#2ca02c;stroke:#2ca02c;" x="244.703541" xlink:href="#m9f57bff145" y="199.994667"/>
     <use style="fill:#2ca02c;stroke:#2ca02c;" x="250.399234" xlink:href="#m9f57bff145" y="207.68272"/>
     <use style="fill:#2ca02c;stroke:#2ca02c;" x="256.094928" xlink:href="#m9f57bff145" y="228.267584"/>
     <use style="fill:#2ca02c;stroke:#2ca02c;" x="261.790622" xlink:href="#m9f57bff145" y="229.608184"/>
     <use style="fill:#2ca02c;stroke:#2ca02c;" x="267.486316" xlink:href="#m9f57bff145" y="215.953748"/>
     <use style="fill:#2ca02c;stroke:#2ca02c;" x="273.18201" xlink:href="#m9f57bff145" y="230.13827"/>
     <use style="fill:#2ca02c;stroke:#2ca02c;" x="278.877703" xlink:href="#m9f57bff145" y="220.102202"/>
     <use style="fill:#2ca02c;stroke:#2ca02c;" x="284.573397" xlink:href="#m9f57bff145" y="220.552612"/>
     <use style="fill:#2ca02c;stroke:#2ca02c;" x="290.269091" xlink:href="#m9f57bff145" y="230.34305"/>
     <use style="fill:#2ca02c;stroke:#2ca02c;" x="295.964785" xlink:href="#m9f57bff145" y="234.424173"/>
     <use style="fill:#2ca02c;stroke:#2ca02c;" x="301.660478" xlink:href="#m9f57bff145" y="243.066271"/>
     <use style="fill:#2ca02c;stroke:#2ca02c;" x="73.832727" xlink:href="#m9f57bff145" y="53.568"/>
     <use style="fill:#2ca02c;stroke:#2ca02c;" x="79.528421" xlink:href="#m9f57bff145" y="53.568"/>
     <use style="fill:#2ca02c;stroke:#2ca02c;" x="85.224115" xlink:href="#m9f57bff145" y="53.568"/>
     <use style="fill:#2ca02c;stroke:#2ca02c;" x="90.919809" xlink:href="#m9f57bff145" y="53.568"/>
     <use style="fill:#2ca02c;stroke:#2ca02c;" x="96.615502" xlink:href="#m9f57bff145" y="53.568"/>
     <use style="fill:#2ca02c;stroke:#2ca02c;" x="102.311196" xlink:href="#m9f57bff145" y="53.568"/>
     <use style="fill:#2ca02c;stroke:#2ca02c;" x="108.00689" xlink:href="#m9f57bff145" y="53.568"/>
     <use style="fill:#2ca02c;stroke:#2ca02c;" x="113.702584" xlink:href="#m9f57bff145" y="53.568"/>
     <use style="fill:#2ca02c;stroke:#2ca02c;" x="119.398278" xlink:href="#m9f57bff145" y="53.568"/>
     <use style="fill:#2ca02c;stroke:#2ca02c;" x="125.093971" xlink:href="#m9f57bff145" y="53.568"/>
     <use style="fill:#2ca02c;stroke:#2ca02c;" x="130.789665" xlink:href="#m9f57bff145" y="53.568"/>
     <use style="fill:#2ca02c;stroke:#2ca02c;" x="136.485359" xlink:href="#m9f57bff145" y="53.568"/>
     <use style="fill:#2ca02c;stroke:#2ca02c;" x="142.181053" xlink:href="#m9f57bff145" y="53.568"/>
     <use style="fill:#2ca02c;stroke:#2ca02c;" x="147.876746" xlink:href="#m9f57bff145" y="53.568"/>
     <use style="fill:#2ca02c;stroke:#2ca02c;" x="153.57244" xlink:href="#m9f57bff145" y="53.568"/>
     <use style="fill:#2ca02c;stroke:#2ca02c;" x="159.268134" xlink:href="#m9f57bff145" y="53.568"/>
     <use style="fill:#2ca02c;stroke:#2ca02c;" x="164.963828" xlink:href="#m9f57bff145" y="53.568"/>
    </g>
   </g>
   <g id="line2d_30">
    <defs>
     <path d="M 0 1.5 
C 0.397805 1.5 0.77937 1.341951 1.06066 1.06066 
C 1.341951 0.77937 1.5 0.397805 1.5 0 
C 1.5 -0.397805 1.341951 -0.77937 1.06066 -1.06066 
C 0.77937 -1.341951 0.397805 -1.5 0 -1.5 
C -0.397805 -1.5 -0.77937 -1.341951 -1.06066 -1.06066 
C -1.341951 -0.77937 -1.5 -0.397805 -1.5 0 
C -1.5 0.397805 -1.341951 0.77937 -1.06066 1.06066 
C -0.77937 1.341951 -0.397805 1.5 0 1.5 
z
" id="m18b4a6227b" style="stroke:#d62728;"/>
    </defs>
    <g clip-path="url(#p13ce199b9d)">
     <use style="fill:#d62728;stroke:#d62728;" x="73.832727" xlink:href="#m18b4a6227b" y="53.568"/>
     <use style="fill:#d62728;stroke:#d62728;" x="79.528421" xlink:href="#m18b4a6227b" y="53.568"/>
     <use style="fill:#d62728;stroke:#d62728;" x="85.224115" xlink:href="#m18b4a6227b" y="53.568"/>
     <use style="fill:#d62728;stroke:#d62728;" x="90.919809" xlink:href="#m18b4a6227b" y="53.568"/>
     <use style="fill:#d62728;stroke:#d62728;" x="96.615502" xlink:href="#m18b4a6227b" y="53.568"/>
     <use style="fill:#d62728;stroke:#d62728;" x="102.311196" xlink:href="#m18b4a6227b" y="53.568"/>
     <use style="fill:#d62728;stroke:#d62728;" x="108.00689" xlink:href="#m18b4a6227b" y="53.568"/>
     <use style="fill:#d62728;stroke:#d62728;" x="113.702584" xlink:href="#m18b4a6227b" y="53.568"/>
     <use style="fill:#d62728;stroke:#d62728;" x="119.398278" xlink:href="#m18b4a6227b" y="53.568"/>
     <use style="fill:#d62728;stroke:#d62728;" x="125.093971" xlink:href="#m18b4a6227b" y="53.568"/>
     <use style="fill:#d62728;stroke:#d62728;" x="130.789665" xlink:href="#m18b4a6227b" y="53.568"/>
     <use style="fill:#d62728;stroke:#d62728;" x="136.485359" xlink:href="#m18b4a6227b" y="53.568"/>
     <use style="fill:#d62728;stroke:#d62728;" x="142.181053" xlink:href="#m18b4a6227b" y="53.568"/>
     <use style="fill:#d62728;stroke:#d62728;" x="147.876746" xlink:href="#m18b4a6227b" y="53.568"/>
     <use style="fill:#d62728;stroke:#d62728;" x="153.57244" xlink:href="#m18b4a6227b" y="61.468884"/>
     <use style="fill:#d62728;stroke:#d62728;" x="159.268134" xlink:href="#m18b4a6227b" y="53.568"/>
     <use style="fill:#d62728;stroke:#d62728;" x="164.963828" xlink:href="#m18b4a6227b" y="90.141872"/>
     <use style="fill:#d62728;stroke:#d62728;" x="170.659522" xlink:href="#m18b4a6227b" y="124.644787"/>
     <use style="fill:#d62728;stroke:#d62728;" x="176.355215" xlink:href="#m18b4a6227b" y="145.233185"/>
     <use style="fill:#d62728;stroke:#d62728;" x="182.050909" xlink:href="#m18b4a6227b" y="131.64209"/>
     <use style="fill:#d62728;stroke:#d62728;" x="187.746603" xlink:href="#m18b4a6227b" y="172.944472"/>
     <use style="fill:#d62728;stroke:#d62728;" x="193.442297" xlink:href="#m18b4a6227b" y="195.715509"/>
     <use style="fill:#d62728;stroke:#d62728;" x="199.13799" xlink:href="#m18b4a6227b" y="212.201542"/>
     <use style="fill:#d62728;stroke:#d62728;" x="204.833684" xlink:href="#m18b4a6227b" y="227.023901"/>
     <use style="fill:#d62728;stroke:#d62728;" x="210.529378" xlink:href="#m18b4a6227b" y="184.446551"/>
     <use style="fill:#d62728;stroke:#d62728;" x="216.225072" xlink:href="#m18b4a6227b" y="178.685587"/>
     <use style="fill:#d62728;stroke:#d62728;" x="221.920766" xlink:href="#m18b4a6227b" y="193.712439"/>
     <use style="fill:#d62728;stroke:#d62728;" x="227.616459" xlink:href="#m18b4a6227b" y="210.167455"/>
     <use style="fill:#d62728;stroke:#d62728;" x="233.312153" xlink:href="#m18b4a6227b" y="226.752359"/>
     <use style="fill:#d62728;stroke:#d62728;" x="239.007847" xlink:href="#m18b4a6227b" y="234.768139"/>
     <use style="fill:#d62728;stroke:#d62728;" x="244.703541" xlink:href="#m18b4a6227b" y="245.949371"/>
     <use style="fill:#d62728;stroke:#d62728;" x="250.399234" xlink:href="#m18b4a6227b" y="251.978031"/>
     <use style="fill:#d62728;stroke:#d62728;" x="256.094928" xlink:href="#m18b4a6227b" y="265.543584"/>
     <use style="fill:#d62728;stroke:#d62728;" x="261.790622" xlink:href="#m18b4a6227b" y="260.458981"/>
     <use style="fill:#d62728;stroke:#d62728;" x="267.486316" xlink:href="#m18b4a6227b" y="251.652797"/>
     <use style="fill:#d62728;stroke:#d62728;" x="273.18201" xlink:href="#m18b4a6227b" y="261.158777"/>
     <use style="fill:#d62728;stroke:#d62728;" x="278.877703" xlink:href="#m18b4a6227b" y="254.7906"/>
     <use style="fill:#d62728;stroke:#d62728;" x="284.573397" xlink:href="#m18b4a6227b" y="255.263076"/>
     <use style="fill:#d62728;stroke:#d62728;" x="290.269091" xlink:href="#m18b4a6227b" y="261.767765"/>
     <use style="fill:#d62728;stroke:#d62728;" x="295.964785" xlink:href="#m18b4a6227b" y="264.556344"/>
     <use style="fill:#d62728;stroke:#d62728;" x="301.660478" xlink:href="#m18b4a6227b" y="270.300472"/>
     <use style="fill:#d62728;stroke:#d62728;" x="307.356172" xlink:href="#m18b4a6227b" y="270.345013"/>
     <use style="fill:#d62728;stroke:#d62728;" x="313.051866" xlink:href="#m18b4a6227b" y="276.650952"/>
     <use style="fill:#d62728;stroke:#d62728;" x="318.74756" xlink:href="#m18b4a6227b" y="271.570747"/>
     <use style="fill:#d62728;stroke:#d62728;" x="324.443254" xlink:href="#m18b4a6227b" y="273.32151"/>
     <use style="fill:#d62728;stroke:#d62728;" x="330.138947" xlink:href="#m18b4a6227b" y="272.661511"/>
     <use style="fill:#d62728;stroke:#d62728;" x="335.834641" xlink:href="#m18b4a6227b" y="292.607487"/>
     <use style="fill:#d62728;stroke:#d62728;" x="341.530335" xlink:href="#m18b4a6227b" y="291.196416"/>
     <use style="fill:#d62728;stroke:#d62728;" x="347.226029" xlink:href="#m18b4a6227b" y="292.370941"/>
     <use style="fill:#d62728;stroke:#d62728;" x="352.921722" xlink:href="#m18b4a6227b" y="291.431465"/>
     <use style="fill:#d62728;stroke:#d62728;" x="358.617416" xlink:href="#m18b4a6227b" y="294.739147"/>
     <use style="fill:#d62728;stroke:#d62728;" x="364.31311" xlink:href="#m18b4a6227b" y="295.488"/>
     <use style="fill:#d62728;stroke:#d62728;" x="370.008804" xlink:href="#m18b4a6227b" y="289.91269"/>
     <use style="fill:#d62728;stroke:#d62728;" x="375.704498" xlink:href="#m18b4a6227b" y="291.168407"/>
     <use style="fill:#d62728;stroke:#d62728;" x="381.400191" xlink:href="#m18b4a6227b" y="286.098499"/>
     <use style="fill:#d62728;stroke:#d62728;" x="387.095885" xlink:href="#m18b4a6227b" y="280.075482"/>
     <use style="fill:#d62728;stroke:#d62728;" x="392.791579" xlink:href="#m18b4a6227b" y="283.594783"/>
     <use style="fill:#d62728;stroke:#d62728;" x="398.487273" xlink:href="#m18b4a6227b" y="286.147697"/>
    </g>
   </g>
   <g id="line2d_31">
    <defs>
     <path d="M 0 1.5 
C 0.397805 1.5 0.77937 1.341951 1.06066 1.06066 
C 1.341951 0.77937 1.5 0.397805 1.5 0 
C 1.5 -0.397805 1.341951 -0.77937 1.06066 -1.06066 
C 0.77937 -1.341951 0.397805 -1.5 0 -1.5 
C -0.397805 -1.5 -0.77937 -1.341951 -1.06066 -1.06066 
C -1.341951 -0.77937 -1.5 -0.397805 -1.5 0 
C -1.5 0.397805 -1.341951 0.77937 -1.06066 1.06066 
C -0.77937 1.341951 -0.397805 1.5 0 1.5 
z
" id="m734d981985" style="stroke:#9467bd;"/>
    </defs>
    <g clip-path="url(#p13ce199b9d)">
     <use style="fill:#9467bd;stroke:#9467bd;" x="73.832727" xlink:href="#m734d981985" y="53.568"/>
     <use style="fill:#9467bd;stroke:#9467bd;" x="79.528421" xlink:href="#m734d981985" y="53.568"/>
     <use style="fill:#9467bd;stroke:#9467bd;" x="85.224115" xlink:href="#m734d981985" y="53.568"/>
     <use style="fill:#9467bd;stroke:#9467bd;" x="90.919809" xlink:href="#m734d981985" y="53.568"/>
     <use style="fill:#9467bd;stroke:#9467bd;" x="96.615502" xlink:href="#m734d981985" y="53.568"/>
     <use style="fill:#9467bd;stroke:#9467bd;" x="102.311196" xlink:href="#m734d981985" y="53.568"/>
     <use style="fill:#9467bd;stroke:#9467bd;" x="108.00689" xlink:href="#m734d981985" y="53.568"/>
     <use style="fill:#9467bd;stroke:#9467bd;" x="113.702584" xlink:href="#m734d981985" y="53.568"/>
     <use style="fill:#9467bd;stroke:#9467bd;" x="119.398278" xlink:href="#m734d981985" y="53.568"/>
     <use style="fill:#9467bd;stroke:#9467bd;" x="125.093971" xlink:href="#m734d981985" y="53.568"/>
     <use style="fill:#9467bd;stroke:#9467bd;" x="130.789665" xlink:href="#m734d981985" y="53.568"/>
     <use style="fill:#9467bd;stroke:#9467bd;" x="136.485359" xlink:href="#m734d981985" y="53.568"/>
     <use style="fill:#9467bd;stroke:#9467bd;" x="142.181053" xlink:href="#m734d981985" y="53.568"/>
     <use style="fill:#9467bd;stroke:#9467bd;" x="147.876746" xlink:href="#m734d981985" y="53.568"/>
     <use style="fill:#9467bd;stroke:#9467bd;" x="153.57244" xlink:href="#m734d981985" y="53.568"/>
     <use style="fill:#9467bd;stroke:#9467bd;" x="159.268134" xlink:href="#m734d981985" y="53.568"/>
     <use style="fill:#9467bd;stroke:#9467bd;" x="164.963828" xlink:href="#m734d981985" y="53.568"/>
     <use style="fill:#9467bd;stroke:#9467bd;" x="170.659522" xlink:href="#m734d981985" y="63.955617"/>
     <use style="fill:#9467bd;stroke:#9467bd;" x="176.355215" xlink:href="#m734d981985" y="117.873977"/>
     <use style="fill:#9467bd;stroke:#9467bd;" x="182.050909" xlink:href="#m734d981985" y="100.956768"/>
     <use style="fill:#9467bd;stroke:#9467bd;" x="187.746603" xlink:href="#m734d981985" y="127.558385"/>
     <use style="fill:#9467bd;stroke:#9467bd;" x="193.442297" xlink:href="#m734d981985" y="158.892095"/>
     <use style="fill:#9467bd;stroke:#9467bd;" x="199.13799" xlink:href="#m734d981985" y="171.632652"/>
     <use style="fill:#9467bd;stroke:#9467bd;" x="204.833684" xlink:href="#m734d981985" y="190.451849"/>
     <use style="fill:#9467bd;stroke:#9467bd;" x="210.529378" xlink:href="#m734d981985" y="132.289844"/>
     <use style="fill:#9467bd;stroke:#9467bd;" x="216.225072" xlink:href="#m734d981985" y="122.717015"/>
     <use style="fill:#9467bd;stroke:#9467bd;" x="221.920766" xlink:href="#m734d981985" y="144.119186"/>
     <use style="fill:#9467bd;stroke:#9467bd;" x="227.616459" xlink:href="#m734d981985" y="161.775432"/>
     <use style="fill:#9467bd;stroke:#9467bd;" x="233.312153" xlink:href="#m734d981985" y="181.02782"/>
     <use style="fill:#9467bd;stroke:#9467bd;" x="239.007847" xlink:href="#m734d981985" y="215.112379"/>
     <use style="fill:#9467bd;stroke:#9467bd;" x="244.703541" xlink:href="#m734d981985" y="219.092296"/>
     <use style="fill:#9467bd;stroke:#9467bd;" x="250.399234" xlink:href="#m734d981985" y="225.612828"/>
     <use style="fill:#9467bd;stroke:#9467bd;" x="256.094928" xlink:href="#m734d981985" y="227.297716"/>
     <use style="fill:#9467bd;stroke:#9467bd;" x="261.790622" xlink:href="#m734d981985" y="219.323005"/>
     <use style="fill:#9467bd;stroke:#9467bd;" x="267.486316" xlink:href="#m734d981985" y="203.915802"/>
     <use style="fill:#9467bd;stroke:#9467bd;" x="273.18201" xlink:href="#m734d981985" y="219.726067"/>
     <use style="fill:#9467bd;stroke:#9467bd;" x="278.877703" xlink:href="#m734d981985" y="208.348571"/>
     <use style="fill:#9467bd;stroke:#9467bd;" x="284.573397" xlink:href="#m734d981985" y="208.733907"/>
     <use style="fill:#9467bd;stroke:#9467bd;" x="290.269091" xlink:href="#m734d981985" y="219.665191"/>
     <use style="fill:#9467bd;stroke:#9467bd;" x="295.964785" xlink:href="#m734d981985" y="224.201433"/>
     <use style="fill:#9467bd;stroke:#9467bd;" x="301.660478" xlink:href="#m734d981985" y="233.838255"/>
     <use style="fill:#9467bd;stroke:#9467bd;" x="307.356172" xlink:href="#m734d981985" y="233.712893"/>
     <use style="fill:#9467bd;stroke:#9467bd;" x="313.051866" xlink:href="#m734d981985" y="244.303003"/>
     <use style="fill:#9467bd;stroke:#9467bd;" x="318.74756" xlink:href="#m734d981985" y="235.478427"/>
     <use style="fill:#9467bd;stroke:#9467bd;" x="324.443254" xlink:href="#m734d981985" y="238.406029"/>
     <use style="fill:#9467bd;stroke:#9467bd;" x="330.138947" xlink:href="#m734d981985" y="237.184135"/>
     <use style="fill:#9467bd;stroke:#9467bd;" x="335.834641" xlink:href="#m734d981985" y="264.345294"/>
     <use style="fill:#9467bd;stroke:#9467bd;" x="341.530335" xlink:href="#m734d981985" y="261.892408"/>
     <use style="fill:#9467bd;stroke:#9467bd;" x="347.226029" xlink:href="#m734d981985" y="263.940008"/>
     <use style="fill:#9467bd;stroke:#9467bd;" x="352.921722" xlink:href="#m734d981985" y="262.298192"/>
     <use style="fill:#9467bd;stroke:#9467bd;" x="358.617416" xlink:href="#m734d981985" y="268.029017"/>
     <use style="fill:#9467bd;stroke:#9467bd;" x="364.31311" xlink:href="#m734d981985" y="269.324925"/>
     <use style="fill:#9467bd;stroke:#9467bd;" x="370.008804" xlink:href="#m734d981985" y="259.620551"/>
     <use style="fill:#9467bd;stroke:#9467bd;" x="375.704498" xlink:href="#m734d981985" y="261.835976"/>
     <use style="fill:#9467bd;stroke:#9467bd;" x="73.832727" xlink:href="#m734d981985" y="53.568"/>
     <use style="fill:#9467bd;stroke:#9467bd;" x="79.528421" xlink:href="#m734d981985" y="53.568"/>
     <use style="fill:#9467bd;stroke:#9467bd;" x="85.224115" xlink:href="#m734d981985" y="53.568"/>
     <use style="fill:#9467bd;stroke:#9467bd;" x="90.919809" xlink:href="#m734d981985" y="53.568"/>
    </g>
   </g>
   <g id="patch_3">
    <path d="M 57.6 307.584 
L 57.6 41.472 
" style="fill:none;stroke:#000000;stroke-linecap:square;stroke-linejoin:miter;stroke-width:0.8;"/>
   </g>
   <g id="patch_4">
    <path d="M 414.72 307.584 
L 414.72 41.472 
" style="fill:none;stroke:#000000;stroke-linecap:square;stroke-linejoin:miter;stroke-width:0.8;"/>
   </g>
   <g id="patch_5">
    <path d="M 57.6 307.584 
L 414.72 307.584 
" style="fill:none;stroke:#000000;stroke-linecap:square;stroke-linejoin:miter;stroke-width:0.8;"/>
   </g>
   <g id="patch_6">
    <path d="M 57.6 41.472 
L 414.72 41.472 
" style="fill:none;stroke:#000000;stroke-linecap:square;stroke-linejoin:miter;stroke-width:0.8;"/>
   </g>
   <g id="text_16">
    <!-- Simulated Risky Portfolio Shares -->
    <defs>
     <path d="M 53.515625 70.515625 
L 53.515625 60.890625 
Q 47.90625 63.578125 42.921875 64.890625 
Q 37.9375 66.21875 33.296875 66.21875 
Q 25.25 66.21875 20.875 63.09375 
Q 16.5 59.96875 16.5 54.203125 
Q 16.5 49.359375 19.40625 46.890625 
Q 22.3125 44.4375 30.421875 42.921875 
L 36.375 41.703125 
Q 47.40625 39.59375 52.65625 34.296875 
Q 57.90625 29 57.90625 20.125 
Q 57.90625 9.515625 50.796875 4.046875 
Q 43.703125 -1.421875 29.984375 -1.421875 
Q 24.8125 -1.421875 18.96875 -0.25 
Q 13.140625 0.921875 6.890625 3.21875 
L 6.890625 13.375 
Q 12.890625 10.015625 18.65625 8.296875 
Q 24.421875 6.59375 29.984375 6.59375 
Q 38.421875 6.59375 43.015625 9.90625 
Q 47.609375 13.234375 47.609375 19.390625 
Q 47.609375 24.75 44.3125 27.78125 
Q 41.015625 30.8125 33.5 32.328125 
L 27.484375 33.5 
Q 16.453125 35.6875 11.515625 40.375 
Q 6.59375 45.0625 6.59375 53.421875 
Q 6.59375 63.09375 13.40625 68.65625 
Q 20.21875 74.21875 32.171875 74.21875 
Q 37.3125 74.21875 42.625 73.28125 
Q 47.953125 72.359375 53.515625 70.515625 
z
" id="DejaVuSans-83"/>
     <path d="M 52 44.1875 
Q 55.375 50.25 60.0625 53.125 
Q 64.75 56 71.09375 56 
Q 79.640625 56 84.28125 50.015625 
Q 88.921875 44.046875 88.921875 33.015625 
L 88.921875 0 
L 79.890625 0 
L 79.890625 32.71875 
Q 79.890625 40.578125 77.09375 44.375 
Q 74.3125 48.1875 68.609375 48.1875 
Q 61.625 48.1875 57.5625 43.546875 
Q 53.515625 38.921875 53.515625 30.90625 
L 53.515625 0 
L 44.484375 0 
L 44.484375 32.71875 
Q 44.484375 40.625 41.703125 44.40625 
Q 38.921875 48.1875 33.109375 48.1875 
Q 26.21875 48.1875 22.15625 43.53125 
Q 18.109375 38.875 18.109375 30.90625 
L 18.109375 0 
L 9.078125 0 
L 9.078125 54.6875 
L 18.109375 54.6875 
L 18.109375 46.1875 
Q 21.1875 51.21875 25.484375 53.609375 
Q 29.78125 56 35.6875 56 
Q 41.65625 56 45.828125 52.96875 
Q 50 49.953125 52 44.1875 
z
" id="DejaVuSans-109"/>
     <path d="M 8.5 21.578125 
L 8.5 54.6875 
L 17.484375 54.6875 
L 17.484375 21.921875 
Q 17.484375 14.15625 20.5 10.265625 
Q 23.53125 6.390625 29.59375 6.390625 
Q 36.859375 6.390625 41.078125 11.03125 
Q 45.3125 15.671875 45.3125 23.6875 
L 45.3125 54.6875 
L 54.296875 54.6875 
L 54.296875 0 
L 45.3125 0 
L 45.3125 8.40625 
Q 42.046875 3.421875 37.71875 1 
Q 33.40625 -1.421875 27.6875 -1.421875 
Q 18.265625 -1.421875 13.375 4.4375 
Q 8.5 10.296875 8.5 21.578125 
z
M 31.109375 56 
z
" id="DejaVuSans-117"/>
     <path d="M 9.421875 75.984375 
L 18.40625 75.984375 
L 18.40625 0 
L 9.421875 0 
z
" id="DejaVuSans-108"/>
     <path d="M 18.3125 70.21875 
L 18.3125 54.6875 
L 36.8125 54.6875 
L 36.8125 47.703125 
L 18.3125 47.703125 
L 18.3125 18.015625 
Q 18.3125 11.328125 20.140625 9.421875 
Q 21.96875 7.515625 27.59375 7.515625 
L 36.8125 7.515625 
L 36.8125 0 
L 27.59375 0 
Q 17.1875 0 13.234375 3.875 
Q 9.28125 7.765625 9.28125 18.015625 
L 9.28125 47.703125 
L 2.6875 47.703125 
L 2.6875 54.6875 
L 9.28125 54.6875 
L 9.28125 70.21875 
z
" id="DejaVuSans-116"/>
     <path d="M 45.40625 46.390625 
L 45.40625 75.984375 
L 54.390625 75.984375 
L 54.390625 0 
L 45.40625 0 
L 45.40625 8.203125 
Q 42.578125 3.328125 38.25 0.953125 
Q 33.9375 -1.421875 27.875 -1.421875 
Q 17.96875 -1.421875 11.734375 6.484375 
Q 5.515625 14.40625 5.515625 27.296875 
Q 5.515625 40.1875 11.734375 48.09375 
Q 17.96875 56 27.875 56 
Q 33.9375 56 38.25 53.625 
Q 42.578125 51.265625 45.40625 46.390625 
z
M 14.796875 27.296875 
Q 14.796875 17.390625 18.875 11.75 
Q 22.953125 6.109375 30.078125 6.109375 
Q 37.203125 6.109375 41.296875 11.75 
Q 45.40625 17.390625 45.40625 27.296875 
Q 45.40625 37.203125 41.296875 42.84375 
Q 37.203125 48.484375 30.078125 48.484375 
Q 22.953125 48.484375 18.875 42.84375 
Q 14.796875 37.203125 14.796875 27.296875 
z
" id="DejaVuSans-100"/>
     <path d="M 19.671875 64.796875 
L 19.671875 37.40625 
L 32.078125 37.40625 
Q 38.96875 37.40625 42.71875 40.96875 
Q 46.484375 44.53125 46.484375 51.125 
Q 46.484375 57.671875 42.71875 61.234375 
Q 38.96875 64.796875 32.078125 64.796875 
z
M 9.8125 72.90625 
L 32.078125 72.90625 
Q 44.34375 72.90625 50.609375 67.359375 
Q 56.890625 61.8125 56.890625 51.125 
Q 56.890625 40.328125 50.609375 34.8125 
Q 44.34375 29.296875 32.078125 29.296875 
L 19.671875 29.296875 
L 19.671875 0 
L 9.8125 0 
z
" id="DejaVuSans-80"/>
     <path d="M 30.609375 48.390625 
Q 23.390625 48.390625 19.1875 42.75 
Q 14.984375 37.109375 14.984375 27.296875 
Q 14.984375 17.484375 19.15625 11.84375 
Q 23.34375 6.203125 30.609375 6.203125 
Q 37.796875 6.203125 41.984375 11.859375 
Q 46.1875 17.53125 46.1875 27.296875 
Q 46.1875 37.015625 41.984375 42.703125 
Q 37.796875 48.390625 30.609375 48.390625 
z
M 30.609375 56 
Q 42.328125 56 49.015625 48.375 
Q 55.71875 40.765625 55.71875 27.296875 
Q 55.71875 13.875 49.015625 6.21875 
Q 42.328125 -1.421875 30.609375 -1.421875 
Q 18.84375 -1.421875 12.171875 6.21875 
Q 5.515625 13.875 5.515625 27.296875 
Q 5.515625 40.765625 12.171875 48.375 
Q 18.84375 56 30.609375 56 
z
" id="DejaVuSans-111"/>
     <path d="M 37.109375 75.984375 
L 37.109375 68.5 
L 28.515625 68.5 
Q 23.6875 68.5 21.796875 66.546875 
Q 19.921875 64.59375 19.921875 59.515625 
L 19.921875 54.6875 
L 34.71875 54.6875 
L 34.71875 47.703125 
L 19.921875 47.703125 
L 19.921875 0 
L 10.890625 0 
L 10.890625 47.703125 
L 2.296875 47.703125 
L 2.296875 54.6875 
L 10.890625 54.6875 
L 10.890625 58.5 
Q 10.890625 67.625 15.140625 71.796875 
Q 19.390625 75.984375 28.609375 75.984375 
z
" id="DejaVuSans-102"/>
    </defs>
    <g transform="translate(138.67125 35.472)scale(0.12 -0.12)">
     <use xlink:href="#DejaVuSans-83"/>
     <use x="63.476562" xlink:href="#DejaVuSans-105"/>
     <use x="91.259766" xlink:href="#DejaVuSans-109"/>
     <use x="188.671875" xlink:href="#DejaVuSans-117"/>
     <use x="252.050781" xlink:href="#DejaVuSans-108"/>
     <use x="279.833984" xlink:href="#DejaVuSans-97"/>
     <use x="341.113281" xlink:href="#DejaVuSans-116"/>
     <use x="380.322266" xlink:href="#DejaVuSans-101"/>
     <use x="441.845703" xlink:href="#DejaVuSans-100"/>
     <use x="505.322266" xlink:href="#DejaVuSans-32"/>
     <use x="537.109375" xlink:href="#DejaVuSans-82"/>
     <use x="606.591797" xlink:href="#DejaVuSans-105"/>
     <use x="634.375" xlink:href="#DejaVuSans-115"/>
     <use x="686.474609" xlink:href="#DejaVuSans-107"/>
     <use x="744.337891" xlink:href="#DejaVuSans-121"/>
     <use x="803.517578" xlink:href="#DejaVuSans-32"/>
     <use x="835.304688" xlink:href="#DejaVuSans-80"/>
     <use x="895.560547" xlink:href="#DejaVuSans-111"/>
     <use x="956.742188" xlink:href="#DejaVuSans-114"/>
     <use x="997.855469" xlink:href="#DejaVuSans-116"/>
     <use x="1037.064453" xlink:href="#DejaVuSans-102"/>
     <use x="1072.269531" xlink:href="#DejaVuSans-111"/>
     <use x="1133.451172" xlink:href="#DejaVuSans-108"/>
     <use x="1161.234375" xlink:href="#DejaVuSans-105"/>
     <use x="1189.017578" xlink:href="#DejaVuSans-111"/>
     <use x="1250.199219" xlink:href="#DejaVuSans-32"/>
     <use x="1281.986328" xlink:href="#DejaVuSans-83"/>
     <use x="1345.462891" xlink:href="#DejaVuSans-104"/>
     <use x="1408.841797" xlink:href="#DejaVuSans-97"/>
     <use x="1470.121094" xlink:href="#DejaVuSans-114"/>
     <use x="1511.203125" xlink:href="#DejaVuSans-101"/>
     <use x="1572.726562" xlink:href="#DejaVuSans-115"/>
    </g>
   </g>
  </g>
 </g>
 <defs>
  <clipPath id="p13ce199b9d">
   <rect height="266.112" width="357.12" x="57.6" y="41.472"/>
  </clipPath>
 </defs>
</svg>
