<?xml version="1.0" encoding="utf-8" standalone="no"?>
<!DOCTYPE svg PUBLIC "-//W3C//DTD SVG 1.1//EN"
  "http://www.w3.org/Graphics/SVG/1.1/DTD/svg11.dtd">
<!-- Created with matplotlib (https://matplotlib.org/) -->
<svg height="288pt" version="1.1" viewBox="0 0 720 288" width="720pt" xmlns="http://www.w3.org/2000/svg" xmlns:xlink="http://www.w3.org/1999/xlink">
 <defs>
  <style type="text/css">
*{stroke-linecap:butt;stroke-linejoin:round;}
  </style>
 </defs>
 <g id="figure_1">
  <g id="patch_1">
   <path d="M 0 288 
L 720 288 
L 720 0 
L 0 0 
z
" style="fill:#ffffff;"/>
  </g>
  <g id="axes_1">
   <g id="patch_2">
    <path d="M 40.12 120.5216 
L 351.99 120.5216 
L 351.99 32.64 
L 40.12 32.64 
z
" style="fill:#ffffff;"/>
   </g>
   <g id="matplotlib.axis_1">
    <g id="xtick_1">
     <g id="line2d_1">
      <path clip-path="url(#p20acaf4706)" d="M 51.460727 120.5216 
L 51.460727 32.64 
" style="fill:none;stroke:#b0b0b0;stroke-linecap:square;stroke-width:0.8;"/>
     </g>
     <g id="line2d_2">
      <defs>
       <path d="M 0 0 
L 0 3.5 
" id="m2aba279817" style="stroke:#000000;stroke-width:0.8;"/>
      </defs>
      <g>
       <use style="stroke:#000000;stroke-width:0.8;" x="51.460727" xlink:href="#m2aba279817" y="120.5216"/>
      </g>
     </g>
    </g>
    <g id="xtick_2">
     <g id="line2d_3">
      <path clip-path="url(#p20acaf4706)" d="M 86.9005 120.5216 
L 86.9005 32.64 
" style="fill:none;stroke:#b0b0b0;stroke-linecap:square;stroke-width:0.8;"/>
     </g>
     <g id="line2d_4">
      <g>
       <use style="stroke:#000000;stroke-width:0.8;" x="86.9005" xlink:href="#m2aba279817" y="120.5216"/>
      </g>
     </g>
    </g>
    <g id="xtick_3">
     <g id="line2d_5">
      <path clip-path="url(#p20acaf4706)" d="M 122.340273 120.5216 
L 122.340273 32.64 
" style="fill:none;stroke:#b0b0b0;stroke-linecap:square;stroke-width:0.8;"/>
     </g>
     <g id="line2d_6">
      <g>
       <use style="stroke:#000000;stroke-width:0.8;" x="122.340273" xlink:href="#m2aba279817" y="120.5216"/>
      </g>
     </g>
    </g>
    <g id="xtick_4">
     <g id="line2d_7">
      <path clip-path="url(#p20acaf4706)" d="M 157.780045 120.5216 
L 157.780045 32.64 
" style="fill:none;stroke:#b0b0b0;stroke-linecap:square;stroke-width:0.8;"/>
     </g>
     <g id="line2d_8">
      <g>
       <use style="stroke:#000000;stroke-width:0.8;" x="157.780045" xlink:href="#m2aba279817" y="120.5216"/>
      </g>
     </g>
    </g>
    <g id="xtick_5">
     <g id="line2d_9">
      <path clip-path="url(#p20acaf4706)" d="M 193.219818 120.5216 
L 193.219818 32.64 
" style="fill:none;stroke:#b0b0b0;stroke-linecap:square;stroke-width:0.8;"/>
     </g>
     <g id="line2d_10">
      <g>
       <use style="stroke:#000000;stroke-width:0.8;" x="193.219818" xlink:href="#m2aba279817" y="120.5216"/>
      </g>
     </g>
    </g>
    <g id="xtick_6">
     <g id="line2d_11">
      <path clip-path="url(#p20acaf4706)" d="M 228.659591 120.5216 
L 228.659591 32.64 
" style="fill:none;stroke:#b0b0b0;stroke-linecap:square;stroke-width:0.8;"/>
     </g>
     <g id="line2d_12">
      <g>
       <use style="stroke:#000000;stroke-width:0.8;" x="228.659591" xlink:href="#m2aba279817" y="120.5216"/>
      </g>
     </g>
    </g>
    <g id="xtick_7">
     <g id="line2d_13">
      <path clip-path="url(#p20acaf4706)" d="M 264.099364 120.5216 
L 264.099364 32.64 
" style="fill:none;stroke:#b0b0b0;stroke-linecap:square;stroke-width:0.8;"/>
     </g>
     <g id="line2d_14">
      <g>
       <use style="stroke:#000000;stroke-width:0.8;" x="264.099364" xlink:href="#m2aba279817" y="120.5216"/>
      </g>
     </g>
    </g>
    <g id="xtick_8">
     <g id="line2d_15">
      <path clip-path="url(#p20acaf4706)" d="M 299.539136 120.5216 
L 299.539136 32.64 
" style="fill:none;stroke:#b0b0b0;stroke-linecap:square;stroke-width:0.8;"/>
     </g>
     <g id="line2d_16">
      <g>
       <use style="stroke:#000000;stroke-width:0.8;" x="299.539136" xlink:href="#m2aba279817" y="120.5216"/>
      </g>
     </g>
    </g>
    <g id="xtick_9">
     <g id="line2d_17">
      <path clip-path="url(#p20acaf4706)" d="M 334.978909 120.5216 
L 334.978909 32.64 
" style="fill:none;stroke:#b0b0b0;stroke-linecap:square;stroke-width:0.8;"/>
     </g>
     <g id="line2d_18">
      <g>
       <use style="stroke:#000000;stroke-width:0.8;" x="334.978909" xlink:href="#m2aba279817" y="120.5216"/>
      </g>
     </g>
    </g>
   </g>
   <g id="matplotlib.axis_2">
    <g id="ytick_1">
     <g id="line2d_19">
      <path clip-path="url(#p20acaf4706)" d="M 40.12 118.623233 
L 351.99 118.623233 
" style="fill:none;stroke:#b0b0b0;stroke-linecap:square;stroke-width:0.8;"/>
     </g>
     <g id="line2d_20">
      <defs>
       <path d="M 0 0 
L -3.5 0 
" id="m3379ec8895" style="stroke:#000000;stroke-width:0.8;"/>
      </defs>
      <g>
       <use style="stroke:#000000;stroke-width:0.8;" x="40.12" xlink:href="#m3379ec8895" y="118.623233"/>
      </g>
     </g>
     <g id="text_1">
      <!-- 0 -->
      <defs>
       <path d="M 31.78125 66.40625 
Q 24.171875 66.40625 20.328125 58.90625 
Q 16.5 51.421875 16.5 36.375 
Q 16.5 21.390625 20.328125 13.890625 
Q 24.171875 6.390625 31.78125 6.390625 
Q 39.453125 6.390625 43.28125 13.890625 
Q 47.125 21.390625 47.125 36.375 
Q 47.125 51.421875 43.28125 58.90625 
Q 39.453125 66.40625 31.78125 66.40625 
z
M 31.78125 74.21875 
Q 44.046875 74.21875 50.515625 64.515625 
Q 56.984375 54.828125 56.984375 36.375 
Q 56.984375 17.96875 50.515625 8.265625 
Q 44.046875 -1.421875 31.78125 -1.421875 
Q 19.53125 -1.421875 13.0625 8.265625 
Q 6.59375 17.96875 6.59375 36.375 
Q 6.59375 54.828125 13.0625 64.515625 
Q 19.53125 74.21875 31.78125 74.21875 
z
" id="DejaVuSans-48"/>
      </defs>
      <g transform="translate(26.7575 122.422452)scale(0.1 -0.1)">
       <use xlink:href="#DejaVuSans-48"/>
      </g>
     </g>
    </g>
    <g id="ytick_2">
     <g id="line2d_21">
      <path clip-path="url(#p20acaf4706)" d="M 40.12 92.385614 
L 351.99 92.385614 
" style="fill:none;stroke:#b0b0b0;stroke-linecap:square;stroke-width:0.8;"/>
     </g>
     <g id="line2d_22">
      <g>
       <use style="stroke:#000000;stroke-width:0.8;" x="40.12" xlink:href="#m3379ec8895" y="92.385614"/>
      </g>
     </g>
     <g id="text_2">
      <!-- 50 -->
      <defs>
       <path d="M 10.796875 72.90625 
L 49.515625 72.90625 
L 49.515625 64.59375 
L 19.828125 64.59375 
L 19.828125 46.734375 
Q 21.96875 47.46875 24.109375 47.828125 
Q 26.265625 48.1875 28.421875 48.1875 
Q 40.625 48.1875 47.75 41.5 
Q 54.890625 34.8125 54.890625 23.390625 
Q 54.890625 11.625 47.5625 5.09375 
Q 40.234375 -1.421875 26.90625 -1.421875 
Q 22.3125 -1.421875 17.546875 -0.640625 
Q 12.796875 0.140625 7.71875 1.703125 
L 7.71875 11.625 
Q 12.109375 9.234375 16.796875 8.0625 
Q 21.484375 6.890625 26.703125 6.890625 
Q 35.15625 6.890625 40.078125 11.328125 
Q 45.015625 15.765625 45.015625 23.390625 
Q 45.015625 31 40.078125 35.4375 
Q 35.15625 39.890625 26.703125 39.890625 
Q 22.75 39.890625 18.8125 39.015625 
Q 14.890625 38.140625 10.796875 36.28125 
z
" id="DejaVuSans-53"/>
      </defs>
      <g transform="translate(20.395 96.184832)scale(0.1 -0.1)">
       <use xlink:href="#DejaVuSans-53"/>
       <use x="63.623047" xlink:href="#DejaVuSans-48"/>
      </g>
     </g>
    </g>
    <g id="ytick_3">
     <g id="line2d_23">
      <path clip-path="url(#p20acaf4706)" d="M 40.12 66.147994 
L 351.99 66.147994 
" style="fill:none;stroke:#b0b0b0;stroke-linecap:square;stroke-width:0.8;"/>
     </g>
     <g id="line2d_24">
      <g>
       <use style="stroke:#000000;stroke-width:0.8;" x="40.12" xlink:href="#m3379ec8895" y="66.147994"/>
      </g>
     </g>
     <g id="text_3">
      <!-- 100 -->
      <defs>
       <path d="M 12.40625 8.296875 
L 28.515625 8.296875 
L 28.515625 63.921875 
L 10.984375 60.40625 
L 10.984375 69.390625 
L 28.421875 72.90625 
L 38.28125 72.90625 
L 38.28125 8.296875 
L 54.390625 8.296875 
L 54.390625 0 
L 12.40625 0 
z
" id="DejaVuSans-49"/>
      </defs>
      <g transform="translate(14.0325 69.947213)scale(0.1 -0.1)">
       <use xlink:href="#DejaVuSans-49"/>
       <use x="63.623047" xlink:href="#DejaVuSans-48"/>
       <use x="127.246094" xlink:href="#DejaVuSans-48"/>
      </g>
     </g>
    </g>
    <g id="ytick_4">
     <g id="line2d_25">
      <path clip-path="url(#p20acaf4706)" d="M 40.12 39.910375 
L 351.99 39.910375 
" style="fill:none;stroke:#b0b0b0;stroke-linecap:square;stroke-width:0.8;"/>
     </g>
     <g id="line2d_26">
      <g>
       <use style="stroke:#000000;stroke-width:0.8;" x="40.12" xlink:href="#m3379ec8895" y="39.910375"/>
      </g>
     </g>
     <g id="text_4">
      <!-- 150 -->
      <g transform="translate(14.0325 43.709593)scale(0.1 -0.1)">
       <use xlink:href="#DejaVuSans-49"/>
       <use x="63.623047" xlink:href="#DejaVuSans-53"/>
       <use x="127.246094" xlink:href="#DejaVuSans-48"/>
      </g>
     </g>
    </g>
   </g>
   <g id="line2d_27">
    <path clip-path="url(#p20acaf4706)" d="M 54.295909 116.524223 
L 65.636636 108.259373 
L 66.345432 107.865809 
L 68.471818 107.07868 
L 69.180614 106.947492 
L 69.889409 106.685116 
L 70.598205 106.553928 
L 71.307 106.291552 
L 76.268568 105.373235 
L 76.977364 105.373235 
L 78.394955 105.110859 
L 79.10375 105.110859 
L 79.812545 104.979671 
L 80.521341 104.979671 
L 81.230136 104.848483 
L 82.647727 104.848483 
L 83.356523 104.717295 
L 84.774114 104.717295 
L 85.482909 104.586107 
L 86.9005 104.586107 
L 87.609295 104.454918 
L 89.735682 104.454918 
L 90.444477 104.32373 
L 93.279659 104.32373 
L 93.988455 104.192542 
L 96.114841 104.192542 
L 96.823636 104.061354 
L 99.658818 104.061354 
L 100.367614 103.930166 
L 103.202795 103.930166 
L 103.911591 103.798978 
L 107.455568 103.798978 
L 108.164364 103.66779 
L 110.999545 103.66779 
L 111.708341 103.536602 
L 114.543523 103.536602 
L 115.252318 103.405414 
L 118.796295 103.405414 
L 119.505091 103.274226 
L 123.049068 103.274226 
L 123.757864 103.143038 
L 126.593045 103.143038 
L 127.301841 103.011849 
L 130.845818 103.011849 
L 131.554614 102.880661 
L 135.098591 102.880661 
L 135.807386 102.749473 
L 139.351364 102.749473 
L 140.060159 102.618285 
L 143.604136 102.618285 
L 144.312932 102.487097 
L 148.565705 102.487097 
L 149.2745 102.355909 
L 152.818477 102.355909 
L 153.527273 102.224721 
L 157.07125 102.224721 
L 157.780045 102.093533 
L 162.032818 102.093533 
L 162.741614 101.962345 
L 166.285591 101.962345 
L 166.994386 101.831157 
L 171.247159 101.831157 
L 171.955955 101.699968 
L 176.208727 101.699968 
L 176.917523 101.56878 
L 181.170295 101.56878 
L 181.879091 101.437592 
L 185.423068 101.437592 
L 186.131864 101.306404 
L 190.384636 101.306404 
L 191.093432 101.175216 
L 195.346205 101.175216 
L 196.055 101.044028 
L 200.307773 101.044028 
L 201.016568 100.91284 
L 205.269341 100.91284 
L 205.978136 100.781652 
L 210.230909 100.781652 
L 210.939705 100.650464 
L 215.192477 100.650464 
L 215.901273 100.519276 
L 220.154045 100.519276 
L 220.862841 100.388087 
L 225.115614 100.388087 
L 225.824409 100.256899 
L 230.077182 100.256899 
L 230.785977 100.125711 
L 235.03875 100.125711 
L 235.747545 99.994523 
L 239.291523 99.994523 
L 240.000318 99.863335 
L 244.253091 99.863335 
L 244.961886 99.732147 
L 249.214659 99.732147 
L 249.923455 99.600959 
L 253.467432 99.600959 
L 254.176227 99.469771 
L 258.429 99.469771 
L 259.137795 99.338583 
L 263.390568 99.338583 
L 264.099364 99.207395 
L 267.643341 99.207395 
L 268.352136 99.076206 
L 271.896114 99.076206 
L 272.604909 98.945018 
L 276.148886 98.945018 
L 276.857682 98.81383 
L 280.401659 98.81383 
L 281.110455 98.682642 
L 284.654432 98.682642 
L 285.363227 98.551454 
L 288.907205 98.551454 
L 289.616 98.420266 
L 292.451182 98.420266 
L 293.159977 98.289078 
L 296.703955 98.289078 
L 297.41275 98.15789 
L 300.247932 98.15789 
L 300.956727 98.026702 
L 303.791909 98.026702 
L 304.500705 97.895514 
L 307.335886 97.895514 
L 308.044682 97.764326 
L 310.171068 97.764326 
L 310.879864 97.633137 
L 313.715045 97.633137 
L 314.423841 97.501949 
L 316.550227 97.501949 
L 317.259023 97.370761 
L 319.385409 97.370761 
L 320.094205 97.239573 
L 321.511795 97.239573 
L 322.220591 97.108385 
L 324.346977 97.108385 
L 325.055773 96.977197 
L 326.473364 96.977197 
L 327.182159 96.846009 
L 328.59975 96.846009 
L 330.017341 96.583633 
L 331.434932 96.583633 
L 332.852523 96.321256 
L 335.687705 96.321256 
L 336.3965 96.05888 
L 337.105295 95.927692 
L 337.814091 95.927692 
L 337.814091 95.927692 
" style="fill:none;stroke:#1f77b4;stroke-linecap:square;stroke-width:1.5;"/>
   </g>
   <g id="line2d_28">
    <path clip-path="url(#p20acaf4706)" d="M 54.295909 116.526982 
L 66.345432 107.617914 
L 67.763023 106.982608 
L 70.598205 106.115974 
L 83.356523 102.538171 
L 110.999545 95.13057 
L 153.527273 83.980835 
L 220.154045 66.764756 
L 331.434932 38.263781 
L 337.814091 36.634618 
L 337.814091 36.634618 
" style="fill:none;stroke:#ff7f0e;stroke-linecap:square;stroke-width:1.5;"/>
   </g>
   <g id="patch_3">
    <path d="M 40.12 120.5216 
L 40.12 32.64 
" style="fill:none;stroke:#000000;stroke-linecap:square;stroke-linejoin:miter;stroke-width:0.8;"/>
   </g>
   <g id="patch_4">
    <path d="M 351.99 120.5216 
L 351.99 32.64 
" style="fill:none;stroke:#000000;stroke-linecap:square;stroke-linejoin:miter;stroke-width:0.8;"/>
   </g>
   <g id="patch_5">
    <path d="M 40.12 120.5216 
L 351.99 120.5216 
" style="fill:none;stroke:#000000;stroke-linecap:square;stroke-linejoin:miter;stroke-width:0.8;"/>
   </g>
   <g id="patch_6">
    <path d="M 40.12 32.64 
L 351.99 32.64 
" style="fill:none;stroke:#000000;stroke-linecap:square;stroke-linejoin:miter;stroke-width:0.8;"/>
   </g>
   <g id="text_5">
    <!-- Cons. Functions -->
    <defs>
     <path d="M 64.40625 67.28125 
L 64.40625 56.890625 
Q 59.421875 61.53125 53.78125 63.8125 
Q 48.140625 66.109375 41.796875 66.109375 
Q 29.296875 66.109375 22.65625 58.46875 
Q 16.015625 50.828125 16.015625 36.375 
Q 16.015625 21.96875 22.65625 14.328125 
Q 29.296875 6.6875 41.796875 6.6875 
Q 48.140625 6.6875 53.78125 8.984375 
Q 59.421875 11.28125 64.40625 15.921875 
L 64.40625 5.609375 
Q 59.234375 2.09375 53.4375 0.328125 
Q 47.65625 -1.421875 41.21875 -1.421875 
Q 24.65625 -1.421875 15.125 8.703125 
Q 5.609375 18.84375 5.609375 36.375 
Q 5.609375 53.953125 15.125 64.078125 
Q 24.65625 74.21875 41.21875 74.21875 
Q 47.75 74.21875 53.53125 72.484375 
Q 59.328125 70.75 64.40625 67.28125 
z
" id="DejaVuSans-67"/>
     <path d="M 30.609375 48.390625 
Q 23.390625 48.390625 19.1875 42.75 
Q 14.984375 37.109375 14.984375 27.296875 
Q 14.984375 17.484375 19.15625 11.84375 
Q 23.34375 6.203125 30.609375 6.203125 
Q 37.796875 6.203125 41.984375 11.859375 
Q 46.1875 17.53125 46.1875 27.296875 
Q 46.1875 37.015625 41.984375 42.703125 
Q 37.796875 48.390625 30.609375 48.390625 
z
M 30.609375 56 
Q 42.328125 56 49.015625 48.375 
Q 55.71875 40.765625 55.71875 27.296875 
Q 55.71875 13.875 49.015625 6.21875 
Q 42.328125 -1.421875 30.609375 -1.421875 
Q 18.84375 -1.421875 12.171875 6.21875 
Q 5.515625 13.875 5.515625 27.296875 
Q 5.515625 40.765625 12.171875 48.375 
Q 18.84375 56 30.609375 56 
z
" id="DejaVuSans-111"/>
     <path d="M 54.890625 33.015625 
L 54.890625 0 
L 45.90625 0 
L 45.90625 32.71875 
Q 45.90625 40.484375 42.875 44.328125 
Q 39.84375 48.1875 33.796875 48.1875 
Q 26.515625 48.1875 22.3125 43.546875 
Q 18.109375 38.921875 18.109375 30.90625 
L 18.109375 0 
L 9.078125 0 
L 9.078125 54.6875 
L 18.109375 54.6875 
L 18.109375 46.1875 
Q 21.34375 51.125 25.703125 53.5625 
Q 30.078125 56 35.796875 56 
Q 45.21875 56 50.046875 50.171875 
Q 54.890625 44.34375 54.890625 33.015625 
z
" id="DejaVuSans-110"/>
     <path d="M 44.28125 53.078125 
L 44.28125 44.578125 
Q 40.484375 46.53125 36.375 47.5 
Q 32.28125 48.484375 27.875 48.484375 
Q 21.1875 48.484375 17.84375 46.4375 
Q 14.5 44.390625 14.5 40.28125 
Q 14.5 37.15625 16.890625 35.375 
Q 19.28125 33.59375 26.515625 31.984375 
L 29.59375 31.296875 
Q 39.15625 29.25 43.1875 25.515625 
Q 47.21875 21.78125 47.21875 15.09375 
Q 47.21875 7.46875 41.1875 3.015625 
Q 35.15625 -1.421875 24.609375 -1.421875 
Q 20.21875 -1.421875 15.453125 -0.5625 
Q 10.6875 0.296875 5.421875 2 
L 5.421875 11.28125 
Q 10.40625 8.6875 15.234375 7.390625 
Q 20.0625 6.109375 24.8125 6.109375 
Q 31.15625 6.109375 34.5625 8.28125 
Q 37.984375 10.453125 37.984375 14.40625 
Q 37.984375 18.0625 35.515625 20.015625 
Q 33.0625 21.96875 24.703125 23.78125 
L 21.578125 24.515625 
Q 13.234375 26.265625 9.515625 29.90625 
Q 5.8125 33.546875 5.8125 39.890625 
Q 5.8125 47.609375 11.28125 51.796875 
Q 16.75 56 26.8125 56 
Q 31.78125 56 36.171875 55.265625 
Q 40.578125 54.546875 44.28125 53.078125 
z
" id="DejaVuSans-115"/>
     <path d="M 10.6875 12.40625 
L 21 12.40625 
L 21 0 
L 10.6875 0 
z
" id="DejaVuSans-46"/>
     <path id="DejaVuSans-32"/>
     <path d="M 9.8125 72.90625 
L 51.703125 72.90625 
L 51.703125 64.59375 
L 19.671875 64.59375 
L 19.671875 43.109375 
L 48.578125 43.109375 
L 48.578125 34.8125 
L 19.671875 34.8125 
L 19.671875 0 
L 9.8125 0 
z
" id="DejaVuSans-70"/>
     <path d="M 8.5 21.578125 
L 8.5 54.6875 
L 17.484375 54.6875 
L 17.484375 21.921875 
Q 17.484375 14.15625 20.5 10.265625 
Q 23.53125 6.390625 29.59375 6.390625 
Q 36.859375 6.390625 41.078125 11.03125 
Q 45.3125 15.671875 45.3125 23.6875 
L 45.3125 54.6875 
L 54.296875 54.6875 
L 54.296875 0 
L 45.3125 0 
L 45.3125 8.40625 
Q 42.046875 3.421875 37.71875 1 
Q 33.40625 -1.421875 27.6875 -1.421875 
Q 18.265625 -1.421875 13.375 4.4375 
Q 8.5 10.296875 8.5 21.578125 
z
M 31.109375 56 
z
" id="DejaVuSans-117"/>
     <path d="M 48.78125 52.59375 
L 48.78125 44.1875 
Q 44.96875 46.296875 41.140625 47.34375 
Q 37.3125 48.390625 33.40625 48.390625 
Q 24.65625 48.390625 19.8125 42.84375 
Q 14.984375 37.3125 14.984375 27.296875 
Q 14.984375 17.28125 19.8125 11.734375 
Q 24.65625 6.203125 33.40625 6.203125 
Q 37.3125 6.203125 41.140625 7.25 
Q 44.96875 8.296875 48.78125 10.40625 
L 48.78125 2.09375 
Q 45.015625 0.34375 40.984375 -0.53125 
Q 36.96875 -1.421875 32.421875 -1.421875 
Q 20.0625 -1.421875 12.78125 6.34375 
Q 5.515625 14.109375 5.515625 27.296875 
Q 5.515625 40.671875 12.859375 48.328125 
Q 20.21875 56 33.015625 56 
Q 37.15625 56 41.109375 55.140625 
Q 45.0625 54.296875 48.78125 52.59375 
z
" id="DejaVuSans-99"/>
     <path d="M 18.3125 70.21875 
L 18.3125 54.6875 
L 36.8125 54.6875 
L 36.8125 47.703125 
L 18.3125 47.703125 
L 18.3125 18.015625 
Q 18.3125 11.328125 20.140625 9.421875 
Q 21.96875 7.515625 27.59375 7.515625 
L 36.8125 7.515625 
L 36.8125 0 
L 27.59375 0 
Q 17.1875 0 13.234375 3.875 
Q 9.28125 7.765625 9.28125 18.015625 
L 9.28125 47.703125 
L 2.6875 47.703125 
L 2.6875 54.6875 
L 9.28125 54.6875 
L 9.28125 70.21875 
z
" id="DejaVuSans-116"/>
     <path d="M 9.421875 54.6875 
L 18.40625 54.6875 
L 18.40625 0 
L 9.421875 0 
z
M 9.421875 75.984375 
L 18.40625 75.984375 
L 18.40625 64.59375 
L 9.421875 64.59375 
z
" id="DejaVuSans-105"/>
    </defs>
    <g transform="translate(148.483438 26.64)scale(0.12 -0.12)">
     <use xlink:href="#DejaVuSans-67"/>
     <use x="69.824219" xlink:href="#DejaVuSans-111"/>
     <use x="131.005859" xlink:href="#DejaVuSans-110"/>
     <use x="194.384766" xlink:href="#DejaVuSans-115"/>
     <use x="246.484375" xlink:href="#DejaVuSans-46"/>
     <use x="278.271484" xlink:href="#DejaVuSans-32"/>
     <use x="310.058594" xlink:href="#DejaVuSans-70"/>
     <use x="367.5" xlink:href="#DejaVuSans-117"/>
     <use x="430.878906" xlink:href="#DejaVuSans-110"/>
     <use x="494.257812" xlink:href="#DejaVuSans-99"/>
     <use x="549.238281" xlink:href="#DejaVuSans-116"/>
     <use x="588.447266" xlink:href="#DejaVuSans-105"/>
     <use x="616.230469" xlink:href="#DejaVuSans-111"/>
     <use x="677.412109" xlink:href="#DejaVuSans-110"/>
     <use x="740.791016" xlink:href="#DejaVuSans-115"/>
    </g>
   </g>
   <g id="legend_1">
    <g id="patch_7">
     <path d="M 47.12 69.99625 
L 106.987188 69.99625 
Q 108.987188 69.99625 108.987188 67.99625 
L 108.987188 39.64 
Q 108.987188 37.64 106.987188 37.64 
L 47.12 37.64 
Q 45.12 37.64 45.12 39.64 
L 45.12 67.99625 
Q 45.12 69.99625 47.12 69.99625 
z
" style="fill:#ffffff;opacity:0.8;stroke:#cccccc;stroke-linejoin:miter;"/>
    </g>
    <g id="line2d_29">
     <path d="M 49.12 45.738438 
L 69.12 45.738438 
" style="fill:none;stroke:#1f77b4;stroke-linecap:square;stroke-width:1.5;"/>
    </g>
    <g id="line2d_30"/>
    <g id="text_6">
     <!-- CGM -->
     <defs>
      <path d="M 59.515625 10.40625 
L 59.515625 29.984375 
L 43.40625 29.984375 
L 43.40625 38.09375 
L 69.28125 38.09375 
L 69.28125 6.78125 
Q 63.578125 2.734375 56.6875 0.65625 
Q 49.8125 -1.421875 42 -1.421875 
Q 24.90625 -1.421875 15.25 8.5625 
Q 5.609375 18.5625 5.609375 36.375 
Q 5.609375 54.25 15.25 64.234375 
Q 24.90625 74.21875 42 74.21875 
Q 49.125 74.21875 55.546875 72.453125 
Q 61.96875 70.703125 67.390625 67.28125 
L 67.390625 56.78125 
Q 61.921875 61.421875 55.765625 63.765625 
Q 49.609375 66.109375 42.828125 66.109375 
Q 29.4375 66.109375 22.71875 58.640625 
Q 16.015625 51.171875 16.015625 36.375 
Q 16.015625 21.625 22.71875 14.15625 
Q 29.4375 6.6875 42.828125 6.6875 
Q 48.046875 6.6875 52.140625 7.59375 
Q 56.25 8.5 59.515625 10.40625 
z
" id="DejaVuSans-71"/>
      <path d="M 9.8125 72.90625 
L 24.515625 72.90625 
L 43.109375 23.296875 
L 61.8125 72.90625 
L 76.515625 72.90625 
L 76.515625 0 
L 66.890625 0 
L 66.890625 64.015625 
L 48.09375 14.015625 
L 38.1875 14.015625 
L 19.390625 64.015625 
L 19.390625 0 
L 9.8125 0 
z
" id="DejaVuSans-77"/>
     </defs>
     <g transform="translate(77.12 49.238438)scale(0.1 -0.1)">
      <use xlink:href="#DejaVuSans-67"/>
      <use x="69.824219" xlink:href="#DejaVuSans-71"/>
      <use x="147.314453" xlink:href="#DejaVuSans-77"/>
     </g>
    </g>
    <g id="line2d_31">
     <path d="M 49.12 60.416563 
L 69.12 60.416563 
" style="fill:none;stroke:#ff7f0e;stroke-linecap:square;stroke-width:1.5;"/>
    </g>
    <g id="line2d_32"/>
    <g id="text_7">
     <!-- HARK -->
     <defs>
      <path d="M 9.8125 72.90625 
L 19.671875 72.90625 
L 19.671875 43.015625 
L 55.515625 43.015625 
L 55.515625 72.90625 
L 65.375 72.90625 
L 65.375 0 
L 55.515625 0 
L 55.515625 34.71875 
L 19.671875 34.71875 
L 19.671875 0 
L 9.8125 0 
z
" id="DejaVuSans-72"/>
      <path d="M 34.1875 63.1875 
L 20.796875 26.90625 
L 47.609375 26.90625 
z
M 28.609375 72.90625 
L 39.796875 72.90625 
L 67.578125 0 
L 57.328125 0 
L 50.6875 18.703125 
L 17.828125 18.703125 
L 11.1875 0 
L 0.78125 0 
z
" id="DejaVuSans-65"/>
      <path d="M 44.390625 34.1875 
Q 47.5625 33.109375 50.5625 29.59375 
Q 53.5625 26.078125 56.59375 19.921875 
L 66.609375 0 
L 56 0 
L 46.6875 18.703125 
Q 43.0625 26.03125 39.671875 28.421875 
Q 36.28125 30.8125 30.421875 30.8125 
L 19.671875 30.8125 
L 19.671875 0 
L 9.8125 0 
L 9.8125 72.90625 
L 32.078125 72.90625 
Q 44.578125 72.90625 50.734375 67.671875 
Q 56.890625 62.453125 56.890625 51.90625 
Q 56.890625 45.015625 53.6875 40.46875 
Q 50.484375 35.9375 44.390625 34.1875 
z
M 19.671875 64.796875 
L 19.671875 38.921875 
L 32.078125 38.921875 
Q 39.203125 38.921875 42.84375 42.21875 
Q 46.484375 45.515625 46.484375 51.90625 
Q 46.484375 58.296875 42.84375 61.546875 
Q 39.203125 64.796875 32.078125 64.796875 
z
" id="DejaVuSans-82"/>
      <path d="M 9.8125 72.90625 
L 19.671875 72.90625 
L 19.671875 42.09375 
L 52.390625 72.90625 
L 65.09375 72.90625 
L 28.90625 38.921875 
L 67.671875 0 
L 54.6875 0 
L 19.671875 35.109375 
L 19.671875 0 
L 9.8125 0 
z
" id="DejaVuSans-75"/>
     </defs>
     <g transform="translate(77.12 63.916563)scale(0.1 -0.1)">
      <use xlink:href="#DejaVuSans-72"/>
      <use x="75.195312" xlink:href="#DejaVuSans-65"/>
      <use x="143.603516" xlink:href="#DejaVuSans-82"/>
      <use x="213.085938" xlink:href="#DejaVuSans-75"/>
     </g>
    </g>
   </g>
  </g>
  <g id="axes_2">
   <g id="patch_8">
    <path d="M 397.33 120.5216 
L 709.2 120.5216 
L 709.2 32.64 
L 397.33 32.64 
z
" style="fill:#ffffff;"/>
   </g>
   <g id="matplotlib.axis_3">
    <g id="xtick_10">
     <g id="line2d_33">
      <path clip-path="url(#pa2e497b1a7)" d="M 408.670727 120.5216 
L 408.670727 32.64 
" style="fill:none;stroke:#b0b0b0;stroke-linecap:square;stroke-width:0.8;"/>
     </g>
     <g id="line2d_34">
      <g>
       <use style="stroke:#000000;stroke-width:0.8;" x="408.670727" xlink:href="#m2aba279817" y="120.5216"/>
      </g>
     </g>
    </g>
    <g id="xtick_11">
     <g id="line2d_35">
      <path clip-path="url(#pa2e497b1a7)" d="M 444.1105 120.5216 
L 444.1105 32.64 
" style="fill:none;stroke:#b0b0b0;stroke-linecap:square;stroke-width:0.8;"/>
     </g>
     <g id="line2d_36">
      <g>
       <use style="stroke:#000000;stroke-width:0.8;" x="444.1105" xlink:href="#m2aba279817" y="120.5216"/>
      </g>
     </g>
    </g>
    <g id="xtick_12">
     <g id="line2d_37">
      <path clip-path="url(#pa2e497b1a7)" d="M 479.550273 120.5216 
L 479.550273 32.64 
" style="fill:none;stroke:#b0b0b0;stroke-linecap:square;stroke-width:0.8;"/>
     </g>
     <g id="line2d_38">
      <g>
       <use style="stroke:#000000;stroke-width:0.8;" x="479.550273" xlink:href="#m2aba279817" y="120.5216"/>
      </g>
     </g>
    </g>
    <g id="xtick_13">
     <g id="line2d_39">
      <path clip-path="url(#pa2e497b1a7)" d="M 514.990045 120.5216 
L 514.990045 32.64 
" style="fill:none;stroke:#b0b0b0;stroke-linecap:square;stroke-width:0.8;"/>
     </g>
     <g id="line2d_40">
      <g>
       <use style="stroke:#000000;stroke-width:0.8;" x="514.990045" xlink:href="#m2aba279817" y="120.5216"/>
      </g>
     </g>
    </g>
    <g id="xtick_14">
     <g id="line2d_41">
      <path clip-path="url(#pa2e497b1a7)" d="M 550.429818 120.5216 
L 550.429818 32.64 
" style="fill:none;stroke:#b0b0b0;stroke-linecap:square;stroke-width:0.8;"/>
     </g>
     <g id="line2d_42">
      <g>
       <use style="stroke:#000000;stroke-width:0.8;" x="550.429818" xlink:href="#m2aba279817" y="120.5216"/>
      </g>
     </g>
    </g>
    <g id="xtick_15">
     <g id="line2d_43">
      <path clip-path="url(#pa2e497b1a7)" d="M 585.869591 120.5216 
L 585.869591 32.64 
" style="fill:none;stroke:#b0b0b0;stroke-linecap:square;stroke-width:0.8;"/>
     </g>
     <g id="line2d_44">
      <g>
       <use style="stroke:#000000;stroke-width:0.8;" x="585.869591" xlink:href="#m2aba279817" y="120.5216"/>
      </g>
     </g>
    </g>
    <g id="xtick_16">
     <g id="line2d_45">
      <path clip-path="url(#pa2e497b1a7)" d="M 621.309364 120.5216 
L 621.309364 32.64 
" style="fill:none;stroke:#b0b0b0;stroke-linecap:square;stroke-width:0.8;"/>
     </g>
     <g id="line2d_46">
      <g>
       <use style="stroke:#000000;stroke-width:0.8;" x="621.309364" xlink:href="#m2aba279817" y="120.5216"/>
      </g>
     </g>
    </g>
    <g id="xtick_17">
     <g id="line2d_47">
      <path clip-path="url(#pa2e497b1a7)" d="M 656.749136 120.5216 
L 656.749136 32.64 
" style="fill:none;stroke:#b0b0b0;stroke-linecap:square;stroke-width:0.8;"/>
     </g>
     <g id="line2d_48">
      <g>
       <use style="stroke:#000000;stroke-width:0.8;" x="656.749136" xlink:href="#m2aba279817" y="120.5216"/>
      </g>
     </g>
    </g>
    <g id="xtick_18">
     <g id="line2d_49">
      <path clip-path="url(#pa2e497b1a7)" d="M 692.188909 120.5216 
L 692.188909 32.64 
" style="fill:none;stroke:#b0b0b0;stroke-linecap:square;stroke-width:0.8;"/>
     </g>
     <g id="line2d_50">
      <g>
       <use style="stroke:#000000;stroke-width:0.8;" x="692.188909" xlink:href="#m2aba279817" y="120.5216"/>
      </g>
     </g>
    </g>
   </g>
   <g id="matplotlib.axis_4">
    <g id="ytick_5">
     <g id="line2d_51">
      <path clip-path="url(#pa2e497b1a7)" d="M 397.33 107.34256 
L 709.2 107.34256 
" style="fill:none;stroke:#b0b0b0;stroke-linecap:square;stroke-width:0.8;"/>
     </g>
     <g id="line2d_52">
      <g>
       <use style="stroke:#000000;stroke-width:0.8;" x="397.33" xlink:href="#m3379ec8895" y="107.34256"/>
      </g>
     </g>
     <g id="text_8">
      <!-- −100 -->
      <defs>
       <path d="M 10.59375 35.5 
L 73.1875 35.5 
L 73.1875 27.203125 
L 10.59375 27.203125 
z
" id="DejaVuSans-8722"/>
      </defs>
      <g transform="translate(362.862812 111.141778)scale(0.1 -0.1)">
       <use xlink:href="#DejaVuSans-8722"/>
       <use x="83.789062" xlink:href="#DejaVuSans-49"/>
       <use x="147.412109" xlink:href="#DejaVuSans-48"/>
       <use x="211.035156" xlink:href="#DejaVuSans-48"/>
      </g>
     </g>
    </g>
    <g id="ytick_6">
     <g id="line2d_53">
      <path clip-path="url(#pa2e497b1a7)" d="M 397.33 71.997414 
L 709.2 71.997414 
" style="fill:none;stroke:#b0b0b0;stroke-linecap:square;stroke-width:0.8;"/>
     </g>
     <g id="line2d_54">
      <g>
       <use style="stroke:#000000;stroke-width:0.8;" x="397.33" xlink:href="#m3379ec8895" y="71.997414"/>
      </g>
     </g>
     <g id="text_9">
      <!-- −50 -->
      <g transform="translate(369.225312 75.796633)scale(0.1 -0.1)">
       <use xlink:href="#DejaVuSans-8722"/>
       <use x="83.789062" xlink:href="#DejaVuSans-53"/>
       <use x="147.412109" xlink:href="#DejaVuSans-48"/>
      </g>
     </g>
    </g>
    <g id="ytick_7">
     <g id="line2d_55">
      <path clip-path="url(#pa2e497b1a7)" d="M 397.33 36.652269 
L 709.2 36.652269 
" style="fill:none;stroke:#b0b0b0;stroke-linecap:square;stroke-width:0.8;"/>
     </g>
     <g id="line2d_56">
      <g>
       <use style="stroke:#000000;stroke-width:0.8;" x="397.33" xlink:href="#m3379ec8895" y="36.652269"/>
      </g>
     </g>
     <g id="text_10">
      <!-- 0 -->
      <g transform="translate(383.9675 40.451487)scale(0.1 -0.1)">
       <use xlink:href="#DejaVuSans-48"/>
      </g>
     </g>
    </g>
   </g>
   <g id="line2d_57">
    <path clip-path="url(#pa2e497b1a7)" d="M 411.505909 36.648553 
L 422.137841 36.634618 
L 424.264227 37.115133 
L 429.934591 37.359615 
L 433.478568 37.829572 
L 434.187364 38.097588 
L 435.604955 38.277767 
L 436.31375 38.543405 
L 437.022545 38.631608 
L 437.731341 38.895849 
L 438.440136 38.982663 
L 439.857727 39.504385 
L 440.566523 39.587804 
L 441.984114 40.107135 
L 442.692909 40.18959 
L 444.1105 40.707026 
L 444.819295 40.788634 
L 446.945682 41.562284 
L 447.654477 41.643011 
L 450.489659 42.67088 
L 451.198455 42.750654 
L 453.324841 43.519094 
L 454.033636 43.59817 
L 456.868818 44.619744 
L 457.577614 44.698028 
L 460.412795 45.71655 
L 461.121591 45.794092 
L 464.665568 47.063444 
L 465.374364 47.140193 
L 468.209545 48.152903 
L 468.918341 48.229053 
L 471.753523 49.23945 
L 472.462318 49.315054 
L 476.006295 50.575157 
L 476.715091 50.650155 
L 480.259068 51.907378 
L 480.967864 51.981831 
L 483.803045 52.985656 
L 484.511841 53.059685 
L 488.055818 54.312256 
L 488.764614 54.385818 
L 492.308591 55.636143 
L 493.017386 55.709279 
L 496.561364 56.957558 
L 497.270159 57.030298 
L 500.814136 58.276686 
L 501.522932 58.349079 
L 505.775705 59.842472 
L 506.4845 59.914474 
L 510.028477 61.157243 
L 510.737273 61.228918 
L 514.28125 62.470231 
L 514.990045 62.541614 
L 519.242818 64.029401 
L 519.951614 64.100489 
L 523.495591 65.338958 
L 524.204386 65.409777 
L 528.457159 66.894414 
L 529.165955 66.96497 
L 533.418727 68.448079 
L 534.127523 68.518409 
L 538.380295 70.000083 
L 539.089091 70.070212 
L 542.633068 71.303923 
L 543.341864 71.37387 
L 547.594636 72.853194 
L 548.303432 72.922911 
L 552.556205 74.401104 
L 553.265 74.470661 
L 557.517773 75.947782 
L 558.226568 76.017182 
L 562.479341 77.493296 
L 563.188136 77.562538 
L 567.440909 79.037716 
L 568.149705 79.10681 
L 572.402477 80.581115 
L 573.111273 80.650062 
L 577.364045 82.123558 
L 578.072841 82.192359 
L 582.325614 83.665115 
L 583.034409 83.733775 
L 587.287182 85.20583 
L 587.995977 85.274382 
L 592.24875 86.745713 
L 592.957545 86.814167 
L 596.501523 88.03981 
L 597.210318 88.108175 
L 601.463091 89.578344 
L 602.171886 89.6466 
L 606.424659 91.116233 
L 607.133455 91.184416 
L 610.677432 92.408675 
L 611.386227 92.476741 
L 615.639 93.945363 
L 616.347795 94.013367 
L 620.600568 95.481516 
L 621.309364 95.549459 
L 624.853341 96.772539 
L 625.562136 96.840423 
L 629.106114 98.063176 
L 629.814909 98.130982 
L 633.358886 99.353446 
L 634.067682 99.421183 
L 637.611659 100.643364 
L 638.320455 100.711041 
L 641.864432 101.932938 
L 642.573227 102.000565 
L 646.117205 103.222187 
L 646.826 103.289773 
L 649.661182 104.266854 
L 650.369977 104.334399 
L 653.913955 105.555549 
L 654.62275 105.62304 
L 657.457932 106.599793 
L 658.166727 106.667232 
L 661.001909 107.643868 
L 661.710705 107.711256 
L 664.545886 108.68771 
L 665.254682 108.755097 
L 667.381068 109.487313 
L 668.089864 109.554651 
L 670.925045 110.530887 
L 671.633841 110.598176 
L 673.760227 111.330218 
L 674.469023 111.397506 
L 676.595409 112.1295 
L 677.304205 112.196739 
L 678.721795 112.68467 
L 679.430591 112.751909 
L 681.556977 113.483784 
L 682.265773 113.550976 
L 683.683364 114.038812 
L 684.392159 114.106005 
L 685.80975 114.593841 
L 687.227341 114.728194 
L 688.644932 115.215937 
L 690.062523 115.350229 
L 692.897705 116.325683 
L 693.6065 116.216057 
L 694.315295 116.283156 
L 695.024091 116.526982 
L 695.024091 116.526982 
" style="fill:none;stroke:#1f77b4;stroke-linecap:square;stroke-width:1.5;"/>
   </g>
   <g id="patch_9">
    <path d="M 397.33 120.5216 
L 397.33 32.64 
" style="fill:none;stroke:#000000;stroke-linecap:square;stroke-linejoin:miter;stroke-width:0.8;"/>
   </g>
   <g id="patch_10">
    <path d="M 709.2 120.5216 
L 709.2 32.64 
" style="fill:none;stroke:#000000;stroke-linecap:square;stroke-linejoin:miter;stroke-width:0.8;"/>
   </g>
   <g id="patch_11">
    <path d="M 397.33 120.5216 
L 709.2 120.5216 
" style="fill:none;stroke:#000000;stroke-linecap:square;stroke-linejoin:miter;stroke-width:0.8;"/>
   </g>
   <g id="patch_12">
    <path d="M 397.33 32.64 
L 709.2 32.64 
" style="fill:none;stroke:#000000;stroke-linecap:square;stroke-linejoin:miter;stroke-width:0.8;"/>
   </g>
   <g id="text_11">
    <!-- Cons. Difference -->
    <defs>
     <path d="M 19.671875 64.796875 
L 19.671875 8.109375 
L 31.59375 8.109375 
Q 46.6875 8.109375 53.6875 14.9375 
Q 60.6875 21.78125 60.6875 36.53125 
Q 60.6875 51.171875 53.6875 57.984375 
Q 46.6875 64.796875 31.59375 64.796875 
z
M 9.8125 72.90625 
L 30.078125 72.90625 
Q 51.265625 72.90625 61.171875 64.09375 
Q 71.09375 55.28125 71.09375 36.53125 
Q 71.09375 17.671875 61.125 8.828125 
Q 51.171875 0 30.078125 0 
L 9.8125 0 
z
" id="DejaVuSans-68"/>
     <path d="M 37.109375 75.984375 
L 37.109375 68.5 
L 28.515625 68.5 
Q 23.6875 68.5 21.796875 66.546875 
Q 19.921875 64.59375 19.921875 59.515625 
L 19.921875 54.6875 
L 34.71875 54.6875 
L 34.71875 47.703125 
L 19.921875 47.703125 
L 19.921875 0 
L 10.890625 0 
L 10.890625 47.703125 
L 2.296875 47.703125 
L 2.296875 54.6875 
L 10.890625 54.6875 
L 10.890625 58.5 
Q 10.890625 67.625 15.140625 71.796875 
Q 19.390625 75.984375 28.609375 75.984375 
z
" id="DejaVuSans-102"/>
     <path d="M 56.203125 29.59375 
L 56.203125 25.203125 
L 14.890625 25.203125 
Q 15.484375 15.921875 20.484375 11.0625 
Q 25.484375 6.203125 34.421875 6.203125 
Q 39.59375 6.203125 44.453125 7.46875 
Q 49.3125 8.734375 54.109375 11.28125 
L 54.109375 2.78125 
Q 49.265625 0.734375 44.1875 -0.34375 
Q 39.109375 -1.421875 33.890625 -1.421875 
Q 20.796875 -1.421875 13.15625 6.1875 
Q 5.515625 13.8125 5.515625 26.8125 
Q 5.515625 40.234375 12.765625 48.109375 
Q 20.015625 56 32.328125 56 
Q 43.359375 56 49.78125 48.890625 
Q 56.203125 41.796875 56.203125 29.59375 
z
M 47.21875 32.234375 
Q 47.125 39.59375 43.09375 43.984375 
Q 39.0625 48.390625 32.421875 48.390625 
Q 24.90625 48.390625 20.390625 44.140625 
Q 15.875 39.890625 15.1875 32.171875 
z
" id="DejaVuSans-101"/>
     <path d="M 41.109375 46.296875 
Q 39.59375 47.171875 37.8125 47.578125 
Q 36.03125 48 33.890625 48 
Q 26.265625 48 22.1875 43.046875 
Q 18.109375 38.09375 18.109375 28.8125 
L 18.109375 0 
L 9.078125 0 
L 9.078125 54.6875 
L 18.109375 54.6875 
L 18.109375 46.1875 
Q 20.953125 51.171875 25.484375 53.578125 
Q 30.03125 56 36.53125 56 
Q 37.453125 56 38.578125 55.875 
Q 39.703125 55.765625 41.0625 55.515625 
z
" id="DejaVuSans-114"/>
    </defs>
    <g transform="translate(503.509062 26.64)scale(0.12 -0.12)">
     <use xlink:href="#DejaVuSans-67"/>
     <use x="69.824219" xlink:href="#DejaVuSans-111"/>
     <use x="131.005859" xlink:href="#DejaVuSans-110"/>
     <use x="194.384766" xlink:href="#DejaVuSans-115"/>
     <use x="246.484375" xlink:href="#DejaVuSans-46"/>
     <use x="278.271484" xlink:href="#DejaVuSans-32"/>
     <use x="310.058594" xlink:href="#DejaVuSans-68"/>
     <use x="387.060547" xlink:href="#DejaVuSans-105"/>
     <use x="414.84375" xlink:href="#DejaVuSans-102"/>
     <use x="450.048828" xlink:href="#DejaVuSans-102"/>
     <use x="485.253906" xlink:href="#DejaVuSans-101"/>
     <use x="546.777344" xlink:href="#DejaVuSans-114"/>
     <use x="587.859375" xlink:href="#DejaVuSans-101"/>
     <use x="649.382812" xlink:href="#DejaVuSans-110"/>
     <use x="712.761719" xlink:href="#DejaVuSans-99"/>
     <use x="767.742188" xlink:href="#DejaVuSans-101"/>
    </g>
   </g>
   <g id="legend_2">
    <g id="patch_13">
     <path d="M 609.009375 55.318125 
L 702.2 55.318125 
Q 704.2 55.318125 704.2 53.318125 
L 704.2 39.64 
Q 704.2 37.64 702.2 37.64 
L 609.009375 37.64 
Q 607.009375 37.64 607.009375 39.64 
L 607.009375 53.318125 
Q 607.009375 55.318125 609.009375 55.318125 
z
" style="fill:#ffffff;opacity:0.8;stroke:#cccccc;stroke-linejoin:miter;"/>
    </g>
    <g id="line2d_58">
     <path d="M 611.009375 45.738438 
L 631.009375 45.738438 
" style="fill:none;stroke:#1f77b4;stroke-linecap:square;stroke-width:1.5;"/>
    </g>
    <g id="line2d_59"/>
    <g id="text_12">
     <!-- CGM - HARK -->
     <defs>
      <path d="M 4.890625 31.390625 
L 31.203125 31.390625 
L 31.203125 23.390625 
L 4.890625 23.390625 
z
" id="DejaVuSans-45"/>
     </defs>
     <g transform="translate(639.009375 49.238438)scale(0.1 -0.1)">
      <use xlink:href="#DejaVuSans-67"/>
      <use x="69.824219" xlink:href="#DejaVuSans-71"/>
      <use x="147.314453" xlink:href="#DejaVuSans-77"/>
      <use x="233.59375" xlink:href="#DejaVuSans-32"/>
      <use x="265.380859" xlink:href="#DejaVuSans-45"/>
      <use x="301.464844" xlink:href="#DejaVuSans-32"/>
      <use x="333.251953" xlink:href="#DejaVuSans-72"/>
      <use x="408.447266" xlink:href="#DejaVuSans-65"/>
      <use x="476.855469" xlink:href="#DejaVuSans-82"/>
      <use x="546.337891" xlink:href="#DejaVuSans-75"/>
     </g>
    </g>
   </g>
  </g>
  <g id="axes_3">
   <g id="patch_14">
    <path d="M 40.12 252.344 
L 351.99 252.344 
L 351.99 164.4624 
L 40.12 164.4624 
z
" style="fill:#ffffff;"/>
   </g>
   <g id="matplotlib.axis_5">
    <g id="xtick_19">
     <g id="line2d_60">
      <path clip-path="url(#p4f14dc3c8d)" d="M 51.460727 252.344 
L 51.460727 164.4624 
" style="fill:none;stroke:#b0b0b0;stroke-linecap:square;stroke-width:0.8;"/>
     </g>
     <g id="line2d_61">
      <g>
       <use style="stroke:#000000;stroke-width:0.8;" x="51.460727" xlink:href="#m2aba279817" y="252.344"/>
      </g>
     </g>
     <g id="text_13">
      <!-- 0 -->
      <g transform="translate(48.279477 266.942437)scale(0.1 -0.1)">
       <use xlink:href="#DejaVuSans-48"/>
      </g>
     </g>
    </g>
    <g id="xtick_20">
     <g id="line2d_62">
      <path clip-path="url(#p4f14dc3c8d)" d="M 86.9005 252.344 
L 86.9005 164.4624 
" style="fill:none;stroke:#b0b0b0;stroke-linecap:square;stroke-width:0.8;"/>
     </g>
     <g id="line2d_63">
      <g>
       <use style="stroke:#000000;stroke-width:0.8;" x="86.9005" xlink:href="#m2aba279817" y="252.344"/>
      </g>
     </g>
     <g id="text_14">
      <!-- 50 -->
      <g transform="translate(80.538 266.942437)scale(0.1 -0.1)">
       <use xlink:href="#DejaVuSans-53"/>
       <use x="63.623047" xlink:href="#DejaVuSans-48"/>
      </g>
     </g>
    </g>
    <g id="xtick_21">
     <g id="line2d_64">
      <path clip-path="url(#p4f14dc3c8d)" d="M 122.340273 252.344 
L 122.340273 164.4624 
" style="fill:none;stroke:#b0b0b0;stroke-linecap:square;stroke-width:0.8;"/>
     </g>
     <g id="line2d_65">
      <g>
       <use style="stroke:#000000;stroke-width:0.8;" x="122.340273" xlink:href="#m2aba279817" y="252.344"/>
      </g>
     </g>
     <g id="text_15">
      <!-- 100 -->
      <g transform="translate(112.796523 266.942437)scale(0.1 -0.1)">
       <use xlink:href="#DejaVuSans-49"/>
       <use x="63.623047" xlink:href="#DejaVuSans-48"/>
       <use x="127.246094" xlink:href="#DejaVuSans-48"/>
      </g>
     </g>
    </g>
    <g id="xtick_22">
     <g id="line2d_66">
      <path clip-path="url(#p4f14dc3c8d)" d="M 157.780045 252.344 
L 157.780045 164.4624 
" style="fill:none;stroke:#b0b0b0;stroke-linecap:square;stroke-width:0.8;"/>
     </g>
     <g id="line2d_67">
      <g>
       <use style="stroke:#000000;stroke-width:0.8;" x="157.780045" xlink:href="#m2aba279817" y="252.344"/>
      </g>
     </g>
     <g id="text_16">
      <!-- 150 -->
      <g transform="translate(148.236295 266.942437)scale(0.1 -0.1)">
       <use xlink:href="#DejaVuSans-49"/>
       <use x="63.623047" xlink:href="#DejaVuSans-53"/>
       <use x="127.246094" xlink:href="#DejaVuSans-48"/>
      </g>
     </g>
    </g>
    <g id="xtick_23">
     <g id="line2d_68">
      <path clip-path="url(#p4f14dc3c8d)" d="M 193.219818 252.344 
L 193.219818 164.4624 
" style="fill:none;stroke:#b0b0b0;stroke-linecap:square;stroke-width:0.8;"/>
     </g>
     <g id="line2d_69">
      <g>
       <use style="stroke:#000000;stroke-width:0.8;" x="193.219818" xlink:href="#m2aba279817" y="252.344"/>
      </g>
     </g>
     <g id="text_17">
      <!-- 200 -->
      <defs>
       <path d="M 19.1875 8.296875 
L 53.609375 8.296875 
L 53.609375 0 
L 7.328125 0 
L 7.328125 8.296875 
Q 12.9375 14.109375 22.625 23.890625 
Q 32.328125 33.6875 34.8125 36.53125 
Q 39.546875 41.84375 41.421875 45.53125 
Q 43.3125 49.21875 43.3125 52.78125 
Q 43.3125 58.59375 39.234375 62.25 
Q 35.15625 65.921875 28.609375 65.921875 
Q 23.96875 65.921875 18.8125 64.3125 
Q 13.671875 62.703125 7.8125 59.421875 
L 7.8125 69.390625 
Q 13.765625 71.78125 18.9375 73 
Q 24.125 74.21875 28.421875 74.21875 
Q 39.75 74.21875 46.484375 68.546875 
Q 53.21875 62.890625 53.21875 53.421875 
Q 53.21875 48.921875 51.53125 44.890625 
Q 49.859375 40.875 45.40625 35.40625 
Q 44.1875 33.984375 37.640625 27.21875 
Q 31.109375 20.453125 19.1875 8.296875 
z
" id="DejaVuSans-50"/>
      </defs>
      <g transform="translate(183.676068 266.942437)scale(0.1 -0.1)">
       <use xlink:href="#DejaVuSans-50"/>
       <use x="63.623047" xlink:href="#DejaVuSans-48"/>
       <use x="127.246094" xlink:href="#DejaVuSans-48"/>
      </g>
     </g>
    </g>
    <g id="xtick_24">
     <g id="line2d_70">
      <path clip-path="url(#p4f14dc3c8d)" d="M 228.659591 252.344 
L 228.659591 164.4624 
" style="fill:none;stroke:#b0b0b0;stroke-linecap:square;stroke-width:0.8;"/>
     </g>
     <g id="line2d_71">
      <g>
       <use style="stroke:#000000;stroke-width:0.8;" x="228.659591" xlink:href="#m2aba279817" y="252.344"/>
      </g>
     </g>
     <g id="text_18">
      <!-- 250 -->
      <g transform="translate(219.115841 266.942437)scale(0.1 -0.1)">
       <use xlink:href="#DejaVuSans-50"/>
       <use x="63.623047" xlink:href="#DejaVuSans-53"/>
       <use x="127.246094" xlink:href="#DejaVuSans-48"/>
      </g>
     </g>
    </g>
    <g id="xtick_25">
     <g id="line2d_72">
      <path clip-path="url(#p4f14dc3c8d)" d="M 264.099364 252.344 
L 264.099364 164.4624 
" style="fill:none;stroke:#b0b0b0;stroke-linecap:square;stroke-width:0.8;"/>
     </g>
     <g id="line2d_73">
      <g>
       <use style="stroke:#000000;stroke-width:0.8;" x="264.099364" xlink:href="#m2aba279817" y="252.344"/>
      </g>
     </g>
     <g id="text_19">
      <!-- 300 -->
      <defs>
       <path d="M 40.578125 39.3125 
Q 47.65625 37.796875 51.625 33 
Q 55.609375 28.21875 55.609375 21.1875 
Q 55.609375 10.40625 48.1875 4.484375 
Q 40.765625 -1.421875 27.09375 -1.421875 
Q 22.515625 -1.421875 17.65625 -0.515625 
Q 12.796875 0.390625 7.625 2.203125 
L 7.625 11.71875 
Q 11.71875 9.328125 16.59375 8.109375 
Q 21.484375 6.890625 26.8125 6.890625 
Q 36.078125 6.890625 40.9375 10.546875 
Q 45.796875 14.203125 45.796875 21.1875 
Q 45.796875 27.640625 41.28125 31.265625 
Q 36.765625 34.90625 28.71875 34.90625 
L 20.21875 34.90625 
L 20.21875 43.015625 
L 29.109375 43.015625 
Q 36.375 43.015625 40.234375 45.921875 
Q 44.09375 48.828125 44.09375 54.296875 
Q 44.09375 59.90625 40.109375 62.90625 
Q 36.140625 65.921875 28.71875 65.921875 
Q 24.65625 65.921875 20.015625 65.03125 
Q 15.375 64.15625 9.8125 62.3125 
L 9.8125 71.09375 
Q 15.4375 72.65625 20.34375 73.4375 
Q 25.25 74.21875 29.59375 74.21875 
Q 40.828125 74.21875 47.359375 69.109375 
Q 53.90625 64.015625 53.90625 55.328125 
Q 53.90625 49.265625 50.4375 45.09375 
Q 46.96875 40.921875 40.578125 39.3125 
z
" id="DejaVuSans-51"/>
      </defs>
      <g transform="translate(254.555614 266.942437)scale(0.1 -0.1)">
       <use xlink:href="#DejaVuSans-51"/>
       <use x="63.623047" xlink:href="#DejaVuSans-48"/>
       <use x="127.246094" xlink:href="#DejaVuSans-48"/>
      </g>
     </g>
    </g>
    <g id="xtick_26">
     <g id="line2d_74">
      <path clip-path="url(#p4f14dc3c8d)" d="M 299.539136 252.344 
L 299.539136 164.4624 
" style="fill:none;stroke:#b0b0b0;stroke-linecap:square;stroke-width:0.8;"/>
     </g>
     <g id="line2d_75">
      <g>
       <use style="stroke:#000000;stroke-width:0.8;" x="299.539136" xlink:href="#m2aba279817" y="252.344"/>
      </g>
     </g>
     <g id="text_20">
      <!-- 350 -->
      <g transform="translate(289.995386 266.942437)scale(0.1 -0.1)">
       <use xlink:href="#DejaVuSans-51"/>
       <use x="63.623047" xlink:href="#DejaVuSans-53"/>
       <use x="127.246094" xlink:href="#DejaVuSans-48"/>
      </g>
     </g>
    </g>
    <g id="xtick_27">
     <g id="line2d_76">
      <path clip-path="url(#p4f14dc3c8d)" d="M 334.978909 252.344 
L 334.978909 164.4624 
" style="fill:none;stroke:#b0b0b0;stroke-linecap:square;stroke-width:0.8;"/>
     </g>
     <g id="line2d_77">
      <g>
       <use style="stroke:#000000;stroke-width:0.8;" x="334.978909" xlink:href="#m2aba279817" y="252.344"/>
      </g>
     </g>
     <g id="text_21">
      <!-- 400 -->
      <defs>
       <path d="M 37.796875 64.3125 
L 12.890625 25.390625 
L 37.796875 25.390625 
z
M 35.203125 72.90625 
L 47.609375 72.90625 
L 47.609375 25.390625 
L 58.015625 25.390625 
L 58.015625 17.1875 
L 47.609375 17.1875 
L 47.609375 0 
L 37.796875 0 
L 37.796875 17.1875 
L 4.890625 17.1875 
L 4.890625 26.703125 
z
" id="DejaVuSans-52"/>
      </defs>
      <g transform="translate(325.435159 266.942437)scale(0.1 -0.1)">
       <use xlink:href="#DejaVuSans-52"/>
       <use x="63.623047" xlink:href="#DejaVuSans-48"/>
       <use x="127.246094" xlink:href="#DejaVuSans-48"/>
      </g>
     </g>
    </g>
   </g>
   <g id="matplotlib.axis_6">
    <g id="ytick_8">
     <g id="line2d_78">
      <path clip-path="url(#p4f14dc3c8d)" d="M 40.12 248.349382 
L 351.99 248.349382 
" style="fill:none;stroke:#b0b0b0;stroke-linecap:square;stroke-width:0.8;"/>
     </g>
     <g id="line2d_79">
      <g>
       <use style="stroke:#000000;stroke-width:0.8;" x="40.12" xlink:href="#m3379ec8895" y="248.349382"/>
      </g>
     </g>
     <g id="text_22">
      <!-- 0.0 -->
      <g transform="translate(17.216875 252.148601)scale(0.1 -0.1)">
       <use xlink:href="#DejaVuSans-48"/>
       <use x="63.623047" xlink:href="#DejaVuSans-46"/>
       <use x="95.410156" xlink:href="#DejaVuSans-48"/>
      </g>
     </g>
    </g>
    <g id="ytick_9">
     <g id="line2d_80">
      <path clip-path="url(#p4f14dc3c8d)" d="M 40.12 208.4032 
L 351.99 208.4032 
" style="fill:none;stroke:#b0b0b0;stroke-linecap:square;stroke-width:0.8;"/>
     </g>
     <g id="line2d_81">
      <g>
       <use style="stroke:#000000;stroke-width:0.8;" x="40.12" xlink:href="#m3379ec8895" y="208.4032"/>
      </g>
     </g>
     <g id="text_23">
      <!-- 0.5 -->
      <g transform="translate(17.216875 212.202419)scale(0.1 -0.1)">
       <use xlink:href="#DejaVuSans-48"/>
       <use x="63.623047" xlink:href="#DejaVuSans-46"/>
       <use x="95.410156" xlink:href="#DejaVuSans-53"/>
      </g>
     </g>
    </g>
    <g id="ytick_10">
     <g id="line2d_82">
      <path clip-path="url(#p4f14dc3c8d)" d="M 40.12 168.457018 
L 351.99 168.457018 
" style="fill:none;stroke:#b0b0b0;stroke-linecap:square;stroke-width:0.8;"/>
     </g>
     <g id="line2d_83">
      <g>
       <use style="stroke:#000000;stroke-width:0.8;" x="40.12" xlink:href="#m3379ec8895" y="168.457018"/>
      </g>
     </g>
     <g id="text_24">
      <!-- 1.0 -->
      <g transform="translate(17.216875 172.256237)scale(0.1 -0.1)">
       <use xlink:href="#DejaVuSans-49"/>
       <use x="63.623047" xlink:href="#DejaVuSans-46"/>
       <use x="95.410156" xlink:href="#DejaVuSans-48"/>
      </g>
     </g>
    </g>
   </g>
   <g id="line2d_84">
    <path clip-path="url(#p4f14dc3c8d)" d="M 54.295909 248.349382 
L 64.927841 248.349382 
L 65.636636 168.457018 
L 171.955955 168.457018 
L 172.66475 169.255942 
L 173.373545 169.255942 
L 174.082341 170.054865 
L 174.791136 170.054865 
L 175.499932 170.853789 
L 176.917523 170.853789 
L 177.626318 171.652713 
L 178.335114 171.652713 
L 179.043909 172.451636 
L 179.752705 172.451636 
L 180.4615 173.25056 
L 181.879091 173.25056 
L 182.587886 174.049484 
L 184.005477 174.049484 
L 184.714273 174.848407 
L 185.423068 174.848407 
L 186.131864 175.647331 
L 187.549455 175.647331 
L 188.25825 176.446255 
L 189.675841 176.446255 
L 190.384636 177.245178 
L 191.802227 177.245178 
L 192.511023 178.044102 
L 193.219818 178.044102 
L 193.928614 178.843025 
L 195.346205 178.843025 
L 196.055 179.641949 
L 197.472591 179.641949 
L 198.181386 180.440873 
L 199.598977 180.440873 
L 200.307773 181.239796 
L 201.725364 181.239796 
L 202.434159 182.03872 
L 203.85175 182.03872 
L 204.560545 182.837644 
L 205.978136 182.837644 
L 206.686932 183.636567 
L 208.104523 183.636567 
L 208.813318 184.435491 
L 210.230909 184.435491 
L 210.939705 185.234415 
L 212.357295 185.234415 
L 213.066091 186.033338 
L 214.483682 186.033338 
L 215.192477 186.832262 
L 217.318864 186.832262 
L 218.027659 187.631185 
L 219.44525 187.631185 
L 220.154045 188.430109 
L 221.571636 188.430109 
L 222.280432 189.229033 
L 224.406818 189.229033 
L 225.115614 190.027956 
L 226.533205 190.027956 
L 227.242 190.82688 
L 228.659591 190.82688 
L 229.368386 191.625804 
L 231.494773 191.625804 
L 232.203568 192.424727 
L 233.621159 192.424727 
L 234.329955 193.223651 
L 235.747545 193.223651 
L 236.456341 194.022575 
L 238.582727 194.022575 
L 239.291523 194.821498 
L 240.709114 194.821498 
L 241.417909 195.620422 
L 243.544295 195.620422 
L 244.253091 196.419345 
L 245.670682 196.419345 
L 246.379477 197.218269 
L 248.505864 197.218269 
L 249.214659 198.017193 
L 250.63225 198.017193 
L 251.341045 198.816116 
L 253.467432 198.816116 
L 254.176227 199.61504 
L 255.593818 199.61504 
L 256.302614 200.413964 
L 258.429 200.413964 
L 259.137795 201.212887 
L 260.555386 201.212887 
L 261.264182 202.011811 
L 262.681773 202.011811 
L 263.390568 202.810735 
L 265.516955 202.810735 
L 266.22575 203.609658 
L 267.643341 203.609658 
L 268.352136 204.408582 
L 269.769727 204.408582 
L 270.478523 205.207505 
L 272.604909 205.207505 
L 273.313705 206.006429 
L 274.731295 206.006429 
L 275.440091 206.805353 
L 276.857682 206.805353 
L 277.566477 207.604276 
L 278.984068 207.604276 
L 279.692864 208.4032 
L 281.110455 208.4032 
L 281.81925 209.202124 
L 283.236841 209.202124 
L 283.945636 210.001047 
L 285.363227 210.001047 
L 286.072023 210.799971 
L 287.489614 210.799971 
L 288.198409 211.598895 
L 289.616 211.598895 
L 290.324795 212.397818 
L 291.033591 212.397818 
L 291.742386 213.196742 
L 293.159977 213.196742 
L 293.868773 213.995665 
L 294.577568 213.995665 
L 295.286364 214.794589 
L 295.995159 214.794589 
L 296.703955 215.593513 
L 298.121545 215.593513 
L 298.830341 216.392436 
L 299.539136 216.392436 
L 300.247932 217.19136 
L 301.665523 217.19136 
L 303.791909 219.588131 
L 304.500705 219.588131 
L 305.918295 221.185978 
L 307.335886 221.185978 
L 308.044682 221.984902 
L 308.753477 221.984902 
L 309.462273 222.783825 
L 310.171068 222.783825 
L 310.879864 223.582749 
L 312.297455 223.582749 
L 313.715045 225.180596 
L 314.423841 225.180596 
L 315.132636 225.97952 
L 316.550227 225.97952 
L 317.259023 226.778444 
L 317.967818 226.778444 
L 320.803 229.974138 
L 321.511795 229.974138 
L 322.220591 230.773062 
L 322.929386 230.773062 
L 323.638182 231.571985 
L 324.346977 231.571985 
L 325.055773 232.370909 
L 326.473364 232.370909 
L 328.59975 234.76768 
L 329.308545 234.76768 
L 332.143727 237.963375 
L 332.852523 237.963375 
L 335.687705 241.159069 
L 336.3965 241.159069 
L 337.814091 242.756916 
L 337.814091 242.756916 
" style="fill:none;stroke:#1f77b4;stroke-linecap:square;stroke-width:1.5;"/>
   </g>
   <g id="line2d_85">
    <path clip-path="url(#p4f14dc3c8d)" d="M 54.295909 168.457018 
L 59.966273 168.457018 
L 60.675068 170.366799 
L 62.092659 177.602767 
L 63.51025 183.212268 
L 64.927841 187.706932 
L 66.345432 191.371035 
L 67.763023 194.407194 
L 69.180614 196.960473 
L 70.598205 199.138899 
L 72.015795 201.022115 
L 74.142182 203.41198 
L 76.268568 205.399316 
L 78.394955 207.076355 
L 80.521341 208.515805 
L 83.356523 210.140423 
L 86.191705 211.508412 
L 89.735682 212.939829 
L 93.279659 214.13756 
L 97.532432 215.336872 
L 102.494 216.49604 
L 108.164364 217.580276 
L 115.252318 218.67591 
L 123.049068 219.642953 
L 132.263409 220.554651 
L 143.604136 221.440702 
L 157.07125 222.259294 
L 174.082341 223.04855 
L 195.346205 223.786123 
L 222.280432 224.472759 
L 257.011409 225.105508 
L 300.247932 225.657671 
L 337.814091 226.007676 
L 337.814091 226.007676 
" style="fill:none;stroke:#ff7f0e;stroke-linecap:square;stroke-width:1.5;"/>
   </g>
   <g id="patch_15">
    <path d="M 40.12 252.344 
L 40.12 164.4624 
" style="fill:none;stroke:#000000;stroke-linecap:square;stroke-linejoin:miter;stroke-width:0.8;"/>
   </g>
   <g id="patch_16">
    <path d="M 351.99 252.344 
L 351.99 164.4624 
" style="fill:none;stroke:#000000;stroke-linecap:square;stroke-linejoin:miter;stroke-width:0.8;"/>
   </g>
   <g id="patch_17">
    <path d="M 40.12 252.344 
L 351.99 252.344 
" style="fill:none;stroke:#000000;stroke-linecap:square;stroke-linejoin:miter;stroke-width:0.8;"/>
   </g>
   <g id="patch_18">
    <path d="M 40.12 164.4624 
L 351.99 164.4624 
" style="fill:none;stroke:#000000;stroke-linecap:square;stroke-linejoin:miter;stroke-width:0.8;"/>
   </g>
   <g id="text_25">
    <!-- Risky Sh. Functions -->
    <defs>
     <path d="M 9.078125 75.984375 
L 18.109375 75.984375 
L 18.109375 31.109375 
L 44.921875 54.6875 
L 56.390625 54.6875 
L 27.390625 29.109375 
L 57.625 0 
L 45.90625 0 
L 18.109375 26.703125 
L 18.109375 0 
L 9.078125 0 
z
" id="DejaVuSans-107"/>
     <path d="M 32.171875 -5.078125 
Q 28.375 -14.84375 24.75 -17.8125 
Q 21.140625 -20.796875 15.09375 -20.796875 
L 7.90625 -20.796875 
L 7.90625 -13.28125 
L 13.1875 -13.28125 
Q 16.890625 -13.28125 18.9375 -11.515625 
Q 21 -9.765625 23.484375 -3.21875 
L 25.09375 0.875 
L 2.984375 54.6875 
L 12.5 54.6875 
L 29.59375 11.921875 
L 46.6875 54.6875 
L 56.203125 54.6875 
z
" id="DejaVuSans-121"/>
     <path d="M 53.515625 70.515625 
L 53.515625 60.890625 
Q 47.90625 63.578125 42.921875 64.890625 
Q 37.9375 66.21875 33.296875 66.21875 
Q 25.25 66.21875 20.875 63.09375 
Q 16.5 59.96875 16.5 54.203125 
Q 16.5 49.359375 19.40625 46.890625 
Q 22.3125 44.4375 30.421875 42.921875 
L 36.375 41.703125 
Q 47.40625 39.59375 52.65625 34.296875 
Q 57.90625 29 57.90625 20.125 
Q 57.90625 9.515625 50.796875 4.046875 
Q 43.703125 -1.421875 29.984375 -1.421875 
Q 24.8125 -1.421875 18.96875 -0.25 
Q 13.140625 0.921875 6.890625 3.21875 
L 6.890625 13.375 
Q 12.890625 10.015625 18.65625 8.296875 
Q 24.421875 6.59375 29.984375 6.59375 
Q 38.421875 6.59375 43.015625 9.90625 
Q 47.609375 13.234375 47.609375 19.390625 
Q 47.609375 24.75 44.3125 27.78125 
Q 41.015625 30.8125 33.5 32.328125 
L 27.484375 33.5 
Q 16.453125 35.6875 11.515625 40.375 
Q 6.59375 45.0625 6.59375 53.421875 
Q 6.59375 63.09375 13.40625 68.65625 
Q 20.21875 74.21875 32.171875 74.21875 
Q 37.3125 74.21875 42.625 73.28125 
Q 47.953125 72.359375 53.515625 70.515625 
z
" id="DejaVuSans-83"/>
     <path d="M 54.890625 33.015625 
L 54.890625 0 
L 45.90625 0 
L 45.90625 32.71875 
Q 45.90625 40.484375 42.875 44.328125 
Q 39.84375 48.1875 33.796875 48.1875 
Q 26.515625 48.1875 22.3125 43.546875 
Q 18.109375 38.921875 18.109375 30.90625 
L 18.109375 0 
L 9.078125 0 
L 9.078125 75.984375 
L 18.109375 75.984375 
L 18.109375 46.1875 
Q 21.34375 51.125 25.703125 53.5625 
Q 30.078125 56 35.796875 56 
Q 45.21875 56 50.046875 50.171875 
Q 54.890625 44.34375 54.890625 33.015625 
z
" id="DejaVuSans-104"/>
    </defs>
    <g transform="translate(137.769688 158.4624)scale(0.12 -0.12)">
     <use xlink:href="#DejaVuSans-82"/>
     <use x="69.482422" xlink:href="#DejaVuSans-105"/>
     <use x="97.265625" xlink:href="#DejaVuSans-115"/>
     <use x="149.365234" xlink:href="#DejaVuSans-107"/>
     <use x="207.228516" xlink:href="#DejaVuSans-121"/>
     <use x="266.408203" xlink:href="#DejaVuSans-32"/>
     <use x="298.195312" xlink:href="#DejaVuSans-83"/>
     <use x="361.671875" xlink:href="#DejaVuSans-104"/>
     <use x="425.050781" xlink:href="#DejaVuSans-46"/>
     <use x="456.837891" xlink:href="#DejaVuSans-32"/>
     <use x="488.625" xlink:href="#DejaVuSans-70"/>
     <use x="546.066406" xlink:href="#DejaVuSans-117"/>
     <use x="609.445312" xlink:href="#DejaVuSans-110"/>
     <use x="672.824219" xlink:href="#DejaVuSans-99"/>
     <use x="727.804688" xlink:href="#DejaVuSans-116"/>
     <use x="767.013672" xlink:href="#DejaVuSans-105"/>
     <use x="794.796875" xlink:href="#DejaVuSans-111"/>
     <use x="855.978516" xlink:href="#DejaVuSans-110"/>
     <use x="919.357422" xlink:href="#DejaVuSans-115"/>
    </g>
   </g>
   <g id="legend_3">
    <g id="patch_19">
     <path d="M 285.122813 201.81865 
L 344.99 201.81865 
Q 346.99 201.81865 346.99 199.81865 
L 346.99 171.4624 
Q 346.99 169.4624 344.99 169.4624 
L 285.122813 169.4624 
Q 283.122813 169.4624 283.122813 171.4624 
L 283.122813 199.81865 
Q 283.122813 201.81865 285.122813 201.81865 
z
" style="fill:#ffffff;opacity:0.8;stroke:#cccccc;stroke-linejoin:miter;"/>
    </g>
    <g id="line2d_86">
     <path d="M 287.122813 177.560837 
L 307.122813 177.560837 
" style="fill:none;stroke:#1f77b4;stroke-linecap:square;stroke-width:1.5;"/>
    </g>
    <g id="line2d_87"/>
    <g id="text_26">
     <!-- CGM -->
     <g transform="translate(315.122813 181.060837)scale(0.1 -0.1)">
      <use xlink:href="#DejaVuSans-67"/>
      <use x="69.824219" xlink:href="#DejaVuSans-71"/>
      <use x="147.314453" xlink:href="#DejaVuSans-77"/>
     </g>
    </g>
    <g id="line2d_88">
     <path d="M 287.122813 192.238962 
L 307.122813 192.238962 
" style="fill:none;stroke:#ff7f0e;stroke-linecap:square;stroke-width:1.5;"/>
    </g>
    <g id="line2d_89"/>
    <g id="text_27">
     <!-- HARK -->
     <g transform="translate(315.122813 195.738962)scale(0.1 -0.1)">
      <use xlink:href="#DejaVuSans-72"/>
      <use x="75.195312" xlink:href="#DejaVuSans-65"/>
      <use x="143.603516" xlink:href="#DejaVuSans-82"/>
      <use x="213.085938" xlink:href="#DejaVuSans-75"/>
     </g>
    </g>
   </g>
  </g>
  <g id="axes_4">
   <g id="patch_20">
    <path d="M 397.33 252.344 
L 709.2 252.344 
L 709.2 164.4624 
L 397.33 164.4624 
z
" style="fill:#ffffff;"/>
   </g>
   <g id="matplotlib.axis_7">
    <g id="xtick_28">
     <g id="line2d_90">
      <path clip-path="url(#pc53ed09ec4)" d="M 408.670727 252.344 
L 408.670727 164.4624 
" style="fill:none;stroke:#b0b0b0;stroke-linecap:square;stroke-width:0.8;"/>
     </g>
     <g id="line2d_91">
      <g>
       <use style="stroke:#000000;stroke-width:0.8;" x="408.670727" xlink:href="#m2aba279817" y="252.344"/>
      </g>
     </g>
     <g id="text_28">
      <!-- 0 -->
      <g transform="translate(405.489477 266.942437)scale(0.1 -0.1)">
       <use xlink:href="#DejaVuSans-48"/>
      </g>
     </g>
    </g>
    <g id="xtick_29">
     <g id="line2d_92">
      <path clip-path="url(#pc53ed09ec4)" d="M 444.1105 252.344 
L 444.1105 164.4624 
" style="fill:none;stroke:#b0b0b0;stroke-linecap:square;stroke-width:0.8;"/>
     </g>
     <g id="line2d_93">
      <g>
       <use style="stroke:#000000;stroke-width:0.8;" x="444.1105" xlink:href="#m2aba279817" y="252.344"/>
      </g>
     </g>
     <g id="text_29">
      <!-- 50 -->
      <g transform="translate(437.748 266.942437)scale(0.1 -0.1)">
       <use xlink:href="#DejaVuSans-53"/>
       <use x="63.623047" xlink:href="#DejaVuSans-48"/>
      </g>
     </g>
    </g>
    <g id="xtick_30">
     <g id="line2d_94">
      <path clip-path="url(#pc53ed09ec4)" d="M 479.550273 252.344 
L 479.550273 164.4624 
" style="fill:none;stroke:#b0b0b0;stroke-linecap:square;stroke-width:0.8;"/>
     </g>
     <g id="line2d_95">
      <g>
       <use style="stroke:#000000;stroke-width:0.8;" x="479.550273" xlink:href="#m2aba279817" y="252.344"/>
      </g>
     </g>
     <g id="text_30">
      <!-- 100 -->
      <g transform="translate(470.006523 266.942437)scale(0.1 -0.1)">
       <use xlink:href="#DejaVuSans-49"/>
       <use x="63.623047" xlink:href="#DejaVuSans-48"/>
       <use x="127.246094" xlink:href="#DejaVuSans-48"/>
      </g>
     </g>
    </g>
    <g id="xtick_31">
     <g id="line2d_96">
      <path clip-path="url(#pc53ed09ec4)" d="M 514.990045 252.344 
L 514.990045 164.4624 
" style="fill:none;stroke:#b0b0b0;stroke-linecap:square;stroke-width:0.8;"/>
     </g>
     <g id="line2d_97">
      <g>
       <use style="stroke:#000000;stroke-width:0.8;" x="514.990045" xlink:href="#m2aba279817" y="252.344"/>
      </g>
     </g>
     <g id="text_31">
      <!-- 150 -->
      <g transform="translate(505.446295 266.942437)scale(0.1 -0.1)">
       <use xlink:href="#DejaVuSans-49"/>
       <use x="63.623047" xlink:href="#DejaVuSans-53"/>
       <use x="127.246094" xlink:href="#DejaVuSans-48"/>
      </g>
     </g>
    </g>
    <g id="xtick_32">
     <g id="line2d_98">
      <path clip-path="url(#pc53ed09ec4)" d="M 550.429818 252.344 
L 550.429818 164.4624 
" style="fill:none;stroke:#b0b0b0;stroke-linecap:square;stroke-width:0.8;"/>
     </g>
     <g id="line2d_99">
      <g>
       <use style="stroke:#000000;stroke-width:0.8;" x="550.429818" xlink:href="#m2aba279817" y="252.344"/>
      </g>
     </g>
     <g id="text_32">
      <!-- 200 -->
      <g transform="translate(540.886068 266.942437)scale(0.1 -0.1)">
       <use xlink:href="#DejaVuSans-50"/>
       <use x="63.623047" xlink:href="#DejaVuSans-48"/>
       <use x="127.246094" xlink:href="#DejaVuSans-48"/>
      </g>
     </g>
    </g>
    <g id="xtick_33">
     <g id="line2d_100">
      <path clip-path="url(#pc53ed09ec4)" d="M 585.869591 252.344 
L 585.869591 164.4624 
" style="fill:none;stroke:#b0b0b0;stroke-linecap:square;stroke-width:0.8;"/>
     </g>
     <g id="line2d_101">
      <g>
       <use style="stroke:#000000;stroke-width:0.8;" x="585.869591" xlink:href="#m2aba279817" y="252.344"/>
      </g>
     </g>
     <g id="text_33">
      <!-- 250 -->
      <g transform="translate(576.325841 266.942437)scale(0.1 -0.1)">
       <use xlink:href="#DejaVuSans-50"/>
       <use x="63.623047" xlink:href="#DejaVuSans-53"/>
       <use x="127.246094" xlink:href="#DejaVuSans-48"/>
      </g>
     </g>
    </g>
    <g id="xtick_34">
     <g id="line2d_102">
      <path clip-path="url(#pc53ed09ec4)" d="M 621.309364 252.344 
L 621.309364 164.4624 
" style="fill:none;stroke:#b0b0b0;stroke-linecap:square;stroke-width:0.8;"/>
     </g>
     <g id="line2d_103">
      <g>
       <use style="stroke:#000000;stroke-width:0.8;" x="621.309364" xlink:href="#m2aba279817" y="252.344"/>
      </g>
     </g>
     <g id="text_34">
      <!-- 300 -->
      <g transform="translate(611.765614 266.942437)scale(0.1 -0.1)">
       <use xlink:href="#DejaVuSans-51"/>
       <use x="63.623047" xlink:href="#DejaVuSans-48"/>
       <use x="127.246094" xlink:href="#DejaVuSans-48"/>
      </g>
     </g>
    </g>
    <g id="xtick_35">
     <g id="line2d_104">
      <path clip-path="url(#pc53ed09ec4)" d="M 656.749136 252.344 
L 656.749136 164.4624 
" style="fill:none;stroke:#b0b0b0;stroke-linecap:square;stroke-width:0.8;"/>
     </g>
     <g id="line2d_105">
      <g>
       <use style="stroke:#000000;stroke-width:0.8;" x="656.749136" xlink:href="#m2aba279817" y="252.344"/>
      </g>
     </g>
     <g id="text_35">
      <!-- 350 -->
      <g transform="translate(647.205386 266.942437)scale(0.1 -0.1)">
       <use xlink:href="#DejaVuSans-51"/>
       <use x="63.623047" xlink:href="#DejaVuSans-53"/>
       <use x="127.246094" xlink:href="#DejaVuSans-48"/>
      </g>
     </g>
    </g>
    <g id="xtick_36">
     <g id="line2d_106">
      <path clip-path="url(#pc53ed09ec4)" d="M 692.188909 252.344 
L 692.188909 164.4624 
" style="fill:none;stroke:#b0b0b0;stroke-linecap:square;stroke-width:0.8;"/>
     </g>
     <g id="line2d_107">
      <g>
       <use style="stroke:#000000;stroke-width:0.8;" x="692.188909" xlink:href="#m2aba279817" y="252.344"/>
      </g>
     </g>
     <g id="text_36">
      <!-- 400 -->
      <g transform="translate(682.645159 266.942437)scale(0.1 -0.1)">
       <use xlink:href="#DejaVuSans-52"/>
       <use x="63.623047" xlink:href="#DejaVuSans-48"/>
       <use x="127.246094" xlink:href="#DejaVuSans-48"/>
      </g>
     </g>
    </g>
   </g>
   <g id="matplotlib.axis_8">
    <g id="ytick_11">
     <g id="line2d_108">
      <path clip-path="url(#pc53ed09ec4)" d="M 397.33 248.349382 
L 709.2 248.349382 
" style="fill:none;stroke:#b0b0b0;stroke-linecap:square;stroke-width:0.8;"/>
     </g>
     <g id="line2d_109">
      <g>
       <use style="stroke:#000000;stroke-width:0.8;" x="397.33" xlink:href="#m3379ec8895" y="248.349382"/>
      </g>
     </g>
     <g id="text_37">
      <!-- −1.0 -->
      <g transform="translate(366.047187 252.148601)scale(0.1 -0.1)">
       <use xlink:href="#DejaVuSans-8722"/>
       <use x="83.789062" xlink:href="#DejaVuSans-49"/>
       <use x="147.412109" xlink:href="#DejaVuSans-46"/>
       <use x="179.199219" xlink:href="#DejaVuSans-48"/>
      </g>
     </g>
    </g>
    <g id="ytick_12">
     <g id="line2d_110">
      <path clip-path="url(#pc53ed09ec4)" d="M 397.33 224.60331 
L 709.2 224.60331 
" style="fill:none;stroke:#b0b0b0;stroke-linecap:square;stroke-width:0.8;"/>
     </g>
     <g id="line2d_111">
      <g>
       <use style="stroke:#000000;stroke-width:0.8;" x="397.33" xlink:href="#m3379ec8895" y="224.60331"/>
      </g>
     </g>
     <g id="text_38">
      <!-- −0.5 -->
      <g transform="translate(366.047187 228.402528)scale(0.1 -0.1)">
       <use xlink:href="#DejaVuSans-8722"/>
       <use x="83.789062" xlink:href="#DejaVuSans-48"/>
       <use x="147.412109" xlink:href="#DejaVuSans-46"/>
       <use x="179.199219" xlink:href="#DejaVuSans-53"/>
      </g>
     </g>
    </g>
    <g id="ytick_13">
     <g id="line2d_112">
      <path clip-path="url(#pc53ed09ec4)" d="M 397.33 200.857238 
L 709.2 200.857238 
" style="fill:none;stroke:#b0b0b0;stroke-linecap:square;stroke-width:0.8;"/>
     </g>
     <g id="line2d_113">
      <g>
       <use style="stroke:#000000;stroke-width:0.8;" x="397.33" xlink:href="#m3379ec8895" y="200.857238"/>
      </g>
     </g>
     <g id="text_39">
      <!-- 0.0 -->
      <g transform="translate(374.426875 204.656456)scale(0.1 -0.1)">
       <use xlink:href="#DejaVuSans-48"/>
       <use x="63.623047" xlink:href="#DejaVuSans-46"/>
       <use x="95.410156" xlink:href="#DejaVuSans-48"/>
      </g>
     </g>
    </g>
    <g id="ytick_14">
     <g id="line2d_114">
      <path clip-path="url(#pc53ed09ec4)" d="M 397.33 177.111166 
L 709.2 177.111166 
" style="fill:none;stroke:#b0b0b0;stroke-linecap:square;stroke-width:0.8;"/>
     </g>
     <g id="line2d_115">
      <g>
       <use style="stroke:#000000;stroke-width:0.8;" x="397.33" xlink:href="#m3379ec8895" y="177.111166"/>
      </g>
     </g>
     <g id="text_40">
      <!-- 0.5 -->
      <g transform="translate(374.426875 180.910384)scale(0.1 -0.1)">
       <use xlink:href="#DejaVuSans-48"/>
       <use x="63.623047" xlink:href="#DejaVuSans-46"/>
       <use x="95.410156" xlink:href="#DejaVuSans-53"/>
      </g>
     </g>
    </g>
   </g>
   <g id="line2d_116">
    <path clip-path="url(#pc53ed09ec4)" d="M 411.505909 248.349382 
L 417.176273 248.349382 
L 417.885068 247.21411 
L 419.302659 242.912677 
L 420.72025 239.5781 
L 422.137841 236.906239 
L 422.846636 188.271196 
L 424.264227 186.293265 
L 425.681818 184.641117 
L 427.099409 183.241298 
L 429.225795 181.498864 
L 431.352182 180.078204 
L 433.478568 178.896829 
L 436.31375 177.600489 
L 439.148932 176.539728 
L 442.692909 175.455824 
L 446.945682 174.414359 
L 451.90725 173.449669 
L 457.577614 172.579264 
L 464.665568 171.729545 
L 473.171114 170.946693 
L 483.803045 170.206039 
L 497.270159 169.512188 
L 513.572455 168.897101 
L 529.165955 168.457018 
L 529.87475 168.914671 
L 530.583545 168.897403 
L 531.292341 169.355056 
L 532.001136 169.338348 
L 532.709932 169.796629 
L 534.127523 169.763634 
L 534.836318 170.222519 
L 535.545114 170.206482 
L 536.253909 170.665367 
L 536.962705 170.649903 
L 537.6715 171.109381 
L 539.089091 171.078703 
L 539.797886 171.538748 
L 541.215477 171.508995 
L 541.924273 171.969414 
L 542.633068 171.955088 
L 543.341864 172.415684 
L 544.759455 172.387462 
L 545.46825 172.84854 
L 546.885841 172.820856 
L 547.594636 173.282417 
L 549.012227 173.255696 
L 549.721023 173.717266 
L 550.429818 173.704405 
L 551.138614 174.166464 
L 552.556205 174.140741 
L 553.265 174.603246 
L 554.682591 174.578488 
L 555.391386 175.04103 
L 556.808977 175.017079 
L 557.517773 175.480091 
L 558.935364 175.456454 
L 559.644159 175.919921 
L 561.06175 175.897014 
L 561.770545 176.360481 
L 563.188136 176.338434 
L 563.896932 176.802339 
L 565.314523 176.780481 
L 566.023318 177.244811 
L 567.440909 177.223629 
L 568.149705 177.687959 
L 569.567295 177.667488 
L 570.276091 178.13223 
L 571.693682 178.11187 
L 572.402477 178.576976 
L 574.528864 178.547628 
L 575.237659 179.012766 
L 576.65525 178.993962 
L 577.364045 179.459486 
L 578.781636 179.440693 
L 579.490432 179.906548 
L 581.616818 179.879475 
L 582.325614 180.345372 
L 583.743205 180.327923 
L 584.452 180.794181 
L 585.869591 180.776854 
L 586.578386 181.243211 
L 588.704773 181.218264 
L 589.413568 181.68487 
L 590.831159 181.668493 
L 591.539955 182.135435 
L 592.957545 182.119475 
L 593.666341 182.586417 
L 595.792727 182.563146 
L 596.501523 183.030411 
L 597.919114 183.015098 
L 598.627909 183.48243 
L 600.754295 183.460407 
L 601.463091 183.927987 
L 602.880682 183.913362 
L 603.589477 184.381246 
L 605.715864 184.360133 
L 606.424659 184.828017 
L 607.84225 184.814232 
L 608.551045 185.282408 
L 610.677432 185.262174 
L 611.386227 185.730351 
L 612.803818 185.717314 
L 613.512614 186.185773 
L 615.639 186.166384 
L 616.347795 186.63485 
L 617.765386 186.622468 
L 618.474182 187.091199 
L 619.891773 187.078817 
L 620.600568 187.547547 
L 622.726955 187.529571 
L 623.43575 187.998565 
L 624.853341 187.986712 
L 625.562136 188.455706 
L 626.979727 188.444177 
L 627.688523 188.913425 
L 629.814909 188.896404 
L 630.523705 189.365652 
L 631.941295 189.354574 
L 632.650091 189.824066 
L 634.067682 189.813209 
L 634.776477 190.282702 
L 636.194068 190.271845 
L 636.902864 190.7415 
L 638.320455 190.731113 
L 639.02925 191.200841 
L 640.446841 191.190454 
L 641.155636 191.660182 
L 642.573227 191.650034 
L 643.282023 192.11999 
L 644.699614 192.110058 
L 645.408409 192.580014 
L 646.826 192.570083 
L 647.534795 193.040077 
L 648.243591 193.035331 
L 648.952386 193.505505 
L 650.369977 193.496012 
L 651.078773 193.966187 
L 651.787568 193.96144 
L 652.496364 194.431615 
L 653.205159 194.42688 
L 653.913955 194.897265 
L 655.331545 194.888192 
L 656.040341 195.358577 
L 656.749136 195.35404 
L 657.457932 195.824425 
L 658.875523 195.815352 
L 661.001909 197.227053 
L 661.710705 197.222721 
L 663.128295 198.163897 
L 664.545886 198.155232 
L 665.254682 198.625829 
L 665.963477 198.621692 
L 666.672273 199.092476 
L 667.381068 199.088338 
L 668.089864 199.559122 
L 669.507455 199.550848 
L 670.925045 200.492416 
L 671.633841 200.488303 
L 672.342636 200.959275 
L 673.760227 200.951376 
L 674.469023 201.422348 
L 675.177818 201.418399 
L 678.013 203.302287 
L 678.721795 203.298505 
L 679.430591 203.769658 
L 680.139386 203.765889 
L 680.848182 204.237042 
L 681.556977 204.233273 
L 682.265773 204.704426 
L 683.683364 204.696888 
L 685.80975 206.110595 
L 686.518545 206.107001 
L 689.353727 207.992308 
L 690.062523 207.988714 
L 692.897705 209.874292 
L 693.6065 209.870864 
L 695.024091 210.813851 
L 695.024091 210.813851 
" style="fill:none;stroke:#1f77b4;stroke-linecap:square;stroke-width:1.5;"/>
   </g>
   <g id="patch_21">
    <path d="M 397.33 252.344 
L 397.33 164.4624 
" style="fill:none;stroke:#000000;stroke-linecap:square;stroke-linejoin:miter;stroke-width:0.8;"/>
   </g>
   <g id="patch_22">
    <path d="M 709.2 252.344 
L 709.2 164.4624 
" style="fill:none;stroke:#000000;stroke-linecap:square;stroke-linejoin:miter;stroke-width:0.8;"/>
   </g>
   <g id="patch_23">
    <path d="M 397.33 252.344 
L 709.2 252.344 
" style="fill:none;stroke:#000000;stroke-linecap:square;stroke-linejoin:miter;stroke-width:0.8;"/>
   </g>
   <g id="patch_24">
    <path d="M 397.33 164.4624 
L 709.2 164.4624 
" style="fill:none;stroke:#000000;stroke-linecap:square;stroke-linejoin:miter;stroke-width:0.8;"/>
   </g>
   <g id="text_41">
    <!-- Risky Sh. Difference -->
    <g transform="translate(492.795312 158.4624)scale(0.12 -0.12)">
     <use xlink:href="#DejaVuSans-82"/>
     <use x="69.482422" xlink:href="#DejaVuSans-105"/>
     <use x="97.265625" xlink:href="#DejaVuSans-115"/>
     <use x="149.365234" xlink:href="#DejaVuSans-107"/>
     <use x="207.228516" xlink:href="#DejaVuSans-121"/>
     <use x="266.408203" xlink:href="#DejaVuSans-32"/>
     <use x="298.195312" xlink:href="#DejaVuSans-83"/>
     <use x="361.671875" xlink:href="#DejaVuSans-104"/>
     <use x="425.050781" xlink:href="#DejaVuSans-46"/>
     <use x="456.837891" xlink:href="#DejaVuSans-32"/>
     <use x="488.625" xlink:href="#DejaVuSans-68"/>
     <use x="565.626953" xlink:href="#DejaVuSans-105"/>
     <use x="593.410156" xlink:href="#DejaVuSans-102"/>
     <use x="628.615234" xlink:href="#DejaVuSans-102"/>
     <use x="663.820312" xlink:href="#DejaVuSans-101"/>
     <use x="725.34375" xlink:href="#DejaVuSans-114"/>
     <use x="766.425781" xlink:href="#DejaVuSans-101"/>
     <use x="827.949219" xlink:href="#DejaVuSans-110"/>
     <use x="891.328125" xlink:href="#DejaVuSans-99"/>
     <use x="946.308594" xlink:href="#DejaVuSans-101"/>
    </g>
   </g>
   <g id="legend_4">
    <g id="patch_25">
     <path d="M 609.009375 247.344 
L 702.2 247.344 
Q 704.2 247.344 704.2 245.344 
L 704.2 231.665875 
Q 704.2 229.665875 702.2 229.665875 
L 609.009375 229.665875 
Q 607.009375 229.665875 607.009375 231.665875 
L 607.009375 245.344 
Q 607.009375 247.344 609.009375 247.344 
z
" style="fill:#ffffff;opacity:0.8;stroke:#cccccc;stroke-linejoin:miter;"/>
    </g>
    <g id="line2d_117">
     <path d="M 611.009375 237.764312 
L 631.009375 237.764312 
" style="fill:none;stroke:#1f77b4;stroke-linecap:square;stroke-width:1.5;"/>
    </g>
    <g id="line2d_118"/>
    <g id="text_42">
     <!-- CGM - HARK -->
     <g transform="translate(639.009375 241.264312)scale(0.1 -0.1)">
      <use xlink:href="#DejaVuSans-67"/>
      <use x="69.824219" xlink:href="#DejaVuSans-71"/>
      <use x="147.314453" xlink:href="#DejaVuSans-77"/>
      <use x="233.59375" xlink:href="#DejaVuSans-32"/>
      <use x="265.380859" xlink:href="#DejaVuSans-45"/>
      <use x="301.464844" xlink:href="#DejaVuSans-32"/>
      <use x="333.251953" xlink:href="#DejaVuSans-72"/>
      <use x="408.447266" xlink:href="#DejaVuSans-65"/>
      <use x="476.855469" xlink:href="#DejaVuSans-82"/>
      <use x="546.337891" xlink:href="#DejaVuSans-75"/>
     </g>
    </g>
   </g>
  </g>
  <g id="text_43">
   <!-- Year 38 -->
   <defs>
    <path d="M -0.203125 72.90625 
L 10.40625 72.90625 
L 30.609375 42.921875 
L 50.6875 72.90625 
L 61.28125 72.90625 
L 35.5 34.71875 
L 35.5 0 
L 25.59375 0 
L 25.59375 34.71875 
z
" id="DejaVuSans-89"/>
    <path d="M 34.28125 27.484375 
Q 23.390625 27.484375 19.1875 25 
Q 14.984375 22.515625 14.984375 16.5 
Q 14.984375 11.71875 18.140625 8.90625 
Q 21.296875 6.109375 26.703125 6.109375 
Q 34.1875 6.109375 38.703125 11.40625 
Q 43.21875 16.703125 43.21875 25.484375 
L 43.21875 27.484375 
z
M 52.203125 31.203125 
L 52.203125 0 
L 43.21875 0 
L 43.21875 8.296875 
Q 40.140625 3.328125 35.546875 0.953125 
Q 30.953125 -1.421875 24.3125 -1.421875 
Q 15.921875 -1.421875 10.953125 3.296875 
Q 6 8.015625 6 15.921875 
Q 6 25.140625 12.171875 29.828125 
Q 18.359375 34.515625 30.609375 34.515625 
L 43.21875 34.515625 
L 43.21875 35.40625 
Q 43.21875 41.609375 39.140625 45 
Q 35.0625 48.390625 27.6875 48.390625 
Q 23 48.390625 18.546875 47.265625 
Q 14.109375 46.140625 10.015625 43.890625 
L 10.015625 52.203125 
Q 14.9375 54.109375 19.578125 55.046875 
Q 24.21875 56 28.609375 56 
Q 40.484375 56 46.34375 49.84375 
Q 52.203125 43.703125 52.203125 31.203125 
z
" id="DejaVuSans-97"/>
    <path d="M 31.78125 34.625 
Q 24.75 34.625 20.71875 30.859375 
Q 16.703125 27.09375 16.703125 20.515625 
Q 16.703125 13.921875 20.71875 10.15625 
Q 24.75 6.390625 31.78125 6.390625 
Q 38.8125 6.390625 42.859375 10.171875 
Q 46.921875 13.96875 46.921875 20.515625 
Q 46.921875 27.09375 42.890625 30.859375 
Q 38.875 34.625 31.78125 34.625 
z
M 21.921875 38.8125 
Q 15.578125 40.375 12.03125 44.71875 
Q 8.5 49.078125 8.5 55.328125 
Q 8.5 64.0625 14.71875 69.140625 
Q 20.953125 74.21875 31.78125 74.21875 
Q 42.671875 74.21875 48.875 69.140625 
Q 55.078125 64.0625 55.078125 55.328125 
Q 55.078125 49.078125 51.53125 44.71875 
Q 48 40.375 41.703125 38.8125 
Q 48.828125 37.15625 52.796875 32.3125 
Q 56.78125 27.484375 56.78125 20.515625 
Q 56.78125 9.90625 50.3125 4.234375 
Q 43.84375 -1.421875 31.78125 -1.421875 
Q 19.734375 -1.421875 13.25 4.234375 
Q 6.78125 9.90625 6.78125 20.515625 
Q 6.78125 27.484375 10.78125 32.3125 
Q 14.796875 37.15625 21.921875 38.8125 
z
M 18.3125 54.390625 
Q 18.3125 48.734375 21.84375 45.5625 
Q 25.390625 42.390625 31.78125 42.390625 
Q 38.140625 42.390625 41.71875 45.5625 
Q 45.3125 48.734375 45.3125 54.390625 
Q 45.3125 60.0625 41.71875 63.234375 
Q 38.140625 66.40625 31.78125 66.40625 
Q 25.390625 66.40625 21.84375 63.234375 
Q 18.3125 60.0625 18.3125 54.390625 
z
" id="DejaVuSans-56"/>
   </defs>
   <g transform="translate(336.970312 14.878125)scale(0.12 -0.12)">
    <use xlink:href="#DejaVuSans-89"/>
    <use x="60.880859" xlink:href="#DejaVuSans-101"/>
    <use x="122.404297" xlink:href="#DejaVuSans-97"/>
    <use x="183.683594" xlink:href="#DejaVuSans-114"/>
    <use x="224.796875" xlink:href="#DejaVuSans-32"/>
    <use x="256.583984" xlink:href="#DejaVuSans-51"/>
    <use x="320.207031" xlink:href="#DejaVuSans-56"/>
   </g>
  </g>
 </g>
 <defs>
  <clipPath id="p20acaf4706">
   <rect height="87.8816" width="311.87" x="40.12" y="32.64"/>
  </clipPath>
  <clipPath id="pa2e497b1a7">
   <rect height="87.8816" width="311.87" x="397.33" y="32.64"/>
  </clipPath>
  <clipPath id="p4f14dc3c8d">
   <rect height="87.8816" width="311.87" x="40.12" y="164.4624"/>
  </clipPath>
  <clipPath id="pc53ed09ec4">
   <rect height="87.8816" width="311.87" x="397.33" y="164.4624"/>
  </clipPath>
 </defs>
</svg>
