<?xml version="1.0" encoding="utf-8" standalone="no"?>
<!DOCTYPE svg PUBLIC "-//W3C//DTD SVG 1.1//EN"
  "http://www.w3.org/Graphics/SVG/1.1/DTD/svg11.dtd">
<!-- Created with matplotlib (http://matplotlib.org/) -->
<svg height="576pt" version="1.1" viewBox="0 0 864 576" width="864pt" xmlns="http://www.w3.org/2000/svg" xmlns:xlink="http://www.w3.org/1999/xlink">
 <defs>
  <style type="text/css">
*{stroke-linecap:butt;stroke-linejoin:round;}
  </style>
 </defs>
 <g id="figure_1">
  <g id="patch_1">
   <path d="M 0 576 
L 864 576 
L 864 0 
L 0 0 
z
" style="fill:#ffffff;"/>
  </g>
  <g id="axes_1">
   <g id="patch_2">
    <path d="M 108 512.64 
L 777.6 512.64 
L 777.6 69.12 
L 108 69.12 
z
" style="fill:#ffffff;"/>
   </g>
   <g id="patch_3">
    <path clip-path="url(#p842894c0df)" d="M 160.2288 428.260148 
L 162.262757 426.526621 
L 162.23653 428.457139 
L 173.621335 429.797943 
L 173.620265 429.876739 
L 162.23546 428.535936 
L 162.209232 430.466454 
z
" style="stroke:#000000;stroke-linejoin:miter;"/>
   </g>
   <g id="patch_4">
    <path clip-path="url(#p842894c0df)" d="M 152.1936 198.778493 
L 154.29471 198.00521 
L 154.166017 199.899753 
L 165.588226 206.625796 
L 165.582974 206.703125 
L 154.160764 199.977081 
L 154.032071 201.871624 
z
" style="stroke:#000000;stroke-linejoin:miter;"/>
   </g>
   <g id="patch_5">
    <path clip-path="url(#p842894c0df)" d="M 326.2896 181.429365 
L 328.336257 179.830647 
L 328.295323 181.758946 
L 347.717635 185.332995 
L 347.715965 185.411701 
L 328.293653 181.837652 
L 328.25272 183.765952 
z
" style="stroke:#000000;stroke-linejoin:miter;"/>
   </g>
   <g id="patch_6">
    <path clip-path="url(#p842894c0df)" d="M 256.6512 114.398641 
L 258.66 112.427149 
L 258.66 114.359211 
L 267.3648 114.359211 
L 267.3648 114.438071 
L 258.66 114.438071 
L 258.66 116.370133 
z
" style="stroke:#000000;stroke-linejoin:miter;"/>
   </g>
   <g id="patch_7">
    <path clip-path="url(#p842894c0df)" d="M 496.368 465.324195 
L 494.26689 466.097478 
L 494.395583 464.202935 
L 482.973374 457.476892 
L 482.978626 457.399563 
L 494.400836 464.125607 
L 494.529529 462.231064 
z
" style="stroke:#000000;stroke-linejoin:miter;"/>
   </g>
   <g id="matplotlib.axis_1">
    <g id="xtick_1"/>
    <g id="xtick_2"/>
    <g id="xtick_3"/>
    <g id="xtick_4"/>
    <g id="xtick_5"/>
    <g id="xtick_6"/>
   </g>
   <g id="matplotlib.axis_2">
    <g id="ytick_1"/>
    <g id="ytick_2"/>
    <g id="ytick_3"/>
    <g id="ytick_4"/>
    <g id="ytick_5"/>
    <g id="ytick_6"/>
   </g>
   <g id="line2d_1">
    <path clip-path="url(#p842894c0df)" d="M 108 512.64 
L 120.064865 479.825654 
L 125.427027 465.860994 
L 128.778378 457.671368 
L 131.459459 451.665043 
L 133.47027 447.623796 
L 135.481081 444.068657 
L 137.491892 441.018985 
L 139.502703 438.426735 
L 141.513514 436.2083 
L 143.524324 434.280327 
L 146.205405 432.04773 
L 148.886486 430.100374 
L 152.237838 427.956237 
L 156.259459 425.691642 
L 160.281081 423.674309 
L 164.972973 421.556331 
L 170.335135 419.372662 
L 177.037838 416.905354 
L 184.410811 414.435454 
L 193.124324 411.75021 
L 203.178378 408.886461 
L 215.243243 405.686089 
L 228.648649 402.358058 
L 244.064865 398.760144 
L 263.502703 394.464145 
L 284.281081 390.104246 
L 307.07027 385.552031 
L 333.210811 380.559984 
L 366.724324 374.397676 
L 404.259459 367.719677 
L 443.805405 360.91362 
L 486.032432 353.877374 
L 531.610811 346.514877 
L 581.881081 338.627257 
L 639.524324 329.816199 
L 713.254054 318.785928 
L 777.6 309.246252 
L 777.6 309.246252 
" style="fill:none;stroke:#000000;stroke-linecap:square;stroke-width:1.5;"/>
   </g>
   <g id="line2d_2">
    <path clip-path="url(#p842894c0df)" d="M 108 512.64 
L 777.6 435.29625 
L 777.6 435.29625 
" style="fill:none;stroke:#000000;stroke-linecap:square;stroke-width:2.5;"/>
   </g>
   <g id="line2d_3">
    <path clip-path="url(#p842894c0df)" d="M 108 512.64 
L 229.219643 179.981985 
L 229.219643 179.981985 
" style="fill:none;stroke:#000000;stroke-linecap:square;stroke-width:2.5;"/>
   </g>
   <g id="line2d_4">
    <path clip-path="url(#p842894c0df)" d="M 229.219643 179.981985 
L 777.6 116.64 
L 777.6 116.64 
" style="fill:none;stroke:#000000;stroke-linecap:square;stroke-width:2.5;"/>
   </g>
   <g id="line2d_5">
    <path clip-path="url(#p842894c0df)" d="M 229.219643 179.981985 
L 295.168968 -1 
L 295.168968 -1 
" style="fill:none;stroke:#000000;stroke-dasharray:5.55,2.4;stroke-dashoffset:0;stroke-width:1.5;"/>
   </g>
   <g id="line2d_6">
    <path clip-path="url(#p842894c0df)" d="M 108 193.98375 
L 229.219643 179.981985 
L 229.219643 179.981985 
" style="fill:none;stroke:#000000;stroke-dasharray:5.55,2.4;stroke-dashoffset:0;stroke-width:1.5;"/>
   </g>
   <g id="patch_8">
    <path d="M 108 512.64 
L 108 69.12 
" style="fill:none;stroke:#000000;stroke-linecap:square;stroke-linejoin:miter;stroke-width:0.8;"/>
   </g>
   <g id="patch_9">
    <path d="M 777.6 512.64 
L 777.6 69.12 
" style="fill:none;stroke:#000000;stroke-linecap:square;stroke-linejoin:miter;stroke-width:0.8;"/>
   </g>
   <g id="patch_10">
    <path d="M 108 512.64 
L 777.6 512.64 
" style="fill:none;stroke:#000000;stroke-linecap:square;stroke-linejoin:miter;stroke-width:0.8;"/>
   </g>
   <g id="patch_11">
    <path d="M 108 69.12 
L 777.6 69.12 
" style="fill:none;stroke:#000000;stroke-linecap:square;stroke-linejoin:miter;stroke-width:0.8;"/>
   </g>
   <g id="text_1">
    <!-- $c$ -->
    <defs>
     <path d="M 39.09375 37.984375 
C 37.203125 37.984375 36.296875 37.984375 34.90625 36.796875 
C 34.296875 36.296875 33.203125 34.796875 33.203125 33.203125 
C 33.203125 31.203125 34.703125 30 36.59375 30 
C 39 30 41.703125 31.9375 41.703125 35.8125 
C 41.703125 40.4375 37.09375 44 30.203125 44 
C 17.09375 44 4 29.734375 4 15.5625 
C 4 6.890625 9.40625 -1 19.59375 -1 
C 33.203125 -1 41.796875 9.71875 41.796875 11.03125 
C 41.796875 11.625 41.203125 12.125 40.796875 12.125 
C 40.5 12.125 40.40625 12.03125 39.5 11.140625 
C 33.09375 2.53125 23.59375 1 19.796875 1 
C 12.90625 1 10.703125 6.96875 10.703125 11.9375 
C 10.703125 15.4375 12.40625 25.078125 16 31.859375 
C 18.59375 36.53125 24 41.90625 30.296875 41.90625 
C 31.59375 41.90625 37.09375 41.90625 39.09375 37.984375 
z
" id="CMMI12-99"/>
    </defs>
    <g transform="translate(108 65.177016)scale(0.22 -0.22)">
     <use transform="scale(0.996264)" xlink:href="#CMMI12-99"/>
    </g>
   </g>
   <g id="text_2">
    <!-- $m$ -->
    <defs>
     <path d="M 20.59375 29.234375 
C 20.796875 29.84375 23.296875 34.828125 27 38.015625 
C 29.59375 40.40625 33 42.015625 36.90625 42.015625 
C 40.90625 42.015625 42.296875 39.015625 42.296875 35.03125 
C 42.296875 34.421875 42.296875 32.4375 41.09375 27.734375 
L 38.59375 17.46875 
C 37.796875 14.46875 35.90625 7.078125 35.703125 5.984375 
C 35.296875 4.484375 34.703125 1.890625 34.703125 1.5 
C 34.703125 0.09375 35.796875 -1 37.296875 -1 
C 40.296875 -1 40.796875 1.296875 41.703125 4.890625 
L 47.703125 28.734375 
C 47.90625 29.53125 53.09375 42.015625 64.09375 42.015625 
C 68.09375 42.015625 69.5 39.015625 69.5 35.03125 
C 69.5 29.4375 65.59375 18.5625 63.40625 12.578125 
C 62.5 10.171875 62 8.875 62 7.078125 
C 62 2.59375 65.09375 -1 69.90625 -1 
C 79.203125 -1 82.703125 13.671875 82.703125 14.265625 
C 82.703125 14.765625 82.296875 15.171875 81.703125 15.171875 
C 80.796875 15.171875 80.703125 14.875 80.203125 13.171875 
C 77.90625 5.1875 74.203125 1 70.203125 1 
C 69.203125 1 67.59375 1 67.59375 4.203125 
C 67.59375 6.8125 68.796875 10 69.203125 11.09375 
C 71 15.90625 75.5 27.703125 75.5 33.515625 
C 75.5 39.5 72 44 64.40625 44 
C 57.703125 44 52.296875 40.21875 48.296875 34.328125 
C 48 39.71875 44.703125 44 37.203125 44 
C 28.296875 44 23.59375 37.734375 21.796875 35.234375 
C 21.5 40.90625 17.40625 44 13 44 
C 10.09375 44 7.796875 42.609375 5.90625 38.8125 
C 4.09375 35.21875 2.703125 29.140625 2.703125 28.734375 
C 2.703125 28.34375 3.09375 27.84375 3.796875 27.84375 
C 4.59375 27.84375 4.703125 27.9375 5.296875 30.234375 
C 6.796875 36.125 8.703125 42.015625 12.703125 42.015625 
C 15 42.015625 15.796875 40.40625 15.796875 37.421875 
C 15.796875 35.21875 14.796875 31.328125 14.09375 28.234375 
L 11.296875 17.46875 
C 10.90625 15.5625 9.796875 11.078125 9.296875 9.28125 
C 8.59375 6.6875 7.5 2 7.5 1.5 
C 7.5 0.09375 8.59375 -1 10.09375 -1 
C 11.296875 -1 12.703125 -0.40625 13.5 1.09375 
C 13.703125 1.59375 14.59375 5.09375 15.09375 7.078125 
L 17.296875 16.0625 
z
" id="CMMI12-109"/>
    </defs>
    <g transform="translate(780.2784 512.64)scale(0.22 -0.22)">
     <use transform="scale(0.996264)" xlink:href="#CMMI12-109"/>
    </g>
   </g>
   <g id="text_3">
    <!-- $c(m)$ -->
    <defs>
     <path d="M 30.59375 -24.390625 
C 30.59375 -24.296875 30.59375 -24.09375 30.296875 -23.796875 
C 25.703125 -19.125 13.40625 -6.359375 13.40625 24.703125 
C 13.40625 55.765625 25.5 68.421875 30.40625 73.390625 
C 30.40625 73.5 30.59375 73.703125 30.59375 74 
C 30.59375 74.296875 30.296875 74.5 29.90625 74.5 
C 28.796875 74.5 20.296875 67.125 15.40625 56.15625 
C 10.40625 45.109375 9 34.359375 9 24.8125 
C 9 17.625 9.703125 5.484375 15.703125 -7.359375 
C 20.5 -17.734375 28.703125 -25 29.90625 -25 
C 30.40625 -25 30.59375 -24.796875 30.59375 -24.390625 
z
" id="CMR17-40"/>
     <path d="M 26.296875 24.703125 
C 26.296875 31.875 25.59375 44.015625 19.59375 56.859375 
C 14.796875 67.234375 6.59375 74.5 5.40625 74.5 
C 5.09375 74.5 4.703125 74.390625 4.703125 73.890625 
C 4.703125 73.703125 4.796875 73.59375 4.90625 73.390625 
C 9.703125 68.40625 21.90625 55.75 21.90625 24.75 
C 21.90625 -6.359375 9.796875 -19.015625 4.90625 -24.015625 
C 4.796875 -24.203125 4.703125 -24.3125 4.703125 -24.5 
C 4.703125 -25 5.09375 -25 5.40625 -25 
C 6.5 -25 15 -17.625 19.90625 -6.65625 
C 24.90625 4.390625 26.296875 15.140625 26.296875 24.703125 
z
" id="CMR17-41"/>
    </defs>
    <g transform="translate(174.96 433.780325)scale(0.22 -0.22)">
     <use transform="scale(0.996264)" xlink:href="#CMMI12-99"/>
     <use transform="translate(41.983234 0)scale(0.996264)" xlink:href="#CMR17-40"/>
     <use transform="translate(77.264001 0)scale(0.996264)" xlink:href="#CMMI12-109"/>
     <use transform="translate(162.591226 0)scale(0.996264)" xlink:href="#CMR17-41"/>
    </g>
   </g>
   <g id="text_4">
    <!-- $\overline{\overline c}(m)= \overline{\kappa}m = (1-\wp^{1/\rho}\Phi_{R})m$ -->
    <defs>
     <path d="M 64.296875 31.515625 
C 65.796875 31.515625 67.296875 31.515625 67.296875 33.203125 
C 67.296875 35 65.59375 35 63.90625 35 
L 8 35 
C 6.296875 35 4.59375 35 4.59375 33.203125 
C 4.59375 31.515625 6.09375 31.515625 7.59375 31.515625 
z
M 63.90625 14 
C 65.59375 14 67.296875 14 67.296875 15.796875 
C 67.296875 17.484375 65.796875 17.484375 64.296875 17.484375 
L 7.59375 17.484375 
C 6.09375 17.484375 4.59375 17.484375 4.59375 15.796875 
C 4.59375 14 6.296875 14 8 14 
z
" id="CMR17-61"/>
     <path d="M 21.296875 25 
C 24.59375 26.78125 28.296875 29.875 30.796875 31.96875 
C 36.796875 37.140625 39 38.734375 42.796875 40.21875 
C 42.40625 39.625 42.296875 38.828125 42.296875 38.140625 
C 42.296875 35.4375 44.59375 34.9375 45.59375 34.9375 
C 48.796875 34.9375 50.59375 37.921875 50.59375 39.8125 
C 50.59375 40.40625 50.40625 43 46.90625 43 
C 40.90625 43 35 37.984375 30.59375 34.34375 
C 24.796875 29.3125 21.90625 27.15625 17.796875 25.875 
L 21.59375 41.5 
C 21.59375 43.109375 20.296875 44 19 44 
C 18.09375 44 15.90625 43.703125 15.09375 40.5 
L 5.796875 3.5 
C 5.5 2.3125 5.5 2.09375 5.5 1.5 
C 5.5 0.09375 6.59375 -1 8.09375 -1 
C 11.09375 -1 11.703125 1.65625 12.203125 3.8125 
C 12.796875 5.9375 16.90625 23 17.09375 23 
C 29.796875 23 34.09375 19.75 34.09375 14.734375 
C 34.09375 14.015625 34.09375 13.71875 33.796875 12.59375 
C 33.40625 10.65625 33.40625 9.515625 33.40625 8.90625 
C 33.40625 2.78125 37.296875 -1 42.203125 -1 
C 46.296875 -1 48.59375 1.921875 50.09375 4.546875 
C 52.203125 8.484375 53.5 14.03125 53.5 14.421875 
C 53.5 14.9375 53.09375 15.328125 52.5 15.328125 
C 51.59375 15.328125 51.5 14.9375 51.09375 13.3125 
C 49.796875 8.46875 47.59375 1 42.5 1 
C 40.296875 1 39.203125 2.3125 39.203125 5.84375 
C 39.203125 7.78125 39.59375 10.015625 40 11.515625 
C 40.203125 12.53125 40.5 13.75 40.5 14.859375 
C 40.5 24.078125 27.90625 25 21.296875 25 
z
" id="CMMI12-20"/>
     <path d="M 26.59375 63.40625 
C 26.59375 65.5 26.5 65.5 25.09375 65.5 
C 21.203125 61.1875 15.296875 59.796875 9.703125 59.796875 
C 9.40625 59.796875 8.90625 59.796875 8.796875 59.5 
C 8.703125 59.296875 8.703125 59.09375 8.703125 57 
C 11.796875 57 17 57.59375 21 59.984375 
L 21 7.203125 
C 21 3.6875 20.796875 2.5 12.203125 2.5 
L 9.203125 2.5 
L 9.203125 0 
C 14 0 19 0 23.796875 0 
C 28.59375 0 33.59375 0 38.40625 0 
L 38.40625 2.5 
L 35.40625 2.5 
C 26.796875 2.5 26.59375 3.59375 26.59375 7.15625 
z
" id="CMR17-49"/>
     <path d="M 65.90625 23 
C 67.59375 23 69.40625 23 69.40625 25 
C 69.40625 27 67.59375 27 65.90625 27 
L 11.796875 27 
C 10.09375 27 8.296875 27 8.296875 25 
C 8.296875 23 10.09375 23 11.796875 23 
z
" id="CMSY10-0"/>
     <path d="M 16.40625 12 
C 22.59375 26.25 34.296875 38.90625 47.59375 38.90625 
C 52.59375 38.90625 54.796875 34.703125 54.796875 29.203125 
C 54.796875 24.90625 52.796875 15.59375 49.59375 9.796875 
C 47.09375 5.296875 42.703125 1 38 1 
C 36 1 31.40625 1.90625 31.40625 7.390625 
C 32.796875 7.6875 33.40625 8.6875 33.40625 9.59375 
C 33.40625 10.703125 32.59375 11.296875 31.703125 11.296875 
C 29.203125 11.296875 29.203125 8.203125 29.203125 7.203125 
C 29.203125 1.703125 33.5 -1 38 -1 
C 49 -1 60.5 12.5 60.5 26.09375 
C 60.5 33.59375 56.296875 40.90625 47.796875 40.90625 
C 41.703125 40.90625 34.90625 38.59375 27.90625 32.09375 
C 24.09375 28.703125 19.90625 23.796875 14.90625 14.09375 
C 12.5 16.796875 12.5 20 12.5 21.40625 
C 12.5 28.90625 17.296875 41.75 24.203125 43.078125 
C 24.796875 43.171875 25.40625 43.265625 25.40625 44.21875 
C 25.40625 44.3125 25.40625 44.984375 24.296875 44.984375 
C 17.203125 44.984375 8.203125 31.265625 8.203125 18.53125 
C 8.203125 13.375 9.296875 11.875 12.40625 7.796875 
C 8.90625 -2.28125 7.5 -10.84375 7.5 -13.953125 
C 7.5 -18.09375 9.09375 -21.71875 13.796875 -21.71875 
C 20.40625 -21.71875 26.796875 -13.09375 26.796875 -5.359375 
C 26.796875 -1.734375 25.90625 -0.546875 22.5 4.078125 
C 21.09375 5.78125 17.703125 10.1875 16.40625 12 
z
M 13.90625 5.484375 
L 21.203125 -4.015625 
C 22.296875 -5.625 22.40625 -6.8125 22.40625 -8.21875 
C 22.40625 -14.015625 18 -19.71875 13.796875 -19.71875 
C 11 -19.71875 9.703125 -17.71875 9.703125 -13.921875 
C 9.703125 -9.3125 12.5 1.484375 13.90625 5.484375 
z
" id="CMMI12-125"/>
     <path d="M 42.90625 71.28125 
C 42.90625 71.390625 43.5 72.90625 43.5 73.09375 
C 43.5 74.296875 42.5 75 41.703125 75 
C 41.203125 75 40.296875 75 39.5 72.796875 
L 6 -21.296875 
C 6 -21.40625 5.40625 -22.890625 5.40625 -23.09375 
C 5.40625 -24.296875 6.40625 -25 7.203125 -25 
C 7.796875 -25 8.703125 -24.890625 9.40625 -22.796875 
z
" id="CMMI12-61"/>
     <path d="M 3.09375 -17.296875 
C 3 -17.796875 2.796875 -18.390625 2.796875 -19 
C 2.796875 -20.5 4 -21.5 5.5 -21.5 
C 7 -21.5 8.40625 -20.5 9 -19.09375 
C 9.40625 -18.1875 12.203125 -6.203125 15.40625 6.09375 
C 17.40625 1.09375 21.09375 -1 25 -1 
C 36.296875 -1 49.09375 12.96875 49.09375 28.046875 
C 49.09375 38.71875 42.59375 44 35.703125 44 
C 26.90625 44 16.203125 34.921875 12.90625 21.640625 
z
M 24.90625 1 
C 18.09375 1 16.40625 8.890625 16.40625 10.078125 
C 16.40625 10.6875 18.90625 20.234375 19.203125 21.734375 
C 24.296875 41.71875 34.09375 41.71875 35.59375 41.71875 
C 40.09375 41.71875 42.59375 37.65625 42.59375 31.8125 
C 42.59375 26.75 39.90625 16.9375 38.203125 12.796875 
C 35.203125 5.953125 30 1 24.90625 1 
z
" id="CMMI12-26"/>
     <path d="M 36.40625 12.78125 
C 52.59375 14.171875 62.09375 24.265625 62.09375 33.9375 
C 62.09375 44.03125 52.203125 53.8125 36.40625 55.21875 
L 36.40625 60.890625 
C 36.40625 64.5 36.59375 65.5 44.203125 65.5 
L 46.40625 65.5 
L 46.40625 68 
C 42.296875 68 37.5 68 33.296875 68 
C 29.09375 68 24.203125 68 20.09375 68 
L 20.09375 65.5 
L 22.296875 65.5 
C 29.90625 65.5 30.09375 64.5 30.09375 60.890625 
L 30.09375 55.21875 
C 14.40625 53.8125 4.59375 43.921875 4.59375 34.046875 
C 4.59375 23.765625 14.796875 14.171875 30.09375 12.78125 
L 30.09375 7.09375 
C 30.09375 3.5 29.90625 2.5 22.296875 2.5 
L 20.09375 2.5 
L 20.09375 0 
C 24.203125 0 29.09375 0 33.296875 0 
C 37.5 0 42.296875 0 46.40625 0 
L 46.40625 2.5 
L 44.203125 2.5 
C 36.59375 2.5 36.40625 3.5 36.40625 7.09375 
z
M 30.09375 14.484375 
C 21.09375 15.484375 12 20.671875 12 33.953125 
C 12 47.625 21.40625 52.609375 30.09375 53.515625 
z
M 36.40625 53.515625 
C 44.296875 52.8125 54.703125 48.328125 54.703125 34.046875 
C 54.703125 19.375 43.90625 15.1875 36.40625 14.484375 
z
" id="CMR17-8"/>
     <path d="M 36.796875 61.3125 
C 37.703125 65 38.09375 65 42 65 
L 49.203125 65 
C 57.796875 65 64.203125 62.421875 64.203125 54.671875 
C 64.203125 49.609375 61.59375 35 41.5 35 
L 30.203125 35 
z
M 50.703125 33.890625 
C 63.09375 36.578125 72.796875 44.546875 72.796875 53.09375 
C 72.796875 60.84375 64.90625 68 51 68 
L 23.90625 68 
C 21.90625 68 21 68 21 66.03125 
C 21 65 21.703125 65 23.59375 65 
C 29.59375 65 29.59375 64.25 29.59375 63.203125 
C 29.59375 63.015625 29.59375 62.40625 29.203125 60.921875 
L 15.703125 7.484375 
C 14.796875 4 14.59375 3 7.703125 3 
C 5.40625 3 4.703125 3 4.703125 1.109375 
C 4.703125 0.109375 5.796875 0.109375 6.09375 0.109375 
C 7.90625 0.109375 10 0.109375 11.90625 0.109375 
L 23.703125 0.109375 
C 25.5 0.109375 27.59375 0.109375 29.40625 0.109375 
C 30.203125 0.109375 31.296875 0.109375 31.296875 2 
C 31.296875 3 30.40625 3 28.90625 3 
C 22.796875 3 22.796875 3.796875 22.796875 4.78125 
C 22.796875 4.890625 22.796875 5.578125 23 6.359375 
L 29.703125 33 
L 41.703125 33 
C 51.203125 33 53 27.046875 53 23.78125 
C 53 22.296875 52 18.421875 51.296875 15.84375 
C 50.203125 11.296875 49.90625 10.1875 49.90625 8.3125 
C 49.90625 1.28125 55.703125 -2 62.40625 -2 
C 70.5 -2 74 7.828125 74 9.234375 
C 74 9.921875 73.5 10.21875 72.90625 10.21875 
C 72.09375 10.21875 71.90625 9.625 71.703125 8.828125 
C 69.296875 1.78125 65.203125 0 62.703125 0 
C 60.203125 0 58.59375 1.09375 58.59375 5.5625 
C 58.59375 7.953125 59.796875 17 59.90625 17.5 
C 60.40625 21.171875 60.40625 21.5625 60.40625 22.375 
C 60.40625 29.625 54.5 32.703125 50.703125 33.890625 
z
" id="CMMI12-82"/>
    </defs>
    <g transform="translate(268.704 118.341624)scale(0.22 -0.22)">
     <use transform="translate(0 14.943915)scale(0.996264)" xlink:href="#CMMI12-99"/>
     <use transform="translate(41.983234 14.943915)scale(0.996264)" xlink:href="#CMR17-40"/>
     <use transform="translate(77.264001 14.943915)scale(0.996264)" xlink:href="#CMMI12-109"/>
     <use transform="translate(162.591226 14.943915)scale(0.996264)" xlink:href="#CMR17-41"/>
     <use transform="translate(225.546002 14.943915)scale(0.996264)" xlink:href="#CMR17-61"/>
     <use transform="translate(324.9348 14.943915)scale(0.996264)" xlink:href="#CMMI12-20"/>
     <use transform="translate(381.089424 14.943915)scale(0.996264)" xlink:href="#CMMI12-109"/>
     <use transform="translate(494.090657 14.943915)scale(0.996264)" xlink:href="#CMR17-61"/>
     <use transform="translate(593.479454 14.943915)scale(0.996264)" xlink:href="#CMR17-40"/>
     <use transform="translate(628.760222 14.943915)scale(0.996264)" xlink:href="#CMR17-49"/>
     <use transform="translate(696.589906 14.943915)scale(0.996264)" xlink:href="#CMSY10-0"/>
     <use transform="translate(796.21658 14.943915)scale(0.996264)" xlink:href="#CMMI12-125"/>
     <use transform="translate(858.321076 51.097553)scale(0.697382)" xlink:href="#CMR17-49"/>
     <use transform="translate(890.304258 51.097553)scale(0.697382)" xlink:href="#CMMI12-61"/>
     <use transform="translate(924.446549 51.097553)scale(0.697382)" xlink:href="#CMMI12-26"/>
     <use transform="translate(960.164596 14.943915)scale(0.996264)" xlink:href="#CMR17-8"/>
     <use transform="translate(1026.674476 0)scale(0.697382)" xlink:href="#CMMI12-82"/>
     <use transform="translate(1079.722038 14.943915)scale(0.996264)" xlink:href="#CMR17-41"/>
     <use transform="translate(1115.002806 14.943915)scale(0.996264)" xlink:href="#CMMI12-109"/>
     <path d="M 0 89.718274 
L 41.983234 89.718274 
L 41.983234 93.703224 
L 0 93.703224 
L 0 89.718274 
z
"/>
     <path d="M 0 69.793526 
L 41.983234 69.793526 
L 41.983234 73.778476 
L 0 73.778476 
L 0 69.793526 
z
"/>
     <path d="M 324.9348 69.793526 
L 381.089424 69.793526 
L 381.089424 73.778476 
L 324.9348 73.778476 
L 324.9348 69.793526 
z
"/>
    </g>
   </g>
   <g id="text_5">
    <!-- $\overline{c}(m) = (m-1+h)\underline{\kappa}$ -->
    <defs>
     <path d="M 37.703125 23 
L 64.203125 23 
C 65.59375 23 67.296875 23 67.296875 24.6875 
C 67.296875 26.484375 65.703125 26.484375 64.203125 26.484375 
L 37.703125 26.484375 
L 37.703125 52.90625 
C 37.703125 54.296875 37.703125 56 36 56 
C 34.203125 56 34.203125 54.40625 34.203125 52.90625 
L 34.203125 26.484375 
L 7.703125 26.484375 
C 6.296875 26.484375 4.59375 26.484375 4.59375 24.796875 
C 4.59375 23 6.203125 23 7.703125 23 
L 34.203125 23 
L 34.203125 -3.40625 
C 34.203125 -4.796875 34.203125 -6.5 35.90625 -6.5 
C 37.703125 -6.5 37.703125 -4.90625 37.703125 -3.40625 
z
" id="CMR17-43"/>
     <path d="M 28.09375 66.515625 
C 28.203125 66.921875 28.40625 67.515625 28.40625 68 
C 28.40625 69 27.40625 69 27.203125 69 
C 27.09375 69 22.203125 68.5625 21.703125 68.4375 
C 20 68.328125 18.5 68.09375 16.703125 68.09375 
C 14.203125 67.890625 13.5 67.796875 13.5 66 
C 13.5 65 14.296875 65 15.703125 65 
C 20.59375 65 20.703125 64.109375 20.703125 63.125 
C 20.703125 62.53125 20.5 61.734375 20.40625 61.4375 
L 5.90625 3.875 
C 5.5 2.375 5.5 2.1875 5.5 1.578125 
C 5.5 -0.59375 7.203125 -1 8.203125 -1 
C 9.90625 -1 11.203125 0.296875 11.703125 1.390625 
L 16.203125 19.453125 
C 16.703125 21.65625 17.296875 23.75 17.796875 25.9375 
C 18.90625 30.140625 18.90625 30.234375 20.796875 33.125 
C 22.703125 36.015625 27.203125 42.015625 34.90625 42.015625 
C 38.90625 42.015625 40.296875 39.015625 40.296875 35.03125 
C 40.296875 29.4375 36.40625 18.5625 34.203125 12.578125 
C 33.296875 10.171875 32.796875 8.875 32.796875 7.078125 
C 32.796875 2.59375 35.90625 -1 40.703125 -1 
C 50 -1 53.5 13.671875 53.5 14.265625 
C 53.5 14.765625 53.09375 15.171875 52.5 15.171875 
C 51.59375 15.171875 51.5 14.875 51 13.171875 
C 48.703125 5.1875 45 1 41 1 
C 40 1 38.40625 1 38.40625 4.203125 
C 38.40625 6.8125 39.59375 10 40 11.09375 
C 41.796875 15.90625 46.296875 27.703125 46.296875 33.515625 
C 46.296875 39.5 42.796875 44 35.203125 44 
C 29.5 44 24.5 41.3125 20.40625 36.125 
z
" id="CMMI12-104"/>
    </defs>
    <g transform="translate(166.9248 212.973235)scale(0.22 -0.22)">
     <use transform="translate(0 15.939799)scale(0.996264)" xlink:href="#CMMI12-99"/>
     <use transform="translate(41.983234 15.939799)scale(0.996264)" xlink:href="#CMR17-40"/>
     <use transform="translate(77.264001 15.939799)scale(0.996264)" xlink:href="#CMMI12-109"/>
     <use transform="translate(162.591226 15.939799)scale(0.996264)" xlink:href="#CMR17-41"/>
     <use transform="translate(225.546002 15.939799)scale(0.996264)" xlink:href="#CMR17-61"/>
     <use transform="translate(324.9348 15.939799)scale(0.996264)" xlink:href="#CMR17-40"/>
     <use transform="translate(360.215567 15.939799)scale(0.996264)" xlink:href="#CMMI12-109"/>
     <use transform="translate(467.681999 15.939799)scale(0.996264)" xlink:href="#CMSY10-0"/>
     <use transform="translate(567.308673 15.939799)scale(0.996264)" xlink:href="#CMR17-49"/>
     <use transform="translate(635.138358 15.939799)scale(0.996264)" xlink:href="#CMR17-43"/>
     <use transform="translate(728.992353 15.939799)scale(0.996264)" xlink:href="#CMMI12-104"/>
     <use transform="translate(785.146977 15.939799)scale(0.996264)" xlink:href="#CMR17-41"/>
     <use transform="translate(820.427745 15.939799)scale(0.996264)" xlink:href="#CMMI12-20"/>
     <path d="M 0 70.78941 
L 41.983234 70.78941 
L 41.983234 74.77436 
L 0 74.77436 
L 0 70.78941 
z
"/>
     <path d="M 820.427745 0 
L 876.582369 0 
L 876.582369 3.98495 
L 820.427745 3.98495 
L 820.427745 0 
z
"/>
    </g>
   </g>
   <g id="text_6">
    <!-- Upper Bound $ = $ Min $[\overline{\overline c}(m),\overline{c}(m)]$ -->
    <defs>
     <path d="M 54 22.390625 
C 54 9.046875 45.296875 0.59375 35.796875 0.59375 
C 30.703125 0.59375 26.09375 3.28125 23.296875 7.453125 
C 20.09375 12.234375 19.703125 18.40625 19.703125 21.890625 
L 19.703125 60.53125 
C 19.703125 65 20.796875 65 27.703125 65 
L 27.703125 67.5 
C 24.796875 67.5 19.5 67.5 16.40625 67.5 
C 13.296875 67.5 8 67.5 5.09375 67.5 
L 5.09375 65 
C 12 65 13.09375 65 13.09375 60.53125 
L 13.09375 22.390625 
C 13.09375 8.0625 24 -2 35.59375 -2 
C 48.59375 -2 56.09375 11.234375 56.09375 21 
L 56.09375 58.84375 
C 56.09375 64.40625 61.203125 65 64.09375 65 
L 64.09375 67.59375 
C 61.796875 67.5 57.59375 67.5 55.09375 67.5 
C 52.59375 67.5 48.296875 67.5 46 67.59375 
L 46 65 
C 54 65 54 60.328125 54 57.84375 
z
" id="CMR17-85"/>
     <path d="M 22 -16.609375 
C 15.59375 -16.609375 15.203125 -16.203125 15.203125 -12.328125 
L 15.203125 6.28125 
C 18.09375 2.09375 22.296875 -0.59375 27.59375 -0.59375 
C 37.59375 -0.59375 47.703125 8.171875 47.703125 21.6875 
C 47.703125 34.234375 39 43.78125 28.703125 43.78125 
C 22.703125 43.78125 17.796875 40.5 15 36.53125 
L 15 43.78125 
L 3.09375 42.6875 
L 3.09375 40.109375 
C 9 40.109375 9.90625 39.5 9.90625 34.734375 
L 9.90625 -12.328125 
C 9.90625 -16.109375 9.5 -16.609375 3.09375 -16.609375 
L 3.09375 -19.1875 
C 5.5 -19 9.90625 -19 12.5 -19 
C 15.09375 -19 19.59375 -19 22 -19.1875 
z
M 15.203125 31.4375 
C 15.203125 32.84375 15.203125 34.921875 19.09375 38.609375 
C 19.59375 39.015625 23 42 28 42 
C 35.296875 42 41.296875 32.9375 41.296875 21.59375 
C 41.296875 10.25 34.90625 1 27 1 
C 23.40625 1 19.5 2.6875 16.5 7.375 
C 15.203125 9.5625 15.203125 10.15625 15.203125 11.75 
z
" id="CMR17-112"/>
     <path d="M 38.09375 23 
C 38.5 23.40625 38.5 23.609375 38.5 24.625 
C 38.5 34.96875 33.09375 44 21.703125 44 
C 11.09375 44 2.703125 33.890625 2.703125 21.609375 
C 2.703125 8.609375 12.203125 -1 22.796875 -1 
C 34 -1 38.40625 9.484375 38.40625 11.5625 
C 38.40625 12.25 37.796875 12.25 37.59375 12.25 
C 36.90625 12.25 36.796875 12.046875 36.40625 10.875 
C 34.203125 4.140625 28.703125 0.796875 23.5 0.796875 
C 19.203125 0.796875 14.90625 3.171875 12.203125 7.5 
C 9.09375 12.546875 9.09375 18.375 9.09375 23 
z
M 9.203125 24.5 
C 9.90625 39.140625 17.59375 42.40625 21.59375 42.40625 
C 28.40625 42.40625 33 35.890625 33.09375 24.5 
z
" id="CMR17-101"/>
     <path d="M 15 23.390625 
C 15 33 19.09375 42 26.59375 42 
C 27.296875 42 28 41.90625 28.703125 41.59375 
C 28.703125 41.59375 26.5 40.890625 26.5 38.3125 
C 26.5 35.90625 28.40625 34.90625 29.90625 34.90625 
C 31.09375 34.90625 33.296875 35.609375 33.296875 38.40625 
C 33.296875 41.609375 30.09375 43.59375 26.703125 43.59375 
C 19.09375 43.59375 15.796875 36.203125 14.796875 32.703125 
L 14.703125 32.703125 
L 14.703125 43.59375 
L 3.09375 42.5 
L 3.09375 39.90625 
C 9 39.90625 9.90625 39.296875 9.90625 34.5 
L 9.90625 6.6875 
C 9.90625 2.875 9.5 2.390625 3.09375 2.390625 
L 3.09375 -0.203125 
C 5.5 0 10.09375 0 12.703125 0 
C 15.59375 0 20.703125 0 23.40625 -0.203125 
L 23.40625 2.390625 
C 16.203125 2.390625 15 2.390625 15 6.875 
z
" id="CMR17-114"/>
     <path d="M 5.203125 68 
L 5.203125 65.40625 
C 12.09375 65.40625 13.203125 65.40625 13.203125 60.9375 
L 13.203125 7.0625 
C 13.203125 2.59375 12.09375 2.59375 5.203125 2.59375 
L 5.203125 0 
L 39.59375 0 
C 52.40625 0 60.703125 9.109375 60.703125 18.1875 
C 60.703125 27.203125 52.5 34.890625 41.796875 34.890625 
C 51.40625 36.8125 58.09375 43.296875 58.09375 51 
C 58.09375 59.40625 49.90625 68 37 68 
z
M 19.5 36 
L 19.5 61.515625 
C 19.5 64.921875 19.703125 65.40625 23.703125 65.40625 
L 36.5 65.40625 
C 46.40625 65.40625 50.796875 57.40625 50.796875 51.203125 
C 50.796875 43.609375 44.703125 36 33.90625 36 
z
M 23.703125 2.59375 
C 19.703125 2.59375 19.5 3.078125 19.5 6.453125 
L 19.5 34.40625 
L 38 34.40625 
C 48.296875 34.40625 53.296875 25.390625 53.296875 18.15625 
C 53.296875 10.921875 47.59375 2.59375 36.703125 2.59375 
z
" id="CMR17-66"/>
     <path d="M 43.09375 21.1875 
C 43.09375 34 33.796875 44 22.90625 44 
C 12 44 2.703125 34 2.703125 21.1875 
C 2.703125 8.609375 12 -1 22.90625 -1 
C 33.796875 -1 43.09375 8.609375 43.09375 21.1875 
z
M 22.90625 0.796875 
C 18.203125 0.796875 14.203125 3.59375 11.90625 7.5 
C 9.40625 11.984375 9.09375 17.59375 9.09375 22 
C 9.09375 26.203125 9.296875 31.40625 11.90625 35.90625 
C 13.90625 39.203125 17.796875 42.40625 22.90625 42.40625 
C 27.40625 42.40625 31.203125 39.90625 33.59375 36.40625 
C 36.703125 31.703125 36.703125 25.109375 36.703125 22 
C 36.703125 18.09375 36.5 12.109375 33.796875 7.296875 
C 31 2.703125 26.703125 0.796875 22.90625 0.796875 
z
" id="CMR17-111"/>
     <path d="M 29.40625 42.078125 
L 29.40625 39.5 
C 35.296875 39.5 36.203125 38.890625 36.203125 34.15625 
L 36.203125 16.125 
C 36.203125 7.8125 31.703125 0.59375 24.296875 0.59375 
C 16.09375 0.59375 15.40625 5.4375 15.40625 10.59375 
L 15.40625 43.171875 
L 3.296875 42.078125 
L 3.296875 39.5 
C 7.296875 39.5 10 39.5 10.09375 35.53125 
L 10.09375 16.53125 
C 10.09375 9.890625 10.09375 5.640625 12.703125 2.859375 
C 14 1.578125 16.5 -1 23.703125 -1 
C 32.203125 -1 35.5 5.890625 36.296875 7.90625 
L 36.40625 7.90625 
L 36.40625 -0.984375 
L 48.296875 -0.984375 
L 48.296875 2 
C 42.40625 2 41.5 2.59375 41.5 7.390625 
L 41.5 43.171875 
z
" id="CMR17-117"/>
     <path d="M 41.5 30.203125 
C 41.5 35.296875 40.5 43.59375 28.703125 43.59375 
C 20.796875 43.59375 16.703125 37.5 15.203125 33.5 
L 15.09375 33.5 
L 15.09375 43.59375 
L 3.296875 42.5 
L 3.296875 39.90625 
C 9.203125 39.90625 10.09375 39.296875 10.09375 34.5 
L 10.09375 6.6875 
C 10.09375 2.875 9.703125 2.390625 3.296875 2.390625 
L 3.296875 -0.203125 
C 5.703125 0 10.09375 0 12.703125 0 
C 15.296875 0 19.796875 0 22.203125 -0.203125 
L 22.203125 2.390625 
C 15.796875 2.390625 15.40625 2.78125 15.40625 6.6875 
L 15.40625 25.90625 
C 15.40625 35.109375 21 42 28 42 
C 35.40625 42 36.203125 35.40625 36.203125 30.59375 
L 36.203125 6.6875 
C 36.203125 2.875 35.796875 2.390625 29.40625 2.390625 
L 29.40625 -0.203125 
C 31.796875 0 36.203125 0 38.796875 0 
C 41.40625 0 45.90625 0 48.296875 -0.203125 
L 48.296875 2.390625 
C 41.90625 2.390625 41.5 2.78125 41.5 6.6875 
z
" id="CMR17-110"/>
     <path d="M 29.203125 67.59375 
L 29.203125 65 
C 35.09375 65 36 64.40625 36 59.6875 
L 36 36.640625 
C 35.59375 37.140625 31.5 43.59375 23.40625 43.59375 
C 13.203125 43.59375 3.296875 34.5 3.296875 21.3125 
C 3.296875 8.203125 12.59375 -1 22.40625 -1 
C 30.90625 -1 35.296875 5.265625 35.796875 5.9375 
L 35.796875 -0.984375 
L 47.90625 -0.984375 
L 47.90625 2 
C 42 2 41.09375 2.59375 41.09375 7.390625 
L 41.09375 68.6875 
z
M 35.796875 11.796875 
C 35.796875 8.796875 34 6.09375 31.703125 4.09375 
C 28.296875 1.09375 24.90625 0.59375 23 0.59375 
C 20.09375 0.59375 9.703125 2.09375 9.703125 21.1875 
C 9.703125 40.8125 21.296875 42 23.90625 42 
C 28.5 42 32.203125 39.40625 34.5 35.796875 
C 35.796875 33.703125 35.796875 33.40625 35.796875 31.609375 
z
" id="CMR17-100"/>
     <path d="M 20.90625 66 
C 20.296875 67.5 20.203125 67.5 18.09375 67.5 
L 5.296875 67.5 
L 5.296875 65 
C 12.203125 65 13.296875 65 13.296875 60.546875 
L 13.296875 9.53125 
C 13.296875 7.046875 13.296875 2.390625 5.296875 2.390625 
L 5.296875 -0.203125 
C 7.59375 0 11.796875 0 14.296875 0 
C 16.796875 0 21 0 23.296875 -0.203125 
L 23.296875 2.390625 
C 15.296875 2.390625 15.296875 7.046875 15.296875 9.53125 
L 15.296875 64.609375 
L 15.40625 64.609375 
L 38.90625 1.390625 
C 39.296875 0.390625 39.5 -0.203125 40.296875 -0.203125 
C 41.09375 -0.203125 41.296875 0.390625 41.703125 1.390625 
L 65.40625 65.09375 
L 65.5 65.09375 
L 65.5 6.84375 
C 65.5 2.390625 64.40625 2.390625 57.5 2.390625 
L 57.5 -0.203125 
C 60.203125 0 65.59375 0 68.5 0 
C 71.40625 0 76.90625 0 79.59375 -0.203125 
L 79.59375 2.390625 
C 72.703125 2.390625 71.59375 2.390625 71.59375 6.84375 
L 71.59375 60.546875 
C 71.59375 65 72.703125 65 79.59375 65 
L 79.59375 67.5 
L 66.90625 67.5 
C 64.796875 67.5 64.703125 67.40625 64.09375 65.90625 
L 42.5 7.84375 
z
" id="CMR17-77"/>
     <path d="M 15.5 61.078125 
C 15.5 63.265625 13.703125 65.15625 11.40625 65.15625 
C 9.203125 65.15625 7.296875 63.375 7.296875 61.078125 
C 7.296875 58.890625 9.09375 57 11.40625 57 
C 13.59375 57 15.5 58.796875 15.5 61.078125 
z
M 3.796875 42.28125 
L 3.796875 39.703125 
C 9.40625 39.703125 10.203125 39.09375 10.203125 34.328125 
L 10.203125 6.671875 
C 10.203125 2.875 9.796875 2.390625 3.40625 2.390625 
L 3.40625 -0.203125 
C 5.796875 0 10.09375 0 12.59375 0 
C 15 0 19.09375 0 21.40625 -0.203125 
L 21.40625 2.390625 
C 15.5 2.390625 15.296875 2.984375 15.296875 6.5625 
L 15.296875 43.375 
z
" id="CMR17-105"/>
     <path d="M 23.5 -25 
L 23.5 -21.515625 
L 14.09375 -21.515625 
L 14.09375 71 
L 23.5 71 
L 23.5 74.484375 
L 10.59375 74.484375 
L 10.59375 -25 
z
" id="CMR17-91"/>
     <path d="M 19.5 -0.484375 
C 19.5 5.359375 17.59375 9.671875 13.5 9.671875 
C 10.296875 9.671875 8.703125 7.078125 8.703125 4.890625 
C 8.703125 2.6875 10.203125 0 13.59375 0 
C 14.90625 0 16 0.40625 16.90625 1.296875 
C 17.09375 1.5 17.203125 1.5 17.296875 1.5 
C 17.5 1.5 17.5 0.078125 17.5 -0.421875 
C 17.5 -3.75 16.90625 -10.296875 11.09375 -16.875 
C 10 -18.078125 10 -18.28125 10 -18.484375 
C 10 -19 10.5 -19.5 11 -19.5 
C 11.796875 -19.5 19.5 -12.046875 19.5 -0.484375 
z
" id="CMMI12-59"/>
     <path d="M 14.296875 74.484375 
L 1.40625 74.484375 
L 1.40625 71 
L 10.796875 71 
L 10.796875 -21.515625 
L 1.40625 -21.515625 
L 1.40625 -25 
L 14.296875 -25 
z
" id="CMR17-93"/>
    </defs>
    <g transform="translate(349.056 189.315332)scale(0.22 -0.22)">
     <use transform="scale(0.996264)" xlink:href="#CMR17-85"/>
     <use transform="translate(69.07243 0)scale(0.996264)" xlink:href="#CMR17-112"/>
     <use transform="translate(119.9678 0)scale(0.996264)" xlink:href="#CMR17-112"/>
     <use transform="translate(173.465608 0)scale(0.996264)" xlink:href="#CMR17-101"/>
     <use transform="translate(213.951269 0)scale(0.996264)" xlink:href="#CMR17-114"/>
     <use transform="translate(279.308003 0)scale(0.996264)" xlink:href="#CMR17-66"/>
     <use transform="translate(344.496757 0)scale(0.996264)" xlink:href="#CMR17-111"/>
     <use transform="translate(390.187234 0)scale(0.996264)" xlink:href="#CMR17-117"/>
     <use transform="translate(441.082604 0)scale(0.996264)" xlink:href="#CMR17-110"/>
     <use transform="translate(491.977974 0)scale(0.996264)" xlink:href="#CMR17-100"/>
     <use transform="translate(572.94931 0)scale(0.996264)" xlink:href="#CMR17-61"/>
     <use transform="translate(674.740065 0)scale(0.996264)" xlink:href="#CMR17-77"/>
     <use transform="translate(759.427005 0)scale(0.996264)" xlink:href="#CMR17-105"/>
     <use transform="translate(784.298064 0)scale(0.996264)" xlink:href="#CMR17-110"/>
     <use transform="translate(865.2694 0)scale(0.996264)" xlink:href="#CMR17-91"/>
     <use transform="translate(890.140458 0)scale(0.996264)" xlink:href="#CMMI12-99"/>
     <use transform="translate(932.123692 0)scale(0.996264)" xlink:href="#CMR17-40"/>
     <use transform="translate(967.40446 0)scale(0.996264)" xlink:href="#CMMI12-109"/>
     <use transform="translate(1052.731684 0)scale(0.996264)" xlink:href="#CMR17-41"/>
     <use transform="translate(1088.012452 0)scale(0.996264)" xlink:href="#CMMI12-59"/>
     <use transform="translate(1131.714034 0)scale(0.996264)" xlink:href="#CMMI12-99"/>
     <use transform="translate(1173.697268 0)scale(0.996264)" xlink:href="#CMR17-40"/>
     <use transform="translate(1208.978036 0)scale(0.996264)" xlink:href="#CMMI12-109"/>
     <use transform="translate(1294.30526 0)scale(0.996264)" xlink:href="#CMR17-41"/>
     <use transform="translate(1329.586028 0)scale(0.996264)" xlink:href="#CMR17-93"/>
     <path d="M 890.140458 74.77436 
L 932.123692 74.77436 
L 932.123692 78.75931 
L 890.140458 78.75931 
L 890.140458 74.77436 
z
"/>
     <path d="M 890.140458 54.849612 
L 932.123692 54.849612 
L 932.123692 58.834561 
L 890.140458 58.834561 
L 890.140458 54.849612 
z
"/>
     <path d="M 1131.714034 54.849612 
L 1173.697268 54.849612 
L 1173.697268 58.834561 
L 1131.714034 58.834561 
L 1131.714034 54.849612 
z
"/>
    </g>
   </g>
   <g id="text_7">
    <!-- $\underline{c}(m)= (1-\Phi_{R})m = \underline{\kappa}m$ -->
    <g transform="translate(295.488 457.438227)scale(0.22 -0.22)">
     <use transform="translate(0 15.939799)scale(0.996264)" xlink:href="#CMMI12-99"/>
     <use transform="translate(41.983234 15.939799)scale(0.996264)" xlink:href="#CMR17-40"/>
     <use transform="translate(77.264001 15.939799)scale(0.996264)" xlink:href="#CMMI12-109"/>
     <use transform="translate(162.591226 15.939799)scale(0.996264)" xlink:href="#CMR17-41"/>
     <use transform="translate(225.546002 15.939799)scale(0.996264)" xlink:href="#CMR17-61"/>
     <use transform="translate(324.9348 15.939799)scale(0.996264)" xlink:href="#CMR17-40"/>
     <use transform="translate(360.215567 15.939799)scale(0.996264)" xlink:href="#CMR17-49"/>
     <use transform="translate(428.045251 15.939799)scale(0.996264)" xlink:href="#CMSY10-0"/>
     <use transform="translate(527.671926 15.939799)scale(0.996264)" xlink:href="#CMR17-8"/>
     <use transform="translate(594.181807 0.995884)scale(0.697382)" xlink:href="#CMMI12-82"/>
     <use transform="translate(647.229369 15.939799)scale(0.996264)" xlink:href="#CMR17-41"/>
     <use transform="translate(682.510137 15.939799)scale(0.996264)" xlink:href="#CMMI12-109"/>
     <use transform="translate(795.51137 15.939799)scale(0.996264)" xlink:href="#CMR17-61"/>
     <use transform="translate(894.900167 15.939799)scale(0.996264)" xlink:href="#CMMI12-20"/>
     <use transform="translate(951.054791 15.939799)scale(0.996264)" xlink:href="#CMMI12-109"/>
     <path d="M 0 0 
L 41.983234 0 
L 41.983234 3.98495 
L 0 3.98495 
L 0 0 
z
"/>
     <path d="M 894.900167 0 
L 951.054791 0 
L 951.054791 3.98495 
L 894.900167 3.98495 
L 894.900167 0 
z
"/>
    </g>
   </g>
  </g>
 </g>
 <defs>
  <clipPath id="p842894c0df">
   <rect height="443.52" width="669.6" x="108" y="69.12"/>
  </clipPath>
 </defs>
</svg>
