<?xml version="1.0" encoding="utf-8" standalone="no"?>
<!DOCTYPE svg PUBLIC "-//W3C//DTD SVG 1.1//EN"
  "http://www.w3.org/Graphics/SVG/1.1/DTD/svg11.dtd">
<!-- Created with matplotlib (https://matplotlib.org/) -->
<svg height="345.6pt" version="1.1" viewBox="0 0 460.8 345.6" width="460.8pt" xmlns="http://www.w3.org/2000/svg" xmlns:xlink="http://www.w3.org/1999/xlink">
 <defs>
  <style type="text/css">
*{stroke-linecap:butt;stroke-linejoin:round;}
  </style>
 </defs>
 <g id="figure_1">
  <g id="patch_1">
   <path d="M 0 345.6 
L 460.8 345.6 
L 460.8 0 
L 0 0 
z
" style="fill:#ffffff;"/>
  </g>
  <g id="axes_1">
   <g id="patch_2">
    <path d="M 33.73 283.16 
L 137.393583 283.16 
L 137.393583 42.72 
L 33.73 42.72 
z
" style="fill:#ffffff;"/>
   </g>
   <g id="matplotlib.axis_1">
    <g id="xtick_1">
     <g id="line2d_1">
      <path clip-path="url(#pc5f4dccffd)" d="M 38.441981 283.16 
L 38.441981 42.72 
" style="fill:none;stroke:#b0b0b0;stroke-linecap:square;stroke-width:0.8;"/>
     </g>
     <g id="line2d_2">
      <defs>
       <path d="M 0 0 
L 0 3.5 
" id="mc851760fdf" style="stroke:#000000;stroke-width:0.8;"/>
      </defs>
      <g>
       <use style="stroke:#000000;stroke-width:0.8;" x="38.441981" xlink:href="#mc851760fdf" y="283.16"/>
      </g>
     </g>
     <g id="text_1">
      <!-- 0 -->
      <defs>
       <path d="M 31.78125 66.40625 
Q 24.171875 66.40625 20.328125 58.90625 
Q 16.5 51.421875 16.5 36.375 
Q 16.5 21.390625 20.328125 13.890625 
Q 24.171875 6.390625 31.78125 6.390625 
Q 39.453125 6.390625 43.28125 13.890625 
Q 47.125 21.390625 47.125 36.375 
Q 47.125 51.421875 43.28125 58.90625 
Q 39.453125 66.40625 31.78125 66.40625 
z
M 31.78125 74.21875 
Q 44.046875 74.21875 50.515625 64.515625 
Q 56.984375 54.828125 56.984375 36.375 
Q 56.984375 17.96875 50.515625 8.265625 
Q 44.046875 -1.421875 31.78125 -1.421875 
Q 19.53125 -1.421875 13.0625 8.265625 
Q 6.59375 17.96875 6.59375 36.375 
Q 6.59375 54.828125 13.0625 64.515625 
Q 19.53125 74.21875 31.78125 74.21875 
z
" id="DejaVuSans-48"/>
      </defs>
      <g transform="translate(35.260731 297.758437)scale(0.1 -0.1)">
       <use xlink:href="#DejaVuSans-48"/>
      </g>
     </g>
    </g>
    <g id="xtick_2">
     <g id="line2d_3">
      <path clip-path="url(#pc5f4dccffd)" d="M 85.561791 283.16 
L 85.561791 42.72 
" style="fill:none;stroke:#b0b0b0;stroke-linecap:square;stroke-width:0.8;"/>
     </g>
     <g id="line2d_4">
      <g>
       <use style="stroke:#000000;stroke-width:0.8;" x="85.561791" xlink:href="#mc851760fdf" y="283.16"/>
      </g>
     </g>
     <g id="text_2">
      <!-- 5 -->
      <defs>
       <path d="M 10.796875 72.90625 
L 49.515625 72.90625 
L 49.515625 64.59375 
L 19.828125 64.59375 
L 19.828125 46.734375 
Q 21.96875 47.46875 24.109375 47.828125 
Q 26.265625 48.1875 28.421875 48.1875 
Q 40.625 48.1875 47.75 41.5 
Q 54.890625 34.8125 54.890625 23.390625 
Q 54.890625 11.625 47.5625 5.09375 
Q 40.234375 -1.421875 26.90625 -1.421875 
Q 22.3125 -1.421875 17.546875 -0.640625 
Q 12.796875 0.140625 7.71875 1.703125 
L 7.71875 11.625 
Q 12.109375 9.234375 16.796875 8.0625 
Q 21.484375 6.890625 26.703125 6.890625 
Q 35.15625 6.890625 40.078125 11.328125 
Q 45.015625 15.765625 45.015625 23.390625 
Q 45.015625 31 40.078125 35.4375 
Q 35.15625 39.890625 26.703125 39.890625 
Q 22.75 39.890625 18.8125 39.015625 
Q 14.890625 38.140625 10.796875 36.28125 
z
" id="DejaVuSans-53"/>
      </defs>
      <g transform="translate(82.380541 297.758437)scale(0.1 -0.1)">
       <use xlink:href="#DejaVuSans-53"/>
      </g>
     </g>
    </g>
    <g id="xtick_3">
     <g id="line2d_5">
      <path clip-path="url(#pc5f4dccffd)" d="M 132.681602 283.16 
L 132.681602 42.72 
" style="fill:none;stroke:#b0b0b0;stroke-linecap:square;stroke-width:0.8;"/>
     </g>
     <g id="line2d_6">
      <g>
       <use style="stroke:#000000;stroke-width:0.8;" x="132.681602" xlink:href="#mc851760fdf" y="283.16"/>
      </g>
     </g>
     <g id="text_3">
      <!-- 10 -->
      <defs>
       <path d="M 12.40625 8.296875 
L 28.515625 8.296875 
L 28.515625 63.921875 
L 10.984375 60.40625 
L 10.984375 69.390625 
L 28.421875 72.90625 
L 38.28125 72.90625 
L 38.28125 8.296875 
L 54.390625 8.296875 
L 54.390625 0 
L 12.40625 0 
z
" id="DejaVuSans-49"/>
      </defs>
      <g transform="translate(126.319102 297.758437)scale(0.1 -0.1)">
       <use xlink:href="#DejaVuSans-49"/>
       <use x="63.623047" xlink:href="#DejaVuSans-48"/>
      </g>
     </g>
    </g>
    <g id="text_4">
     <!-- M -->
     <defs>
      <path d="M 9.8125 72.90625 
L 24.515625 72.90625 
L 43.109375 23.296875 
L 61.8125 72.90625 
L 76.515625 72.90625 
L 76.515625 0 
L 66.890625 0 
L 66.890625 64.015625 
L 48.09375 14.015625 
L 38.1875 14.015625 
L 19.390625 64.015625 
L 19.390625 0 
L 9.8125 0 
z
" id="DejaVuSans-77"/>
     </defs>
     <g transform="translate(81.247729 311.436562)scale(0.1 -0.1)">
      <use xlink:href="#DejaVuSans-77"/>
     </g>
    </g>
   </g>
   <g id="matplotlib.axis_2">
    <g id="ytick_1">
     <g id="line2d_7">
      <path clip-path="url(#pc5f4dccffd)" d="M 33.73 272.230909 
L 137.393583 272.230909 
" style="fill:none;stroke:#b0b0b0;stroke-linecap:square;stroke-width:0.8;"/>
     </g>
     <g id="line2d_8">
      <defs>
       <path d="M 0 0 
L -3.5 0 
" id="m677f374cdc" style="stroke:#000000;stroke-width:0.8;"/>
      </defs>
      <g>
       <use style="stroke:#000000;stroke-width:0.8;" x="33.73" xlink:href="#m677f374cdc" y="272.230909"/>
      </g>
     </g>
     <g id="text_5">
      <!-- 0.0 -->
      <defs>
       <path d="M 10.6875 12.40625 
L 21 12.40625 
L 21 0 
L 10.6875 0 
z
" id="DejaVuSans-46"/>
      </defs>
      <g transform="translate(10.826875 276.030128)scale(0.1 -0.1)">
       <use xlink:href="#DejaVuSans-48"/>
       <use x="63.623047" xlink:href="#DejaVuSans-46"/>
       <use x="95.410156" xlink:href="#DejaVuSans-48"/>
      </g>
     </g>
    </g>
    <g id="ytick_2">
     <g id="line2d_9">
      <path clip-path="url(#pc5f4dccffd)" d="M 33.73 240.219661 
L 137.393583 240.219661 
" style="fill:none;stroke:#b0b0b0;stroke-linecap:square;stroke-width:0.8;"/>
     </g>
     <g id="line2d_10">
      <g>
       <use style="stroke:#000000;stroke-width:0.8;" x="33.73" xlink:href="#m677f374cdc" y="240.219661"/>
      </g>
     </g>
     <g id="text_6">
      <!-- 0.2 -->
      <defs>
       <path d="M 19.1875 8.296875 
L 53.609375 8.296875 
L 53.609375 0 
L 7.328125 0 
L 7.328125 8.296875 
Q 12.9375 14.109375 22.625 23.890625 
Q 32.328125 33.6875 34.8125 36.53125 
Q 39.546875 41.84375 41.421875 45.53125 
Q 43.3125 49.21875 43.3125 52.78125 
Q 43.3125 58.59375 39.234375 62.25 
Q 35.15625 65.921875 28.609375 65.921875 
Q 23.96875 65.921875 18.8125 64.3125 
Q 13.671875 62.703125 7.8125 59.421875 
L 7.8125 69.390625 
Q 13.765625 71.78125 18.9375 73 
Q 24.125 74.21875 28.421875 74.21875 
Q 39.75 74.21875 46.484375 68.546875 
Q 53.21875 62.890625 53.21875 53.421875 
Q 53.21875 48.921875 51.53125 44.890625 
Q 49.859375 40.875 45.40625 35.40625 
Q 44.1875 33.984375 37.640625 27.21875 
Q 31.109375 20.453125 19.1875 8.296875 
z
" id="DejaVuSans-50"/>
      </defs>
      <g transform="translate(10.826875 244.01888)scale(0.1 -0.1)">
       <use xlink:href="#DejaVuSans-48"/>
       <use x="63.623047" xlink:href="#DejaVuSans-46"/>
       <use x="95.410156" xlink:href="#DejaVuSans-50"/>
      </g>
     </g>
    </g>
    <g id="ytick_3">
     <g id="line2d_11">
      <path clip-path="url(#pc5f4dccffd)" d="M 33.73 208.208414 
L 137.393583 208.208414 
" style="fill:none;stroke:#b0b0b0;stroke-linecap:square;stroke-width:0.8;"/>
     </g>
     <g id="line2d_12">
      <g>
       <use style="stroke:#000000;stroke-width:0.8;" x="33.73" xlink:href="#m677f374cdc" y="208.208414"/>
      </g>
     </g>
     <g id="text_7">
      <!-- 0.4 -->
      <defs>
       <path d="M 37.796875 64.3125 
L 12.890625 25.390625 
L 37.796875 25.390625 
z
M 35.203125 72.90625 
L 47.609375 72.90625 
L 47.609375 25.390625 
L 58.015625 25.390625 
L 58.015625 17.1875 
L 47.609375 17.1875 
L 47.609375 0 
L 37.796875 0 
L 37.796875 17.1875 
L 4.890625 17.1875 
L 4.890625 26.703125 
z
" id="DejaVuSans-52"/>
      </defs>
      <g transform="translate(10.826875 212.007632)scale(0.1 -0.1)">
       <use xlink:href="#DejaVuSans-48"/>
       <use x="63.623047" xlink:href="#DejaVuSans-46"/>
       <use x="95.410156" xlink:href="#DejaVuSans-52"/>
      </g>
     </g>
    </g>
    <g id="ytick_4">
     <g id="line2d_13">
      <path clip-path="url(#pc5f4dccffd)" d="M 33.73 176.197166 
L 137.393583 176.197166 
" style="fill:none;stroke:#b0b0b0;stroke-linecap:square;stroke-width:0.8;"/>
     </g>
     <g id="line2d_14">
      <g>
       <use style="stroke:#000000;stroke-width:0.8;" x="33.73" xlink:href="#m677f374cdc" y="176.197166"/>
      </g>
     </g>
     <g id="text_8">
      <!-- 0.6 -->
      <defs>
       <path d="M 33.015625 40.375 
Q 26.375 40.375 22.484375 35.828125 
Q 18.609375 31.296875 18.609375 23.390625 
Q 18.609375 15.53125 22.484375 10.953125 
Q 26.375 6.390625 33.015625 6.390625 
Q 39.65625 6.390625 43.53125 10.953125 
Q 47.40625 15.53125 47.40625 23.390625 
Q 47.40625 31.296875 43.53125 35.828125 
Q 39.65625 40.375 33.015625 40.375 
z
M 52.59375 71.296875 
L 52.59375 62.3125 
Q 48.875 64.0625 45.09375 64.984375 
Q 41.3125 65.921875 37.59375 65.921875 
Q 27.828125 65.921875 22.671875 59.328125 
Q 17.53125 52.734375 16.796875 39.40625 
Q 19.671875 43.65625 24.015625 45.921875 
Q 28.375 48.1875 33.59375 48.1875 
Q 44.578125 48.1875 50.953125 41.515625 
Q 57.328125 34.859375 57.328125 23.390625 
Q 57.328125 12.15625 50.6875 5.359375 
Q 44.046875 -1.421875 33.015625 -1.421875 
Q 20.359375 -1.421875 13.671875 8.265625 
Q 6.984375 17.96875 6.984375 36.375 
Q 6.984375 53.65625 15.1875 63.9375 
Q 23.390625 74.21875 37.203125 74.21875 
Q 40.921875 74.21875 44.703125 73.484375 
Q 48.484375 72.75 52.59375 71.296875 
z
" id="DejaVuSans-54"/>
      </defs>
      <g transform="translate(10.826875 179.996385)scale(0.1 -0.1)">
       <use xlink:href="#DejaVuSans-48"/>
       <use x="63.623047" xlink:href="#DejaVuSans-46"/>
       <use x="95.410156" xlink:href="#DejaVuSans-54"/>
      </g>
     </g>
    </g>
    <g id="ytick_5">
     <g id="line2d_15">
      <path clip-path="url(#pc5f4dccffd)" d="M 33.73 144.185918 
L 137.393583 144.185918 
" style="fill:none;stroke:#b0b0b0;stroke-linecap:square;stroke-width:0.8;"/>
     </g>
     <g id="line2d_16">
      <g>
       <use style="stroke:#000000;stroke-width:0.8;" x="33.73" xlink:href="#m677f374cdc" y="144.185918"/>
      </g>
     </g>
     <g id="text_9">
      <!-- 0.8 -->
      <defs>
       <path d="M 31.78125 34.625 
Q 24.75 34.625 20.71875 30.859375 
Q 16.703125 27.09375 16.703125 20.515625 
Q 16.703125 13.921875 20.71875 10.15625 
Q 24.75 6.390625 31.78125 6.390625 
Q 38.8125 6.390625 42.859375 10.171875 
Q 46.921875 13.96875 46.921875 20.515625 
Q 46.921875 27.09375 42.890625 30.859375 
Q 38.875 34.625 31.78125 34.625 
z
M 21.921875 38.8125 
Q 15.578125 40.375 12.03125 44.71875 
Q 8.5 49.078125 8.5 55.328125 
Q 8.5 64.0625 14.71875 69.140625 
Q 20.953125 74.21875 31.78125 74.21875 
Q 42.671875 74.21875 48.875 69.140625 
Q 55.078125 64.0625 55.078125 55.328125 
Q 55.078125 49.078125 51.53125 44.71875 
Q 48 40.375 41.703125 38.8125 
Q 48.828125 37.15625 52.796875 32.3125 
Q 56.78125 27.484375 56.78125 20.515625 
Q 56.78125 9.90625 50.3125 4.234375 
Q 43.84375 -1.421875 31.78125 -1.421875 
Q 19.734375 -1.421875 13.25 4.234375 
Q 6.78125 9.90625 6.78125 20.515625 
Q 6.78125 27.484375 10.78125 32.3125 
Q 14.796875 37.15625 21.921875 38.8125 
z
M 18.3125 54.390625 
Q 18.3125 48.734375 21.84375 45.5625 
Q 25.390625 42.390625 31.78125 42.390625 
Q 38.140625 42.390625 41.71875 45.5625 
Q 45.3125 48.734375 45.3125 54.390625 
Q 45.3125 60.0625 41.71875 63.234375 
Q 38.140625 66.40625 31.78125 66.40625 
Q 25.390625 66.40625 21.84375 63.234375 
Q 18.3125 60.0625 18.3125 54.390625 
z
" id="DejaVuSans-56"/>
      </defs>
      <g transform="translate(10.826875 147.985137)scale(0.1 -0.1)">
       <use xlink:href="#DejaVuSans-48"/>
       <use x="63.623047" xlink:href="#DejaVuSans-46"/>
       <use x="95.410156" xlink:href="#DejaVuSans-56"/>
      </g>
     </g>
    </g>
    <g id="ytick_6">
     <g id="line2d_17">
      <path clip-path="url(#pc5f4dccffd)" d="M 33.73 112.17467 
L 137.393583 112.17467 
" style="fill:none;stroke:#b0b0b0;stroke-linecap:square;stroke-width:0.8;"/>
     </g>
     <g id="line2d_18">
      <g>
       <use style="stroke:#000000;stroke-width:0.8;" x="33.73" xlink:href="#m677f374cdc" y="112.17467"/>
      </g>
     </g>
     <g id="text_10">
      <!-- 1.0 -->
      <g transform="translate(10.826875 115.973889)scale(0.1 -0.1)">
       <use xlink:href="#DejaVuSans-49"/>
       <use x="63.623047" xlink:href="#DejaVuSans-46"/>
       <use x="95.410156" xlink:href="#DejaVuSans-48"/>
      </g>
     </g>
    </g>
    <g id="ytick_7">
     <g id="line2d_19">
      <path clip-path="url(#pc5f4dccffd)" d="M 33.73 80.163423 
L 137.393583 80.163423 
" style="fill:none;stroke:#b0b0b0;stroke-linecap:square;stroke-width:0.8;"/>
     </g>
     <g id="line2d_20">
      <g>
       <use style="stroke:#000000;stroke-width:0.8;" x="33.73" xlink:href="#m677f374cdc" y="80.163423"/>
      </g>
     </g>
     <g id="text_11">
      <!-- 1.2 -->
      <g transform="translate(10.826875 83.962641)scale(0.1 -0.1)">
       <use xlink:href="#DejaVuSans-49"/>
       <use x="63.623047" xlink:href="#DejaVuSans-46"/>
       <use x="95.410156" xlink:href="#DejaVuSans-50"/>
      </g>
     </g>
    </g>
    <g id="ytick_8">
     <g id="line2d_21">
      <path clip-path="url(#pc5f4dccffd)" d="M 33.73 48.152175 
L 137.393583 48.152175 
" style="fill:none;stroke:#b0b0b0;stroke-linecap:square;stroke-width:0.8;"/>
     </g>
     <g id="line2d_22">
      <g>
       <use style="stroke:#000000;stroke-width:0.8;" x="33.73" xlink:href="#m677f374cdc" y="48.152175"/>
      </g>
     </g>
     <g id="text_12">
      <!-- 1.4 -->
      <g transform="translate(10.826875 51.951394)scale(0.1 -0.1)">
       <use xlink:href="#DejaVuSans-49"/>
       <use x="63.623047" xlink:href="#DejaVuSans-46"/>
       <use x="95.410156" xlink:href="#DejaVuSans-52"/>
      </g>
     </g>
    </g>
    <g id="text_13">
     <!-- C -->
     <defs>
      <path d="M 64.40625 67.28125 
L 64.40625 56.890625 
Q 59.421875 61.53125 53.78125 63.8125 
Q 48.140625 66.109375 41.796875 66.109375 
Q 29.296875 66.109375 22.65625 58.46875 
Q 16.015625 50.828125 16.015625 36.375 
Q 16.015625 21.96875 22.65625 14.328125 
Q 29.296875 6.6875 41.796875 6.6875 
Q 48.140625 6.6875 53.78125 8.984375 
Q 59.421875 11.28125 64.40625 15.921875 
L 64.40625 5.609375 
Q 59.234375 2.09375 53.4375 0.328125 
Q 47.65625 -1.421875 41.21875 -1.421875 
Q 24.65625 -1.421875 15.125 8.703125 
Q 5.609375 18.84375 5.609375 36.375 
Q 5.609375 53.953125 15.125 64.078125 
Q 24.65625 74.21875 41.21875 74.21875 
Q 47.75 74.21875 53.53125 72.484375 
Q 59.328125 70.75 64.40625 67.28125 
z
" id="DejaVuSans-67"/>
     </defs>
     <g transform="translate(4.747188 166.431406)rotate(-90)scale(0.1 -0.1)">
      <use xlink:href="#DejaVuSans-67"/>
     </g>
    </g>
   </g>
   <g id="line2d_23">
    <path clip-path="url(#pc5f4dccffd)" d="M 38.441981 272.230909 
L 39.393896 256.079729 
L 40.345812 239.928549 
L 41.297727 223.777369 
L 42.249642 207.626189 
L 43.201558 191.475009 
L 44.153473 175.323829 
L 45.105389 159.17265 
L 46.057304 143.02147 
L 47.009219 126.87029 
L 47.961135 111.489657 
L 48.91305 108.83416 
L 49.864965 107.36588 
L 50.816881 106.196213 
L 51.768796 105.184032 
L 52.720711 104.272374 
L 53.672627 103.431548 
L 54.624542 102.644689 
L 55.576458 101.900066 
L 56.528373 101.189803 
L 57.480288 100.508718 
L 58.432204 99.852395 
L 59.384119 99.215985 
L 60.336034 98.59778 
L 61.28795 97.990855 
L 62.239865 97.391982 
L 63.19178 96.797693 
L 64.143696 96.205351 
L 65.095611 95.613851 
L 66.047527 95.022665 
L 66.999442 94.431579 
L 67.951357 93.840521 
L 68.903273 93.249469 
L 69.855188 92.658418 
L 70.807103 92.067368 
L 71.759019 91.476318 
L 72.710934 90.885267 
L 73.662849 90.294217 
L 74.614765 89.703166 
L 75.56668 89.112116 
L 76.518596 88.521065 
L 77.470511 87.930015 
L 78.422426 87.338965 
L 79.374342 86.747914 
L 80.326257 86.156864 
L 81.278172 85.565813 
L 82.230088 84.974763 
L 83.182003 84.383713 
L 84.133918 83.792662 
L 85.085834 83.201612 
L 86.037749 82.610561 
L 86.989664 82.019511 
L 87.94158 81.42846 
L 88.893495 80.83741 
L 89.845411 80.24636 
L 90.797326 79.655309 
L 91.749241 79.064259 
L 92.701157 78.473208 
L 93.653072 77.882158 
L 94.604987 77.291108 
L 95.556903 76.700057 
L 96.508818 76.109007 
L 97.460733 75.517956 
L 98.412649 74.926906 
L 99.364564 74.335855 
L 100.31648 73.744805 
L 101.268395 73.153755 
L 102.22031 72.562704 
L 103.172226 71.971654 
L 104.124141 71.380603 
L 105.076056 70.789553 
L 106.027972 70.198503 
L 106.979887 69.607452 
L 107.931802 69.016402 
L 108.883718 68.425351 
L 109.835633 67.834301 
L 110.787549 67.24325 
L 111.739464 66.6522 
L 112.691379 66.06115 
L 113.643295 65.470099 
L 114.59521 64.879049 
L 115.547125 64.287998 
L 116.499041 63.696948 
L 117.450956 63.105898 
L 118.402871 62.514847 
L 119.354787 61.923797 
L 120.306702 61.332746 
L 121.258618 60.741696 
L 122.210533 60.150645 
L 123.162448 59.559595 
L 124.114364 58.968545 
L 125.066279 58.377494 
L 126.018194 57.786444 
L 126.97011 57.195393 
L 127.922025 56.604343 
L 128.87394 56.013293 
L 129.825856 55.422242 
L 130.777771 54.831192 
L 131.729686 54.240141 
L 132.681602 53.649091 
" style="fill:none;stroke:#1f77b4;stroke-linecap:square;stroke-width:1.5;"/>
   </g>
   <g id="line2d_24">
    <path clip-path="url(#pc5f4dccffd)" d="M 38.441981 272.230909 
L 39.393896 256.063612 
L 40.345812 239.896315 
L 41.297727 223.729019 
L 42.249642 207.561722 
L 43.201558 191.394425 
L 44.153473 175.227128 
L 45.105389 159.059831 
L 46.057304 142.892534 
L 47.009219 126.725237 
L 47.961135 111.291818 
L 48.91305 108.754941 
L 49.864965 107.308174 
L 50.816881 106.148386 
L 51.768796 105.2547 
L 52.720711 104.663649 
L 53.672627 104.072599 
L 54.624542 103.481548 
L 55.576458 102.890498 
L 56.528373 102.299448 
L 57.480288 101.708397 
L 58.432204 101.117347 
L 59.384119 100.526296 
L 60.336034 99.935246 
L 61.28795 99.344195 
L 62.239865 98.753145 
L 63.19178 98.162095 
L 64.143696 97.571044 
L 65.095611 96.979994 
L 66.047527 96.388943 
L 66.999442 95.797893 
L 67.951357 95.206843 
L 68.903273 94.615792 
L 69.855188 94.024742 
L 70.807103 93.433691 
L 71.759019 92.842641 
L 72.710934 92.25159 
L 73.662849 91.66054 
L 74.614765 91.06949 
L 75.56668 90.478439 
L 76.518596 89.887389 
L 77.470511 89.296338 
L 78.422426 88.705288 
L 79.374342 88.114238 
L 80.326257 87.523187 
L 81.278172 86.932137 
L 82.230088 86.341086 
L 83.182003 85.750036 
L 84.133918 85.158985 
L 85.085834 84.567935 
L 86.037749 83.976885 
L 86.989664 83.385834 
L 87.94158 82.794784 
L 88.893495 82.203733 
L 89.845411 81.612683 
L 90.797326 81.021633 
L 91.749241 80.430582 
L 92.701157 79.839532 
L 93.653072 79.248481 
L 94.604987 78.657431 
L 95.556903 78.06638 
L 96.508818 77.47533 
L 97.460733 76.88428 
L 98.412649 76.293229 
L 99.364564 75.702179 
L 100.31648 75.111128 
L 101.268395 74.520078 
L 102.22031 73.929028 
L 103.172226 73.337977 
L 104.124141 72.746927 
L 105.076056 72.155876 
L 106.027972 71.564826 
L 106.979887 70.973776 
L 107.931802 70.382725 
L 108.883718 69.791675 
L 109.835633 69.200624 
L 110.787549 68.609574 
L 111.739464 68.018523 
L 112.691379 67.427473 
L 113.643295 66.836423 
L 114.59521 66.245372 
L 115.547125 65.654322 
L 116.499041 65.063271 
L 117.450956 64.472221 
L 118.402871 63.881171 
L 119.354787 63.29012 
L 120.306702 62.69907 
L 121.258618 62.108019 
L 122.210533 61.516969 
L 123.162448 60.925918 
L 124.114364 60.334868 
L 125.066279 59.743818 
L 126.018194 59.152767 
L 126.97011 58.561717 
L 127.922025 57.970666 
L 128.87394 57.379616 
L 129.825856 56.788566 
L 130.777771 56.197515 
L 131.729686 55.606465 
L 132.681602 55.015414 
" style="fill:none;stroke:#ff7f0e;stroke-linecap:square;stroke-width:1.5;"/>
   </g>
   <g id="line2d_25">
    <path clip-path="url(#pc5f4dccffd)" d="M 38.441981 272.230909 
L 39.393896 256.063612 
L 40.345812 239.896315 
L 41.297727 223.729019 
L 42.249642 207.561722 
L 43.201558 191.394425 
L 44.153473 175.227128 
L 45.105389 159.059831 
L 46.057304 142.892534 
L 47.009219 126.725237 
L 47.961135 110.557941 
L 48.91305 105.661527 
L 49.864965 105.070477 
L 50.816881 104.479427 
L 51.768796 103.888376 
L 52.720711 103.297326 
L 53.672627 102.706275 
L 54.624542 102.115225 
L 55.576458 101.524175 
L 56.528373 100.933124 
L 57.480288 100.342074 
L 58.432204 99.751023 
L 59.384119 99.159973 
L 60.336034 98.568923 
L 61.28795 97.977872 
L 62.239865 97.386822 
L 63.19178 96.795771 
L 64.143696 96.204721 
L 65.095611 95.61367 
L 66.047527 95.02262 
L 66.999442 94.43157 
L 67.951357 93.840519 
L 68.903273 93.249469 
L 69.855188 92.658418 
L 70.807103 92.067368 
L 71.759019 91.476318 
L 72.710934 90.885267 
L 73.662849 90.294217 
L 74.614765 89.703166 
L 75.56668 89.112116 
L 76.518596 88.521065 
L 77.470511 87.930015 
L 78.422426 87.338965 
L 79.374342 86.747914 
L 80.326257 86.156864 
L 81.278172 85.565813 
L 82.230088 84.974763 
L 83.182003 84.383713 
L 84.133918 83.792662 
L 85.085834 83.201612 
L 86.037749 82.610561 
L 86.989664 82.019511 
L 87.94158 81.42846 
L 88.893495 80.83741 
L 89.845411 80.24636 
L 90.797326 79.655309 
L 91.749241 79.064259 
L 92.701157 78.473208 
L 93.653072 77.882158 
L 94.604987 77.291108 
L 95.556903 76.700057 
L 96.508818 76.109007 
L 97.460733 75.517956 
L 98.412649 74.926906 
L 99.364564 74.335855 
L 100.31648 73.744805 
L 101.268395 73.153755 
L 102.22031 72.562704 
L 103.172226 71.971654 
L 104.124141 71.380603 
L 105.076056 70.789553 
L 106.027972 70.198503 
L 106.979887 69.607452 
L 107.931802 69.016402 
L 108.883718 68.425351 
L 109.835633 67.834301 
L 110.787549 67.24325 
L 111.739464 66.6522 
L 112.691379 66.06115 
L 113.643295 65.470099 
L 114.59521 64.879049 
L 115.547125 64.287998 
L 116.499041 63.696948 
L 117.450956 63.105898 
L 118.402871 62.514847 
L 119.354787 61.923797 
L 120.306702 61.332746 
L 121.258618 60.741696 
L 122.210533 60.150645 
L 123.162448 59.559595 
L 124.114364 58.968545 
L 125.066279 58.377494 
L 126.018194 57.786444 
L 126.97011 57.195393 
L 127.922025 56.604343 
L 128.87394 56.013293 
L 129.825856 55.422242 
L 130.777771 54.831192 
L 131.729686 54.240141 
L 132.681602 53.649091 
" style="fill:none;stroke:#2ca02c;stroke-linecap:square;stroke-width:1.5;"/>
   </g>
   <g id="patch_3">
    <path d="M 33.73 283.16 
L 33.73 42.72 
" style="fill:none;stroke:#000000;stroke-linecap:square;stroke-linejoin:miter;stroke-width:0.8;"/>
   </g>
   <g id="patch_4">
    <path d="M 137.393583 283.16 
L 137.393583 42.72 
" style="fill:none;stroke:#000000;stroke-linecap:square;stroke-linejoin:miter;stroke-width:0.8;"/>
   </g>
   <g id="patch_5">
    <path d="M 33.73 283.16 
L 137.393583 283.16 
" style="fill:none;stroke:#000000;stroke-linecap:square;stroke-linejoin:miter;stroke-width:0.8;"/>
   </g>
   <g id="patch_6">
    <path d="M 33.73 42.72 
L 137.393583 42.72 
" style="fill:none;stroke:#000000;stroke-linecap:square;stroke-linejoin:miter;stroke-width:0.8;"/>
   </g>
   <g id="text_14">
    <!-- Age = 60 -->
    <defs>
     <path d="M 34.1875 63.1875 
L 20.796875 26.90625 
L 47.609375 26.90625 
z
M 28.609375 72.90625 
L 39.796875 72.90625 
L 67.578125 0 
L 57.328125 0 
L 50.6875 18.703125 
L 17.828125 18.703125 
L 11.1875 0 
L 0.78125 0 
z
" id="DejaVuSans-65"/>
     <path d="M 45.40625 27.984375 
Q 45.40625 37.75 41.375 43.109375 
Q 37.359375 48.484375 30.078125 48.484375 
Q 22.859375 48.484375 18.828125 43.109375 
Q 14.796875 37.75 14.796875 27.984375 
Q 14.796875 18.265625 18.828125 12.890625 
Q 22.859375 7.515625 30.078125 7.515625 
Q 37.359375 7.515625 41.375 12.890625 
Q 45.40625 18.265625 45.40625 27.984375 
z
M 54.390625 6.78125 
Q 54.390625 -7.171875 48.1875 -13.984375 
Q 42 -20.796875 29.203125 -20.796875 
Q 24.46875 -20.796875 20.265625 -20.09375 
Q 16.0625 -19.390625 12.109375 -17.921875 
L 12.109375 -9.1875 
Q 16.0625 -11.328125 19.921875 -12.34375 
Q 23.78125 -13.375 27.78125 -13.375 
Q 36.625 -13.375 41.015625 -8.765625 
Q 45.40625 -4.15625 45.40625 5.171875 
L 45.40625 9.625 
Q 42.625 4.78125 38.28125 2.390625 
Q 33.9375 0 27.875 0 
Q 17.828125 0 11.671875 7.65625 
Q 5.515625 15.328125 5.515625 27.984375 
Q 5.515625 40.671875 11.671875 48.328125 
Q 17.828125 56 27.875 56 
Q 33.9375 56 38.28125 53.609375 
Q 42.625 51.21875 45.40625 46.390625 
L 45.40625 54.6875 
L 54.390625 54.6875 
z
" id="DejaVuSans-103"/>
     <path d="M 56.203125 29.59375 
L 56.203125 25.203125 
L 14.890625 25.203125 
Q 15.484375 15.921875 20.484375 11.0625 
Q 25.484375 6.203125 34.421875 6.203125 
Q 39.59375 6.203125 44.453125 7.46875 
Q 49.3125 8.734375 54.109375 11.28125 
L 54.109375 2.78125 
Q 49.265625 0.734375 44.1875 -0.34375 
Q 39.109375 -1.421875 33.890625 -1.421875 
Q 20.796875 -1.421875 13.15625 6.1875 
Q 5.515625 13.8125 5.515625 26.8125 
Q 5.515625 40.234375 12.765625 48.109375 
Q 20.015625 56 32.328125 56 
Q 43.359375 56 49.78125 48.890625 
Q 56.203125 41.796875 56.203125 29.59375 
z
M 47.21875 32.234375 
Q 47.125 39.59375 43.09375 43.984375 
Q 39.0625 48.390625 32.421875 48.390625 
Q 24.90625 48.390625 20.390625 44.140625 
Q 15.875 39.890625 15.1875 32.171875 
z
" id="DejaVuSans-101"/>
     <path id="DejaVuSans-32"/>
     <path d="M 10.59375 45.40625 
L 73.1875 45.40625 
L 73.1875 37.203125 
L 10.59375 37.203125 
z
M 10.59375 25.484375 
L 73.1875 25.484375 
L 73.1875 17.1875 
L 10.59375 17.1875 
z
" id="DejaVuSans-61"/>
    </defs>
    <g transform="translate(57.479916 36.72)scale(0.12 -0.12)">
     <use xlink:href="#DejaVuSans-65"/>
     <use x="68.408203" xlink:href="#DejaVuSans-103"/>
     <use x="131.884766" xlink:href="#DejaVuSans-101"/>
     <use x="193.408203" xlink:href="#DejaVuSans-32"/>
     <use x="225.195312" xlink:href="#DejaVuSans-61"/>
     <use x="308.984375" xlink:href="#DejaVuSans-32"/>
     <use x="340.771484" xlink:href="#DejaVuSans-54"/>
     <use x="404.394531" xlink:href="#DejaVuSans-48"/>
    </g>
   </g>
  </g>
  <g id="axes_2">
   <g id="patch_7">
    <path d="M 189.225374 283.16 
L 292.888957 283.16 
L 292.888957 42.72 
L 189.225374 42.72 
z
" style="fill:#ffffff;"/>
   </g>
   <g id="matplotlib.axis_3">
    <g id="xtick_4">
     <g id="line2d_26">
      <path clip-path="url(#p039610bcbe)" d="M 193.937355 283.16 
L 193.937355 42.72 
" style="fill:none;stroke:#b0b0b0;stroke-linecap:square;stroke-width:0.8;"/>
     </g>
     <g id="line2d_27">
      <g>
       <use style="stroke:#000000;stroke-width:0.8;" x="193.937355" xlink:href="#mc851760fdf" y="283.16"/>
      </g>
     </g>
     <g id="text_15">
      <!-- 0 -->
      <g transform="translate(190.756105 297.758437)scale(0.1 -0.1)">
       <use xlink:href="#DejaVuSans-48"/>
      </g>
     </g>
    </g>
    <g id="xtick_5">
     <g id="line2d_28">
      <path clip-path="url(#p039610bcbe)" d="M 241.057166 283.16 
L 241.057166 42.72 
" style="fill:none;stroke:#b0b0b0;stroke-linecap:square;stroke-width:0.8;"/>
     </g>
     <g id="line2d_29">
      <g>
       <use style="stroke:#000000;stroke-width:0.8;" x="241.057166" xlink:href="#mc851760fdf" y="283.16"/>
      </g>
     </g>
     <g id="text_16">
      <!-- 5 -->
      <g transform="translate(237.875916 297.758437)scale(0.1 -0.1)">
       <use xlink:href="#DejaVuSans-53"/>
      </g>
     </g>
    </g>
    <g id="xtick_6">
     <g id="line2d_30">
      <path clip-path="url(#p039610bcbe)" d="M 288.176976 283.16 
L 288.176976 42.72 
" style="fill:none;stroke:#b0b0b0;stroke-linecap:square;stroke-width:0.8;"/>
     </g>
     <g id="line2d_31">
      <g>
       <use style="stroke:#000000;stroke-width:0.8;" x="288.176976" xlink:href="#mc851760fdf" y="283.16"/>
      </g>
     </g>
     <g id="text_17">
      <!-- 10 -->
      <g transform="translate(281.814476 297.758437)scale(0.1 -0.1)">
       <use xlink:href="#DejaVuSans-49"/>
       <use x="63.623047" xlink:href="#DejaVuSans-48"/>
      </g>
     </g>
    </g>
    <g id="text_18">
     <!-- M -->
     <g transform="translate(236.743103 311.436562)scale(0.1 -0.1)">
      <use xlink:href="#DejaVuSans-77"/>
     </g>
    </g>
   </g>
   <g id="matplotlib.axis_4">
    <g id="ytick_9">
     <g id="line2d_32">
      <path clip-path="url(#p039610bcbe)" d="M 189.225374 272.230909 
L 292.888957 272.230909 
" style="fill:none;stroke:#b0b0b0;stroke-linecap:square;stroke-width:0.8;"/>
     </g>
     <g id="line2d_33">
      <g>
       <use style="stroke:#000000;stroke-width:0.8;" x="189.225374" xlink:href="#m677f374cdc" y="272.230909"/>
      </g>
     </g>
     <g id="text_19">
      <!-- 0 -->
      <g transform="translate(175.862874 276.030128)scale(0.1 -0.1)">
       <use xlink:href="#DejaVuSans-48"/>
      </g>
     </g>
    </g>
    <g id="ytick_10">
     <g id="line2d_34">
      <path clip-path="url(#p039610bcbe)" d="M 189.225374 232.849096 
L 292.888957 232.849096 
" style="fill:none;stroke:#b0b0b0;stroke-linecap:square;stroke-width:0.8;"/>
     </g>
     <g id="line2d_35">
      <g>
       <use style="stroke:#000000;stroke-width:0.8;" x="189.225374" xlink:href="#m677f374cdc" y="232.849096"/>
      </g>
     </g>
     <g id="text_20">
      <!-- 1 -->
      <g transform="translate(175.862874 236.648314)scale(0.1 -0.1)">
       <use xlink:href="#DejaVuSans-49"/>
      </g>
     </g>
    </g>
    <g id="ytick_11">
     <g id="line2d_36">
      <path clip-path="url(#p039610bcbe)" d="M 189.225374 193.467282 
L 292.888957 193.467282 
" style="fill:none;stroke:#b0b0b0;stroke-linecap:square;stroke-width:0.8;"/>
     </g>
     <g id="line2d_37">
      <g>
       <use style="stroke:#000000;stroke-width:0.8;" x="189.225374" xlink:href="#m677f374cdc" y="193.467282"/>
      </g>
     </g>
     <g id="text_21">
      <!-- 2 -->
      <g transform="translate(175.862874 197.266501)scale(0.1 -0.1)">
       <use xlink:href="#DejaVuSans-50"/>
      </g>
     </g>
    </g>
    <g id="ytick_12">
     <g id="line2d_38">
      <path clip-path="url(#p039610bcbe)" d="M 189.225374 154.085469 
L 292.888957 154.085469 
" style="fill:none;stroke:#b0b0b0;stroke-linecap:square;stroke-width:0.8;"/>
     </g>
     <g id="line2d_39">
      <g>
       <use style="stroke:#000000;stroke-width:0.8;" x="189.225374" xlink:href="#m677f374cdc" y="154.085469"/>
      </g>
     </g>
     <g id="text_22">
      <!-- 3 -->
      <defs>
       <path d="M 40.578125 39.3125 
Q 47.65625 37.796875 51.625 33 
Q 55.609375 28.21875 55.609375 21.1875 
Q 55.609375 10.40625 48.1875 4.484375 
Q 40.765625 -1.421875 27.09375 -1.421875 
Q 22.515625 -1.421875 17.65625 -0.515625 
Q 12.796875 0.390625 7.625 2.203125 
L 7.625 11.71875 
Q 11.71875 9.328125 16.59375 8.109375 
Q 21.484375 6.890625 26.8125 6.890625 
Q 36.078125 6.890625 40.9375 10.546875 
Q 45.796875 14.203125 45.796875 21.1875 
Q 45.796875 27.640625 41.28125 31.265625 
Q 36.765625 34.90625 28.71875 34.90625 
L 20.21875 34.90625 
L 20.21875 43.015625 
L 29.109375 43.015625 
Q 36.375 43.015625 40.234375 45.921875 
Q 44.09375 48.828125 44.09375 54.296875 
Q 44.09375 59.90625 40.109375 62.90625 
Q 36.140625 65.921875 28.71875 65.921875 
Q 24.65625 65.921875 20.015625 65.03125 
Q 15.375 64.15625 9.8125 62.3125 
L 9.8125 71.09375 
Q 15.4375 72.65625 20.34375 73.4375 
Q 25.25 74.21875 29.59375 74.21875 
Q 40.828125 74.21875 47.359375 69.109375 
Q 53.90625 64.015625 53.90625 55.328125 
Q 53.90625 49.265625 50.4375 45.09375 
Q 46.96875 40.921875 40.578125 39.3125 
z
" id="DejaVuSans-51"/>
      </defs>
      <g transform="translate(175.862874 157.884688)scale(0.1 -0.1)">
       <use xlink:href="#DejaVuSans-51"/>
      </g>
     </g>
    </g>
    <g id="ytick_13">
     <g id="line2d_40">
      <path clip-path="url(#p039610bcbe)" d="M 189.225374 114.703655 
L 292.888957 114.703655 
" style="fill:none;stroke:#b0b0b0;stroke-linecap:square;stroke-width:0.8;"/>
     </g>
     <g id="line2d_41">
      <g>
       <use style="stroke:#000000;stroke-width:0.8;" x="189.225374" xlink:href="#m677f374cdc" y="114.703655"/>
      </g>
     </g>
     <g id="text_23">
      <!-- 4 -->
      <g transform="translate(175.862874 118.502874)scale(0.1 -0.1)">
       <use xlink:href="#DejaVuSans-52"/>
      </g>
     </g>
    </g>
    <g id="ytick_14">
     <g id="line2d_42">
      <path clip-path="url(#p039610bcbe)" d="M 189.225374 75.321842 
L 292.888957 75.321842 
" style="fill:none;stroke:#b0b0b0;stroke-linecap:square;stroke-width:0.8;"/>
     </g>
     <g id="line2d_43">
      <g>
       <use style="stroke:#000000;stroke-width:0.8;" x="189.225374" xlink:href="#m677f374cdc" y="75.321842"/>
      </g>
     </g>
     <g id="text_24">
      <!-- 5 -->
      <g transform="translate(175.862874 79.121061)scale(0.1 -0.1)">
       <use xlink:href="#DejaVuSans-53"/>
      </g>
     </g>
    </g>
    <g id="text_25">
     <!-- C -->
     <g transform="translate(169.783187 166.431406)rotate(-90)scale(0.1 -0.1)">
      <use xlink:href="#DejaVuSans-67"/>
     </g>
    </g>
   </g>
   <g id="line2d_44">
    <path clip-path="url(#p039610bcbe)" d="M 193.937355 272.230909 
L 194.889271 268.25691 
L 195.841186 264.28291 
L 196.793101 260.308911 
L 197.745017 256.334912 
L 198.696932 252.360912 
L 199.648848 248.386913 
L 200.600763 244.412914 
L 201.552678 240.438914 
L 202.504594 236.464915 
L 203.456509 232.607041 
L 204.408424 230.596277 
L 205.36034 228.585514 
L 206.312255 226.57475 
L 207.26417 224.563987 
L 208.216086 222.553223 
L 209.168001 220.54246 
L 210.119917 218.531696 
L 211.071832 216.520933 
L 212.023747 214.510169 
L 212.975663 212.499406 
L 213.927578 210.488642 
L 214.879493 208.477879 
L 215.831409 206.467115 
L 216.783324 204.456352 
L 217.735239 202.445588 
L 218.687155 200.434825 
L 219.63907 198.424061 
L 220.590985 196.413298 
L 221.542901 194.402534 
L 222.494816 192.391771 
L 223.446732 190.381007 
L 224.398647 188.370244 
L 225.350562 186.359481 
L 226.302478 184.348717 
L 227.254393 182.337954 
L 228.206308 180.32719 
L 229.158224 178.316427 
L 230.110139 176.305663 
L 231.062054 174.2949 
L 232.01397 172.284136 
L 232.965885 170.273373 
L 233.917801 168.262609 
L 234.869716 166.251846 
L 235.821631 164.241082 
L 236.773547 162.230319 
L 237.725462 160.219555 
L 238.677377 158.208792 
L 239.629293 156.198028 
L 240.581208 154.187265 
L 241.533123 152.176501 
L 242.485039 150.165738 
L 243.436954 148.154974 
L 244.38887 146.144211 
L 245.340785 144.133447 
L 246.2927 142.122684 
L 247.244616 140.111921 
L 248.196531 138.101157 
L 249.148446 136.090394 
L 250.100362 134.07963 
L 251.052277 132.068867 
L 252.004192 130.058103 
L 252.956108 128.04734 
L 253.908023 126.036576 
L 254.859939 124.025813 
L 255.811854 122.015049 
L 256.763769 120.004286 
L 257.715685 117.993522 
L 258.6676 115.982759 
L 259.619515 113.971995 
L 260.571431 111.961232 
L 261.523346 109.950468 
L 262.475261 107.939705 
L 263.427177 105.928941 
L 264.379092 103.918178 
L 265.331007 101.907414 
L 266.282923 99.896651 
L 267.234838 97.885887 
L 268.186754 95.875124 
L 269.138669 93.86436 
L 270.090584 91.853597 
L 271.0425 89.842834 
L 271.994415 87.83207 
L 272.94633 85.821307 
L 273.898246 83.810543 
L 274.850161 81.79978 
L 275.802076 79.789016 
L 276.753992 77.778253 
L 277.705907 75.767489 
L 278.657823 73.756726 
L 279.609738 71.745962 
L 280.561653 69.735199 
L 281.513569 67.724435 
L 282.465484 65.713672 
L 283.417399 63.702908 
L 284.369315 61.692145 
L 285.32123 59.681381 
L 286.273145 57.670618 
L 287.225061 55.659854 
L 288.176976 53.649091 
" style="fill:none;stroke:#1f77b4;stroke-linecap:square;stroke-width:1.5;"/>
   </g>
   <g id="line2d_45">
    <path clip-path="url(#p039610bcbe)" d="M 193.937355 272.230909 
L 194.889271 268.252948 
L 195.841186 264.274987 
L 196.793101 260.297026 
L 197.745017 256.319065 
L 198.696932 252.723144 
L 199.648848 250.71238 
L 200.600763 248.701617 
L 201.552678 246.690853 
L 202.504594 244.68009 
L 203.456509 242.669327 
L 204.408424 240.658563 
L 205.36034 238.6478 
L 206.312255 236.637036 
L 207.26417 234.626273 
L 208.216086 232.615509 
L 209.168001 230.604746 
L 210.119917 228.593982 
L 211.071832 226.583219 
L 212.023747 224.572455 
L 212.975663 222.561692 
L 213.927578 220.550928 
L 214.879493 218.540165 
L 215.831409 216.529401 
L 216.783324 214.518638 
L 217.735239 212.507874 
L 218.687155 210.497111 
L 219.63907 208.486347 
L 220.590985 206.475584 
L 221.542901 204.46482 
L 222.494816 202.454057 
L 223.446732 200.443293 
L 224.398647 198.43253 
L 225.350562 196.421767 
L 226.302478 194.411003 
L 227.254393 192.40024 
L 228.206308 190.389476 
L 229.158224 188.378713 
L 230.110139 186.367949 
L 231.062054 184.357186 
L 232.01397 182.346422 
L 232.965885 180.335659 
L 233.917801 178.324895 
L 234.869716 176.314132 
L 235.821631 174.303368 
L 236.773547 172.292605 
L 237.725462 170.281841 
L 238.677377 168.271078 
L 239.629293 166.260314 
L 240.581208 164.249551 
L 241.533123 162.238787 
L 242.485039 160.228024 
L 243.436954 158.21726 
L 244.38887 156.206497 
L 245.340785 154.195733 
L 246.2927 152.18497 
L 247.244616 150.174206 
L 248.196531 148.163443 
L 249.148446 146.15268 
L 250.100362 144.141916 
L 251.052277 142.131153 
L 252.004192 140.120389 
L 252.956108 138.109626 
L 253.908023 136.098862 
L 254.859939 134.088099 
L 255.811854 132.077335 
L 256.763769 130.066572 
L 257.715685 128.055808 
L 258.6676 126.045045 
L 259.619515 124.034281 
L 260.571431 122.023518 
L 261.523346 120.012754 
L 262.475261 118.001991 
L 263.427177 115.991227 
L 264.379092 113.980464 
L 265.331007 111.9697 
L 266.282923 109.958937 
L 267.234838 107.948173 
L 268.186754 105.93741 
L 269.138669 103.926646 
L 270.090584 101.915883 
L 271.0425 99.90512 
L 271.994415 97.894356 
L 272.94633 95.883593 
L 273.898246 93.872829 
L 274.850161 91.862066 
L 275.802076 89.851302 
L 276.753992 87.840539 
L 277.705907 85.829775 
L 278.657823 83.819012 
L 279.609738 81.808248 
L 280.561653 79.797485 
L 281.513569 77.786721 
L 282.465484 75.775958 
L 283.417399 73.765194 
L 284.369315 71.754431 
L 285.32123 69.743667 
L 286.273145 67.732904 
L 287.225061 65.72214 
L 288.176976 63.711377 
" style="fill:none;stroke:#ff7f0e;stroke-linecap:square;stroke-width:1.5;"/>
   </g>
   <g id="line2d_46">
    <path clip-path="url(#p039610bcbe)" d="M 193.937355 272.230909 
L 194.889271 268.252948 
L 195.841186 264.274987 
L 196.793101 260.297026 
L 197.745017 256.319065 
L 198.696932 252.341104 
L 199.648848 248.363143 
L 200.600763 244.385182 
L 201.552678 240.407221 
L 202.504594 236.429261 
L 203.456509 232.607041 
L 204.408424 230.596277 
L 205.36034 228.585514 
L 206.312255 226.57475 
L 207.26417 224.563987 
L 208.216086 222.553223 
L 209.168001 220.54246 
L 210.119917 218.531696 
L 211.071832 216.520933 
L 212.023747 214.510169 
L 212.975663 212.499406 
L 213.927578 210.488642 
L 214.879493 208.477879 
L 215.831409 206.467115 
L 216.783324 204.456352 
L 217.735239 202.445588 
L 218.687155 200.434825 
L 219.63907 198.424061 
L 220.590985 196.413298 
L 221.542901 194.402534 
L 222.494816 192.391771 
L 223.446732 190.381007 
L 224.398647 188.370244 
L 225.350562 186.359481 
L 226.302478 184.348717 
L 227.254393 182.337954 
L 228.206308 180.32719 
L 229.158224 178.316427 
L 230.110139 176.305663 
L 231.062054 174.2949 
L 232.01397 172.284136 
L 232.965885 170.273373 
L 233.917801 168.262609 
L 234.869716 166.251846 
L 235.821631 164.241082 
L 236.773547 162.230319 
L 237.725462 160.219555 
L 238.677377 158.208792 
L 239.629293 156.198028 
L 240.581208 154.187265 
L 241.533123 152.176501 
L 242.485039 150.165738 
L 243.436954 148.154974 
L 244.38887 146.144211 
L 245.340785 144.133447 
L 246.2927 142.122684 
L 247.244616 140.111921 
L 248.196531 138.101157 
L 249.148446 136.090394 
L 250.100362 134.07963 
L 251.052277 132.068867 
L 252.004192 130.058103 
L 252.956108 128.04734 
L 253.908023 126.036576 
L 254.859939 124.025813 
L 255.811854 122.015049 
L 256.763769 120.004286 
L 257.715685 117.993522 
L 258.6676 115.982759 
L 259.619515 113.971995 
L 260.571431 111.961232 
L 261.523346 109.950468 
L 262.475261 107.939705 
L 263.427177 105.928941 
L 264.379092 103.918178 
L 265.331007 101.907414 
L 266.282923 99.896651 
L 267.234838 97.885887 
L 268.186754 95.875124 
L 269.138669 93.86436 
L 270.090584 91.853597 
L 271.0425 89.842834 
L 271.994415 87.83207 
L 272.94633 85.821307 
L 273.898246 83.810543 
L 274.850161 81.79978 
L 275.802076 79.789016 
L 276.753992 77.778253 
L 277.705907 75.767489 
L 278.657823 73.756726 
L 279.609738 71.745962 
L 280.561653 69.735199 
L 281.513569 67.724435 
L 282.465484 65.713672 
L 283.417399 63.702908 
L 284.369315 61.692145 
L 285.32123 59.681381 
L 286.273145 57.670618 
L 287.225061 55.659854 
L 288.176976 53.649091 
" style="fill:none;stroke:#2ca02c;stroke-linecap:square;stroke-width:1.5;"/>
   </g>
   <g id="patch_8">
    <path d="M 189.225374 283.16 
L 189.225374 42.72 
" style="fill:none;stroke:#000000;stroke-linecap:square;stroke-linejoin:miter;stroke-width:0.8;"/>
   </g>
   <g id="patch_9">
    <path d="M 292.888957 283.16 
L 292.888957 42.72 
" style="fill:none;stroke:#000000;stroke-linecap:square;stroke-linejoin:miter;stroke-width:0.8;"/>
   </g>
   <g id="patch_10">
    <path d="M 189.225374 283.16 
L 292.888957 283.16 
" style="fill:none;stroke:#000000;stroke-linecap:square;stroke-linejoin:miter;stroke-width:0.8;"/>
   </g>
   <g id="patch_11">
    <path d="M 189.225374 42.72 
L 292.888957 42.72 
" style="fill:none;stroke:#000000;stroke-linecap:square;stroke-linejoin:miter;stroke-width:0.8;"/>
   </g>
   <g id="text_26">
    <!-- Age = 99 -->
    <defs>
     <path d="M 10.984375 1.515625 
L 10.984375 10.5 
Q 14.703125 8.734375 18.5 7.8125 
Q 22.3125 6.890625 25.984375 6.890625 
Q 35.75 6.890625 40.890625 13.453125 
Q 46.046875 20.015625 46.78125 33.40625 
Q 43.953125 29.203125 39.59375 26.953125 
Q 35.25 24.703125 29.984375 24.703125 
Q 19.046875 24.703125 12.671875 31.3125 
Q 6.296875 37.9375 6.296875 49.421875 
Q 6.296875 60.640625 12.9375 67.421875 
Q 19.578125 74.21875 30.609375 74.21875 
Q 43.265625 74.21875 49.921875 64.515625 
Q 56.59375 54.828125 56.59375 36.375 
Q 56.59375 19.140625 48.40625 8.859375 
Q 40.234375 -1.421875 26.421875 -1.421875 
Q 22.703125 -1.421875 18.890625 -0.6875 
Q 15.09375 0.046875 10.984375 1.515625 
z
M 30.609375 32.421875 
Q 37.25 32.421875 41.125 36.953125 
Q 45.015625 41.5 45.015625 49.421875 
Q 45.015625 57.28125 41.125 61.84375 
Q 37.25 66.40625 30.609375 66.40625 
Q 23.96875 66.40625 20.09375 61.84375 
Q 16.21875 57.28125 16.21875 49.421875 
Q 16.21875 41.5 20.09375 36.953125 
Q 23.96875 32.421875 30.609375 32.421875 
z
" id="DejaVuSans-57"/>
    </defs>
    <g transform="translate(212.975291 36.72)scale(0.12 -0.12)">
     <use xlink:href="#DejaVuSans-65"/>
     <use x="68.408203" xlink:href="#DejaVuSans-103"/>
     <use x="131.884766" xlink:href="#DejaVuSans-101"/>
     <use x="193.408203" xlink:href="#DejaVuSans-32"/>
     <use x="225.195312" xlink:href="#DejaVuSans-61"/>
     <use x="308.984375" xlink:href="#DejaVuSans-32"/>
     <use x="340.771484" xlink:href="#DejaVuSans-57"/>
     <use x="404.394531" xlink:href="#DejaVuSans-57"/>
    </g>
   </g>
  </g>
  <g id="axes_3">
   <g id="patch_12">
    <path d="M 344.720749 283.16 
L 448.384332 283.16 
L 448.384332 42.72 
L 344.720749 42.72 
z
" style="fill:#ffffff;"/>
   </g>
   <g id="matplotlib.axis_5">
    <g id="xtick_7">
     <g id="line2d_47">
      <path clip-path="url(#p98e3526b12)" d="M 349.43273 283.16 
L 349.43273 42.72 
" style="fill:none;stroke:#b0b0b0;stroke-linecap:square;stroke-width:0.8;"/>
     </g>
     <g id="line2d_48">
      <g>
       <use style="stroke:#000000;stroke-width:0.8;" x="349.43273" xlink:href="#mc851760fdf" y="283.16"/>
      </g>
     </g>
     <g id="text_27">
      <!-- 0 -->
      <g transform="translate(346.25148 297.758437)scale(0.1 -0.1)">
       <use xlink:href="#DejaVuSans-48"/>
      </g>
     </g>
    </g>
    <g id="xtick_8">
     <g id="line2d_49">
      <path clip-path="url(#p98e3526b12)" d="M 396.55254 283.16 
L 396.55254 42.72 
" style="fill:none;stroke:#b0b0b0;stroke-linecap:square;stroke-width:0.8;"/>
     </g>
     <g id="line2d_50">
      <g>
       <use style="stroke:#000000;stroke-width:0.8;" x="396.55254" xlink:href="#mc851760fdf" y="283.16"/>
      </g>
     </g>
     <g id="text_28">
      <!-- 5 -->
      <g transform="translate(393.37129 297.758437)scale(0.1 -0.1)">
       <use xlink:href="#DejaVuSans-53"/>
      </g>
     </g>
    </g>
    <g id="xtick_9">
     <g id="line2d_51">
      <path clip-path="url(#p98e3526b12)" d="M 443.672351 283.16 
L 443.672351 42.72 
" style="fill:none;stroke:#b0b0b0;stroke-linecap:square;stroke-width:0.8;"/>
     </g>
     <g id="line2d_52">
      <g>
       <use style="stroke:#000000;stroke-width:0.8;" x="443.672351" xlink:href="#mc851760fdf" y="283.16"/>
      </g>
     </g>
     <g id="text_29">
      <!-- 10 -->
      <g transform="translate(437.309851 297.758437)scale(0.1 -0.1)">
       <use xlink:href="#DejaVuSans-49"/>
       <use x="63.623047" xlink:href="#DejaVuSans-48"/>
      </g>
     </g>
    </g>
    <g id="text_30">
     <!-- M -->
     <g transform="translate(392.238478 311.436562)scale(0.1 -0.1)">
      <use xlink:href="#DejaVuSans-77"/>
     </g>
    </g>
   </g>
   <g id="matplotlib.axis_6">
    <g id="ytick_15">
     <g id="line2d_53">
      <path clip-path="url(#p98e3526b12)" d="M 344.720749 272.230909 
L 448.384332 272.230909 
" style="fill:none;stroke:#b0b0b0;stroke-linecap:square;stroke-width:0.8;"/>
     </g>
     <g id="line2d_54">
      <g>
       <use style="stroke:#000000;stroke-width:0.8;" x="344.720749" xlink:href="#m677f374cdc" y="272.230909"/>
      </g>
     </g>
     <g id="text_31">
      <!-- 0 -->
      <g transform="translate(331.358249 276.030128)scale(0.1 -0.1)">
       <use xlink:href="#DejaVuSans-48"/>
      </g>
     </g>
    </g>
    <g id="ytick_16">
     <g id="line2d_55">
      <path clip-path="url(#p98e3526b12)" d="M 344.720749 228.514545 
L 448.384332 228.514545 
" style="fill:none;stroke:#b0b0b0;stroke-linecap:square;stroke-width:0.8;"/>
     </g>
     <g id="line2d_56">
      <g>
       <use style="stroke:#000000;stroke-width:0.8;" x="344.720749" xlink:href="#m677f374cdc" y="228.514545"/>
      </g>
     </g>
     <g id="text_32">
      <!-- 2 -->
      <g transform="translate(331.358249 232.313764)scale(0.1 -0.1)">
       <use xlink:href="#DejaVuSans-50"/>
      </g>
     </g>
    </g>
    <g id="ytick_17">
     <g id="line2d_57">
      <path clip-path="url(#p98e3526b12)" d="M 344.720749 184.798182 
L 448.384332 184.798182 
" style="fill:none;stroke:#b0b0b0;stroke-linecap:square;stroke-width:0.8;"/>
     </g>
     <g id="line2d_58">
      <g>
       <use style="stroke:#000000;stroke-width:0.8;" x="344.720749" xlink:href="#m677f374cdc" y="184.798182"/>
      </g>
     </g>
     <g id="text_33">
      <!-- 4 -->
      <g transform="translate(331.358249 188.597401)scale(0.1 -0.1)">
       <use xlink:href="#DejaVuSans-52"/>
      </g>
     </g>
    </g>
    <g id="ytick_18">
     <g id="line2d_59">
      <path clip-path="url(#p98e3526b12)" d="M 344.720749 141.081818 
L 448.384332 141.081818 
" style="fill:none;stroke:#b0b0b0;stroke-linecap:square;stroke-width:0.8;"/>
     </g>
     <g id="line2d_60">
      <g>
       <use style="stroke:#000000;stroke-width:0.8;" x="344.720749" xlink:href="#m677f374cdc" y="141.081818"/>
      </g>
     </g>
     <g id="text_34">
      <!-- 6 -->
      <g transform="translate(331.358249 144.881037)scale(0.1 -0.1)">
       <use xlink:href="#DejaVuSans-54"/>
      </g>
     </g>
    </g>
    <g id="ytick_19">
     <g id="line2d_61">
      <path clip-path="url(#p98e3526b12)" d="M 344.720749 97.365455 
L 448.384332 97.365455 
" style="fill:none;stroke:#b0b0b0;stroke-linecap:square;stroke-width:0.8;"/>
     </g>
     <g id="line2d_62">
      <g>
       <use style="stroke:#000000;stroke-width:0.8;" x="344.720749" xlink:href="#m677f374cdc" y="97.365455"/>
      </g>
     </g>
     <g id="text_35">
      <!-- 8 -->
      <g transform="translate(331.358249 101.164673)scale(0.1 -0.1)">
       <use xlink:href="#DejaVuSans-56"/>
      </g>
     </g>
    </g>
    <g id="ytick_20">
     <g id="line2d_63">
      <path clip-path="url(#p98e3526b12)" d="M 344.720749 53.649091 
L 448.384332 53.649091 
" style="fill:none;stroke:#b0b0b0;stroke-linecap:square;stroke-width:0.8;"/>
     </g>
     <g id="line2d_64">
      <g>
       <use style="stroke:#000000;stroke-width:0.8;" x="344.720749" xlink:href="#m677f374cdc" y="53.649091"/>
      </g>
     </g>
     <g id="text_36">
      <!-- 10 -->
      <g transform="translate(324.995749 57.44831)scale(0.1 -0.1)">
       <use xlink:href="#DejaVuSans-49"/>
       <use x="63.623047" xlink:href="#DejaVuSans-48"/>
      </g>
     </g>
    </g>
    <g id="text_37">
     <!-- C -->
     <g transform="translate(318.916061 166.431406)rotate(-90)scale(0.1 -0.1)">
      <use xlink:href="#DejaVuSans-67"/>
     </g>
    </g>
   </g>
   <g id="line2d_65">
    <path clip-path="url(#p98e3526b12)" d="M 349.43273 272.230909 
L 350.384645 270.023012 
L 351.33656 267.815115 
L 352.288476 265.607218 
L 353.240391 263.39932 
L 354.192307 261.191423 
L 355.144222 258.983526 
L 356.096137 256.775629 
L 357.048053 254.567732 
L 357.999968 252.359835 
L 358.951883 250.151938 
L 359.903799 247.94404 
L 360.855714 245.736143 
L 361.807629 243.528246 
L 362.759545 241.320349 
L 363.71146 239.112452 
L 364.663375 236.904555 
L 365.615291 234.696657 
L 366.567206 232.48876 
L 367.519122 230.280863 
L 368.471037 228.072966 
L 369.422952 225.865069 
L 370.374868 223.657172 
L 371.326783 221.449275 
L 372.278698 219.241377 
L 373.230614 217.03348 
L 374.182529 214.825583 
L 375.134444 212.617686 
L 376.08636 210.409789 
L 377.038275 208.201892 
L 377.990191 205.993994 
L 378.942106 203.786097 
L 379.894021 201.5782 
L 380.845937 199.370303 
L 381.797852 197.162406 
L 382.749767 194.954509 
L 383.701683 192.746612 
L 384.653598 190.538714 
L 385.605513 188.330817 
L 386.557429 186.12292 
L 387.509344 183.915023 
L 388.46126 181.707126 
L 389.413175 179.499229 
L 390.36509 177.291331 
L 391.317006 175.083434 
L 392.268921 172.875537 
L 393.220836 170.66764 
L 394.172752 168.459743 
L 395.124667 166.251846 
L 396.076582 164.043949 
L 397.028498 161.836051 
L 397.980413 159.628154 
L 398.932329 157.420257 
L 399.884244 155.21236 
L 400.836159 153.004463 
L 401.788075 150.796566 
L 402.73999 148.588669 
L 403.691905 146.380771 
L 404.643821 144.172874 
L 405.595736 141.964977 
L 406.547651 139.75708 
L 407.499567 137.549183 
L 408.451482 135.341286 
L 409.403397 133.133388 
L 410.355313 130.925491 
L 411.307228 128.717594 
L 412.259144 126.509697 
L 413.211059 124.3018 
L 414.162974 122.093903 
L 415.11489 119.886006 
L 416.066805 117.678108 
L 417.01872 115.470211 
L 417.970636 113.262314 
L 418.922551 111.054417 
L 419.874466 108.84652 
L 420.826382 106.638623 
L 421.778297 104.430725 
L 422.730213 102.222828 
L 423.682128 100.014931 
L 424.634043 97.807034 
L 425.585959 95.599137 
L 426.537874 93.39124 
L 427.489789 91.183343 
L 428.441705 88.975445 
L 429.39362 86.767548 
L 430.345535 84.559651 
L 431.297451 82.351754 
L 432.249366 80.143857 
L 433.201282 77.93596 
L 434.153197 75.728062 
L 435.105112 73.520165 
L 436.057028 71.312268 
L 437.008943 69.104371 
L 437.960858 66.896474 
L 438.912774 64.688577 
L 439.864689 62.48068 
L 440.816604 60.272782 
L 441.76852 58.064885 
L 442.720435 55.856988 
L 443.672351 53.649091 
" style="fill:none;stroke:#1f77b4;stroke-linecap:square;stroke-width:1.5;"/>
   </g>
   <g id="line2d_66">
    <path clip-path="url(#p98e3526b12)" d="M 349.43273 272.230909 
L 350.384645 270.023012 
L 351.33656 267.815115 
L 352.288476 265.607218 
L 353.240391 263.39932 
L 354.192307 261.191423 
L 355.144222 258.983526 
L 356.096137 256.775629 
L 357.048053 254.567732 
L 357.999968 252.359835 
L 358.951883 250.151938 
L 359.903799 247.94404 
L 360.855714 245.736143 
L 361.807629 243.528246 
L 362.759545 241.320349 
L 363.71146 239.112452 
L 364.663375 236.904555 
L 365.615291 234.696657 
L 366.567206 232.48876 
L 367.519122 230.280863 
L 368.471037 228.072966 
L 369.422952 225.865069 
L 370.374868 223.657172 
L 371.326783 221.449275 
L 372.278698 219.241377 
L 373.230614 217.03348 
L 374.182529 214.825583 
L 375.134444 212.617686 
L 376.08636 210.409789 
L 377.038275 208.201892 
L 377.990191 205.993994 
L 378.942106 203.786097 
L 379.894021 201.5782 
L 380.845937 199.370303 
L 381.797852 197.162406 
L 382.749767 194.954509 
L 383.701683 192.746612 
L 384.653598 190.538714 
L 385.605513 188.330817 
L 386.557429 186.12292 
L 387.509344 183.915023 
L 388.46126 181.707126 
L 389.413175 179.499229 
L 390.36509 177.291331 
L 391.317006 175.083434 
L 392.268921 172.875537 
L 393.220836 170.66764 
L 394.172752 168.459743 
L 395.124667 166.251846 
L 396.076582 164.043949 
L 397.028498 161.836051 
L 397.980413 159.628154 
L 398.932329 157.420257 
L 399.884244 155.21236 
L 400.836159 153.004463 
L 401.788075 150.796566 
L 402.73999 148.588669 
L 403.691905 146.380771 
L 404.643821 144.172874 
L 405.595736 141.964977 
L 406.547651 139.75708 
L 407.499567 137.549183 
L 408.451482 135.341286 
L 409.403397 133.133388 
L 410.355313 130.925491 
L 411.307228 128.717594 
L 412.259144 126.509697 
L 413.211059 124.3018 
L 414.162974 122.093903 
L 415.11489 119.886006 
L 416.066805 117.678108 
L 417.01872 115.470211 
L 417.970636 113.262314 
L 418.922551 111.054417 
L 419.874466 108.84652 
L 420.826382 106.638623 
L 421.778297 104.430725 
L 422.730213 102.222828 
L 423.682128 100.014931 
L 424.634043 97.807034 
L 425.585959 95.599137 
L 426.537874 93.39124 
L 427.489789 91.183343 
L 428.441705 88.975445 
L 429.39362 86.767548 
L 430.345535 84.559651 
L 431.297451 82.351754 
L 432.249366 80.143857 
L 433.201282 77.93596 
L 434.153197 75.728062 
L 435.105112 73.520165 
L 436.057028 71.312268 
L 437.008943 69.104371 
L 437.960858 66.896474 
L 438.912774 64.688577 
L 439.864689 62.48068 
L 440.816604 60.272782 
L 441.76852 58.064885 
L 442.720435 55.856988 
L 443.672351 53.649091 
" style="fill:none;stroke:#ff7f0e;stroke-linecap:square;stroke-width:1.5;"/>
   </g>
   <g id="line2d_67">
    <path clip-path="url(#p98e3526b12)" d="M 349.43273 272.230909 
L 350.384645 270.023012 
L 351.33656 267.815115 
L 352.288476 265.607218 
L 353.240391 263.39932 
L 354.192307 261.191423 
L 355.144222 258.983526 
L 356.096137 256.775629 
L 357.048053 254.567732 
L 357.999968 252.359835 
L 358.951883 250.151938 
L 359.903799 247.94404 
L 360.855714 245.736143 
L 361.807629 243.528246 
L 362.759545 241.320349 
L 363.71146 239.112452 
L 364.663375 236.904555 
L 365.615291 234.696657 
L 366.567206 232.48876 
L 367.519122 230.280863 
L 368.471037 228.072966 
L 369.422952 225.865069 
L 370.374868 223.657172 
L 371.326783 221.449275 
L 372.278698 219.241377 
L 373.230614 217.03348 
L 374.182529 214.825583 
L 375.134444 212.617686 
L 376.08636 210.409789 
L 377.038275 208.201892 
L 377.990191 205.993994 
L 378.942106 203.786097 
L 379.894021 201.5782 
L 380.845937 199.370303 
L 381.797852 197.162406 
L 382.749767 194.954509 
L 383.701683 192.746612 
L 384.653598 190.538714 
L 385.605513 188.330817 
L 386.557429 186.12292 
L 387.509344 183.915023 
L 388.46126 181.707126 
L 389.413175 179.499229 
L 390.36509 177.291331 
L 391.317006 175.083434 
L 392.268921 172.875537 
L 393.220836 170.66764 
L 394.172752 168.459743 
L 395.124667 166.251846 
L 396.076582 164.043949 
L 397.028498 161.836051 
L 397.980413 159.628154 
L 398.932329 157.420257 
L 399.884244 155.21236 
L 400.836159 153.004463 
L 401.788075 150.796566 
L 402.73999 148.588669 
L 403.691905 146.380771 
L 404.643821 144.172874 
L 405.595736 141.964977 
L 406.547651 139.75708 
L 407.499567 137.549183 
L 408.451482 135.341286 
L 409.403397 133.133388 
L 410.355313 130.925491 
L 411.307228 128.717594 
L 412.259144 126.509697 
L 413.211059 124.3018 
L 414.162974 122.093903 
L 415.11489 119.886006 
L 416.066805 117.678108 
L 417.01872 115.470211 
L 417.970636 113.262314 
L 418.922551 111.054417 
L 419.874466 108.84652 
L 420.826382 106.638623 
L 421.778297 104.430725 
L 422.730213 102.222828 
L 423.682128 100.014931 
L 424.634043 97.807034 
L 425.585959 95.599137 
L 426.537874 93.39124 
L 427.489789 91.183343 
L 428.441705 88.975445 
L 429.39362 86.767548 
L 430.345535 84.559651 
L 431.297451 82.351754 
L 432.249366 80.143857 
L 433.201282 77.93596 
L 434.153197 75.728062 
L 435.105112 73.520165 
L 436.057028 71.312268 
L 437.008943 69.104371 
L 437.960858 66.896474 
L 438.912774 64.688577 
L 439.864689 62.48068 
L 440.816604 60.272782 
L 441.76852 58.064885 
L 442.720435 55.856988 
L 443.672351 53.649091 
" style="fill:none;stroke:#2ca02c;stroke-linecap:square;stroke-width:1.5;"/>
   </g>
   <g id="patch_13">
    <path d="M 344.720749 283.16 
L 344.720749 42.72 
" style="fill:none;stroke:#000000;stroke-linecap:square;stroke-linejoin:miter;stroke-width:0.8;"/>
   </g>
   <g id="patch_14">
    <path d="M 448.384332 283.16 
L 448.384332 42.72 
" style="fill:none;stroke:#000000;stroke-linecap:square;stroke-linejoin:miter;stroke-width:0.8;"/>
   </g>
   <g id="patch_15">
    <path d="M 344.720749 283.16 
L 448.384332 283.16 
" style="fill:none;stroke:#000000;stroke-linecap:square;stroke-linejoin:miter;stroke-width:0.8;"/>
   </g>
   <g id="patch_16">
    <path d="M 344.720749 42.72 
L 448.384332 42.72 
" style="fill:none;stroke:#000000;stroke-linecap:square;stroke-linejoin:miter;stroke-width:0.8;"/>
   </g>
   <g id="text_38">
    <!-- Age = 100 -->
    <g transform="translate(364.653165 36.72)scale(0.12 -0.12)">
     <use xlink:href="#DejaVuSans-65"/>
     <use x="68.408203" xlink:href="#DejaVuSans-103"/>
     <use x="131.884766" xlink:href="#DejaVuSans-101"/>
     <use x="193.408203" xlink:href="#DejaVuSans-32"/>
     <use x="225.195312" xlink:href="#DejaVuSans-61"/>
     <use x="308.984375" xlink:href="#DejaVuSans-32"/>
     <use x="340.771484" xlink:href="#DejaVuSans-49"/>
     <use x="404.394531" xlink:href="#DejaVuSans-48"/>
     <use x="468.017578" xlink:href="#DejaVuSans-48"/>
    </g>
   </g>
  </g>
  <g id="text_39">
   <!-- Consumption Comparisons by Age (Levels) -->
   <defs>
    <path d="M 30.609375 48.390625 
Q 23.390625 48.390625 19.1875 42.75 
Q 14.984375 37.109375 14.984375 27.296875 
Q 14.984375 17.484375 19.15625 11.84375 
Q 23.34375 6.203125 30.609375 6.203125 
Q 37.796875 6.203125 41.984375 11.859375 
Q 46.1875 17.53125 46.1875 27.296875 
Q 46.1875 37.015625 41.984375 42.703125 
Q 37.796875 48.390625 30.609375 48.390625 
z
M 30.609375 56 
Q 42.328125 56 49.015625 48.375 
Q 55.71875 40.765625 55.71875 27.296875 
Q 55.71875 13.875 49.015625 6.21875 
Q 42.328125 -1.421875 30.609375 -1.421875 
Q 18.84375 -1.421875 12.171875 6.21875 
Q 5.515625 13.875 5.515625 27.296875 
Q 5.515625 40.765625 12.171875 48.375 
Q 18.84375 56 30.609375 56 
z
" id="DejaVuSans-111"/>
    <path d="M 54.890625 33.015625 
L 54.890625 0 
L 45.90625 0 
L 45.90625 32.71875 
Q 45.90625 40.484375 42.875 44.328125 
Q 39.84375 48.1875 33.796875 48.1875 
Q 26.515625 48.1875 22.3125 43.546875 
Q 18.109375 38.921875 18.109375 30.90625 
L 18.109375 0 
L 9.078125 0 
L 9.078125 54.6875 
L 18.109375 54.6875 
L 18.109375 46.1875 
Q 21.34375 51.125 25.703125 53.5625 
Q 30.078125 56 35.796875 56 
Q 45.21875 56 50.046875 50.171875 
Q 54.890625 44.34375 54.890625 33.015625 
z
" id="DejaVuSans-110"/>
    <path d="M 44.28125 53.078125 
L 44.28125 44.578125 
Q 40.484375 46.53125 36.375 47.5 
Q 32.28125 48.484375 27.875 48.484375 
Q 21.1875 48.484375 17.84375 46.4375 
Q 14.5 44.390625 14.5 40.28125 
Q 14.5 37.15625 16.890625 35.375 
Q 19.28125 33.59375 26.515625 31.984375 
L 29.59375 31.296875 
Q 39.15625 29.25 43.1875 25.515625 
Q 47.21875 21.78125 47.21875 15.09375 
Q 47.21875 7.46875 41.1875 3.015625 
Q 35.15625 -1.421875 24.609375 -1.421875 
Q 20.21875 -1.421875 15.453125 -0.5625 
Q 10.6875 0.296875 5.421875 2 
L 5.421875 11.28125 
Q 10.40625 8.6875 15.234375 7.390625 
Q 20.0625 6.109375 24.8125 6.109375 
Q 31.15625 6.109375 34.5625 8.28125 
Q 37.984375 10.453125 37.984375 14.40625 
Q 37.984375 18.0625 35.515625 20.015625 
Q 33.0625 21.96875 24.703125 23.78125 
L 21.578125 24.515625 
Q 13.234375 26.265625 9.515625 29.90625 
Q 5.8125 33.546875 5.8125 39.890625 
Q 5.8125 47.609375 11.28125 51.796875 
Q 16.75 56 26.8125 56 
Q 31.78125 56 36.171875 55.265625 
Q 40.578125 54.546875 44.28125 53.078125 
z
" id="DejaVuSans-115"/>
    <path d="M 8.5 21.578125 
L 8.5 54.6875 
L 17.484375 54.6875 
L 17.484375 21.921875 
Q 17.484375 14.15625 20.5 10.265625 
Q 23.53125 6.390625 29.59375 6.390625 
Q 36.859375 6.390625 41.078125 11.03125 
Q 45.3125 15.671875 45.3125 23.6875 
L 45.3125 54.6875 
L 54.296875 54.6875 
L 54.296875 0 
L 45.3125 0 
L 45.3125 8.40625 
Q 42.046875 3.421875 37.71875 1 
Q 33.40625 -1.421875 27.6875 -1.421875 
Q 18.265625 -1.421875 13.375 4.4375 
Q 8.5 10.296875 8.5 21.578125 
z
M 31.109375 56 
z
" id="DejaVuSans-117"/>
    <path d="M 52 44.1875 
Q 55.375 50.25 60.0625 53.125 
Q 64.75 56 71.09375 56 
Q 79.640625 56 84.28125 50.015625 
Q 88.921875 44.046875 88.921875 33.015625 
L 88.921875 0 
L 79.890625 0 
L 79.890625 32.71875 
Q 79.890625 40.578125 77.09375 44.375 
Q 74.3125 48.1875 68.609375 48.1875 
Q 61.625 48.1875 57.5625 43.546875 
Q 53.515625 38.921875 53.515625 30.90625 
L 53.515625 0 
L 44.484375 0 
L 44.484375 32.71875 
Q 44.484375 40.625 41.703125 44.40625 
Q 38.921875 48.1875 33.109375 48.1875 
Q 26.21875 48.1875 22.15625 43.53125 
Q 18.109375 38.875 18.109375 30.90625 
L 18.109375 0 
L 9.078125 0 
L 9.078125 54.6875 
L 18.109375 54.6875 
L 18.109375 46.1875 
Q 21.1875 51.21875 25.484375 53.609375 
Q 29.78125 56 35.6875 56 
Q 41.65625 56 45.828125 52.96875 
Q 50 49.953125 52 44.1875 
z
" id="DejaVuSans-109"/>
    <path d="M 18.109375 8.203125 
L 18.109375 -20.796875 
L 9.078125 -20.796875 
L 9.078125 54.6875 
L 18.109375 54.6875 
L 18.109375 46.390625 
Q 20.953125 51.265625 25.265625 53.625 
Q 29.59375 56 35.59375 56 
Q 45.5625 56 51.78125 48.09375 
Q 58.015625 40.1875 58.015625 27.296875 
Q 58.015625 14.40625 51.78125 6.484375 
Q 45.5625 -1.421875 35.59375 -1.421875 
Q 29.59375 -1.421875 25.265625 0.953125 
Q 20.953125 3.328125 18.109375 8.203125 
z
M 48.6875 27.296875 
Q 48.6875 37.203125 44.609375 42.84375 
Q 40.53125 48.484375 33.40625 48.484375 
Q 26.265625 48.484375 22.1875 42.84375 
Q 18.109375 37.203125 18.109375 27.296875 
Q 18.109375 17.390625 22.1875 11.75 
Q 26.265625 6.109375 33.40625 6.109375 
Q 40.53125 6.109375 44.609375 11.75 
Q 48.6875 17.390625 48.6875 27.296875 
z
" id="DejaVuSans-112"/>
    <path d="M 18.3125 70.21875 
L 18.3125 54.6875 
L 36.8125 54.6875 
L 36.8125 47.703125 
L 18.3125 47.703125 
L 18.3125 18.015625 
Q 18.3125 11.328125 20.140625 9.421875 
Q 21.96875 7.515625 27.59375 7.515625 
L 36.8125 7.515625 
L 36.8125 0 
L 27.59375 0 
Q 17.1875 0 13.234375 3.875 
Q 9.28125 7.765625 9.28125 18.015625 
L 9.28125 47.703125 
L 2.6875 47.703125 
L 2.6875 54.6875 
L 9.28125 54.6875 
L 9.28125 70.21875 
z
" id="DejaVuSans-116"/>
    <path d="M 9.421875 54.6875 
L 18.40625 54.6875 
L 18.40625 0 
L 9.421875 0 
z
M 9.421875 75.984375 
L 18.40625 75.984375 
L 18.40625 64.59375 
L 9.421875 64.59375 
z
" id="DejaVuSans-105"/>
    <path d="M 34.28125 27.484375 
Q 23.390625 27.484375 19.1875 25 
Q 14.984375 22.515625 14.984375 16.5 
Q 14.984375 11.71875 18.140625 8.90625 
Q 21.296875 6.109375 26.703125 6.109375 
Q 34.1875 6.109375 38.703125 11.40625 
Q 43.21875 16.703125 43.21875 25.484375 
L 43.21875 27.484375 
z
M 52.203125 31.203125 
L 52.203125 0 
L 43.21875 0 
L 43.21875 8.296875 
Q 40.140625 3.328125 35.546875 0.953125 
Q 30.953125 -1.421875 24.3125 -1.421875 
Q 15.921875 -1.421875 10.953125 3.296875 
Q 6 8.015625 6 15.921875 
Q 6 25.140625 12.171875 29.828125 
Q 18.359375 34.515625 30.609375 34.515625 
L 43.21875 34.515625 
L 43.21875 35.40625 
Q 43.21875 41.609375 39.140625 45 
Q 35.0625 48.390625 27.6875 48.390625 
Q 23 48.390625 18.546875 47.265625 
Q 14.109375 46.140625 10.015625 43.890625 
L 10.015625 52.203125 
Q 14.9375 54.109375 19.578125 55.046875 
Q 24.21875 56 28.609375 56 
Q 40.484375 56 46.34375 49.84375 
Q 52.203125 43.703125 52.203125 31.203125 
z
" id="DejaVuSans-97"/>
    <path d="M 41.109375 46.296875 
Q 39.59375 47.171875 37.8125 47.578125 
Q 36.03125 48 33.890625 48 
Q 26.265625 48 22.1875 43.046875 
Q 18.109375 38.09375 18.109375 28.8125 
L 18.109375 0 
L 9.078125 0 
L 9.078125 54.6875 
L 18.109375 54.6875 
L 18.109375 46.1875 
Q 20.953125 51.171875 25.484375 53.578125 
Q 30.03125 56 36.53125 56 
Q 37.453125 56 38.578125 55.875 
Q 39.703125 55.765625 41.0625 55.515625 
z
" id="DejaVuSans-114"/>
    <path d="M 48.6875 27.296875 
Q 48.6875 37.203125 44.609375 42.84375 
Q 40.53125 48.484375 33.40625 48.484375 
Q 26.265625 48.484375 22.1875 42.84375 
Q 18.109375 37.203125 18.109375 27.296875 
Q 18.109375 17.390625 22.1875 11.75 
Q 26.265625 6.109375 33.40625 6.109375 
Q 40.53125 6.109375 44.609375 11.75 
Q 48.6875 17.390625 48.6875 27.296875 
z
M 18.109375 46.390625 
Q 20.953125 51.265625 25.265625 53.625 
Q 29.59375 56 35.59375 56 
Q 45.5625 56 51.78125 48.09375 
Q 58.015625 40.1875 58.015625 27.296875 
Q 58.015625 14.40625 51.78125 6.484375 
Q 45.5625 -1.421875 35.59375 -1.421875 
Q 29.59375 -1.421875 25.265625 0.953125 
Q 20.953125 3.328125 18.109375 8.203125 
L 18.109375 0 
L 9.078125 0 
L 9.078125 75.984375 
L 18.109375 75.984375 
z
" id="DejaVuSans-98"/>
    <path d="M 32.171875 -5.078125 
Q 28.375 -14.84375 24.75 -17.8125 
Q 21.140625 -20.796875 15.09375 -20.796875 
L 7.90625 -20.796875 
L 7.90625 -13.28125 
L 13.1875 -13.28125 
Q 16.890625 -13.28125 18.9375 -11.515625 
Q 21 -9.765625 23.484375 -3.21875 
L 25.09375 0.875 
L 2.984375 54.6875 
L 12.5 54.6875 
L 29.59375 11.921875 
L 46.6875 54.6875 
L 56.203125 54.6875 
z
" id="DejaVuSans-121"/>
    <path d="M 31 75.875 
Q 24.46875 64.65625 21.28125 53.65625 
Q 18.109375 42.671875 18.109375 31.390625 
Q 18.109375 20.125 21.3125 9.0625 
Q 24.515625 -2 31 -13.1875 
L 23.1875 -13.1875 
Q 15.875 -1.703125 12.234375 9.375 
Q 8.59375 20.453125 8.59375 31.390625 
Q 8.59375 42.28125 12.203125 53.3125 
Q 15.828125 64.359375 23.1875 75.875 
z
" id="DejaVuSans-40"/>
    <path d="M 9.8125 72.90625 
L 19.671875 72.90625 
L 19.671875 8.296875 
L 55.171875 8.296875 
L 55.171875 0 
L 9.8125 0 
z
" id="DejaVuSans-76"/>
    <path d="M 2.984375 54.6875 
L 12.5 54.6875 
L 29.59375 8.796875 
L 46.6875 54.6875 
L 56.203125 54.6875 
L 35.6875 0 
L 23.484375 0 
z
" id="DejaVuSans-118"/>
    <path d="M 9.421875 75.984375 
L 18.40625 75.984375 
L 18.40625 0 
L 9.421875 0 
z
" id="DejaVuSans-108"/>
    <path d="M 8.015625 75.875 
L 15.828125 75.875 
Q 23.140625 64.359375 26.78125 53.3125 
Q 30.421875 42.28125 30.421875 31.390625 
Q 30.421875 20.453125 26.78125 9.375 
Q 23.140625 -1.703125 15.828125 -13.1875 
L 8.015625 -13.1875 
Q 14.5 -2 17.703125 9.0625 
Q 20.90625 20.125 20.90625 31.390625 
Q 20.90625 42.671875 17.703125 53.65625 
Q 14.5 64.65625 8.015625 75.875 
z
" id="DejaVuSans-41"/>
   </defs>
   <g transform="translate(101.267813 16.030125)scale(0.12 -0.12)">
    <use xlink:href="#DejaVuSans-67"/>
    <use x="69.824219" xlink:href="#DejaVuSans-111"/>
    <use x="131.005859" xlink:href="#DejaVuSans-110"/>
    <use x="194.384766" xlink:href="#DejaVuSans-115"/>
    <use x="246.484375" xlink:href="#DejaVuSans-117"/>
    <use x="309.863281" xlink:href="#DejaVuSans-109"/>
    <use x="407.275391" xlink:href="#DejaVuSans-112"/>
    <use x="470.751953" xlink:href="#DejaVuSans-116"/>
    <use x="509.960938" xlink:href="#DejaVuSans-105"/>
    <use x="537.744141" xlink:href="#DejaVuSans-111"/>
    <use x="598.925781" xlink:href="#DejaVuSans-110"/>
    <use x="662.304688" xlink:href="#DejaVuSans-32"/>
    <use x="694.091797" xlink:href="#DejaVuSans-67"/>
    <use x="763.916016" xlink:href="#DejaVuSans-111"/>
    <use x="825.097656" xlink:href="#DejaVuSans-109"/>
    <use x="922.509766" xlink:href="#DejaVuSans-112"/>
    <use x="985.986328" xlink:href="#DejaVuSans-97"/>
    <use x="1047.265625" xlink:href="#DejaVuSans-114"/>
    <use x="1088.378906" xlink:href="#DejaVuSans-105"/>
    <use x="1116.162109" xlink:href="#DejaVuSans-115"/>
    <use x="1168.261719" xlink:href="#DejaVuSans-111"/>
    <use x="1229.443359" xlink:href="#DejaVuSans-110"/>
    <use x="1292.822266" xlink:href="#DejaVuSans-115"/>
    <use x="1344.921875" xlink:href="#DejaVuSans-32"/>
    <use x="1376.708984" xlink:href="#DejaVuSans-98"/>
    <use x="1440.185547" xlink:href="#DejaVuSans-121"/>
    <use x="1499.365234" xlink:href="#DejaVuSans-32"/>
    <use x="1531.152344" xlink:href="#DejaVuSans-65"/>
    <use x="1599.560547" xlink:href="#DejaVuSans-103"/>
    <use x="1663.037109" xlink:href="#DejaVuSans-101"/>
    <use x="1724.560547" xlink:href="#DejaVuSans-32"/>
    <use x="1756.347656" xlink:href="#DejaVuSans-40"/>
    <use x="1795.361328" xlink:href="#DejaVuSans-76"/>
    <use x="1851.058594" xlink:href="#DejaVuSans-101"/>
    <use x="1912.582031" xlink:href="#DejaVuSans-118"/>
    <use x="1971.761719" xlink:href="#DejaVuSans-101"/>
    <use x="2033.285156" xlink:href="#DejaVuSans-108"/>
    <use x="2061.068359" xlink:href="#DejaVuSans-115"/>
    <use x="2113.167969" xlink:href="#DejaVuSans-41"/>
   </g>
  </g>
  <g id="legend_1">
   <g id="patch_17">
    <path d="M 25.551563 340.6 
L 435.248438 340.6 
Q 437.248438 340.6 437.248438 338.6 
L 437.248438 324.921875 
Q 437.248438 322.921875 435.248438 322.921875 
L 25.551563 322.921875 
Q 23.551563 322.921875 23.551563 324.921875 
L 23.551563 338.6 
Q 23.551563 340.6 25.551563 340.6 
z
" style="fill:#ffffff;opacity:0.8;stroke:#cccccc;stroke-linejoin:miter;"/>
   </g>
   <g id="line2d_68">
    <path d="M 27.551563 331.020312 
L 47.551563 331.020312 
" style="fill:none;stroke:#1f77b4;stroke-linecap:square;stroke-width:1.5;"/>
   </g>
   <g id="line2d_69"/>
   <g id="text_40">
    <!-- PortfolioConsumerType -->
    <defs>
     <path d="M 19.671875 64.796875 
L 19.671875 37.40625 
L 32.078125 37.40625 
Q 38.96875 37.40625 42.71875 40.96875 
Q 46.484375 44.53125 46.484375 51.125 
Q 46.484375 57.671875 42.71875 61.234375 
Q 38.96875 64.796875 32.078125 64.796875 
z
M 9.8125 72.90625 
L 32.078125 72.90625 
Q 44.34375 72.90625 50.609375 67.359375 
Q 56.890625 61.8125 56.890625 51.125 
Q 56.890625 40.328125 50.609375 34.8125 
Q 44.34375 29.296875 32.078125 29.296875 
L 19.671875 29.296875 
L 19.671875 0 
L 9.8125 0 
z
" id="DejaVuSans-80"/>
     <path d="M 37.109375 75.984375 
L 37.109375 68.5 
L 28.515625 68.5 
Q 23.6875 68.5 21.796875 66.546875 
Q 19.921875 64.59375 19.921875 59.515625 
L 19.921875 54.6875 
L 34.71875 54.6875 
L 34.71875 47.703125 
L 19.921875 47.703125 
L 19.921875 0 
L 10.890625 0 
L 10.890625 47.703125 
L 2.296875 47.703125 
L 2.296875 54.6875 
L 10.890625 54.6875 
L 10.890625 58.5 
Q 10.890625 67.625 15.140625 71.796875 
Q 19.390625 75.984375 28.609375 75.984375 
z
" id="DejaVuSans-102"/>
     <path d="M -0.296875 72.90625 
L 61.375 72.90625 
L 61.375 64.59375 
L 35.5 64.59375 
L 35.5 0 
L 25.59375 0 
L 25.59375 64.59375 
L -0.296875 64.59375 
z
" id="DejaVuSans-84"/>
    </defs>
    <g transform="translate(55.551563 334.520312)scale(0.1 -0.1)">
     <use xlink:href="#DejaVuSans-80"/>
     <use x="60.255859" xlink:href="#DejaVuSans-111"/>
     <use x="121.4375" xlink:href="#DejaVuSans-114"/>
     <use x="162.550781" xlink:href="#DejaVuSans-116"/>
     <use x="201.759766" xlink:href="#DejaVuSans-102"/>
     <use x="236.964844" xlink:href="#DejaVuSans-111"/>
     <use x="298.146484" xlink:href="#DejaVuSans-108"/>
     <use x="325.929688" xlink:href="#DejaVuSans-105"/>
     <use x="353.712891" xlink:href="#DejaVuSans-111"/>
     <use x="414.894531" xlink:href="#DejaVuSans-67"/>
     <use x="484.71875" xlink:href="#DejaVuSans-111"/>
     <use x="545.900391" xlink:href="#DejaVuSans-110"/>
     <use x="609.279297" xlink:href="#DejaVuSans-115"/>
     <use x="661.378906" xlink:href="#DejaVuSans-117"/>
     <use x="724.757812" xlink:href="#DejaVuSans-109"/>
     <use x="822.169922" xlink:href="#DejaVuSans-101"/>
     <use x="883.693359" xlink:href="#DejaVuSans-114"/>
     <use x="924.806641" xlink:href="#DejaVuSans-84"/>
     <use x="985.65625" xlink:href="#DejaVuSans-121"/>
     <use x="1044.835938" xlink:href="#DejaVuSans-112"/>
     <use x="1108.3125" xlink:href="#DejaVuSans-101"/>
    </g>
   </g>
   <g id="line2d_70">
    <path d="M 192.535938 331.020312 
L 212.535938 331.020312 
" style="fill:none;stroke:#ff7f0e;stroke-linecap:square;stroke-width:1.5;"/>
   </g>
   <g id="line2d_71"/>
   <g id="text_41">
    <!-- PerfForesightConsumerType -->
    <defs>
     <path d="M 9.8125 72.90625 
L 51.703125 72.90625 
L 51.703125 64.59375 
L 19.671875 64.59375 
L 19.671875 43.109375 
L 48.578125 43.109375 
L 48.578125 34.8125 
L 19.671875 34.8125 
L 19.671875 0 
L 9.8125 0 
z
" id="DejaVuSans-70"/>
     <path d="M 54.890625 33.015625 
L 54.890625 0 
L 45.90625 0 
L 45.90625 32.71875 
Q 45.90625 40.484375 42.875 44.328125 
Q 39.84375 48.1875 33.796875 48.1875 
Q 26.515625 48.1875 22.3125 43.546875 
Q 18.109375 38.921875 18.109375 30.90625 
L 18.109375 0 
L 9.078125 0 
L 9.078125 75.984375 
L 18.109375 75.984375 
L 18.109375 46.1875 
Q 21.34375 51.125 25.703125 53.5625 
Q 30.078125 56 35.796875 56 
Q 45.21875 56 50.046875 50.171875 
Q 54.890625 44.34375 54.890625 33.015625 
z
" id="DejaVuSans-104"/>
    </defs>
    <g transform="translate(220.535938 334.520312)scale(0.1 -0.1)">
     <use xlink:href="#DejaVuSans-80"/>
     <use x="60.255859" xlink:href="#DejaVuSans-101"/>
     <use x="121.779297" xlink:href="#DejaVuSans-114"/>
     <use x="162.892578" xlink:href="#DejaVuSans-102"/>
     <use x="198.097656" xlink:href="#DejaVuSans-70"/>
     <use x="255.570312" xlink:href="#DejaVuSans-111"/>
     <use x="316.751953" xlink:href="#DejaVuSans-114"/>
     <use x="357.833984" xlink:href="#DejaVuSans-101"/>
     <use x="419.357422" xlink:href="#DejaVuSans-115"/>
     <use x="471.457031" xlink:href="#DejaVuSans-105"/>
     <use x="499.240234" xlink:href="#DejaVuSans-103"/>
     <use x="562.716797" xlink:href="#DejaVuSans-104"/>
     <use x="626.095703" xlink:href="#DejaVuSans-116"/>
     <use x="665.304688" xlink:href="#DejaVuSans-67"/>
     <use x="735.128906" xlink:href="#DejaVuSans-111"/>
     <use x="796.310547" xlink:href="#DejaVuSans-110"/>
     <use x="859.689453" xlink:href="#DejaVuSans-115"/>
     <use x="911.789062" xlink:href="#DejaVuSans-117"/>
     <use x="975.167969" xlink:href="#DejaVuSans-109"/>
     <use x="1072.580078" xlink:href="#DejaVuSans-101"/>
     <use x="1134.103516" xlink:href="#DejaVuSans-114"/>
     <use x="1175.216797" xlink:href="#DejaVuSans-84"/>
     <use x="1236.066406" xlink:href="#DejaVuSans-121"/>
     <use x="1295.246094" xlink:href="#DejaVuSans-112"/>
     <use x="1358.722656" xlink:href="#DejaVuSans-101"/>
    </g>
   </g>
   <g id="line2d_72">
    <path d="M 382.560938 331.020312 
L 402.560938 331.020312 
" style="fill:none;stroke:#2ca02c;stroke-linecap:square;stroke-width:1.5;"/>
   </g>
   <g id="line2d_73"/>
   <g id="text_42">
    <!-- True -->
    <g transform="translate(410.560938 334.520312)scale(0.1 -0.1)">
     <use xlink:href="#DejaVuSans-84"/>
     <use x="60.865234" xlink:href="#DejaVuSans-114"/>
     <use x="101.978516" xlink:href="#DejaVuSans-117"/>
     <use x="165.357422" xlink:href="#DejaVuSans-101"/>
    </g>
   </g>
  </g>
 </g>
 <defs>
  <clipPath id="pc5f4dccffd">
   <rect height="240.44" width="103.663583" x="33.73" y="42.72"/>
  </clipPath>
  <clipPath id="p039610bcbe">
   <rect height="240.44" width="103.663583" x="189.225374" y="42.72"/>
  </clipPath>
  <clipPath id="p98e3526b12">
   <rect height="240.44" width="103.663583" x="344.720749" y="42.72"/>
  </clipPath>
 </defs>
</svg>
