<?xml version="1.0" encoding="utf-8" standalone="no"?>
<!DOCTYPE svg PUBLIC "-//W3C//DTD SVG 1.1//EN"
  "http://www.w3.org/Graphics/SVG/1.1/DTD/svg11.dtd">
<!-- Created with matplotlib (https://matplotlib.org/) -->
<svg height="345.6pt" version="1.1" viewBox="0 0 460.8 345.6" width="460.8pt" xmlns="http://www.w3.org/2000/svg" xmlns:xlink="http://www.w3.org/1999/xlink">
 <defs>
  <style type="text/css">
*{stroke-linecap:butt;stroke-linejoin:round;}
  </style>
 </defs>
 <g id="figure_1">
  <g id="patch_1">
   <path d="M 0 345.6 
L 460.8 345.6 
L 460.8 0 
L 0 0 
z
" style="fill:#ffffff;"/>
  </g>
  <g id="axes_1">
   <g id="patch_2">
    <path d="M 57.6 307.584 
L 414.72 307.584 
L 414.72 41.472 
L 57.6 41.472 
z
" style="fill:#ffffff;"/>
   </g>
   <g id="matplotlib.axis_1">
    <g id="xtick_1">
     <g id="line2d_1">
      <path clip-path="url(#p6ad0067e29)" d="M 68.76 307.584 
L 68.76 41.472 
" style="fill:none;stroke:#b0b0b0;stroke-linecap:square;stroke-width:0.8;"/>
     </g>
     <g id="line2d_2">
      <defs>
       <path d="M 0 0 
L 0 3.5 
" id="m94279f0b3b" style="stroke:#000000;stroke-width:0.8;"/>
      </defs>
      <g>
       <use style="stroke:#000000;stroke-width:0.8;" x="68.76" xlink:href="#m94279f0b3b" y="307.584"/>
      </g>
     </g>
     <g id="text_1">
      <!-- 20 -->
      <defs>
       <path d="M 19.1875 8.296875 
L 53.609375 8.296875 
L 53.609375 0 
L 7.328125 0 
L 7.328125 8.296875 
Q 12.9375 14.109375 22.625 23.890625 
Q 32.328125 33.6875 34.8125 36.53125 
Q 39.546875 41.84375 41.421875 45.53125 
Q 43.3125 49.21875 43.3125 52.78125 
Q 43.3125 58.59375 39.234375 62.25 
Q 35.15625 65.921875 28.609375 65.921875 
Q 23.96875 65.921875 18.8125 64.3125 
Q 13.671875 62.703125 7.8125 59.421875 
L 7.8125 69.390625 
Q 13.765625 71.78125 18.9375 73 
Q 24.125 74.21875 28.421875 74.21875 
Q 39.75 74.21875 46.484375 68.546875 
Q 53.21875 62.890625 53.21875 53.421875 
Q 53.21875 48.921875 51.53125 44.890625 
Q 49.859375 40.875 45.40625 35.40625 
Q 44.1875 33.984375 37.640625 27.21875 
Q 31.109375 20.453125 19.1875 8.296875 
z
" id="DejaVuSans-50"/>
       <path d="M 31.78125 66.40625 
Q 24.171875 66.40625 20.328125 58.90625 
Q 16.5 51.421875 16.5 36.375 
Q 16.5 21.390625 20.328125 13.890625 
Q 24.171875 6.390625 31.78125 6.390625 
Q 39.453125 6.390625 43.28125 13.890625 
Q 47.125 21.390625 47.125 36.375 
Q 47.125 51.421875 43.28125 58.90625 
Q 39.453125 66.40625 31.78125 66.40625 
z
M 31.78125 74.21875 
Q 44.046875 74.21875 50.515625 64.515625 
Q 56.984375 54.828125 56.984375 36.375 
Q 56.984375 17.96875 50.515625 8.265625 
Q 44.046875 -1.421875 31.78125 -1.421875 
Q 19.53125 -1.421875 13.0625 8.265625 
Q 6.59375 17.96875 6.59375 36.375 
Q 6.59375 54.828125 13.0625 64.515625 
Q 19.53125 74.21875 31.78125 74.21875 
z
" id="DejaVuSans-48"/>
      </defs>
      <g transform="translate(62.3975 322.182437)scale(0.1 -0.1)">
       <use xlink:href="#DejaVuSans-50"/>
       <use x="63.623047" xlink:href="#DejaVuSans-48"/>
      </g>
     </g>
    </g>
    <g id="xtick_2">
     <g id="line2d_3">
      <path clip-path="url(#p6ad0067e29)" d="M 119.487273 307.584 
L 119.487273 41.472 
" style="fill:none;stroke:#b0b0b0;stroke-linecap:square;stroke-width:0.8;"/>
     </g>
     <g id="line2d_4">
      <g>
       <use style="stroke:#000000;stroke-width:0.8;" x="119.487273" xlink:href="#m94279f0b3b" y="307.584"/>
      </g>
     </g>
     <g id="text_2">
      <!-- 30 -->
      <defs>
       <path d="M 40.578125 39.3125 
Q 47.65625 37.796875 51.625 33 
Q 55.609375 28.21875 55.609375 21.1875 
Q 55.609375 10.40625 48.1875 4.484375 
Q 40.765625 -1.421875 27.09375 -1.421875 
Q 22.515625 -1.421875 17.65625 -0.515625 
Q 12.796875 0.390625 7.625 2.203125 
L 7.625 11.71875 
Q 11.71875 9.328125 16.59375 8.109375 
Q 21.484375 6.890625 26.8125 6.890625 
Q 36.078125 6.890625 40.9375 10.546875 
Q 45.796875 14.203125 45.796875 21.1875 
Q 45.796875 27.640625 41.28125 31.265625 
Q 36.765625 34.90625 28.71875 34.90625 
L 20.21875 34.90625 
L 20.21875 43.015625 
L 29.109375 43.015625 
Q 36.375 43.015625 40.234375 45.921875 
Q 44.09375 48.828125 44.09375 54.296875 
Q 44.09375 59.90625 40.109375 62.90625 
Q 36.140625 65.921875 28.71875 65.921875 
Q 24.65625 65.921875 20.015625 65.03125 
Q 15.375 64.15625 9.8125 62.3125 
L 9.8125 71.09375 
Q 15.4375 72.65625 20.34375 73.4375 
Q 25.25 74.21875 29.59375 74.21875 
Q 40.828125 74.21875 47.359375 69.109375 
Q 53.90625 64.015625 53.90625 55.328125 
Q 53.90625 49.265625 50.4375 45.09375 
Q 46.96875 40.921875 40.578125 39.3125 
z
" id="DejaVuSans-51"/>
      </defs>
      <g transform="translate(113.124773 322.182437)scale(0.1 -0.1)">
       <use xlink:href="#DejaVuSans-51"/>
       <use x="63.623047" xlink:href="#DejaVuSans-48"/>
      </g>
     </g>
    </g>
    <g id="xtick_3">
     <g id="line2d_5">
      <path clip-path="url(#p6ad0067e29)" d="M 170.214545 307.584 
L 170.214545 41.472 
" style="fill:none;stroke:#b0b0b0;stroke-linecap:square;stroke-width:0.8;"/>
     </g>
     <g id="line2d_6">
      <g>
       <use style="stroke:#000000;stroke-width:0.8;" x="170.214545" xlink:href="#m94279f0b3b" y="307.584"/>
      </g>
     </g>
     <g id="text_3">
      <!-- 40 -->
      <defs>
       <path d="M 37.796875 64.3125 
L 12.890625 25.390625 
L 37.796875 25.390625 
z
M 35.203125 72.90625 
L 47.609375 72.90625 
L 47.609375 25.390625 
L 58.015625 25.390625 
L 58.015625 17.1875 
L 47.609375 17.1875 
L 47.609375 0 
L 37.796875 0 
L 37.796875 17.1875 
L 4.890625 17.1875 
L 4.890625 26.703125 
z
" id="DejaVuSans-52"/>
      </defs>
      <g transform="translate(163.852045 322.182437)scale(0.1 -0.1)">
       <use xlink:href="#DejaVuSans-52"/>
       <use x="63.623047" xlink:href="#DejaVuSans-48"/>
      </g>
     </g>
    </g>
    <g id="xtick_4">
     <g id="line2d_7">
      <path clip-path="url(#p6ad0067e29)" d="M 220.941818 307.584 
L 220.941818 41.472 
" style="fill:none;stroke:#b0b0b0;stroke-linecap:square;stroke-width:0.8;"/>
     </g>
     <g id="line2d_8">
      <g>
       <use style="stroke:#000000;stroke-width:0.8;" x="220.941818" xlink:href="#m94279f0b3b" y="307.584"/>
      </g>
     </g>
     <g id="text_4">
      <!-- 50 -->
      <defs>
       <path d="M 10.796875 72.90625 
L 49.515625 72.90625 
L 49.515625 64.59375 
L 19.828125 64.59375 
L 19.828125 46.734375 
Q 21.96875 47.46875 24.109375 47.828125 
Q 26.265625 48.1875 28.421875 48.1875 
Q 40.625 48.1875 47.75 41.5 
Q 54.890625 34.8125 54.890625 23.390625 
Q 54.890625 11.625 47.5625 5.09375 
Q 40.234375 -1.421875 26.90625 -1.421875 
Q 22.3125 -1.421875 17.546875 -0.640625 
Q 12.796875 0.140625 7.71875 1.703125 
L 7.71875 11.625 
Q 12.109375 9.234375 16.796875 8.0625 
Q 21.484375 6.890625 26.703125 6.890625 
Q 35.15625 6.890625 40.078125 11.328125 
Q 45.015625 15.765625 45.015625 23.390625 
Q 45.015625 31 40.078125 35.4375 
Q 35.15625 39.890625 26.703125 39.890625 
Q 22.75 39.890625 18.8125 39.015625 
Q 14.890625 38.140625 10.796875 36.28125 
z
" id="DejaVuSans-53"/>
      </defs>
      <g transform="translate(214.579318 322.182437)scale(0.1 -0.1)">
       <use xlink:href="#DejaVuSans-53"/>
       <use x="63.623047" xlink:href="#DejaVuSans-48"/>
      </g>
     </g>
    </g>
    <g id="xtick_5">
     <g id="line2d_9">
      <path clip-path="url(#p6ad0067e29)" d="M 271.669091 307.584 
L 271.669091 41.472 
" style="fill:none;stroke:#b0b0b0;stroke-linecap:square;stroke-width:0.8;"/>
     </g>
     <g id="line2d_10">
      <g>
       <use style="stroke:#000000;stroke-width:0.8;" x="271.669091" xlink:href="#m94279f0b3b" y="307.584"/>
      </g>
     </g>
     <g id="text_5">
      <!-- 60 -->
      <defs>
       <path d="M 33.015625 40.375 
Q 26.375 40.375 22.484375 35.828125 
Q 18.609375 31.296875 18.609375 23.390625 
Q 18.609375 15.53125 22.484375 10.953125 
Q 26.375 6.390625 33.015625 6.390625 
Q 39.65625 6.390625 43.53125 10.953125 
Q 47.40625 15.53125 47.40625 23.390625 
Q 47.40625 31.296875 43.53125 35.828125 
Q 39.65625 40.375 33.015625 40.375 
z
M 52.59375 71.296875 
L 52.59375 62.3125 
Q 48.875 64.0625 45.09375 64.984375 
Q 41.3125 65.921875 37.59375 65.921875 
Q 27.828125 65.921875 22.671875 59.328125 
Q 17.53125 52.734375 16.796875 39.40625 
Q 19.671875 43.65625 24.015625 45.921875 
Q 28.375 48.1875 33.59375 48.1875 
Q 44.578125 48.1875 50.953125 41.515625 
Q 57.328125 34.859375 57.328125 23.390625 
Q 57.328125 12.15625 50.6875 5.359375 
Q 44.046875 -1.421875 33.015625 -1.421875 
Q 20.359375 -1.421875 13.671875 8.265625 
Q 6.984375 17.96875 6.984375 36.375 
Q 6.984375 53.65625 15.1875 63.9375 
Q 23.390625 74.21875 37.203125 74.21875 
Q 40.921875 74.21875 44.703125 73.484375 
Q 48.484375 72.75 52.59375 71.296875 
z
" id="DejaVuSans-54"/>
      </defs>
      <g transform="translate(265.306591 322.182437)scale(0.1 -0.1)">
       <use xlink:href="#DejaVuSans-54"/>
       <use x="63.623047" xlink:href="#DejaVuSans-48"/>
      </g>
     </g>
    </g>
    <g id="xtick_6">
     <g id="line2d_11">
      <path clip-path="url(#p6ad0067e29)" d="M 322.396364 307.584 
L 322.396364 41.472 
" style="fill:none;stroke:#b0b0b0;stroke-linecap:square;stroke-width:0.8;"/>
     </g>
     <g id="line2d_12">
      <g>
       <use style="stroke:#000000;stroke-width:0.8;" x="322.396364" xlink:href="#m94279f0b3b" y="307.584"/>
      </g>
     </g>
     <g id="text_6">
      <!-- 70 -->
      <defs>
       <path d="M 8.203125 72.90625 
L 55.078125 72.90625 
L 55.078125 68.703125 
L 28.609375 0 
L 18.3125 0 
L 43.21875 64.59375 
L 8.203125 64.59375 
z
" id="DejaVuSans-55"/>
      </defs>
      <g transform="translate(316.033864 322.182437)scale(0.1 -0.1)">
       <use xlink:href="#DejaVuSans-55"/>
       <use x="63.623047" xlink:href="#DejaVuSans-48"/>
      </g>
     </g>
    </g>
    <g id="xtick_7">
     <g id="line2d_13">
      <path clip-path="url(#p6ad0067e29)" d="M 373.123636 307.584 
L 373.123636 41.472 
" style="fill:none;stroke:#b0b0b0;stroke-linecap:square;stroke-width:0.8;"/>
     </g>
     <g id="line2d_14">
      <g>
       <use style="stroke:#000000;stroke-width:0.8;" x="373.123636" xlink:href="#m94279f0b3b" y="307.584"/>
      </g>
     </g>
     <g id="text_7">
      <!-- 80 -->
      <defs>
       <path d="M 31.78125 34.625 
Q 24.75 34.625 20.71875 30.859375 
Q 16.703125 27.09375 16.703125 20.515625 
Q 16.703125 13.921875 20.71875 10.15625 
Q 24.75 6.390625 31.78125 6.390625 
Q 38.8125 6.390625 42.859375 10.171875 
Q 46.921875 13.96875 46.921875 20.515625 
Q 46.921875 27.09375 42.890625 30.859375 
Q 38.875 34.625 31.78125 34.625 
z
M 21.921875 38.8125 
Q 15.578125 40.375 12.03125 44.71875 
Q 8.5 49.078125 8.5 55.328125 
Q 8.5 64.0625 14.71875 69.140625 
Q 20.953125 74.21875 31.78125 74.21875 
Q 42.671875 74.21875 48.875 69.140625 
Q 55.078125 64.0625 55.078125 55.328125 
Q 55.078125 49.078125 51.53125 44.71875 
Q 48 40.375 41.703125 38.8125 
Q 48.828125 37.15625 52.796875 32.3125 
Q 56.78125 27.484375 56.78125 20.515625 
Q 56.78125 9.90625 50.3125 4.234375 
Q 43.84375 -1.421875 31.78125 -1.421875 
Q 19.734375 -1.421875 13.25 4.234375 
Q 6.78125 9.90625 6.78125 20.515625 
Q 6.78125 27.484375 10.78125 32.3125 
Q 14.796875 37.15625 21.921875 38.8125 
z
M 18.3125 54.390625 
Q 18.3125 48.734375 21.84375 45.5625 
Q 25.390625 42.390625 31.78125 42.390625 
Q 38.140625 42.390625 41.71875 45.5625 
Q 45.3125 48.734375 45.3125 54.390625 
Q 45.3125 60.0625 41.71875 63.234375 
Q 38.140625 66.40625 31.78125 66.40625 
Q 25.390625 66.40625 21.84375 63.234375 
Q 18.3125 60.0625 18.3125 54.390625 
z
" id="DejaVuSans-56"/>
      </defs>
      <g transform="translate(366.761136 322.182437)scale(0.1 -0.1)">
       <use xlink:href="#DejaVuSans-56"/>
       <use x="63.623047" xlink:href="#DejaVuSans-48"/>
      </g>
     </g>
    </g>
    <g id="text_8">
     <!-- Age -->
     <defs>
      <path d="M 34.1875 63.1875 
L 20.796875 26.90625 
L 47.609375 26.90625 
z
M 28.609375 72.90625 
L 39.796875 72.90625 
L 67.578125 0 
L 57.328125 0 
L 50.6875 18.703125 
L 17.828125 18.703125 
L 11.1875 0 
L 0.78125 0 
z
" id="DejaVuSans-65"/>
      <path d="M 45.40625 27.984375 
Q 45.40625 37.75 41.375 43.109375 
Q 37.359375 48.484375 30.078125 48.484375 
Q 22.859375 48.484375 18.828125 43.109375 
Q 14.796875 37.75 14.796875 27.984375 
Q 14.796875 18.265625 18.828125 12.890625 
Q 22.859375 7.515625 30.078125 7.515625 
Q 37.359375 7.515625 41.375 12.890625 
Q 45.40625 18.265625 45.40625 27.984375 
z
M 54.390625 6.78125 
Q 54.390625 -7.171875 48.1875 -13.984375 
Q 42 -20.796875 29.203125 -20.796875 
Q 24.46875 -20.796875 20.265625 -20.09375 
Q 16.0625 -19.390625 12.109375 -17.921875 
L 12.109375 -9.1875 
Q 16.0625 -11.328125 19.921875 -12.34375 
Q 23.78125 -13.375 27.78125 -13.375 
Q 36.625 -13.375 41.015625 -8.765625 
Q 45.40625 -4.15625 45.40625 5.171875 
L 45.40625 9.625 
Q 42.625 4.78125 38.28125 2.390625 
Q 33.9375 0 27.875 0 
Q 17.828125 0 11.671875 7.65625 
Q 5.515625 15.328125 5.515625 27.984375 
Q 5.515625 40.671875 11.671875 48.328125 
Q 17.828125 56 27.875 56 
Q 33.9375 56 38.28125 53.609375 
Q 42.625 51.21875 45.40625 46.390625 
L 45.40625 54.6875 
L 54.390625 54.6875 
z
" id="DejaVuSans-103"/>
      <path d="M 56.203125 29.59375 
L 56.203125 25.203125 
L 14.890625 25.203125 
Q 15.484375 15.921875 20.484375 11.0625 
Q 25.484375 6.203125 34.421875 6.203125 
Q 39.59375 6.203125 44.453125 7.46875 
Q 49.3125 8.734375 54.109375 11.28125 
L 54.109375 2.78125 
Q 49.265625 0.734375 44.1875 -0.34375 
Q 39.109375 -1.421875 33.890625 -1.421875 
Q 20.796875 -1.421875 13.15625 6.1875 
Q 5.515625 13.8125 5.515625 26.8125 
Q 5.515625 40.234375 12.765625 48.109375 
Q 20.015625 56 32.328125 56 
Q 43.359375 56 49.78125 48.890625 
Q 56.203125 41.796875 56.203125 29.59375 
z
M 47.21875 32.234375 
Q 47.125 39.59375 43.09375 43.984375 
Q 39.0625 48.390625 32.421875 48.390625 
Q 24.90625 48.390625 20.390625 44.140625 
Q 15.875 39.890625 15.1875 32.171875 
z
" id="DejaVuSans-101"/>
     </defs>
     <g transform="translate(226.488906 335.860562)scale(0.1 -0.1)">
      <use xlink:href="#DejaVuSans-65"/>
      <use x="68.408203" xlink:href="#DejaVuSans-103"/>
      <use x="131.884766" xlink:href="#DejaVuSans-101"/>
     </g>
    </g>
   </g>
   <g id="matplotlib.axis_2">
    <g id="ytick_1">
     <g id="line2d_15">
      <path clip-path="url(#p6ad0067e29)" d="M 57.6 259.881198 
L 414.72 259.881198 
" style="fill:none;stroke:#b0b0b0;stroke-linecap:square;stroke-width:0.8;"/>
     </g>
     <g id="line2d_16">
      <defs>
       <path d="M 0 0 
L -3.5 0 
" id="m3fb74e73c9" style="stroke:#000000;stroke-width:0.8;"/>
      </defs>
      <g>
       <use style="stroke:#000000;stroke-width:0.8;" x="57.6" xlink:href="#m3fb74e73c9" y="259.881198"/>
      </g>
     </g>
     <g id="text_9">
      <!-- 0.2 -->
      <defs>
       <path d="M 10.6875 12.40625 
L 21 12.40625 
L 21 0 
L 10.6875 0 
z
" id="DejaVuSans-46"/>
      </defs>
      <g transform="translate(34.696875 263.680417)scale(0.1 -0.1)">
       <use xlink:href="#DejaVuSans-48"/>
       <use x="63.623047" xlink:href="#DejaVuSans-46"/>
       <use x="95.410156" xlink:href="#DejaVuSans-50"/>
      </g>
     </g>
    </g>
    <g id="ytick_2">
     <g id="line2d_17">
      <path clip-path="url(#p6ad0067e29)" d="M 57.6 208.302898 
L 414.72 208.302898 
" style="fill:none;stroke:#b0b0b0;stroke-linecap:square;stroke-width:0.8;"/>
     </g>
     <g id="line2d_18">
      <g>
       <use style="stroke:#000000;stroke-width:0.8;" x="57.6" xlink:href="#m3fb74e73c9" y="208.302898"/>
      </g>
     </g>
     <g id="text_10">
      <!-- 0.4 -->
      <g transform="translate(34.696875 212.102117)scale(0.1 -0.1)">
       <use xlink:href="#DejaVuSans-48"/>
       <use x="63.623047" xlink:href="#DejaVuSans-46"/>
       <use x="95.410156" xlink:href="#DejaVuSans-52"/>
      </g>
     </g>
    </g>
    <g id="ytick_3">
     <g id="line2d_19">
      <path clip-path="url(#p6ad0067e29)" d="M 57.6 156.724599 
L 414.72 156.724599 
" style="fill:none;stroke:#b0b0b0;stroke-linecap:square;stroke-width:0.8;"/>
     </g>
     <g id="line2d_20">
      <g>
       <use style="stroke:#000000;stroke-width:0.8;" x="57.6" xlink:href="#m3fb74e73c9" y="156.724599"/>
      </g>
     </g>
     <g id="text_11">
      <!-- 0.6 -->
      <g transform="translate(34.696875 160.523818)scale(0.1 -0.1)">
       <use xlink:href="#DejaVuSans-48"/>
       <use x="63.623047" xlink:href="#DejaVuSans-46"/>
       <use x="95.410156" xlink:href="#DejaVuSans-54"/>
      </g>
     </g>
    </g>
    <g id="ytick_4">
     <g id="line2d_21">
      <path clip-path="url(#p6ad0067e29)" d="M 57.6 105.146299 
L 414.72 105.146299 
" style="fill:none;stroke:#b0b0b0;stroke-linecap:square;stroke-width:0.8;"/>
     </g>
     <g id="line2d_22">
      <g>
       <use style="stroke:#000000;stroke-width:0.8;" x="57.6" xlink:href="#m3fb74e73c9" y="105.146299"/>
      </g>
     </g>
     <g id="text_12">
      <!-- 0.8 -->
      <g transform="translate(34.696875 108.945518)scale(0.1 -0.1)">
       <use xlink:href="#DejaVuSans-48"/>
       <use x="63.623047" xlink:href="#DejaVuSans-46"/>
       <use x="95.410156" xlink:href="#DejaVuSans-56"/>
      </g>
     </g>
    </g>
    <g id="ytick_5">
     <g id="line2d_23">
      <path clip-path="url(#p6ad0067e29)" d="M 57.6 53.568 
L 414.72 53.568 
" style="fill:none;stroke:#b0b0b0;stroke-linecap:square;stroke-width:0.8;"/>
     </g>
     <g id="line2d_24">
      <g>
       <use style="stroke:#000000;stroke-width:0.8;" x="57.6" xlink:href="#m3fb74e73c9" y="53.568"/>
      </g>
     </g>
     <g id="text_13">
      <!-- 1.0 -->
      <defs>
       <path d="M 12.40625 8.296875 
L 28.515625 8.296875 
L 28.515625 63.921875 
L 10.984375 60.40625 
L 10.984375 69.390625 
L 28.421875 72.90625 
L 38.28125 72.90625 
L 38.28125 8.296875 
L 54.390625 8.296875 
L 54.390625 0 
L 12.40625 0 
z
" id="DejaVuSans-49"/>
      </defs>
      <g transform="translate(34.696875 57.367219)scale(0.1 -0.1)">
       <use xlink:href="#DejaVuSans-49"/>
       <use x="63.623047" xlink:href="#DejaVuSans-46"/>
       <use x="95.410156" xlink:href="#DejaVuSans-48"/>
      </g>
     </g>
    </g>
    <g id="text_14">
     <!-- Risky share -->
     <defs>
      <path d="M 44.390625 34.1875 
Q 47.5625 33.109375 50.5625 29.59375 
Q 53.5625 26.078125 56.59375 19.921875 
L 66.609375 0 
L 56 0 
L 46.6875 18.703125 
Q 43.0625 26.03125 39.671875 28.421875 
Q 36.28125 30.8125 30.421875 30.8125 
L 19.671875 30.8125 
L 19.671875 0 
L 9.8125 0 
L 9.8125 72.90625 
L 32.078125 72.90625 
Q 44.578125 72.90625 50.734375 67.671875 
Q 56.890625 62.453125 56.890625 51.90625 
Q 56.890625 45.015625 53.6875 40.46875 
Q 50.484375 35.9375 44.390625 34.1875 
z
M 19.671875 64.796875 
L 19.671875 38.921875 
L 32.078125 38.921875 
Q 39.203125 38.921875 42.84375 42.21875 
Q 46.484375 45.515625 46.484375 51.90625 
Q 46.484375 58.296875 42.84375 61.546875 
Q 39.203125 64.796875 32.078125 64.796875 
z
" id="DejaVuSans-82"/>
      <path d="M 9.421875 54.6875 
L 18.40625 54.6875 
L 18.40625 0 
L 9.421875 0 
z
M 9.421875 75.984375 
L 18.40625 75.984375 
L 18.40625 64.59375 
L 9.421875 64.59375 
z
" id="DejaVuSans-105"/>
      <path d="M 44.28125 53.078125 
L 44.28125 44.578125 
Q 40.484375 46.53125 36.375 47.5 
Q 32.28125 48.484375 27.875 48.484375 
Q 21.1875 48.484375 17.84375 46.4375 
Q 14.5 44.390625 14.5 40.28125 
Q 14.5 37.15625 16.890625 35.375 
Q 19.28125 33.59375 26.515625 31.984375 
L 29.59375 31.296875 
Q 39.15625 29.25 43.1875 25.515625 
Q 47.21875 21.78125 47.21875 15.09375 
Q 47.21875 7.46875 41.1875 3.015625 
Q 35.15625 -1.421875 24.609375 -1.421875 
Q 20.21875 -1.421875 15.453125 -0.5625 
Q 10.6875 0.296875 5.421875 2 
L 5.421875 11.28125 
Q 10.40625 8.6875 15.234375 7.390625 
Q 20.0625 6.109375 24.8125 6.109375 
Q 31.15625 6.109375 34.5625 8.28125 
Q 37.984375 10.453125 37.984375 14.40625 
Q 37.984375 18.0625 35.515625 20.015625 
Q 33.0625 21.96875 24.703125 23.78125 
L 21.578125 24.515625 
Q 13.234375 26.265625 9.515625 29.90625 
Q 5.8125 33.546875 5.8125 39.890625 
Q 5.8125 47.609375 11.28125 51.796875 
Q 16.75 56 26.8125 56 
Q 31.78125 56 36.171875 55.265625 
Q 40.578125 54.546875 44.28125 53.078125 
z
" id="DejaVuSans-115"/>
      <path d="M 9.078125 75.984375 
L 18.109375 75.984375 
L 18.109375 31.109375 
L 44.921875 54.6875 
L 56.390625 54.6875 
L 27.390625 29.109375 
L 57.625 0 
L 45.90625 0 
L 18.109375 26.703125 
L 18.109375 0 
L 9.078125 0 
z
" id="DejaVuSans-107"/>
      <path d="M 32.171875 -5.078125 
Q 28.375 -14.84375 24.75 -17.8125 
Q 21.140625 -20.796875 15.09375 -20.796875 
L 7.90625 -20.796875 
L 7.90625 -13.28125 
L 13.1875 -13.28125 
Q 16.890625 -13.28125 18.9375 -11.515625 
Q 21 -9.765625 23.484375 -3.21875 
L 25.09375 0.875 
L 2.984375 54.6875 
L 12.5 54.6875 
L 29.59375 11.921875 
L 46.6875 54.6875 
L 56.203125 54.6875 
z
" id="DejaVuSans-121"/>
      <path id="DejaVuSans-32"/>
      <path d="M 54.890625 33.015625 
L 54.890625 0 
L 45.90625 0 
L 45.90625 32.71875 
Q 45.90625 40.484375 42.875 44.328125 
Q 39.84375 48.1875 33.796875 48.1875 
Q 26.515625 48.1875 22.3125 43.546875 
Q 18.109375 38.921875 18.109375 30.90625 
L 18.109375 0 
L 9.078125 0 
L 9.078125 75.984375 
L 18.109375 75.984375 
L 18.109375 46.1875 
Q 21.34375 51.125 25.703125 53.5625 
Q 30.078125 56 35.796875 56 
Q 45.21875 56 50.046875 50.171875 
Q 54.890625 44.34375 54.890625 33.015625 
z
" id="DejaVuSans-104"/>
      <path d="M 34.28125 27.484375 
Q 23.390625 27.484375 19.1875 25 
Q 14.984375 22.515625 14.984375 16.5 
Q 14.984375 11.71875 18.140625 8.90625 
Q 21.296875 6.109375 26.703125 6.109375 
Q 34.1875 6.109375 38.703125 11.40625 
Q 43.21875 16.703125 43.21875 25.484375 
L 43.21875 27.484375 
z
M 52.203125 31.203125 
L 52.203125 0 
L 43.21875 0 
L 43.21875 8.296875 
Q 40.140625 3.328125 35.546875 0.953125 
Q 30.953125 -1.421875 24.3125 -1.421875 
Q 15.921875 -1.421875 10.953125 3.296875 
Q 6 8.015625 6 15.921875 
Q 6 25.140625 12.171875 29.828125 
Q 18.359375 34.515625 30.609375 34.515625 
L 43.21875 34.515625 
L 43.21875 35.40625 
Q 43.21875 41.609375 39.140625 45 
Q 35.0625 48.390625 27.6875 48.390625 
Q 23 48.390625 18.546875 47.265625 
Q 14.109375 46.140625 10.015625 43.890625 
L 10.015625 52.203125 
Q 14.9375 54.109375 19.578125 55.046875 
Q 24.21875 56 28.609375 56 
Q 40.484375 56 46.34375 49.84375 
Q 52.203125 43.703125 52.203125 31.203125 
z
" id="DejaVuSans-97"/>
      <path d="M 41.109375 46.296875 
Q 39.59375 47.171875 37.8125 47.578125 
Q 36.03125 48 33.890625 48 
Q 26.265625 48 22.1875 43.046875 
Q 18.109375 38.09375 18.109375 28.8125 
L 18.109375 0 
L 9.078125 0 
L 9.078125 54.6875 
L 18.109375 54.6875 
L 18.109375 46.1875 
Q 20.953125 51.171875 25.484375 53.578125 
Q 30.03125 56 36.53125 56 
Q 37.453125 56 38.578125 55.875 
Q 39.703125 55.765625 41.0625 55.515625 
z
" id="DejaVuSans-114"/>
     </defs>
     <g transform="translate(28.617187 203.405344)rotate(-90)scale(0.1 -0.1)">
      <use xlink:href="#DejaVuSans-82"/>
      <use x="69.482422" xlink:href="#DejaVuSans-105"/>
      <use x="97.265625" xlink:href="#DejaVuSans-115"/>
      <use x="149.365234" xlink:href="#DejaVuSans-107"/>
      <use x="207.228516" xlink:href="#DejaVuSans-121"/>
      <use x="266.408203" xlink:href="#DejaVuSans-32"/>
      <use x="298.195312" xlink:href="#DejaVuSans-115"/>
      <use x="350.294922" xlink:href="#DejaVuSans-104"/>
      <use x="413.673828" xlink:href="#DejaVuSans-97"/>
      <use x="474.953125" xlink:href="#DejaVuSans-114"/>
      <use x="516.035156" xlink:href="#DejaVuSans-101"/>
     </g>
    </g>
   </g>
   <g id="line2d_25">
    <defs>
     <path d="M 0 1.5 
C 0.397805 1.5 0.77937 1.341951 1.06066 1.06066 
C 1.341951 0.77937 1.5 0.397805 1.5 0 
C 1.5 -0.397805 1.341951 -0.77937 1.06066 -1.06066 
C 0.77937 -1.341951 0.397805 -1.5 0 -1.5 
C -0.397805 -1.5 -0.77937 -1.341951 -1.06066 -1.06066 
C -1.341951 -0.77937 -1.5 -0.397805 -1.5 0 
C -1.5 0.397805 -1.341951 0.77937 -1.06066 1.06066 
C -0.77937 1.341951 -0.397805 1.5 0 1.5 
z
" id="m5b7a33c1af" style="stroke:#1f77b4;"/>
    </defs>
    <g clip-path="url(#p6ad0067e29)">
     <use style="fill:#1f77b4;stroke:#1f77b4;" x="73.832727" xlink:href="#m5b7a33c1af" y="53.568"/>
     <use style="fill:#1f77b4;stroke:#1f77b4;" x="78.905455" xlink:href="#m5b7a33c1af" y="53.568"/>
     <use style="fill:#1f77b4;stroke:#1f77b4;" x="83.978182" xlink:href="#m5b7a33c1af" y="134.108742"/>
     <use style="fill:#1f77b4;stroke:#1f77b4;" x="89.050909" xlink:href="#m5b7a33c1af" y="174.959562"/>
     <use style="fill:#1f77b4;stroke:#1f77b4;" x="94.123636" xlink:href="#m5b7a33c1af" y="157.245825"/>
     <use style="fill:#1f77b4;stroke:#1f77b4;" x="99.196364" xlink:href="#m5b7a33c1af" y="201.544864"/>
     <use style="fill:#1f77b4;stroke:#1f77b4;" x="104.269091" xlink:href="#m5b7a33c1af" y="205.795106"/>
     <use style="fill:#1f77b4;stroke:#1f77b4;" x="109.341818" xlink:href="#m5b7a33c1af" y="222.198491"/>
     <use style="fill:#1f77b4;stroke:#1f77b4;" x="114.414545" xlink:href="#m5b7a33c1af" y="241.697948"/>
     <use style="fill:#1f77b4;stroke:#1f77b4;" x="119.487273" xlink:href="#m5b7a33c1af" y="249.925318"/>
     <use style="fill:#1f77b4;stroke:#1f77b4;" x="124.56" xlink:href="#m5b7a33c1af" y="254.470707"/>
     <use style="fill:#1f77b4;stroke:#1f77b4;" x="129.632727" xlink:href="#m5b7a33c1af" y="257.373957"/>
     <use style="fill:#1f77b4;stroke:#1f77b4;" x="134.705455" xlink:href="#m5b7a33c1af" y="260.455449"/>
     <use style="fill:#1f77b4;stroke:#1f77b4;" x="139.778182" xlink:href="#m5b7a33c1af" y="259.264633"/>
     <use style="fill:#1f77b4;stroke:#1f77b4;" x="144.850909" xlink:href="#m5b7a33c1af" y="265.718586"/>
     <use style="fill:#1f77b4;stroke:#1f77b4;" x="149.923636" xlink:href="#m5b7a33c1af" y="267.169338"/>
     <use style="fill:#1f77b4;stroke:#1f77b4;" x="154.996364" xlink:href="#m5b7a33c1af" y="267.09661"/>
     <use style="fill:#1f77b4;stroke:#1f77b4;" x="160.069091" xlink:href="#m5b7a33c1af" y="271.786107"/>
     <use style="fill:#1f77b4;stroke:#1f77b4;" x="165.141818" xlink:href="#m5b7a33c1af" y="271.551755"/>
     <use style="fill:#1f77b4;stroke:#1f77b4;" x="170.214545" xlink:href="#m5b7a33c1af" y="276.538286"/>
     <use style="fill:#1f77b4;stroke:#1f77b4;" x="175.287273" xlink:href="#m5b7a33c1af" y="280.171668"/>
     <use style="fill:#1f77b4;stroke:#1f77b4;" x="180.36" xlink:href="#m5b7a33c1af" y="283.474631"/>
     <use style="fill:#1f77b4;stroke:#1f77b4;" x="185.432727" xlink:href="#m5b7a33c1af" y="284.724093"/>
     <use style="fill:#1f77b4;stroke:#1f77b4;" x="190.505455" xlink:href="#m5b7a33c1af" y="285.32321"/>
     <use style="fill:#1f77b4;stroke:#1f77b4;" x="195.578182" xlink:href="#m5b7a33c1af" y="284.8236"/>
     <use style="fill:#1f77b4;stroke:#1f77b4;" x="200.650909" xlink:href="#m5b7a33c1af" y="286.306717"/>
     <use style="fill:#1f77b4;stroke:#1f77b4;" x="205.723636" xlink:href="#m5b7a33c1af" y="285.982317"/>
     <use style="fill:#1f77b4;stroke:#1f77b4;" x="210.796364" xlink:href="#m5b7a33c1af" y="287.85028"/>
     <use style="fill:#1f77b4;stroke:#1f77b4;" x="215.869091" xlink:href="#m5b7a33c1af" y="286.895403"/>
     <use style="fill:#1f77b4;stroke:#1f77b4;" x="220.941818" xlink:href="#m5b7a33c1af" y="287.838788"/>
     <use style="fill:#1f77b4;stroke:#1f77b4;" x="226.014545" xlink:href="#m5b7a33c1af" y="288.208437"/>
     <use style="fill:#1f77b4;stroke:#1f77b4;" x="231.087273" xlink:href="#m5b7a33c1af" y="286.961681"/>
     <use style="fill:#1f77b4;stroke:#1f77b4;" x="236.16" xlink:href="#m5b7a33c1af" y="288.866553"/>
     <use style="fill:#1f77b4;stroke:#1f77b4;" x="241.232727" xlink:href="#m5b7a33c1af" y="287.551064"/>
     <use style="fill:#1f77b4;stroke:#1f77b4;" x="246.305455" xlink:href="#m5b7a33c1af" y="286.212541"/>
     <use style="fill:#1f77b4;stroke:#1f77b4;" x="251.378182" xlink:href="#m5b7a33c1af" y="286.40039"/>
     <use style="fill:#1f77b4;stroke:#1f77b4;" x="256.450909" xlink:href="#m5b7a33c1af" y="287.707904"/>
     <use style="fill:#1f77b4;stroke:#1f77b4;" x="261.523636" xlink:href="#m5b7a33c1af" y="289.003958"/>
     <use style="fill:#1f77b4;stroke:#1f77b4;" x="266.596364" xlink:href="#m5b7a33c1af" y="290.445728"/>
     <use style="fill:#1f77b4;stroke:#1f77b4;" x="271.669091" xlink:href="#m5b7a33c1af" y="290.686673"/>
     <use style="fill:#1f77b4;stroke:#1f77b4;" x="276.741818" xlink:href="#m5b7a33c1af" y="291.622861"/>
     <use style="fill:#1f77b4;stroke:#1f77b4;" x="281.814545" xlink:href="#m5b7a33c1af" y="292.589859"/>
     <use style="fill:#1f77b4;stroke:#1f77b4;" x="286.887273" xlink:href="#m5b7a33c1af" y="293.37089"/>
     <use style="fill:#1f77b4;stroke:#1f77b4;" x="291.96" xlink:href="#m5b7a33c1af" y="293.93786"/>
     <use style="fill:#1f77b4;stroke:#1f77b4;" x="297.032727" xlink:href="#m5b7a33c1af" y="293.124076"/>
     <use style="fill:#1f77b4;stroke:#1f77b4;" x="302.105455" xlink:href="#m5b7a33c1af" y="293.14706"/>
     <use style="fill:#1f77b4;stroke:#1f77b4;" x="307.178182" xlink:href="#m5b7a33c1af" y="293.546107"/>
     <use style="fill:#1f77b4;stroke:#1f77b4;" x="312.250909" xlink:href="#m5b7a33c1af" y="293.450331"/>
     <use style="fill:#1f77b4;stroke:#1f77b4;" x="317.323636" xlink:href="#m5b7a33c1af" y="293.40668"/>
     <use style="fill:#1f77b4;stroke:#1f77b4;" x="322.396364" xlink:href="#m5b7a33c1af" y="293.312846"/>
     <use style="fill:#1f77b4;stroke:#1f77b4;" x="327.469091" xlink:href="#m5b7a33c1af" y="293.313066"/>
     <use style="fill:#1f77b4;stroke:#1f77b4;" x="332.541818" xlink:href="#m5b7a33c1af" y="293.250703"/>
     <use style="fill:#1f77b4;stroke:#1f77b4;" x="337.614545" xlink:href="#m5b7a33c1af" y="293.039661"/>
     <use style="fill:#1f77b4;stroke:#1f77b4;" x="342.687273" xlink:href="#m5b7a33c1af" y="292.9769"/>
     <use style="fill:#1f77b4;stroke:#1f77b4;" x="347.76" xlink:href="#m5b7a33c1af" y="292.769149"/>
     <use style="fill:#1f77b4;stroke:#1f77b4;" x="352.832727" xlink:href="#m5b7a33c1af" y="292.542303"/>
     <use style="fill:#1f77b4;stroke:#1f77b4;" x="357.905455" xlink:href="#m5b7a33c1af" y="292.503035"/>
     <use style="fill:#1f77b4;stroke:#1f77b4;" x="362.978182" xlink:href="#m5b7a33c1af" y="292.440597"/>
     <use style="fill:#1f77b4;stroke:#1f77b4;" x="368.050909" xlink:href="#m5b7a33c1af" y="292.261017"/>
     <use style="fill:#1f77b4;stroke:#1f77b4;" x="373.123636" xlink:href="#m5b7a33c1af" y="292.249358"/>
     <use style="fill:#1f77b4;stroke:#1f77b4;" x="378.196364" xlink:href="#m5b7a33c1af" y="292.112176"/>
     <use style="fill:#1f77b4;stroke:#1f77b4;" x="73.832727" xlink:href="#m5b7a33c1af" y="53.568"/>
     <use style="fill:#1f77b4;stroke:#1f77b4;" x="78.905455" xlink:href="#m5b7a33c1af" y="53.568"/>
     <use style="fill:#1f77b4;stroke:#1f77b4;" x="83.978182" xlink:href="#m5b7a33c1af" y="53.568"/>
     <use style="fill:#1f77b4;stroke:#1f77b4;" x="89.050909" xlink:href="#m5b7a33c1af" y="53.568"/>
     <use style="fill:#1f77b4;stroke:#1f77b4;" x="94.123636" xlink:href="#m5b7a33c1af" y="53.568"/>
     <use style="fill:#1f77b4;stroke:#1f77b4;" x="99.196364" xlink:href="#m5b7a33c1af" y="92.630241"/>
     <use style="fill:#1f77b4;stroke:#1f77b4;" x="104.269091" xlink:href="#m5b7a33c1af" y="131.156492"/>
     <use style="fill:#1f77b4;stroke:#1f77b4;" x="109.341818" xlink:href="#m5b7a33c1af" y="153.72045"/>
     <use style="fill:#1f77b4;stroke:#1f77b4;" x="114.414545" xlink:href="#m5b7a33c1af" y="155.266159"/>
     <use style="fill:#1f77b4;stroke:#1f77b4;" x="119.487273" xlink:href="#m5b7a33c1af" y="223.663326"/>
     <use style="fill:#1f77b4;stroke:#1f77b4;" x="124.56" xlink:href="#m5b7a33c1af" y="228.584566"/>
     <use style="fill:#1f77b4;stroke:#1f77b4;" x="129.632727" xlink:href="#m5b7a33c1af" y="245.050347"/>
     <use style="fill:#1f77b4;stroke:#1f77b4;" x="134.705455" xlink:href="#m5b7a33c1af" y="260.575651"/>
     <use style="fill:#1f77b4;stroke:#1f77b4;" x="139.778182" xlink:href="#m5b7a33c1af" y="261.972489"/>
     <use style="fill:#1f77b4;stroke:#1f77b4;" x="144.850909" xlink:href="#m5b7a33c1af" y="265.908802"/>
     <use style="fill:#1f77b4;stroke:#1f77b4;" x="149.923636" xlink:href="#m5b7a33c1af" y="268.376809"/>
     <use style="fill:#1f77b4;stroke:#1f77b4;" x="154.996364" xlink:href="#m5b7a33c1af" y="268.996853"/>
     <use style="fill:#1f77b4;stroke:#1f77b4;" x="160.069091" xlink:href="#m5b7a33c1af" y="271.383292"/>
     <use style="fill:#1f77b4;stroke:#1f77b4;" x="165.141818" xlink:href="#m5b7a33c1af" y="274.698236"/>
    </g>
   </g>
   <g id="line2d_26">
    <defs>
     <path d="M 0 1.5 
C 0.397805 1.5 0.77937 1.341951 1.06066 1.06066 
C 1.341951 0.77937 1.5 0.397805 1.5 0 
C 1.5 -0.397805 1.341951 -0.77937 1.06066 -1.06066 
C 0.77937 -1.341951 0.397805 -1.5 0 -1.5 
C -0.397805 -1.5 -0.77937 -1.341951 -1.06066 -1.06066 
C -1.341951 -0.77937 -1.5 -0.397805 -1.5 0 
C -1.5 0.397805 -1.341951 0.77937 -1.06066 1.06066 
C -0.77937 1.341951 -0.397805 1.5 0 1.5 
z
" id="m4c268f618c" style="stroke:#ff7f0e;"/>
    </defs>
    <g clip-path="url(#p6ad0067e29)">
     <use style="fill:#ff7f0e;stroke:#ff7f0e;" x="73.832727" xlink:href="#m4c268f618c" y="53.568"/>
     <use style="fill:#ff7f0e;stroke:#ff7f0e;" x="78.905455" xlink:href="#m4c268f618c" y="53.568"/>
     <use style="fill:#ff7f0e;stroke:#ff7f0e;" x="83.978182" xlink:href="#m4c268f618c" y="59.409159"/>
     <use style="fill:#ff7f0e;stroke:#ff7f0e;" x="89.050909" xlink:href="#m4c268f618c" y="138.810956"/>
     <use style="fill:#ff7f0e;stroke:#ff7f0e;" x="94.123636" xlink:href="#m4c268f618c" y="199.888086"/>
     <use style="fill:#ff7f0e;stroke:#ff7f0e;" x="99.196364" xlink:href="#m4c268f618c" y="212.940679"/>
     <use style="fill:#ff7f0e;stroke:#ff7f0e;" x="104.269091" xlink:href="#m4c268f618c" y="206.958842"/>
     <use style="fill:#ff7f0e;stroke:#ff7f0e;" x="109.341818" xlink:href="#m4c268f618c" y="204.283979"/>
     <use style="fill:#ff7f0e;stroke:#ff7f0e;" x="114.414545" xlink:href="#m4c268f618c" y="222.056326"/>
     <use style="fill:#ff7f0e;stroke:#ff7f0e;" x="119.487273" xlink:href="#m4c268f618c" y="229.487391"/>
     <use style="fill:#ff7f0e;stroke:#ff7f0e;" x="124.56" xlink:href="#m4c268f618c" y="232.398635"/>
     <use style="fill:#ff7f0e;stroke:#ff7f0e;" x="129.632727" xlink:href="#m4c268f618c" y="246.598732"/>
     <use style="fill:#ff7f0e;stroke:#ff7f0e;" x="134.705455" xlink:href="#m4c268f618c" y="253.212462"/>
     <use style="fill:#ff7f0e;stroke:#ff7f0e;" x="139.778182" xlink:href="#m4c268f618c" y="257.005067"/>
     <use style="fill:#ff7f0e;stroke:#ff7f0e;" x="144.850909" xlink:href="#m4c268f618c" y="262.216511"/>
     <use style="fill:#ff7f0e;stroke:#ff7f0e;" x="149.923636" xlink:href="#m4c268f618c" y="267.217011"/>
     <use style="fill:#ff7f0e;stroke:#ff7f0e;" x="154.996364" xlink:href="#m4c268f618c" y="272.708939"/>
     <use style="fill:#ff7f0e;stroke:#ff7f0e;" x="160.069091" xlink:href="#m4c268f618c" y="276.100651"/>
     <use style="fill:#ff7f0e;stroke:#ff7f0e;" x="165.141818" xlink:href="#m4c268f618c" y="280.536099"/>
     <use style="fill:#ff7f0e;stroke:#ff7f0e;" x="170.214545" xlink:href="#m4c268f618c" y="278.514156"/>
     <use style="fill:#ff7f0e;stroke:#ff7f0e;" x="175.287273" xlink:href="#m4c268f618c" y="280.734669"/>
     <use style="fill:#ff7f0e;stroke:#ff7f0e;" x="180.36" xlink:href="#m4c268f618c" y="279.875158"/>
     <use style="fill:#ff7f0e;stroke:#ff7f0e;" x="185.432727" xlink:href="#m4c268f618c" y="281.742355"/>
     <use style="fill:#ff7f0e;stroke:#ff7f0e;" x="190.505455" xlink:href="#m4c268f618c" y="283.804388"/>
     <use style="fill:#ff7f0e;stroke:#ff7f0e;" x="195.578182" xlink:href="#m4c268f618c" y="284.370882"/>
     <use style="fill:#ff7f0e;stroke:#ff7f0e;" x="200.650909" xlink:href="#m4c268f618c" y="286.56719"/>
     <use style="fill:#ff7f0e;stroke:#ff7f0e;" x="205.723636" xlink:href="#m4c268f618c" y="287.14573"/>
     <use style="fill:#ff7f0e;stroke:#ff7f0e;" x="210.796364" xlink:href="#m4c268f618c" y="288.823051"/>
     <use style="fill:#ff7f0e;stroke:#ff7f0e;" x="215.869091" xlink:href="#m4c268f618c" y="288.1297"/>
     <use style="fill:#ff7f0e;stroke:#ff7f0e;" x="220.941818" xlink:href="#m4c268f618c" y="287.471069"/>
     <use style="fill:#ff7f0e;stroke:#ff7f0e;" x="226.014545" xlink:href="#m4c268f618c" y="287.642912"/>
     <use style="fill:#ff7f0e;stroke:#ff7f0e;" x="231.087273" xlink:href="#m4c268f618c" y="286.977495"/>
     <use style="fill:#ff7f0e;stroke:#ff7f0e;" x="236.16" xlink:href="#m4c268f618c" y="288.617668"/>
     <use style="fill:#ff7f0e;stroke:#ff7f0e;" x="241.232727" xlink:href="#m4c268f618c" y="288.710659"/>
     <use style="fill:#ff7f0e;stroke:#ff7f0e;" x="246.305455" xlink:href="#m4c268f618c" y="288.686356"/>
     <use style="fill:#ff7f0e;stroke:#ff7f0e;" x="251.378182" xlink:href="#m4c268f618c" y="288.81733"/>
     <use style="fill:#ff7f0e;stroke:#ff7f0e;" x="256.450909" xlink:href="#m4c268f618c" y="289.726924"/>
     <use style="fill:#ff7f0e;stroke:#ff7f0e;" x="261.523636" xlink:href="#m4c268f618c" y="290.969829"/>
     <use style="fill:#ff7f0e;stroke:#ff7f0e;" x="266.596364" xlink:href="#m4c268f618c" y="291.890332"/>
     <use style="fill:#ff7f0e;stroke:#ff7f0e;" x="271.669091" xlink:href="#m4c268f618c" y="292.063282"/>
     <use style="fill:#ff7f0e;stroke:#ff7f0e;" x="276.741818" xlink:href="#m4c268f618c" y="292.040736"/>
     <use style="fill:#ff7f0e;stroke:#ff7f0e;" x="281.814545" xlink:href="#m4c268f618c" y="292.85042"/>
     <use style="fill:#ff7f0e;stroke:#ff7f0e;" x="286.887273" xlink:href="#m4c268f618c" y="293.671405"/>
     <use style="fill:#ff7f0e;stroke:#ff7f0e;" x="291.96" xlink:href="#m4c268f618c" y="293.492974"/>
     <use style="fill:#ff7f0e;stroke:#ff7f0e;" x="297.032727" xlink:href="#m4c268f618c" y="294.197536"/>
     <use style="fill:#ff7f0e;stroke:#ff7f0e;" x="302.105455" xlink:href="#m4c268f618c" y="294.214741"/>
     <use style="fill:#ff7f0e;stroke:#ff7f0e;" x="307.178182" xlink:href="#m4c268f618c" y="294.552233"/>
     <use style="fill:#ff7f0e;stroke:#ff7f0e;" x="312.250909" xlink:href="#m4c268f618c" y="294.474443"/>
     <use style="fill:#ff7f0e;stroke:#ff7f0e;" x="73.832727" xlink:href="#m4c268f618c" y="53.568"/>
     <use style="fill:#ff7f0e;stroke:#ff7f0e;" x="78.905455" xlink:href="#m4c268f618c" y="82.037449"/>
     <use style="fill:#ff7f0e;stroke:#ff7f0e;" x="83.978182" xlink:href="#m4c268f618c" y="187.318619"/>
     <use style="fill:#ff7f0e;stroke:#ff7f0e;" x="89.050909" xlink:href="#m4c268f618c" y="223.689954"/>
     <use style="fill:#ff7f0e;stroke:#ff7f0e;" x="94.123636" xlink:href="#m4c268f618c" y="225.764329"/>
     <use style="fill:#ff7f0e;stroke:#ff7f0e;" x="99.196364" xlink:href="#m4c268f618c" y="233.914791"/>
     <use style="fill:#ff7f0e;stroke:#ff7f0e;" x="104.269091" xlink:href="#m4c268f618c" y="237.103974"/>
     <use style="fill:#ff7f0e;stroke:#ff7f0e;" x="109.341818" xlink:href="#m4c268f618c" y="245.46317"/>
     <use style="fill:#ff7f0e;stroke:#ff7f0e;" x="114.414545" xlink:href="#m4c268f618c" y="255.69132"/>
     <use style="fill:#ff7f0e;stroke:#ff7f0e;" x="119.487273" xlink:href="#m4c268f618c" y="255.598278"/>
     <use style="fill:#ff7f0e;stroke:#ff7f0e;" x="124.56" xlink:href="#m4c268f618c" y="251.197839"/>
     <use style="fill:#ff7f0e;stroke:#ff7f0e;" x="129.632727" xlink:href="#m4c268f618c" y="253.152094"/>
     <use style="fill:#ff7f0e;stroke:#ff7f0e;" x="134.705455" xlink:href="#m4c268f618c" y="261.009816"/>
     <use style="fill:#ff7f0e;stroke:#ff7f0e;" x="139.778182" xlink:href="#m4c268f618c" y="267.689035"/>
     <use style="fill:#ff7f0e;stroke:#ff7f0e;" x="73.832727" xlink:href="#m4c268f618c" y="53.568"/>
     <use style="fill:#ff7f0e;stroke:#ff7f0e;" x="78.905455" xlink:href="#m4c268f618c" y="53.568"/>
     <use style="fill:#ff7f0e;stroke:#ff7f0e;" x="83.978182" xlink:href="#m4c268f618c" y="53.568"/>
     <use style="fill:#ff7f0e;stroke:#ff7f0e;" x="89.050909" xlink:href="#m4c268f618c" y="53.568"/>
     <use style="fill:#ff7f0e;stroke:#ff7f0e;" x="94.123636" xlink:href="#m4c268f618c" y="90.880714"/>
     <use style="fill:#ff7f0e;stroke:#ff7f0e;" x="99.196364" xlink:href="#m4c268f618c" y="160.814712"/>
     <use style="fill:#ff7f0e;stroke:#ff7f0e;" x="104.269091" xlink:href="#m4c268f618c" y="128.131382"/>
     <use style="fill:#ff7f0e;stroke:#ff7f0e;" x="109.341818" xlink:href="#m4c268f618c" y="110.855155"/>
     <use style="fill:#ff7f0e;stroke:#ff7f0e;" x="114.414545" xlink:href="#m4c268f618c" y="205.202873"/>
     <use style="fill:#ff7f0e;stroke:#ff7f0e;" x="119.487273" xlink:href="#m4c268f618c" y="220.559916"/>
     <use style="fill:#ff7f0e;stroke:#ff7f0e;" x="124.56" xlink:href="#m4c268f618c" y="237.772149"/>
     <use style="fill:#ff7f0e;stroke:#ff7f0e;" x="129.632727" xlink:href="#m4c268f618c" y="252.112494"/>
     <use style="fill:#ff7f0e;stroke:#ff7f0e;" x="134.705455" xlink:href="#m4c268f618c" y="258.679366"/>
     <use style="fill:#ff7f0e;stroke:#ff7f0e;" x="139.778182" xlink:href="#m4c268f618c" y="266.174143"/>
     <use style="fill:#ff7f0e;stroke:#ff7f0e;" x="144.850909" xlink:href="#m4c268f618c" y="266.984195"/>
     <use style="fill:#ff7f0e;stroke:#ff7f0e;" x="149.923636" xlink:href="#m4c268f618c" y="271.810311"/>
     <use style="fill:#ff7f0e;stroke:#ff7f0e;" x="154.996364" xlink:href="#m4c268f618c" y="275.050518"/>
     <use style="fill:#ff7f0e;stroke:#ff7f0e;" x="160.069091" xlink:href="#m4c268f618c" y="273.009595"/>
    </g>
   </g>
   <g id="line2d_27">
    <defs>
     <path d="M 0 1.5 
C 0.397805 1.5 0.77937 1.341951 1.06066 1.06066 
C 1.341951 0.77937 1.5 0.397805 1.5 0 
C 1.5 -0.397805 1.341951 -0.77937 1.06066 -1.06066 
C 0.77937 -1.341951 0.397805 -1.5 0 -1.5 
C -0.397805 -1.5 -0.77937 -1.341951 -1.06066 -1.06066 
C -1.341951 -0.77937 -1.5 -0.397805 -1.5 0 
C -1.5 0.397805 -1.341951 0.77937 -1.06066 1.06066 
C -0.77937 1.341951 -0.397805 1.5 0 1.5 
z
" id="m02130d4980" style="stroke:#2ca02c;"/>
    </defs>
    <g clip-path="url(#p6ad0067e29)">
     <use style="fill:#2ca02c;stroke:#2ca02c;" x="73.832727" xlink:href="#m02130d4980" y="53.568"/>
     <use style="fill:#2ca02c;stroke:#2ca02c;" x="78.905455" xlink:href="#m02130d4980" y="53.568"/>
     <use style="fill:#2ca02c;stroke:#2ca02c;" x="83.978182" xlink:href="#m02130d4980" y="53.568"/>
     <use style="fill:#2ca02c;stroke:#2ca02c;" x="89.050909" xlink:href="#m02130d4980" y="119.784394"/>
     <use style="fill:#2ca02c;stroke:#2ca02c;" x="94.123636" xlink:href="#m02130d4980" y="115.52267"/>
     <use style="fill:#2ca02c;stroke:#2ca02c;" x="99.196364" xlink:href="#m02130d4980" y="132.592224"/>
     <use style="fill:#2ca02c;stroke:#2ca02c;" x="104.269091" xlink:href="#m02130d4980" y="162.06488"/>
     <use style="fill:#2ca02c;stroke:#2ca02c;" x="109.341818" xlink:href="#m02130d4980" y="219.970759"/>
     <use style="fill:#2ca02c;stroke:#2ca02c;" x="114.414545" xlink:href="#m02130d4980" y="217.242652"/>
     <use style="fill:#2ca02c;stroke:#2ca02c;" x="119.487273" xlink:href="#m02130d4980" y="231.915401"/>
     <use style="fill:#2ca02c;stroke:#2ca02c;" x="124.56" xlink:href="#m02130d4980" y="245.408931"/>
     <use style="fill:#2ca02c;stroke:#2ca02c;" x="129.632727" xlink:href="#m02130d4980" y="261.981464"/>
     <use style="fill:#2ca02c;stroke:#2ca02c;" x="134.705455" xlink:href="#m02130d4980" y="258.783198"/>
     <use style="fill:#2ca02c;stroke:#2ca02c;" x="139.778182" xlink:href="#m02130d4980" y="264.31306"/>
     <use style="fill:#2ca02c;stroke:#2ca02c;" x="144.850909" xlink:href="#m02130d4980" y="266.563482"/>
     <use style="fill:#2ca02c;stroke:#2ca02c;" x="149.923636" xlink:href="#m02130d4980" y="267.232793"/>
     <use style="fill:#2ca02c;stroke:#2ca02c;" x="154.996364" xlink:href="#m02130d4980" y="265.435847"/>
     <use style="fill:#2ca02c;stroke:#2ca02c;" x="160.069091" xlink:href="#m02130d4980" y="267.058993"/>
     <use style="fill:#2ca02c;stroke:#2ca02c;" x="165.141818" xlink:href="#m02130d4980" y="272.865585"/>
     <use style="fill:#2ca02c;stroke:#2ca02c;" x="170.214545" xlink:href="#m02130d4980" y="273.180716"/>
     <use style="fill:#2ca02c;stroke:#2ca02c;" x="175.287273" xlink:href="#m02130d4980" y="274.448885"/>
     <use style="fill:#2ca02c;stroke:#2ca02c;" x="180.36" xlink:href="#m02130d4980" y="273.862084"/>
     <use style="fill:#2ca02c;stroke:#2ca02c;" x="185.432727" xlink:href="#m02130d4980" y="272.271819"/>
     <use style="fill:#2ca02c;stroke:#2ca02c;" x="190.505455" xlink:href="#m02130d4980" y="274.366938"/>
     <use style="fill:#2ca02c;stroke:#2ca02c;" x="195.578182" xlink:href="#m02130d4980" y="278.068168"/>
     <use style="fill:#2ca02c;stroke:#2ca02c;" x="200.650909" xlink:href="#m02130d4980" y="279.931782"/>
     <use style="fill:#2ca02c;stroke:#2ca02c;" x="205.723636" xlink:href="#m02130d4980" y="280.20059"/>
     <use style="fill:#2ca02c;stroke:#2ca02c;" x="210.796364" xlink:href="#m02130d4980" y="283.137995"/>
     <use style="fill:#2ca02c;stroke:#2ca02c;" x="215.869091" xlink:href="#m02130d4980" y="284.593478"/>
     <use style="fill:#2ca02c;stroke:#2ca02c;" x="220.941818" xlink:href="#m02130d4980" y="285.125452"/>
     <use style="fill:#2ca02c;stroke:#2ca02c;" x="226.014545" xlink:href="#m02130d4980" y="284.196455"/>
     <use style="fill:#2ca02c;stroke:#2ca02c;" x="231.087273" xlink:href="#m02130d4980" y="286.445765"/>
     <use style="fill:#2ca02c;stroke:#2ca02c;" x="236.16" xlink:href="#m02130d4980" y="288.168258"/>
     <use style="fill:#2ca02c;stroke:#2ca02c;" x="241.232727" xlink:href="#m02130d4980" y="289.613002"/>
     <use style="fill:#2ca02c;stroke:#2ca02c;" x="246.305455" xlink:href="#m02130d4980" y="289.799861"/>
     <use style="fill:#2ca02c;stroke:#2ca02c;" x="251.378182" xlink:href="#m02130d4980" y="290.255945"/>
     <use style="fill:#2ca02c;stroke:#2ca02c;" x="256.450909" xlink:href="#m02130d4980" y="291.336442"/>
     <use style="fill:#2ca02c;stroke:#2ca02c;" x="261.523636" xlink:href="#m02130d4980" y="290.407188"/>
     <use style="fill:#2ca02c;stroke:#2ca02c;" x="266.596364" xlink:href="#m02130d4980" y="291.378964"/>
     <use style="fill:#2ca02c;stroke:#2ca02c;" x="271.669091" xlink:href="#m02130d4980" y="291.423564"/>
     <use style="fill:#2ca02c;stroke:#2ca02c;" x="276.741818" xlink:href="#m02130d4980" y="291.652697"/>
     <use style="fill:#2ca02c;stroke:#2ca02c;" x="73.832727" xlink:href="#m02130d4980" y="53.568"/>
     <use style="fill:#2ca02c;stroke:#2ca02c;" x="78.905455" xlink:href="#m02130d4980" y="53.568"/>
     <use style="fill:#2ca02c;stroke:#2ca02c;" x="83.978182" xlink:href="#m02130d4980" y="53.568"/>
     <use style="fill:#2ca02c;stroke:#2ca02c;" x="89.050909" xlink:href="#m02130d4980" y="53.568"/>
     <use style="fill:#2ca02c;stroke:#2ca02c;" x="94.123636" xlink:href="#m02130d4980" y="98.197106"/>
     <use style="fill:#2ca02c;stroke:#2ca02c;" x="99.196364" xlink:href="#m02130d4980" y="133.986649"/>
     <use style="fill:#2ca02c;stroke:#2ca02c;" x="104.269091" xlink:href="#m02130d4980" y="191.364219"/>
     <use style="fill:#2ca02c;stroke:#2ca02c;" x="109.341818" xlink:href="#m02130d4980" y="219.678507"/>
     <use style="fill:#2ca02c;stroke:#2ca02c;" x="114.414545" xlink:href="#m02130d4980" y="223.333655"/>
     <use style="fill:#2ca02c;stroke:#2ca02c;" x="119.487273" xlink:href="#m02130d4980" y="222.434718"/>
     <use style="fill:#2ca02c;stroke:#2ca02c;" x="124.56" xlink:href="#m02130d4980" y="246.602419"/>
     <use style="fill:#2ca02c;stroke:#2ca02c;" x="129.632727" xlink:href="#m02130d4980" y="244.951809"/>
     <use style="fill:#2ca02c;stroke:#2ca02c;" x="134.705455" xlink:href="#m02130d4980" y="255.777114"/>
     <use style="fill:#2ca02c;stroke:#2ca02c;" x="139.778182" xlink:href="#m02130d4980" y="262.010508"/>
     <use style="fill:#2ca02c;stroke:#2ca02c;" x="144.850909" xlink:href="#m02130d4980" y="263.879285"/>
     <use style="fill:#2ca02c;stroke:#2ca02c;" x="149.923636" xlink:href="#m02130d4980" y="262.041513"/>
     <use style="fill:#2ca02c;stroke:#2ca02c;" x="154.996364" xlink:href="#m02130d4980" y="262.466216"/>
     <use style="fill:#2ca02c;stroke:#2ca02c;" x="160.069091" xlink:href="#m02130d4980" y="261.912805"/>
     <use style="fill:#2ca02c;stroke:#2ca02c;" x="165.141818" xlink:href="#m02130d4980" y="266.372438"/>
     <use style="fill:#2ca02c;stroke:#2ca02c;" x="170.214545" xlink:href="#m02130d4980" y="264.181306"/>
     <use style="fill:#2ca02c;stroke:#2ca02c;" x="175.287273" xlink:href="#m02130d4980" y="262.492914"/>
     <use style="fill:#2ca02c;stroke:#2ca02c;" x="180.36" xlink:href="#m02130d4980" y="268.682022"/>
     <use style="fill:#2ca02c;stroke:#2ca02c;" x="185.432727" xlink:href="#m02130d4980" y="272.462706"/>
     <use style="fill:#2ca02c;stroke:#2ca02c;" x="190.505455" xlink:href="#m02130d4980" y="275.404772"/>
     <use style="fill:#2ca02c;stroke:#2ca02c;" x="195.578182" xlink:href="#m02130d4980" y="280.270863"/>
     <use style="fill:#2ca02c;stroke:#2ca02c;" x="200.650909" xlink:href="#m02130d4980" y="280.310959"/>
     <use style="fill:#2ca02c;stroke:#2ca02c;" x="205.723636" xlink:href="#m02130d4980" y="281.45121"/>
     <use style="fill:#2ca02c;stroke:#2ca02c;" x="73.832727" xlink:href="#m02130d4980" y="53.568"/>
     <use style="fill:#2ca02c;stroke:#2ca02c;" x="78.905455" xlink:href="#m02130d4980" y="53.568"/>
     <use style="fill:#2ca02c;stroke:#2ca02c;" x="83.978182" xlink:href="#m02130d4980" y="62.987763"/>
     <use style="fill:#2ca02c;stroke:#2ca02c;" x="89.050909" xlink:href="#m02130d4980" y="179.67534"/>
     <use style="fill:#2ca02c;stroke:#2ca02c;" x="94.123636" xlink:href="#m02130d4980" y="209.268999"/>
     <use style="fill:#2ca02c;stroke:#2ca02c;" x="99.196364" xlink:href="#m02130d4980" y="224.583946"/>
     <use style="fill:#2ca02c;stroke:#2ca02c;" x="104.269091" xlink:href="#m02130d4980" y="212.125337"/>
     <use style="fill:#2ca02c;stroke:#2ca02c;" x="109.341818" xlink:href="#m02130d4980" y="223.532205"/>
     <use style="fill:#2ca02c;stroke:#2ca02c;" x="114.414545" xlink:href="#m02130d4980" y="233.388034"/>
     <use style="fill:#2ca02c;stroke:#2ca02c;" x="119.487273" xlink:href="#m02130d4980" y="246.991023"/>
     <use style="fill:#2ca02c;stroke:#2ca02c;" x="124.56" xlink:href="#m02130d4980" y="256.800034"/>
     <use style="fill:#2ca02c;stroke:#2ca02c;" x="129.632727" xlink:href="#m02130d4980" y="261.805075"/>
    </g>
   </g>
   <g id="line2d_28">
    <defs>
     <path d="M 0 1.5 
C 0.397805 1.5 0.77937 1.341951 1.06066 1.06066 
C 1.341951 0.77937 1.5 0.397805 1.5 0 
C 1.5 -0.397805 1.341951 -0.77937 1.06066 -1.06066 
C 0.77937 -1.341951 0.397805 -1.5 0 -1.5 
C -0.397805 -1.5 -0.77937 -1.341951 -1.06066 -1.06066 
C -1.341951 -0.77937 -1.5 -0.397805 -1.5 0 
C -1.5 0.397805 -1.341951 0.77937 -1.06066 1.06066 
C -0.77937 1.341951 -0.397805 1.5 0 1.5 
z
" id="m8364078f77" style="stroke:#d62728;"/>
    </defs>
    <g clip-path="url(#p6ad0067e29)">
     <use style="fill:#d62728;stroke:#d62728;" x="73.832727" xlink:href="#m8364078f77" y="53.568"/>
     <use style="fill:#d62728;stroke:#d62728;" x="78.905455" xlink:href="#m8364078f77" y="83.477327"/>
     <use style="fill:#d62728;stroke:#d62728;" x="83.978182" xlink:href="#m8364078f77" y="130.163215"/>
     <use style="fill:#d62728;stroke:#d62728;" x="89.050909" xlink:href="#m8364078f77" y="172.838973"/>
     <use style="fill:#d62728;stroke:#d62728;" x="94.123636" xlink:href="#m8364078f77" y="201.754822"/>
     <use style="fill:#d62728;stroke:#d62728;" x="99.196364" xlink:href="#m8364078f77" y="208.326876"/>
     <use style="fill:#d62728;stroke:#d62728;" x="104.269091" xlink:href="#m8364078f77" y="221.453575"/>
     <use style="fill:#d62728;stroke:#d62728;" x="109.341818" xlink:href="#m8364078f77" y="226.472908"/>
     <use style="fill:#d62728;stroke:#d62728;" x="114.414545" xlink:href="#m8364078f77" y="239.437282"/>
     <use style="fill:#d62728;stroke:#d62728;" x="119.487273" xlink:href="#m8364078f77" y="248.626005"/>
     <use style="fill:#d62728;stroke:#d62728;" x="124.56" xlink:href="#m8364078f77" y="257.27718"/>
     <use style="fill:#d62728;stroke:#d62728;" x="129.632727" xlink:href="#m8364078f77" y="265.704423"/>
     <use style="fill:#d62728;stroke:#d62728;" x="134.705455" xlink:href="#m8364078f77" y="272.200322"/>
     <use style="fill:#d62728;stroke:#d62728;" x="139.778182" xlink:href="#m8364078f77" y="272.164968"/>
     <use style="fill:#d62728;stroke:#d62728;" x="144.850909" xlink:href="#m8364078f77" y="276.728989"/>
     <use style="fill:#d62728;stroke:#d62728;" x="149.923636" xlink:href="#m8364078f77" y="280.049673"/>
     <use style="fill:#d62728;stroke:#d62728;" x="154.996364" xlink:href="#m8364078f77" y="283.300674"/>
     <use style="fill:#d62728;stroke:#d62728;" x="160.069091" xlink:href="#m8364078f77" y="284.467388"/>
     <use style="fill:#d62728;stroke:#d62728;" x="165.141818" xlink:href="#m8364078f77" y="283.646032"/>
     <use style="fill:#d62728;stroke:#d62728;" x="170.214545" xlink:href="#m8364078f77" y="283.610313"/>
     <use style="fill:#d62728;stroke:#d62728;" x="175.287273" xlink:href="#m8364078f77" y="285.833857"/>
     <use style="fill:#d62728;stroke:#d62728;" x="180.36" xlink:href="#m8364078f77" y="287.587256"/>
     <use style="fill:#d62728;stroke:#d62728;" x="185.432727" xlink:href="#m8364078f77" y="288.28804"/>
     <use style="fill:#d62728;stroke:#d62728;" x="190.505455" xlink:href="#m8364078f77" y="289.529937"/>
     <use style="fill:#d62728;stroke:#d62728;" x="195.578182" xlink:href="#m8364078f77" y="290.700066"/>
     <use style="fill:#d62728;stroke:#d62728;" x="200.650909" xlink:href="#m8364078f77" y="290.826061"/>
     <use style="fill:#d62728;stroke:#d62728;" x="205.723636" xlink:href="#m8364078f77" y="290.999862"/>
     <use style="fill:#d62728;stroke:#d62728;" x="210.796364" xlink:href="#m8364078f77" y="291.174348"/>
     <use style="fill:#d62728;stroke:#d62728;" x="215.869091" xlink:href="#m8364078f77" y="291.457628"/>
     <use style="fill:#d62728;stroke:#d62728;" x="220.941818" xlink:href="#m8364078f77" y="290.873599"/>
     <use style="fill:#d62728;stroke:#d62728;" x="226.014545" xlink:href="#m8364078f77" y="291.935072"/>
     <use style="fill:#d62728;stroke:#d62728;" x="231.087273" xlink:href="#m8364078f77" y="292.903881"/>
     <use style="fill:#d62728;stroke:#d62728;" x="236.16" xlink:href="#m8364078f77" y="293.686976"/>
     <use style="fill:#d62728;stroke:#d62728;" x="241.232727" xlink:href="#m8364078f77" y="293.639417"/>
     <use style="fill:#d62728;stroke:#d62728;" x="246.305455" xlink:href="#m8364078f77" y="294.19594"/>
     <use style="fill:#d62728;stroke:#d62728;" x="251.378182" xlink:href="#m8364078f77" y="294.849194"/>
     <use style="fill:#d62728;stroke:#d62728;" x="256.450909" xlink:href="#m8364078f77" y="295.367041"/>
     <use style="fill:#d62728;stroke:#d62728;" x="261.523636" xlink:href="#m8364078f77" y="294.773214"/>
     <use style="fill:#d62728;stroke:#d62728;" x="266.596364" xlink:href="#m8364078f77" y="294.826369"/>
     <use style="fill:#d62728;stroke:#d62728;" x="271.669091" xlink:href="#m8364078f77" y="294.906049"/>
     <use style="fill:#d62728;stroke:#d62728;" x="276.741818" xlink:href="#m8364078f77" y="294.390352"/>
     <use style="fill:#d62728;stroke:#d62728;" x="281.814545" xlink:href="#m8364078f77" y="294.440857"/>
     <use style="fill:#d62728;stroke:#d62728;" x="286.887273" xlink:href="#m8364078f77" y="295.101356"/>
     <use style="fill:#d62728;stroke:#d62728;" x="291.96" xlink:href="#m8364078f77" y="294.983684"/>
     <use style="fill:#d62728;stroke:#d62728;" x="297.032727" xlink:href="#m8364078f77" y="294.968063"/>
     <use style="fill:#d62728;stroke:#d62728;" x="302.105455" xlink:href="#m8364078f77" y="295.488"/>
     <use style="fill:#d62728;stroke:#d62728;" x="307.178182" xlink:href="#m8364078f77" y="294.526916"/>
     <use style="fill:#d62728;stroke:#d62728;" x="312.250909" xlink:href="#m8364078f77" y="294.44868"/>
     <use style="fill:#d62728;stroke:#d62728;" x="317.323636" xlink:href="#m8364078f77" y="294.411934"/>
     <use style="fill:#d62728;stroke:#d62728;" x="322.396364" xlink:href="#m8364078f77" y="294.335845"/>
     <use style="fill:#d62728;stroke:#d62728;" x="327.469091" xlink:href="#m8364078f77" y="294.334691"/>
     <use style="fill:#d62728;stroke:#d62728;" x="332.541818" xlink:href="#m8364078f77" y="294.284147"/>
     <use style="fill:#d62728;stroke:#d62728;" x="337.614545" xlink:href="#m8364078f77" y="294.112886"/>
     <use style="fill:#d62728;stroke:#d62728;" x="342.687273" xlink:href="#m8364078f77" y="294.061582"/>
     <use style="fill:#d62728;stroke:#d62728;" x="347.76" xlink:href="#m8364078f77" y="293.894346"/>
     <use style="fill:#d62728;stroke:#d62728;" x="352.832727" xlink:href="#m8364078f77" y="293.710625"/>
     <use style="fill:#d62728;stroke:#d62728;" x="357.905455" xlink:href="#m8364078f77" y="293.679792"/>
     <use style="fill:#d62728;stroke:#d62728;" x="362.978182" xlink:href="#m8364078f77" y="293.629365"/>
     <use style="fill:#d62728;stroke:#d62728;" x="368.050909" xlink:href="#m8364078f77" y="293.485821"/>
     <use style="fill:#d62728;stroke:#d62728;" x="373.123636" xlink:href="#m8364078f77" y="293.474918"/>
     <use style="fill:#d62728;stroke:#d62728;" x="378.196364" xlink:href="#m8364078f77" y="293.365335"/>
     <use style="fill:#d62728;stroke:#d62728;" x="383.269091" xlink:href="#m8364078f77" y="293.290993"/>
     <use style="fill:#d62728;stroke:#d62728;" x="388.341818" xlink:href="#m8364078f77" y="293.130289"/>
     <use style="fill:#d62728;stroke:#d62728;" x="393.414545" xlink:href="#m8364078f77" y="292.814576"/>
     <use style="fill:#d62728;stroke:#d62728;" x="398.487273" xlink:href="#m8364078f77" y="292.430261"/>
     <use style="fill:#d62728;stroke:#d62728;" x="73.832727" xlink:href="#m8364078f77" y="53.568"/>
     <use style="fill:#d62728;stroke:#d62728;" x="78.905455" xlink:href="#m8364078f77" y="53.568"/>
     <use style="fill:#d62728;stroke:#d62728;" x="83.978182" xlink:href="#m8364078f77" y="53.568"/>
     <use style="fill:#d62728;stroke:#d62728;" x="89.050909" xlink:href="#m8364078f77" y="53.568"/>
     <use style="fill:#d62728;stroke:#d62728;" x="94.123636" xlink:href="#m8364078f77" y="53.568"/>
     <use style="fill:#d62728;stroke:#d62728;" x="99.196364" xlink:href="#m8364078f77" y="96.307208"/>
     <use style="fill:#d62728;stroke:#d62728;" x="104.269091" xlink:href="#m8364078f77" y="138.507086"/>
     <use style="fill:#d62728;stroke:#d62728;" x="109.341818" xlink:href="#m8364078f77" y="213.210513"/>
     <use style="fill:#d62728;stroke:#d62728;" x="114.414545" xlink:href="#m8364078f77" y="229.994039"/>
     <use style="fill:#d62728;stroke:#d62728;" x="119.487273" xlink:href="#m8364078f77" y="240.565236"/>
     <use style="fill:#d62728;stroke:#d62728;" x="124.56" xlink:href="#m8364078f77" y="245.147586"/>
     <use style="fill:#d62728;stroke:#d62728;" x="129.632727" xlink:href="#m8364078f77" y="247.132095"/>
     <use style="fill:#d62728;stroke:#d62728;" x="134.705455" xlink:href="#m8364078f77" y="253.012696"/>
     <use style="fill:#d62728;stroke:#d62728;" x="139.778182" xlink:href="#m8364078f77" y="264.526021"/>
     <use style="fill:#d62728;stroke:#d62728;" x="144.850909" xlink:href="#m8364078f77" y="263.920184"/>
    </g>
   </g>
   <g id="line2d_29">
    <defs>
     <path d="M 0 1.5 
C 0.397805 1.5 0.77937 1.341951 1.06066 1.06066 
C 1.341951 0.77937 1.5 0.397805 1.5 0 
C 1.5 -0.397805 1.341951 -0.77937 1.06066 -1.06066 
C 0.77937 -1.341951 0.397805 -1.5 0 -1.5 
C -0.397805 -1.5 -0.77937 -1.341951 -1.06066 -1.06066 
C -1.341951 -0.77937 -1.5 -0.397805 -1.5 0 
C -1.5 0.397805 -1.341951 0.77937 -1.06066 1.06066 
C -0.77937 1.341951 -0.397805 1.5 0 1.5 
z
" id="maa9f947ee9" style="stroke:#9467bd;"/>
    </defs>
    <g clip-path="url(#p6ad0067e29)">
     <use style="fill:#9467bd;stroke:#9467bd;" x="73.832727" xlink:href="#maa9f947ee9" y="53.568"/>
     <use style="fill:#9467bd;stroke:#9467bd;" x="78.905455" xlink:href="#maa9f947ee9" y="83.477327"/>
     <use style="fill:#9467bd;stroke:#9467bd;" x="83.978182" xlink:href="#maa9f947ee9" y="111.275739"/>
     <use style="fill:#9467bd;stroke:#9467bd;" x="89.050909" xlink:href="#maa9f947ee9" y="148.65931"/>
     <use style="fill:#9467bd;stroke:#9467bd;" x="94.123636" xlink:href="#maa9f947ee9" y="160.921339"/>
     <use style="fill:#9467bd;stroke:#9467bd;" x="99.196364" xlink:href="#maa9f947ee9" y="198.766172"/>
     <use style="fill:#9467bd;stroke:#9467bd;" x="104.269091" xlink:href="#maa9f947ee9" y="192.984572"/>
     <use style="fill:#9467bd;stroke:#9467bd;" x="109.341818" xlink:href="#maa9f947ee9" y="206.291573"/>
     <use style="fill:#9467bd;stroke:#9467bd;" x="114.414545" xlink:href="#maa9f947ee9" y="229.724695"/>
     <use style="fill:#9467bd;stroke:#9467bd;" x="119.487273" xlink:href="#maa9f947ee9" y="242.703406"/>
     <use style="fill:#9467bd;stroke:#9467bd;" x="124.56" xlink:href="#maa9f947ee9" y="253.41622"/>
     <use style="fill:#9467bd;stroke:#9467bd;" x="129.632727" xlink:href="#maa9f947ee9" y="256.558705"/>
     <use style="fill:#9467bd;stroke:#9467bd;" x="134.705455" xlink:href="#maa9f947ee9" y="263.554181"/>
     <use style="fill:#9467bd;stroke:#9467bd;" x="139.778182" xlink:href="#maa9f947ee9" y="267.088177"/>
     <use style="fill:#9467bd;stroke:#9467bd;" x="144.850909" xlink:href="#maa9f947ee9" y="271.859196"/>
     <use style="fill:#9467bd;stroke:#9467bd;" x="149.923636" xlink:href="#maa9f947ee9" y="270.008368"/>
     <use style="fill:#9467bd;stroke:#9467bd;" x="154.996364" xlink:href="#maa9f947ee9" y="274.821807"/>
     <use style="fill:#9467bd;stroke:#9467bd;" x="160.069091" xlink:href="#maa9f947ee9" y="277.876679"/>
     <use style="fill:#9467bd;stroke:#9467bd;" x="165.141818" xlink:href="#maa9f947ee9" y="281.132625"/>
     <use style="fill:#9467bd;stroke:#9467bd;" x="170.214545" xlink:href="#maa9f947ee9" y="280.586838"/>
     <use style="fill:#9467bd;stroke:#9467bd;" x="175.287273" xlink:href="#maa9f947ee9" y="279.904147"/>
     <use style="fill:#9467bd;stroke:#9467bd;" x="180.36" xlink:href="#maa9f947ee9" y="282.678405"/>
     <use style="fill:#9467bd;stroke:#9467bd;" x="185.432727" xlink:href="#maa9f947ee9" y="281.849547"/>
     <use style="fill:#9467bd;stroke:#9467bd;" x="190.505455" xlink:href="#maa9f947ee9" y="283.310452"/>
     <use style="fill:#9467bd;stroke:#9467bd;" x="195.578182" xlink:href="#maa9f947ee9" y="283.916459"/>
     <use style="fill:#9467bd;stroke:#9467bd;" x="200.650909" xlink:href="#maa9f947ee9" y="284.009667"/>
     <use style="fill:#9467bd;stroke:#9467bd;" x="205.723636" xlink:href="#maa9f947ee9" y="284.474175"/>
     <use style="fill:#9467bd;stroke:#9467bd;" x="210.796364" xlink:href="#maa9f947ee9" y="283.341885"/>
     <use style="fill:#9467bd;stroke:#9467bd;" x="215.869091" xlink:href="#maa9f947ee9" y="282.645068"/>
     <use style="fill:#9467bd;stroke:#9467bd;" x="220.941818" xlink:href="#maa9f947ee9" y="285.651229"/>
     <use style="fill:#9467bd;stroke:#9467bd;" x="226.014545" xlink:href="#maa9f947ee9" y="285.207738"/>
     <use style="fill:#9467bd;stroke:#9467bd;" x="231.087273" xlink:href="#maa9f947ee9" y="286.915952"/>
     <use style="fill:#9467bd;stroke:#9467bd;" x="236.16" xlink:href="#maa9f947ee9" y="286.44714"/>
     <use style="fill:#9467bd;stroke:#9467bd;" x="241.232727" xlink:href="#maa9f947ee9" y="286.606811"/>
     <use style="fill:#9467bd;stroke:#9467bd;" x="246.305455" xlink:href="#maa9f947ee9" y="287.660975"/>
     <use style="fill:#9467bd;stroke:#9467bd;" x="251.378182" xlink:href="#maa9f947ee9" y="287.813121"/>
     <use style="fill:#9467bd;stroke:#9467bd;" x="256.450909" xlink:href="#maa9f947ee9" y="287.79572"/>
     <use style="fill:#9467bd;stroke:#9467bd;" x="261.523636" xlink:href="#maa9f947ee9" y="286.57929"/>
     <use style="fill:#9467bd;stroke:#9467bd;" x="266.596364" xlink:href="#maa9f947ee9" y="285.083366"/>
     <use style="fill:#9467bd;stroke:#9467bd;" x="271.669091" xlink:href="#maa9f947ee9" y="286.714769"/>
     <use style="fill:#9467bd;stroke:#9467bd;" x="276.741818" xlink:href="#maa9f947ee9" y="286.658114"/>
     <use style="fill:#9467bd;stroke:#9467bd;" x="281.814545" xlink:href="#maa9f947ee9" y="286.638766"/>
     <use style="fill:#9467bd;stroke:#9467bd;" x="286.887273" xlink:href="#maa9f947ee9" y="285.714731"/>
     <use style="fill:#9467bd;stroke:#9467bd;" x="291.96" xlink:href="#maa9f947ee9" y="283.335853"/>
     <use style="fill:#9467bd;stroke:#9467bd;" x="297.032727" xlink:href="#maa9f947ee9" y="280.933423"/>
     <use style="fill:#9467bd;stroke:#9467bd;" x="302.105455" xlink:href="#maa9f947ee9" y="280.747382"/>
     <use style="fill:#9467bd;stroke:#9467bd;" x="307.178182" xlink:href="#maa9f947ee9" y="278.977065"/>
     <use style="fill:#9467bd;stroke:#9467bd;" x="312.250909" xlink:href="#maa9f947ee9" y="278.480877"/>
     <use style="fill:#9467bd;stroke:#9467bd;" x="317.323636" xlink:href="#maa9f947ee9" y="278.213628"/>
     <use style="fill:#9467bd;stroke:#9467bd;" x="322.396364" xlink:href="#maa9f947ee9" y="277.703993"/>
     <use style="fill:#9467bd;stroke:#9467bd;" x="327.469091" xlink:href="#maa9f947ee9" y="277.622608"/>
     <use style="fill:#9467bd;stroke:#9467bd;" x="332.541818" xlink:href="#maa9f947ee9" y="277.240328"/>
     <use style="fill:#9467bd;stroke:#9467bd;" x="337.614545" xlink:href="#maa9f947ee9" y="276.116649"/>
     <use style="fill:#9467bd;stroke:#9467bd;" x="342.687273" xlink:href="#maa9f947ee9" y="275.699429"/>
     <use style="fill:#9467bd;stroke:#9467bd;" x="73.832727" xlink:href="#maa9f947ee9" y="53.568"/>
     <use style="fill:#9467bd;stroke:#9467bd;" x="78.905455" xlink:href="#maa9f947ee9" y="58.930493"/>
     <use style="fill:#9467bd;stroke:#9467bd;" x="83.978182" xlink:href="#maa9f947ee9" y="106.480779"/>
     <use style="fill:#9467bd;stroke:#9467bd;" x="89.050909" xlink:href="#maa9f947ee9" y="157.768517"/>
     <use style="fill:#9467bd;stroke:#9467bd;" x="94.123636" xlink:href="#maa9f947ee9" y="179.425311"/>
     <use style="fill:#9467bd;stroke:#9467bd;" x="99.196364" xlink:href="#maa9f947ee9" y="198.255196"/>
     <use style="fill:#9467bd;stroke:#9467bd;" x="104.269091" xlink:href="#maa9f947ee9" y="214.13222"/>
     <use style="fill:#9467bd;stroke:#9467bd;" x="109.341818" xlink:href="#maa9f947ee9" y="241.543929"/>
     <use style="fill:#9467bd;stroke:#9467bd;" x="114.414545" xlink:href="#maa9f947ee9" y="247.404222"/>
     <use style="fill:#9467bd;stroke:#9467bd;" x="119.487273" xlink:href="#maa9f947ee9" y="253.651974"/>
     <use style="fill:#9467bd;stroke:#9467bd;" x="124.56" xlink:href="#maa9f947ee9" y="254.512834"/>
     <use style="fill:#9467bd;stroke:#9467bd;" x="129.632727" xlink:href="#maa9f947ee9" y="257.415609"/>
     <use style="fill:#9467bd;stroke:#9467bd;" x="134.705455" xlink:href="#maa9f947ee9" y="264.332458"/>
     <use style="fill:#9467bd;stroke:#9467bd;" x="139.778182" xlink:href="#maa9f947ee9" y="269.107515"/>
     <use style="fill:#9467bd;stroke:#9467bd;" x="144.850909" xlink:href="#maa9f947ee9" y="273.849331"/>
     <use style="fill:#9467bd;stroke:#9467bd;" x="149.923636" xlink:href="#maa9f947ee9" y="276.964935"/>
     <use style="fill:#9467bd;stroke:#9467bd;" x="154.996364" xlink:href="#maa9f947ee9" y="280.483809"/>
     <use style="fill:#9467bd;stroke:#9467bd;" x="160.069091" xlink:href="#maa9f947ee9" y="278.838812"/>
     <use style="fill:#9467bd;stroke:#9467bd;" x="165.141818" xlink:href="#maa9f947ee9" y="280.429457"/>
     <use style="fill:#9467bd;stroke:#9467bd;" x="170.214545" xlink:href="#maa9f947ee9" y="281.601593"/>
     <use style="fill:#9467bd;stroke:#9467bd;" x="175.287273" xlink:href="#maa9f947ee9" y="279.519929"/>
     <use style="fill:#9467bd;stroke:#9467bd;" x="180.36" xlink:href="#maa9f947ee9" y="277.053559"/>
     <use style="fill:#9467bd;stroke:#9467bd;" x="185.432727" xlink:href="#maa9f947ee9" y="278.2702"/>
     <use style="fill:#9467bd;stroke:#9467bd;" x="190.505455" xlink:href="#maa9f947ee9" y="281.840487"/>
     <use style="fill:#9467bd;stroke:#9467bd;" x="195.578182" xlink:href="#maa9f947ee9" y="282.675986"/>
     <use style="fill:#9467bd;stroke:#9467bd;" x="200.650909" xlink:href="#maa9f947ee9" y="282.918948"/>
    </g>
   </g>
   <g id="patch_3">
    <path d="M 57.6 307.584 
L 57.6 41.472 
" style="fill:none;stroke:#000000;stroke-linecap:square;stroke-linejoin:miter;stroke-width:0.8;"/>
   </g>
   <g id="patch_4">
    <path d="M 414.72 307.584 
L 414.72 41.472 
" style="fill:none;stroke:#000000;stroke-linecap:square;stroke-linejoin:miter;stroke-width:0.8;"/>
   </g>
   <g id="patch_5">
    <path d="M 57.6 307.584 
L 414.72 307.584 
" style="fill:none;stroke:#000000;stroke-linecap:square;stroke-linejoin:miter;stroke-width:0.8;"/>
   </g>
   <g id="patch_6">
    <path d="M 57.6 41.472 
L 414.72 41.472 
" style="fill:none;stroke:#000000;stroke-linecap:square;stroke-linejoin:miter;stroke-width:0.8;"/>
   </g>
   <g id="text_15">
    <!-- Simulated Risky Portfolio Shares -->
    <defs>
     <path d="M 53.515625 70.515625 
L 53.515625 60.890625 
Q 47.90625 63.578125 42.921875 64.890625 
Q 37.9375 66.21875 33.296875 66.21875 
Q 25.25 66.21875 20.875 63.09375 
Q 16.5 59.96875 16.5 54.203125 
Q 16.5 49.359375 19.40625 46.890625 
Q 22.3125 44.4375 30.421875 42.921875 
L 36.375 41.703125 
Q 47.40625 39.59375 52.65625 34.296875 
Q 57.90625 29 57.90625 20.125 
Q 57.90625 9.515625 50.796875 4.046875 
Q 43.703125 -1.421875 29.984375 -1.421875 
Q 24.8125 -1.421875 18.96875 -0.25 
Q 13.140625 0.921875 6.890625 3.21875 
L 6.890625 13.375 
Q 12.890625 10.015625 18.65625 8.296875 
Q 24.421875 6.59375 29.984375 6.59375 
Q 38.421875 6.59375 43.015625 9.90625 
Q 47.609375 13.234375 47.609375 19.390625 
Q 47.609375 24.75 44.3125 27.78125 
Q 41.015625 30.8125 33.5 32.328125 
L 27.484375 33.5 
Q 16.453125 35.6875 11.515625 40.375 
Q 6.59375 45.0625 6.59375 53.421875 
Q 6.59375 63.09375 13.40625 68.65625 
Q 20.21875 74.21875 32.171875 74.21875 
Q 37.3125 74.21875 42.625 73.28125 
Q 47.953125 72.359375 53.515625 70.515625 
z
" id="DejaVuSans-83"/>
     <path d="M 52 44.1875 
Q 55.375 50.25 60.0625 53.125 
Q 64.75 56 71.09375 56 
Q 79.640625 56 84.28125 50.015625 
Q 88.921875 44.046875 88.921875 33.015625 
L 88.921875 0 
L 79.890625 0 
L 79.890625 32.71875 
Q 79.890625 40.578125 77.09375 44.375 
Q 74.3125 48.1875 68.609375 48.1875 
Q 61.625 48.1875 57.5625 43.546875 
Q 53.515625 38.921875 53.515625 30.90625 
L 53.515625 0 
L 44.484375 0 
L 44.484375 32.71875 
Q 44.484375 40.625 41.703125 44.40625 
Q 38.921875 48.1875 33.109375 48.1875 
Q 26.21875 48.1875 22.15625 43.53125 
Q 18.109375 38.875 18.109375 30.90625 
L 18.109375 0 
L 9.078125 0 
L 9.078125 54.6875 
L 18.109375 54.6875 
L 18.109375 46.1875 
Q 21.1875 51.21875 25.484375 53.609375 
Q 29.78125 56 35.6875 56 
Q 41.65625 56 45.828125 52.96875 
Q 50 49.953125 52 44.1875 
z
" id="DejaVuSans-109"/>
     <path d="M 8.5 21.578125 
L 8.5 54.6875 
L 17.484375 54.6875 
L 17.484375 21.921875 
Q 17.484375 14.15625 20.5 10.265625 
Q 23.53125 6.390625 29.59375 6.390625 
Q 36.859375 6.390625 41.078125 11.03125 
Q 45.3125 15.671875 45.3125 23.6875 
L 45.3125 54.6875 
L 54.296875 54.6875 
L 54.296875 0 
L 45.3125 0 
L 45.3125 8.40625 
Q 42.046875 3.421875 37.71875 1 
Q 33.40625 -1.421875 27.6875 -1.421875 
Q 18.265625 -1.421875 13.375 4.4375 
Q 8.5 10.296875 8.5 21.578125 
z
M 31.109375 56 
z
" id="DejaVuSans-117"/>
     <path d="M 9.421875 75.984375 
L 18.40625 75.984375 
L 18.40625 0 
L 9.421875 0 
z
" id="DejaVuSans-108"/>
     <path d="M 18.3125 70.21875 
L 18.3125 54.6875 
L 36.8125 54.6875 
L 36.8125 47.703125 
L 18.3125 47.703125 
L 18.3125 18.015625 
Q 18.3125 11.328125 20.140625 9.421875 
Q 21.96875 7.515625 27.59375 7.515625 
L 36.8125 7.515625 
L 36.8125 0 
L 27.59375 0 
Q 17.1875 0 13.234375 3.875 
Q 9.28125 7.765625 9.28125 18.015625 
L 9.28125 47.703125 
L 2.6875 47.703125 
L 2.6875 54.6875 
L 9.28125 54.6875 
L 9.28125 70.21875 
z
" id="DejaVuSans-116"/>
     <path d="M 45.40625 46.390625 
L 45.40625 75.984375 
L 54.390625 75.984375 
L 54.390625 0 
L 45.40625 0 
L 45.40625 8.203125 
Q 42.578125 3.328125 38.25 0.953125 
Q 33.9375 -1.421875 27.875 -1.421875 
Q 17.96875 -1.421875 11.734375 6.484375 
Q 5.515625 14.40625 5.515625 27.296875 
Q 5.515625 40.1875 11.734375 48.09375 
Q 17.96875 56 27.875 56 
Q 33.9375 56 38.25 53.625 
Q 42.578125 51.265625 45.40625 46.390625 
z
M 14.796875 27.296875 
Q 14.796875 17.390625 18.875 11.75 
Q 22.953125 6.109375 30.078125 6.109375 
Q 37.203125 6.109375 41.296875 11.75 
Q 45.40625 17.390625 45.40625 27.296875 
Q 45.40625 37.203125 41.296875 42.84375 
Q 37.203125 48.484375 30.078125 48.484375 
Q 22.953125 48.484375 18.875 42.84375 
Q 14.796875 37.203125 14.796875 27.296875 
z
" id="DejaVuSans-100"/>
     <path d="M 19.671875 64.796875 
L 19.671875 37.40625 
L 32.078125 37.40625 
Q 38.96875 37.40625 42.71875 40.96875 
Q 46.484375 44.53125 46.484375 51.125 
Q 46.484375 57.671875 42.71875 61.234375 
Q 38.96875 64.796875 32.078125 64.796875 
z
M 9.8125 72.90625 
L 32.078125 72.90625 
Q 44.34375 72.90625 50.609375 67.359375 
Q 56.890625 61.8125 56.890625 51.125 
Q 56.890625 40.328125 50.609375 34.8125 
Q 44.34375 29.296875 32.078125 29.296875 
L 19.671875 29.296875 
L 19.671875 0 
L 9.8125 0 
z
" id="DejaVuSans-80"/>
     <path d="M 30.609375 48.390625 
Q 23.390625 48.390625 19.1875 42.75 
Q 14.984375 37.109375 14.984375 27.296875 
Q 14.984375 17.484375 19.15625 11.84375 
Q 23.34375 6.203125 30.609375 6.203125 
Q 37.796875 6.203125 41.984375 11.859375 
Q 46.1875 17.53125 46.1875 27.296875 
Q 46.1875 37.015625 41.984375 42.703125 
Q 37.796875 48.390625 30.609375 48.390625 
z
M 30.609375 56 
Q 42.328125 56 49.015625 48.375 
Q 55.71875 40.765625 55.71875 27.296875 
Q 55.71875 13.875 49.015625 6.21875 
Q 42.328125 -1.421875 30.609375 -1.421875 
Q 18.84375 -1.421875 12.171875 6.21875 
Q 5.515625 13.875 5.515625 27.296875 
Q 5.515625 40.765625 12.171875 48.375 
Q 18.84375 56 30.609375 56 
z
" id="DejaVuSans-111"/>
     <path d="M 37.109375 75.984375 
L 37.109375 68.5 
L 28.515625 68.5 
Q 23.6875 68.5 21.796875 66.546875 
Q 19.921875 64.59375 19.921875 59.515625 
L 19.921875 54.6875 
L 34.71875 54.6875 
L 34.71875 47.703125 
L 19.921875 47.703125 
L 19.921875 0 
L 10.890625 0 
L 10.890625 47.703125 
L 2.296875 47.703125 
L 2.296875 54.6875 
L 10.890625 54.6875 
L 10.890625 58.5 
Q 10.890625 67.625 15.140625 71.796875 
Q 19.390625 75.984375 28.609375 75.984375 
z
" id="DejaVuSans-102"/>
    </defs>
    <g transform="translate(138.67125 35.472)scale(0.12 -0.12)">
     <use xlink:href="#DejaVuSans-83"/>
     <use x="63.476562" xlink:href="#DejaVuSans-105"/>
     <use x="91.259766" xlink:href="#DejaVuSans-109"/>
     <use x="188.671875" xlink:href="#DejaVuSans-117"/>
     <use x="252.050781" xlink:href="#DejaVuSans-108"/>
     <use x="279.833984" xlink:href="#DejaVuSans-97"/>
     <use x="341.113281" xlink:href="#DejaVuSans-116"/>
     <use x="380.322266" xlink:href="#DejaVuSans-101"/>
     <use x="441.845703" xlink:href="#DejaVuSans-100"/>
     <use x="505.322266" xlink:href="#DejaVuSans-32"/>
     <use x="537.109375" xlink:href="#DejaVuSans-82"/>
     <use x="606.591797" xlink:href="#DejaVuSans-105"/>
     <use x="634.375" xlink:href="#DejaVuSans-115"/>
     <use x="686.474609" xlink:href="#DejaVuSans-107"/>
     <use x="744.337891" xlink:href="#DejaVuSans-121"/>
     <use x="803.517578" xlink:href="#DejaVuSans-32"/>
     <use x="835.304688" xlink:href="#DejaVuSans-80"/>
     <use x="895.560547" xlink:href="#DejaVuSans-111"/>
     <use x="956.742188" xlink:href="#DejaVuSans-114"/>
     <use x="997.855469" xlink:href="#DejaVuSans-116"/>
     <use x="1037.064453" xlink:href="#DejaVuSans-102"/>
     <use x="1072.269531" xlink:href="#DejaVuSans-111"/>
     <use x="1133.451172" xlink:href="#DejaVuSans-108"/>
     <use x="1161.234375" xlink:href="#DejaVuSans-105"/>
     <use x="1189.017578" xlink:href="#DejaVuSans-111"/>
     <use x="1250.199219" xlink:href="#DejaVuSans-32"/>
     <use x="1281.986328" xlink:href="#DejaVuSans-83"/>
     <use x="1345.462891" xlink:href="#DejaVuSans-104"/>
     <use x="1408.841797" xlink:href="#DejaVuSans-97"/>
     <use x="1470.121094" xlink:href="#DejaVuSans-114"/>
     <use x="1511.203125" xlink:href="#DejaVuSans-101"/>
     <use x="1572.726562" xlink:href="#DejaVuSans-115"/>
    </g>
   </g>
  </g>
 </g>
 <defs>
  <clipPath id="p6ad0067e29">
   <rect height="266.112" width="357.12" x="57.6" y="41.472"/>
  </clipPath>
 </defs>
</svg>
