<?xml version="1.0" encoding="utf-8" standalone="no"?>
<!DOCTYPE svg PUBLIC "-//W3C//DTD SVG 1.1//EN"
  "http://www.w3.org/Graphics/SVG/1.1/DTD/svg11.dtd">
<!-- Created with matplotlib (https://matplotlib.org/) -->
<svg height="288pt" version="1.1" viewBox="0 0 432 288" width="432pt" xmlns="http://www.w3.org/2000/svg" xmlns:xlink="http://www.w3.org/1999/xlink">
 <defs>
  <style type="text/css">
*{stroke-linecap:butt;stroke-linejoin:round;}
  </style>
 </defs>
 <g id="figure_1">
  <g id="patch_1">
   <path d="M 0 288 
L 432 288 
L 432 0 
L 0 0 
z
" style="fill:#ffffff;"/>
  </g>
  <g id="axes_1">
   <g id="patch_2">
    <path d="M 54 252 
L 388.8 252 
L 388.8 34.56 
L 54 34.56 
z
" style="fill:#ffffff;"/>
   </g>
   <g id="matplotlib.axis_1">
    <g id="xtick_1">
     <g id="line2d_1">
      <defs>
       <path d="M 0 0 
L 0 3.5 
" id="mf9bf69ae11" style="stroke:#000000;stroke-width:0.8;"/>
      </defs>
      <g>
       <use style="stroke:#000000;stroke-width:0.8;" x="69.218182" xlink:href="#mf9bf69ae11" y="252"/>
      </g>
     </g>
     <g id="text_1">
      <!-- 0 -->
      <defs>
       <path d="M 31.78125 66.40625 
Q 24.171875 66.40625 20.328125 58.90625 
Q 16.5 51.421875 16.5 36.375 
Q 16.5 21.390625 20.328125 13.890625 
Q 24.171875 6.390625 31.78125 6.390625 
Q 39.453125 6.390625 43.28125 13.890625 
Q 47.125 21.390625 47.125 36.375 
Q 47.125 51.421875 43.28125 58.90625 
Q 39.453125 66.40625 31.78125 66.40625 
z
M 31.78125 74.21875 
Q 44.046875 74.21875 50.515625 64.515625 
Q 56.984375 54.828125 56.984375 36.375 
Q 56.984375 17.96875 50.515625 8.265625 
Q 44.046875 -1.421875 31.78125 -1.421875 
Q 19.53125 -1.421875 13.0625 8.265625 
Q 6.59375 17.96875 6.59375 36.375 
Q 6.59375 54.828125 13.0625 64.515625 
Q 19.53125 74.21875 31.78125 74.21875 
z
" id="DejaVuSans-48"/>
      </defs>
      <g transform="translate(66.036932 266.598437)scale(0.1 -0.1)">
       <use xlink:href="#DejaVuSans-48"/>
      </g>
     </g>
    </g>
    <g id="xtick_2">
     <g id="line2d_2">
      <g>
       <use style="stroke:#000000;stroke-width:0.8;" x="130.090909" xlink:href="#mf9bf69ae11" y="252"/>
      </g>
     </g>
     <g id="text_2">
      <!-- 2 -->
      <defs>
       <path d="M 19.1875 8.296875 
L 53.609375 8.296875 
L 53.609375 0 
L 7.328125 0 
L 7.328125 8.296875 
Q 12.9375 14.109375 22.625 23.890625 
Q 32.328125 33.6875 34.8125 36.53125 
Q 39.546875 41.84375 41.421875 45.53125 
Q 43.3125 49.21875 43.3125 52.78125 
Q 43.3125 58.59375 39.234375 62.25 
Q 35.15625 65.921875 28.609375 65.921875 
Q 23.96875 65.921875 18.8125 64.3125 
Q 13.671875 62.703125 7.8125 59.421875 
L 7.8125 69.390625 
Q 13.765625 71.78125 18.9375 73 
Q 24.125 74.21875 28.421875 74.21875 
Q 39.75 74.21875 46.484375 68.546875 
Q 53.21875 62.890625 53.21875 53.421875 
Q 53.21875 48.921875 51.53125 44.890625 
Q 49.859375 40.875 45.40625 35.40625 
Q 44.1875 33.984375 37.640625 27.21875 
Q 31.109375 20.453125 19.1875 8.296875 
z
" id="DejaVuSans-50"/>
      </defs>
      <g transform="translate(126.909659 266.598437)scale(0.1 -0.1)">
       <use xlink:href="#DejaVuSans-50"/>
      </g>
     </g>
    </g>
    <g id="xtick_3">
     <g id="line2d_3">
      <g>
       <use style="stroke:#000000;stroke-width:0.8;" x="190.963636" xlink:href="#mf9bf69ae11" y="252"/>
      </g>
     </g>
     <g id="text_3">
      <!-- 4 -->
      <defs>
       <path d="M 37.796875 64.3125 
L 12.890625 25.390625 
L 37.796875 25.390625 
z
M 35.203125 72.90625 
L 47.609375 72.90625 
L 47.609375 25.390625 
L 58.015625 25.390625 
L 58.015625 17.1875 
L 47.609375 17.1875 
L 47.609375 0 
L 37.796875 0 
L 37.796875 17.1875 
L 4.890625 17.1875 
L 4.890625 26.703125 
z
" id="DejaVuSans-52"/>
      </defs>
      <g transform="translate(187.782386 266.598437)scale(0.1 -0.1)">
       <use xlink:href="#DejaVuSans-52"/>
      </g>
     </g>
    </g>
    <g id="xtick_4">
     <g id="line2d_4">
      <g>
       <use style="stroke:#000000;stroke-width:0.8;" x="251.836364" xlink:href="#mf9bf69ae11" y="252"/>
      </g>
     </g>
     <g id="text_4">
      <!-- 6 -->
      <defs>
       <path d="M 33.015625 40.375 
Q 26.375 40.375 22.484375 35.828125 
Q 18.609375 31.296875 18.609375 23.390625 
Q 18.609375 15.53125 22.484375 10.953125 
Q 26.375 6.390625 33.015625 6.390625 
Q 39.65625 6.390625 43.53125 10.953125 
Q 47.40625 15.53125 47.40625 23.390625 
Q 47.40625 31.296875 43.53125 35.828125 
Q 39.65625 40.375 33.015625 40.375 
z
M 52.59375 71.296875 
L 52.59375 62.3125 
Q 48.875 64.0625 45.09375 64.984375 
Q 41.3125 65.921875 37.59375 65.921875 
Q 27.828125 65.921875 22.671875 59.328125 
Q 17.53125 52.734375 16.796875 39.40625 
Q 19.671875 43.65625 24.015625 45.921875 
Q 28.375 48.1875 33.59375 48.1875 
Q 44.578125 48.1875 50.953125 41.515625 
Q 57.328125 34.859375 57.328125 23.390625 
Q 57.328125 12.15625 50.6875 5.359375 
Q 44.046875 -1.421875 33.015625 -1.421875 
Q 20.359375 -1.421875 13.671875 8.265625 
Q 6.984375 17.96875 6.984375 36.375 
Q 6.984375 53.65625 15.1875 63.9375 
Q 23.390625 74.21875 37.203125 74.21875 
Q 40.921875 74.21875 44.703125 73.484375 
Q 48.484375 72.75 52.59375 71.296875 
z
" id="DejaVuSans-54"/>
      </defs>
      <g transform="translate(248.655114 266.598437)scale(0.1 -0.1)">
       <use xlink:href="#DejaVuSans-54"/>
      </g>
     </g>
    </g>
    <g id="xtick_5">
     <g id="line2d_5">
      <g>
       <use style="stroke:#000000;stroke-width:0.8;" x="312.709091" xlink:href="#mf9bf69ae11" y="252"/>
      </g>
     </g>
     <g id="text_5">
      <!-- 8 -->
      <defs>
       <path d="M 31.78125 34.625 
Q 24.75 34.625 20.71875 30.859375 
Q 16.703125 27.09375 16.703125 20.515625 
Q 16.703125 13.921875 20.71875 10.15625 
Q 24.75 6.390625 31.78125 6.390625 
Q 38.8125 6.390625 42.859375 10.171875 
Q 46.921875 13.96875 46.921875 20.515625 
Q 46.921875 27.09375 42.890625 30.859375 
Q 38.875 34.625 31.78125 34.625 
z
M 21.921875 38.8125 
Q 15.578125 40.375 12.03125 44.71875 
Q 8.5 49.078125 8.5 55.328125 
Q 8.5 64.0625 14.71875 69.140625 
Q 20.953125 74.21875 31.78125 74.21875 
Q 42.671875 74.21875 48.875 69.140625 
Q 55.078125 64.0625 55.078125 55.328125 
Q 55.078125 49.078125 51.53125 44.71875 
Q 48 40.375 41.703125 38.8125 
Q 48.828125 37.15625 52.796875 32.3125 
Q 56.78125 27.484375 56.78125 20.515625 
Q 56.78125 9.90625 50.3125 4.234375 
Q 43.84375 -1.421875 31.78125 -1.421875 
Q 19.734375 -1.421875 13.25 4.234375 
Q 6.78125 9.90625 6.78125 20.515625 
Q 6.78125 27.484375 10.78125 32.3125 
Q 14.796875 37.15625 21.921875 38.8125 
z
M 18.3125 54.390625 
Q 18.3125 48.734375 21.84375 45.5625 
Q 25.390625 42.390625 31.78125 42.390625 
Q 38.140625 42.390625 41.71875 45.5625 
Q 45.3125 48.734375 45.3125 54.390625 
Q 45.3125 60.0625 41.71875 63.234375 
Q 38.140625 66.40625 31.78125 66.40625 
Q 25.390625 66.40625 21.84375 63.234375 
Q 18.3125 60.0625 18.3125 54.390625 
z
" id="DejaVuSans-56"/>
      </defs>
      <g transform="translate(309.527841 266.598437)scale(0.1 -0.1)">
       <use xlink:href="#DejaVuSans-56"/>
      </g>
     </g>
    </g>
    <g id="xtick_6">
     <g id="line2d_6">
      <g>
       <use style="stroke:#000000;stroke-width:0.8;" x="373.581818" xlink:href="#mf9bf69ae11" y="252"/>
      </g>
     </g>
     <g id="text_6">
      <!-- 10 -->
      <defs>
       <path d="M 12.40625 8.296875 
L 28.515625 8.296875 
L 28.515625 63.921875 
L 10.984375 60.40625 
L 10.984375 69.390625 
L 28.421875 72.90625 
L 38.28125 72.90625 
L 38.28125 8.296875 
L 54.390625 8.296875 
L 54.390625 0 
L 12.40625 0 
z
" id="DejaVuSans-49"/>
      </defs>
      <g transform="translate(367.219318 266.598437)scale(0.1 -0.1)">
       <use xlink:href="#DejaVuSans-49"/>
       <use x="63.623047" xlink:href="#DejaVuSans-48"/>
      </g>
     </g>
    </g>
   </g>
   <g id="matplotlib.axis_2">
    <g id="ytick_1">
     <g id="line2d_7">
      <defs>
       <path d="M 0 0 
L -3.5 0 
" id="m64392cc8da" style="stroke:#000000;stroke-width:0.8;"/>
      </defs>
      <g>
       <use style="stroke:#000000;stroke-width:0.8;" x="54" xlink:href="#m64392cc8da" y="242.116364"/>
      </g>
     </g>
     <g id="text_7">
      <!-- 0.0 -->
      <defs>
       <path d="M 10.6875 12.40625 
L 21 12.40625 
L 21 0 
L 10.6875 0 
z
" id="DejaVuSans-46"/>
      </defs>
      <g transform="translate(31.096875 245.915582)scale(0.1 -0.1)">
       <use xlink:href="#DejaVuSans-48"/>
       <use x="63.623047" xlink:href="#DejaVuSans-46"/>
       <use x="95.410156" xlink:href="#DejaVuSans-48"/>
      </g>
     </g>
    </g>
    <g id="ytick_2">
     <g id="line2d_8">
      <g>
       <use style="stroke:#000000;stroke-width:0.8;" x="54" xlink:href="#m64392cc8da" y="215.54218"/>
      </g>
     </g>
     <g id="text_8">
      <!-- 0.5 -->
      <defs>
       <path d="M 10.796875 72.90625 
L 49.515625 72.90625 
L 49.515625 64.59375 
L 19.828125 64.59375 
L 19.828125 46.734375 
Q 21.96875 47.46875 24.109375 47.828125 
Q 26.265625 48.1875 28.421875 48.1875 
Q 40.625 48.1875 47.75 41.5 
Q 54.890625 34.8125 54.890625 23.390625 
Q 54.890625 11.625 47.5625 5.09375 
Q 40.234375 -1.421875 26.90625 -1.421875 
Q 22.3125 -1.421875 17.546875 -0.640625 
Q 12.796875 0.140625 7.71875 1.703125 
L 7.71875 11.625 
Q 12.109375 9.234375 16.796875 8.0625 
Q 21.484375 6.890625 26.703125 6.890625 
Q 35.15625 6.890625 40.078125 11.328125 
Q 45.015625 15.765625 45.015625 23.390625 
Q 45.015625 31 40.078125 35.4375 
Q 35.15625 39.890625 26.703125 39.890625 
Q 22.75 39.890625 18.8125 39.015625 
Q 14.890625 38.140625 10.796875 36.28125 
z
" id="DejaVuSans-53"/>
      </defs>
      <g transform="translate(31.096875 219.341398)scale(0.1 -0.1)">
       <use xlink:href="#DejaVuSans-48"/>
       <use x="63.623047" xlink:href="#DejaVuSans-46"/>
       <use x="95.410156" xlink:href="#DejaVuSans-53"/>
      </g>
     </g>
    </g>
    <g id="ytick_3">
     <g id="line2d_9">
      <g>
       <use style="stroke:#000000;stroke-width:0.8;" x="54" xlink:href="#m64392cc8da" y="188.967996"/>
      </g>
     </g>
     <g id="text_9">
      <!-- 1.0 -->
      <g transform="translate(31.096875 192.767214)scale(0.1 -0.1)">
       <use xlink:href="#DejaVuSans-49"/>
       <use x="63.623047" xlink:href="#DejaVuSans-46"/>
       <use x="95.410156" xlink:href="#DejaVuSans-48"/>
      </g>
     </g>
    </g>
    <g id="ytick_4">
     <g id="line2d_10">
      <g>
       <use style="stroke:#000000;stroke-width:0.8;" x="54" xlink:href="#m64392cc8da" y="162.393811"/>
      </g>
     </g>
     <g id="text_10">
      <!-- 1.5 -->
      <g transform="translate(31.096875 166.19303)scale(0.1 -0.1)">
       <use xlink:href="#DejaVuSans-49"/>
       <use x="63.623047" xlink:href="#DejaVuSans-46"/>
       <use x="95.410156" xlink:href="#DejaVuSans-53"/>
      </g>
     </g>
    </g>
    <g id="ytick_5">
     <g id="line2d_11">
      <g>
       <use style="stroke:#000000;stroke-width:0.8;" x="54" xlink:href="#m64392cc8da" y="135.819627"/>
      </g>
     </g>
     <g id="text_11">
      <!-- 2.0 -->
      <g transform="translate(31.096875 139.618846)scale(0.1 -0.1)">
       <use xlink:href="#DejaVuSans-50"/>
       <use x="63.623047" xlink:href="#DejaVuSans-46"/>
       <use x="95.410156" xlink:href="#DejaVuSans-48"/>
      </g>
     </g>
    </g>
    <g id="ytick_6">
     <g id="line2d_12">
      <g>
       <use style="stroke:#000000;stroke-width:0.8;" x="54" xlink:href="#m64392cc8da" y="109.245443"/>
      </g>
     </g>
     <g id="text_12">
      <!-- 2.5 -->
      <g transform="translate(31.096875 113.044662)scale(0.1 -0.1)">
       <use xlink:href="#DejaVuSans-50"/>
       <use x="63.623047" xlink:href="#DejaVuSans-46"/>
       <use x="95.410156" xlink:href="#DejaVuSans-53"/>
      </g>
     </g>
    </g>
    <g id="ytick_7">
     <g id="line2d_13">
      <g>
       <use style="stroke:#000000;stroke-width:0.8;" x="54" xlink:href="#m64392cc8da" y="82.671259"/>
      </g>
     </g>
     <g id="text_13">
      <!-- 3.0 -->
      <defs>
       <path d="M 40.578125 39.3125 
Q 47.65625 37.796875 51.625 33 
Q 55.609375 28.21875 55.609375 21.1875 
Q 55.609375 10.40625 48.1875 4.484375 
Q 40.765625 -1.421875 27.09375 -1.421875 
Q 22.515625 -1.421875 17.65625 -0.515625 
Q 12.796875 0.390625 7.625 2.203125 
L 7.625 11.71875 
Q 11.71875 9.328125 16.59375 8.109375 
Q 21.484375 6.890625 26.8125 6.890625 
Q 36.078125 6.890625 40.9375 10.546875 
Q 45.796875 14.203125 45.796875 21.1875 
Q 45.796875 27.640625 41.28125 31.265625 
Q 36.765625 34.90625 28.71875 34.90625 
L 20.21875 34.90625 
L 20.21875 43.015625 
L 29.109375 43.015625 
Q 36.375 43.015625 40.234375 45.921875 
Q 44.09375 48.828125 44.09375 54.296875 
Q 44.09375 59.90625 40.109375 62.90625 
Q 36.140625 65.921875 28.71875 65.921875 
Q 24.65625 65.921875 20.015625 65.03125 
Q 15.375 64.15625 9.8125 62.3125 
L 9.8125 71.09375 
Q 15.4375 72.65625 20.34375 73.4375 
Q 25.25 74.21875 29.59375 74.21875 
Q 40.828125 74.21875 47.359375 69.109375 
Q 53.90625 64.015625 53.90625 55.328125 
Q 53.90625 49.265625 50.4375 45.09375 
Q 46.96875 40.921875 40.578125 39.3125 
z
" id="DejaVuSans-51"/>
      </defs>
      <g transform="translate(31.096875 86.470478)scale(0.1 -0.1)">
       <use xlink:href="#DejaVuSans-51"/>
       <use x="63.623047" xlink:href="#DejaVuSans-46"/>
       <use x="95.410156" xlink:href="#DejaVuSans-48"/>
      </g>
     </g>
    </g>
    <g id="ytick_8">
     <g id="line2d_14">
      <g>
       <use style="stroke:#000000;stroke-width:0.8;" x="54" xlink:href="#m64392cc8da" y="56.097075"/>
      </g>
     </g>
     <g id="text_14">
      <!-- 3.5 -->
      <g transform="translate(31.096875 59.896294)scale(0.1 -0.1)">
       <use xlink:href="#DejaVuSans-51"/>
       <use x="63.623047" xlink:href="#DejaVuSans-46"/>
       <use x="95.410156" xlink:href="#DejaVuSans-53"/>
      </g>
     </g>
    </g>
   </g>
   <g id="line2d_15">
    <path clip-path="url(#p5a02d87b59)" d="M 69.218182 242.116364 
L 73.806578 234.969663 
L 79.92444 225.538012 
L 82.983371 221.842878 
L 84.512837 220.099823 
L 87.571768 217.628555 
L 90.630699 215.952606 
L 93.68963 214.804927 
L 96.748561 214.019159 
L 99.807492 213.463174 
L 104.395889 212.902048 
L 108.984285 212.518497 
L 115.102147 212.152861 
L 125.808406 211.714508 
L 145.691457 211.15264 
L 190.045957 210.189379 
L 321.579991 207.624552 
L 373.581818 206.625243 
L 373.581818 206.625243 
" style="fill:none;stroke:#1f77b4;stroke-linecap:square;stroke-width:1.5;"/>
   </g>
   <g id="line2d_16">
    <path clip-path="url(#p5a02d87b59)" d="M 69.218182 242.116364 
L 78.394975 227.416631 
L 84.512837 217.689263 
L 92.160164 207.080235 
L 96.748561 201.707323 
L 99.807492 198.723364 
L 102.866423 196.215429 
L 104.395889 195.068533 
L 107.45482 193.169705 
L 110.513751 191.629683 
L 113.572682 190.364323 
L 116.631613 189.302486 
L 121.220009 188.038964 
L 125.808406 187.067677 
L 133.455733 185.92486 
L 139.573595 185.260707 
L 150.279854 184.477103 
L 162.515578 183.849829 
L 179.339698 183.229869 
L 202.281681 182.586257 
L 237.459388 181.762679 
L 362.87556 179.217701 
L 373.581818 179.007827 
L 373.581818 179.007827 
" style="fill:none;stroke:#ff7f0e;stroke-linecap:square;stroke-width:1.5;"/>
   </g>
   <g id="line2d_17">
    <path clip-path="url(#p5a02d87b59)" d="M 69.218182 242.116364 
L 81.453906 222.304525 
L 87.571768 212.553653 
L 96.748561 198.972684 
L 102.866423 190.783609 
L 108.984285 183.705365 
L 113.572682 179.154033 
L 118.161078 175.291426 
L 122.749475 172.057502 
L 127.337871 169.362498 
L 133.455733 166.490951 
L 139.573595 164.207639 
L 145.691457 162.342015 
L 153.338785 160.524214 
L 162.515578 158.900662 
L 173.221836 157.510351 
L 186.987026 156.270719 
L 206.870078 155.081724 
L 231.341526 154.052064 
L 266.519233 152.964521 
L 318.52106 151.687758 
L 373.581818 150.4948 
L 373.581818 150.4948 
" style="fill:none;stroke:#2ca02c;stroke-linecap:square;stroke-width:1.5;"/>
   </g>
   <g id="line2d_18">
    <path clip-path="url(#p5a02d87b59)" d="M 69.218182 242.116364 
L 82.983371 219.756823 
L 89.101233 210.031753 
L 98.278026 196.18661 
L 105.925354 185.668915 
L 112.043216 178.169461 
L 116.631613 173.178086 
L 121.220009 168.815587 
L 124.27894 166.252525 
L 127.337871 163.835859 
L 133.455733 159.818806 
L 138.04413 157.223262 
L 144.161992 154.384171 
L 151.809319 151.455183 
L 159.456647 149.100565 
L 168.63344 146.874677 
L 180.869164 144.659629 
L 194.634354 142.883007 
L 212.98794 141.220563 
L 235.929922 139.746052 
L 268.048698 138.30568 
L 312.403198 136.868874 
L 373.581818 135.318606 
L 373.581818 135.318606 
" style="fill:none;stroke:#d62728;stroke-linecap:square;stroke-width:1.5;"/>
   </g>
   <g id="line2d_19">
    <path clip-path="url(#p5a02d87b59)" d="M 69.218182 242.116364 
L 82.983371 219.729945 
L 89.101233 209.951186 
L 99.807492 193.794453 
L 107.45482 183.219225 
L 113.572682 175.608427 
L 118.161078 170.484676 
L 122.749475 165.966951 
L 125.808406 163.269638 
L 128.867337 160.714991 
L 134.985199 156.415002 
L 141.103061 152.82588 
L 147.220923 149.847506 
L 153.338785 147.25139 
L 162.515578 144.182013 
L 171.692371 141.725632 
L 182.39863 139.457584 
L 197.693285 137.176639 
L 216.046871 135.219244 
L 238.988853 133.465358 
L 269.578164 131.818148 
L 312.403198 130.189848 
L 373.581818 128.463016 
L 373.581818 128.463016 
" style="fill:none;stroke:#9467bd;stroke-linecap:square;stroke-width:1.5;"/>
   </g>
   <g id="line2d_20">
    <path clip-path="url(#p5a02d87b59)" d="M 69.218182 242.116364 
L 84.512837 217.224675 
L 89.101233 209.897739 
L 99.807492 193.614982 
L 107.45482 182.852699 
L 113.572682 175.032702 
L 119.690544 168.063935 
L 125.808406 162.059505 
L 130.396802 158.127949 
L 136.514664 153.688772 
L 142.632526 149.945266 
L 148.750388 146.811591 
L 156.397716 143.495725 
L 164.045043 140.769115 
L 174.751302 137.740135 
L 185.457561 135.332762 
L 199.22275 133.043187 
L 217.576336 130.829206 
L 240.518319 128.819145 
L 271.107629 126.933044 
L 313.932663 125.094234 
L 373.581818 123.242827 
L 373.581818 123.242827 
" style="fill:none;stroke:#8c564b;stroke-linecap:square;stroke-width:1.5;"/>
   </g>
   <g id="line2d_21">
    <path clip-path="url(#p5a02d87b59)" d="M 69.218182 242.116364 
L 84.512837 217.219941 
L 89.101233 209.88561 
L 99.807492 193.574265 
L 107.45482 182.76957 
L 115.102147 173.122526 
L 119.690544 167.885397 
L 125.808406 161.779426 
L 131.926268 156.646968 
L 136.514664 153.269039 
L 142.632526 149.45032 
L 148.750388 146.252798 
L 156.397716 142.860293 
L 164.045043 140.064564 
L 174.751302 136.955 
L 185.457561 134.467924 
L 200.752216 131.90495 
L 219.105802 129.666555 
L 242.047784 127.623238 
L 272.637095 125.697941 
L 313.932663 123.869103 
L 373.581818 121.970521 
L 373.581818 121.970521 
" style="fill:none;stroke:#e377c2;stroke-linecap:square;stroke-width:1.5;"/>
   </g>
   <g id="line2d_22">
    <path clip-path="url(#p5a02d87b59)" d="M 69.218182 242.116364 
L 84.512837 217.215358 
L 89.101233 209.873945 
L 99.807492 193.535165 
L 107.45482 182.691298 
L 115.102147 172.983072 
L 121.220009 166.120643 
L 125.808406 161.508218 
L 131.926268 156.304643 
L 136.514664 152.874942 
L 142.632526 148.969172 
L 150.279854 145.010959 
L 156.397716 142.241797 
L 165.574509 138.915387 
L 174.751302 136.190529 
L 186.987026 133.352798 
L 200.752216 130.979654 
L 219.105802 128.664122 
L 242.047784 126.546619 
L 272.637095 124.550901 
L 315.462129 122.608802 
L 373.581818 120.713183 
L 373.581818 120.713183 
" style="fill:none;stroke:#7f7f7f;stroke-linecap:square;stroke-width:1.5;"/>
   </g>
   <g id="line2d_23">
    <path clip-path="url(#p5a02d87b59)" d="M 69.218182 242.116364 
L 84.512837 217.198407 
L 89.101233 209.831414 
L 101.336958 191.210792 
L 108.984285 180.411638 
L 115.102147 172.472501 
L 121.220009 165.368674 
L 127.337871 159.154683 
L 133.455733 153.86138 
L 138.04413 150.337212 
L 144.161992 146.332148 
L 151.809319 142.224981 
L 157.927181 139.33469 
L 167.103974 135.829023 
L 176.280767 132.930423 
L 188.516492 129.867667 
L 202.281681 127.272828 
L 220.635267 124.709145 
L 243.57725 122.342564 
L 274.16656 120.088227 
L 316.991594 117.907525 
L 373.581818 115.857111 
L 373.581818 115.857111 
" style="fill:none;stroke:#bcbd22;stroke-linecap:square;stroke-width:1.5;"/>
   </g>
   <g id="line2d_24">
    <path clip-path="url(#p5a02d87b59)" d="M 69.218182 242.116364 
L 86.042302 214.688096 
L 90.630699 207.425563 
L 101.336958 191.04288 
L 108.984285 180.073216 
L 116.631613 170.109062 
L 122.749475 162.938833 
L 128.867337 156.631094 
L 134.985199 151.198516 
L 139.573595 147.565431 
L 145.691457 143.402435 
L 153.338785 139.094725 
L 160.986112 135.419052 
L 168.63344 132.312675 
L 179.339698 128.777774 
L 190.045957 125.855391 
L 205.340612 122.744376 
L 223.694198 119.934087 
L 246.636181 117.30487 
L 277.225491 114.758588 
L 318.52106 112.344616 
L 373.581818 110.050356 
L 373.581818 110.050356 
" style="fill:none;stroke:#17becf;stroke-linecap:square;stroke-width:1.5;"/>
   </g>
   <g id="line2d_25">
    <path clip-path="url(#p5a02d87b59)" d="M 69.218182 242.116364 
L 87.571768 212.129471 
L 92.160164 204.891218 
L 102.866423 188.330421 
L 112.043216 174.967179 
L 119.690544 164.647223 
L 127.337871 155.341315 
L 133.455733 148.668573 
L 139.573595 142.748445 
L 145.691457 137.526476 
L 151.809319 132.98967 
L 159.456647 128.154991 
L 167.103974 123.970556 
L 176.280767 119.717427 
L 186.987026 115.577808 
L 199.22275 111.643582 
L 212.98794 108.08755 
L 232.870991 104.126234 
L 255.812974 100.579853 
L 286.402284 96.964565 
L 327.697853 93.361369 
L 373.581818 90.389514 
L 373.581818 90.389514 
" style="fill:none;stroke:#1f77b4;stroke-linecap:square;stroke-width:1.5;"/>
   </g>
   <g id="line2d_26">
    <path clip-path="url(#p5a02d87b59)" d="M 69.218182 242.116364 
L 89.101233 209.581219 
L 102.866423 187.993993 
L 115.102147 170.014598 
L 122.749475 159.520687 
L 130.396802 149.902712 
L 136.514664 142.861306 
L 144.161992 135.09072 
L 150.279854 129.574218 
L 156.397716 124.673339 
L 164.045043 119.351643 
L 173.221836 113.940892 
L 182.39863 109.251915 
L 193.104888 104.627312 
L 205.340612 100.132048 
L 220.635267 95.564993 
L 238.988853 91.147531 
L 263.460302 86.507847 
L 294.049612 81.950698 
L 336.874646 77.098387 
L 373.581818 73.9371 
L 373.581818 73.9371 
" style="fill:none;stroke:#ff7f0e;stroke-linecap:square;stroke-width:1.5;"/>
   </g>
   <g id="line2d_27">
    <path clip-path="url(#p5a02d87b59)" d="M 69.218182 242.116364 
L 89.101233 209.501951 
L 96.748561 197.342617 
L 107.45482 180.569868 
L 118.161078 164.486088 
L 127.337871 151.433956 
L 136.514664 139.316505 
L 144.161992 130.023472 
L 151.809319 121.618108 
L 159.456647 114.091531 
L 165.574509 108.605499 
L 173.221836 102.600956 
L 177.810233 99.396242 
L 183.928095 95.309128 
L 193.104888 89.821741 
L 205.340612 83.653502 
L 217.576336 78.248135 
L 234.400457 72.048931 
L 254.283508 66.035926 
L 278.754957 59.987974 
L 310.873732 53.599689 
L 352.169301 47.012779 
L 373.581818 44.443636 
L 373.581818 44.443636 
" style="fill:none;stroke:#2ca02c;stroke-linecap:square;stroke-width:1.5;"/>
   </g>
   <g id="patch_3">
    <path d="M 54 252 
L 54 34.56 
" style="fill:none;stroke:#000000;stroke-linecap:square;stroke-linejoin:miter;stroke-width:0.8;"/>
   </g>
   <g id="patch_4">
    <path d="M 388.8 252 
L 388.8 34.56 
" style="fill:none;stroke:#000000;stroke-linecap:square;stroke-linejoin:miter;stroke-width:0.8;"/>
   </g>
   <g id="patch_5">
    <path d="M 54 252 
L 388.8 252 
" style="fill:none;stroke:#000000;stroke-linecap:square;stroke-linejoin:miter;stroke-width:0.8;"/>
   </g>
   <g id="patch_6">
    <path d="M 54 34.56 
L 388.8 34.56 
" style="fill:none;stroke:#000000;stroke-linecap:square;stroke-linejoin:miter;stroke-width:0.8;"/>
   </g>
  </g>
 </g>
 <defs>
  <clipPath id="p5a02d87b59">
   <rect height="217.44" width="334.8" x="54" y="34.56"/>
  </clipPath>
 </defs>
</svg>
