<?xml version="1.0" encoding="utf-8" standalone="no"?>
<!DOCTYPE svg PUBLIC "-//W3C//DTD SVG 1.1//EN"
  "http://www.w3.org/Graphics/SVG/1.1/DTD/svg11.dtd">
<!-- Created with matplotlib (https://matplotlib.org/) -->
<svg height="288pt" version="1.1" viewBox="0 0 432 288" width="432pt" xmlns="http://www.w3.org/2000/svg" xmlns:xlink="http://www.w3.org/1999/xlink">
 <defs>
  <style type="text/css">
*{stroke-linecap:butt;stroke-linejoin:round;white-space:pre;}
  </style>
 </defs>
 <g id="figure_1">
  <g id="patch_1">
   <path d="M 0 288 
L 432 288 
L 432 0 
L 0 0 
z
" style="fill:#ffffff;"/>
  </g>
  <g id="axes_1">
   <g id="patch_2">
    <path d="M 54 252 
L 388.8 252 
L 388.8 34.56 
L 54 34.56 
z
" style="fill:#ffffff;"/>
   </g>
   <g id="matplotlib.axis_1">
    <g id="xtick_1">
     <g id="line2d_1">
      <defs>
       <path d="M 0 0 
L 0 3.5 
" id="m8081e2a462" style="stroke:#000000;stroke-width:0.8;"/>
      </defs>
      <g>
       <use style="stroke:#000000;stroke-width:0.8;" x="69.218182" xlink:href="#m8081e2a462" y="252"/>
      </g>
     </g>
     <g id="text_1">
      <!-- 0 -->
      <defs>
       <path d="M 31.78125 66.40625 
Q 24.171875 66.40625 20.328125 58.90625 
Q 16.5 51.421875 16.5 36.375 
Q 16.5 21.390625 20.328125 13.890625 
Q 24.171875 6.390625 31.78125 6.390625 
Q 39.453125 6.390625 43.28125 13.890625 
Q 47.125 21.390625 47.125 36.375 
Q 47.125 51.421875 43.28125 58.90625 
Q 39.453125 66.40625 31.78125 66.40625 
z
M 31.78125 74.21875 
Q 44.046875 74.21875 50.515625 64.515625 
Q 56.984375 54.828125 56.984375 36.375 
Q 56.984375 17.96875 50.515625 8.265625 
Q 44.046875 -1.421875 31.78125 -1.421875 
Q 19.53125 -1.421875 13.0625 8.265625 
Q 6.59375 17.96875 6.59375 36.375 
Q 6.59375 54.828125 13.0625 64.515625 
Q 19.53125 74.21875 31.78125 74.21875 
z
" id="DejaVuSans-48"/>
      </defs>
      <g transform="translate(66.036932 266.598437)scale(0.1 -0.1)">
       <use xlink:href="#DejaVuSans-48"/>
      </g>
     </g>
    </g>
    <g id="xtick_2">
     <g id="line2d_2">
      <g>
       <use style="stroke:#000000;stroke-width:0.8;" x="130.090909" xlink:href="#m8081e2a462" y="252"/>
      </g>
     </g>
     <g id="text_2">
      <!-- 2 -->
      <defs>
       <path d="M 19.1875 8.296875 
L 53.609375 8.296875 
L 53.609375 0 
L 7.328125 0 
L 7.328125 8.296875 
Q 12.9375 14.109375 22.625 23.890625 
Q 32.328125 33.6875 34.8125 36.53125 
Q 39.546875 41.84375 41.421875 45.53125 
Q 43.3125 49.21875 43.3125 52.78125 
Q 43.3125 58.59375 39.234375 62.25 
Q 35.15625 65.921875 28.609375 65.921875 
Q 23.96875 65.921875 18.8125 64.3125 
Q 13.671875 62.703125 7.8125 59.421875 
L 7.8125 69.390625 
Q 13.765625 71.78125 18.9375 73 
Q 24.125 74.21875 28.421875 74.21875 
Q 39.75 74.21875 46.484375 68.546875 
Q 53.21875 62.890625 53.21875 53.421875 
Q 53.21875 48.921875 51.53125 44.890625 
Q 49.859375 40.875 45.40625 35.40625 
Q 44.1875 33.984375 37.640625 27.21875 
Q 31.109375 20.453125 19.1875 8.296875 
z
" id="DejaVuSans-50"/>
      </defs>
      <g transform="translate(126.909659 266.598437)scale(0.1 -0.1)">
       <use xlink:href="#DejaVuSans-50"/>
      </g>
     </g>
    </g>
    <g id="xtick_3">
     <g id="line2d_3">
      <g>
       <use style="stroke:#000000;stroke-width:0.8;" x="190.963636" xlink:href="#m8081e2a462" y="252"/>
      </g>
     </g>
     <g id="text_3">
      <!-- 4 -->
      <defs>
       <path d="M 37.796875 64.3125 
L 12.890625 25.390625 
L 37.796875 25.390625 
z
M 35.203125 72.90625 
L 47.609375 72.90625 
L 47.609375 25.390625 
L 58.015625 25.390625 
L 58.015625 17.1875 
L 47.609375 17.1875 
L 47.609375 0 
L 37.796875 0 
L 37.796875 17.1875 
L 4.890625 17.1875 
L 4.890625 26.703125 
z
" id="DejaVuSans-52"/>
      </defs>
      <g transform="translate(187.782386 266.598437)scale(0.1 -0.1)">
       <use xlink:href="#DejaVuSans-52"/>
      </g>
     </g>
    </g>
    <g id="xtick_4">
     <g id="line2d_4">
      <g>
       <use style="stroke:#000000;stroke-width:0.8;" x="251.836364" xlink:href="#m8081e2a462" y="252"/>
      </g>
     </g>
     <g id="text_4">
      <!-- 6 -->
      <defs>
       <path d="M 33.015625 40.375 
Q 26.375 40.375 22.484375 35.828125 
Q 18.609375 31.296875 18.609375 23.390625 
Q 18.609375 15.53125 22.484375 10.953125 
Q 26.375 6.390625 33.015625 6.390625 
Q 39.65625 6.390625 43.53125 10.953125 
Q 47.40625 15.53125 47.40625 23.390625 
Q 47.40625 31.296875 43.53125 35.828125 
Q 39.65625 40.375 33.015625 40.375 
z
M 52.59375 71.296875 
L 52.59375 62.3125 
Q 48.875 64.0625 45.09375 64.984375 
Q 41.3125 65.921875 37.59375 65.921875 
Q 27.828125 65.921875 22.671875 59.328125 
Q 17.53125 52.734375 16.796875 39.40625 
Q 19.671875 43.65625 24.015625 45.921875 
Q 28.375 48.1875 33.59375 48.1875 
Q 44.578125 48.1875 50.953125 41.515625 
Q 57.328125 34.859375 57.328125 23.390625 
Q 57.328125 12.15625 50.6875 5.359375 
Q 44.046875 -1.421875 33.015625 -1.421875 
Q 20.359375 -1.421875 13.671875 8.265625 
Q 6.984375 17.96875 6.984375 36.375 
Q 6.984375 53.65625 15.1875 63.9375 
Q 23.390625 74.21875 37.203125 74.21875 
Q 40.921875 74.21875 44.703125 73.484375 
Q 48.484375 72.75 52.59375 71.296875 
z
" id="DejaVuSans-54"/>
      </defs>
      <g transform="translate(248.655114 266.598437)scale(0.1 -0.1)">
       <use xlink:href="#DejaVuSans-54"/>
      </g>
     </g>
    </g>
    <g id="xtick_5">
     <g id="line2d_5">
      <g>
       <use style="stroke:#000000;stroke-width:0.8;" x="312.709091" xlink:href="#m8081e2a462" y="252"/>
      </g>
     </g>
     <g id="text_5">
      <!-- 8 -->
      <defs>
       <path d="M 31.78125 34.625 
Q 24.75 34.625 20.71875 30.859375 
Q 16.703125 27.09375 16.703125 20.515625 
Q 16.703125 13.921875 20.71875 10.15625 
Q 24.75 6.390625 31.78125 6.390625 
Q 38.8125 6.390625 42.859375 10.171875 
Q 46.921875 13.96875 46.921875 20.515625 
Q 46.921875 27.09375 42.890625 30.859375 
Q 38.875 34.625 31.78125 34.625 
z
M 21.921875 38.8125 
Q 15.578125 40.375 12.03125 44.71875 
Q 8.5 49.078125 8.5 55.328125 
Q 8.5 64.0625 14.71875 69.140625 
Q 20.953125 74.21875 31.78125 74.21875 
Q 42.671875 74.21875 48.875 69.140625 
Q 55.078125 64.0625 55.078125 55.328125 
Q 55.078125 49.078125 51.53125 44.71875 
Q 48 40.375 41.703125 38.8125 
Q 48.828125 37.15625 52.796875 32.3125 
Q 56.78125 27.484375 56.78125 20.515625 
Q 56.78125 9.90625 50.3125 4.234375 
Q 43.84375 -1.421875 31.78125 -1.421875 
Q 19.734375 -1.421875 13.25 4.234375 
Q 6.78125 9.90625 6.78125 20.515625 
Q 6.78125 27.484375 10.78125 32.3125 
Q 14.796875 37.15625 21.921875 38.8125 
z
M 18.3125 54.390625 
Q 18.3125 48.734375 21.84375 45.5625 
Q 25.390625 42.390625 31.78125 42.390625 
Q 38.140625 42.390625 41.71875 45.5625 
Q 45.3125 48.734375 45.3125 54.390625 
Q 45.3125 60.0625 41.71875 63.234375 
Q 38.140625 66.40625 31.78125 66.40625 
Q 25.390625 66.40625 21.84375 63.234375 
Q 18.3125 60.0625 18.3125 54.390625 
z
" id="DejaVuSans-56"/>
      </defs>
      <g transform="translate(309.527841 266.598437)scale(0.1 -0.1)">
       <use xlink:href="#DejaVuSans-56"/>
      </g>
     </g>
    </g>
    <g id="xtick_6">
     <g id="line2d_6">
      <g>
       <use style="stroke:#000000;stroke-width:0.8;" x="373.581818" xlink:href="#m8081e2a462" y="252"/>
      </g>
     </g>
     <g id="text_6">
      <!-- 10 -->
      <defs>
       <path d="M 12.40625 8.296875 
L 28.515625 8.296875 
L 28.515625 63.921875 
L 10.984375 60.40625 
L 10.984375 69.390625 
L 28.421875 72.90625 
L 38.28125 72.90625 
L 38.28125 8.296875 
L 54.390625 8.296875 
L 54.390625 0 
L 12.40625 0 
z
" id="DejaVuSans-49"/>
      </defs>
      <g transform="translate(367.219318 266.598437)scale(0.1 -0.1)">
       <use xlink:href="#DejaVuSans-49"/>
       <use x="63.623047" xlink:href="#DejaVuSans-48"/>
      </g>
     </g>
    </g>
   </g>
   <g id="matplotlib.axis_2">
    <g id="ytick_1">
     <g id="line2d_7">
      <defs>
       <path d="M 0 0 
L -3.5 0 
" id="mfd20604bf9" style="stroke:#000000;stroke-width:0.8;"/>
      </defs>
      <g>
       <use style="stroke:#000000;stroke-width:0.8;" x="54" xlink:href="#mfd20604bf9" y="242.116364"/>
      </g>
     </g>
     <g id="text_7">
      <!-- 0 -->
      <g transform="translate(40.6375 245.915582)scale(0.1 -0.1)">
       <use xlink:href="#DejaVuSans-48"/>
      </g>
     </g>
    </g>
    <g id="ytick_2">
     <g id="line2d_8">
      <g>
       <use style="stroke:#000000;stroke-width:0.8;" x="54" xlink:href="#mfd20604bf9" y="199.751567"/>
      </g>
     </g>
     <g id="text_8">
      <!-- 2 -->
      <g transform="translate(40.6375 203.550786)scale(0.1 -0.1)">
       <use xlink:href="#DejaVuSans-50"/>
      </g>
     </g>
    </g>
    <g id="ytick_3">
     <g id="line2d_9">
      <g>
       <use style="stroke:#000000;stroke-width:0.8;" x="54" xlink:href="#mfd20604bf9" y="157.386771"/>
      </g>
     </g>
     <g id="text_9">
      <!-- 4 -->
      <g transform="translate(40.6375 161.18599)scale(0.1 -0.1)">
       <use xlink:href="#DejaVuSans-52"/>
      </g>
     </g>
    </g>
    <g id="ytick_4">
     <g id="line2d_10">
      <g>
       <use style="stroke:#000000;stroke-width:0.8;" x="54" xlink:href="#mfd20604bf9" y="115.021975"/>
      </g>
     </g>
     <g id="text_10">
      <!-- 6 -->
      <g transform="translate(40.6375 118.821194)scale(0.1 -0.1)">
       <use xlink:href="#DejaVuSans-54"/>
      </g>
     </g>
    </g>
    <g id="ytick_5">
     <g id="line2d_11">
      <g>
       <use style="stroke:#000000;stroke-width:0.8;" x="54" xlink:href="#mfd20604bf9" y="72.657179"/>
      </g>
     </g>
     <g id="text_11">
      <!-- 8 -->
      <g transform="translate(40.6375 76.456397)scale(0.1 -0.1)">
       <use xlink:href="#DejaVuSans-56"/>
      </g>
     </g>
    </g>
   </g>
   <g id="line2d_12">
    <path clip-path="url(#ped1c57a1fa)" d="M 69.218182 242.116364 
L 76.865509 241.309839 
L 79.92444 240.732278 
L 82.983371 239.996156 
L 86.042302 239.0011 
L 89.101233 237.751028 
L 93.68963 235.455475 
L 98.278026 232.845233 
L 105.925354 228.070886 
L 118.161078 219.964073 
L 139.573595 205.408762 
L 182.39863 176.010377 
L 373.581818 44.443636 
L 373.581818 44.443636 
" style="fill:none;stroke:#1f77b4;stroke-linecap:square;stroke-width:1.5;"/>
   </g>
   <g id="line2d_13">
    <path clip-path="url(#ped1c57a1fa)" d="M 69.218182 242.116364 
L 79.92444 241.154309 
L 87.571768 239.988464 
L 92.160164 239.026249 
L 96.748561 237.780825 
L 101.336958 236.240151 
L 105.925354 234.398342 
L 110.513751 232.294783 
L 115.102147 229.990409 
L 121.220009 226.631779 
L 127.337871 223.051046 
L 134.985199 218.336484 
L 142.632526 213.438878 
L 153.338785 206.397898 
L 168.63344 196.139862 
L 200.752216 174.244179 
L 257.342439 135.400348 
L 373.581818 55.440745 
L 373.581818 55.440745 
" style="fill:none;stroke:#ff7f0e;stroke-linecap:square;stroke-width:1.5;"/>
   </g>
   <g id="line2d_14">
    <path clip-path="url(#ped1c57a1fa)" d="M 69.218182 242.116364 
L 81.453906 241.088091 
L 90.630699 239.915026 
L 96.748561 238.866928 
L 102.866423 237.52606 
L 108.984285 235.85512 
L 113.572682 234.378855 
L 119.690544 232.081593 
L 124.27894 230.167197 
L 130.396802 227.361796 
L 138.04413 223.516719 
L 145.691457 219.37269 
L 153.338785 214.995558 
L 164.045043 208.536676 
L 176.280767 200.839531 
L 190.045957 191.908957 
L 211.458474 177.660722 
L 238.988853 159.037873 
L 280.284422 130.838414 
L 347.580905 84.657622 
L 373.581818 66.778568 
L 373.581818 66.778568 
" style="fill:none;stroke:#2ca02c;stroke-linecap:square;stroke-width:1.5;"/>
   </g>
   <g id="line2d_15">
    <path clip-path="url(#ped1c57a1fa)" d="M 69.218182 242.116364 
L 81.453906 241.127805 
L 92.160164 239.834929 
L 98.278026 238.864249 
L 104.395889 237.656761 
L 110.513751 236.176223 
L 116.631613 234.401643 
L 122.749475 232.312228 
L 128.867337 229.940973 
L 134.985199 227.327744 
L 142.632526 223.72659 
L 150.279854 219.842434 
L 159.456647 214.869967 
L 168.63344 209.615401 
L 180.869164 202.25906 
L 196.163819 192.672199 
L 216.046871 179.762472 
L 240.518319 163.497768 
L 275.696026 139.734834 
L 327.697853 104.249314 
L 373.581818 72.798164 
L 373.581818 72.798164 
" style="fill:none;stroke:#d62728;stroke-linecap:square;stroke-width:1.5;"/>
   </g>
   <g id="line2d_16">
    <path clip-path="url(#ped1c57a1fa)" d="M 69.218182 242.116364 
L 82.983371 240.976479 
L 92.160164 239.891822 
L 99.807492 238.694043 
L 105.925354 237.495539 
L 112.043216 236.045074 
L 118.161078 234.317566 
L 124.27894 232.290891 
L 130.396802 229.998448 
L 136.514664 227.474398 
L 144.161992 223.980518 
L 151.809319 220.21434 
L 160.986112 215.378023 
L 171.692371 209.370006 
L 183.928095 202.136202 
L 199.22275 192.686799 
L 217.576336 180.923012 
L 243.57725 163.800986 
L 275.696026 142.248103 
L 324.638922 108.983636 
L 373.581818 75.508935 
L 373.581818 75.508935 
" style="fill:none;stroke:#9467bd;stroke-linecap:square;stroke-width:1.5;"/>
   </g>
   <g id="line2d_17">
    <path clip-path="url(#ped1c57a1fa)" d="M 69.218182 242.116364 
L 82.983371 240.988394 
L 92.160164 239.929918 
L 99.807492 238.772831 
L 105.925354 237.626487 
L 113.572682 235.844965 
L 118.161078 234.60196 
L 125.808406 232.127416 
L 131.926268 229.873884 
L 138.04413 227.392798 
L 145.691457 223.961924 
L 153.338785 220.266518 
L 162.515578 215.513731 
L 173.221836 209.606191 
L 185.457561 202.481551 
L 200.752216 193.154977 
L 220.635267 180.519297 
L 245.106715 164.522118 
L 277.225491 143.087376 
L 324.638922 110.972289 
L 373.581818 77.566254 
L 373.581818 77.566254 
" style="fill:none;stroke:#8c564b;stroke-linecap:square;stroke-width:1.5;"/>
   </g>
   <g id="line2d_18">
    <path clip-path="url(#ped1c57a1fa)" d="M 69.218182 242.116364 
L 82.983371 240.991131 
L 92.160164 239.938652 
L 99.807492 238.790898 
L 105.925354 237.656555 
L 113.572682 235.893203 
L 119.690544 234.197681 
L 125.808406 232.217905 
L 131.926268 229.987445 
L 138.04413 227.533102 
L 145.691457 224.129985 
L 154.86825 219.68992 
L 162.515578 215.743925 
L 173.221836 209.872159 
L 186.987026 201.86555 
L 200.752216 193.497284 
L 220.635267 180.900975 
L 245.106715 164.940858 
L 277.225491 143.540657 
L 324.638922 111.455955 
L 373.581818 78.068684 
L 373.581818 78.068684 
" style="fill:none;stroke:#e377c2;stroke-linecap:square;stroke-width:1.5;"/>
   </g>
   <g id="line2d_19">
    <path clip-path="url(#ped1c57a1fa)" d="M 69.218182 242.116364 
L 82.983371 240.993746 
L 92.160164 239.946982 
L 99.807492 238.808293 
L 107.45482 237.355563 
L 113.572682 235.939688 
L 119.690544 234.263778 
L 125.808406 232.305276 
L 131.926268 230.097217 
L 138.04413 227.668927 
L 147.220923 223.576052 
L 154.86825 219.884704 
L 164.045043 215.14346 
L 174.751302 209.257058 
L 186.987026 202.161754 
L 200.752216 193.830067 
L 220.635267 181.273748 
L 245.106715 165.350645 
L 278.754957 142.95573 
L 324.638922 111.932054 
L 373.581818 78.564337 
L 373.581818 78.564337 
" style="fill:none;stroke:#7f7f7f;stroke-linecap:square;stroke-width:1.5;"/>
   </g>
   <g id="line2d_20">
    <path clip-path="url(#ped1c57a1fa)" d="M 69.218182 242.116364 
L 82.983371 241.003338 
L 92.160164 239.977484 
L 99.807492 238.871954 
L 107.45482 237.468944 
L 113.572682 236.110128 
L 119.690544 234.50682 
L 127.337871 232.103715 
L 133.455733 229.92133 
L 139.573595 227.520726 
L 147.220923 224.191247 
L 156.397716 219.847964 
L 165.574509 215.172354 
L 176.280767 209.366594 
L 188.516492 202.359662 
L 203.811147 193.179372 
L 223.694198 180.714674 
L 248.165646 164.890137 
L 280.284422 143.628184 
L 324.638922 113.757517 
L 373.581818 80.4748 
L 373.581818 80.4748 
" style="fill:none;stroke:#bcbd22;stroke-linecap:square;stroke-width:1.5;"/>
   </g>
   <g id="line2d_21">
    <path clip-path="url(#ped1c57a1fa)" d="M 69.218182 242.116364 
L 82.983371 241.013785 
L 93.68963 239.807101 
L 101.336958 238.684875 
L 107.45482 237.593048 
L 115.102147 235.92075 
L 121.220009 234.326054 
L 127.337871 232.473245 
L 134.985199 229.817564 
L 141.103061 227.458949 
L 150.279854 223.499846 
L 157.927181 219.930181 
L 167.103974 215.337525 
L 177.810233 209.633185 
L 190.045957 202.734151 
L 205.340612 193.687432 
L 225.223664 181.371235 
L 249.695112 165.700637 
L 281.813888 144.595779 
L 326.168387 114.874213 
L 373.581818 82.753665 
L 373.581818 82.753665 
" style="fill:none;stroke:#17becf;stroke-linecap:square;stroke-width:1.5;"/>
   </g>
   <g id="line2d_22">
    <path clip-path="url(#ped1c57a1fa)" d="M 69.218182 242.116364 
L 82.983371 241.044116 
L 93.68963 239.915804 
L 102.866423 238.665385 
L 110.513751 237.369623 
L 116.631613 236.14275 
L 124.27894 234.315465 
L 131.926268 232.150217 
L 138.04413 230.188594 
L 145.691457 227.436289 
L 154.86825 223.739743 
L 162.515578 220.399841 
L 173.221836 215.312988 
L 183.928095 209.894615 
L 197.693285 202.453173 
L 212.98794 193.753978 
L 232.870991 181.862205 
L 257.342439 166.650827 
L 289.461215 146.070686 
L 333.815715 116.931842 
L 373.581818 90.414396 
L 373.581818 90.414396 
" style="fill:none;stroke:#1f77b4;stroke-linecap:square;stroke-width:1.5;"/>
   </g>
   <g id="line2d_23">
    <path clip-path="url(#ped1c57a1fa)" d="M 69.218182 242.116364 
L 84.512837 240.919522 
L 95.219095 239.806373 
L 102.866423 238.823731 
L 112.043216 237.367901 
L 119.690544 235.897338 
L 127.337871 234.153316 
L 133.455733 232.551625 
L 141.103061 230.253774 
L 150.279854 227.105239 
L 157.927181 224.194284 
L 167.103974 220.369171 
L 177.810233 215.508712 
L 188.516492 210.324882 
L 203.811147 202.343991 
L 219.105802 193.924808 
L 238.988853 182.396201 
L 264.989767 166.634965 
L 297.108543 146.497252 
L 339.933577 118.88475 
L 373.581818 96.767546 
L 373.581818 96.767546 
" style="fill:none;stroke:#ff7f0e;stroke-linecap:square;stroke-width:1.5;"/>
   </g>
   <g id="line2d_24">
    <path clip-path="url(#ped1c57a1fa)" d="M 69.218182 242.116364 
L 84.512837 240.957635 
L 96.748561 239.758057 
L 105.925354 238.646172 
L 115.102147 237.304801 
L 122.749475 235.984263 
L 130.396802 234.450695 
L 139.573595 232.276105 
L 147.220923 230.195407 
L 156.397716 227.368498 
L 165.574509 224.187353 
L 176.280767 220.053586 
L 186.987026 215.551727 
L 199.22275 209.985094 
L 212.98794 203.289779 
L 231.341526 193.743841 
L 251.224577 182.814154 
L 277.225491 167.758457 
L 310.873732 147.460015 
L 355.228232 119.774782 
L 373.581818 108.019135 
L 373.581818 108.019135 
" style="fill:none;stroke:#2ca02c;stroke-linecap:square;stroke-width:1.5;"/>
   </g>
   <g id="patch_3">
    <path d="M 54 252 
L 54 34.56 
" style="fill:none;stroke:#000000;stroke-linecap:square;stroke-linejoin:miter;stroke-width:0.8;"/>
   </g>
   <g id="patch_4">
    <path d="M 388.8 252 
L 388.8 34.56 
" style="fill:none;stroke:#000000;stroke-linecap:square;stroke-linejoin:miter;stroke-width:0.8;"/>
   </g>
   <g id="patch_5">
    <path d="M 54 252 
L 388.8 252 
" style="fill:none;stroke:#000000;stroke-linecap:square;stroke-linejoin:miter;stroke-width:0.8;"/>
   </g>
   <g id="patch_6">
    <path d="M 54 34.56 
L 388.8 34.56 
" style="fill:none;stroke:#000000;stroke-linecap:square;stroke-linejoin:miter;stroke-width:0.8;"/>
   </g>
  </g>
 </g>
 <defs>
  <clipPath id="ped1c57a1fa">
   <rect height="217.44" width="334.8" x="54" y="34.56"/>
  </clipPath>
 </defs>
</svg>
