<?xml version="1.0" encoding="utf-8" standalone="no"?>
<!DOCTYPE svg PUBLIC "-//W3C//DTD SVG 1.1//EN"
  "http://www.w3.org/Graphics/SVG/1.1/DTD/svg11.dtd">
<!-- Created with matplotlib (https://matplotlib.org/) -->
<svg height="345.6pt" version="1.1" viewBox="0 0 460.8 345.6" width="460.8pt" xmlns="http://www.w3.org/2000/svg" xmlns:xlink="http://www.w3.org/1999/xlink">
 <defs>
  <style type="text/css">
*{stroke-linecap:butt;stroke-linejoin:round;white-space:pre;}
  </style>
 </defs>
 <g id="figure_1">
  <g id="patch_1">
   <path d="M 0 345.6 
L 460.8 345.6 
L 460.8 0 
L 0 0 
z
" style="fill:#ffffff;"/>
  </g>
  <g id="axes_1">
   <g id="patch_2">
    <path d="M 57.6 307.584 
L 414.72 307.584 
L 414.72 41.472 
L 57.6 41.472 
z
" style="fill:#ffffff;"/>
   </g>
   <g id="matplotlib.axis_1">
    <g id="xtick_1">
     <g id="line2d_1">
      <defs>
       <path d="M 0 0 
L 0 3.5 
" id="ma556766fba" style="stroke:#000000;stroke-width:0.8;"/>
      </defs>
      <g>
       <use style="stroke:#000000;stroke-width:0.8;" x="73.832727" xlink:href="#ma556766fba" y="307.584"/>
      </g>
     </g>
     <g id="text_1">
      <!-- 0 -->
      <defs>
       <path d="M 31.78125 66.40625 
Q 24.171875 66.40625 20.328125 58.90625 
Q 16.5 51.421875 16.5 36.375 
Q 16.5 21.390625 20.328125 13.890625 
Q 24.171875 6.390625 31.78125 6.390625 
Q 39.453125 6.390625 43.28125 13.890625 
Q 47.125 21.390625 47.125 36.375 
Q 47.125 51.421875 43.28125 58.90625 
Q 39.453125 66.40625 31.78125 66.40625 
z
M 31.78125 74.21875 
Q 44.046875 74.21875 50.515625 64.515625 
Q 56.984375 54.828125 56.984375 36.375 
Q 56.984375 17.96875 50.515625 8.265625 
Q 44.046875 -1.421875 31.78125 -1.421875 
Q 19.53125 -1.421875 13.0625 8.265625 
Q 6.59375 17.96875 6.59375 36.375 
Q 6.59375 54.828125 13.0625 64.515625 
Q 19.53125 74.21875 31.78125 74.21875 
z
" id="DejaVuSans-48"/>
      </defs>
      <g transform="translate(70.651477 322.182437)scale(0.1 -0.1)">
       <use xlink:href="#DejaVuSans-48"/>
      </g>
     </g>
    </g>
    <g id="xtick_2">
     <g id="line2d_2">
      <g>
       <use style="stroke:#000000;stroke-width:0.8;" x="138.763636" xlink:href="#ma556766fba" y="307.584"/>
      </g>
     </g>
     <g id="text_2">
      <!-- 2 -->
      <defs>
       <path d="M 19.1875 8.296875 
L 53.609375 8.296875 
L 53.609375 0 
L 7.328125 0 
L 7.328125 8.296875 
Q 12.9375 14.109375 22.625 23.890625 
Q 32.328125 33.6875 34.8125 36.53125 
Q 39.546875 41.84375 41.421875 45.53125 
Q 43.3125 49.21875 43.3125 52.78125 
Q 43.3125 58.59375 39.234375 62.25 
Q 35.15625 65.921875 28.609375 65.921875 
Q 23.96875 65.921875 18.8125 64.3125 
Q 13.671875 62.703125 7.8125 59.421875 
L 7.8125 69.390625 
Q 13.765625 71.78125 18.9375 73 
Q 24.125 74.21875 28.421875 74.21875 
Q 39.75 74.21875 46.484375 68.546875 
Q 53.21875 62.890625 53.21875 53.421875 
Q 53.21875 48.921875 51.53125 44.890625 
Q 49.859375 40.875 45.40625 35.40625 
Q 44.1875 33.984375 37.640625 27.21875 
Q 31.109375 20.453125 19.1875 8.296875 
z
" id="DejaVuSans-50"/>
      </defs>
      <g transform="translate(135.582386 322.182437)scale(0.1 -0.1)">
       <use xlink:href="#DejaVuSans-50"/>
      </g>
     </g>
    </g>
    <g id="xtick_3">
     <g id="line2d_3">
      <g>
       <use style="stroke:#000000;stroke-width:0.8;" x="203.694545" xlink:href="#ma556766fba" y="307.584"/>
      </g>
     </g>
     <g id="text_3">
      <!-- 4 -->
      <defs>
       <path d="M 37.796875 64.3125 
L 12.890625 25.390625 
L 37.796875 25.390625 
z
M 35.203125 72.90625 
L 47.609375 72.90625 
L 47.609375 25.390625 
L 58.015625 25.390625 
L 58.015625 17.1875 
L 47.609375 17.1875 
L 47.609375 0 
L 37.796875 0 
L 37.796875 17.1875 
L 4.890625 17.1875 
L 4.890625 26.703125 
z
" id="DejaVuSans-52"/>
      </defs>
      <g transform="translate(200.513295 322.182437)scale(0.1 -0.1)">
       <use xlink:href="#DejaVuSans-52"/>
      </g>
     </g>
    </g>
    <g id="xtick_4">
     <g id="line2d_4">
      <g>
       <use style="stroke:#000000;stroke-width:0.8;" x="268.625455" xlink:href="#ma556766fba" y="307.584"/>
      </g>
     </g>
     <g id="text_4">
      <!-- 6 -->
      <defs>
       <path d="M 33.015625 40.375 
Q 26.375 40.375 22.484375 35.828125 
Q 18.609375 31.296875 18.609375 23.390625 
Q 18.609375 15.53125 22.484375 10.953125 
Q 26.375 6.390625 33.015625 6.390625 
Q 39.65625 6.390625 43.53125 10.953125 
Q 47.40625 15.53125 47.40625 23.390625 
Q 47.40625 31.296875 43.53125 35.828125 
Q 39.65625 40.375 33.015625 40.375 
z
M 52.59375 71.296875 
L 52.59375 62.3125 
Q 48.875 64.0625 45.09375 64.984375 
Q 41.3125 65.921875 37.59375 65.921875 
Q 27.828125 65.921875 22.671875 59.328125 
Q 17.53125 52.734375 16.796875 39.40625 
Q 19.671875 43.65625 24.015625 45.921875 
Q 28.375 48.1875 33.59375 48.1875 
Q 44.578125 48.1875 50.953125 41.515625 
Q 57.328125 34.859375 57.328125 23.390625 
Q 57.328125 12.15625 50.6875 5.359375 
Q 44.046875 -1.421875 33.015625 -1.421875 
Q 20.359375 -1.421875 13.671875 8.265625 
Q 6.984375 17.96875 6.984375 36.375 
Q 6.984375 53.65625 15.1875 63.9375 
Q 23.390625 74.21875 37.203125 74.21875 
Q 40.921875 74.21875 44.703125 73.484375 
Q 48.484375 72.75 52.59375 71.296875 
z
" id="DejaVuSans-54"/>
      </defs>
      <g transform="translate(265.444205 322.182437)scale(0.1 -0.1)">
       <use xlink:href="#DejaVuSans-54"/>
      </g>
     </g>
    </g>
    <g id="xtick_5">
     <g id="line2d_5">
      <g>
       <use style="stroke:#000000;stroke-width:0.8;" x="333.556364" xlink:href="#ma556766fba" y="307.584"/>
      </g>
     </g>
     <g id="text_5">
      <!-- 8 -->
      <defs>
       <path d="M 31.78125 34.625 
Q 24.75 34.625 20.71875 30.859375 
Q 16.703125 27.09375 16.703125 20.515625 
Q 16.703125 13.921875 20.71875 10.15625 
Q 24.75 6.390625 31.78125 6.390625 
Q 38.8125 6.390625 42.859375 10.171875 
Q 46.921875 13.96875 46.921875 20.515625 
Q 46.921875 27.09375 42.890625 30.859375 
Q 38.875 34.625 31.78125 34.625 
z
M 21.921875 38.8125 
Q 15.578125 40.375 12.03125 44.71875 
Q 8.5 49.078125 8.5 55.328125 
Q 8.5 64.0625 14.71875 69.140625 
Q 20.953125 74.21875 31.78125 74.21875 
Q 42.671875 74.21875 48.875 69.140625 
Q 55.078125 64.0625 55.078125 55.328125 
Q 55.078125 49.078125 51.53125 44.71875 
Q 48 40.375 41.703125 38.8125 
Q 48.828125 37.15625 52.796875 32.3125 
Q 56.78125 27.484375 56.78125 20.515625 
Q 56.78125 9.90625 50.3125 4.234375 
Q 43.84375 -1.421875 31.78125 -1.421875 
Q 19.734375 -1.421875 13.25 4.234375 
Q 6.78125 9.90625 6.78125 20.515625 
Q 6.78125 27.484375 10.78125 32.3125 
Q 14.796875 37.15625 21.921875 38.8125 
z
M 18.3125 54.390625 
Q 18.3125 48.734375 21.84375 45.5625 
Q 25.390625 42.390625 31.78125 42.390625 
Q 38.140625 42.390625 41.71875 45.5625 
Q 45.3125 48.734375 45.3125 54.390625 
Q 45.3125 60.0625 41.71875 63.234375 
Q 38.140625 66.40625 31.78125 66.40625 
Q 25.390625 66.40625 21.84375 63.234375 
Q 18.3125 60.0625 18.3125 54.390625 
z
" id="DejaVuSans-56"/>
      </defs>
      <g transform="translate(330.375114 322.182437)scale(0.1 -0.1)">
       <use xlink:href="#DejaVuSans-56"/>
      </g>
     </g>
    </g>
    <g id="xtick_6">
     <g id="line2d_6">
      <g>
       <use style="stroke:#000000;stroke-width:0.8;" x="398.487273" xlink:href="#ma556766fba" y="307.584"/>
      </g>
     </g>
     <g id="text_6">
      <!-- 10 -->
      <defs>
       <path d="M 12.40625 8.296875 
L 28.515625 8.296875 
L 28.515625 63.921875 
L 10.984375 60.40625 
L 10.984375 69.390625 
L 28.421875 72.90625 
L 38.28125 72.90625 
L 38.28125 8.296875 
L 54.390625 8.296875 
L 54.390625 0 
L 12.40625 0 
z
" id="DejaVuSans-49"/>
      </defs>
      <g transform="translate(392.124773 322.182437)scale(0.1 -0.1)">
       <use xlink:href="#DejaVuSans-49"/>
       <use x="63.623047" xlink:href="#DejaVuSans-48"/>
      </g>
     </g>
    </g>
   </g>
   <g id="matplotlib.axis_2">
    <g id="ytick_1">
     <g id="line2d_7">
      <defs>
       <path d="M 0 0 
L -3.5 0 
" id="m5567b1f13e" style="stroke:#000000;stroke-width:0.8;"/>
      </defs>
      <g>
       <use style="stroke:#000000;stroke-width:0.8;" x="57.6" xlink:href="#m5567b1f13e" y="295.488"/>
      </g>
     </g>
     <g id="text_7">
      <!-- 0 -->
      <g transform="translate(44.2375 299.287219)scale(0.1 -0.1)">
       <use xlink:href="#DejaVuSans-48"/>
      </g>
     </g>
    </g>
    <g id="ytick_2">
     <g id="line2d_8">
      <g>
       <use style="stroke:#000000;stroke-width:0.8;" x="57.6" xlink:href="#m5567b1f13e" y="243.640223"/>
      </g>
     </g>
     <g id="text_8">
      <!-- 2 -->
      <g transform="translate(44.2375 247.439442)scale(0.1 -0.1)">
       <use xlink:href="#DejaVuSans-50"/>
      </g>
     </g>
    </g>
    <g id="ytick_3">
     <g id="line2d_9">
      <g>
       <use style="stroke:#000000;stroke-width:0.8;" x="57.6" xlink:href="#m5567b1f13e" y="191.792446"/>
      </g>
     </g>
     <g id="text_9">
      <!-- 4 -->
      <g transform="translate(44.2375 195.591665)scale(0.1 -0.1)">
       <use xlink:href="#DejaVuSans-52"/>
      </g>
     </g>
    </g>
    <g id="ytick_4">
     <g id="line2d_10">
      <g>
       <use style="stroke:#000000;stroke-width:0.8;" x="57.6" xlink:href="#m5567b1f13e" y="139.944669"/>
      </g>
     </g>
     <g id="text_10">
      <!-- 6 -->
      <g transform="translate(44.2375 143.743887)scale(0.1 -0.1)">
       <use xlink:href="#DejaVuSans-54"/>
      </g>
     </g>
    </g>
    <g id="ytick_5">
     <g id="line2d_11">
      <g>
       <use style="stroke:#000000;stroke-width:0.8;" x="57.6" xlink:href="#m5567b1f13e" y="88.096892"/>
      </g>
     </g>
     <g id="text_11">
      <!-- 8 -->
      <g transform="translate(44.2375 91.89611)scale(0.1 -0.1)">
       <use xlink:href="#DejaVuSans-56"/>
      </g>
     </g>
    </g>
   </g>
   <g id="line2d_12">
    <path clip-path="url(#p688bdf63a1)" d="M 73.832727 295.488 
L 81.989877 294.500942 
L 85.252736 293.7941 
L 88.515596 292.893203 
L 91.778456 291.675412 
L 95.041316 290.145523 
L 98.304175 288.335769 
L 103.198465 285.23172 
L 108.092755 281.859401 
L 116.249904 275.853396 
L 126.038483 268.377117 
L 147.247072 251.842413 
L 186.401389 221.01956 
L 390.330123 60.009836 
L 398.487273 53.568 
L 398.487273 53.568 
" style="fill:none;stroke:#1f77b4;stroke-linecap:square;stroke-width:1.5;"/>
   </g>
   <g id="line2d_13">
    <path clip-path="url(#p688bdf63a1)" d="M 73.832727 295.488 
L 85.252736 294.310598 
L 93.409886 292.883788 
L 98.304175 291.706191 
L 103.198465 290.18199 
L 108.092755 288.29645 
L 112.987044 286.042368 
L 117.881334 283.467946 
L 122.775624 280.647759 
L 129.301343 276.53733 
L 134.195633 273.278075 
L 142.352782 267.556536 
L 150.509931 261.601765 
L 161.929941 253.013921 
L 178.244239 240.479076 
L 196.189968 226.500775 
L 223.924276 204.73215 
L 336.492937 115.968238 
L 398.487273 67.026714 
L 398.487273 67.026714 
" style="fill:none;stroke:#ff7f0e;stroke-linecap:square;stroke-width:1.5;"/>
   </g>
   <g id="line2d_14">
    <path clip-path="url(#p688bdf63a1)" d="M 73.832727 295.488 
L 86.884166 294.229558 
L 95.041316 293.092522 
L 103.198465 291.511207 
L 109.724185 289.870198 
L 114.618474 288.395639 
L 121.144194 286.018519 
L 126.038483 283.962869 
L 132.564203 280.864119 
L 139.089922 277.430754 
L 145.615642 273.711467 
L 153.772791 268.698377 
L 163.56137 262.296444 
L 173.34995 255.549944 
L 186.401389 246.171091 
L 202.715688 234.042114 
L 223.924276 217.862121 
L 251.658584 196.357427 
L 294.075761 163.143976 
L 362.595815 109.211666 
L 398.487273 80.902406 
L 398.487273 80.902406 
" style="fill:none;stroke:#2ca02c;stroke-linecap:square;stroke-width:1.5;"/>
   </g>
   <g id="line2d_15">
    <path clip-path="url(#p688bdf63a1)" d="M 73.832727 295.488 
L 86.884166 294.278161 
L 96.672746 292.971233 
L 104.829895 291.507928 
L 111.355614 290.030155 
L 117.881334 288.218212 
L 124.407053 286.046408 
L 130.932773 283.489297 
L 137.458492 280.587256 
L 143.984212 277.38908 
L 150.509931 273.908401 
L 160.298511 268.22825 
L 168.45566 263.195541 
L 179.875669 255.711987 
L 192.927108 246.708995 
L 207.609977 236.179696 
L 228.818566 220.411748 
L 254.921444 200.528986 
L 290.812901 172.734571 
L 344.650087 130.604098 
L 398.487273 88.269435 
L 398.487273 88.269435 
" style="fill:none;stroke:#d62728;stroke-linecap:square;stroke-width:1.5;"/>
   </g>
   <g id="line2d_16">
    <path clip-path="url(#p688bdf63a1)" d="M 73.832727 295.488 
L 86.884166 294.295086 
L 96.672746 293.032625 
L 104.829895 291.640235 
L 112.987044 289.832845 
L 119.512764 288.057707 
L 126.038483 285.943511 
L 132.564203 283.463184 
L 139.089922 280.657597 
L 145.615642 277.568561 
L 153.772791 273.292607 
L 161.929941 268.683404 
L 171.71852 262.76452 
L 181.507099 256.502216 
L 196.189968 246.558637 
L 210.872837 236.183039 
L 232.081425 220.597064 
L 258.184303 200.891533 
L 292.444331 174.532425 
L 343.018657 135.111433 
L 398.487273 91.586988 
L 398.487273 91.586988 
" style="fill:none;stroke:#9467bd;stroke-linecap:square;stroke-width:1.5;"/>
   </g>
   <g id="line2d_17">
    <path clip-path="url(#p688bdf63a1)" d="M 73.832727 295.488 
L 86.884166 294.30648 
L 98.304175 292.812138 
L 106.461325 291.396048 
L 112.987044 289.993104 
L 119.512764 288.30096 
L 126.038483 286.291564 
L 132.564203 283.925003 
L 140.721352 280.50515 
L 147.247072 277.468696 
L 155.404221 273.269851 
L 163.56137 268.747262 
L 173.34995 262.930605 
L 184.769959 255.700716 
L 197.821398 246.981289 
L 212.504267 236.744881 
L 233.712855 221.316965 
L 259.815733 201.767055 
L 294.075761 175.55492 
L 343.018657 137.540067 
L 398.487273 94.10482 
L 398.487273 94.10482 
" style="fill:none;stroke:#8c564b;stroke-linecap:square;stroke-width:1.5;"/>
   </g>
   <g id="line2d_18">
    <path clip-path="url(#p688bdf63a1)" d="M 73.832727 295.488 
L 86.884166 294.309094 
L 98.304175 292.822827 
L 106.461325 291.418158 
L 112.987044 290.029903 
L 119.512764 288.356958 
L 126.038483 286.372154 
L 132.564203 284.031976 
L 140.721352 280.644131 
L 147.247072 277.640406 
L 155.404221 273.475531 
L 163.56137 268.989482 
L 173.34995 263.212327 
L 184.769959 256.026219 
L 197.821398 247.351502 
L 214.135697 235.985974 
L 233.712855 221.781792 
L 259.815733 202.277752 
L 294.075761 176.108461 
L 343.018657 138.130624 
L 398.487273 94.719714 
L 398.487273 94.719714 
" style="fill:none;stroke:#e377c2;stroke-linecap:square;stroke-width:1.5;"/>
   </g>
   <g id="line2d_19">
    <path clip-path="url(#p688bdf63a1)" d="M 73.832727 295.488 
L 86.884166 294.311603 
L 98.304175 292.833022 
L 106.461325 291.439447 
L 112.987044 290.065342 
L 119.512764 288.410921 
L 126.038483 286.449919 
L 134.195633 283.480788 
L 140.721352 280.778475 
L 147.247072 277.806634 
L 155.404221 273.674624 
L 163.56137 269.224319 
L 173.34995 263.485479 
L 184.769959 256.341972 
L 197.821398 247.71092 
L 214.135697 236.393248 
L 235.344285 221.026309 
L 261.447163 201.538961 
L 295.70719 175.391377 
L 343.018657 138.711876 
L 398.487273 95.326315 
L 398.487273 95.326315 
" style="fill:none;stroke:#7f7f7f;stroke-linecap:square;stroke-width:1.5;"/>
   </g>
   <g id="line2d_20">
    <path clip-path="url(#p688bdf63a1)" d="M 73.832727 295.488 
L 86.884166 294.320794 
L 98.304175 292.870351 
L 106.461325 291.517359 
L 114.618474 289.800297 
L 121.144194 288.137323 
L 127.669913 286.175128 
L 134.195633 283.874967 
L 142.352782 280.563217 
L 148.878502 277.62526 
L 157.035651 273.550507 
L 165.1928 269.166254 
L 174.98138 263.507114 
L 186.401389 256.463732 
L 201.084258 246.832116 
L 215.767127 236.758128 
L 236.975715 221.542457 
L 263.078593 202.206841 
L 297.33862 176.209328 
L 344.650087 139.668544 
L 398.487273 97.664417 
L 398.487273 97.664417 
" style="fill:none;stroke:#bcbd22;stroke-linecap:square;stroke-width:1.5;"/>
   </g>
   <g id="line2d_21">
    <path clip-path="url(#p688bdf63a1)" d="M 73.832727 295.488 
L 88.515596 294.138619 
L 98.304175 292.911145 
L 106.461325 291.602473 
L 114.618474 289.95218 
L 121.144194 288.365952 
L 129.301343 285.9539 
L 135.827063 283.686355 
L 142.352782 281.132877 
L 150.509931 277.549654 
L 158.667081 273.550363 
L 166.82423 269.25209 
L 178.244239 262.714958 
L 188.032819 256.77606 
L 202.715688 247.290431 
L 219.029986 236.218685 
L 238.607145 222.335171 
L 264.710023 203.189923 
L 298.97005 177.387255 
L 346.281517 141.030786 
L 398.487273 100.453386 
L 398.487273 100.453386 
" style="fill:none;stroke:#17becf;stroke-linecap:square;stroke-width:1.5;"/>
   </g>
   <g id="line2d_22">
    <path clip-path="url(#p688bdf63a1)" d="M 73.832727 295.488 
L 88.515596 294.175739 
L 99.935605 292.794865 
L 108.092755 291.556039 
L 116.249904 290.034755 
L 124.407053 288.177246 
L 132.564203 285.94094 
L 139.089922 283.869718 
L 147.247072 280.890305 
L 155.404221 277.521922 
L 163.56137 273.794006 
L 173.34995 268.910428 
L 184.769959 262.684928 
L 196.189968 256.053701 
L 210.872837 246.946559 
L 225.555706 237.408905 
L 246.764294 222.901749 
L 274.498602 203.130178 
L 307.1272 179.167482 
L 354.438666 143.53024 
L 398.487273 109.828903 
L 398.487273 109.828903 
" style="fill:none;stroke:#1f77b4;stroke-linecap:square;stroke-width:1.5;"/>
   </g>
   <g id="line2d_23">
    <path clip-path="url(#p688bdf63a1)" d="M 73.832727 295.488 
L 88.515596 294.201012 
L 99.935605 292.8845 
L 109.724185 291.458341 
L 117.881334 290.011656 
L 126.038483 288.27611 
L 134.195633 286.213069 
L 142.352782 283.782281 
L 150.509931 280.970076 
L 158.667081 277.808607 
L 168.45566 273.554223 
L 178.244239 268.872893 
L 189.664249 262.924463 
L 201.084258 256.58028 
L 215.767127 247.830656 
L 233.712855 236.509195 
L 254.921444 222.400013 
L 281.024322 204.277394 
L 315.284349 179.66737 
L 360.964386 145.902452 
L 398.487273 117.604149 
L 398.487273 117.604149 
" style="fill:none;stroke:#ff7f0e;stroke-linecap:square;stroke-width:1.5;"/>
   </g>
   <g id="line2d_24">
    <path clip-path="url(#p688bdf63a1)" d="M 73.832727 295.488 
L 90.147026 294.069901 
L 101.567035 292.809112 
L 111.355614 291.492771 
L 121.144194 289.901471 
L 130.932773 287.983284 
L 139.089922 286.106439 
L 147.247072 283.937078 
L 157.035651 280.898643 
L 166.82423 277.438956 
L 176.61281 273.545741 
L 186.401389 269.254185 
L 197.821398 263.813589 
L 212.504267 256.164432 
L 227.187136 247.970432 
L 245.132864 237.307212 
L 267.972883 222.911521 
L 295.70719 204.485741 
L 331.598648 179.643674 
L 377.278684 146.960269 
L 398.487273 131.374305 
L 398.487273 131.374305 
" style="fill:none;stroke:#2ca02c;stroke-linecap:square;stroke-width:1.5;"/>
   </g>
   <g id="patch_3">
    <path d="M 57.6 307.584 
L 57.6 41.472 
" style="fill:none;stroke:#000000;stroke-linecap:square;stroke-linejoin:miter;stroke-width:0.8;"/>
   </g>
   <g id="patch_4">
    <path d="M 414.72 307.584 
L 414.72 41.472 
" style="fill:none;stroke:#000000;stroke-linecap:square;stroke-linejoin:miter;stroke-width:0.8;"/>
   </g>
   <g id="patch_5">
    <path d="M 57.6 307.584 
L 414.72 307.584 
" style="fill:none;stroke:#000000;stroke-linecap:square;stroke-linejoin:miter;stroke-width:0.8;"/>
   </g>
   <g id="patch_6">
    <path d="M 57.6 41.472 
L 414.72 41.472 
" style="fill:none;stroke:#000000;stroke-linecap:square;stroke-linejoin:miter;stroke-width:0.8;"/>
   </g>
  </g>
 </g>
 <defs>
  <clipPath id="p688bdf63a1">
   <rect height="266.112" width="357.12" x="57.6" y="41.472"/>
  </clipPath>
 </defs>
</svg>
