<?xml version="1.0" encoding="utf-8" standalone="no"?>
<!DOCTYPE svg PUBLIC "-//W3C//DTD SVG 1.1//EN"
  "http://www.w3.org/Graphics/SVG/1.1/DTD/svg11.dtd">
<!-- Created with matplotlib (https://matplotlib.org/) -->
<svg height="288pt" version="1.1" viewBox="0 0 720 288" width="720pt" xmlns="http://www.w3.org/2000/svg" xmlns:xlink="http://www.w3.org/1999/xlink">
 <defs>
  <style type="text/css">
*{stroke-linecap:butt;stroke-linejoin:round;}
  </style>
 </defs>
 <g id="figure_1">
  <g id="patch_1">
   <path d="M 0 288 
L 720 288 
L 720 0 
L 0 0 
z
" style="fill:#ffffff;"/>
  </g>
  <g id="axes_1">
   <g id="patch_2">
    <path d="M 40.12 120.5216 
L 353.61 120.5216 
L 353.61 32.64 
L 40.12 32.64 
z
" style="fill:#ffffff;"/>
   </g>
   <g id="matplotlib.axis_1">
    <g id="xtick_1">
     <g id="line2d_1">
      <path clip-path="url(#pb0c16406a7)" d="M 51.519636 120.5216 
L 51.519636 32.64 
" style="fill:none;stroke:#b0b0b0;stroke-linecap:square;stroke-width:0.8;"/>
     </g>
     <g id="line2d_2">
      <defs>
       <path d="M 0 0 
L 0 3.5 
" id="mdac81d5106" style="stroke:#000000;stroke-width:0.8;"/>
      </defs>
      <g>
       <use style="stroke:#000000;stroke-width:0.8;" x="51.519636" xlink:href="#mdac81d5106" y="120.5216"/>
      </g>
     </g>
    </g>
    <g id="xtick_2">
     <g id="line2d_3">
      <path clip-path="url(#pb0c16406a7)" d="M 87.1435 120.5216 
L 87.1435 32.64 
" style="fill:none;stroke:#b0b0b0;stroke-linecap:square;stroke-width:0.8;"/>
     </g>
     <g id="line2d_4">
      <g>
       <use style="stroke:#000000;stroke-width:0.8;" x="87.1435" xlink:href="#mdac81d5106" y="120.5216"/>
      </g>
     </g>
    </g>
    <g id="xtick_3">
     <g id="line2d_5">
      <path clip-path="url(#pb0c16406a7)" d="M 122.767364 120.5216 
L 122.767364 32.64 
" style="fill:none;stroke:#b0b0b0;stroke-linecap:square;stroke-width:0.8;"/>
     </g>
     <g id="line2d_6">
      <g>
       <use style="stroke:#000000;stroke-width:0.8;" x="122.767364" xlink:href="#mdac81d5106" y="120.5216"/>
      </g>
     </g>
    </g>
    <g id="xtick_4">
     <g id="line2d_7">
      <path clip-path="url(#pb0c16406a7)" d="M 158.391227 120.5216 
L 158.391227 32.64 
" style="fill:none;stroke:#b0b0b0;stroke-linecap:square;stroke-width:0.8;"/>
     </g>
     <g id="line2d_8">
      <g>
       <use style="stroke:#000000;stroke-width:0.8;" x="158.391227" xlink:href="#mdac81d5106" y="120.5216"/>
      </g>
     </g>
    </g>
    <g id="xtick_5">
     <g id="line2d_9">
      <path clip-path="url(#pb0c16406a7)" d="M 194.015091 120.5216 
L 194.015091 32.64 
" style="fill:none;stroke:#b0b0b0;stroke-linecap:square;stroke-width:0.8;"/>
     </g>
     <g id="line2d_10">
      <g>
       <use style="stroke:#000000;stroke-width:0.8;" x="194.015091" xlink:href="#mdac81d5106" y="120.5216"/>
      </g>
     </g>
    </g>
    <g id="xtick_6">
     <g id="line2d_11">
      <path clip-path="url(#pb0c16406a7)" d="M 229.638955 120.5216 
L 229.638955 32.64 
" style="fill:none;stroke:#b0b0b0;stroke-linecap:square;stroke-width:0.8;"/>
     </g>
     <g id="line2d_12">
      <g>
       <use style="stroke:#000000;stroke-width:0.8;" x="229.638955" xlink:href="#mdac81d5106" y="120.5216"/>
      </g>
     </g>
    </g>
    <g id="xtick_7">
     <g id="line2d_13">
      <path clip-path="url(#pb0c16406a7)" d="M 265.262818 120.5216 
L 265.262818 32.64 
" style="fill:none;stroke:#b0b0b0;stroke-linecap:square;stroke-width:0.8;"/>
     </g>
     <g id="line2d_14">
      <g>
       <use style="stroke:#000000;stroke-width:0.8;" x="265.262818" xlink:href="#mdac81d5106" y="120.5216"/>
      </g>
     </g>
    </g>
    <g id="xtick_8">
     <g id="line2d_15">
      <path clip-path="url(#pb0c16406a7)" d="M 300.886682 120.5216 
L 300.886682 32.64 
" style="fill:none;stroke:#b0b0b0;stroke-linecap:square;stroke-width:0.8;"/>
     </g>
     <g id="line2d_16">
      <g>
       <use style="stroke:#000000;stroke-width:0.8;" x="300.886682" xlink:href="#mdac81d5106" y="120.5216"/>
      </g>
     </g>
    </g>
    <g id="xtick_9">
     <g id="line2d_17">
      <path clip-path="url(#pb0c16406a7)" d="M 336.510545 120.5216 
L 336.510545 32.64 
" style="fill:none;stroke:#b0b0b0;stroke-linecap:square;stroke-width:0.8;"/>
     </g>
     <g id="line2d_18">
      <g>
       <use style="stroke:#000000;stroke-width:0.8;" x="336.510545" xlink:href="#mdac81d5106" y="120.5216"/>
      </g>
     </g>
    </g>
   </g>
   <g id="matplotlib.axis_2">
    <g id="ytick_1">
     <g id="line2d_19">
      <path clip-path="url(#pb0c16406a7)" d="M 40.12 118.637906 
L 353.61 118.637906 
" style="fill:none;stroke:#b0b0b0;stroke-linecap:square;stroke-width:0.8;"/>
     </g>
     <g id="line2d_20">
      <defs>
       <path d="M 0 0 
L -3.5 0 
" id="m9b39ea53ff" style="stroke:#000000;stroke-width:0.8;"/>
      </defs>
      <g>
       <use style="stroke:#000000;stroke-width:0.8;" x="40.12" xlink:href="#m9b39ea53ff" y="118.637906"/>
      </g>
     </g>
     <g id="text_1">
      <!-- 0 -->
      <defs>
       <path d="M 31.78125 66.40625 
Q 24.171875 66.40625 20.328125 58.90625 
Q 16.5 51.421875 16.5 36.375 
Q 16.5 21.390625 20.328125 13.890625 
Q 24.171875 6.390625 31.78125 6.390625 
Q 39.453125 6.390625 43.28125 13.890625 
Q 47.125 21.390625 47.125 36.375 
Q 47.125 51.421875 43.28125 58.90625 
Q 39.453125 66.40625 31.78125 66.40625 
z
M 31.78125 74.21875 
Q 44.046875 74.21875 50.515625 64.515625 
Q 56.984375 54.828125 56.984375 36.375 
Q 56.984375 17.96875 50.515625 8.265625 
Q 44.046875 -1.421875 31.78125 -1.421875 
Q 19.53125 -1.421875 13.0625 8.265625 
Q 6.59375 17.96875 6.59375 36.375 
Q 6.59375 54.828125 13.0625 64.515625 
Q 19.53125 74.21875 31.78125 74.21875 
z
" id="DejaVuSans-48"/>
      </defs>
      <g transform="translate(26.7575 122.437125)scale(0.1 -0.1)">
       <use xlink:href="#DejaVuSans-48"/>
      </g>
     </g>
    </g>
    <g id="ytick_2">
     <g id="line2d_21">
      <path clip-path="url(#pb0c16406a7)" d="M 40.12 92.225816 
L 353.61 92.225816 
" style="fill:none;stroke:#b0b0b0;stroke-linecap:square;stroke-width:0.8;"/>
     </g>
     <g id="line2d_22">
      <g>
       <use style="stroke:#000000;stroke-width:0.8;" x="40.12" xlink:href="#m9b39ea53ff" y="92.225816"/>
      </g>
     </g>
     <g id="text_2">
      <!-- 50 -->
      <defs>
       <path d="M 10.796875 72.90625 
L 49.515625 72.90625 
L 49.515625 64.59375 
L 19.828125 64.59375 
L 19.828125 46.734375 
Q 21.96875 47.46875 24.109375 47.828125 
Q 26.265625 48.1875 28.421875 48.1875 
Q 40.625 48.1875 47.75 41.5 
Q 54.890625 34.8125 54.890625 23.390625 
Q 54.890625 11.625 47.5625 5.09375 
Q 40.234375 -1.421875 26.90625 -1.421875 
Q 22.3125 -1.421875 17.546875 -0.640625 
Q 12.796875 0.140625 7.71875 1.703125 
L 7.71875 11.625 
Q 12.109375 9.234375 16.796875 8.0625 
Q 21.484375 6.890625 26.703125 6.890625 
Q 35.15625 6.890625 40.078125 11.328125 
Q 45.015625 15.765625 45.015625 23.390625 
Q 45.015625 31 40.078125 35.4375 
Q 35.15625 39.890625 26.703125 39.890625 
Q 22.75 39.890625 18.8125 39.015625 
Q 14.890625 38.140625 10.796875 36.28125 
z
" id="DejaVuSans-53"/>
      </defs>
      <g transform="translate(20.395 96.025034)scale(0.1 -0.1)">
       <use xlink:href="#DejaVuSans-53"/>
       <use x="63.623047" xlink:href="#DejaVuSans-48"/>
      </g>
     </g>
    </g>
    <g id="ytick_3">
     <g id="line2d_23">
      <path clip-path="url(#pb0c16406a7)" d="M 40.12 65.813725 
L 353.61 65.813725 
" style="fill:none;stroke:#b0b0b0;stroke-linecap:square;stroke-width:0.8;"/>
     </g>
     <g id="line2d_24">
      <g>
       <use style="stroke:#000000;stroke-width:0.8;" x="40.12" xlink:href="#m9b39ea53ff" y="65.813725"/>
      </g>
     </g>
     <g id="text_3">
      <!-- 100 -->
      <defs>
       <path d="M 12.40625 8.296875 
L 28.515625 8.296875 
L 28.515625 63.921875 
L 10.984375 60.40625 
L 10.984375 69.390625 
L 28.421875 72.90625 
L 38.28125 72.90625 
L 38.28125 8.296875 
L 54.390625 8.296875 
L 54.390625 0 
L 12.40625 0 
z
" id="DejaVuSans-49"/>
      </defs>
      <g transform="translate(14.0325 69.612944)scale(0.1 -0.1)">
       <use xlink:href="#DejaVuSans-49"/>
       <use x="63.623047" xlink:href="#DejaVuSans-48"/>
       <use x="127.246094" xlink:href="#DejaVuSans-48"/>
      </g>
     </g>
    </g>
    <g id="ytick_4">
     <g id="line2d_25">
      <path clip-path="url(#pb0c16406a7)" d="M 40.12 39.401635 
L 353.61 39.401635 
" style="fill:none;stroke:#b0b0b0;stroke-linecap:square;stroke-width:0.8;"/>
     </g>
     <g id="line2d_26">
      <g>
       <use style="stroke:#000000;stroke-width:0.8;" x="40.12" xlink:href="#m9b39ea53ff" y="39.401635"/>
      </g>
     </g>
     <g id="text_4">
      <!-- 150 -->
      <g transform="translate(14.0325 43.200853)scale(0.1 -0.1)">
       <use xlink:href="#DejaVuSans-49"/>
       <use x="63.623047" xlink:href="#DejaVuSans-53"/>
       <use x="127.246094" xlink:href="#DejaVuSans-48"/>
      </g>
     </g>
    </g>
   </g>
   <g id="line2d_27">
    <path clip-path="url(#pb0c16406a7)" d="M 54.369545 116.524939 
L 64.344227 109.261614 
L 65.769182 108.733372 
L 67.194136 108.469251 
L 67.906614 108.20513 
L 68.619091 108.07307 
L 69.331568 107.808949 
L 70.044045 107.676889 
L 70.756523 107.412768 
L 71.469 107.280707 
L 72.181477 107.016586 
L 73.606432 106.752465 
L 74.318909 106.488345 
L 75.031386 106.356284 
L 75.743864 106.092163 
L 76.456341 105.960103 
L 77.168818 105.695982 
L 78.593773 105.431861 
L 79.30625 105.16774 
L 80.018727 105.03568 
L 80.731205 104.771559 
L 82.156159 104.507438 
L 82.868636 104.243317 
L 83.581114 104.111256 
L 84.293591 103.847135 
L 85.006068 103.715075 
L 85.718545 103.450954 
L 86.431023 103.318894 
L 87.1435 103.979196 
L 87.855977 103.715075 
L 88.568455 103.318894 
L 89.280932 103.186833 
L 89.993409 102.790652 
L 91.418364 102.26241 
L 92.130841 101.866229 
L 92.843318 101.734168 
L 94.268273 101.205926 
L 95.693227 100.941806 
L 96.405705 100.677685 
L 97.830659 100.413564 
L 98.543136 100.017382 
L 99.255614 99.753261 
L 99.968091 100.017382 
L 102.818 98.960899 
L 103.530477 98.960899 
L 104.955432 98.432657 
L 106.380386 98.168536 
L 107.092864 97.904415 
L 107.805341 97.772355 
L 108.517818 97.508234 
L 109.230295 97.376173 
L 109.942773 97.112052 
L 110.65525 96.979992 
L 111.367727 96.715871 
L 112.792682 96.45175 
L 113.505159 96.187629 
L 114.217636 96.055569 
L 114.930114 95.791448 
L 116.355068 95.527327 
L 117.067545 95.263206 
L 117.780023 95.131146 
L 118.4925 94.867025 
L 119.917455 94.602904 
L 120.629932 94.338783 
L 121.342409 94.206722 
L 122.054886 93.942602 
L 122.767364 93.810541 
L 123.479841 93.54642 
L 124.904795 93.282299 
L 125.617273 93.018178 
L 126.32975 92.886118 
L 127.042227 92.621997 
L 127.754705 92.489937 
L 128.467182 92.225816 
L 129.892136 91.961695 
L 130.604614 91.697574 
L 131.317091 91.565513 
L 132.029568 91.301392 
L 133.454523 91.037272 
L 134.167 90.773151 
L 134.879477 90.64109 
L 135.591955 90.376969 
L 137.016909 90.112848 
L 137.729386 89.848727 
L 138.441864 89.716667 
L 139.154341 89.452546 
L 139.866818 89.320486 
L 140.579295 89.056365 
L 142.00425 88.792244 
L 142.716727 88.528123 
L 143.429205 88.396063 
L 144.141682 88.131942 
L 144.854159 87.999881 
L 145.566636 87.73576 
L 146.991591 87.471639 
L 147.704068 87.207518 
L 148.416545 87.075458 
L 149.129023 86.811337 
L 150.553977 86.547216 
L 151.266455 86.283095 
L 151.978932 86.151035 
L 152.691409 85.886914 
L 154.116364 85.622793 
L 154.828841 85.358672 
L 155.541318 85.226612 
L 156.253795 84.962491 
L 156.966273 84.83043 
L 157.67875 84.566309 
L 159.103705 84.302188 
L 159.816182 84.038068 
L 160.528659 83.906007 
L 161.241136 83.641886 
L 162.666091 83.377765 
L 163.378568 83.113644 
L 164.091045 82.981584 
L 164.803523 82.717463 
L 165.516 82.585403 
L 166.228477 82.321282 
L 167.653432 82.057161 
L 168.365909 81.79304 
L 169.078386 81.660979 
L 169.790864 81.396859 
L 171.215818 81.132738 
L 171.928295 80.868617 
L 172.640773 80.736556 
L 173.35325 80.472435 
L 174.065727 80.340375 
L 174.778205 80.076254 
L 176.203159 79.812133 
L 176.915636 79.548012 
L 177.628114 79.415952 
L 178.340591 79.151831 
L 179.765545 78.88771 
L 180.478023 78.623589 
L 181.1905 78.491529 
L 181.902977 78.227408 
L 182.615455 78.095347 
L 183.327932 77.831226 
L 184.752886 77.567105 
L 185.465364 77.302984 
L 186.177841 77.170924 
L 186.890318 76.906803 
L 188.315273 76.642682 
L 189.02775 76.378561 
L 189.740227 76.246501 
L 190.452705 75.98238 
L 191.165182 75.85032 
L 191.877659 75.586199 
L 193.302614 75.322078 
L 194.015091 75.057957 
L 194.727568 74.925896 
L 195.440045 74.661775 
L 196.865 74.397655 
L 197.577477 74.133534 
L 198.289955 74.001473 
L 199.002432 73.737352 
L 199.714909 73.605292 
L 200.427386 73.341171 
L 201.852341 73.07705 
L 202.564818 72.812929 
L 203.277295 72.680869 
L 203.989773 72.416748 
L 205.414727 72.152627 
L 206.127205 71.888506 
L 206.839682 71.756445 
L 207.552159 71.492325 
L 208.264636 71.360264 
L 208.977114 71.096143 
L 210.402068 70.832022 
L 211.114545 70.567901 
L 211.827023 70.435841 
L 212.5395 70.17172 
L 213.964455 69.907599 
L 214.676932 69.643478 
L 215.389409 69.511418 
L 216.101886 69.247297 
L 216.814364 69.115236 
L 217.526841 68.851116 
L 218.951795 68.586995 
L 219.664273 68.322874 
L 220.37675 68.190813 
L 221.089227 67.926692 
L 222.514182 67.662571 
L 223.226659 67.398451 
L 223.939136 67.26639 
L 224.651614 67.002269 
L 225.364091 66.870209 
L 226.076568 66.606088 
L 227.501523 66.341967 
L 228.214 66.077846 
L 228.926477 65.945786 
L 229.638955 65.681665 
L 231.063909 65.417544 
L 231.776386 65.153423 
L 232.488864 65.021362 
L 233.201341 64.757241 
L 233.913818 64.625181 
L 234.626295 64.36106 
L 236.05125 64.096939 
L 236.763727 63.832818 
L 237.476205 63.700758 
L 238.188682 63.436637 
L 239.613636 63.172516 
L 240.326114 62.908395 
L 241.038591 62.776335 
L 241.751068 62.512214 
L 242.463545 62.380153 
L 243.176023 62.116032 
L 244.600977 61.851912 
L 245.313455 61.587791 
L 246.025932 61.45573 
L 246.738409 61.191609 
L 248.163364 60.927488 
L 248.875841 60.663367 
L 249.588318 60.531307 
L 250.300795 60.267186 
L 251.013273 60.135126 
L 251.72575 59.871005 
L 253.150705 59.606884 
L 253.863182 59.342763 
L 254.575659 59.210702 
L 255.288136 58.946582 
L 256.713091 58.682461 
L 257.425568 58.41834 
L 258.138045 58.286279 
L 258.850523 58.022158 
L 259.563 57.890098 
L 260.275477 57.625977 
L 261.700432 57.361856 
L 262.412909 57.097735 
L 263.125386 56.965675 
L 263.837864 56.701554 
L 265.262818 56.437433 
L 265.975295 56.173312 
L 266.687773 56.041252 
L 267.40025 55.777131 
L 268.112727 55.64507 
L 268.825205 55.380949 
L 270.250159 55.116828 
L 270.962636 54.852708 
L 271.675114 54.720647 
L 272.387591 54.456526 
L 273.812545 54.192405 
L 274.525023 53.928284 
L 275.2375 53.796224 
L 275.949977 53.532103 
L 276.662455 53.400043 
L 277.374932 53.135922 
L 278.799886 52.871801 
L 279.512364 52.60768 
L 280.224841 52.475619 
L 280.937318 52.211499 
L 282.362273 51.947378 
L 283.07475 51.683257 
L 283.787227 51.551196 
L 284.499705 51.287075 
L 285.212182 51.155015 
L 285.924659 50.890894 
L 287.349614 50.626773 
L 288.062091 50.362652 
L 288.774568 50.230592 
L 289.487045 49.966471 
L 290.912 49.70235 
L 291.624477 49.438229 
L 292.336955 49.306169 
L 293.049432 49.042048 
L 293.761909 48.909987 
L 294.474386 48.645866 
L 295.899341 48.381745 
L 296.611818 48.117624 
L 297.324295 47.985564 
L 298.036773 47.721443 
L 299.461727 47.457322 
L 300.174205 47.193201 
L 300.886682 47.061141 
L 301.599159 46.79702 
L 302.311636 46.664959 
L 303.024114 46.400839 
L 304.449068 46.136718 
L 305.161545 45.872597 
L 305.874023 45.740536 
L 306.5865 45.476415 
L 308.011455 45.212295 
L 308.723932 44.948174 
L 309.436409 44.816113 
L 310.148886 44.551992 
L 310.861364 44.419932 
L 311.573841 44.155811 
L 312.998795 43.89169 
L 313.711273 43.627569 
L 314.42375 43.495509 
L 315.136227 43.231388 
L 316.561182 42.967267 
L 317.273659 42.703146 
L 317.986136 42.571085 
L 318.698614 42.306965 
L 319.411091 42.174904 
L 320.123568 41.910783 
L 321.548523 41.646662 
L 322.261 41.382541 
L 322.973477 41.250481 
L 323.685955 40.98636 
L 325.110909 40.722239 
L 325.823386 40.458118 
L 326.535864 40.326058 
L 327.248341 40.061937 
L 327.960818 39.929876 
L 328.673295 39.665756 
L 330.09825 39.401635 
L 330.810727 39.137514 
L 331.523205 39.005453 
L 332.235682 38.741332 
L 333.660636 38.477211 
L 334.373114 38.213091 
L 335.085591 38.08103 
L 335.798068 37.816909 
L 336.510545 37.684849 
L 337.223023 37.420728 
L 338.647977 37.156607 
L 339.360455 36.892486 
L 339.360455 36.892486 
" style="fill:none;stroke:#1f77b4;stroke-linecap:square;stroke-width:1.5;"/>
   </g>
   <g id="line2d_28">
    <path clip-path="url(#pb0c16406a7)" d="M 54.369545 116.526982 
L 64.344227 109.263033 
L 66.481659 108.611098 
L 81.443682 104.58838 
L 339.360455 36.634618 
L 339.360455 36.634618 
" style="fill:none;stroke:#ff7f0e;stroke-linecap:square;stroke-width:1.5;"/>
   </g>
   <g id="patch_3">
    <path d="M 40.12 120.5216 
L 40.12 32.64 
" style="fill:none;stroke:#000000;stroke-linecap:square;stroke-linejoin:miter;stroke-width:0.8;"/>
   </g>
   <g id="patch_4">
    <path d="M 353.61 120.5216 
L 353.61 32.64 
" style="fill:none;stroke:#000000;stroke-linecap:square;stroke-linejoin:miter;stroke-width:0.8;"/>
   </g>
   <g id="patch_5">
    <path d="M 40.12 120.5216 
L 353.61 120.5216 
" style="fill:none;stroke:#000000;stroke-linecap:square;stroke-linejoin:miter;stroke-width:0.8;"/>
   </g>
   <g id="patch_6">
    <path d="M 40.12 32.64 
L 353.61 32.64 
" style="fill:none;stroke:#000000;stroke-linecap:square;stroke-linejoin:miter;stroke-width:0.8;"/>
   </g>
   <g id="text_5">
    <!-- Cons. Functions -->
    <defs>
     <path d="M 64.40625 67.28125 
L 64.40625 56.890625 
Q 59.421875 61.53125 53.78125 63.8125 
Q 48.140625 66.109375 41.796875 66.109375 
Q 29.296875 66.109375 22.65625 58.46875 
Q 16.015625 50.828125 16.015625 36.375 
Q 16.015625 21.96875 22.65625 14.328125 
Q 29.296875 6.6875 41.796875 6.6875 
Q 48.140625 6.6875 53.78125 8.984375 
Q 59.421875 11.28125 64.40625 15.921875 
L 64.40625 5.609375 
Q 59.234375 2.09375 53.4375 0.328125 
Q 47.65625 -1.421875 41.21875 -1.421875 
Q 24.65625 -1.421875 15.125 8.703125 
Q 5.609375 18.84375 5.609375 36.375 
Q 5.609375 53.953125 15.125 64.078125 
Q 24.65625 74.21875 41.21875 74.21875 
Q 47.75 74.21875 53.53125 72.484375 
Q 59.328125 70.75 64.40625 67.28125 
z
" id="DejaVuSans-67"/>
     <path d="M 30.609375 48.390625 
Q 23.390625 48.390625 19.1875 42.75 
Q 14.984375 37.109375 14.984375 27.296875 
Q 14.984375 17.484375 19.15625 11.84375 
Q 23.34375 6.203125 30.609375 6.203125 
Q 37.796875 6.203125 41.984375 11.859375 
Q 46.1875 17.53125 46.1875 27.296875 
Q 46.1875 37.015625 41.984375 42.703125 
Q 37.796875 48.390625 30.609375 48.390625 
z
M 30.609375 56 
Q 42.328125 56 49.015625 48.375 
Q 55.71875 40.765625 55.71875 27.296875 
Q 55.71875 13.875 49.015625 6.21875 
Q 42.328125 -1.421875 30.609375 -1.421875 
Q 18.84375 -1.421875 12.171875 6.21875 
Q 5.515625 13.875 5.515625 27.296875 
Q 5.515625 40.765625 12.171875 48.375 
Q 18.84375 56 30.609375 56 
z
" id="DejaVuSans-111"/>
     <path d="M 54.890625 33.015625 
L 54.890625 0 
L 45.90625 0 
L 45.90625 32.71875 
Q 45.90625 40.484375 42.875 44.328125 
Q 39.84375 48.1875 33.796875 48.1875 
Q 26.515625 48.1875 22.3125 43.546875 
Q 18.109375 38.921875 18.109375 30.90625 
L 18.109375 0 
L 9.078125 0 
L 9.078125 54.6875 
L 18.109375 54.6875 
L 18.109375 46.1875 
Q 21.34375 51.125 25.703125 53.5625 
Q 30.078125 56 35.796875 56 
Q 45.21875 56 50.046875 50.171875 
Q 54.890625 44.34375 54.890625 33.015625 
z
" id="DejaVuSans-110"/>
     <path d="M 44.28125 53.078125 
L 44.28125 44.578125 
Q 40.484375 46.53125 36.375 47.5 
Q 32.28125 48.484375 27.875 48.484375 
Q 21.1875 48.484375 17.84375 46.4375 
Q 14.5 44.390625 14.5 40.28125 
Q 14.5 37.15625 16.890625 35.375 
Q 19.28125 33.59375 26.515625 31.984375 
L 29.59375 31.296875 
Q 39.15625 29.25 43.1875 25.515625 
Q 47.21875 21.78125 47.21875 15.09375 
Q 47.21875 7.46875 41.1875 3.015625 
Q 35.15625 -1.421875 24.609375 -1.421875 
Q 20.21875 -1.421875 15.453125 -0.5625 
Q 10.6875 0.296875 5.421875 2 
L 5.421875 11.28125 
Q 10.40625 8.6875 15.234375 7.390625 
Q 20.0625 6.109375 24.8125 6.109375 
Q 31.15625 6.109375 34.5625 8.28125 
Q 37.984375 10.453125 37.984375 14.40625 
Q 37.984375 18.0625 35.515625 20.015625 
Q 33.0625 21.96875 24.703125 23.78125 
L 21.578125 24.515625 
Q 13.234375 26.265625 9.515625 29.90625 
Q 5.8125 33.546875 5.8125 39.890625 
Q 5.8125 47.609375 11.28125 51.796875 
Q 16.75 56 26.8125 56 
Q 31.78125 56 36.171875 55.265625 
Q 40.578125 54.546875 44.28125 53.078125 
z
" id="DejaVuSans-115"/>
     <path d="M 10.6875 12.40625 
L 21 12.40625 
L 21 0 
L 10.6875 0 
z
" id="DejaVuSans-46"/>
     <path id="DejaVuSans-32"/>
     <path d="M 9.8125 72.90625 
L 51.703125 72.90625 
L 51.703125 64.59375 
L 19.671875 64.59375 
L 19.671875 43.109375 
L 48.578125 43.109375 
L 48.578125 34.8125 
L 19.671875 34.8125 
L 19.671875 0 
L 9.8125 0 
z
" id="DejaVuSans-70"/>
     <path d="M 8.5 21.578125 
L 8.5 54.6875 
L 17.484375 54.6875 
L 17.484375 21.921875 
Q 17.484375 14.15625 20.5 10.265625 
Q 23.53125 6.390625 29.59375 6.390625 
Q 36.859375 6.390625 41.078125 11.03125 
Q 45.3125 15.671875 45.3125 23.6875 
L 45.3125 54.6875 
L 54.296875 54.6875 
L 54.296875 0 
L 45.3125 0 
L 45.3125 8.40625 
Q 42.046875 3.421875 37.71875 1 
Q 33.40625 -1.421875 27.6875 -1.421875 
Q 18.265625 -1.421875 13.375 4.4375 
Q 8.5 10.296875 8.5 21.578125 
z
M 31.109375 56 
z
" id="DejaVuSans-117"/>
     <path d="M 48.78125 52.59375 
L 48.78125 44.1875 
Q 44.96875 46.296875 41.140625 47.34375 
Q 37.3125 48.390625 33.40625 48.390625 
Q 24.65625 48.390625 19.8125 42.84375 
Q 14.984375 37.3125 14.984375 27.296875 
Q 14.984375 17.28125 19.8125 11.734375 
Q 24.65625 6.203125 33.40625 6.203125 
Q 37.3125 6.203125 41.140625 7.25 
Q 44.96875 8.296875 48.78125 10.40625 
L 48.78125 2.09375 
Q 45.015625 0.34375 40.984375 -0.53125 
Q 36.96875 -1.421875 32.421875 -1.421875 
Q 20.0625 -1.421875 12.78125 6.34375 
Q 5.515625 14.109375 5.515625 27.296875 
Q 5.515625 40.671875 12.859375 48.328125 
Q 20.21875 56 33.015625 56 
Q 37.15625 56 41.109375 55.140625 
Q 45.0625 54.296875 48.78125 52.59375 
z
" id="DejaVuSans-99"/>
     <path d="M 18.3125 70.21875 
L 18.3125 54.6875 
L 36.8125 54.6875 
L 36.8125 47.703125 
L 18.3125 47.703125 
L 18.3125 18.015625 
Q 18.3125 11.328125 20.140625 9.421875 
Q 21.96875 7.515625 27.59375 7.515625 
L 36.8125 7.515625 
L 36.8125 0 
L 27.59375 0 
Q 17.1875 0 13.234375 3.875 
Q 9.28125 7.765625 9.28125 18.015625 
L 9.28125 47.703125 
L 2.6875 47.703125 
L 2.6875 54.6875 
L 9.28125 54.6875 
L 9.28125 70.21875 
z
" id="DejaVuSans-116"/>
     <path d="M 9.421875 54.6875 
L 18.40625 54.6875 
L 18.40625 0 
L 9.421875 0 
z
M 9.421875 75.984375 
L 18.40625 75.984375 
L 18.40625 64.59375 
L 9.421875 64.59375 
z
" id="DejaVuSans-105"/>
    </defs>
    <g transform="translate(149.293438 26.64)scale(0.12 -0.12)">
     <use xlink:href="#DejaVuSans-67"/>
     <use x="69.824219" xlink:href="#DejaVuSans-111"/>
     <use x="131.005859" xlink:href="#DejaVuSans-110"/>
     <use x="194.384766" xlink:href="#DejaVuSans-115"/>
     <use x="246.484375" xlink:href="#DejaVuSans-46"/>
     <use x="278.271484" xlink:href="#DejaVuSans-32"/>
     <use x="310.058594" xlink:href="#DejaVuSans-70"/>
     <use x="367.5" xlink:href="#DejaVuSans-117"/>
     <use x="430.878906" xlink:href="#DejaVuSans-110"/>
     <use x="494.257812" xlink:href="#DejaVuSans-99"/>
     <use x="549.238281" xlink:href="#DejaVuSans-116"/>
     <use x="588.447266" xlink:href="#DejaVuSans-105"/>
     <use x="616.230469" xlink:href="#DejaVuSans-111"/>
     <use x="677.412109" xlink:href="#DejaVuSans-110"/>
     <use x="740.791016" xlink:href="#DejaVuSans-115"/>
    </g>
   </g>
   <g id="legend_1">
    <g id="patch_7">
     <path d="M 47.12 69.99625 
L 106.987188 69.99625 
Q 108.987188 69.99625 108.987188 67.99625 
L 108.987188 39.64 
Q 108.987188 37.64 106.987188 37.64 
L 47.12 37.64 
Q 45.12 37.64 45.12 39.64 
L 45.12 67.99625 
Q 45.12 69.99625 47.12 69.99625 
z
" style="fill:#ffffff;opacity:0.8;stroke:#cccccc;stroke-linejoin:miter;"/>
    </g>
    <g id="line2d_29">
     <path d="M 49.12 45.738438 
L 69.12 45.738438 
" style="fill:none;stroke:#1f77b4;stroke-linecap:square;stroke-width:1.5;"/>
    </g>
    <g id="line2d_30"/>
    <g id="text_6">
     <!-- CGM -->
     <defs>
      <path d="M 59.515625 10.40625 
L 59.515625 29.984375 
L 43.40625 29.984375 
L 43.40625 38.09375 
L 69.28125 38.09375 
L 69.28125 6.78125 
Q 63.578125 2.734375 56.6875 0.65625 
Q 49.8125 -1.421875 42 -1.421875 
Q 24.90625 -1.421875 15.25 8.5625 
Q 5.609375 18.5625 5.609375 36.375 
Q 5.609375 54.25 15.25 64.234375 
Q 24.90625 74.21875 42 74.21875 
Q 49.125 74.21875 55.546875 72.453125 
Q 61.96875 70.703125 67.390625 67.28125 
L 67.390625 56.78125 
Q 61.921875 61.421875 55.765625 63.765625 
Q 49.609375 66.109375 42.828125 66.109375 
Q 29.4375 66.109375 22.71875 58.640625 
Q 16.015625 51.171875 16.015625 36.375 
Q 16.015625 21.625 22.71875 14.15625 
Q 29.4375 6.6875 42.828125 6.6875 
Q 48.046875 6.6875 52.140625 7.59375 
Q 56.25 8.5 59.515625 10.40625 
z
" id="DejaVuSans-71"/>
      <path d="M 9.8125 72.90625 
L 24.515625 72.90625 
L 43.109375 23.296875 
L 61.8125 72.90625 
L 76.515625 72.90625 
L 76.515625 0 
L 66.890625 0 
L 66.890625 64.015625 
L 48.09375 14.015625 
L 38.1875 14.015625 
L 19.390625 64.015625 
L 19.390625 0 
L 9.8125 0 
z
" id="DejaVuSans-77"/>
     </defs>
     <g transform="translate(77.12 49.238438)scale(0.1 -0.1)">
      <use xlink:href="#DejaVuSans-67"/>
      <use x="69.824219" xlink:href="#DejaVuSans-71"/>
      <use x="147.314453" xlink:href="#DejaVuSans-77"/>
     </g>
    </g>
    <g id="line2d_31">
     <path d="M 49.12 60.416563 
L 69.12 60.416563 
" style="fill:none;stroke:#ff7f0e;stroke-linecap:square;stroke-width:1.5;"/>
    </g>
    <g id="line2d_32"/>
    <g id="text_7">
     <!-- HARK -->
     <defs>
      <path d="M 9.8125 72.90625 
L 19.671875 72.90625 
L 19.671875 43.015625 
L 55.515625 43.015625 
L 55.515625 72.90625 
L 65.375 72.90625 
L 65.375 0 
L 55.515625 0 
L 55.515625 34.71875 
L 19.671875 34.71875 
L 19.671875 0 
L 9.8125 0 
z
" id="DejaVuSans-72"/>
      <path d="M 34.1875 63.1875 
L 20.796875 26.90625 
L 47.609375 26.90625 
z
M 28.609375 72.90625 
L 39.796875 72.90625 
L 67.578125 0 
L 57.328125 0 
L 50.6875 18.703125 
L 17.828125 18.703125 
L 11.1875 0 
L 0.78125 0 
z
" id="DejaVuSans-65"/>
      <path d="M 44.390625 34.1875 
Q 47.5625 33.109375 50.5625 29.59375 
Q 53.5625 26.078125 56.59375 19.921875 
L 66.609375 0 
L 56 0 
L 46.6875 18.703125 
Q 43.0625 26.03125 39.671875 28.421875 
Q 36.28125 30.8125 30.421875 30.8125 
L 19.671875 30.8125 
L 19.671875 0 
L 9.8125 0 
L 9.8125 72.90625 
L 32.078125 72.90625 
Q 44.578125 72.90625 50.734375 67.671875 
Q 56.890625 62.453125 56.890625 51.90625 
Q 56.890625 45.015625 53.6875 40.46875 
Q 50.484375 35.9375 44.390625 34.1875 
z
M 19.671875 64.796875 
L 19.671875 38.921875 
L 32.078125 38.921875 
Q 39.203125 38.921875 42.84375 42.21875 
Q 46.484375 45.515625 46.484375 51.90625 
Q 46.484375 58.296875 42.84375 61.546875 
Q 39.203125 64.796875 32.078125 64.796875 
z
" id="DejaVuSans-82"/>
      <path d="M 9.8125 72.90625 
L 19.671875 72.90625 
L 19.671875 42.09375 
L 52.390625 72.90625 
L 65.09375 72.90625 
L 28.90625 38.921875 
L 67.671875 0 
L 54.6875 0 
L 19.671875 35.109375 
L 19.671875 0 
L 9.8125 0 
z
" id="DejaVuSans-75"/>
     </defs>
     <g transform="translate(77.12 63.916563)scale(0.1 -0.1)">
      <use xlink:href="#DejaVuSans-72"/>
      <use x="75.195312" xlink:href="#DejaVuSans-65"/>
      <use x="143.603516" xlink:href="#DejaVuSans-82"/>
      <use x="213.085938" xlink:href="#DejaVuSans-75"/>
     </g>
    </g>
   </g>
  </g>
  <g id="axes_2">
   <g id="patch_8">
    <path d="M 395.71 120.5216 
L 709.2 120.5216 
L 709.2 32.64 
L 395.71 32.64 
z
" style="fill:#ffffff;"/>
   </g>
   <g id="matplotlib.axis_3">
    <g id="xtick_10">
     <g id="line2d_33">
      <path clip-path="url(#pc6f986087c)" d="M 407.109636 120.5216 
L 407.109636 32.64 
" style="fill:none;stroke:#b0b0b0;stroke-linecap:square;stroke-width:0.8;"/>
     </g>
     <g id="line2d_34">
      <g>
       <use style="stroke:#000000;stroke-width:0.8;" x="407.109636" xlink:href="#mdac81d5106" y="120.5216"/>
      </g>
     </g>
    </g>
    <g id="xtick_11">
     <g id="line2d_35">
      <path clip-path="url(#pc6f986087c)" d="M 442.7335 120.5216 
L 442.7335 32.64 
" style="fill:none;stroke:#b0b0b0;stroke-linecap:square;stroke-width:0.8;"/>
     </g>
     <g id="line2d_36">
      <g>
       <use style="stroke:#000000;stroke-width:0.8;" x="442.7335" xlink:href="#mdac81d5106" y="120.5216"/>
      </g>
     </g>
    </g>
    <g id="xtick_12">
     <g id="line2d_37">
      <path clip-path="url(#pc6f986087c)" d="M 478.357364 120.5216 
L 478.357364 32.64 
" style="fill:none;stroke:#b0b0b0;stroke-linecap:square;stroke-width:0.8;"/>
     </g>
     <g id="line2d_38">
      <g>
       <use style="stroke:#000000;stroke-width:0.8;" x="478.357364" xlink:href="#mdac81d5106" y="120.5216"/>
      </g>
     </g>
    </g>
    <g id="xtick_13">
     <g id="line2d_39">
      <path clip-path="url(#pc6f986087c)" d="M 513.981227 120.5216 
L 513.981227 32.64 
" style="fill:none;stroke:#b0b0b0;stroke-linecap:square;stroke-width:0.8;"/>
     </g>
     <g id="line2d_40">
      <g>
       <use style="stroke:#000000;stroke-width:0.8;" x="513.981227" xlink:href="#mdac81d5106" y="120.5216"/>
      </g>
     </g>
    </g>
    <g id="xtick_14">
     <g id="line2d_41">
      <path clip-path="url(#pc6f986087c)" d="M 549.605091 120.5216 
L 549.605091 32.64 
" style="fill:none;stroke:#b0b0b0;stroke-linecap:square;stroke-width:0.8;"/>
     </g>
     <g id="line2d_42">
      <g>
       <use style="stroke:#000000;stroke-width:0.8;" x="549.605091" xlink:href="#mdac81d5106" y="120.5216"/>
      </g>
     </g>
    </g>
    <g id="xtick_15">
     <g id="line2d_43">
      <path clip-path="url(#pc6f986087c)" d="M 585.228955 120.5216 
L 585.228955 32.64 
" style="fill:none;stroke:#b0b0b0;stroke-linecap:square;stroke-width:0.8;"/>
     </g>
     <g id="line2d_44">
      <g>
       <use style="stroke:#000000;stroke-width:0.8;" x="585.228955" xlink:href="#mdac81d5106" y="120.5216"/>
      </g>
     </g>
    </g>
    <g id="xtick_16">
     <g id="line2d_45">
      <path clip-path="url(#pc6f986087c)" d="M 620.852818 120.5216 
L 620.852818 32.64 
" style="fill:none;stroke:#b0b0b0;stroke-linecap:square;stroke-width:0.8;"/>
     </g>
     <g id="line2d_46">
      <g>
       <use style="stroke:#000000;stroke-width:0.8;" x="620.852818" xlink:href="#mdac81d5106" y="120.5216"/>
      </g>
     </g>
    </g>
    <g id="xtick_17">
     <g id="line2d_47">
      <path clip-path="url(#pc6f986087c)" d="M 656.476682 120.5216 
L 656.476682 32.64 
" style="fill:none;stroke:#b0b0b0;stroke-linecap:square;stroke-width:0.8;"/>
     </g>
     <g id="line2d_48">
      <g>
       <use style="stroke:#000000;stroke-width:0.8;" x="656.476682" xlink:href="#mdac81d5106" y="120.5216"/>
      </g>
     </g>
    </g>
    <g id="xtick_18">
     <g id="line2d_49">
      <path clip-path="url(#pc6f986087c)" d="M 692.100545 120.5216 
L 692.100545 32.64 
" style="fill:none;stroke:#b0b0b0;stroke-linecap:square;stroke-width:0.8;"/>
     </g>
     <g id="line2d_50">
      <g>
       <use style="stroke:#000000;stroke-width:0.8;" x="692.100545" xlink:href="#mdac81d5106" y="120.5216"/>
      </g>
     </g>
    </g>
   </g>
   <g id="matplotlib.axis_4">
    <g id="ytick_5">
     <g id="line2d_51">
      <path clip-path="url(#pc6f986087c)" d="M 395.71 88.398103 
L 709.2 88.398103 
" style="fill:none;stroke:#b0b0b0;stroke-linecap:square;stroke-width:0.8;"/>
     </g>
     <g id="line2d_52">
      <g>
       <use style="stroke:#000000;stroke-width:0.8;" x="395.71" xlink:href="#m9b39ea53ff" y="88.398103"/>
      </g>
     </g>
     <g id="text_8">
      <!-- −1 -->
      <defs>
       <path d="M 10.59375 35.5 
L 73.1875 35.5 
L 73.1875 27.203125 
L 10.59375 27.203125 
z
" id="DejaVuSans-8722"/>
      </defs>
      <g transform="translate(373.967812 92.197321)scale(0.1 -0.1)">
       <use xlink:href="#DejaVuSans-8722"/>
       <use x="83.789062" xlink:href="#DejaVuSans-49"/>
      </g>
     </g>
    </g>
    <g id="ytick_6">
     <g id="line2d_53">
      <path clip-path="url(#pc6f986087c)" d="M 395.71 47.612342 
L 709.2 47.612342 
" style="fill:none;stroke:#b0b0b0;stroke-linecap:square;stroke-width:0.8;"/>
     </g>
     <g id="line2d_54">
      <g>
       <use style="stroke:#000000;stroke-width:0.8;" x="395.71" xlink:href="#m9b39ea53ff" y="47.612342"/>
      </g>
     </g>
     <g id="text_9">
      <!-- 0 -->
      <g transform="translate(382.3475 51.41156)scale(0.1 -0.1)">
       <use xlink:href="#DejaVuSans-48"/>
      </g>
     </g>
    </g>
   </g>
   <g id="line2d_55">
    <path clip-path="url(#pc6f986087c)" d="M 409.959545 47.454608 
L 419.22175 46.941972 
L 419.934227 47.502756 
L 420.646705 46.8296 
L 421.359182 41.789317 
L 422.784136 51.869436 
L 423.496614 46.633937 
L 424.209091 51.545847 
L 424.921568 46.214902 
L 425.634045 51.036047 
L 426.346523 45.618523 
L 427.059 50.357432 
L 427.771477 44.861482 
L 429.196432 54.154427 
L 429.908909 48.552854 
L 430.621386 53.109003 
L 431.333864 47.439435 
L 432.046341 51.912315 
L 432.758818 46.067551 
L 434.183773 54.714396 
L 434.89625 48.837354 
L 435.608727 53.154162 
L 436.321205 47.261886 
L 437.746159 55.856515 
L 438.458636 49.957362 
L 439.171114 54.254686 
L 439.883591 48.355539 
L 440.596068 52.652865 
L 441.308545 46.753713 
L 442.021023 51.05104 
L 442.7335 116.526982 
L 443.445977 110.627837 
L 444.158455 94.532285 
L 444.870932 98.829587 
L 445.583409 82.733996 
L 447.008364 70.935766 
L 447.720841 54.840167 
L 448.433318 59.137465 
L 449.858273 47.339244 
L 451.283227 55.933823 
L 451.995705 50.034687 
L 453.420659 58.629338 
L 454.133136 42.533765 
L 454.845614 36.634618 
L 455.558091 71.521232 
L 458.408 47.924739 
L 459.120477 62.418492 
L 460.545432 50.620193 
L 461.970386 59.214794 
L 462.682864 53.315664 
L 463.395341 57.612982 
L 464.107818 51.713868 
L 464.820295 56.011198 
L 465.532773 50.112071 
L 466.24525 54.409367 
L 466.957727 48.510221 
L 468.382682 57.104816 
L 469.095159 51.205678 
L 469.807636 55.502985 
L 470.520114 49.603855 
L 471.945068 58.198484 
L 472.657545 52.299361 
L 473.370023 56.596681 
L 474.0825 50.697566 
L 475.507455 59.292184 
L 476.219932 53.393042 
L 476.932409 57.69034 
L 477.644886 51.791199 
L 478.357364 56.088499 
L 479.069841 50.189361 
L 480.494795 58.783972 
L 481.207273 52.884839 
L 481.91975 57.182148 
L 482.632227 51.283017 
L 483.344705 55.580327 
L 484.057182 49.681197 
L 485.482136 58.275824 
L 486.194614 52.376699 
L 486.907091 56.674017 
L 487.619568 50.774896 
L 489.044523 59.369531 
L 489.757 53.470401 
L 490.469477 57.767703 
L 491.181955 51.868564 
L 492.606909 60.463167 
L 493.319386 54.56403 
L 494.031864 58.861333 
L 494.744341 52.962196 
L 495.456818 57.259501 
L 496.169295 51.360366 
L 497.59425 59.954977 
L 498.306727 54.055843 
L 499.019205 58.353148 
L 499.731682 52.454014 
L 500.444159 56.751321 
L 501.156636 50.852188 
L 502.581591 59.446805 
L 503.294068 53.547674 
L 504.006545 57.844984 
L 504.719023 51.945855 
L 506.143977 60.540478 
L 506.856455 54.641351 
L 507.568932 58.938664 
L 508.281409 53.039537 
L 509.706364 61.634166 
L 510.418841 55.73504 
L 511.131318 60.032357 
L 511.843795 54.133233 
L 512.556273 58.430549 
L 513.26875 52.531425 
L 514.693705 61.126045 
L 515.406182 55.22691 
L 516.118659 59.524215 
L 516.831136 53.625079 
L 518.256091 62.219688 
L 518.968568 56.320553 
L 519.681045 60.617858 
L 520.393523 54.718723 
L 521.106 59.016028 
L 521.818477 53.116894 
L 523.243432 61.711505 
L 523.955909 55.81237 
L 524.668386 60.109676 
L 525.380864 54.210541 
L 526.805818 62.805152 
L 527.518295 56.906017 
L 528.230773 61.203323 
L 528.94325 55.304189 
L 529.655727 59.601495 
L 530.368205 53.702361 
L 531.793159 62.296974 
L 532.505636 56.397841 
L 533.218114 60.695148 
L 533.930591 54.796015 
L 535.355545 63.39063 
L 536.068023 57.491498 
L 536.7805 61.788806 
L 537.492977 55.889673 
L 538.205455 60.186982 
L 538.917932 54.28785 
L 540.342886 62.882467 
L 541.055364 56.983336 
L 541.767841 61.280645 
L 542.480318 55.381514 
L 543.905273 63.976134 
L 544.61775 58.077003 
L 545.330227 62.374313 
L 546.042705 56.475183 
L 546.755182 60.772493 
L 547.467659 54.873363 
L 548.892614 63.467985 
L 549.605091 57.568855 
L 550.317568 61.866166 
L 551.030045 55.967037 
L 552.455 64.561659 
L 553.167477 58.662531 
L 553.879955 62.959842 
L 554.592432 57.060714 
L 555.304909 61.358026 
L 556.017386 55.458897 
L 557.442341 64.053522 
L 558.154818 58.154393 
L 558.867295 62.451706 
L 559.579773 56.552578 
L 561.004727 65.147203 
L 561.717205 59.248076 
L 562.429682 63.545388 
L 563.142159 57.646261 
L 563.854636 61.943574 
L 564.567114 56.044446 
L 565.992068 64.639067 
L 566.704545 58.739938 
L 567.417023 63.037247 
L 568.1295 57.138114 
L 569.554455 65.732729 
L 570.266932 59.833595 
L 570.979409 64.130902 
L 571.691886 58.231769 
L 572.404364 62.529076 
L 573.116841 56.629943 
L 574.541795 65.224557 
L 575.254273 59.325423 
L 575.96675 63.62273 
L 576.679227 57.723597 
L 578.104182 66.318212 
L 578.816659 60.419078 
L 579.529136 64.716386 
L 580.241614 58.817252 
L 580.954091 63.114559 
L 581.666568 57.215426 
L 583.091523 65.81004 
L 583.804 59.910906 
L 584.516477 64.208213 
L 585.228955 58.30908 
L 586.653909 66.903693 
L 587.366386 61.00456 
L 588.078864 65.301867 
L 588.791341 59.402734 
L 589.503818 63.700041 
L 590.216295 57.800907 
L 591.64125 66.395521 
L 592.353727 60.496388 
L 593.066205 64.793695 
L 593.778682 58.894562 
L 595.203636 67.489177 
L 595.916114 61.590044 
L 596.628591 65.887351 
L 597.341068 59.988218 
L 598.053545 64.285526 
L 598.766023 58.386393 
L 600.190977 66.981008 
L 600.903455 61.081875 
L 601.615932 65.379182 
L 602.328409 59.480049 
L 603.753364 68.074665 
L 604.465841 62.175532 
L 605.178318 66.47284 
L 605.890795 60.573707 
L 606.603273 64.871015 
L 607.31575 58.971882 
L 608.740705 67.566498 
L 609.453182 61.667365 
L 610.165659 65.964673 
L 610.878136 60.065541 
L 612.303091 68.660156 
L 613.015568 62.761024 
L 613.728045 67.058332 
L 614.440523 61.1592 
L 615.153 65.456508 
L 615.865477 59.557375 
L 617.290432 68.151992 
L 618.002909 62.252859 
L 618.715386 66.550168 
L 619.427864 60.651035 
L 620.852818 69.245652 
L 621.565295 63.34652 
L 622.277773 67.643828 
L 622.99025 61.744696 
L 623.702727 66.042004 
L 624.415205 60.142872 
L 625.840159 68.737489 
L 626.552636 62.838357 
L 627.265114 67.135665 
L 627.977591 61.236533 
L 629.402545 69.83115 
L 630.115023 63.932018 
L 630.8275 68.229327 
L 631.539977 62.330195 
L 632.252455 66.627504 
L 632.964932 60.728372 
L 634.389886 69.322989 
L 635.102364 63.423857 
L 635.814841 67.721166 
L 636.527318 61.822034 
L 637.952273 70.416652 
L 638.66475 64.51752 
L 639.377227 68.814829 
L 640.089705 62.915697 
L 640.802182 67.213006 
L 641.514659 61.313875 
L 642.939614 69.908492 
L 643.652091 64.009361 
L 644.364568 68.306669 
L 645.077045 62.407538 
L 646.502 71.002156 
L 647.214477 65.103024 
L 647.926955 69.400333 
L 648.639432 63.501202 
L 649.351909 67.798511 
L 650.064386 61.899379 
L 651.489341 70.493997 
L 652.201818 64.594866 
L 652.914295 68.892175 
L 653.626773 62.993044 
L 655.051727 71.587662 
L 655.764205 65.688531 
L 656.476682 69.98584 
L 657.189159 64.086709 
L 657.901636 68.384018 
L 658.614114 62.484887 
L 660.039068 71.079505 
L 660.751545 65.180374 
L 661.464023 69.477683 
L 662.1765 63.578552 
L 663.601455 72.17317 
L 664.313932 66.274039 
L 665.026409 70.571348 
L 665.738886 64.672217 
L 666.451364 68.969526 
L 667.163841 63.070395 
L 668.588795 71.665014 
L 669.301273 65.765883 
L 670.01375 70.063192 
L 670.726227 64.164061 
L 672.151182 72.75868 
L 672.863659 66.859549 
L 673.576136 71.156858 
L 674.288614 65.257727 
L 675.001091 69.555037 
L 675.713568 63.655906 
L 677.138523 72.250525 
L 677.851 66.351394 
L 678.563477 70.648703 
L 679.275955 64.749572 
L 680.700909 73.344191 
L 681.413386 67.44506 
L 682.125864 71.74237 
L 682.838341 65.843239 
L 683.550818 70.140548 
L 684.263295 64.241418 
L 685.68825 72.836036 
L 686.400727 66.936906 
L 687.113205 71.234215 
L 687.825682 65.335084 
L 689.250636 73.929704 
L 689.963114 68.030573 
L 690.675591 72.327882 
L 691.388068 66.428752 
L 692.100545 70.726061 
L 692.813023 64.82693 
L 694.237977 73.42155 
L 694.950455 67.522419 
L 694.950455 67.522419 
" style="fill:none;stroke:#1f77b4;stroke-linecap:square;stroke-width:1.5;"/>
   </g>
   <g id="patch_9">
    <path d="M 395.71 120.5216 
L 395.71 32.64 
" style="fill:none;stroke:#000000;stroke-linecap:square;stroke-linejoin:miter;stroke-width:0.8;"/>
   </g>
   <g id="patch_10">
    <path d="M 709.2 120.5216 
L 709.2 32.64 
" style="fill:none;stroke:#000000;stroke-linecap:square;stroke-linejoin:miter;stroke-width:0.8;"/>
   </g>
   <g id="patch_11">
    <path d="M 395.71 120.5216 
L 709.2 120.5216 
" style="fill:none;stroke:#000000;stroke-linecap:square;stroke-linejoin:miter;stroke-width:0.8;"/>
   </g>
   <g id="patch_12">
    <path d="M 395.71 32.64 
L 709.2 32.64 
" style="fill:none;stroke:#000000;stroke-linecap:square;stroke-linejoin:miter;stroke-width:0.8;"/>
   </g>
   <g id="text_10">
    <!-- Cons. Difference -->
    <defs>
     <path d="M 19.671875 64.796875 
L 19.671875 8.109375 
L 31.59375 8.109375 
Q 46.6875 8.109375 53.6875 14.9375 
Q 60.6875 21.78125 60.6875 36.53125 
Q 60.6875 51.171875 53.6875 57.984375 
Q 46.6875 64.796875 31.59375 64.796875 
z
M 9.8125 72.90625 
L 30.078125 72.90625 
Q 51.265625 72.90625 61.171875 64.09375 
Q 71.09375 55.28125 71.09375 36.53125 
Q 71.09375 17.671875 61.125 8.828125 
Q 51.171875 0 30.078125 0 
L 9.8125 0 
z
" id="DejaVuSans-68"/>
     <path d="M 37.109375 75.984375 
L 37.109375 68.5 
L 28.515625 68.5 
Q 23.6875 68.5 21.796875 66.546875 
Q 19.921875 64.59375 19.921875 59.515625 
L 19.921875 54.6875 
L 34.71875 54.6875 
L 34.71875 47.703125 
L 19.921875 47.703125 
L 19.921875 0 
L 10.890625 0 
L 10.890625 47.703125 
L 2.296875 47.703125 
L 2.296875 54.6875 
L 10.890625 54.6875 
L 10.890625 58.5 
Q 10.890625 67.625 15.140625 71.796875 
Q 19.390625 75.984375 28.609375 75.984375 
z
" id="DejaVuSans-102"/>
     <path d="M 56.203125 29.59375 
L 56.203125 25.203125 
L 14.890625 25.203125 
Q 15.484375 15.921875 20.484375 11.0625 
Q 25.484375 6.203125 34.421875 6.203125 
Q 39.59375 6.203125 44.453125 7.46875 
Q 49.3125 8.734375 54.109375 11.28125 
L 54.109375 2.78125 
Q 49.265625 0.734375 44.1875 -0.34375 
Q 39.109375 -1.421875 33.890625 -1.421875 
Q 20.796875 -1.421875 13.15625 6.1875 
Q 5.515625 13.8125 5.515625 26.8125 
Q 5.515625 40.234375 12.765625 48.109375 
Q 20.015625 56 32.328125 56 
Q 43.359375 56 49.78125 48.890625 
Q 56.203125 41.796875 56.203125 29.59375 
z
M 47.21875 32.234375 
Q 47.125 39.59375 43.09375 43.984375 
Q 39.0625 48.390625 32.421875 48.390625 
Q 24.90625 48.390625 20.390625 44.140625 
Q 15.875 39.890625 15.1875 32.171875 
z
" id="DejaVuSans-101"/>
     <path d="M 41.109375 46.296875 
Q 39.59375 47.171875 37.8125 47.578125 
Q 36.03125 48 33.890625 48 
Q 26.265625 48 22.1875 43.046875 
Q 18.109375 38.09375 18.109375 28.8125 
L 18.109375 0 
L 9.078125 0 
L 9.078125 54.6875 
L 18.109375 54.6875 
L 18.109375 46.1875 
Q 20.953125 51.171875 25.484375 53.578125 
Q 30.03125 56 36.53125 56 
Q 37.453125 56 38.578125 55.875 
Q 39.703125 55.765625 41.0625 55.515625 
z
" id="DejaVuSans-114"/>
    </defs>
    <g transform="translate(502.699063 26.64)scale(0.12 -0.12)">
     <use xlink:href="#DejaVuSans-67"/>
     <use x="69.824219" xlink:href="#DejaVuSans-111"/>
     <use x="131.005859" xlink:href="#DejaVuSans-110"/>
     <use x="194.384766" xlink:href="#DejaVuSans-115"/>
     <use x="246.484375" xlink:href="#DejaVuSans-46"/>
     <use x="278.271484" xlink:href="#DejaVuSans-32"/>
     <use x="310.058594" xlink:href="#DejaVuSans-68"/>
     <use x="387.060547" xlink:href="#DejaVuSans-105"/>
     <use x="414.84375" xlink:href="#DejaVuSans-102"/>
     <use x="450.048828" xlink:href="#DejaVuSans-102"/>
     <use x="485.253906" xlink:href="#DejaVuSans-101"/>
     <use x="546.777344" xlink:href="#DejaVuSans-114"/>
     <use x="587.859375" xlink:href="#DejaVuSans-101"/>
     <use x="649.382812" xlink:href="#DejaVuSans-110"/>
     <use x="712.761719" xlink:href="#DejaVuSans-99"/>
     <use x="767.742188" xlink:href="#DejaVuSans-101"/>
    </g>
   </g>
   <g id="legend_2">
    <g id="patch_13">
     <path d="M 609.009375 55.318125 
L 702.2 55.318125 
Q 704.2 55.318125 704.2 53.318125 
L 704.2 39.64 
Q 704.2 37.64 702.2 37.64 
L 609.009375 37.64 
Q 607.009375 37.64 607.009375 39.64 
L 607.009375 53.318125 
Q 607.009375 55.318125 609.009375 55.318125 
z
" style="fill:#ffffff;opacity:0.8;stroke:#cccccc;stroke-linejoin:miter;"/>
    </g>
    <g id="line2d_56">
     <path d="M 611.009375 45.738438 
L 631.009375 45.738438 
" style="fill:none;stroke:#1f77b4;stroke-linecap:square;stroke-width:1.5;"/>
    </g>
    <g id="line2d_57"/>
    <g id="text_11">
     <!-- CGM - HARK -->
     <defs>
      <path d="M 4.890625 31.390625 
L 31.203125 31.390625 
L 31.203125 23.390625 
L 4.890625 23.390625 
z
" id="DejaVuSans-45"/>
     </defs>
     <g transform="translate(639.009375 49.238438)scale(0.1 -0.1)">
      <use xlink:href="#DejaVuSans-67"/>
      <use x="69.824219" xlink:href="#DejaVuSans-71"/>
      <use x="147.314453" xlink:href="#DejaVuSans-77"/>
      <use x="233.59375" xlink:href="#DejaVuSans-32"/>
      <use x="265.380859" xlink:href="#DejaVuSans-45"/>
      <use x="301.464844" xlink:href="#DejaVuSans-32"/>
      <use x="333.251953" xlink:href="#DejaVuSans-72"/>
      <use x="408.447266" xlink:href="#DejaVuSans-65"/>
      <use x="476.855469" xlink:href="#DejaVuSans-82"/>
      <use x="546.337891" xlink:href="#DejaVuSans-75"/>
     </g>
    </g>
   </g>
  </g>
  <g id="axes_3">
   <g id="patch_14">
    <path d="M 40.12 252.344 
L 353.61 252.344 
L 353.61 164.4624 
L 40.12 164.4624 
z
" style="fill:#ffffff;"/>
   </g>
   <g id="matplotlib.axis_5">
    <g id="xtick_19">
     <g id="line2d_58">
      <path clip-path="url(#p1e03c470cc)" d="M 51.519636 252.344 
L 51.519636 164.4624 
" style="fill:none;stroke:#b0b0b0;stroke-linecap:square;stroke-width:0.8;"/>
     </g>
     <g id="line2d_59">
      <g>
       <use style="stroke:#000000;stroke-width:0.8;" x="51.519636" xlink:href="#mdac81d5106" y="252.344"/>
      </g>
     </g>
     <g id="text_12">
      <!-- 0 -->
      <g transform="translate(48.338386 266.942437)scale(0.1 -0.1)">
       <use xlink:href="#DejaVuSans-48"/>
      </g>
     </g>
    </g>
    <g id="xtick_20">
     <g id="line2d_60">
      <path clip-path="url(#p1e03c470cc)" d="M 87.1435 252.344 
L 87.1435 164.4624 
" style="fill:none;stroke:#b0b0b0;stroke-linecap:square;stroke-width:0.8;"/>
     </g>
     <g id="line2d_61">
      <g>
       <use style="stroke:#000000;stroke-width:0.8;" x="87.1435" xlink:href="#mdac81d5106" y="252.344"/>
      </g>
     </g>
     <g id="text_13">
      <!-- 50 -->
      <g transform="translate(80.781 266.942437)scale(0.1 -0.1)">
       <use xlink:href="#DejaVuSans-53"/>
       <use x="63.623047" xlink:href="#DejaVuSans-48"/>
      </g>
     </g>
    </g>
    <g id="xtick_21">
     <g id="line2d_62">
      <path clip-path="url(#p1e03c470cc)" d="M 122.767364 252.344 
L 122.767364 164.4624 
" style="fill:none;stroke:#b0b0b0;stroke-linecap:square;stroke-width:0.8;"/>
     </g>
     <g id="line2d_63">
      <g>
       <use style="stroke:#000000;stroke-width:0.8;" x="122.767364" xlink:href="#mdac81d5106" y="252.344"/>
      </g>
     </g>
     <g id="text_14">
      <!-- 100 -->
      <g transform="translate(113.223614 266.942437)scale(0.1 -0.1)">
       <use xlink:href="#DejaVuSans-49"/>
       <use x="63.623047" xlink:href="#DejaVuSans-48"/>
       <use x="127.246094" xlink:href="#DejaVuSans-48"/>
      </g>
     </g>
    </g>
    <g id="xtick_22">
     <g id="line2d_64">
      <path clip-path="url(#p1e03c470cc)" d="M 158.391227 252.344 
L 158.391227 164.4624 
" style="fill:none;stroke:#b0b0b0;stroke-linecap:square;stroke-width:0.8;"/>
     </g>
     <g id="line2d_65">
      <g>
       <use style="stroke:#000000;stroke-width:0.8;" x="158.391227" xlink:href="#mdac81d5106" y="252.344"/>
      </g>
     </g>
     <g id="text_15">
      <!-- 150 -->
      <g transform="translate(148.847477 266.942437)scale(0.1 -0.1)">
       <use xlink:href="#DejaVuSans-49"/>
       <use x="63.623047" xlink:href="#DejaVuSans-53"/>
       <use x="127.246094" xlink:href="#DejaVuSans-48"/>
      </g>
     </g>
    </g>
    <g id="xtick_23">
     <g id="line2d_66">
      <path clip-path="url(#p1e03c470cc)" d="M 194.015091 252.344 
L 194.015091 164.4624 
" style="fill:none;stroke:#b0b0b0;stroke-linecap:square;stroke-width:0.8;"/>
     </g>
     <g id="line2d_67">
      <g>
       <use style="stroke:#000000;stroke-width:0.8;" x="194.015091" xlink:href="#mdac81d5106" y="252.344"/>
      </g>
     </g>
     <g id="text_16">
      <!-- 200 -->
      <defs>
       <path d="M 19.1875 8.296875 
L 53.609375 8.296875 
L 53.609375 0 
L 7.328125 0 
L 7.328125 8.296875 
Q 12.9375 14.109375 22.625 23.890625 
Q 32.328125 33.6875 34.8125 36.53125 
Q 39.546875 41.84375 41.421875 45.53125 
Q 43.3125 49.21875 43.3125 52.78125 
Q 43.3125 58.59375 39.234375 62.25 
Q 35.15625 65.921875 28.609375 65.921875 
Q 23.96875 65.921875 18.8125 64.3125 
Q 13.671875 62.703125 7.8125 59.421875 
L 7.8125 69.390625 
Q 13.765625 71.78125 18.9375 73 
Q 24.125 74.21875 28.421875 74.21875 
Q 39.75 74.21875 46.484375 68.546875 
Q 53.21875 62.890625 53.21875 53.421875 
Q 53.21875 48.921875 51.53125 44.890625 
Q 49.859375 40.875 45.40625 35.40625 
Q 44.1875 33.984375 37.640625 27.21875 
Q 31.109375 20.453125 19.1875 8.296875 
z
" id="DejaVuSans-50"/>
      </defs>
      <g transform="translate(184.471341 266.942437)scale(0.1 -0.1)">
       <use xlink:href="#DejaVuSans-50"/>
       <use x="63.623047" xlink:href="#DejaVuSans-48"/>
       <use x="127.246094" xlink:href="#DejaVuSans-48"/>
      </g>
     </g>
    </g>
    <g id="xtick_24">
     <g id="line2d_68">
      <path clip-path="url(#p1e03c470cc)" d="M 229.638955 252.344 
L 229.638955 164.4624 
" style="fill:none;stroke:#b0b0b0;stroke-linecap:square;stroke-width:0.8;"/>
     </g>
     <g id="line2d_69">
      <g>
       <use style="stroke:#000000;stroke-width:0.8;" x="229.638955" xlink:href="#mdac81d5106" y="252.344"/>
      </g>
     </g>
     <g id="text_17">
      <!-- 250 -->
      <g transform="translate(220.095205 266.942437)scale(0.1 -0.1)">
       <use xlink:href="#DejaVuSans-50"/>
       <use x="63.623047" xlink:href="#DejaVuSans-53"/>
       <use x="127.246094" xlink:href="#DejaVuSans-48"/>
      </g>
     </g>
    </g>
    <g id="xtick_25">
     <g id="line2d_70">
      <path clip-path="url(#p1e03c470cc)" d="M 265.262818 252.344 
L 265.262818 164.4624 
" style="fill:none;stroke:#b0b0b0;stroke-linecap:square;stroke-width:0.8;"/>
     </g>
     <g id="line2d_71">
      <g>
       <use style="stroke:#000000;stroke-width:0.8;" x="265.262818" xlink:href="#mdac81d5106" y="252.344"/>
      </g>
     </g>
     <g id="text_18">
      <!-- 300 -->
      <defs>
       <path d="M 40.578125 39.3125 
Q 47.65625 37.796875 51.625 33 
Q 55.609375 28.21875 55.609375 21.1875 
Q 55.609375 10.40625 48.1875 4.484375 
Q 40.765625 -1.421875 27.09375 -1.421875 
Q 22.515625 -1.421875 17.65625 -0.515625 
Q 12.796875 0.390625 7.625 2.203125 
L 7.625 11.71875 
Q 11.71875 9.328125 16.59375 8.109375 
Q 21.484375 6.890625 26.8125 6.890625 
Q 36.078125 6.890625 40.9375 10.546875 
Q 45.796875 14.203125 45.796875 21.1875 
Q 45.796875 27.640625 41.28125 31.265625 
Q 36.765625 34.90625 28.71875 34.90625 
L 20.21875 34.90625 
L 20.21875 43.015625 
L 29.109375 43.015625 
Q 36.375 43.015625 40.234375 45.921875 
Q 44.09375 48.828125 44.09375 54.296875 
Q 44.09375 59.90625 40.109375 62.90625 
Q 36.140625 65.921875 28.71875 65.921875 
Q 24.65625 65.921875 20.015625 65.03125 
Q 15.375 64.15625 9.8125 62.3125 
L 9.8125 71.09375 
Q 15.4375 72.65625 20.34375 73.4375 
Q 25.25 74.21875 29.59375 74.21875 
Q 40.828125 74.21875 47.359375 69.109375 
Q 53.90625 64.015625 53.90625 55.328125 
Q 53.90625 49.265625 50.4375 45.09375 
Q 46.96875 40.921875 40.578125 39.3125 
z
" id="DejaVuSans-51"/>
      </defs>
      <g transform="translate(255.719068 266.942437)scale(0.1 -0.1)">
       <use xlink:href="#DejaVuSans-51"/>
       <use x="63.623047" xlink:href="#DejaVuSans-48"/>
       <use x="127.246094" xlink:href="#DejaVuSans-48"/>
      </g>
     </g>
    </g>
    <g id="xtick_26">
     <g id="line2d_72">
      <path clip-path="url(#p1e03c470cc)" d="M 300.886682 252.344 
L 300.886682 164.4624 
" style="fill:none;stroke:#b0b0b0;stroke-linecap:square;stroke-width:0.8;"/>
     </g>
     <g id="line2d_73">
      <g>
       <use style="stroke:#000000;stroke-width:0.8;" x="300.886682" xlink:href="#mdac81d5106" y="252.344"/>
      </g>
     </g>
     <g id="text_19">
      <!-- 350 -->
      <g transform="translate(291.342932 266.942437)scale(0.1 -0.1)">
       <use xlink:href="#DejaVuSans-51"/>
       <use x="63.623047" xlink:href="#DejaVuSans-53"/>
       <use x="127.246094" xlink:href="#DejaVuSans-48"/>
      </g>
     </g>
    </g>
    <g id="xtick_27">
     <g id="line2d_74">
      <path clip-path="url(#p1e03c470cc)" d="M 336.510545 252.344 
L 336.510545 164.4624 
" style="fill:none;stroke:#b0b0b0;stroke-linecap:square;stroke-width:0.8;"/>
     </g>
     <g id="line2d_75">
      <g>
       <use style="stroke:#000000;stroke-width:0.8;" x="336.510545" xlink:href="#mdac81d5106" y="252.344"/>
      </g>
     </g>
     <g id="text_20">
      <!-- 400 -->
      <defs>
       <path d="M 37.796875 64.3125 
L 12.890625 25.390625 
L 37.796875 25.390625 
z
M 35.203125 72.90625 
L 47.609375 72.90625 
L 47.609375 25.390625 
L 58.015625 25.390625 
L 58.015625 17.1875 
L 47.609375 17.1875 
L 47.609375 0 
L 37.796875 0 
L 37.796875 17.1875 
L 4.890625 17.1875 
L 4.890625 26.703125 
z
" id="DejaVuSans-52"/>
      </defs>
      <g transform="translate(326.966795 266.942437)scale(0.1 -0.1)">
       <use xlink:href="#DejaVuSans-52"/>
       <use x="63.623047" xlink:href="#DejaVuSans-48"/>
       <use x="127.246094" xlink:href="#DejaVuSans-48"/>
      </g>
     </g>
    </g>
   </g>
   <g id="matplotlib.axis_6">
    <g id="ytick_7">
     <g id="line2d_76">
      <path clip-path="url(#p1e03c470cc)" d="M 40.12 248.349382 
L 353.61 248.349382 
" style="fill:none;stroke:#b0b0b0;stroke-linecap:square;stroke-width:0.8;"/>
     </g>
     <g id="line2d_77">
      <g>
       <use style="stroke:#000000;stroke-width:0.8;" x="40.12" xlink:href="#m9b39ea53ff" y="248.349382"/>
      </g>
     </g>
     <g id="text_21">
      <!-- 0.0 -->
      <g transform="translate(17.216875 252.148601)scale(0.1 -0.1)">
       <use xlink:href="#DejaVuSans-48"/>
       <use x="63.623047" xlink:href="#DejaVuSans-46"/>
       <use x="95.410156" xlink:href="#DejaVuSans-48"/>
      </g>
     </g>
    </g>
    <g id="ytick_8">
     <g id="line2d_78">
      <path clip-path="url(#p1e03c470cc)" d="M 40.12 208.4032 
L 353.61 208.4032 
" style="fill:none;stroke:#b0b0b0;stroke-linecap:square;stroke-width:0.8;"/>
     </g>
     <g id="line2d_79">
      <g>
       <use style="stroke:#000000;stroke-width:0.8;" x="40.12" xlink:href="#m9b39ea53ff" y="208.4032"/>
      </g>
     </g>
     <g id="text_22">
      <!-- 0.5 -->
      <g transform="translate(17.216875 212.202419)scale(0.1 -0.1)">
       <use xlink:href="#DejaVuSans-48"/>
       <use x="63.623047" xlink:href="#DejaVuSans-46"/>
       <use x="95.410156" xlink:href="#DejaVuSans-53"/>
      </g>
     </g>
    </g>
    <g id="ytick_9">
     <g id="line2d_80">
      <path clip-path="url(#p1e03c470cc)" d="M 40.12 168.457018 
L 353.61 168.457018 
" style="fill:none;stroke:#b0b0b0;stroke-linecap:square;stroke-width:0.8;"/>
     </g>
     <g id="line2d_81">
      <g>
       <use style="stroke:#000000;stroke-width:0.8;" x="40.12" xlink:href="#m9b39ea53ff" y="168.457018"/>
      </g>
     </g>
     <g id="text_23">
      <!-- 1.0 -->
      <g transform="translate(17.216875 172.256237)scale(0.1 -0.1)">
       <use xlink:href="#DejaVuSans-49"/>
       <use x="63.623047" xlink:href="#DejaVuSans-46"/>
       <use x="95.410156" xlink:href="#DejaVuSans-48"/>
      </g>
     </g>
    </g>
   </g>
   <g id="line2d_82">
    <path clip-path="url(#p1e03c470cc)" d="M 54.369545 248.349382 
L 63.63175 248.349382 
L 64.344227 168.457018 
L 70.756523 168.457018 
L 71.469 169.255942 
L 72.181477 174.049484 
L 73.606432 184.435491 
L 74.318909 186.832262 
L 75.031386 190.82688 
L 75.743864 192.424727 
L 76.456341 195.620422 
L 77.168818 197.218269 
L 78.593773 202.011811 
L 79.30625 202.810735 
L 80.731205 206.006429 
L 81.443682 206.805353 
L 82.156159 208.4032 
L 86.431023 213.196742 
L 87.1435 215.593513 
L 87.855977 216.392436 
L 88.568455 216.392436 
L 89.280932 217.19136 
L 90.705886 217.19136 
L 91.418364 217.990284 
L 92.130841 217.990284 
L 92.843318 218.789207 
L 93.555795 218.789207 
L 94.268273 219.588131 
L 94.98075 218.789207 
L 95.693227 222.783825 
L 96.405705 225.97952 
L 97.118182 215.593513 
L 98.543136 220.387055 
L 99.255614 225.180596 
L 99.968091 215.593513 
L 100.680568 221.185978 
L 101.393045 221.185978 
L 102.818 214.794589 
L 103.530477 227.577367 
L 104.955432 224.381673 
L 105.667909 223.582749 
L 106.380386 226.778444 
L 107.092864 226.778444 
L 107.805341 225.180596 
L 108.517818 224.381673 
L 109.230295 224.381673 
L 109.942773 225.180596 
L 114.217636 225.180596 
L 114.930114 225.97952 
L 119.204977 225.97952 
L 119.917455 226.778444 
L 124.192318 226.778444 
L 124.904795 227.577367 
L 131.317091 227.577367 
L 132.029568 228.376291 
L 139.154341 228.376291 
L 139.866818 229.175215 
L 149.8415 229.175215 
L 150.553977 229.974138 
L 164.803523 229.974138 
L 165.516 230.773062 
L 184.752886 230.773062 
L 185.465364 231.571985 
L 215.389409 231.571985 
L 216.101886 232.370909 
L 266.687773 232.370909 
L 267.40025 233.169833 
L 339.360455 233.169833 
L 339.360455 233.169833 
" style="fill:none;stroke:#1f77b4;stroke-linecap:square;stroke-width:1.5;"/>
   </g>
   <g id="line2d_83">
    <path clip-path="url(#p1e03c470cc)" d="M 54.369545 168.457018 
L 58.644409 168.457018 
L 59.356886 169.774429 
L 60.781841 178.501726 
L 62.206795 185.024762 
L 63.63175 190.139284 
L 65.056705 194.177398 
L 66.481659 197.44602 
L 67.906614 200.147364 
L 69.331568 202.41473 
L 70.756523 204.345783 
L 72.181477 206.01255 
L 74.318909 208.120833 
L 76.456341 209.866573 
L 78.593773 211.337742 
L 81.443682 212.972162 
L 84.293591 214.32252 
L 87.855977 215.711169 
L 91.418364 216.854232 
L 95.693227 217.979407 
L 100.680568 219.047321 
L 106.380386 220.029341 
L 112.792682 220.914211 
L 120.629932 221.775673 
L 130.604614 222.624022 
L 142.716727 223.402715 
L 158.391227 224.150167 
L 176.203159 224.772095 
L 199.002432 225.348412 
L 228.214 225.868611 
L 270.250159 226.372324 
L 327.248341 226.81241 
L 339.360455 226.883522 
L 339.360455 226.883522 
" style="fill:none;stroke:#ff7f0e;stroke-linecap:square;stroke-width:1.5;"/>
   </g>
   <g id="patch_15">
    <path d="M 40.12 252.344 
L 40.12 164.4624 
" style="fill:none;stroke:#000000;stroke-linecap:square;stroke-linejoin:miter;stroke-width:0.8;"/>
   </g>
   <g id="patch_16">
    <path d="M 353.61 252.344 
L 353.61 164.4624 
" style="fill:none;stroke:#000000;stroke-linecap:square;stroke-linejoin:miter;stroke-width:0.8;"/>
   </g>
   <g id="patch_17">
    <path d="M 40.12 252.344 
L 353.61 252.344 
" style="fill:none;stroke:#000000;stroke-linecap:square;stroke-linejoin:miter;stroke-width:0.8;"/>
   </g>
   <g id="patch_18">
    <path d="M 40.12 164.4624 
L 353.61 164.4624 
" style="fill:none;stroke:#000000;stroke-linecap:square;stroke-linejoin:miter;stroke-width:0.8;"/>
   </g>
   <g id="text_24">
    <!-- Risky Sh. Functions -->
    <defs>
     <path d="M 9.078125 75.984375 
L 18.109375 75.984375 
L 18.109375 31.109375 
L 44.921875 54.6875 
L 56.390625 54.6875 
L 27.390625 29.109375 
L 57.625 0 
L 45.90625 0 
L 18.109375 26.703125 
L 18.109375 0 
L 9.078125 0 
z
" id="DejaVuSans-107"/>
     <path d="M 32.171875 -5.078125 
Q 28.375 -14.84375 24.75 -17.8125 
Q 21.140625 -20.796875 15.09375 -20.796875 
L 7.90625 -20.796875 
L 7.90625 -13.28125 
L 13.1875 -13.28125 
Q 16.890625 -13.28125 18.9375 -11.515625 
Q 21 -9.765625 23.484375 -3.21875 
L 25.09375 0.875 
L 2.984375 54.6875 
L 12.5 54.6875 
L 29.59375 11.921875 
L 46.6875 54.6875 
L 56.203125 54.6875 
z
" id="DejaVuSans-121"/>
     <path d="M 53.515625 70.515625 
L 53.515625 60.890625 
Q 47.90625 63.578125 42.921875 64.890625 
Q 37.9375 66.21875 33.296875 66.21875 
Q 25.25 66.21875 20.875 63.09375 
Q 16.5 59.96875 16.5 54.203125 
Q 16.5 49.359375 19.40625 46.890625 
Q 22.3125 44.4375 30.421875 42.921875 
L 36.375 41.703125 
Q 47.40625 39.59375 52.65625 34.296875 
Q 57.90625 29 57.90625 20.125 
Q 57.90625 9.515625 50.796875 4.046875 
Q 43.703125 -1.421875 29.984375 -1.421875 
Q 24.8125 -1.421875 18.96875 -0.25 
Q 13.140625 0.921875 6.890625 3.21875 
L 6.890625 13.375 
Q 12.890625 10.015625 18.65625 8.296875 
Q 24.421875 6.59375 29.984375 6.59375 
Q 38.421875 6.59375 43.015625 9.90625 
Q 47.609375 13.234375 47.609375 19.390625 
Q 47.609375 24.75 44.3125 27.78125 
Q 41.015625 30.8125 33.5 32.328125 
L 27.484375 33.5 
Q 16.453125 35.6875 11.515625 40.375 
Q 6.59375 45.0625 6.59375 53.421875 
Q 6.59375 63.09375 13.40625 68.65625 
Q 20.21875 74.21875 32.171875 74.21875 
Q 37.3125 74.21875 42.625 73.28125 
Q 47.953125 72.359375 53.515625 70.515625 
z
" id="DejaVuSans-83"/>
     <path d="M 54.890625 33.015625 
L 54.890625 0 
L 45.90625 0 
L 45.90625 32.71875 
Q 45.90625 40.484375 42.875 44.328125 
Q 39.84375 48.1875 33.796875 48.1875 
Q 26.515625 48.1875 22.3125 43.546875 
Q 18.109375 38.921875 18.109375 30.90625 
L 18.109375 0 
L 9.078125 0 
L 9.078125 75.984375 
L 18.109375 75.984375 
L 18.109375 46.1875 
Q 21.34375 51.125 25.703125 53.5625 
Q 30.078125 56 35.796875 56 
Q 45.21875 56 50.046875 50.171875 
Q 54.890625 44.34375 54.890625 33.015625 
z
" id="DejaVuSans-104"/>
    </defs>
    <g transform="translate(138.579688 158.4624)scale(0.12 -0.12)">
     <use xlink:href="#DejaVuSans-82"/>
     <use x="69.482422" xlink:href="#DejaVuSans-105"/>
     <use x="97.265625" xlink:href="#DejaVuSans-115"/>
     <use x="149.365234" xlink:href="#DejaVuSans-107"/>
     <use x="207.228516" xlink:href="#DejaVuSans-121"/>
     <use x="266.408203" xlink:href="#DejaVuSans-32"/>
     <use x="298.195312" xlink:href="#DejaVuSans-83"/>
     <use x="361.671875" xlink:href="#DejaVuSans-104"/>
     <use x="425.050781" xlink:href="#DejaVuSans-46"/>
     <use x="456.837891" xlink:href="#DejaVuSans-32"/>
     <use x="488.625" xlink:href="#DejaVuSans-70"/>
     <use x="546.066406" xlink:href="#DejaVuSans-117"/>
     <use x="609.445312" xlink:href="#DejaVuSans-110"/>
     <use x="672.824219" xlink:href="#DejaVuSans-99"/>
     <use x="727.804688" xlink:href="#DejaVuSans-116"/>
     <use x="767.013672" xlink:href="#DejaVuSans-105"/>
     <use x="794.796875" xlink:href="#DejaVuSans-111"/>
     <use x="855.978516" xlink:href="#DejaVuSans-110"/>
     <use x="919.357422" xlink:href="#DejaVuSans-115"/>
    </g>
   </g>
   <g id="legend_3">
    <g id="patch_19">
     <path d="M 286.742813 201.81865 
L 346.61 201.81865 
Q 348.61 201.81865 348.61 199.81865 
L 348.61 171.4624 
Q 348.61 169.4624 346.61 169.4624 
L 286.742813 169.4624 
Q 284.742813 169.4624 284.742813 171.4624 
L 284.742813 199.81865 
Q 284.742813 201.81865 286.742813 201.81865 
z
" style="fill:#ffffff;opacity:0.8;stroke:#cccccc;stroke-linejoin:miter;"/>
    </g>
    <g id="line2d_84">
     <path d="M 288.742813 177.560837 
L 308.742813 177.560837 
" style="fill:none;stroke:#1f77b4;stroke-linecap:square;stroke-width:1.5;"/>
    </g>
    <g id="line2d_85"/>
    <g id="text_25">
     <!-- CGM -->
     <g transform="translate(316.742813 181.060837)scale(0.1 -0.1)">
      <use xlink:href="#DejaVuSans-67"/>
      <use x="69.824219" xlink:href="#DejaVuSans-71"/>
      <use x="147.314453" xlink:href="#DejaVuSans-77"/>
     </g>
    </g>
    <g id="line2d_86">
     <path d="M 288.742813 192.238962 
L 308.742813 192.238962 
" style="fill:none;stroke:#ff7f0e;stroke-linecap:square;stroke-width:1.5;"/>
    </g>
    <g id="line2d_87"/>
    <g id="text_26">
     <!-- HARK -->
     <g transform="translate(316.742813 195.738962)scale(0.1 -0.1)">
      <use xlink:href="#DejaVuSans-72"/>
      <use x="75.195312" xlink:href="#DejaVuSans-65"/>
      <use x="143.603516" xlink:href="#DejaVuSans-82"/>
      <use x="213.085938" xlink:href="#DejaVuSans-75"/>
     </g>
    </g>
   </g>
  </g>
  <g id="axes_4">
   <g id="patch_20">
    <path d="M 395.71 252.344 
L 709.2 252.344 
L 709.2 164.4624 
L 395.71 164.4624 
z
" style="fill:#ffffff;"/>
   </g>
   <g id="matplotlib.axis_7">
    <g id="xtick_28">
     <g id="line2d_88">
      <path clip-path="url(#pc25ed103b6)" d="M 407.109636 252.344 
L 407.109636 164.4624 
" style="fill:none;stroke:#b0b0b0;stroke-linecap:square;stroke-width:0.8;"/>
     </g>
     <g id="line2d_89">
      <g>
       <use style="stroke:#000000;stroke-width:0.8;" x="407.109636" xlink:href="#mdac81d5106" y="252.344"/>
      </g>
     </g>
     <g id="text_27">
      <!-- 0 -->
      <g transform="translate(403.928386 266.942437)scale(0.1 -0.1)">
       <use xlink:href="#DejaVuSans-48"/>
      </g>
     </g>
    </g>
    <g id="xtick_29">
     <g id="line2d_90">
      <path clip-path="url(#pc25ed103b6)" d="M 442.7335 252.344 
L 442.7335 164.4624 
" style="fill:none;stroke:#b0b0b0;stroke-linecap:square;stroke-width:0.8;"/>
     </g>
     <g id="line2d_91">
      <g>
       <use style="stroke:#000000;stroke-width:0.8;" x="442.7335" xlink:href="#mdac81d5106" y="252.344"/>
      </g>
     </g>
     <g id="text_28">
      <!-- 50 -->
      <g transform="translate(436.371 266.942437)scale(0.1 -0.1)">
       <use xlink:href="#DejaVuSans-53"/>
       <use x="63.623047" xlink:href="#DejaVuSans-48"/>
      </g>
     </g>
    </g>
    <g id="xtick_30">
     <g id="line2d_92">
      <path clip-path="url(#pc25ed103b6)" d="M 478.357364 252.344 
L 478.357364 164.4624 
" style="fill:none;stroke:#b0b0b0;stroke-linecap:square;stroke-width:0.8;"/>
     </g>
     <g id="line2d_93">
      <g>
       <use style="stroke:#000000;stroke-width:0.8;" x="478.357364" xlink:href="#mdac81d5106" y="252.344"/>
      </g>
     </g>
     <g id="text_29">
      <!-- 100 -->
      <g transform="translate(468.813614 266.942437)scale(0.1 -0.1)">
       <use xlink:href="#DejaVuSans-49"/>
       <use x="63.623047" xlink:href="#DejaVuSans-48"/>
       <use x="127.246094" xlink:href="#DejaVuSans-48"/>
      </g>
     </g>
    </g>
    <g id="xtick_31">
     <g id="line2d_94">
      <path clip-path="url(#pc25ed103b6)" d="M 513.981227 252.344 
L 513.981227 164.4624 
" style="fill:none;stroke:#b0b0b0;stroke-linecap:square;stroke-width:0.8;"/>
     </g>
     <g id="line2d_95">
      <g>
       <use style="stroke:#000000;stroke-width:0.8;" x="513.981227" xlink:href="#mdac81d5106" y="252.344"/>
      </g>
     </g>
     <g id="text_30">
      <!-- 150 -->
      <g transform="translate(504.437477 266.942437)scale(0.1 -0.1)">
       <use xlink:href="#DejaVuSans-49"/>
       <use x="63.623047" xlink:href="#DejaVuSans-53"/>
       <use x="127.246094" xlink:href="#DejaVuSans-48"/>
      </g>
     </g>
    </g>
    <g id="xtick_32">
     <g id="line2d_96">
      <path clip-path="url(#pc25ed103b6)" d="M 549.605091 252.344 
L 549.605091 164.4624 
" style="fill:none;stroke:#b0b0b0;stroke-linecap:square;stroke-width:0.8;"/>
     </g>
     <g id="line2d_97">
      <g>
       <use style="stroke:#000000;stroke-width:0.8;" x="549.605091" xlink:href="#mdac81d5106" y="252.344"/>
      </g>
     </g>
     <g id="text_31">
      <!-- 200 -->
      <g transform="translate(540.061341 266.942437)scale(0.1 -0.1)">
       <use xlink:href="#DejaVuSans-50"/>
       <use x="63.623047" xlink:href="#DejaVuSans-48"/>
       <use x="127.246094" xlink:href="#DejaVuSans-48"/>
      </g>
     </g>
    </g>
    <g id="xtick_33">
     <g id="line2d_98">
      <path clip-path="url(#pc25ed103b6)" d="M 585.228955 252.344 
L 585.228955 164.4624 
" style="fill:none;stroke:#b0b0b0;stroke-linecap:square;stroke-width:0.8;"/>
     </g>
     <g id="line2d_99">
      <g>
       <use style="stroke:#000000;stroke-width:0.8;" x="585.228955" xlink:href="#mdac81d5106" y="252.344"/>
      </g>
     </g>
     <g id="text_32">
      <!-- 250 -->
      <g transform="translate(575.685205 266.942437)scale(0.1 -0.1)">
       <use xlink:href="#DejaVuSans-50"/>
       <use x="63.623047" xlink:href="#DejaVuSans-53"/>
       <use x="127.246094" xlink:href="#DejaVuSans-48"/>
      </g>
     </g>
    </g>
    <g id="xtick_34">
     <g id="line2d_100">
      <path clip-path="url(#pc25ed103b6)" d="M 620.852818 252.344 
L 620.852818 164.4624 
" style="fill:none;stroke:#b0b0b0;stroke-linecap:square;stroke-width:0.8;"/>
     </g>
     <g id="line2d_101">
      <g>
       <use style="stroke:#000000;stroke-width:0.8;" x="620.852818" xlink:href="#mdac81d5106" y="252.344"/>
      </g>
     </g>
     <g id="text_33">
      <!-- 300 -->
      <g transform="translate(611.309068 266.942437)scale(0.1 -0.1)">
       <use xlink:href="#DejaVuSans-51"/>
       <use x="63.623047" xlink:href="#DejaVuSans-48"/>
       <use x="127.246094" xlink:href="#DejaVuSans-48"/>
      </g>
     </g>
    </g>
    <g id="xtick_35">
     <g id="line2d_102">
      <path clip-path="url(#pc25ed103b6)" d="M 656.476682 252.344 
L 656.476682 164.4624 
" style="fill:none;stroke:#b0b0b0;stroke-linecap:square;stroke-width:0.8;"/>
     </g>
     <g id="line2d_103">
      <g>
       <use style="stroke:#000000;stroke-width:0.8;" x="656.476682" xlink:href="#mdac81d5106" y="252.344"/>
      </g>
     </g>
     <g id="text_34">
      <!-- 350 -->
      <g transform="translate(646.932932 266.942437)scale(0.1 -0.1)">
       <use xlink:href="#DejaVuSans-51"/>
       <use x="63.623047" xlink:href="#DejaVuSans-53"/>
       <use x="127.246094" xlink:href="#DejaVuSans-48"/>
      </g>
     </g>
    </g>
    <g id="xtick_36">
     <g id="line2d_104">
      <path clip-path="url(#pc25ed103b6)" d="M 692.100545 252.344 
L 692.100545 164.4624 
" style="fill:none;stroke:#b0b0b0;stroke-linecap:square;stroke-width:0.8;"/>
     </g>
     <g id="line2d_105">
      <g>
       <use style="stroke:#000000;stroke-width:0.8;" x="692.100545" xlink:href="#mdac81d5106" y="252.344"/>
      </g>
     </g>
     <g id="text_35">
      <!-- 400 -->
      <g transform="translate(682.556795 266.942437)scale(0.1 -0.1)">
       <use xlink:href="#DejaVuSans-52"/>
       <use x="63.623047" xlink:href="#DejaVuSans-48"/>
       <use x="127.246094" xlink:href="#DejaVuSans-48"/>
      </g>
     </g>
    </g>
   </g>
   <g id="matplotlib.axis_8">
    <g id="ytick_10">
     <g id="line2d_106">
      <path clip-path="url(#pc25ed103b6)" d="M 395.71 248.349382 
L 709.2 248.349382 
" style="fill:none;stroke:#b0b0b0;stroke-linecap:square;stroke-width:0.8;"/>
     </g>
     <g id="line2d_107">
      <g>
       <use style="stroke:#000000;stroke-width:0.8;" x="395.71" xlink:href="#m9b39ea53ff" y="248.349382"/>
      </g>
     </g>
     <g id="text_36">
      <!-- −1.0 -->
      <g transform="translate(364.427188 252.148601)scale(0.1 -0.1)">
       <use xlink:href="#DejaVuSans-8722"/>
       <use x="83.789062" xlink:href="#DejaVuSans-49"/>
       <use x="147.412109" xlink:href="#DejaVuSans-46"/>
       <use x="179.199219" xlink:href="#DejaVuSans-48"/>
      </g>
     </g>
    </g>
    <g id="ytick_11">
     <g id="line2d_108">
      <path clip-path="url(#pc25ed103b6)" d="M 395.71 220.800676 
L 709.2 220.800676 
" style="fill:none;stroke:#b0b0b0;stroke-linecap:square;stroke-width:0.8;"/>
     </g>
     <g id="line2d_109">
      <g>
       <use style="stroke:#000000;stroke-width:0.8;" x="395.71" xlink:href="#m9b39ea53ff" y="220.800676"/>
      </g>
     </g>
     <g id="text_37">
      <!-- −0.5 -->
      <g transform="translate(364.427188 224.599894)scale(0.1 -0.1)">
       <use xlink:href="#DejaVuSans-8722"/>
       <use x="83.789062" xlink:href="#DejaVuSans-48"/>
       <use x="147.412109" xlink:href="#DejaVuSans-46"/>
       <use x="179.199219" xlink:href="#DejaVuSans-53"/>
      </g>
     </g>
    </g>
    <g id="ytick_12">
     <g id="line2d_110">
      <path clip-path="url(#pc25ed103b6)" d="M 395.71 193.251969 
L 709.2 193.251969 
" style="fill:none;stroke:#b0b0b0;stroke-linecap:square;stroke-width:0.8;"/>
     </g>
     <g id="line2d_111">
      <g>
       <use style="stroke:#000000;stroke-width:0.8;" x="395.71" xlink:href="#m9b39ea53ff" y="193.251969"/>
      </g>
     </g>
     <g id="text_38">
      <!-- 0.0 -->
      <g transform="translate(372.806875 197.051188)scale(0.1 -0.1)">
       <use xlink:href="#DejaVuSans-48"/>
       <use x="63.623047" xlink:href="#DejaVuSans-46"/>
       <use x="95.410156" xlink:href="#DejaVuSans-48"/>
      </g>
     </g>
    </g>
    <g id="ytick_13">
     <g id="line2d_112">
      <path clip-path="url(#pc25ed103b6)" d="M 395.71 165.703263 
L 709.2 165.703263 
" style="fill:none;stroke:#b0b0b0;stroke-linecap:square;stroke-width:0.8;"/>
     </g>
     <g id="line2d_113">
      <g>
       <use style="stroke:#000000;stroke-width:0.8;" x="395.71" xlink:href="#m9b39ea53ff" y="165.703263"/>
      </g>
     </g>
     <g id="text_39">
      <!-- 0.5 -->
      <g transform="translate(372.806875 169.502482)scale(0.1 -0.1)">
       <use xlink:href="#DejaVuSans-48"/>
       <use x="63.623047" xlink:href="#DejaVuSans-46"/>
       <use x="95.410156" xlink:href="#DejaVuSans-53"/>
      </g>
     </g>
    </g>
   </g>
   <g id="line2d_114">
    <path clip-path="url(#pc25ed103b6)" d="M 409.959545 248.349382 
L 414.234409 248.349382 
L 414.946886 247.440835 
L 416.371841 241.422094 
L 417.796795 236.923511 
L 419.22175 233.396304 
L 419.934227 176.829012 
L 421.359182 174.330091 
L 422.784136 172.286604 
L 424.209091 170.582717 
L 425.634045 169.141649 
L 426.346523 168.501442 
L 427.059 168.457018 
L 427.771477 171.208783 
L 429.196432 177.371557 
L 429.908909 178.570401 
L 430.621386 180.899183 
L 431.333864 181.600705 
L 432.046341 183.427174 
L 432.758818 184.172034 
L 434.183773 186.820383 
L 434.89625 187.067745 
L 436.321205 188.710171 
L 437.033682 188.999057 
L 437.746159 189.852329 
L 441.308545 191.51799 
L 442.021023 191.877923 
L 442.7335 193.347144 
L 443.445977 193.721802 
L 444.158455 193.552067 
L 444.870932 193.939593 
L 446.295886 193.630431 
L 447.008364 194.035442 
L 447.720841 193.894714 
L 448.433318 194.30982 
L 449.145795 194.178584 
L 449.858273 194.602732 
L 450.57075 193.929129 
L 451.283227 196.565315 
L 451.995705 198.654056 
L 452.708182 191.379537 
L 454.133136 194.472317 
L 454.845614 197.676462 
L 455.558091 190.966022 
L 456.270568 194.726884 
L 456.983045 194.633574 
L 458.408 190.04712 
L 459.120477 198.777326 
L 460.545432 196.408982 
L 461.257909 195.779071 
L 461.970386 197.906458 
L 462.682864 197.831658 
L 463.395341 196.656516 
L 464.107818 196.034745 
L 464.820295 195.965608 
L 465.532773 196.448779 
L 469.807636 196.074904 
L 470.520114 196.568724 
L 474.794977 196.248727 
L 475.507455 196.750676 
L 479.782318 196.47476 
L 480.494795 196.982902 
L 486.907091 196.63218 
L 487.619568 197.147313 
L 494.744341 196.824446 
L 495.456818 197.346188 
L 505.4315 196.978636 
L 506.143977 197.505849 
L 520.393523 197.098374 
L 521.106 197.631731 
L 540.342886 197.225478 
L 541.055364 197.763633 
L 570.979409 197.326876 
L 571.691886 197.869532 
L 616.577955 197.453611 
L 622.277773 197.413124 
L 622.99025 197.959105 
L 687.825682 197.615664 
L 694.950455 197.587295 
L 694.950455 197.587295 
" style="fill:none;stroke:#1f77b4;stroke-linecap:square;stroke-width:1.5;"/>
   </g>
   <g id="patch_21">
    <path d="M 395.71 252.344 
L 395.71 164.4624 
" style="fill:none;stroke:#000000;stroke-linecap:square;stroke-linejoin:miter;stroke-width:0.8;"/>
   </g>
   <g id="patch_22">
    <path d="M 709.2 252.344 
L 709.2 164.4624 
" style="fill:none;stroke:#000000;stroke-linecap:square;stroke-linejoin:miter;stroke-width:0.8;"/>
   </g>
   <g id="patch_23">
    <path d="M 395.71 252.344 
L 709.2 252.344 
" style="fill:none;stroke:#000000;stroke-linecap:square;stroke-linejoin:miter;stroke-width:0.8;"/>
   </g>
   <g id="patch_24">
    <path d="M 395.71 164.4624 
L 709.2 164.4624 
" style="fill:none;stroke:#000000;stroke-linecap:square;stroke-linejoin:miter;stroke-width:0.8;"/>
   </g>
   <g id="text_40">
    <!-- Risky Sh. Difference -->
    <g transform="translate(491.985313 158.4624)scale(0.12 -0.12)">
     <use xlink:href="#DejaVuSans-82"/>
     <use x="69.482422" xlink:href="#DejaVuSans-105"/>
     <use x="97.265625" xlink:href="#DejaVuSans-115"/>
     <use x="149.365234" xlink:href="#DejaVuSans-107"/>
     <use x="207.228516" xlink:href="#DejaVuSans-121"/>
     <use x="266.408203" xlink:href="#DejaVuSans-32"/>
     <use x="298.195312" xlink:href="#DejaVuSans-83"/>
     <use x="361.671875" xlink:href="#DejaVuSans-104"/>
     <use x="425.050781" xlink:href="#DejaVuSans-46"/>
     <use x="456.837891" xlink:href="#DejaVuSans-32"/>
     <use x="488.625" xlink:href="#DejaVuSans-68"/>
     <use x="565.626953" xlink:href="#DejaVuSans-105"/>
     <use x="593.410156" xlink:href="#DejaVuSans-102"/>
     <use x="628.615234" xlink:href="#DejaVuSans-102"/>
     <use x="663.820312" xlink:href="#DejaVuSans-101"/>
     <use x="725.34375" xlink:href="#DejaVuSans-114"/>
     <use x="766.425781" xlink:href="#DejaVuSans-101"/>
     <use x="827.949219" xlink:href="#DejaVuSans-110"/>
     <use x="891.328125" xlink:href="#DejaVuSans-99"/>
     <use x="946.308594" xlink:href="#DejaVuSans-101"/>
    </g>
   </g>
   <g id="legend_4">
    <g id="patch_25">
     <path d="M 609.009375 187.140525 
L 702.2 187.140525 
Q 704.2 187.140525 704.2 185.140525 
L 704.2 171.4624 
Q 704.2 169.4624 702.2 169.4624 
L 609.009375 169.4624 
Q 607.009375 169.4624 607.009375 171.4624 
L 607.009375 185.140525 
Q 607.009375 187.140525 609.009375 187.140525 
z
" style="fill:#ffffff;opacity:0.8;stroke:#cccccc;stroke-linejoin:miter;"/>
    </g>
    <g id="line2d_115">
     <path d="M 611.009375 177.560837 
L 631.009375 177.560837 
" style="fill:none;stroke:#1f77b4;stroke-linecap:square;stroke-width:1.5;"/>
    </g>
    <g id="line2d_116"/>
    <g id="text_41">
     <!-- CGM - HARK -->
     <g transform="translate(639.009375 181.060837)scale(0.1 -0.1)">
      <use xlink:href="#DejaVuSans-67"/>
      <use x="69.824219" xlink:href="#DejaVuSans-71"/>
      <use x="147.314453" xlink:href="#DejaVuSans-77"/>
      <use x="233.59375" xlink:href="#DejaVuSans-32"/>
      <use x="265.380859" xlink:href="#DejaVuSans-45"/>
      <use x="301.464844" xlink:href="#DejaVuSans-32"/>
      <use x="333.251953" xlink:href="#DejaVuSans-72"/>
      <use x="408.447266" xlink:href="#DejaVuSans-65"/>
      <use x="476.855469" xlink:href="#DejaVuSans-82"/>
      <use x="546.337891" xlink:href="#DejaVuSans-75"/>
     </g>
    </g>
   </g>
  </g>
  <g id="text_42">
   <!-- Year 98 -->
   <defs>
    <path d="M -0.203125 72.90625 
L 10.40625 72.90625 
L 30.609375 42.921875 
L 50.6875 72.90625 
L 61.28125 72.90625 
L 35.5 34.71875 
L 35.5 0 
L 25.59375 0 
L 25.59375 34.71875 
z
" id="DejaVuSans-89"/>
    <path d="M 34.28125 27.484375 
Q 23.390625 27.484375 19.1875 25 
Q 14.984375 22.515625 14.984375 16.5 
Q 14.984375 11.71875 18.140625 8.90625 
Q 21.296875 6.109375 26.703125 6.109375 
Q 34.1875 6.109375 38.703125 11.40625 
Q 43.21875 16.703125 43.21875 25.484375 
L 43.21875 27.484375 
z
M 52.203125 31.203125 
L 52.203125 0 
L 43.21875 0 
L 43.21875 8.296875 
Q 40.140625 3.328125 35.546875 0.953125 
Q 30.953125 -1.421875 24.3125 -1.421875 
Q 15.921875 -1.421875 10.953125 3.296875 
Q 6 8.015625 6 15.921875 
Q 6 25.140625 12.171875 29.828125 
Q 18.359375 34.515625 30.609375 34.515625 
L 43.21875 34.515625 
L 43.21875 35.40625 
Q 43.21875 41.609375 39.140625 45 
Q 35.0625 48.390625 27.6875 48.390625 
Q 23 48.390625 18.546875 47.265625 
Q 14.109375 46.140625 10.015625 43.890625 
L 10.015625 52.203125 
Q 14.9375 54.109375 19.578125 55.046875 
Q 24.21875 56 28.609375 56 
Q 40.484375 56 46.34375 49.84375 
Q 52.203125 43.703125 52.203125 31.203125 
z
" id="DejaVuSans-97"/>
    <path d="M 10.984375 1.515625 
L 10.984375 10.5 
Q 14.703125 8.734375 18.5 7.8125 
Q 22.3125 6.890625 25.984375 6.890625 
Q 35.75 6.890625 40.890625 13.453125 
Q 46.046875 20.015625 46.78125 33.40625 
Q 43.953125 29.203125 39.59375 26.953125 
Q 35.25 24.703125 29.984375 24.703125 
Q 19.046875 24.703125 12.671875 31.3125 
Q 6.296875 37.9375 6.296875 49.421875 
Q 6.296875 60.640625 12.9375 67.421875 
Q 19.578125 74.21875 30.609375 74.21875 
Q 43.265625 74.21875 49.921875 64.515625 
Q 56.59375 54.828125 56.59375 36.375 
Q 56.59375 19.140625 48.40625 8.859375 
Q 40.234375 -1.421875 26.421875 -1.421875 
Q 22.703125 -1.421875 18.890625 -0.6875 
Q 15.09375 0.046875 10.984375 1.515625 
z
M 30.609375 32.421875 
Q 37.25 32.421875 41.125 36.953125 
Q 45.015625 41.5 45.015625 49.421875 
Q 45.015625 57.28125 41.125 61.84375 
Q 37.25 66.40625 30.609375 66.40625 
Q 23.96875 66.40625 20.09375 61.84375 
Q 16.21875 57.28125 16.21875 49.421875 
Q 16.21875 41.5 20.09375 36.953125 
Q 23.96875 32.421875 30.609375 32.421875 
z
" id="DejaVuSans-57"/>
    <path d="M 31.78125 34.625 
Q 24.75 34.625 20.71875 30.859375 
Q 16.703125 27.09375 16.703125 20.515625 
Q 16.703125 13.921875 20.71875 10.15625 
Q 24.75 6.390625 31.78125 6.390625 
Q 38.8125 6.390625 42.859375 10.171875 
Q 46.921875 13.96875 46.921875 20.515625 
Q 46.921875 27.09375 42.890625 30.859375 
Q 38.875 34.625 31.78125 34.625 
z
M 21.921875 38.8125 
Q 15.578125 40.375 12.03125 44.71875 
Q 8.5 49.078125 8.5 55.328125 
Q 8.5 64.0625 14.71875 69.140625 
Q 20.953125 74.21875 31.78125 74.21875 
Q 42.671875 74.21875 48.875 69.140625 
Q 55.078125 64.0625 55.078125 55.328125 
Q 55.078125 49.078125 51.53125 44.71875 
Q 48 40.375 41.703125 38.8125 
Q 48.828125 37.15625 52.796875 32.3125 
Q 56.78125 27.484375 56.78125 20.515625 
Q 56.78125 9.90625 50.3125 4.234375 
Q 43.84375 -1.421875 31.78125 -1.421875 
Q 19.734375 -1.421875 13.25 4.234375 
Q 6.78125 9.90625 6.78125 20.515625 
Q 6.78125 27.484375 10.78125 32.3125 
Q 14.796875 37.15625 21.921875 38.8125 
z
M 18.3125 54.390625 
Q 18.3125 48.734375 21.84375 45.5625 
Q 25.390625 42.390625 31.78125 42.390625 
Q 38.140625 42.390625 41.71875 45.5625 
Q 45.3125 48.734375 45.3125 54.390625 
Q 45.3125 60.0625 41.71875 63.234375 
Q 38.140625 66.40625 31.78125 66.40625 
Q 25.390625 66.40625 21.84375 63.234375 
Q 18.3125 60.0625 18.3125 54.390625 
z
" id="DejaVuSans-56"/>
   </defs>
   <g transform="translate(336.970312 14.878125)scale(0.12 -0.12)">
    <use xlink:href="#DejaVuSans-89"/>
    <use x="60.880859" xlink:href="#DejaVuSans-101"/>
    <use x="122.404297" xlink:href="#DejaVuSans-97"/>
    <use x="183.683594" xlink:href="#DejaVuSans-114"/>
    <use x="224.796875" xlink:href="#DejaVuSans-32"/>
    <use x="256.583984" xlink:href="#DejaVuSans-57"/>
    <use x="320.207031" xlink:href="#DejaVuSans-56"/>
   </g>
  </g>
 </g>
 <defs>
  <clipPath id="pb0c16406a7">
   <rect height="87.8816" width="313.49" x="40.12" y="32.64"/>
  </clipPath>
  <clipPath id="pc6f986087c">
   <rect height="87.8816" width="313.49" x="395.71" y="32.64"/>
  </clipPath>
  <clipPath id="p1e03c470cc">
   <rect height="87.8816" width="313.49" x="40.12" y="164.4624"/>
  </clipPath>
  <clipPath id="pc25ed103b6">
   <rect height="87.8816" width="313.49" x="395.71" y="164.4624"/>
  </clipPath>
 </defs>
</svg>
