<?xml version="1.0" encoding="utf-8" standalone="no"?>
<!DOCTYPE svg PUBLIC "-//W3C//DTD SVG 1.1//EN"
  "http://www.w3.org/Graphics/SVG/1.1/DTD/svg11.dtd">
<!-- Created with matplotlib (https://matplotlib.org/) -->
<svg height="288pt" version="1.1" viewBox="0 0 432 288" width="432pt" xmlns="http://www.w3.org/2000/svg" xmlns:xlink="http://www.w3.org/1999/xlink">
 <defs>
  <style type="text/css">
*{stroke-linecap:butt;stroke-linejoin:round;}
  </style>
 </defs>
 <g id="figure_1">
  <g id="patch_1">
   <path d="M 0 288 
L 432 288 
L 432 0 
L 0 0 
z
" style="fill:#ffffff;"/>
  </g>
  <g id="axes_1">
   <g id="patch_2">
    <path d="M 54 252 
L 388.8 252 
L 388.8 34.56 
L 54 34.56 
z
" style="fill:#ffffff;"/>
   </g>
   <g id="matplotlib.axis_1">
    <g id="xtick_1">
     <g id="line2d_1">
      <defs>
       <path d="M 0 0 
L 0 3.5 
" id="m74b63c88d7" style="stroke:#000000;stroke-width:0.8;"/>
      </defs>
      <g>
       <use style="stroke:#000000;stroke-width:0.8;" x="54" xlink:href="#m74b63c88d7" y="252"/>
      </g>
     </g>
     <g id="text_1">
      <!-- −2 -->
      <defs>
       <path d="M 10.59375 35.5 
L 73.1875 35.5 
L 73.1875 27.203125 
L 10.59375 27.203125 
z
" id="DejaVuSans-8722"/>
       <path d="M 19.1875 8.296875 
L 53.609375 8.296875 
L 53.609375 0 
L 7.328125 0 
L 7.328125 8.296875 
Q 12.9375 14.109375 22.625 23.890625 
Q 32.328125 33.6875 34.8125 36.53125 
Q 39.546875 41.84375 41.421875 45.53125 
Q 43.3125 49.21875 43.3125 52.78125 
Q 43.3125 58.59375 39.234375 62.25 
Q 35.15625 65.921875 28.609375 65.921875 
Q 23.96875 65.921875 18.8125 64.3125 
Q 13.671875 62.703125 7.8125 59.421875 
L 7.8125 69.390625 
Q 13.765625 71.78125 18.9375 73 
Q 24.125 74.21875 28.421875 74.21875 
Q 39.75 74.21875 46.484375 68.546875 
Q 53.21875 62.890625 53.21875 53.421875 
Q 53.21875 48.921875 51.53125 44.890625 
Q 49.859375 40.875 45.40625 35.40625 
Q 44.1875 33.984375 37.640625 27.21875 
Q 31.109375 20.453125 19.1875 8.296875 
z
" id="DejaVuSans-50"/>
      </defs>
      <g transform="translate(46.628906 266.598437)scale(0.1 -0.1)">
       <use xlink:href="#DejaVuSans-8722"/>
       <use x="83.789062" xlink:href="#DejaVuSans-50"/>
      </g>
     </g>
    </g>
    <g id="xtick_2">
     <g id="line2d_2">
      <g>
       <use style="stroke:#000000;stroke-width:0.8;" x="101.828571" xlink:href="#m74b63c88d7" y="252"/>
      </g>
     </g>
     <g id="text_2">
      <!-- 0 -->
      <defs>
       <path d="M 31.78125 66.40625 
Q 24.171875 66.40625 20.328125 58.90625 
Q 16.5 51.421875 16.5 36.375 
Q 16.5 21.390625 20.328125 13.890625 
Q 24.171875 6.390625 31.78125 6.390625 
Q 39.453125 6.390625 43.28125 13.890625 
Q 47.125 21.390625 47.125 36.375 
Q 47.125 51.421875 43.28125 58.90625 
Q 39.453125 66.40625 31.78125 66.40625 
z
M 31.78125 74.21875 
Q 44.046875 74.21875 50.515625 64.515625 
Q 56.984375 54.828125 56.984375 36.375 
Q 56.984375 17.96875 50.515625 8.265625 
Q 44.046875 -1.421875 31.78125 -1.421875 
Q 19.53125 -1.421875 13.0625 8.265625 
Q 6.59375 17.96875 6.59375 36.375 
Q 6.59375 54.828125 13.0625 64.515625 
Q 19.53125 74.21875 31.78125 74.21875 
z
" id="DejaVuSans-48"/>
      </defs>
      <g transform="translate(98.647321 266.598437)scale(0.1 -0.1)">
       <use xlink:href="#DejaVuSans-48"/>
      </g>
     </g>
    </g>
    <g id="xtick_3">
     <g id="line2d_3">
      <g>
       <use style="stroke:#000000;stroke-width:0.8;" x="149.657143" xlink:href="#m74b63c88d7" y="252"/>
      </g>
     </g>
     <g id="text_3">
      <!-- 2 -->
      <g transform="translate(146.475893 266.598437)scale(0.1 -0.1)">
       <use xlink:href="#DejaVuSans-50"/>
      </g>
     </g>
    </g>
    <g id="xtick_4">
     <g id="line2d_4">
      <g>
       <use style="stroke:#000000;stroke-width:0.8;" x="197.485714" xlink:href="#m74b63c88d7" y="252"/>
      </g>
     </g>
     <g id="text_4">
      <!-- 4 -->
      <defs>
       <path d="M 37.796875 64.3125 
L 12.890625 25.390625 
L 37.796875 25.390625 
z
M 35.203125 72.90625 
L 47.609375 72.90625 
L 47.609375 25.390625 
L 58.015625 25.390625 
L 58.015625 17.1875 
L 47.609375 17.1875 
L 47.609375 0 
L 37.796875 0 
L 37.796875 17.1875 
L 4.890625 17.1875 
L 4.890625 26.703125 
z
" id="DejaVuSans-52"/>
      </defs>
      <g transform="translate(194.304464 266.598437)scale(0.1 -0.1)">
       <use xlink:href="#DejaVuSans-52"/>
      </g>
     </g>
    </g>
    <g id="xtick_5">
     <g id="line2d_5">
      <g>
       <use style="stroke:#000000;stroke-width:0.8;" x="245.314286" xlink:href="#m74b63c88d7" y="252"/>
      </g>
     </g>
     <g id="text_5">
      <!-- 6 -->
      <defs>
       <path d="M 33.015625 40.375 
Q 26.375 40.375 22.484375 35.828125 
Q 18.609375 31.296875 18.609375 23.390625 
Q 18.609375 15.53125 22.484375 10.953125 
Q 26.375 6.390625 33.015625 6.390625 
Q 39.65625 6.390625 43.53125 10.953125 
Q 47.40625 15.53125 47.40625 23.390625 
Q 47.40625 31.296875 43.53125 35.828125 
Q 39.65625 40.375 33.015625 40.375 
z
M 52.59375 71.296875 
L 52.59375 62.3125 
Q 48.875 64.0625 45.09375 64.984375 
Q 41.3125 65.921875 37.59375 65.921875 
Q 27.828125 65.921875 22.671875 59.328125 
Q 17.53125 52.734375 16.796875 39.40625 
Q 19.671875 43.65625 24.015625 45.921875 
Q 28.375 48.1875 33.59375 48.1875 
Q 44.578125 48.1875 50.953125 41.515625 
Q 57.328125 34.859375 57.328125 23.390625 
Q 57.328125 12.15625 50.6875 5.359375 
Q 44.046875 -1.421875 33.015625 -1.421875 
Q 20.359375 -1.421875 13.671875 8.265625 
Q 6.984375 17.96875 6.984375 36.375 
Q 6.984375 53.65625 15.1875 63.9375 
Q 23.390625 74.21875 37.203125 74.21875 
Q 40.921875 74.21875 44.703125 73.484375 
Q 48.484375 72.75 52.59375 71.296875 
z
" id="DejaVuSans-54"/>
      </defs>
      <g transform="translate(242.133036 266.598437)scale(0.1 -0.1)">
       <use xlink:href="#DejaVuSans-54"/>
      </g>
     </g>
    </g>
    <g id="xtick_6">
     <g id="line2d_6">
      <g>
       <use style="stroke:#000000;stroke-width:0.8;" x="293.142857" xlink:href="#m74b63c88d7" y="252"/>
      </g>
     </g>
     <g id="text_6">
      <!-- 8 -->
      <defs>
       <path d="M 31.78125 34.625 
Q 24.75 34.625 20.71875 30.859375 
Q 16.703125 27.09375 16.703125 20.515625 
Q 16.703125 13.921875 20.71875 10.15625 
Q 24.75 6.390625 31.78125 6.390625 
Q 38.8125 6.390625 42.859375 10.171875 
Q 46.921875 13.96875 46.921875 20.515625 
Q 46.921875 27.09375 42.890625 30.859375 
Q 38.875 34.625 31.78125 34.625 
z
M 21.921875 38.8125 
Q 15.578125 40.375 12.03125 44.71875 
Q 8.5 49.078125 8.5 55.328125 
Q 8.5 64.0625 14.71875 69.140625 
Q 20.953125 74.21875 31.78125 74.21875 
Q 42.671875 74.21875 48.875 69.140625 
Q 55.078125 64.0625 55.078125 55.328125 
Q 55.078125 49.078125 51.53125 44.71875 
Q 48 40.375 41.703125 38.8125 
Q 48.828125 37.15625 52.796875 32.3125 
Q 56.78125 27.484375 56.78125 20.515625 
Q 56.78125 9.90625 50.3125 4.234375 
Q 43.84375 -1.421875 31.78125 -1.421875 
Q 19.734375 -1.421875 13.25 4.234375 
Q 6.78125 9.90625 6.78125 20.515625 
Q 6.78125 27.484375 10.78125 32.3125 
Q 14.796875 37.15625 21.921875 38.8125 
z
M 18.3125 54.390625 
Q 18.3125 48.734375 21.84375 45.5625 
Q 25.390625 42.390625 31.78125 42.390625 
Q 38.140625 42.390625 41.71875 45.5625 
Q 45.3125 48.734375 45.3125 54.390625 
Q 45.3125 60.0625 41.71875 63.234375 
Q 38.140625 66.40625 31.78125 66.40625 
Q 25.390625 66.40625 21.84375 63.234375 
Q 18.3125 60.0625 18.3125 54.390625 
z
" id="DejaVuSans-56"/>
      </defs>
      <g transform="translate(289.961607 266.598437)scale(0.1 -0.1)">
       <use xlink:href="#DejaVuSans-56"/>
      </g>
     </g>
    </g>
    <g id="xtick_7">
     <g id="line2d_7">
      <g>
       <use style="stroke:#000000;stroke-width:0.8;" x="340.971429" xlink:href="#m74b63c88d7" y="252"/>
      </g>
     </g>
     <g id="text_7">
      <!-- 10 -->
      <defs>
       <path d="M 12.40625 8.296875 
L 28.515625 8.296875 
L 28.515625 63.921875 
L 10.984375 60.40625 
L 10.984375 69.390625 
L 28.421875 72.90625 
L 38.28125 72.90625 
L 38.28125 8.296875 
L 54.390625 8.296875 
L 54.390625 0 
L 12.40625 0 
z
" id="DejaVuSans-49"/>
      </defs>
      <g transform="translate(334.608929 266.598437)scale(0.1 -0.1)">
       <use xlink:href="#DejaVuSans-49"/>
       <use x="63.623047" xlink:href="#DejaVuSans-48"/>
      </g>
     </g>
    </g>
    <g id="xtick_8">
     <g id="line2d_8">
      <g>
       <use style="stroke:#000000;stroke-width:0.8;" x="388.8" xlink:href="#m74b63c88d7" y="252"/>
      </g>
     </g>
     <g id="text_8">
      <!-- 12 -->
      <g transform="translate(382.4375 266.598437)scale(0.1 -0.1)">
       <use xlink:href="#DejaVuSans-49"/>
       <use x="63.623047" xlink:href="#DejaVuSans-50"/>
      </g>
     </g>
    </g>
   </g>
   <g id="matplotlib.axis_2">
    <g id="ytick_1">
     <g id="line2d_9">
      <defs>
       <path d="M 0 0 
L -3.5 0 
" id="m3c03b63c64" style="stroke:#000000;stroke-width:0.8;"/>
      </defs>
      <g>
       <use style="stroke:#000000;stroke-width:0.8;" x="54" xlink:href="#m3c03b63c64" y="242.116364"/>
      </g>
     </g>
     <g id="text_9">
      <!-- 0.0 -->
      <defs>
       <path d="M 10.6875 12.40625 
L 21 12.40625 
L 21 0 
L 10.6875 0 
z
" id="DejaVuSans-46"/>
      </defs>
      <g transform="translate(31.096875 245.915582)scale(0.1 -0.1)">
       <use xlink:href="#DejaVuSans-48"/>
       <use x="63.623047" xlink:href="#DejaVuSans-46"/>
       <use x="95.410156" xlink:href="#DejaVuSans-48"/>
      </g>
     </g>
    </g>
    <g id="ytick_2">
     <g id="line2d_10">
      <g>
       <use style="stroke:#000000;stroke-width:0.8;" x="54" xlink:href="#m3c03b63c64" y="196.146438"/>
      </g>
     </g>
     <g id="text_10">
      <!-- 0.2 -->
      <g transform="translate(31.096875 199.945657)scale(0.1 -0.1)">
       <use xlink:href="#DejaVuSans-48"/>
       <use x="63.623047" xlink:href="#DejaVuSans-46"/>
       <use x="95.410156" xlink:href="#DejaVuSans-50"/>
      </g>
     </g>
    </g>
    <g id="ytick_3">
     <g id="line2d_11">
      <g>
       <use style="stroke:#000000;stroke-width:0.8;" x="54" xlink:href="#m3c03b63c64" y="150.176512"/>
      </g>
     </g>
     <g id="text_11">
      <!-- 0.4 -->
      <g transform="translate(31.096875 153.975731)scale(0.1 -0.1)">
       <use xlink:href="#DejaVuSans-48"/>
       <use x="63.623047" xlink:href="#DejaVuSans-46"/>
       <use x="95.410156" xlink:href="#DejaVuSans-52"/>
      </g>
     </g>
    </g>
    <g id="ytick_4">
     <g id="line2d_12">
      <g>
       <use style="stroke:#000000;stroke-width:0.8;" x="54" xlink:href="#m3c03b63c64" y="104.206587"/>
      </g>
     </g>
     <g id="text_12">
      <!-- 0.6 -->
      <g transform="translate(31.096875 108.005806)scale(0.1 -0.1)">
       <use xlink:href="#DejaVuSans-48"/>
       <use x="63.623047" xlink:href="#DejaVuSans-46"/>
       <use x="95.410156" xlink:href="#DejaVuSans-54"/>
      </g>
     </g>
    </g>
    <g id="ytick_5">
     <g id="line2d_13">
      <g>
       <use style="stroke:#000000;stroke-width:0.8;" x="54" xlink:href="#m3c03b63c64" y="58.236661"/>
      </g>
     </g>
     <g id="text_13">
      <!-- 0.8 -->
      <g transform="translate(31.096875 62.03588)scale(0.1 -0.1)">
       <use xlink:href="#DejaVuSans-48"/>
       <use x="63.623047" xlink:href="#DejaVuSans-46"/>
       <use x="95.410156" xlink:href="#DejaVuSans-56"/>
      </g>
     </g>
    </g>
   </g>
   <g id="line2d_14">
    <path clip-path="url(#p250cafd052)" d="M 64.054054 44.443636 
L 74.443243 92.984562 
L 75.783784 98.171833 
L 78.464865 107.600323 
L 80.810811 115.146271 
L 83.156757 122.179166 
L 85.837838 129.712971 
L 90.194595 141.104919 
L 95.221622 153.243766 
L 100.583784 165.340164 
L 105.945946 176.778705 
L 111.643243 188.370775 
L 117.675676 200.137957 
L 124.043243 212.09829 
L 130.410811 223.661006 
L 137.113514 235.468925 
L 140.464865 241.093411 
L 141.135135 242.116364 
L 388.8 242.116364 
L 388.8 242.116364 
" style="fill:none;stroke:#1f77b4;stroke-linecap:square;stroke-width:1.5;"/>
   </g>
   <g id="line2d_15">
    <path clip-path="url(#p250cafd052)" d="M 64.054054 51.968269 
L 71.091892 84.563637 
L 73.102703 92.654153 
L 75.448649 100.936486 
L 77.794595 108.428158 
L 79.805405 114.33894 
L 82.151351 120.740413 
L 84.497297 126.707039 
L 87.178378 133.132874 
L 91.87027 143.552879 
L 97.232432 154.542919 
L 102.92973 165.459115 
L 108.291892 175.185128 
L 114.324324 185.636361 
L 120.356757 195.668399 
L 126.724324 205.881265 
L 133.427027 216.283951 
L 140.12973 226.377709 
L 147.502703 237.186134 
L 151.189189 242.116364 
L 388.8 242.116364 
L 388.8 242.116364 
" style="fill:none;stroke:#ff7f0e;stroke-linecap:square;stroke-width:1.5;"/>
   </g>
   <g id="line2d_16">
    <path clip-path="url(#p250cafd052)" d="M 64.054054 60.496525 
L 72.097297 97.044804 
L 74.778378 106.101195 
L 77.124324 113.196838 
L 79.47027 119.652543 
L 81.481081 124.707437 
L 83.827027 130.152321 
L 86.508108 135.930267 
L 89.189189 141.336471 
L 94.216216 150.724619 
L 99.243243 159.430329 
L 104.605405 168.163241 
L 110.637838 177.454432 
L 117.005405 186.80387 
L 123.037838 195.30393 
L 129.740541 204.421188 
L 136.778378 213.682203 
L 145.156757 224.345954 
L 154.540541 235.925078 
L 158.227027 240.269172 
L 161.578378 242.069055 
L 162.583784 242.116364 
L 388.8 242.116364 
L 388.8 242.116364 
" style="fill:none;stroke:#2ca02c;stroke-linecap:square;stroke-width:1.5;"/>
   </g>
   <g id="line2d_17">
    <path clip-path="url(#p250cafd052)" d="M 64.389189 68.239871 
L 67.740541 82.716005 
L 71.091892 101.76765 
L 73.772973 110.944475 
L 76.454054 118.869687 
L 78.464865 124.188313 
L 80.810811 129.781015 
L 83.156757 134.804642 
L 85.837838 140.030716 
L 88.183784 144.260227 
L 90.864865 148.814085 
L 94.216216 154.155406 
L 98.908108 161.18762 
L 104.605405 169.178293 
L 110.302703 176.720816 
L 116.67027 184.749573 
L 122.702703 192.035118 
L 129.740541 200.229111 
L 136.778378 208.142451 
L 146.832432 219.04962 
L 157.891892 230.602975 
L 168.951351 241.796685 
L 169.286486 241.993921 
L 175.989189 242.116364 
L 388.8 242.116364 
L 388.8 242.116364 
" style="fill:none;stroke:#d62728;stroke-linecap:square;stroke-width:1.5;"/>
   </g>
   <g id="line2d_18">
    <path clip-path="url(#p250cafd052)" d="M 64.389189 72.526101 
L 64.724324 73.759516 
L 66.735135 86.061235 
L 69.751351 104.301465 
L 72.432432 114.583824 
L 75.448649 123.480422 
L 77.459459 128.673726 
L 79.805405 133.985053 
L 82.151351 138.631857 
L 84.832432 143.363517 
L 87.513514 147.666231 
L 90.194595 151.651115 
L 92.875676 155.395931 
L 97.902703 161.936071 
L 103.935135 169.201199 
L 109.967568 176.028093 
L 116 182.520365 
L 122.367568 189.081724 
L 129.07027 195.733823 
L 136.443243 202.80104 
L 146.497297 212.095906 
L 158.227027 222.526019 
L 169.956757 232.608688 
L 180.681081 241.581915 
L 185.037838 242.116364 
L 388.8 242.116364 
L 388.8 242.116364 
" style="fill:none;stroke:#9467bd;stroke-linecap:square;stroke-width:1.5;"/>
   </g>
   <g id="line2d_19">
    <path clip-path="url(#p250cafd052)" d="M 64.724324 85.903209 
L 67.740541 102.363324 
L 71.091892 117.975672 
L 74.108108 126.754663 
L 76.454054 132.60493 
L 78.8 137.572012 
L 81.145946 141.751597 
L 83.827027 145.930258 
L 86.508108 149.692141 
L 89.189189 153.146188 
L 91.87027 156.370347 
L 95.556757 160.515573 
L 100.248649 165.473243 
L 106.281081 171.446461 
L 112.313514 177.096771 
L 118.681081 182.790285 
L 125.383784 188.548109 
L 134.097297 195.730229 
L 143.481081 203.173465 
L 154.205405 211.38021 
L 166.27027 220.298603 
L 178.67027 229.196021 
L 196.432432 241.660083 
L 196.767568 241.895125 
L 202.464865 242.116364 
L 388.8 242.116364 
L 388.8 242.116364 
" style="fill:none;stroke:#8c564b;stroke-linecap:square;stroke-width:1.5;"/>
   </g>
   <g id="line2d_20">
    <path clip-path="url(#p250cafd052)" d="M 65.059459 99.151697 
L 69.081081 118.869476 
L 72.432432 128.756127 
L 74.778378 134.364264 
L 77.124324 139.015656 
L 79.805405 143.302603 
L 82.486486 146.950584 
L 85.167568 150.189241 
L 87.848649 153.139707 
L 90.864865 156.223512 
L 96.227027 161.266393 
L 102.259459 166.509341 
L 108.291892 171.435512 
L 114.659459 176.383838 
L 121.027027 181.127018 
L 130.410811 187.824421 
L 139.124324 193.791042 
L 149.513514 200.660005 
L 160.908108 207.940608 
L 174.313514 216.241809 
L 188.389189 224.719332 
L 213.859459 239.760595 
L 218.216216 242.116364 
L 388.8 242.116364 
L 388.8 242.116364 
" style="fill:none;stroke:#e377c2;stroke-linecap:square;stroke-width:1.5;"/>
   </g>
   <g id="line2d_21">
    <path clip-path="url(#p250cafd052)" d="M 65.72973 114.5226 
L 69.751351 128.072997 
L 72.767568 134.809429 
L 75.113514 139.061507 
L 77.794595 142.896646 
L 80.475676 146.085042 
L 83.156757 148.878158 
L 86.172973 151.715901 
L 89.524324 154.605444 
L 94.551351 158.627901 
L 100.583784 163.103918 
L 106.951351 167.544122 
L 113.318919 171.768827 
L 123.037838 177.900366 
L 133.762162 184.330994 
L 144.486486 190.492664 
L 156.216216 196.992127 
L 168.951351 203.822061 
L 187.383784 213.40511 
L 208.832432 224.278007 
L 239.32973 239.711847 
L 241.340541 240.671471 
L 246.032432 242.116364 
L 388.8 242.116364 
L 388.8 242.116364 
" style="fill:none;stroke:#7f7f7f;stroke-linecap:square;stroke-width:1.5;"/>
   </g>
   <g id="line2d_22">
    <path clip-path="url(#p250cafd052)" d="M 66.064865 125.035098 
L 66.735135 126.768854 
L 69.751351 133.08547 
L 72.097297 137.055836 
L 74.778378 140.554764 
L 77.459459 143.401683 
L 80.140541 145.869346 
L 83.156757 148.35298 
L 86.172973 150.637739 
L 92.205405 154.815606 
L 97.902703 158.461799 
L 104.605405 162.499691 
L 113.989189 167.816528 
L 124.378378 173.37416 
L 134.432432 178.505276 
L 146.832432 184.579022 
L 159.232432 190.428929 
L 176.994595 198.534193 
L 197.437838 207.609079 
L 229.275676 221.474512 
L 257.091892 233.665116 
L 276.194595 242.116364 
L 388.8 242.116364 
L 388.8 242.116364 
" style="fill:none;stroke:#bcbd22;stroke-linecap:square;stroke-width:1.5;"/>
   </g>
   <g id="line2d_23">
    <path clip-path="url(#p250cafd052)" d="M 66.735135 131.609219 
L 68.075676 133.65826 
L 70.756757 136.893161 
L 73.437838 139.482096 
L 76.454054 141.962562 
L 79.47027 144.155093 
L 82.486486 146.157207 
L 88.518919 149.81316 
L 94.551351 153.183182 
L 100.918919 156.526102 
L 110.972973 161.480353 
L 121.027027 166.153291 
L 131.416216 170.757955 
L 144.151351 176.171352 
L 160.237838 182.731467 
L 180.345946 190.663804 
L 209.837838 202.007127 
L 281.891892 229.606323 
L 294.291892 234.590493 
L 306.021622 239.473516 
L 308.702703 240.504371 
L 313.72973 242.116364 
L 388.8 242.116364 
L 388.8 242.116364 
" style="fill:none;stroke:#17becf;stroke-linecap:square;stroke-width:1.5;"/>
   </g>
   <g id="line2d_24">
    <path clip-path="url(#p250cafd052)" d="M 67.740541 134.144698 
L 71.091892 136.669794 
L 74.108108 138.645655 
L 77.124324 140.440528 
L 83.156757 143.684235 
L 89.859459 146.981478 
L 96.227027 149.903828 
L 105.945946 154.094969 
L 116.67027 158.44822 
L 127.72973 162.717941 
L 141.135135 167.670903 
L 157.556757 173.508752 
L 178 180.565555 
L 210.172973 191.441068 
L 293.286486 219.490102 
L 316.075676 227.494762 
L 332.497297 233.527226 
L 345.902703 238.677097 
L 354.281081 241.881776 
L 362.659459 242.116364 
L 388.8 242.116364 
L 388.8 242.116364 
" style="fill:none;stroke:#1f77b4;stroke-linecap:square;stroke-width:1.5;"/>
   </g>
   <g id="patch_3">
    <path d="M 54 252 
L 54 34.56 
" style="fill:none;stroke:#000000;stroke-linecap:square;stroke-linejoin:miter;stroke-width:0.8;"/>
   </g>
   <g id="patch_4">
    <path d="M 388.8 252 
L 388.8 34.56 
" style="fill:none;stroke:#000000;stroke-linecap:square;stroke-linejoin:miter;stroke-width:0.8;"/>
   </g>
   <g id="patch_5">
    <path d="M 54 252 
L 388.8 252 
" style="fill:none;stroke:#000000;stroke-linecap:square;stroke-linejoin:miter;stroke-width:0.8;"/>
   </g>
   <g id="patch_6">
    <path d="M 54 34.56 
L 388.8 34.56 
" style="fill:none;stroke:#000000;stroke-linecap:square;stroke-linejoin:miter;stroke-width:0.8;"/>
   </g>
  </g>
 </g>
 <defs>
  <clipPath id="p250cafd052">
   <rect height="217.44" width="334.8" x="54" y="34.56"/>
  </clipPath>
 </defs>
</svg>
