<?xml version="1.0" encoding="utf-8" standalone="no"?>
<!DOCTYPE svg PUBLIC "-//W3C//DTD SVG 1.1//EN"
  "http://www.w3.org/Graphics/SVG/1.1/DTD/svg11.dtd">
<!-- Created with matplotlib (https://matplotlib.org/) -->
<svg height="345.6pt" version="1.1" viewBox="0 0 460.8 345.6" width="460.8pt" xmlns="http://www.w3.org/2000/svg" xmlns:xlink="http://www.w3.org/1999/xlink">
 <defs>
  <style type="text/css">
*{stroke-linecap:butt;stroke-linejoin:round;}
  </style>
 </defs>
 <g id="figure_1">
  <g id="patch_1">
   <path d="M 0 345.6 
L 460.8 345.6 
L 460.8 0 
L 0 0 
z
" style="fill:#ffffff;"/>
  </g>
  <g id="axes_1">
   <g id="patch_2">
    <path d="M 68.78 286.36 
L 224.254199 286.36 
L 224.254199 56.0256 
L 68.78 56.0256 
z
" style="fill:#ffffff;"/>
   </g>
   <g id="matplotlib.axis_1">
    <g id="xtick_1">
     <g id="line2d_1">
      <path clip-path="url(#p187ca9c402)" d="M 75.847009 286.36 
L 75.847009 56.0256 
" style="fill:none;stroke:#b0b0b0;stroke-linecap:square;stroke-width:0.8;"/>
     </g>
     <g id="line2d_2">
      <defs>
       <path d="M 0 0 
L 0 3.5 
" id="m3d580a1d37" style="stroke:#000000;stroke-width:0.8;"/>
      </defs>
      <g>
       <use style="stroke:#000000;stroke-width:0.8;" x="75.847009" xlink:href="#m3d580a1d37" y="286.36"/>
      </g>
     </g>
     <g id="text_1">
      <!-- 0.0 -->
      <defs>
       <path d="M 31.78125 66.40625 
Q 24.171875 66.40625 20.328125 58.90625 
Q 16.5 51.421875 16.5 36.375 
Q 16.5 21.390625 20.328125 13.890625 
Q 24.171875 6.390625 31.78125 6.390625 
Q 39.453125 6.390625 43.28125 13.890625 
Q 47.125 21.390625 47.125 36.375 
Q 47.125 51.421875 43.28125 58.90625 
Q 39.453125 66.40625 31.78125 66.40625 
z
M 31.78125 74.21875 
Q 44.046875 74.21875 50.515625 64.515625 
Q 56.984375 54.828125 56.984375 36.375 
Q 56.984375 17.96875 50.515625 8.265625 
Q 44.046875 -1.421875 31.78125 -1.421875 
Q 19.53125 -1.421875 13.0625 8.265625 
Q 6.59375 17.96875 6.59375 36.375 
Q 6.59375 54.828125 13.0625 64.515625 
Q 19.53125 74.21875 31.78125 74.21875 
z
" id="DejaVuSans-48"/>
       <path d="M 10.6875 12.40625 
L 21 12.40625 
L 21 0 
L 10.6875 0 
z
" id="DejaVuSans-46"/>
      </defs>
      <g transform="translate(67.895447 300.958437)scale(0.1 -0.1)">
       <use xlink:href="#DejaVuSans-48"/>
       <use x="63.623047" xlink:href="#DejaVuSans-46"/>
       <use x="95.410156" xlink:href="#DejaVuSans-48"/>
      </g>
     </g>
    </g>
    <g id="xtick_2">
     <g id="line2d_3">
      <path clip-path="url(#p187ca9c402)" d="M 111.182054 286.36 
L 111.182054 56.0256 
" style="fill:none;stroke:#b0b0b0;stroke-linecap:square;stroke-width:0.8;"/>
     </g>
     <g id="line2d_4">
      <g>
       <use style="stroke:#000000;stroke-width:0.8;" x="111.182054" xlink:href="#m3d580a1d37" y="286.36"/>
      </g>
     </g>
     <g id="text_2">
      <!-- 2.5 -->
      <defs>
       <path d="M 19.1875 8.296875 
L 53.609375 8.296875 
L 53.609375 0 
L 7.328125 0 
L 7.328125 8.296875 
Q 12.9375 14.109375 22.625 23.890625 
Q 32.328125 33.6875 34.8125 36.53125 
Q 39.546875 41.84375 41.421875 45.53125 
Q 43.3125 49.21875 43.3125 52.78125 
Q 43.3125 58.59375 39.234375 62.25 
Q 35.15625 65.921875 28.609375 65.921875 
Q 23.96875 65.921875 18.8125 64.3125 
Q 13.671875 62.703125 7.8125 59.421875 
L 7.8125 69.390625 
Q 13.765625 71.78125 18.9375 73 
Q 24.125 74.21875 28.421875 74.21875 
Q 39.75 74.21875 46.484375 68.546875 
Q 53.21875 62.890625 53.21875 53.421875 
Q 53.21875 48.921875 51.53125 44.890625 
Q 49.859375 40.875 45.40625 35.40625 
Q 44.1875 33.984375 37.640625 27.21875 
Q 31.109375 20.453125 19.1875 8.296875 
z
" id="DejaVuSans-50"/>
       <path d="M 10.796875 72.90625 
L 49.515625 72.90625 
L 49.515625 64.59375 
L 19.828125 64.59375 
L 19.828125 46.734375 
Q 21.96875 47.46875 24.109375 47.828125 
Q 26.265625 48.1875 28.421875 48.1875 
Q 40.625 48.1875 47.75 41.5 
Q 54.890625 34.8125 54.890625 23.390625 
Q 54.890625 11.625 47.5625 5.09375 
Q 40.234375 -1.421875 26.90625 -1.421875 
Q 22.3125 -1.421875 17.546875 -0.640625 
Q 12.796875 0.140625 7.71875 1.703125 
L 7.71875 11.625 
Q 12.109375 9.234375 16.796875 8.0625 
Q 21.484375 6.890625 26.703125 6.890625 
Q 35.15625 6.890625 40.078125 11.328125 
Q 45.015625 15.765625 45.015625 23.390625 
Q 45.015625 31 40.078125 35.4375 
Q 35.15625 39.890625 26.703125 39.890625 
Q 22.75 39.890625 18.8125 39.015625 
Q 14.890625 38.140625 10.796875 36.28125 
z
" id="DejaVuSans-53"/>
      </defs>
      <g transform="translate(103.230492 300.958437)scale(0.1 -0.1)">
       <use xlink:href="#DejaVuSans-50"/>
       <use x="63.623047" xlink:href="#DejaVuSans-46"/>
       <use x="95.410156" xlink:href="#DejaVuSans-53"/>
      </g>
     </g>
    </g>
    <g id="xtick_3">
     <g id="line2d_5">
      <path clip-path="url(#p187ca9c402)" d="M 146.5171 286.36 
L 146.5171 56.0256 
" style="fill:none;stroke:#b0b0b0;stroke-linecap:square;stroke-width:0.8;"/>
     </g>
     <g id="line2d_6">
      <g>
       <use style="stroke:#000000;stroke-width:0.8;" x="146.5171" xlink:href="#m3d580a1d37" y="286.36"/>
      </g>
     </g>
     <g id="text_3">
      <!-- 5.0 -->
      <g transform="translate(138.565537 300.958437)scale(0.1 -0.1)">
       <use xlink:href="#DejaVuSans-53"/>
       <use x="63.623047" xlink:href="#DejaVuSans-46"/>
       <use x="95.410156" xlink:href="#DejaVuSans-48"/>
      </g>
     </g>
    </g>
    <g id="xtick_4">
     <g id="line2d_7">
      <path clip-path="url(#p187ca9c402)" d="M 181.852145 286.36 
L 181.852145 56.0256 
" style="fill:none;stroke:#b0b0b0;stroke-linecap:square;stroke-width:0.8;"/>
     </g>
     <g id="line2d_8">
      <g>
       <use style="stroke:#000000;stroke-width:0.8;" x="181.852145" xlink:href="#m3d580a1d37" y="286.36"/>
      </g>
     </g>
     <g id="text_4">
      <!-- 7.5 -->
      <defs>
       <path d="M 8.203125 72.90625 
L 55.078125 72.90625 
L 55.078125 68.703125 
L 28.609375 0 
L 18.3125 0 
L 43.21875 64.59375 
L 8.203125 64.59375 
z
" id="DejaVuSans-55"/>
      </defs>
      <g transform="translate(173.900583 300.958437)scale(0.1 -0.1)">
       <use xlink:href="#DejaVuSans-55"/>
       <use x="63.623047" xlink:href="#DejaVuSans-46"/>
       <use x="95.410156" xlink:href="#DejaVuSans-53"/>
      </g>
     </g>
    </g>
    <g id="xtick_5">
     <g id="line2d_9">
      <path clip-path="url(#p187ca9c402)" d="M 217.18719 286.36 
L 217.18719 56.0256 
" style="fill:none;stroke:#b0b0b0;stroke-linecap:square;stroke-width:0.8;"/>
     </g>
     <g id="line2d_10">
      <g>
       <use style="stroke:#000000;stroke-width:0.8;" x="217.18719" xlink:href="#m3d580a1d37" y="286.36"/>
      </g>
     </g>
     <g id="text_5">
      <!-- 10.0 -->
      <defs>
       <path d="M 12.40625 8.296875 
L 28.515625 8.296875 
L 28.515625 63.921875 
L 10.984375 60.40625 
L 10.984375 69.390625 
L 28.421875 72.90625 
L 38.28125 72.90625 
L 38.28125 8.296875 
L 54.390625 8.296875 
L 54.390625 0 
L 12.40625 0 
z
" id="DejaVuSans-49"/>
      </defs>
      <g transform="translate(206.054378 300.958437)scale(0.1 -0.1)">
       <use xlink:href="#DejaVuSans-49"/>
       <use x="63.623047" xlink:href="#DejaVuSans-48"/>
       <use x="127.246094" xlink:href="#DejaVuSans-46"/>
       <use x="159.033203" xlink:href="#DejaVuSans-48"/>
      </g>
     </g>
    </g>
    <g id="text_6">
     <!-- M -->
     <defs>
      <path d="M 9.8125 72.90625 
L 24.515625 72.90625 
L 43.109375 23.296875 
L 61.8125 72.90625 
L 76.515625 72.90625 
L 76.515625 0 
L 66.890625 0 
L 66.890625 64.015625 
L 48.09375 14.015625 
L 38.1875 14.015625 
L 19.390625 64.015625 
L 19.390625 0 
L 9.8125 0 
z
" id="DejaVuSans-77"/>
     </defs>
     <g transform="translate(142.203037 314.636562)scale(0.1 -0.1)">
      <use xlink:href="#DejaVuSans-77"/>
     </g>
    </g>
   </g>
   <g id="matplotlib.axis_2">
    <g id="ytick_1">
     <g id="line2d_11">
      <path clip-path="url(#p187ca9c402)" d="M 68.78 245.441831 
L 224.254199 245.441831 
" style="fill:none;stroke:#b0b0b0;stroke-linecap:square;stroke-width:0.8;"/>
     </g>
     <g id="line2d_12">
      <defs>
       <path d="M 0 0 
L -3.5 0 
" id="m613067f372" style="stroke:#000000;stroke-width:0.8;"/>
      </defs>
      <g>
       <use style="stroke:#000000;stroke-width:0.8;" x="68.78" xlink:href="#m613067f372" y="245.441831"/>
      </g>
     </g>
     <g id="text_7">
      <!-- −0.020 -->
      <defs>
       <path d="M 10.59375 35.5 
L 73.1875 35.5 
L 73.1875 27.203125 
L 10.59375 27.203125 
z
" id="DejaVuSans-8722"/>
      </defs>
      <g transform="translate(24.772188 249.241049)scale(0.1 -0.1)">
       <use xlink:href="#DejaVuSans-8722"/>
       <use x="83.789062" xlink:href="#DejaVuSans-48"/>
       <use x="147.412109" xlink:href="#DejaVuSans-46"/>
       <use x="179.199219" xlink:href="#DejaVuSans-48"/>
       <use x="242.822266" xlink:href="#DejaVuSans-50"/>
       <use x="306.445312" xlink:href="#DejaVuSans-48"/>
      </g>
     </g>
    </g>
    <g id="ytick_2">
     <g id="line2d_13">
      <path clip-path="url(#p187ca9c402)" d="M 68.78 200.705209 
L 224.254199 200.705209 
" style="fill:none;stroke:#b0b0b0;stroke-linecap:square;stroke-width:0.8;"/>
     </g>
     <g id="line2d_14">
      <g>
       <use style="stroke:#000000;stroke-width:0.8;" x="68.78" xlink:href="#m613067f372" y="200.705209"/>
      </g>
     </g>
     <g id="text_8">
      <!-- −0.015 -->
      <g transform="translate(24.772188 204.504428)scale(0.1 -0.1)">
       <use xlink:href="#DejaVuSans-8722"/>
       <use x="83.789062" xlink:href="#DejaVuSans-48"/>
       <use x="147.412109" xlink:href="#DejaVuSans-46"/>
       <use x="179.199219" xlink:href="#DejaVuSans-48"/>
       <use x="242.822266" xlink:href="#DejaVuSans-49"/>
       <use x="306.445312" xlink:href="#DejaVuSans-53"/>
      </g>
     </g>
    </g>
    <g id="ytick_3">
     <g id="line2d_15">
      <path clip-path="url(#p187ca9c402)" d="M 68.78 155.968588 
L 224.254199 155.968588 
" style="fill:none;stroke:#b0b0b0;stroke-linecap:square;stroke-width:0.8;"/>
     </g>
     <g id="line2d_16">
      <g>
       <use style="stroke:#000000;stroke-width:0.8;" x="68.78" xlink:href="#m613067f372" y="155.968588"/>
      </g>
     </g>
     <g id="text_9">
      <!-- −0.010 -->
      <g transform="translate(24.772188 159.767807)scale(0.1 -0.1)">
       <use xlink:href="#DejaVuSans-8722"/>
       <use x="83.789062" xlink:href="#DejaVuSans-48"/>
       <use x="147.412109" xlink:href="#DejaVuSans-46"/>
       <use x="179.199219" xlink:href="#DejaVuSans-48"/>
       <use x="242.822266" xlink:href="#DejaVuSans-49"/>
       <use x="306.445312" xlink:href="#DejaVuSans-48"/>
      </g>
     </g>
    </g>
    <g id="ytick_4">
     <g id="line2d_17">
      <path clip-path="url(#p187ca9c402)" d="M 68.78 111.231967 
L 224.254199 111.231967 
" style="fill:none;stroke:#b0b0b0;stroke-linecap:square;stroke-width:0.8;"/>
     </g>
     <g id="line2d_18">
      <g>
       <use style="stroke:#000000;stroke-width:0.8;" x="68.78" xlink:href="#m613067f372" y="111.231967"/>
      </g>
     </g>
     <g id="text_10">
      <!-- −0.005 -->
      <g transform="translate(24.772188 115.031186)scale(0.1 -0.1)">
       <use xlink:href="#DejaVuSans-8722"/>
       <use x="83.789062" xlink:href="#DejaVuSans-48"/>
       <use x="147.412109" xlink:href="#DejaVuSans-46"/>
       <use x="179.199219" xlink:href="#DejaVuSans-48"/>
       <use x="242.822266" xlink:href="#DejaVuSans-48"/>
       <use x="306.445312" xlink:href="#DejaVuSans-53"/>
      </g>
     </g>
    </g>
    <g id="ytick_5">
     <g id="line2d_19">
      <path clip-path="url(#p187ca9c402)" d="M 68.78 66.495345 
L 224.254199 66.495345 
" style="fill:none;stroke:#b0b0b0;stroke-linecap:square;stroke-width:0.8;"/>
     </g>
     <g id="line2d_20">
      <g>
       <use style="stroke:#000000;stroke-width:0.8;" x="68.78" xlink:href="#m613067f372" y="66.495345"/>
      </g>
     </g>
     <g id="text_11">
      <!-- 0.000 -->
      <g transform="translate(33.151875 70.294564)scale(0.1 -0.1)">
       <use xlink:href="#DejaVuSans-48"/>
       <use x="63.623047" xlink:href="#DejaVuSans-46"/>
       <use x="95.410156" xlink:href="#DejaVuSans-48"/>
       <use x="159.033203" xlink:href="#DejaVuSans-48"/>
       <use x="222.65625" xlink:href="#DejaVuSans-48"/>
      </g>
     </g>
    </g>
    <g id="text_12">
     <!-- C -->
     <defs>
      <path d="M 64.40625 67.28125 
L 64.40625 56.890625 
Q 59.421875 61.53125 53.78125 63.8125 
Q 48.140625 66.109375 41.796875 66.109375 
Q 29.296875 66.109375 22.65625 58.46875 
Q 16.015625 50.828125 16.015625 36.375 
Q 16.015625 21.96875 22.65625 14.328125 
Q 29.296875 6.6875 41.796875 6.6875 
Q 48.140625 6.6875 53.78125 8.984375 
Q 59.421875 11.28125 64.40625 15.921875 
L 64.40625 5.609375 
Q 59.234375 2.09375 53.4375 0.328125 
Q 47.65625 -1.421875 41.21875 -1.421875 
Q 24.65625 -1.421875 15.125 8.703125 
Q 5.609375 18.84375 5.609375 36.375 
Q 5.609375 53.953125 15.125 64.078125 
Q 24.65625 74.21875 41.21875 74.21875 
Q 47.75 74.21875 53.53125 72.484375 
Q 59.328125 70.75 64.40625 67.28125 
z
" id="DejaVuSans-67"/>
     </defs>
     <g transform="translate(18.6925 174.684206)rotate(-90)scale(0.1 -0.1)">
      <use xlink:href="#DejaVuSans-67"/>
     </g>
    </g>
   </g>
   <g id="line2d_21">
    <path clip-path="url(#p187ca9c402)" d="M 75.847009 66.495345 
L 77.274688 67.396299 
L 78.702366 68.297252 
L 80.130045 69.198206 
L 81.557723 70.099159 
L 82.985402 71.000113 
L 84.413081 71.901066 
L 85.840759 72.80202 
L 87.268438 73.702973 
L 88.696116 74.603927 
L 90.123795 118.579344 
L 91.551474 275.890255 
L 92.979152 224.653058 
L 94.406831 190.108715 
L 95.834509 164.367926 
L 97.262188 144.246568 
L 98.689867 128.084756 
L 100.117545 114.939771 
L 101.545224 104.155933 
L 102.972902 95.293228 
L 104.400581 88.063717 
L 105.82826 82.228344 
L 107.255938 77.539915 
L 108.683617 73.986956 
L 110.111295 71.275234 
L 111.538974 69.359647 
L 112.966653 68.123748 
L 114.394331 67.357098 
L 115.82201 66.918954 
L 117.249688 66.687639 
L 118.677367 66.574762 
L 120.105046 66.526805 
L 121.532724 66.508638 
L 122.960403 66.500203 
L 124.388081 66.496786 
L 125.81576 66.495858 
L 127.243439 66.495519 
L 128.671117 66.495383 
L 130.098796 66.495362 
L 131.526474 66.495349 
L 132.954153 66.495347 
L 134.381832 66.495346 
L 135.80951 66.495346 
L 137.237189 66.495345 
L 138.664867 66.495345 
L 140.092546 66.495345 
L 141.520225 66.495345 
L 142.947903 66.495345 
L 144.375582 66.495345 
L 145.80326 66.495345 
L 147.230939 66.495345 
L 148.658618 66.495345 
L 150.086296 66.495345 
L 151.513975 66.495345 
L 152.941653 66.495345 
L 154.369332 66.495345 
L 155.797011 66.495345 
L 157.224689 66.495345 
L 158.652368 66.495345 
L 160.080046 66.495345 
L 161.507725 66.495345 
L 162.935404 66.495345 
L 164.363082 66.495345 
L 165.790761 66.495345 
L 167.218439 66.495345 
L 168.646118 66.495345 
L 170.073797 66.495345 
L 171.501475 66.495345 
L 172.929154 66.495345 
L 174.356832 66.495345 
L 175.784511 66.495345 
L 177.21219 66.495345 
L 178.639868 66.495345 
L 180.067547 66.495345 
L 181.495225 66.495345 
L 182.922904 66.495345 
L 184.350583 66.495345 
L 185.778261 66.495345 
L 187.20594 66.495345 
L 188.633618 66.495345 
L 190.061297 66.495345 
L 191.488976 66.495345 
L 192.916654 66.495345 
L 194.344333 66.495345 
L 195.772011 66.495345 
L 197.19969 66.495345 
L 198.627369 66.495345 
L 200.055047 66.495345 
L 201.482726 66.495345 
L 202.910404 66.495345 
L 204.338083 66.495345 
L 205.765762 66.495345 
L 207.19344 66.495345 
L 208.621119 66.495345 
L 210.048797 66.495345 
L 211.476476 66.495345 
L 212.904155 66.495345 
L 214.331833 66.495345 
L 215.759512 66.495345 
L 217.18719 66.495345 
" style="fill:none;stroke:#1f77b4;stroke-linecap:square;stroke-width:1.5;"/>
   </g>
   <g id="line2d_22">
    <path clip-path="url(#p187ca9c402)" d="M 75.847009 66.495345 
L 77.274688 67.395402 
L 78.702366 68.295458 
L 80.130045 69.195514 
L 81.557723 70.09557 
L 82.985402 70.995627 
L 84.413081 71.895683 
L 85.840759 72.795739 
L 87.268438 73.695795 
L 88.696116 74.595852 
L 90.123795 66.495345 
L 91.551474 66.495345 
L 92.979152 66.495345 
L 94.406831 66.495345 
L 95.834509 66.495345 
L 97.262188 66.495345 
L 98.689867 66.495345 
L 100.117545 66.495345 
L 101.545224 66.495345 
L 102.972902 66.495345 
L 104.400581 66.495345 
L 105.82826 66.495345 
L 107.255938 66.495345 
L 108.683617 66.495345 
L 110.111295 66.495345 
L 111.538974 66.495345 
L 112.966653 66.495345 
L 114.394331 66.495345 
L 115.82201 66.495345 
L 117.249688 66.495345 
L 118.677367 66.495345 
L 120.105046 66.495345 
L 121.532724 66.495345 
L 122.960403 66.495345 
L 124.388081 66.495345 
L 125.81576 66.495345 
L 127.243439 66.495345 
L 128.671117 66.495345 
L 130.098796 66.495345 
L 131.526474 66.495345 
L 132.954153 66.495345 
L 134.381832 66.495345 
L 135.80951 66.495345 
L 137.237189 66.495345 
L 138.664867 66.495345 
L 140.092546 66.495345 
L 141.520225 66.495345 
L 142.947903 66.495345 
L 144.375582 66.495345 
L 145.80326 66.495345 
L 147.230939 66.495345 
L 148.658618 66.495345 
L 150.086296 66.495345 
L 151.513975 66.495345 
L 152.941653 66.495345 
L 154.369332 66.495345 
L 155.797011 66.495345 
L 157.224689 66.495345 
L 158.652368 66.495345 
L 160.080046 66.495345 
L 161.507725 66.495345 
L 162.935404 66.495345 
L 164.363082 66.495345 
L 165.790761 66.495345 
L 167.218439 66.495345 
L 168.646118 66.495345 
L 170.073797 66.495345 
L 171.501475 66.495345 
L 172.929154 66.495345 
L 174.356832 66.495345 
L 175.784511 66.495345 
L 177.21219 66.495345 
L 178.639868 66.495345 
L 180.067547 66.495345 
L 181.495225 66.495345 
L 182.922904 66.495345 
L 184.350583 66.495345 
L 185.778261 66.495345 
L 187.20594 66.495345 
L 188.633618 66.495345 
L 190.061297 66.495345 
L 191.488976 66.495345 
L 192.916654 66.495345 
L 194.344333 66.495345 
L 195.772011 66.495345 
L 197.19969 66.495345 
L 198.627369 66.495345 
L 200.055047 66.495345 
L 201.482726 66.495345 
L 202.910404 66.495345 
L 204.338083 66.495345 
L 205.765762 66.495345 
L 207.19344 66.495345 
L 208.621119 66.495345 
L 210.048797 66.495345 
L 211.476476 66.495345 
L 212.904155 66.495345 
L 214.331833 66.495345 
L 215.759512 66.495345 
L 217.18719 66.495345 
" style="fill:none;stroke:#ff7f0e;stroke-linecap:square;stroke-width:1.5;"/>
   </g>
   <g id="line2d_23">
    <path clip-path="url(#p187ca9c402)" d="M 75.847009 66.495345 
L 77.274688 66.495345 
L 78.702366 66.495345 
L 80.130045 66.495345 
L 81.557723 66.495345 
L 82.985402 66.495345 
L 84.413081 66.495345 
L 85.840759 66.495345 
L 87.268438 66.495345 
L 88.696116 66.495345 
L 90.123795 66.495345 
L 91.551474 66.495345 
L 92.979152 66.495345 
L 94.406831 66.495345 
L 95.834509 66.495345 
L 97.262188 66.495345 
L 98.689867 66.495345 
L 100.117545 66.495345 
L 101.545224 66.495345 
L 102.972902 66.495345 
L 104.400581 66.495345 
L 105.82826 66.495345 
L 107.255938 66.495345 
L 108.683617 66.495345 
L 110.111295 66.495345 
L 111.538974 66.495345 
L 112.966653 66.495345 
L 114.394331 66.495345 
L 115.82201 66.495345 
L 117.249688 66.495345 
L 118.677367 66.495345 
L 120.105046 66.495345 
L 121.532724 66.495345 
L 122.960403 66.495345 
L 124.388081 66.495345 
L 125.81576 66.495345 
L 127.243439 66.495345 
L 128.671117 66.495345 
L 130.098796 66.495345 
L 131.526474 66.495345 
L 132.954153 66.495345 
L 134.381832 66.495345 
L 135.80951 66.495345 
L 137.237189 66.495345 
L 138.664867 66.495345 
L 140.092546 66.495345 
L 141.520225 66.495345 
L 142.947903 66.495345 
L 144.375582 66.495345 
L 145.80326 66.495345 
L 147.230939 66.495345 
L 148.658618 66.495345 
L 150.086296 66.495345 
L 151.513975 66.495345 
L 152.941653 66.495345 
L 154.369332 66.495345 
L 155.797011 66.495345 
L 157.224689 66.495345 
L 158.652368 66.495345 
L 160.080046 66.495345 
L 161.507725 66.495345 
L 162.935404 66.495345 
L 164.363082 66.495345 
L 165.790761 66.495345 
L 167.218439 66.495345 
L 168.646118 66.495345 
L 170.073797 66.495345 
L 171.501475 66.495345 
L 172.929154 66.495345 
L 174.356832 66.495345 
L 175.784511 66.495345 
L 177.21219 66.495345 
L 178.639868 66.495345 
L 180.067547 66.495345 
L 181.495225 66.495345 
L 182.922904 66.495345 
L 184.350583 66.495345 
L 185.778261 66.495345 
L 187.20594 66.495345 
L 188.633618 66.495345 
L 190.061297 66.495345 
L 191.488976 66.495345 
L 192.916654 66.495345 
L 194.344333 66.495345 
L 195.772011 66.495345 
L 197.19969 66.495345 
L 198.627369 66.495345 
L 200.055047 66.495345 
L 201.482726 66.495345 
L 202.910404 66.495345 
L 204.338083 66.495345 
L 205.765762 66.495345 
L 207.19344 66.495345 
L 208.621119 66.495345 
L 210.048797 66.495345 
L 211.476476 66.495345 
L 212.904155 66.495345 
L 214.331833 66.495345 
L 215.759512 66.495345 
L 217.18719 66.495345 
" style="fill:none;stroke:#2ca02c;stroke-linecap:square;stroke-width:1.5;"/>
   </g>
   <g id="patch_3">
    <path d="M 68.78 286.36 
L 68.78 56.0256 
" style="fill:none;stroke:#000000;stroke-linecap:square;stroke-linejoin:miter;stroke-width:0.8;"/>
   </g>
   <g id="patch_4">
    <path d="M 224.254199 286.36 
L 224.254199 56.0256 
" style="fill:none;stroke:#000000;stroke-linecap:square;stroke-linejoin:miter;stroke-width:0.8;"/>
   </g>
   <g id="patch_5">
    <path d="M 68.78 286.36 
L 224.254199 286.36 
" style="fill:none;stroke:#000000;stroke-linecap:square;stroke-linejoin:miter;stroke-width:0.8;"/>
   </g>
   <g id="patch_6">
    <path d="M 68.78 56.0256 
L 224.254199 56.0256 
" style="fill:none;stroke:#000000;stroke-linecap:square;stroke-linejoin:miter;stroke-width:0.8;"/>
   </g>
   <g id="text_13">
    <!-- PortfolioConsumerType -->
    <defs>
     <path d="M 19.671875 64.796875 
L 19.671875 37.40625 
L 32.078125 37.40625 
Q 38.96875 37.40625 42.71875 40.96875 
Q 46.484375 44.53125 46.484375 51.125 
Q 46.484375 57.671875 42.71875 61.234375 
Q 38.96875 64.796875 32.078125 64.796875 
z
M 9.8125 72.90625 
L 32.078125 72.90625 
Q 44.34375 72.90625 50.609375 67.359375 
Q 56.890625 61.8125 56.890625 51.125 
Q 56.890625 40.328125 50.609375 34.8125 
Q 44.34375 29.296875 32.078125 29.296875 
L 19.671875 29.296875 
L 19.671875 0 
L 9.8125 0 
z
" id="DejaVuSans-80"/>
     <path d="M 30.609375 48.390625 
Q 23.390625 48.390625 19.1875 42.75 
Q 14.984375 37.109375 14.984375 27.296875 
Q 14.984375 17.484375 19.15625 11.84375 
Q 23.34375 6.203125 30.609375 6.203125 
Q 37.796875 6.203125 41.984375 11.859375 
Q 46.1875 17.53125 46.1875 27.296875 
Q 46.1875 37.015625 41.984375 42.703125 
Q 37.796875 48.390625 30.609375 48.390625 
z
M 30.609375 56 
Q 42.328125 56 49.015625 48.375 
Q 55.71875 40.765625 55.71875 27.296875 
Q 55.71875 13.875 49.015625 6.21875 
Q 42.328125 -1.421875 30.609375 -1.421875 
Q 18.84375 -1.421875 12.171875 6.21875 
Q 5.515625 13.875 5.515625 27.296875 
Q 5.515625 40.765625 12.171875 48.375 
Q 18.84375 56 30.609375 56 
z
" id="DejaVuSans-111"/>
     <path d="M 41.109375 46.296875 
Q 39.59375 47.171875 37.8125 47.578125 
Q 36.03125 48 33.890625 48 
Q 26.265625 48 22.1875 43.046875 
Q 18.109375 38.09375 18.109375 28.8125 
L 18.109375 0 
L 9.078125 0 
L 9.078125 54.6875 
L 18.109375 54.6875 
L 18.109375 46.1875 
Q 20.953125 51.171875 25.484375 53.578125 
Q 30.03125 56 36.53125 56 
Q 37.453125 56 38.578125 55.875 
Q 39.703125 55.765625 41.0625 55.515625 
z
" id="DejaVuSans-114"/>
     <path d="M 18.3125 70.21875 
L 18.3125 54.6875 
L 36.8125 54.6875 
L 36.8125 47.703125 
L 18.3125 47.703125 
L 18.3125 18.015625 
Q 18.3125 11.328125 20.140625 9.421875 
Q 21.96875 7.515625 27.59375 7.515625 
L 36.8125 7.515625 
L 36.8125 0 
L 27.59375 0 
Q 17.1875 0 13.234375 3.875 
Q 9.28125 7.765625 9.28125 18.015625 
L 9.28125 47.703125 
L 2.6875 47.703125 
L 2.6875 54.6875 
L 9.28125 54.6875 
L 9.28125 70.21875 
z
" id="DejaVuSans-116"/>
     <path d="M 37.109375 75.984375 
L 37.109375 68.5 
L 28.515625 68.5 
Q 23.6875 68.5 21.796875 66.546875 
Q 19.921875 64.59375 19.921875 59.515625 
L 19.921875 54.6875 
L 34.71875 54.6875 
L 34.71875 47.703125 
L 19.921875 47.703125 
L 19.921875 0 
L 10.890625 0 
L 10.890625 47.703125 
L 2.296875 47.703125 
L 2.296875 54.6875 
L 10.890625 54.6875 
L 10.890625 58.5 
Q 10.890625 67.625 15.140625 71.796875 
Q 19.390625 75.984375 28.609375 75.984375 
z
" id="DejaVuSans-102"/>
     <path d="M 9.421875 75.984375 
L 18.40625 75.984375 
L 18.40625 0 
L 9.421875 0 
z
" id="DejaVuSans-108"/>
     <path d="M 9.421875 54.6875 
L 18.40625 54.6875 
L 18.40625 0 
L 9.421875 0 
z
M 9.421875 75.984375 
L 18.40625 75.984375 
L 18.40625 64.59375 
L 9.421875 64.59375 
z
" id="DejaVuSans-105"/>
     <path d="M 54.890625 33.015625 
L 54.890625 0 
L 45.90625 0 
L 45.90625 32.71875 
Q 45.90625 40.484375 42.875 44.328125 
Q 39.84375 48.1875 33.796875 48.1875 
Q 26.515625 48.1875 22.3125 43.546875 
Q 18.109375 38.921875 18.109375 30.90625 
L 18.109375 0 
L 9.078125 0 
L 9.078125 54.6875 
L 18.109375 54.6875 
L 18.109375 46.1875 
Q 21.34375 51.125 25.703125 53.5625 
Q 30.078125 56 35.796875 56 
Q 45.21875 56 50.046875 50.171875 
Q 54.890625 44.34375 54.890625 33.015625 
z
" id="DejaVuSans-110"/>
     <path d="M 44.28125 53.078125 
L 44.28125 44.578125 
Q 40.484375 46.53125 36.375 47.5 
Q 32.28125 48.484375 27.875 48.484375 
Q 21.1875 48.484375 17.84375 46.4375 
Q 14.5 44.390625 14.5 40.28125 
Q 14.5 37.15625 16.890625 35.375 
Q 19.28125 33.59375 26.515625 31.984375 
L 29.59375 31.296875 
Q 39.15625 29.25 43.1875 25.515625 
Q 47.21875 21.78125 47.21875 15.09375 
Q 47.21875 7.46875 41.1875 3.015625 
Q 35.15625 -1.421875 24.609375 -1.421875 
Q 20.21875 -1.421875 15.453125 -0.5625 
Q 10.6875 0.296875 5.421875 2 
L 5.421875 11.28125 
Q 10.40625 8.6875 15.234375 7.390625 
Q 20.0625 6.109375 24.8125 6.109375 
Q 31.15625 6.109375 34.5625 8.28125 
Q 37.984375 10.453125 37.984375 14.40625 
Q 37.984375 18.0625 35.515625 20.015625 
Q 33.0625 21.96875 24.703125 23.78125 
L 21.578125 24.515625 
Q 13.234375 26.265625 9.515625 29.90625 
Q 5.8125 33.546875 5.8125 39.890625 
Q 5.8125 47.609375 11.28125 51.796875 
Q 16.75 56 26.8125 56 
Q 31.78125 56 36.171875 55.265625 
Q 40.578125 54.546875 44.28125 53.078125 
z
" id="DejaVuSans-115"/>
     <path d="M 8.5 21.578125 
L 8.5 54.6875 
L 17.484375 54.6875 
L 17.484375 21.921875 
Q 17.484375 14.15625 20.5 10.265625 
Q 23.53125 6.390625 29.59375 6.390625 
Q 36.859375 6.390625 41.078125 11.03125 
Q 45.3125 15.671875 45.3125 23.6875 
L 45.3125 54.6875 
L 54.296875 54.6875 
L 54.296875 0 
L 45.3125 0 
L 45.3125 8.40625 
Q 42.046875 3.421875 37.71875 1 
Q 33.40625 -1.421875 27.6875 -1.421875 
Q 18.265625 -1.421875 13.375 4.4375 
Q 8.5 10.296875 8.5 21.578125 
z
M 31.109375 56 
z
" id="DejaVuSans-117"/>
     <path d="M 52 44.1875 
Q 55.375 50.25 60.0625 53.125 
Q 64.75 56 71.09375 56 
Q 79.640625 56 84.28125 50.015625 
Q 88.921875 44.046875 88.921875 33.015625 
L 88.921875 0 
L 79.890625 0 
L 79.890625 32.71875 
Q 79.890625 40.578125 77.09375 44.375 
Q 74.3125 48.1875 68.609375 48.1875 
Q 61.625 48.1875 57.5625 43.546875 
Q 53.515625 38.921875 53.515625 30.90625 
L 53.515625 0 
L 44.484375 0 
L 44.484375 32.71875 
Q 44.484375 40.625 41.703125 44.40625 
Q 38.921875 48.1875 33.109375 48.1875 
Q 26.21875 48.1875 22.15625 43.53125 
Q 18.109375 38.875 18.109375 30.90625 
L 18.109375 0 
L 9.078125 0 
L 9.078125 54.6875 
L 18.109375 54.6875 
L 18.109375 46.1875 
Q 21.1875 51.21875 25.484375 53.609375 
Q 29.78125 56 35.6875 56 
Q 41.65625 56 45.828125 52.96875 
Q 50 49.953125 52 44.1875 
z
" id="DejaVuSans-109"/>
     <path d="M 56.203125 29.59375 
L 56.203125 25.203125 
L 14.890625 25.203125 
Q 15.484375 15.921875 20.484375 11.0625 
Q 25.484375 6.203125 34.421875 6.203125 
Q 39.59375 6.203125 44.453125 7.46875 
Q 49.3125 8.734375 54.109375 11.28125 
L 54.109375 2.78125 
Q 49.265625 0.734375 44.1875 -0.34375 
Q 39.109375 -1.421875 33.890625 -1.421875 
Q 20.796875 -1.421875 13.15625 6.1875 
Q 5.515625 13.8125 5.515625 26.8125 
Q 5.515625 40.234375 12.765625 48.109375 
Q 20.015625 56 32.328125 56 
Q 43.359375 56 49.78125 48.890625 
Q 56.203125 41.796875 56.203125 29.59375 
z
M 47.21875 32.234375 
Q 47.125 39.59375 43.09375 43.984375 
Q 39.0625 48.390625 32.421875 48.390625 
Q 24.90625 48.390625 20.390625 44.140625 
Q 15.875 39.890625 15.1875 32.171875 
z
" id="DejaVuSans-101"/>
     <path d="M -0.296875 72.90625 
L 61.375 72.90625 
L 61.375 64.59375 
L 35.5 64.59375 
L 35.5 0 
L 25.59375 0 
L 25.59375 64.59375 
L -0.296875 64.59375 
z
" id="DejaVuSans-84"/>
     <path d="M 32.171875 -5.078125 
Q 28.375 -14.84375 24.75 -17.8125 
Q 21.140625 -20.796875 15.09375 -20.796875 
L 7.90625 -20.796875 
L 7.90625 -13.28125 
L 13.1875 -13.28125 
Q 16.890625 -13.28125 18.9375 -11.515625 
Q 21 -9.765625 23.484375 -3.21875 
L 25.09375 0.875 
L 2.984375 54.6875 
L 12.5 54.6875 
L 29.59375 11.921875 
L 46.6875 54.6875 
L 56.203125 54.6875 
z
" id="DejaVuSans-121"/>
     <path d="M 18.109375 8.203125 
L 18.109375 -20.796875 
L 9.078125 -20.796875 
L 9.078125 54.6875 
L 18.109375 54.6875 
L 18.109375 46.390625 
Q 20.953125 51.265625 25.265625 53.625 
Q 29.59375 56 35.59375 56 
Q 45.5625 56 51.78125 48.09375 
Q 58.015625 40.1875 58.015625 27.296875 
Q 58.015625 14.40625 51.78125 6.484375 
Q 45.5625 -1.421875 35.59375 -1.421875 
Q 29.59375 -1.421875 25.265625 0.953125 
Q 20.953125 3.328125 18.109375 8.203125 
z
M 48.6875 27.296875 
Q 48.6875 37.203125 44.609375 42.84375 
Q 40.53125 48.484375 33.40625 48.484375 
Q 26.265625 48.484375 22.1875 42.84375 
Q 18.109375 37.203125 18.109375 27.296875 
Q 18.109375 17.390625 22.1875 11.75 
Q 26.265625 6.109375 33.40625 6.109375 
Q 40.53125 6.109375 44.609375 11.75 
Q 48.6875 17.390625 48.6875 27.296875 
z
" id="DejaVuSans-112"/>
    </defs>
    <g transform="translate(76.326475 38.50888)scale(0.12 -0.12)">
     <use xlink:href="#DejaVuSans-80"/>
     <use x="60.255859" xlink:href="#DejaVuSans-111"/>
     <use x="121.4375" xlink:href="#DejaVuSans-114"/>
     <use x="162.550781" xlink:href="#DejaVuSans-116"/>
     <use x="201.759766" xlink:href="#DejaVuSans-102"/>
     <use x="236.964844" xlink:href="#DejaVuSans-111"/>
     <use x="298.146484" xlink:href="#DejaVuSans-108"/>
     <use x="325.929688" xlink:href="#DejaVuSans-105"/>
     <use x="353.712891" xlink:href="#DejaVuSans-111"/>
     <use x="414.894531" xlink:href="#DejaVuSans-67"/>
     <use x="484.71875" xlink:href="#DejaVuSans-111"/>
     <use x="545.900391" xlink:href="#DejaVuSans-110"/>
     <use x="609.279297" xlink:href="#DejaVuSans-115"/>
     <use x="661.378906" xlink:href="#DejaVuSans-117"/>
     <use x="724.757812" xlink:href="#DejaVuSans-109"/>
     <use x="822.169922" xlink:href="#DejaVuSans-101"/>
     <use x="883.693359" xlink:href="#DejaVuSans-114"/>
     <use x="924.806641" xlink:href="#DejaVuSans-84"/>
     <use x="985.65625" xlink:href="#DejaVuSans-121"/>
     <use x="1044.835938" xlink:href="#DejaVuSans-112"/>
     <use x="1108.3125" xlink:href="#DejaVuSans-101"/>
    </g>
   </g>
  </g>
  <g id="axes_2">
   <g id="patch_7">
    <path d="M 290.425687 286.36 
L 445.899886 286.36 
L 445.899886 56.0256 
L 290.425687 56.0256 
z
" style="fill:#ffffff;"/>
   </g>
   <g id="matplotlib.axis_3">
    <g id="xtick_6">
     <g id="line2d_24">
      <path clip-path="url(#p1e5170d553)" d="M 297.492696 286.36 
L 297.492696 56.0256 
" style="fill:none;stroke:#b0b0b0;stroke-linecap:square;stroke-width:0.8;"/>
     </g>
     <g id="line2d_25">
      <g>
       <use style="stroke:#000000;stroke-width:0.8;" x="297.492696" xlink:href="#m3d580a1d37" y="286.36"/>
      </g>
     </g>
     <g id="text_14">
      <!-- 0.0 -->
      <g transform="translate(289.541134 300.958437)scale(0.1 -0.1)">
       <use xlink:href="#DejaVuSans-48"/>
       <use x="63.623047" xlink:href="#DejaVuSans-46"/>
       <use x="95.410156" xlink:href="#DejaVuSans-48"/>
      </g>
     </g>
    </g>
    <g id="xtick_7">
     <g id="line2d_26">
      <path clip-path="url(#p1e5170d553)" d="M 332.827741 286.36 
L 332.827741 56.0256 
" style="fill:none;stroke:#b0b0b0;stroke-linecap:square;stroke-width:0.8;"/>
     </g>
     <g id="line2d_27">
      <g>
       <use style="stroke:#000000;stroke-width:0.8;" x="332.827741" xlink:href="#m3d580a1d37" y="286.36"/>
      </g>
     </g>
     <g id="text_15">
      <!-- 2.5 -->
      <g transform="translate(324.876179 300.958437)scale(0.1 -0.1)">
       <use xlink:href="#DejaVuSans-50"/>
       <use x="63.623047" xlink:href="#DejaVuSans-46"/>
       <use x="95.410156" xlink:href="#DejaVuSans-53"/>
      </g>
     </g>
    </g>
    <g id="xtick_8">
     <g id="line2d_28">
      <path clip-path="url(#p1e5170d553)" d="M 368.162787 286.36 
L 368.162787 56.0256 
" style="fill:none;stroke:#b0b0b0;stroke-linecap:square;stroke-width:0.8;"/>
     </g>
     <g id="line2d_29">
      <g>
       <use style="stroke:#000000;stroke-width:0.8;" x="368.162787" xlink:href="#m3d580a1d37" y="286.36"/>
      </g>
     </g>
     <g id="text_16">
      <!-- 5.0 -->
      <g transform="translate(360.211224 300.958437)scale(0.1 -0.1)">
       <use xlink:href="#DejaVuSans-53"/>
       <use x="63.623047" xlink:href="#DejaVuSans-46"/>
       <use x="95.410156" xlink:href="#DejaVuSans-48"/>
      </g>
     </g>
    </g>
    <g id="xtick_9">
     <g id="line2d_30">
      <path clip-path="url(#p1e5170d553)" d="M 403.497832 286.36 
L 403.497832 56.0256 
" style="fill:none;stroke:#b0b0b0;stroke-linecap:square;stroke-width:0.8;"/>
     </g>
     <g id="line2d_31">
      <g>
       <use style="stroke:#000000;stroke-width:0.8;" x="403.497832" xlink:href="#m3d580a1d37" y="286.36"/>
      </g>
     </g>
     <g id="text_17">
      <!-- 7.5 -->
      <g transform="translate(395.546269 300.958437)scale(0.1 -0.1)">
       <use xlink:href="#DejaVuSans-55"/>
       <use x="63.623047" xlink:href="#DejaVuSans-46"/>
       <use x="95.410156" xlink:href="#DejaVuSans-53"/>
      </g>
     </g>
    </g>
    <g id="xtick_10">
     <g id="line2d_32">
      <path clip-path="url(#p1e5170d553)" d="M 438.832877 286.36 
L 438.832877 56.0256 
" style="fill:none;stroke:#b0b0b0;stroke-linecap:square;stroke-width:0.8;"/>
     </g>
     <g id="line2d_33">
      <g>
       <use style="stroke:#000000;stroke-width:0.8;" x="438.832877" xlink:href="#m3d580a1d37" y="286.36"/>
      </g>
     </g>
     <g id="text_18">
      <!-- 10.0 -->
      <g transform="translate(427.700065 300.958437)scale(0.1 -0.1)">
       <use xlink:href="#DejaVuSans-49"/>
       <use x="63.623047" xlink:href="#DejaVuSans-48"/>
       <use x="127.246094" xlink:href="#DejaVuSans-46"/>
       <use x="159.033203" xlink:href="#DejaVuSans-48"/>
      </g>
     </g>
    </g>
    <g id="text_19">
     <!-- M -->
     <g transform="translate(363.848724 314.636562)scale(0.1 -0.1)">
      <use xlink:href="#DejaVuSans-77"/>
     </g>
    </g>
   </g>
   <g id="matplotlib.axis_4">
    <g id="ytick_6">
     <g id="line2d_34">
      <path clip-path="url(#p1e5170d553)" d="M 290.425687 271.377995 
L 445.899886 271.377995 
" style="fill:none;stroke:#b0b0b0;stroke-linecap:square;stroke-width:0.8;"/>
     </g>
     <g id="line2d_35">
      <g>
       <use style="stroke:#000000;stroke-width:0.8;" x="290.425687" xlink:href="#m613067f372" y="271.377995"/>
      </g>
     </g>
     <g id="text_20">
      <!-- −0.25 -->
      <g transform="translate(252.780374 275.177213)scale(0.1 -0.1)">
       <use xlink:href="#DejaVuSans-8722"/>
       <use x="83.789062" xlink:href="#DejaVuSans-48"/>
       <use x="147.412109" xlink:href="#DejaVuSans-46"/>
       <use x="179.199219" xlink:href="#DejaVuSans-50"/>
       <use x="242.822266" xlink:href="#DejaVuSans-53"/>
      </g>
     </g>
    </g>
    <g id="ytick_7">
     <g id="line2d_36">
      <path clip-path="url(#p1e5170d553)" d="M 290.425687 230.401465 
L 445.899886 230.401465 
" style="fill:none;stroke:#b0b0b0;stroke-linecap:square;stroke-width:0.8;"/>
     </g>
     <g id="line2d_37">
      <g>
       <use style="stroke:#000000;stroke-width:0.8;" x="290.425687" xlink:href="#m613067f372" y="230.401465"/>
      </g>
     </g>
     <g id="text_21">
      <!-- −0.20 -->
      <g transform="translate(252.780374 234.200684)scale(0.1 -0.1)">
       <use xlink:href="#DejaVuSans-8722"/>
       <use x="83.789062" xlink:href="#DejaVuSans-48"/>
       <use x="147.412109" xlink:href="#DejaVuSans-46"/>
       <use x="179.199219" xlink:href="#DejaVuSans-50"/>
       <use x="242.822266" xlink:href="#DejaVuSans-48"/>
      </g>
     </g>
    </g>
    <g id="ytick_8">
     <g id="line2d_38">
      <path clip-path="url(#p1e5170d553)" d="M 290.425687 189.424935 
L 445.899886 189.424935 
" style="fill:none;stroke:#b0b0b0;stroke-linecap:square;stroke-width:0.8;"/>
     </g>
     <g id="line2d_39">
      <g>
       <use style="stroke:#000000;stroke-width:0.8;" x="290.425687" xlink:href="#m613067f372" y="189.424935"/>
      </g>
     </g>
     <g id="text_22">
      <!-- −0.15 -->
      <g transform="translate(252.780374 193.224154)scale(0.1 -0.1)">
       <use xlink:href="#DejaVuSans-8722"/>
       <use x="83.789062" xlink:href="#DejaVuSans-48"/>
       <use x="147.412109" xlink:href="#DejaVuSans-46"/>
       <use x="179.199219" xlink:href="#DejaVuSans-49"/>
       <use x="242.822266" xlink:href="#DejaVuSans-53"/>
      </g>
     </g>
    </g>
    <g id="ytick_9">
     <g id="line2d_40">
      <path clip-path="url(#p1e5170d553)" d="M 290.425687 148.448405 
L 445.899886 148.448405 
" style="fill:none;stroke:#b0b0b0;stroke-linecap:square;stroke-width:0.8;"/>
     </g>
     <g id="line2d_41">
      <g>
       <use style="stroke:#000000;stroke-width:0.8;" x="290.425687" xlink:href="#m613067f372" y="148.448405"/>
      </g>
     </g>
     <g id="text_23">
      <!-- −0.10 -->
      <g transform="translate(252.780374 152.247624)scale(0.1 -0.1)">
       <use xlink:href="#DejaVuSans-8722"/>
       <use x="83.789062" xlink:href="#DejaVuSans-48"/>
       <use x="147.412109" xlink:href="#DejaVuSans-46"/>
       <use x="179.199219" xlink:href="#DejaVuSans-49"/>
       <use x="242.822266" xlink:href="#DejaVuSans-48"/>
      </g>
     </g>
    </g>
    <g id="ytick_10">
     <g id="line2d_42">
      <path clip-path="url(#p1e5170d553)" d="M 290.425687 107.471875 
L 445.899886 107.471875 
" style="fill:none;stroke:#b0b0b0;stroke-linecap:square;stroke-width:0.8;"/>
     </g>
     <g id="line2d_43">
      <g>
       <use style="stroke:#000000;stroke-width:0.8;" x="290.425687" xlink:href="#m613067f372" y="107.471875"/>
      </g>
     </g>
     <g id="text_24">
      <!-- −0.05 -->
      <g transform="translate(252.780374 111.271094)scale(0.1 -0.1)">
       <use xlink:href="#DejaVuSans-8722"/>
       <use x="83.789062" xlink:href="#DejaVuSans-48"/>
       <use x="147.412109" xlink:href="#DejaVuSans-46"/>
       <use x="179.199219" xlink:href="#DejaVuSans-48"/>
       <use x="242.822266" xlink:href="#DejaVuSans-53"/>
      </g>
     </g>
    </g>
    <g id="ytick_11">
     <g id="line2d_44">
      <path clip-path="url(#p1e5170d553)" d="M 290.425687 66.495345 
L 445.899886 66.495345 
" style="fill:none;stroke:#b0b0b0;stroke-linecap:square;stroke-width:0.8;"/>
     </g>
     <g id="line2d_45">
      <g>
       <use style="stroke:#000000;stroke-width:0.8;" x="290.425687" xlink:href="#m613067f372" y="66.495345"/>
      </g>
     </g>
     <g id="text_25">
      <!-- 0.00 -->
      <g transform="translate(261.160062 70.294564)scale(0.1 -0.1)">
       <use xlink:href="#DejaVuSans-48"/>
       <use x="63.623047" xlink:href="#DejaVuSans-46"/>
       <use x="95.410156" xlink:href="#DejaVuSans-48"/>
       <use x="159.033203" xlink:href="#DejaVuSans-48"/>
      </g>
     </g>
    </g>
    <g id="text_26">
     <!-- C -->
     <g transform="translate(246.700687 174.684206)rotate(-90)scale(0.1 -0.1)">
      <use xlink:href="#DejaVuSans-67"/>
     </g>
    </g>
   </g>
   <g id="line2d_46">
    <path clip-path="url(#p1e5170d553)" d="M 297.492696 66.495345 
L 298.920375 66.495345 
L 300.348053 66.495345 
L 301.775732 66.495345 
L 303.20341 66.495345 
L 304.631089 66.495345 
L 306.058768 66.495345 
L 307.486446 66.495345 
L 308.914125 66.495345 
L 310.341803 66.495345 
L 311.769482 70.252995 
L 313.197161 85.269261 
L 314.624839 80.686341 
L 316.052518 77.572829 
L 317.480196 75.241398 
L 318.907875 73.409609 
L 320.335554 72.41005 
L 321.763232 72.41005 
L 323.190911 72.41005 
L 324.618589 72.41005 
L 326.046268 72.41005 
L 327.473947 72.41005 
L 328.901625 72.41005 
L 330.329304 72.41005 
L 331.756982 72.41005 
L 333.184661 72.41005 
L 334.61234 72.41005 
L 336.040018 72.41005 
L 337.467697 72.41005 
L 338.895375 72.41005 
L 340.323054 72.41005 
L 341.750733 72.41005 
L 343.178411 72.41005 
L 344.60609 72.41005 
L 346.033768 72.41005 
L 347.461447 72.41005 
L 348.889126 72.41005 
L 350.316804 72.41005 
L 351.744483 72.41005 
L 353.172161 72.41005 
L 354.59984 72.41005 
L 356.027519 72.41005 
L 357.455197 72.41005 
L 358.882876 72.41005 
L 360.310554 72.41005 
L 361.738233 72.41005 
L 363.165912 72.41005 
L 364.59359 72.41005 
L 366.021269 72.41005 
L 367.448947 72.41005 
L 368.876626 72.41005 
L 370.304305 72.41005 
L 371.731983 72.41005 
L 373.159662 72.41005 
L 374.58734 72.41005 
L 376.015019 72.41005 
L 377.442698 72.41005 
L 378.870376 72.41005 
L 380.298055 72.41005 
L 381.725733 72.41005 
L 383.153412 72.41005 
L 384.581091 72.41005 
L 386.008769 72.41005 
L 387.436448 72.41005 
L 388.864126 72.41005 
L 390.291805 72.41005 
L 391.719484 72.41005 
L 393.147162 72.41005 
L 394.574841 72.41005 
L 396.002519 72.41005 
L 397.430198 72.41005 
L 398.857877 72.41005 
L 400.285555 72.41005 
L 401.713234 72.41005 
L 403.140912 72.41005 
L 404.568591 72.41005 
L 405.99627 72.41005 
L 407.423948 72.41005 
L 408.851627 72.41005 
L 410.279305 72.41005 
L 411.706984 72.41005 
L 413.134663 72.41005 
L 414.562341 72.41005 
L 415.99002 72.41005 
L 417.417698 72.41005 
L 418.845377 72.41005 
L 420.273056 72.41005 
L 421.700734 72.41005 
L 423.128413 72.41005 
L 424.556091 72.41005 
L 425.98377 72.41005 
L 427.411449 72.41005 
L 428.839127 72.41005 
L 430.266806 72.41005 
L 431.694484 72.41005 
L 433.122163 72.41005 
L 434.549842 72.41005 
L 435.97752 72.41005 
L 437.405199 72.41005 
L 438.832877 72.41005 
" style="fill:none;stroke:#1f77b4;stroke-linecap:square;stroke-width:1.5;"/>
   </g>
   <g id="line2d_47">
    <path clip-path="url(#p1e5170d553)" d="M 297.492696 66.495345 
L 298.920375 66.495345 
L 300.348053 66.495345 
L 301.775732 66.495345 
L 303.20341 66.495345 
L 304.631089 74.445541 
L 306.058768 115.382674 
L 307.486446 156.319806 
L 308.914125 197.256939 
L 310.341803 238.194071 
L 311.769482 275.890255 
L 313.197161 275.890255 
L 314.624839 275.890255 
L 316.052518 275.890255 
L 317.480196 275.890255 
L 318.907875 275.890255 
L 320.335554 275.890255 
L 321.763232 275.890255 
L 323.190911 275.890255 
L 324.618589 275.890255 
L 326.046268 275.890255 
L 327.473947 275.890255 
L 328.901625 275.890255 
L 330.329304 275.890255 
L 331.756982 275.890255 
L 333.184661 275.890255 
L 334.61234 275.890255 
L 336.040018 275.890255 
L 337.467697 275.890255 
L 338.895375 275.890255 
L 340.323054 275.890255 
L 341.750733 275.890255 
L 343.178411 275.890255 
L 344.60609 275.890255 
L 346.033768 275.890255 
L 347.461447 275.890255 
L 348.889126 275.890255 
L 350.316804 275.890255 
L 351.744483 275.890255 
L 353.172161 275.890255 
L 354.59984 275.890255 
L 356.027519 275.890255 
L 357.455197 275.890255 
L 358.882876 275.890255 
L 360.310554 275.890255 
L 361.738233 275.890255 
L 363.165912 275.890255 
L 364.59359 275.890255 
L 366.021269 275.890255 
L 367.448947 275.890255 
L 368.876626 275.890255 
L 370.304305 275.890255 
L 371.731983 275.890255 
L 373.159662 275.890255 
L 374.58734 275.890255 
L 376.015019 275.890255 
L 377.442698 275.890255 
L 378.870376 275.890255 
L 380.298055 275.890255 
L 381.725733 275.890255 
L 383.153412 275.890255 
L 384.581091 275.890255 
L 386.008769 275.890255 
L 387.436448 275.890255 
L 388.864126 275.890255 
L 390.291805 275.890255 
L 391.719484 275.890255 
L 393.147162 275.890255 
L 394.574841 275.890255 
L 396.002519 275.890255 
L 397.430198 275.890255 
L 398.857877 275.890255 
L 400.285555 275.890255 
L 401.713234 275.890255 
L 403.140912 275.890255 
L 404.568591 275.890255 
L 405.99627 275.890255 
L 407.423948 275.890255 
L 408.851627 275.890255 
L 410.279305 275.890255 
L 411.706984 275.890255 
L 413.134663 275.890255 
L 414.562341 275.890255 
L 415.99002 275.890255 
L 417.417698 275.890255 
L 418.845377 275.890255 
L 420.273056 275.890255 
L 421.700734 275.890255 
L 423.128413 275.890255 
L 424.556091 275.890255 
L 425.98377 275.890255 
L 427.411449 275.890255 
L 428.839127 275.890255 
L 430.266806 275.890255 
L 431.694484 275.890255 
L 433.122163 275.890255 
L 434.549842 275.890255 
L 435.97752 275.890255 
L 437.405199 275.890255 
L 438.832877 275.890255 
" style="fill:none;stroke:#ff7f0e;stroke-linecap:square;stroke-width:1.5;"/>
   </g>
   <g id="line2d_48">
    <path clip-path="url(#p1e5170d553)" d="M 297.492696 66.495345 
L 298.920375 66.495345 
L 300.348053 66.495345 
L 301.775732 66.495345 
L 303.20341 66.495345 
L 304.631089 66.495345 
L 306.058768 66.495345 
L 307.486446 66.495345 
L 308.914125 66.495345 
L 310.341803 66.495345 
L 311.769482 66.495345 
L 313.197161 66.495345 
L 314.624839 66.495345 
L 316.052518 66.495345 
L 317.480196 66.495345 
L 318.907875 66.495345 
L 320.335554 66.495345 
L 321.763232 66.495345 
L 323.190911 66.495345 
L 324.618589 66.495345 
L 326.046268 66.495345 
L 327.473947 66.495345 
L 328.901625 66.495345 
L 330.329304 66.495345 
L 331.756982 66.495345 
L 333.184661 66.495345 
L 334.61234 66.495345 
L 336.040018 66.495345 
L 337.467697 66.495345 
L 338.895375 66.495345 
L 340.323054 66.495345 
L 341.750733 66.495345 
L 343.178411 66.495345 
L 344.60609 66.495345 
L 346.033768 66.495345 
L 347.461447 66.495345 
L 348.889126 66.495345 
L 350.316804 66.495345 
L 351.744483 66.495345 
L 353.172161 66.495345 
L 354.59984 66.495345 
L 356.027519 66.495345 
L 357.455197 66.495345 
L 358.882876 66.495345 
L 360.310554 66.495345 
L 361.738233 66.495345 
L 363.165912 66.495345 
L 364.59359 66.495345 
L 366.021269 66.495345 
L 367.448947 66.495345 
L 368.876626 66.495345 
L 370.304305 66.495345 
L 371.731983 66.495345 
L 373.159662 66.495345 
L 374.58734 66.495345 
L 376.015019 66.495345 
L 377.442698 66.495345 
L 378.870376 66.495345 
L 380.298055 66.495345 
L 381.725733 66.495345 
L 383.153412 66.495345 
L 384.581091 66.495345 
L 386.008769 66.495345 
L 387.436448 66.495345 
L 388.864126 66.495345 
L 390.291805 66.495345 
L 391.719484 66.495345 
L 393.147162 66.495345 
L 394.574841 66.495345 
L 396.002519 66.495345 
L 397.430198 66.495345 
L 398.857877 66.495345 
L 400.285555 66.495345 
L 401.713234 66.495345 
L 403.140912 66.495345 
L 404.568591 66.495345 
L 405.99627 66.495345 
L 407.423948 66.495345 
L 408.851627 66.495345 
L 410.279305 66.495345 
L 411.706984 66.495345 
L 413.134663 66.495345 
L 414.562341 66.495345 
L 415.99002 66.495345 
L 417.417698 66.495345 
L 418.845377 66.495345 
L 420.273056 66.495345 
L 421.700734 66.495345 
L 423.128413 66.495345 
L 424.556091 66.495345 
L 425.98377 66.495345 
L 427.411449 66.495345 
L 428.839127 66.495345 
L 430.266806 66.495345 
L 431.694484 66.495345 
L 433.122163 66.495345 
L 434.549842 66.495345 
L 435.97752 66.495345 
L 437.405199 66.495345 
L 438.832877 66.495345 
" style="fill:none;stroke:#2ca02c;stroke-linecap:square;stroke-width:1.5;"/>
   </g>
   <g id="patch_8">
    <path d="M 290.425687 286.36 
L 290.425687 56.0256 
" style="fill:none;stroke:#000000;stroke-linecap:square;stroke-linejoin:miter;stroke-width:0.8;"/>
   </g>
   <g id="patch_9">
    <path d="M 445.899886 286.36 
L 445.899886 56.0256 
" style="fill:none;stroke:#000000;stroke-linecap:square;stroke-linejoin:miter;stroke-width:0.8;"/>
   </g>
   <g id="patch_10">
    <path d="M 290.425687 286.36 
L 445.899886 286.36 
" style="fill:none;stroke:#000000;stroke-linecap:square;stroke-linejoin:miter;stroke-width:0.8;"/>
   </g>
   <g id="patch_11">
    <path d="M 290.425687 56.0256 
L 445.899886 56.0256 
" style="fill:none;stroke:#000000;stroke-linecap:square;stroke-linejoin:miter;stroke-width:0.8;"/>
   </g>
   <g id="text_27">
    <!-- PerfForesightConsumerType -->
    <defs>
     <path d="M 9.8125 72.90625 
L 51.703125 72.90625 
L 51.703125 64.59375 
L 19.671875 64.59375 
L 19.671875 43.109375 
L 48.578125 43.109375 
L 48.578125 34.8125 
L 19.671875 34.8125 
L 19.671875 0 
L 9.8125 0 
z
" id="DejaVuSans-70"/>
     <path d="M 45.40625 27.984375 
Q 45.40625 37.75 41.375 43.109375 
Q 37.359375 48.484375 30.078125 48.484375 
Q 22.859375 48.484375 18.828125 43.109375 
Q 14.796875 37.75 14.796875 27.984375 
Q 14.796875 18.265625 18.828125 12.890625 
Q 22.859375 7.515625 30.078125 7.515625 
Q 37.359375 7.515625 41.375 12.890625 
Q 45.40625 18.265625 45.40625 27.984375 
z
M 54.390625 6.78125 
Q 54.390625 -7.171875 48.1875 -13.984375 
Q 42 -20.796875 29.203125 -20.796875 
Q 24.46875 -20.796875 20.265625 -20.09375 
Q 16.0625 -19.390625 12.109375 -17.921875 
L 12.109375 -9.1875 
Q 16.0625 -11.328125 19.921875 -12.34375 
Q 23.78125 -13.375 27.78125 -13.375 
Q 36.625 -13.375 41.015625 -8.765625 
Q 45.40625 -4.15625 45.40625 5.171875 
L 45.40625 9.625 
Q 42.625 4.78125 38.28125 2.390625 
Q 33.9375 0 27.875 0 
Q 17.828125 0 11.671875 7.65625 
Q 5.515625 15.328125 5.515625 27.984375 
Q 5.515625 40.671875 11.671875 48.328125 
Q 17.828125 56 27.875 56 
Q 33.9375 56 38.28125 53.609375 
Q 42.625 51.21875 45.40625 46.390625 
L 45.40625 54.6875 
L 54.390625 54.6875 
z
" id="DejaVuSans-103"/>
     <path d="M 54.890625 33.015625 
L 54.890625 0 
L 45.90625 0 
L 45.90625 32.71875 
Q 45.90625 40.484375 42.875 44.328125 
Q 39.84375 48.1875 33.796875 48.1875 
Q 26.515625 48.1875 22.3125 43.546875 
Q 18.109375 38.921875 18.109375 30.90625 
L 18.109375 0 
L 9.078125 0 
L 9.078125 75.984375 
L 18.109375 75.984375 
L 18.109375 46.1875 
Q 21.34375 51.125 25.703125 53.5625 
Q 30.078125 56 35.796875 56 
Q 45.21875 56 50.046875 50.171875 
Q 54.890625 44.34375 54.890625 33.015625 
z
" id="DejaVuSans-104"/>
    </defs>
    <g transform="translate(282.947787 38.50888)scale(0.12 -0.12)">
     <use xlink:href="#DejaVuSans-80"/>
     <use x="60.255859" xlink:href="#DejaVuSans-101"/>
     <use x="121.779297" xlink:href="#DejaVuSans-114"/>
     <use x="162.892578" xlink:href="#DejaVuSans-102"/>
     <use x="198.097656" xlink:href="#DejaVuSans-70"/>
     <use x="255.570312" xlink:href="#DejaVuSans-111"/>
     <use x="316.751953" xlink:href="#DejaVuSans-114"/>
     <use x="357.833984" xlink:href="#DejaVuSans-101"/>
     <use x="419.357422" xlink:href="#DejaVuSans-115"/>
     <use x="471.457031" xlink:href="#DejaVuSans-105"/>
     <use x="499.240234" xlink:href="#DejaVuSans-103"/>
     <use x="562.716797" xlink:href="#DejaVuSans-104"/>
     <use x="626.095703" xlink:href="#DejaVuSans-116"/>
     <use x="665.304688" xlink:href="#DejaVuSans-67"/>
     <use x="735.128906" xlink:href="#DejaVuSans-111"/>
     <use x="796.310547" xlink:href="#DejaVuSans-110"/>
     <use x="859.689453" xlink:href="#DejaVuSans-115"/>
     <use x="911.789062" xlink:href="#DejaVuSans-117"/>
     <use x="975.167969" xlink:href="#DejaVuSans-109"/>
     <use x="1072.580078" xlink:href="#DejaVuSans-101"/>
     <use x="1134.103516" xlink:href="#DejaVuSans-114"/>
     <use x="1175.216797" xlink:href="#DejaVuSans-84"/>
     <use x="1236.066406" xlink:href="#DejaVuSans-121"/>
     <use x="1295.246094" xlink:href="#DejaVuSans-112"/>
     <use x="1358.722656" xlink:href="#DejaVuSans-101"/>
    </g>
   </g>
   <g id="legend_1">
    <g id="patch_12">
     <path d="M 353.734261 194.709987 
L 438.899886 194.709987 
Q 440.899886 194.709987 440.899886 192.709987 
L 440.899886 149.675612 
Q 440.899886 147.675612 438.899886 147.675612 
L 353.734261 147.675612 
Q 351.734261 147.675612 351.734261 149.675612 
L 351.734261 192.709987 
Q 351.734261 194.709987 353.734261 194.709987 
z
" style="fill:#ffffff;opacity:0.8;stroke:#cccccc;stroke-linejoin:miter;"/>
    </g>
    <g id="line2d_49">
     <path d="M 355.734261 155.77405 
L 375.734261 155.77405 
" style="fill:none;stroke:#1f77b4;stroke-linecap:square;stroke-width:1.5;"/>
    </g>
    <g id="line2d_50"/>
    <g id="text_28">
     <!-- Age = 55 -->
     <defs>
      <path d="M 34.1875 63.1875 
L 20.796875 26.90625 
L 47.609375 26.90625 
z
M 28.609375 72.90625 
L 39.796875 72.90625 
L 67.578125 0 
L 57.328125 0 
L 50.6875 18.703125 
L 17.828125 18.703125 
L 11.1875 0 
L 0.78125 0 
z
" id="DejaVuSans-65"/>
      <path id="DejaVuSans-32"/>
      <path d="M 10.59375 45.40625 
L 73.1875 45.40625 
L 73.1875 37.203125 
L 10.59375 37.203125 
z
M 10.59375 25.484375 
L 73.1875 25.484375 
L 73.1875 17.1875 
L 10.59375 17.1875 
z
" id="DejaVuSans-61"/>
     </defs>
     <g transform="translate(383.734261 159.27405)scale(0.1 -0.1)">
      <use xlink:href="#DejaVuSans-65"/>
      <use x="68.408203" xlink:href="#DejaVuSans-103"/>
      <use x="131.884766" xlink:href="#DejaVuSans-101"/>
      <use x="193.408203" xlink:href="#DejaVuSans-32"/>
      <use x="225.195312" xlink:href="#DejaVuSans-61"/>
      <use x="308.984375" xlink:href="#DejaVuSans-32"/>
      <use x="340.771484" xlink:href="#DejaVuSans-53"/>
      <use x="404.394531" xlink:href="#DejaVuSans-53"/>
     </g>
    </g>
    <g id="line2d_51">
     <path d="M 355.734261 170.452175 
L 375.734261 170.452175 
" style="fill:none;stroke:#ff7f0e;stroke-linecap:square;stroke-width:1.5;"/>
    </g>
    <g id="line2d_52"/>
    <g id="text_29">
     <!-- Age = 99 -->
     <defs>
      <path d="M 10.984375 1.515625 
L 10.984375 10.5 
Q 14.703125 8.734375 18.5 7.8125 
Q 22.3125 6.890625 25.984375 6.890625 
Q 35.75 6.890625 40.890625 13.453125 
Q 46.046875 20.015625 46.78125 33.40625 
Q 43.953125 29.203125 39.59375 26.953125 
Q 35.25 24.703125 29.984375 24.703125 
Q 19.046875 24.703125 12.671875 31.3125 
Q 6.296875 37.9375 6.296875 49.421875 
Q 6.296875 60.640625 12.9375 67.421875 
Q 19.578125 74.21875 30.609375 74.21875 
Q 43.265625 74.21875 49.921875 64.515625 
Q 56.59375 54.828125 56.59375 36.375 
Q 56.59375 19.140625 48.40625 8.859375 
Q 40.234375 -1.421875 26.421875 -1.421875 
Q 22.703125 -1.421875 18.890625 -0.6875 
Q 15.09375 0.046875 10.984375 1.515625 
z
M 30.609375 32.421875 
Q 37.25 32.421875 41.125 36.953125 
Q 45.015625 41.5 45.015625 49.421875 
Q 45.015625 57.28125 41.125 61.84375 
Q 37.25 66.40625 30.609375 66.40625 
Q 23.96875 66.40625 20.09375 61.84375 
Q 16.21875 57.28125 16.21875 49.421875 
Q 16.21875 41.5 20.09375 36.953125 
Q 23.96875 32.421875 30.609375 32.421875 
z
" id="DejaVuSans-57"/>
     </defs>
     <g transform="translate(383.734261 173.952175)scale(0.1 -0.1)">
      <use xlink:href="#DejaVuSans-65"/>
      <use x="68.408203" xlink:href="#DejaVuSans-103"/>
      <use x="131.884766" xlink:href="#DejaVuSans-101"/>
      <use x="193.408203" xlink:href="#DejaVuSans-32"/>
      <use x="225.195312" xlink:href="#DejaVuSans-61"/>
      <use x="308.984375" xlink:href="#DejaVuSans-32"/>
      <use x="340.771484" xlink:href="#DejaVuSans-57"/>
      <use x="404.394531" xlink:href="#DejaVuSans-57"/>
     </g>
    </g>
    <g id="line2d_53">
     <path d="M 355.734261 185.1303 
L 375.734261 185.1303 
" style="fill:none;stroke:#2ca02c;stroke-linecap:square;stroke-width:1.5;"/>
    </g>
    <g id="line2d_54"/>
    <g id="text_30">
     <!-- Age = 100 -->
     <g transform="translate(383.734261 188.6303)scale(0.1 -0.1)">
      <use xlink:href="#DejaVuSans-65"/>
      <use x="68.408203" xlink:href="#DejaVuSans-103"/>
      <use x="131.884766" xlink:href="#DejaVuSans-101"/>
      <use x="193.408203" xlink:href="#DejaVuSans-32"/>
      <use x="225.195312" xlink:href="#DejaVuSans-61"/>
      <use x="308.984375" xlink:href="#DejaVuSans-32"/>
      <use x="340.771484" xlink:href="#DejaVuSans-49"/>
      <use x="404.394531" xlink:href="#DejaVuSans-48"/>
      <use x="468.017578" xlink:href="#DejaVuSans-48"/>
     </g>
    </g>
   </g>
  </g>
  <g id="text_31">
   <!-- Consumption Comparisons with True Solution -->
   <defs>
    <path d="M 34.28125 27.484375 
Q 23.390625 27.484375 19.1875 25 
Q 14.984375 22.515625 14.984375 16.5 
Q 14.984375 11.71875 18.140625 8.90625 
Q 21.296875 6.109375 26.703125 6.109375 
Q 34.1875 6.109375 38.703125 11.40625 
Q 43.21875 16.703125 43.21875 25.484375 
L 43.21875 27.484375 
z
M 52.203125 31.203125 
L 52.203125 0 
L 43.21875 0 
L 43.21875 8.296875 
Q 40.140625 3.328125 35.546875 0.953125 
Q 30.953125 -1.421875 24.3125 -1.421875 
Q 15.921875 -1.421875 10.953125 3.296875 
Q 6 8.015625 6 15.921875 
Q 6 25.140625 12.171875 29.828125 
Q 18.359375 34.515625 30.609375 34.515625 
L 43.21875 34.515625 
L 43.21875 35.40625 
Q 43.21875 41.609375 39.140625 45 
Q 35.0625 48.390625 27.6875 48.390625 
Q 23 48.390625 18.546875 47.265625 
Q 14.109375 46.140625 10.015625 43.890625 
L 10.015625 52.203125 
Q 14.9375 54.109375 19.578125 55.046875 
Q 24.21875 56 28.609375 56 
Q 40.484375 56 46.34375 49.84375 
Q 52.203125 43.703125 52.203125 31.203125 
z
" id="DejaVuSans-97"/>
    <path d="M 4.203125 54.6875 
L 13.1875 54.6875 
L 24.421875 12.015625 
L 35.59375 54.6875 
L 46.1875 54.6875 
L 57.421875 12.015625 
L 68.609375 54.6875 
L 77.59375 54.6875 
L 63.28125 0 
L 52.6875 0 
L 40.921875 44.828125 
L 29.109375 0 
L 18.5 0 
z
" id="DejaVuSans-119"/>
    <path d="M 53.515625 70.515625 
L 53.515625 60.890625 
Q 47.90625 63.578125 42.921875 64.890625 
Q 37.9375 66.21875 33.296875 66.21875 
Q 25.25 66.21875 20.875 63.09375 
Q 16.5 59.96875 16.5 54.203125 
Q 16.5 49.359375 19.40625 46.890625 
Q 22.3125 44.4375 30.421875 42.921875 
L 36.375 41.703125 
Q 47.40625 39.59375 52.65625 34.296875 
Q 57.90625 29 57.90625 20.125 
Q 57.90625 9.515625 50.796875 4.046875 
Q 43.703125 -1.421875 29.984375 -1.421875 
Q 24.8125 -1.421875 18.96875 -0.25 
Q 13.140625 0.921875 6.890625 3.21875 
L 6.890625 13.375 
Q 12.890625 10.015625 18.65625 8.296875 
Q 24.421875 6.59375 29.984375 6.59375 
Q 38.421875 6.59375 43.015625 9.90625 
Q 47.609375 13.234375 47.609375 19.390625 
Q 47.609375 24.75 44.3125 27.78125 
Q 41.015625 30.8125 33.5 32.328125 
L 27.484375 33.5 
Q 16.453125 35.6875 11.515625 40.375 
Q 6.59375 45.0625 6.59375 53.421875 
Q 6.59375 63.09375 13.40625 68.65625 
Q 20.21875 74.21875 32.171875 74.21875 
Q 37.3125 74.21875 42.625 73.28125 
Q 47.953125 72.359375 53.515625 70.515625 
z
" id="DejaVuSans-83"/>
   </defs>
   <g transform="translate(93.201563 16.030125)scale(0.12 -0.12)">
    <use xlink:href="#DejaVuSans-67"/>
    <use x="69.824219" xlink:href="#DejaVuSans-111"/>
    <use x="131.005859" xlink:href="#DejaVuSans-110"/>
    <use x="194.384766" xlink:href="#DejaVuSans-115"/>
    <use x="246.484375" xlink:href="#DejaVuSans-117"/>
    <use x="309.863281" xlink:href="#DejaVuSans-109"/>
    <use x="407.275391" xlink:href="#DejaVuSans-112"/>
    <use x="470.751953" xlink:href="#DejaVuSans-116"/>
    <use x="509.960938" xlink:href="#DejaVuSans-105"/>
    <use x="537.744141" xlink:href="#DejaVuSans-111"/>
    <use x="598.925781" xlink:href="#DejaVuSans-110"/>
    <use x="662.304688" xlink:href="#DejaVuSans-32"/>
    <use x="694.091797" xlink:href="#DejaVuSans-67"/>
    <use x="763.916016" xlink:href="#DejaVuSans-111"/>
    <use x="825.097656" xlink:href="#DejaVuSans-109"/>
    <use x="922.509766" xlink:href="#DejaVuSans-112"/>
    <use x="985.986328" xlink:href="#DejaVuSans-97"/>
    <use x="1047.265625" xlink:href="#DejaVuSans-114"/>
    <use x="1088.378906" xlink:href="#DejaVuSans-105"/>
    <use x="1116.162109" xlink:href="#DejaVuSans-115"/>
    <use x="1168.261719" xlink:href="#DejaVuSans-111"/>
    <use x="1229.443359" xlink:href="#DejaVuSans-110"/>
    <use x="1292.822266" xlink:href="#DejaVuSans-115"/>
    <use x="1344.921875" xlink:href="#DejaVuSans-32"/>
    <use x="1376.708984" xlink:href="#DejaVuSans-119"/>
    <use x="1458.496094" xlink:href="#DejaVuSans-105"/>
    <use x="1486.279297" xlink:href="#DejaVuSans-116"/>
    <use x="1525.488281" xlink:href="#DejaVuSans-104"/>
    <use x="1588.867188" xlink:href="#DejaVuSans-32"/>
    <use x="1620.654297" xlink:href="#DejaVuSans-84"/>
    <use x="1681.519531" xlink:href="#DejaVuSans-114"/>
    <use x="1722.632812" xlink:href="#DejaVuSans-117"/>
    <use x="1786.011719" xlink:href="#DejaVuSans-101"/>
    <use x="1847.535156" xlink:href="#DejaVuSans-32"/>
    <use x="1879.322266" xlink:href="#DejaVuSans-83"/>
    <use x="1942.798828" xlink:href="#DejaVuSans-111"/>
    <use x="2003.980469" xlink:href="#DejaVuSans-108"/>
    <use x="2031.763672" xlink:href="#DejaVuSans-117"/>
    <use x="2095.142578" xlink:href="#DejaVuSans-116"/>
    <use x="2134.351562" xlink:href="#DejaVuSans-105"/>
    <use x="2162.134766" xlink:href="#DejaVuSans-111"/>
    <use x="2223.316406" xlink:href="#DejaVuSans-110"/>
   </g>
  </g>
 </g>
 <defs>
  <clipPath id="p187ca9c402">
   <rect height="230.3344" width="155.474199" x="68.78" y="56.0256"/>
  </clipPath>
  <clipPath id="p1e5170d553">
   <rect height="230.3344" width="155.474199" x="290.425687" y="56.0256"/>
  </clipPath>
 </defs>
</svg>
