<?xml version="1.0" encoding="utf-8" standalone="no"?>
<!DOCTYPE svg PUBLIC "-//W3C//DTD SVG 1.1//EN"
  "http://www.w3.org/Graphics/SVG/1.1/DTD/svg11.dtd">
<!-- Created with matplotlib (https://matplotlib.org/) -->
<svg height="288pt" version="1.1" viewBox="0 0 432 288" width="432pt" xmlns="http://www.w3.org/2000/svg" xmlns:xlink="http://www.w3.org/1999/xlink">
 <defs>
  <style type="text/css">
*{stroke-linecap:butt;stroke-linejoin:round;}
  </style>
 </defs>
 <g id="figure_1">
  <g id="patch_1">
   <path d="M 0 288 
L 432 288 
L 432 0 
L 0 0 
z
" style="fill:#ffffff;"/>
  </g>
  <g id="axes_1">
   <g id="patch_2">
    <path d="M 75.05 231.8 
L 203.889288 231.8 
L 203.889288 52.072 
L 75.05 52.072 
z
" style="fill:#ffffff;"/>
   </g>
   <g id="matplotlib.axis_1">
    <g id="xtick_1">
     <g id="line2d_1">
      <path clip-path="url(#p99123e821e)" d="M 80.906331 231.8 
L 80.906331 52.072 
" style="fill:none;stroke:#b0b0b0;stroke-linecap:square;stroke-width:0.8;"/>
     </g>
     <g id="line2d_2">
      <defs>
       <path d="M 0 0 
L 0 3.5 
" id="mb75483ce15" style="stroke:#000000;stroke-width:0.8;"/>
      </defs>
      <g>
       <use style="stroke:#000000;stroke-width:0.8;" x="80.906331" xlink:href="#mb75483ce15" y="231.8"/>
      </g>
     </g>
     <g id="text_1">
      <!-- 0 -->
      <defs>
       <path d="M 31.78125 66.40625 
Q 24.171875 66.40625 20.328125 58.90625 
Q 16.5 51.421875 16.5 36.375 
Q 16.5 21.390625 20.328125 13.890625 
Q 24.171875 6.390625 31.78125 6.390625 
Q 39.453125 6.390625 43.28125 13.890625 
Q 47.125 21.390625 47.125 36.375 
Q 47.125 51.421875 43.28125 58.90625 
Q 39.453125 66.40625 31.78125 66.40625 
z
M 31.78125 74.21875 
Q 44.046875 74.21875 50.515625 64.515625 
Q 56.984375 54.828125 56.984375 36.375 
Q 56.984375 17.96875 50.515625 8.265625 
Q 44.046875 -1.421875 31.78125 -1.421875 
Q 19.53125 -1.421875 13.0625 8.265625 
Q 6.59375 17.96875 6.59375 36.375 
Q 6.59375 54.828125 13.0625 64.515625 
Q 19.53125 74.21875 31.78125 74.21875 
z
" id="DejaVuSans-48"/>
      </defs>
      <g transform="translate(77.725081 246.398438)scale(0.1 -0.1)">
       <use xlink:href="#DejaVuSans-48"/>
      </g>
     </g>
    </g>
    <g id="xtick_2">
     <g id="line2d_3">
      <path clip-path="url(#p99123e821e)" d="M 139.469644 231.8 
L 139.469644 52.072 
" style="fill:none;stroke:#b0b0b0;stroke-linecap:square;stroke-width:0.8;"/>
     </g>
     <g id="line2d_4">
      <g>
       <use style="stroke:#000000;stroke-width:0.8;" x="139.469644" xlink:href="#mb75483ce15" y="231.8"/>
      </g>
     </g>
     <g id="text_2">
      <!-- 5 -->
      <defs>
       <path d="M 10.796875 72.90625 
L 49.515625 72.90625 
L 49.515625 64.59375 
L 19.828125 64.59375 
L 19.828125 46.734375 
Q 21.96875 47.46875 24.109375 47.828125 
Q 26.265625 48.1875 28.421875 48.1875 
Q 40.625 48.1875 47.75 41.5 
Q 54.890625 34.8125 54.890625 23.390625 
Q 54.890625 11.625 47.5625 5.09375 
Q 40.234375 -1.421875 26.90625 -1.421875 
Q 22.3125 -1.421875 17.546875 -0.640625 
Q 12.796875 0.140625 7.71875 1.703125 
L 7.71875 11.625 
Q 12.109375 9.234375 16.796875 8.0625 
Q 21.484375 6.890625 26.703125 6.890625 
Q 35.15625 6.890625 40.078125 11.328125 
Q 45.015625 15.765625 45.015625 23.390625 
Q 45.015625 31 40.078125 35.4375 
Q 35.15625 39.890625 26.703125 39.890625 
Q 22.75 39.890625 18.8125 39.015625 
Q 14.890625 38.140625 10.796875 36.28125 
z
" id="DejaVuSans-53"/>
      </defs>
      <g transform="translate(136.288394 246.398438)scale(0.1 -0.1)">
       <use xlink:href="#DejaVuSans-53"/>
      </g>
     </g>
    </g>
    <g id="xtick_3">
     <g id="line2d_5">
      <path clip-path="url(#p99123e821e)" d="M 198.032957 231.8 
L 198.032957 52.072 
" style="fill:none;stroke:#b0b0b0;stroke-linecap:square;stroke-width:0.8;"/>
     </g>
     <g id="line2d_6">
      <g>
       <use style="stroke:#000000;stroke-width:0.8;" x="198.032957" xlink:href="#mb75483ce15" y="231.8"/>
      </g>
     </g>
     <g id="text_3">
      <!-- 10 -->
      <defs>
       <path d="M 12.40625 8.296875 
L 28.515625 8.296875 
L 28.515625 63.921875 
L 10.984375 60.40625 
L 10.984375 69.390625 
L 28.421875 72.90625 
L 38.28125 72.90625 
L 38.28125 8.296875 
L 54.390625 8.296875 
L 54.390625 0 
L 12.40625 0 
z
" id="DejaVuSans-49"/>
      </defs>
      <g transform="translate(191.670457 246.398438)scale(0.1 -0.1)">
       <use xlink:href="#DejaVuSans-49"/>
       <use x="63.623047" xlink:href="#DejaVuSans-48"/>
      </g>
     </g>
    </g>
    <g id="text_4">
     <!-- M -->
     <defs>
      <path d="M 9.8125 72.90625 
L 24.515625 72.90625 
L 43.109375 23.296875 
L 61.8125 72.90625 
L 76.515625 72.90625 
L 76.515625 0 
L 66.890625 0 
L 66.890625 64.015625 
L 48.09375 14.015625 
L 38.1875 14.015625 
L 19.390625 64.015625 
L 19.390625 0 
L 9.8125 0 
z
" id="DejaVuSans-77"/>
     </defs>
     <g transform="translate(135.155582 260.076563)scale(0.1 -0.1)">
      <use xlink:href="#DejaVuSans-77"/>
     </g>
    </g>
   </g>
   <g id="matplotlib.axis_2">
    <g id="ytick_1">
     <g id="line2d_7">
      <path clip-path="url(#p99123e821e)" d="M 75.05 225.582749 
L 203.889288 225.582749 
" style="fill:none;stroke:#b0b0b0;stroke-linecap:square;stroke-width:0.8;"/>
     </g>
     <g id="line2d_8">
      <defs>
       <path d="M 0 0 
L -3.5 0 
" id="mcf8a91dda1" style="stroke:#000000;stroke-width:0.8;"/>
      </defs>
      <g>
       <use style="stroke:#000000;stroke-width:0.8;" x="75.05" xlink:href="#mcf8a91dda1" y="225.582749"/>
      </g>
     </g>
     <g id="text_5">
      <!-- −0.020 -->
      <defs>
       <path d="M 10.59375 35.5 
L 73.1875 35.5 
L 73.1875 27.203125 
L 10.59375 27.203125 
z
" id="DejaVuSans-8722"/>
       <path d="M 10.6875 12.40625 
L 21 12.40625 
L 21 0 
L 10.6875 0 
z
" id="DejaVuSans-46"/>
       <path d="M 19.1875 8.296875 
L 53.609375 8.296875 
L 53.609375 0 
L 7.328125 0 
L 7.328125 8.296875 
Q 12.9375 14.109375 22.625 23.890625 
Q 32.328125 33.6875 34.8125 36.53125 
Q 39.546875 41.84375 41.421875 45.53125 
Q 43.3125 49.21875 43.3125 52.78125 
Q 43.3125 58.59375 39.234375 62.25 
Q 35.15625 65.921875 28.609375 65.921875 
Q 23.96875 65.921875 18.8125 64.3125 
Q 13.671875 62.703125 7.8125 59.421875 
L 7.8125 69.390625 
Q 13.765625 71.78125 18.9375 73 
Q 24.125 74.21875 28.421875 74.21875 
Q 39.75 74.21875 46.484375 68.546875 
Q 53.21875 62.890625 53.21875 53.421875 
Q 53.21875 48.921875 51.53125 44.890625 
Q 49.859375 40.875 45.40625 35.40625 
Q 44.1875 33.984375 37.640625 27.21875 
Q 31.109375 20.453125 19.1875 8.296875 
z
" id="DejaVuSans-50"/>
      </defs>
      <g transform="translate(31.042187 229.381968)scale(0.1 -0.1)">
       <use xlink:href="#DejaVuSans-8722"/>
       <use x="83.789062" xlink:href="#DejaVuSans-48"/>
       <use x="147.412109" xlink:href="#DejaVuSans-46"/>
       <use x="179.199219" xlink:href="#DejaVuSans-48"/>
       <use x="242.822266" xlink:href="#DejaVuSans-50"/>
       <use x="306.445312" xlink:href="#DejaVuSans-48"/>
      </g>
     </g>
    </g>
    <g id="ytick_2">
     <g id="line2d_9">
      <path clip-path="url(#p99123e821e)" d="M 75.05 184.247426 
L 203.889288 184.247426 
" style="fill:none;stroke:#b0b0b0;stroke-linecap:square;stroke-width:0.8;"/>
     </g>
     <g id="line2d_10">
      <g>
       <use style="stroke:#000000;stroke-width:0.8;" x="75.05" xlink:href="#mcf8a91dda1" y="184.247426"/>
      </g>
     </g>
     <g id="text_6">
      <!-- −0.015 -->
      <g transform="translate(31.042187 188.046645)scale(0.1 -0.1)">
       <use xlink:href="#DejaVuSans-8722"/>
       <use x="83.789062" xlink:href="#DejaVuSans-48"/>
       <use x="147.412109" xlink:href="#DejaVuSans-46"/>
       <use x="179.199219" xlink:href="#DejaVuSans-48"/>
       <use x="242.822266" xlink:href="#DejaVuSans-49"/>
       <use x="306.445312" xlink:href="#DejaVuSans-53"/>
      </g>
     </g>
    </g>
    <g id="ytick_3">
     <g id="line2d_11">
      <path clip-path="url(#p99123e821e)" d="M 75.05 142.912102 
L 203.889288 142.912102 
" style="fill:none;stroke:#b0b0b0;stroke-linecap:square;stroke-width:0.8;"/>
     </g>
     <g id="line2d_12">
      <g>
       <use style="stroke:#000000;stroke-width:0.8;" x="75.05" xlink:href="#mcf8a91dda1" y="142.912102"/>
      </g>
     </g>
     <g id="text_7">
      <!-- −0.010 -->
      <g transform="translate(31.042187 146.711321)scale(0.1 -0.1)">
       <use xlink:href="#DejaVuSans-8722"/>
       <use x="83.789062" xlink:href="#DejaVuSans-48"/>
       <use x="147.412109" xlink:href="#DejaVuSans-46"/>
       <use x="179.199219" xlink:href="#DejaVuSans-48"/>
       <use x="242.822266" xlink:href="#DejaVuSans-49"/>
       <use x="306.445312" xlink:href="#DejaVuSans-48"/>
      </g>
     </g>
    </g>
    <g id="ytick_4">
     <g id="line2d_13">
      <path clip-path="url(#p99123e821e)" d="M 75.05 101.576778 
L 203.889288 101.576778 
" style="fill:none;stroke:#b0b0b0;stroke-linecap:square;stroke-width:0.8;"/>
     </g>
     <g id="line2d_14">
      <g>
       <use style="stroke:#000000;stroke-width:0.8;" x="75.05" xlink:href="#mcf8a91dda1" y="101.576778"/>
      </g>
     </g>
     <g id="text_8">
      <!-- −0.005 -->
      <g transform="translate(31.042187 105.375997)scale(0.1 -0.1)">
       <use xlink:href="#DejaVuSans-8722"/>
       <use x="83.789062" xlink:href="#DejaVuSans-48"/>
       <use x="147.412109" xlink:href="#DejaVuSans-46"/>
       <use x="179.199219" xlink:href="#DejaVuSans-48"/>
       <use x="242.822266" xlink:href="#DejaVuSans-48"/>
       <use x="306.445312" xlink:href="#DejaVuSans-53"/>
      </g>
     </g>
    </g>
    <g id="ytick_5">
     <g id="line2d_15">
      <path clip-path="url(#p99123e821e)" d="M 75.05 60.241455 
L 203.889288 60.241455 
" style="fill:none;stroke:#b0b0b0;stroke-linecap:square;stroke-width:0.8;"/>
     </g>
     <g id="line2d_16">
      <g>
       <use style="stroke:#000000;stroke-width:0.8;" x="75.05" xlink:href="#mcf8a91dda1" y="60.241455"/>
      </g>
     </g>
     <g id="text_9">
      <!-- 0.000 -->
      <g transform="translate(39.421875 64.040673)scale(0.1 -0.1)">
       <use xlink:href="#DejaVuSans-48"/>
       <use x="63.623047" xlink:href="#DejaVuSans-46"/>
       <use x="95.410156" xlink:href="#DejaVuSans-48"/>
       <use x="159.033203" xlink:href="#DejaVuSans-48"/>
       <use x="222.65625" xlink:href="#DejaVuSans-48"/>
      </g>
     </g>
    </g>
    <g id="text_10">
     <!-- Model C - Analytical C -->
     <defs>
      <path d="M 30.609375 48.390625 
Q 23.390625 48.390625 19.1875 42.75 
Q 14.984375 37.109375 14.984375 27.296875 
Q 14.984375 17.484375 19.15625 11.84375 
Q 23.34375 6.203125 30.609375 6.203125 
Q 37.796875 6.203125 41.984375 11.859375 
Q 46.1875 17.53125 46.1875 27.296875 
Q 46.1875 37.015625 41.984375 42.703125 
Q 37.796875 48.390625 30.609375 48.390625 
z
M 30.609375 56 
Q 42.328125 56 49.015625 48.375 
Q 55.71875 40.765625 55.71875 27.296875 
Q 55.71875 13.875 49.015625 6.21875 
Q 42.328125 -1.421875 30.609375 -1.421875 
Q 18.84375 -1.421875 12.171875 6.21875 
Q 5.515625 13.875 5.515625 27.296875 
Q 5.515625 40.765625 12.171875 48.375 
Q 18.84375 56 30.609375 56 
z
" id="DejaVuSans-111"/>
      <path d="M 45.40625 46.390625 
L 45.40625 75.984375 
L 54.390625 75.984375 
L 54.390625 0 
L 45.40625 0 
L 45.40625 8.203125 
Q 42.578125 3.328125 38.25 0.953125 
Q 33.9375 -1.421875 27.875 -1.421875 
Q 17.96875 -1.421875 11.734375 6.484375 
Q 5.515625 14.40625 5.515625 27.296875 
Q 5.515625 40.1875 11.734375 48.09375 
Q 17.96875 56 27.875 56 
Q 33.9375 56 38.25 53.625 
Q 42.578125 51.265625 45.40625 46.390625 
z
M 14.796875 27.296875 
Q 14.796875 17.390625 18.875 11.75 
Q 22.953125 6.109375 30.078125 6.109375 
Q 37.203125 6.109375 41.296875 11.75 
Q 45.40625 17.390625 45.40625 27.296875 
Q 45.40625 37.203125 41.296875 42.84375 
Q 37.203125 48.484375 30.078125 48.484375 
Q 22.953125 48.484375 18.875 42.84375 
Q 14.796875 37.203125 14.796875 27.296875 
z
" id="DejaVuSans-100"/>
      <path d="M 56.203125 29.59375 
L 56.203125 25.203125 
L 14.890625 25.203125 
Q 15.484375 15.921875 20.484375 11.0625 
Q 25.484375 6.203125 34.421875 6.203125 
Q 39.59375 6.203125 44.453125 7.46875 
Q 49.3125 8.734375 54.109375 11.28125 
L 54.109375 2.78125 
Q 49.265625 0.734375 44.1875 -0.34375 
Q 39.109375 -1.421875 33.890625 -1.421875 
Q 20.796875 -1.421875 13.15625 6.1875 
Q 5.515625 13.8125 5.515625 26.8125 
Q 5.515625 40.234375 12.765625 48.109375 
Q 20.015625 56 32.328125 56 
Q 43.359375 56 49.78125 48.890625 
Q 56.203125 41.796875 56.203125 29.59375 
z
M 47.21875 32.234375 
Q 47.125 39.59375 43.09375 43.984375 
Q 39.0625 48.390625 32.421875 48.390625 
Q 24.90625 48.390625 20.390625 44.140625 
Q 15.875 39.890625 15.1875 32.171875 
z
" id="DejaVuSans-101"/>
      <path d="M 9.421875 75.984375 
L 18.40625 75.984375 
L 18.40625 0 
L 9.421875 0 
z
" id="DejaVuSans-108"/>
      <path id="DejaVuSans-32"/>
      <path d="M 64.40625 67.28125 
L 64.40625 56.890625 
Q 59.421875 61.53125 53.78125 63.8125 
Q 48.140625 66.109375 41.796875 66.109375 
Q 29.296875 66.109375 22.65625 58.46875 
Q 16.015625 50.828125 16.015625 36.375 
Q 16.015625 21.96875 22.65625 14.328125 
Q 29.296875 6.6875 41.796875 6.6875 
Q 48.140625 6.6875 53.78125 8.984375 
Q 59.421875 11.28125 64.40625 15.921875 
L 64.40625 5.609375 
Q 59.234375 2.09375 53.4375 0.328125 
Q 47.65625 -1.421875 41.21875 -1.421875 
Q 24.65625 -1.421875 15.125 8.703125 
Q 5.609375 18.84375 5.609375 36.375 
Q 5.609375 53.953125 15.125 64.078125 
Q 24.65625 74.21875 41.21875 74.21875 
Q 47.75 74.21875 53.53125 72.484375 
Q 59.328125 70.75 64.40625 67.28125 
z
" id="DejaVuSans-67"/>
      <path d="M 4.890625 31.390625 
L 31.203125 31.390625 
L 31.203125 23.390625 
L 4.890625 23.390625 
z
" id="DejaVuSans-45"/>
      <path d="M 34.1875 63.1875 
L 20.796875 26.90625 
L 47.609375 26.90625 
z
M 28.609375 72.90625 
L 39.796875 72.90625 
L 67.578125 0 
L 57.328125 0 
L 50.6875 18.703125 
L 17.828125 18.703125 
L 11.1875 0 
L 0.78125 0 
z
" id="DejaVuSans-65"/>
      <path d="M 54.890625 33.015625 
L 54.890625 0 
L 45.90625 0 
L 45.90625 32.71875 
Q 45.90625 40.484375 42.875 44.328125 
Q 39.84375 48.1875 33.796875 48.1875 
Q 26.515625 48.1875 22.3125 43.546875 
Q 18.109375 38.921875 18.109375 30.90625 
L 18.109375 0 
L 9.078125 0 
L 9.078125 54.6875 
L 18.109375 54.6875 
L 18.109375 46.1875 
Q 21.34375 51.125 25.703125 53.5625 
Q 30.078125 56 35.796875 56 
Q 45.21875 56 50.046875 50.171875 
Q 54.890625 44.34375 54.890625 33.015625 
z
" id="DejaVuSans-110"/>
      <path d="M 34.28125 27.484375 
Q 23.390625 27.484375 19.1875 25 
Q 14.984375 22.515625 14.984375 16.5 
Q 14.984375 11.71875 18.140625 8.90625 
Q 21.296875 6.109375 26.703125 6.109375 
Q 34.1875 6.109375 38.703125 11.40625 
Q 43.21875 16.703125 43.21875 25.484375 
L 43.21875 27.484375 
z
M 52.203125 31.203125 
L 52.203125 0 
L 43.21875 0 
L 43.21875 8.296875 
Q 40.140625 3.328125 35.546875 0.953125 
Q 30.953125 -1.421875 24.3125 -1.421875 
Q 15.921875 -1.421875 10.953125 3.296875 
Q 6 8.015625 6 15.921875 
Q 6 25.140625 12.171875 29.828125 
Q 18.359375 34.515625 30.609375 34.515625 
L 43.21875 34.515625 
L 43.21875 35.40625 
Q 43.21875 41.609375 39.140625 45 
Q 35.0625 48.390625 27.6875 48.390625 
Q 23 48.390625 18.546875 47.265625 
Q 14.109375 46.140625 10.015625 43.890625 
L 10.015625 52.203125 
Q 14.9375 54.109375 19.578125 55.046875 
Q 24.21875 56 28.609375 56 
Q 40.484375 56 46.34375 49.84375 
Q 52.203125 43.703125 52.203125 31.203125 
z
" id="DejaVuSans-97"/>
      <path d="M 32.171875 -5.078125 
Q 28.375 -14.84375 24.75 -17.8125 
Q 21.140625 -20.796875 15.09375 -20.796875 
L 7.90625 -20.796875 
L 7.90625 -13.28125 
L 13.1875 -13.28125 
Q 16.890625 -13.28125 18.9375 -11.515625 
Q 21 -9.765625 23.484375 -3.21875 
L 25.09375 0.875 
L 2.984375 54.6875 
L 12.5 54.6875 
L 29.59375 11.921875 
L 46.6875 54.6875 
L 56.203125 54.6875 
z
" id="DejaVuSans-121"/>
      <path d="M 18.3125 70.21875 
L 18.3125 54.6875 
L 36.8125 54.6875 
L 36.8125 47.703125 
L 18.3125 47.703125 
L 18.3125 18.015625 
Q 18.3125 11.328125 20.140625 9.421875 
Q 21.96875 7.515625 27.59375 7.515625 
L 36.8125 7.515625 
L 36.8125 0 
L 27.59375 0 
Q 17.1875 0 13.234375 3.875 
Q 9.28125 7.765625 9.28125 18.015625 
L 9.28125 47.703125 
L 2.6875 47.703125 
L 2.6875 54.6875 
L 9.28125 54.6875 
L 9.28125 70.21875 
z
" id="DejaVuSans-116"/>
      <path d="M 9.421875 54.6875 
L 18.40625 54.6875 
L 18.40625 0 
L 9.421875 0 
z
M 9.421875 75.984375 
L 18.40625 75.984375 
L 18.40625 64.59375 
L 9.421875 64.59375 
z
" id="DejaVuSans-105"/>
      <path d="M 48.78125 52.59375 
L 48.78125 44.1875 
Q 44.96875 46.296875 41.140625 47.34375 
Q 37.3125 48.390625 33.40625 48.390625 
Q 24.65625 48.390625 19.8125 42.84375 
Q 14.984375 37.3125 14.984375 27.296875 
Q 14.984375 17.28125 19.8125 11.734375 
Q 24.65625 6.203125 33.40625 6.203125 
Q 37.3125 6.203125 41.140625 7.25 
Q 44.96875 8.296875 48.78125 10.40625 
L 48.78125 2.09375 
Q 45.015625 0.34375 40.984375 -0.53125 
Q 36.96875 -1.421875 32.421875 -1.421875 
Q 20.0625 -1.421875 12.78125 6.34375 
Q 5.515625 14.109375 5.515625 27.296875 
Q 5.515625 40.671875 12.859375 48.328125 
Q 20.21875 56 33.015625 56 
Q 37.15625 56 41.109375 55.140625 
Q 45.0625 54.296875 48.78125 52.59375 
z
" id="DejaVuSans-99"/>
     </defs>
     <g transform="translate(24.9625 196.645375)rotate(-90)scale(0.1 -0.1)">
      <use xlink:href="#DejaVuSans-77"/>
      <use x="86.279297" xlink:href="#DejaVuSans-111"/>
      <use x="147.460938" xlink:href="#DejaVuSans-100"/>
      <use x="210.9375" xlink:href="#DejaVuSans-101"/>
      <use x="272.460938" xlink:href="#DejaVuSans-108"/>
      <use x="300.244141" xlink:href="#DejaVuSans-32"/>
      <use x="332.03125" xlink:href="#DejaVuSans-67"/>
      <use x="401.855469" xlink:href="#DejaVuSans-32"/>
      <use x="433.642578" xlink:href="#DejaVuSans-45"/>
      <use x="469.726562" xlink:href="#DejaVuSans-32"/>
      <use x="501.513672" xlink:href="#DejaVuSans-65"/>
      <use x="569.921875" xlink:href="#DejaVuSans-110"/>
      <use x="633.300781" xlink:href="#DejaVuSans-97"/>
      <use x="694.580078" xlink:href="#DejaVuSans-108"/>
      <use x="722.363281" xlink:href="#DejaVuSans-121"/>
      <use x="781.542969" xlink:href="#DejaVuSans-116"/>
      <use x="820.751953" xlink:href="#DejaVuSans-105"/>
      <use x="848.535156" xlink:href="#DejaVuSans-99"/>
      <use x="903.515625" xlink:href="#DejaVuSans-97"/>
      <use x="964.794922" xlink:href="#DejaVuSans-108"/>
      <use x="992.578125" xlink:href="#DejaVuSans-32"/>
      <use x="1024.365234" xlink:href="#DejaVuSans-67"/>
     </g>
    </g>
   </g>
   <g id="line2d_17">
    <path clip-path="url(#p99123e821e)" d="M 80.906331 60.241455 
L 82.089429 60.241455 
L 83.272526 60.241455 
L 84.455623 60.241455 
L 85.63872 60.241455 
L 86.821817 60.241455 
L 88.004915 60.241455 
L 89.188012 60.241455 
L 90.371109 60.241455 
L 91.554206 60.241455 
L 92.737304 104.31538 
L 93.920401 223.630545 
L 95.103498 178.533599 
L 96.286595 148.749904 
L 97.469693 127.037717 
L 98.65279 110.508842 
L 99.835887 97.664922 
L 101.018984 87.641743 
L 102.202081 79.816394 
L 103.385179 73.775539 
L 104.568276 69.240646 
L 105.751373 65.942891 
L 106.93447 63.611319 
L 108.117568 62.142223 
L 109.300665 61.212631 
L 110.483762 60.697908 
L 111.666859 60.450012 
L 112.849957 60.33113 
L 114.033054 60.277917 
L 115.216151 60.255435 
L 116.399248 60.246449 
L 117.582345 60.243369 
L 118.765443 60.242282 
L 119.94854 60.241786 
L 121.131637 60.241577 
L 122.314734 60.241509 
L 123.497832 60.241479 
L 124.680929 60.241463 
L 125.864026 60.241459 
L 127.047123 60.241456 
L 128.230221 60.241455 
L 129.413318 60.241455 
L 130.596415 60.241455 
L 131.779512 60.241455 
L 132.962609 60.241455 
L 134.145707 60.241455 
L 135.328804 60.241455 
L 136.511901 60.241455 
L 137.694998 60.241455 
L 138.878096 60.241455 
L 140.061193 60.241455 
L 141.24429 60.241455 
L 142.427387 60.241455 
L 143.610485 60.241455 
L 144.793582 60.241455 
L 145.976679 60.241455 
L 147.159776 60.241455 
L 148.342873 60.241455 
L 149.525971 60.241455 
L 150.709068 60.241455 
L 151.892165 60.241455 
L 153.075262 60.241455 
L 154.25836 60.241455 
L 155.441457 60.241455 
L 156.624554 60.241455 
L 157.807651 60.241455 
L 158.990749 60.241455 
L 160.173846 60.241455 
L 161.356943 60.241455 
L 162.54004 60.241455 
L 163.723137 60.241455 
L 164.906235 60.241455 
L 166.089332 60.241455 
L 167.272429 60.241455 
L 168.455526 60.241455 
L 169.638624 60.241455 
L 170.821721 60.241455 
L 172.004818 60.241455 
L 173.187915 60.241455 
L 174.371013 60.241455 
L 175.55411 60.241455 
L 176.737207 60.241455 
L 177.920304 60.241455 
L 179.103401 60.241455 
L 180.286499 60.241455 
L 181.469596 60.241455 
L 182.652693 60.241455 
L 183.83579 60.241455 
L 185.018888 60.241455 
L 186.201985 60.241455 
L 187.385082 60.241455 
L 188.568179 60.241455 
L 189.751277 60.241455 
L 190.934374 60.241455 
L 192.117471 60.241455 
L 193.300568 60.241455 
L 194.483665 60.241455 
L 195.666763 60.241455 
L 196.84986 60.241455 
L 198.032957 60.241455 
" style="fill:none;stroke:#1f77b4;stroke-linecap:square;stroke-width:1.5;"/>
   </g>
   <g id="line2d_18">
    <path clip-path="url(#p99123e821e)" d="M 80.906331 60.241455 
L 82.089429 60.241455 
L 83.272526 60.241455 
L 84.455623 60.241455 
L 85.63872 60.241455 
L 86.821817 60.241455 
L 88.004915 60.241455 
L 89.188012 60.241455 
L 90.371109 60.241455 
L 91.554206 60.241455 
L 92.737304 60.241455 
L 93.920401 60.241455 
L 95.103498 60.241455 
L 96.286595 60.241455 
L 97.469693 60.241455 
L 98.65279 60.241455 
L 99.835887 60.241455 
L 101.018984 60.241455 
L 102.202081 60.241455 
L 103.385179 60.241455 
L 104.568276 60.241455 
L 105.751373 60.241455 
L 106.93447 60.241455 
L 108.117568 60.241455 
L 109.300665 60.241455 
L 110.483762 60.241455 
L 111.666859 60.241455 
L 112.849957 60.241455 
L 114.033054 60.241455 
L 115.216151 60.241455 
L 116.399248 60.241455 
L 117.582345 60.241455 
L 118.765443 60.241455 
L 119.94854 60.241455 
L 121.131637 60.241455 
L 122.314734 60.241455 
L 123.497832 60.241455 
L 124.680929 60.241455 
L 125.864026 60.241455 
L 127.047123 60.241455 
L 128.230221 60.241455 
L 129.413318 60.241455 
L 130.596415 60.241455 
L 131.779512 60.241455 
L 132.962609 60.241455 
L 134.145707 60.241455 
L 135.328804 60.241455 
L 136.511901 60.241455 
L 137.694998 60.241455 
L 138.878096 60.241455 
L 140.061193 60.241455 
L 141.24429 60.241455 
L 142.427387 60.241455 
L 143.610485 60.241455 
L 144.793582 60.241455 
L 145.976679 60.241455 
L 147.159776 60.241455 
L 148.342873 60.241455 
L 149.525971 60.241455 
L 150.709068 60.241455 
L 151.892165 60.241455 
L 153.075262 60.241455 
L 154.25836 60.241455 
L 155.441457 60.241455 
L 156.624554 60.241455 
L 157.807651 60.241455 
L 158.990749 60.241455 
L 160.173846 60.241455 
L 161.356943 60.241455 
L 162.54004 60.241455 
L 163.723137 60.241455 
L 164.906235 60.241455 
L 166.089332 60.241455 
L 167.272429 60.241455 
L 168.455526 60.241455 
L 169.638624 60.241455 
L 170.821721 60.241455 
L 172.004818 60.241455 
L 173.187915 60.241455 
L 174.371013 60.241455 
L 175.55411 60.241455 
L 176.737207 60.241455 
L 177.920304 60.241455 
L 179.103401 60.241455 
L 180.286499 60.241455 
L 181.469596 60.241455 
L 182.652693 60.241455 
L 183.83579 60.241455 
L 185.018888 60.241455 
L 186.201985 60.241455 
L 187.385082 60.241455 
L 188.568179 60.241455 
L 189.751277 60.241455 
L 190.934374 60.241455 
L 192.117471 60.241455 
L 193.300568 60.241455 
L 194.483665 60.241455 
L 195.666763 60.241455 
L 196.84986 60.241455 
L 198.032957 60.241455 
" style="fill:none;stroke:#ff7f0e;stroke-linecap:square;stroke-width:1.5;"/>
   </g>
   <g id="line2d_19">
    <path clip-path="url(#p99123e821e)" d="M 80.906331 60.241455 
L 82.089429 60.241455 
L 83.272526 60.241455 
L 84.455623 60.241455 
L 85.63872 60.241455 
L 86.821817 60.241455 
L 88.004915 60.241455 
L 89.188012 60.241455 
L 90.371109 60.241455 
L 91.554206 60.241455 
L 92.737304 60.241455 
L 93.920401 60.241455 
L 95.103498 60.241455 
L 96.286595 60.241455 
L 97.469693 60.241455 
L 98.65279 60.241455 
L 99.835887 60.241455 
L 101.018984 60.241455 
L 102.202081 60.241455 
L 103.385179 60.241455 
L 104.568276 60.241455 
L 105.751373 60.241455 
L 106.93447 60.241455 
L 108.117568 60.241455 
L 109.300665 60.241455 
L 110.483762 60.241455 
L 111.666859 60.241455 
L 112.849957 60.241455 
L 114.033054 60.241455 
L 115.216151 60.241455 
L 116.399248 60.241455 
L 117.582345 60.241455 
L 118.765443 60.241455 
L 119.94854 60.241455 
L 121.131637 60.241455 
L 122.314734 60.241455 
L 123.497832 60.241455 
L 124.680929 60.241455 
L 125.864026 60.241455 
L 127.047123 60.241455 
L 128.230221 60.241455 
L 129.413318 60.241455 
L 130.596415 60.241455 
L 131.779512 60.241455 
L 132.962609 60.241455 
L 134.145707 60.241455 
L 135.328804 60.241455 
L 136.511901 60.241455 
L 137.694998 60.241455 
L 138.878096 60.241455 
L 140.061193 60.241455 
L 141.24429 60.241455 
L 142.427387 60.241455 
L 143.610485 60.241455 
L 144.793582 60.241455 
L 145.976679 60.241455 
L 147.159776 60.241455 
L 148.342873 60.241455 
L 149.525971 60.241455 
L 150.709068 60.241455 
L 151.892165 60.241455 
L 153.075262 60.241455 
L 154.25836 60.241455 
L 155.441457 60.241455 
L 156.624554 60.241455 
L 157.807651 60.241455 
L 158.990749 60.241455 
L 160.173846 60.241455 
L 161.356943 60.241455 
L 162.54004 60.241455 
L 163.723137 60.241455 
L 164.906235 60.241455 
L 166.089332 60.241455 
L 167.272429 60.241455 
L 168.455526 60.241455 
L 169.638624 60.241455 
L 170.821721 60.241455 
L 172.004818 60.241455 
L 173.187915 60.241455 
L 174.371013 60.241455 
L 175.55411 60.241455 
L 176.737207 60.241455 
L 177.920304 60.241455 
L 179.103401 60.241455 
L 180.286499 60.241455 
L 181.469596 60.241455 
L 182.652693 60.241455 
L 183.83579 60.241455 
L 185.018888 60.241455 
L 186.201985 60.241455 
L 187.385082 60.241455 
L 188.568179 60.241455 
L 189.751277 60.241455 
L 190.934374 60.241455 
L 192.117471 60.241455 
L 193.300568 60.241455 
L 194.483665 60.241455 
L 195.666763 60.241455 
L 196.84986 60.241455 
L 198.032957 60.241455 
" style="fill:none;stroke:#2ca02c;stroke-linecap:square;stroke-width:1.5;"/>
   </g>
   <g id="patch_3">
    <path d="M 75.05 231.8 
L 75.05 52.072 
" style="fill:none;stroke:#000000;stroke-linecap:square;stroke-linejoin:miter;stroke-width:0.8;"/>
   </g>
   <g id="patch_4">
    <path d="M 203.889288 231.8 
L 203.889288 52.072 
" style="fill:none;stroke:#000000;stroke-linecap:square;stroke-linejoin:miter;stroke-width:0.8;"/>
   </g>
   <g id="patch_5">
    <path d="M 75.05 231.8 
L 203.889288 231.8 
" style="fill:none;stroke:#000000;stroke-linecap:square;stroke-linejoin:miter;stroke-width:0.8;"/>
   </g>
   <g id="patch_6">
    <path d="M 75.05 52.072 
L 203.889288 52.072 
" style="fill:none;stroke:#000000;stroke-linecap:square;stroke-linejoin:miter;stroke-width:0.8;"/>
   </g>
   <g id="text_11">
    <!-- PortfolioConsumerType -->
    <defs>
     <path d="M 19.671875 64.796875 
L 19.671875 37.40625 
L 32.078125 37.40625 
Q 38.96875 37.40625 42.71875 40.96875 
Q 46.484375 44.53125 46.484375 51.125 
Q 46.484375 57.671875 42.71875 61.234375 
Q 38.96875 64.796875 32.078125 64.796875 
z
M 9.8125 72.90625 
L 32.078125 72.90625 
Q 44.34375 72.90625 50.609375 67.359375 
Q 56.890625 61.8125 56.890625 51.125 
Q 56.890625 40.328125 50.609375 34.8125 
Q 44.34375 29.296875 32.078125 29.296875 
L 19.671875 29.296875 
L 19.671875 0 
L 9.8125 0 
z
" id="DejaVuSans-80"/>
     <path d="M 41.109375 46.296875 
Q 39.59375 47.171875 37.8125 47.578125 
Q 36.03125 48 33.890625 48 
Q 26.265625 48 22.1875 43.046875 
Q 18.109375 38.09375 18.109375 28.8125 
L 18.109375 0 
L 9.078125 0 
L 9.078125 54.6875 
L 18.109375 54.6875 
L 18.109375 46.1875 
Q 20.953125 51.171875 25.484375 53.578125 
Q 30.03125 56 36.53125 56 
Q 37.453125 56 38.578125 55.875 
Q 39.703125 55.765625 41.0625 55.515625 
z
" id="DejaVuSans-114"/>
     <path d="M 37.109375 75.984375 
L 37.109375 68.5 
L 28.515625 68.5 
Q 23.6875 68.5 21.796875 66.546875 
Q 19.921875 64.59375 19.921875 59.515625 
L 19.921875 54.6875 
L 34.71875 54.6875 
L 34.71875 47.703125 
L 19.921875 47.703125 
L 19.921875 0 
L 10.890625 0 
L 10.890625 47.703125 
L 2.296875 47.703125 
L 2.296875 54.6875 
L 10.890625 54.6875 
L 10.890625 58.5 
Q 10.890625 67.625 15.140625 71.796875 
Q 19.390625 75.984375 28.609375 75.984375 
z
" id="DejaVuSans-102"/>
     <path d="M 44.28125 53.078125 
L 44.28125 44.578125 
Q 40.484375 46.53125 36.375 47.5 
Q 32.28125 48.484375 27.875 48.484375 
Q 21.1875 48.484375 17.84375 46.4375 
Q 14.5 44.390625 14.5 40.28125 
Q 14.5 37.15625 16.890625 35.375 
Q 19.28125 33.59375 26.515625 31.984375 
L 29.59375 31.296875 
Q 39.15625 29.25 43.1875 25.515625 
Q 47.21875 21.78125 47.21875 15.09375 
Q 47.21875 7.46875 41.1875 3.015625 
Q 35.15625 -1.421875 24.609375 -1.421875 
Q 20.21875 -1.421875 15.453125 -0.5625 
Q 10.6875 0.296875 5.421875 2 
L 5.421875 11.28125 
Q 10.40625 8.6875 15.234375 7.390625 
Q 20.0625 6.109375 24.8125 6.109375 
Q 31.15625 6.109375 34.5625 8.28125 
Q 37.984375 10.453125 37.984375 14.40625 
Q 37.984375 18.0625 35.515625 20.015625 
Q 33.0625 21.96875 24.703125 23.78125 
L 21.578125 24.515625 
Q 13.234375 26.265625 9.515625 29.90625 
Q 5.8125 33.546875 5.8125 39.890625 
Q 5.8125 47.609375 11.28125 51.796875 
Q 16.75 56 26.8125 56 
Q 31.78125 56 36.171875 55.265625 
Q 40.578125 54.546875 44.28125 53.078125 
z
" id="DejaVuSans-115"/>
     <path d="M 8.5 21.578125 
L 8.5 54.6875 
L 17.484375 54.6875 
L 17.484375 21.921875 
Q 17.484375 14.15625 20.5 10.265625 
Q 23.53125 6.390625 29.59375 6.390625 
Q 36.859375 6.390625 41.078125 11.03125 
Q 45.3125 15.671875 45.3125 23.6875 
L 45.3125 54.6875 
L 54.296875 54.6875 
L 54.296875 0 
L 45.3125 0 
L 45.3125 8.40625 
Q 42.046875 3.421875 37.71875 1 
Q 33.40625 -1.421875 27.6875 -1.421875 
Q 18.265625 -1.421875 13.375 4.4375 
Q 8.5 10.296875 8.5 21.578125 
z
M 31.109375 56 
z
" id="DejaVuSans-117"/>
     <path d="M 52 44.1875 
Q 55.375 50.25 60.0625 53.125 
Q 64.75 56 71.09375 56 
Q 79.640625 56 84.28125 50.015625 
Q 88.921875 44.046875 88.921875 33.015625 
L 88.921875 0 
L 79.890625 0 
L 79.890625 32.71875 
Q 79.890625 40.578125 77.09375 44.375 
Q 74.3125 48.1875 68.609375 48.1875 
Q 61.625 48.1875 57.5625 43.546875 
Q 53.515625 38.921875 53.515625 30.90625 
L 53.515625 0 
L 44.484375 0 
L 44.484375 32.71875 
Q 44.484375 40.625 41.703125 44.40625 
Q 38.921875 48.1875 33.109375 48.1875 
Q 26.21875 48.1875 22.15625 43.53125 
Q 18.109375 38.875 18.109375 30.90625 
L 18.109375 0 
L 9.078125 0 
L 9.078125 54.6875 
L 18.109375 54.6875 
L 18.109375 46.1875 
Q 21.1875 51.21875 25.484375 53.609375 
Q 29.78125 56 35.6875 56 
Q 41.65625 56 45.828125 52.96875 
Q 50 49.953125 52 44.1875 
z
" id="DejaVuSans-109"/>
     <path d="M -0.296875 72.90625 
L 61.375 72.90625 
L 61.375 64.59375 
L 35.5 64.59375 
L 35.5 0 
L 25.59375 0 
L 25.59375 64.59375 
L -0.296875 64.59375 
z
" id="DejaVuSans-84"/>
     <path d="M 18.109375 8.203125 
L 18.109375 -20.796875 
L 9.078125 -20.796875 
L 9.078125 54.6875 
L 18.109375 54.6875 
L 18.109375 46.390625 
Q 20.953125 51.265625 25.265625 53.625 
Q 29.59375 56 35.59375 56 
Q 45.5625 56 51.78125 48.09375 
Q 58.015625 40.1875 58.015625 27.296875 
Q 58.015625 14.40625 51.78125 6.484375 
Q 45.5625 -1.421875 35.59375 -1.421875 
Q 29.59375 -1.421875 25.265625 0.953125 
Q 20.953125 3.328125 18.109375 8.203125 
z
M 48.6875 27.296875 
Q 48.6875 37.203125 44.609375 42.84375 
Q 40.53125 48.484375 33.40625 48.484375 
Q 26.265625 48.484375 22.1875 42.84375 
Q 18.109375 37.203125 18.109375 27.296875 
Q 18.109375 17.390625 22.1875 11.75 
Q 26.265625 6.109375 33.40625 6.109375 
Q 40.53125 6.109375 44.609375 11.75 
Q 48.6875 17.390625 48.6875 27.296875 
z
" id="DejaVuSans-112"/>
    </defs>
    <g transform="translate(69.279019 37.0856)scale(0.12 -0.12)">
     <use xlink:href="#DejaVuSans-80"/>
     <use x="60.255859" xlink:href="#DejaVuSans-111"/>
     <use x="121.4375" xlink:href="#DejaVuSans-114"/>
     <use x="162.550781" xlink:href="#DejaVuSans-116"/>
     <use x="201.759766" xlink:href="#DejaVuSans-102"/>
     <use x="236.964844" xlink:href="#DejaVuSans-111"/>
     <use x="298.146484" xlink:href="#DejaVuSans-108"/>
     <use x="325.929688" xlink:href="#DejaVuSans-105"/>
     <use x="353.712891" xlink:href="#DejaVuSans-111"/>
     <use x="414.894531" xlink:href="#DejaVuSans-67"/>
     <use x="484.71875" xlink:href="#DejaVuSans-111"/>
     <use x="545.900391" xlink:href="#DejaVuSans-110"/>
     <use x="609.279297" xlink:href="#DejaVuSans-115"/>
     <use x="661.378906" xlink:href="#DejaVuSans-117"/>
     <use x="724.757812" xlink:href="#DejaVuSans-109"/>
     <use x="822.169922" xlink:href="#DejaVuSans-101"/>
     <use x="883.693359" xlink:href="#DejaVuSans-114"/>
     <use x="924.806641" xlink:href="#DejaVuSans-84"/>
     <use x="985.65625" xlink:href="#DejaVuSans-121"/>
     <use x="1044.835938" xlink:href="#DejaVuSans-112"/>
     <use x="1108.3125" xlink:href="#DejaVuSans-101"/>
    </g>
   </g>
  </g>
  <g id="axes_2">
   <g id="patch_7">
    <path d="M 283.084433 231.8 
L 411.923722 231.8 
L 411.923722 52.072 
L 283.084433 52.072 
z
" style="fill:#ffffff;"/>
   </g>
   <g id="matplotlib.axis_3">
    <g id="xtick_4">
     <g id="line2d_20">
      <path clip-path="url(#p9d9a4b5bb2)" d="M 288.940764 231.8 
L 288.940764 52.072 
" style="fill:none;stroke:#b0b0b0;stroke-linecap:square;stroke-width:0.8;"/>
     </g>
     <g id="line2d_21">
      <g>
       <use style="stroke:#000000;stroke-width:0.8;" x="288.940764" xlink:href="#mb75483ce15" y="231.8"/>
      </g>
     </g>
     <g id="text_12">
      <!-- 0 -->
      <g transform="translate(285.759514 246.398438)scale(0.1 -0.1)">
       <use xlink:href="#DejaVuSans-48"/>
      </g>
     </g>
    </g>
    <g id="xtick_5">
     <g id="line2d_22">
      <path clip-path="url(#p9d9a4b5bb2)" d="M 347.504077 231.8 
L 347.504077 52.072 
" style="fill:none;stroke:#b0b0b0;stroke-linecap:square;stroke-width:0.8;"/>
     </g>
     <g id="line2d_23">
      <g>
       <use style="stroke:#000000;stroke-width:0.8;" x="347.504077" xlink:href="#mb75483ce15" y="231.8"/>
      </g>
     </g>
     <g id="text_13">
      <!-- 5 -->
      <g transform="translate(344.322827 246.398438)scale(0.1 -0.1)">
       <use xlink:href="#DejaVuSans-53"/>
      </g>
     </g>
    </g>
    <g id="xtick_6">
     <g id="line2d_24">
      <path clip-path="url(#p9d9a4b5bb2)" d="M 406.06739 231.8 
L 406.06739 52.072 
" style="fill:none;stroke:#b0b0b0;stroke-linecap:square;stroke-width:0.8;"/>
     </g>
     <g id="line2d_25">
      <g>
       <use style="stroke:#000000;stroke-width:0.8;" x="406.06739" xlink:href="#mb75483ce15" y="231.8"/>
      </g>
     </g>
     <g id="text_14">
      <!-- 10 -->
      <g transform="translate(399.70489 246.398438)scale(0.1 -0.1)">
       <use xlink:href="#DejaVuSans-49"/>
       <use x="63.623047" xlink:href="#DejaVuSans-48"/>
      </g>
     </g>
    </g>
    <g id="text_15">
     <!-- M -->
     <g transform="translate(343.190015 260.076563)scale(0.1 -0.1)">
      <use xlink:href="#DejaVuSans-77"/>
     </g>
    </g>
   </g>
   <g id="matplotlib.axis_4">
    <g id="ytick_6">
     <g id="line2d_26">
      <path clip-path="url(#p9d9a4b5bb2)" d="M 283.084433 229.319675 
L 411.923722 229.319675 
" style="fill:none;stroke:#b0b0b0;stroke-linecap:square;stroke-width:0.8;"/>
     </g>
     <g id="line2d_27">
      <g>
       <use style="stroke:#000000;stroke-width:0.8;" x="283.084433" xlink:href="#mcf8a91dda1" y="229.319675"/>
      </g>
     </g>
     <g id="text_16">
      <!-- −0.020 -->
      <g transform="translate(239.076621 233.118894)scale(0.1 -0.1)">
       <use xlink:href="#DejaVuSans-8722"/>
       <use x="83.789062" xlink:href="#DejaVuSans-48"/>
       <use x="147.412109" xlink:href="#DejaVuSans-46"/>
       <use x="179.199219" xlink:href="#DejaVuSans-48"/>
       <use x="242.822266" xlink:href="#DejaVuSans-50"/>
       <use x="306.445312" xlink:href="#DejaVuSans-48"/>
      </g>
     </g>
    </g>
    <g id="ytick_7">
     <g id="line2d_28">
      <path clip-path="url(#p9d9a4b5bb2)" d="M 283.084433 187.05012 
L 411.923722 187.05012 
" style="fill:none;stroke:#b0b0b0;stroke-linecap:square;stroke-width:0.8;"/>
     </g>
     <g id="line2d_29">
      <g>
       <use style="stroke:#000000;stroke-width:0.8;" x="283.084433" xlink:href="#mcf8a91dda1" y="187.05012"/>
      </g>
     </g>
     <g id="text_17">
      <!-- −0.015 -->
      <g transform="translate(239.076621 190.849339)scale(0.1 -0.1)">
       <use xlink:href="#DejaVuSans-8722"/>
       <use x="83.789062" xlink:href="#DejaVuSans-48"/>
       <use x="147.412109" xlink:href="#DejaVuSans-46"/>
       <use x="179.199219" xlink:href="#DejaVuSans-48"/>
       <use x="242.822266" xlink:href="#DejaVuSans-49"/>
       <use x="306.445312" xlink:href="#DejaVuSans-53"/>
      </g>
     </g>
    </g>
    <g id="ytick_8">
     <g id="line2d_30">
      <path clip-path="url(#p9d9a4b5bb2)" d="M 283.084433 144.780565 
L 411.923722 144.780565 
" style="fill:none;stroke:#b0b0b0;stroke-linecap:square;stroke-width:0.8;"/>
     </g>
     <g id="line2d_31">
      <g>
       <use style="stroke:#000000;stroke-width:0.8;" x="283.084433" xlink:href="#mcf8a91dda1" y="144.780565"/>
      </g>
     </g>
     <g id="text_18">
      <!-- −0.010 -->
      <g transform="translate(239.076621 148.579784)scale(0.1 -0.1)">
       <use xlink:href="#DejaVuSans-8722"/>
       <use x="83.789062" xlink:href="#DejaVuSans-48"/>
       <use x="147.412109" xlink:href="#DejaVuSans-46"/>
       <use x="179.199219" xlink:href="#DejaVuSans-48"/>
       <use x="242.822266" xlink:href="#DejaVuSans-49"/>
       <use x="306.445312" xlink:href="#DejaVuSans-48"/>
      </g>
     </g>
    </g>
    <g id="ytick_9">
     <g id="line2d_32">
      <path clip-path="url(#p9d9a4b5bb2)" d="M 283.084433 102.51101 
L 411.923722 102.51101 
" style="fill:none;stroke:#b0b0b0;stroke-linecap:square;stroke-width:0.8;"/>
     </g>
     <g id="line2d_33">
      <g>
       <use style="stroke:#000000;stroke-width:0.8;" x="283.084433" xlink:href="#mcf8a91dda1" y="102.51101"/>
      </g>
     </g>
     <g id="text_19">
      <!-- −0.005 -->
      <g transform="translate(239.076621 106.310228)scale(0.1 -0.1)">
       <use xlink:href="#DejaVuSans-8722"/>
       <use x="83.789062" xlink:href="#DejaVuSans-48"/>
       <use x="147.412109" xlink:href="#DejaVuSans-46"/>
       <use x="179.199219" xlink:href="#DejaVuSans-48"/>
       <use x="242.822266" xlink:href="#DejaVuSans-48"/>
       <use x="306.445312" xlink:href="#DejaVuSans-53"/>
      </g>
     </g>
    </g>
    <g id="ytick_10">
     <g id="line2d_34">
      <path clip-path="url(#p9d9a4b5bb2)" d="M 283.084433 60.241455 
L 411.923722 60.241455 
" style="fill:none;stroke:#b0b0b0;stroke-linecap:square;stroke-width:0.8;"/>
     </g>
     <g id="line2d_35">
      <g>
       <use style="stroke:#000000;stroke-width:0.8;" x="283.084433" xlink:href="#mcf8a91dda1" y="60.241455"/>
      </g>
     </g>
     <g id="text_20">
      <!-- 0.000 -->
      <g transform="translate(247.456308 64.040673)scale(0.1 -0.1)">
       <use xlink:href="#DejaVuSans-48"/>
       <use x="63.623047" xlink:href="#DejaVuSans-46"/>
       <use x="95.410156" xlink:href="#DejaVuSans-48"/>
       <use x="159.033203" xlink:href="#DejaVuSans-48"/>
       <use x="222.65625" xlink:href="#DejaVuSans-48"/>
      </g>
     </g>
    </g>
    <g id="text_21">
     <!-- Model C - Analytical C -->
     <g transform="translate(232.996933 196.645375)rotate(-90)scale(0.1 -0.1)">
      <use xlink:href="#DejaVuSans-77"/>
      <use x="86.279297" xlink:href="#DejaVuSans-111"/>
      <use x="147.460938" xlink:href="#DejaVuSans-100"/>
      <use x="210.9375" xlink:href="#DejaVuSans-101"/>
      <use x="272.460938" xlink:href="#DejaVuSans-108"/>
      <use x="300.244141" xlink:href="#DejaVuSans-32"/>
      <use x="332.03125" xlink:href="#DejaVuSans-67"/>
      <use x="401.855469" xlink:href="#DejaVuSans-32"/>
      <use x="433.642578" xlink:href="#DejaVuSans-45"/>
      <use x="469.726562" xlink:href="#DejaVuSans-32"/>
      <use x="501.513672" xlink:href="#DejaVuSans-65"/>
      <use x="569.921875" xlink:href="#DejaVuSans-110"/>
      <use x="633.300781" xlink:href="#DejaVuSans-97"/>
      <use x="694.580078" xlink:href="#DejaVuSans-108"/>
      <use x="722.363281" xlink:href="#DejaVuSans-121"/>
      <use x="781.542969" xlink:href="#DejaVuSans-116"/>
      <use x="820.751953" xlink:href="#DejaVuSans-105"/>
      <use x="848.535156" xlink:href="#DejaVuSans-99"/>
      <use x="903.515625" xlink:href="#DejaVuSans-97"/>
      <use x="964.794922" xlink:href="#DejaVuSans-108"/>
      <use x="992.578125" xlink:href="#DejaVuSans-32"/>
      <use x="1024.365234" xlink:href="#DejaVuSans-67"/>
     </g>
    </g>
   </g>
   <g id="line2d_36">
    <path clip-path="url(#p9d9a4b5bb2)" d="M 288.940764 60.241455 
L 290.123862 60.241455 
L 291.306959 60.241455 
L 292.490056 60.241455 
L 293.673153 60.241455 
L 294.856251 60.241455 
L 296.039348 60.241455 
L 297.222445 60.241455 
L 298.405542 60.241455 
L 299.588639 60.241455 
L 300.771737 99.003687 
L 301.954834 223.630545 
L 303.137931 178.432991 
L 304.321028 148.393189 
L 305.504126 126.420978 
L 306.687223 109.602862 
L 307.87032 96.62707 
L 309.053417 86.407756 
L 310.236515 78.411873 
L 311.419612 72.239744 
L 312.602709 67.585818 
L 313.785806 64.21251 
L 314.968903 61.932299 
L 316.152001 60.658312 
L 317.335098 60.241455 
L 318.518195 60.241455 
L 319.701292 60.241455 
L 320.88439 60.241455 
L 322.067487 60.241455 
L 323.250584 60.241455 
L 324.433681 60.241455 
L 325.616779 60.241455 
L 326.799876 60.241455 
L 327.982973 60.241455 
L 329.16607 60.241455 
L 330.349167 60.241455 
L 331.532265 60.241455 
L 332.715362 60.241455 
L 333.898459 60.241455 
L 335.081556 60.241455 
L 336.264654 60.241455 
L 337.447751 60.241455 
L 338.630848 60.241455 
L 339.813945 60.241455 
L 340.997043 60.241455 
L 342.18014 60.241455 
L 343.363237 60.241455 
L 344.546334 60.241455 
L 345.729432 60.241455 
L 346.912529 60.241455 
L 348.095626 60.241455 
L 349.278723 60.241455 
L 350.46182 60.241455 
L 351.644918 60.241455 
L 352.828015 60.241455 
L 354.011112 60.241455 
L 355.194209 60.241455 
L 356.377307 60.241455 
L 357.560404 60.241455 
L 358.743501 60.241455 
L 359.926598 60.241455 
L 361.109696 60.241455 
L 362.292793 60.241455 
L 363.47589 60.241455 
L 364.658987 60.241455 
L 365.842084 60.241455 
L 367.025182 60.241455 
L 368.208279 60.241455 
L 369.391376 60.241455 
L 370.574473 60.241455 
L 371.757571 60.241455 
L 372.940668 60.241455 
L 374.123765 60.241455 
L 375.306862 60.241455 
L 376.48996 60.241455 
L 377.673057 60.241455 
L 378.856154 60.241455 
L 380.039251 60.241455 
L 381.222348 60.241455 
L 382.405446 60.241455 
L 383.588543 60.241455 
L 384.77164 60.241455 
L 385.954737 60.241455 
L 387.137835 60.241455 
L 388.320932 60.241455 
L 389.504029 60.241455 
L 390.687126 60.241455 
L 391.870224 60.241455 
L 393.053321 60.241455 
L 394.236418 60.241455 
L 395.419515 60.241455 
L 396.602612 60.241455 
L 397.78571 60.241455 
L 398.968807 60.241455 
L 400.151904 60.241455 
L 401.335001 60.241455 
L 402.518099 60.241455 
L 403.701196 60.241455 
L 404.884293 60.241455 
L 406.06739 60.241455 
" style="fill:none;stroke:#1f77b4;stroke-linecap:square;stroke-width:1.5;"/>
   </g>
   <g id="line2d_37">
    <path clip-path="url(#p9d9a4b5bb2)" d="M 288.940764 60.241455 
L 290.123862 60.241455 
L 291.306959 60.241455 
L 292.490056 60.241455 
L 293.673153 60.241455 
L 294.856251 60.241455 
L 296.039348 60.241455 
L 297.222445 60.241455 
L 298.405542 60.241455 
L 299.588639 60.241455 
L 300.771737 60.241455 
L 301.954834 60.241455 
L 303.137931 60.241455 
L 304.321028 60.241455 
L 305.504126 60.241455 
L 306.687223 60.241455 
L 307.87032 60.241455 
L 309.053417 60.241455 
L 310.236515 60.241455 
L 311.419612 60.241455 
L 312.602709 60.241455 
L 313.785806 60.241455 
L 314.968903 60.241455 
L 316.152001 60.241455 
L 317.335098 60.241455 
L 318.518195 60.241455 
L 319.701292 60.241455 
L 320.88439 60.241455 
L 322.067487 60.241455 
L 323.250584 60.241455 
L 324.433681 60.241455 
L 325.616779 60.241455 
L 326.799876 60.241455 
L 327.982973 60.241455 
L 329.16607 60.241455 
L 330.349167 60.241455 
L 331.532265 60.241455 
L 332.715362 60.241455 
L 333.898459 60.241455 
L 335.081556 60.241455 
L 336.264654 60.241455 
L 337.447751 60.241455 
L 338.630848 60.241455 
L 339.813945 60.241455 
L 340.997043 60.241455 
L 342.18014 60.241455 
L 343.363237 60.241455 
L 344.546334 60.241455 
L 345.729432 60.241455 
L 346.912529 60.241455 
L 348.095626 60.241455 
L 349.278723 60.241455 
L 350.46182 60.241455 
L 351.644918 60.241455 
L 352.828015 60.241455 
L 354.011112 60.241455 
L 355.194209 60.241455 
L 356.377307 60.241455 
L 357.560404 60.241455 
L 358.743501 60.241455 
L 359.926598 60.241455 
L 361.109696 60.241455 
L 362.292793 60.241455 
L 363.47589 60.241455 
L 364.658987 60.241455 
L 365.842084 60.241455 
L 367.025182 60.241455 
L 368.208279 60.241455 
L 369.391376 60.241455 
L 370.574473 60.241455 
L 371.757571 60.241455 
L 372.940668 60.241455 
L 374.123765 60.241455 
L 375.306862 60.241455 
L 376.48996 60.241455 
L 377.673057 60.241455 
L 378.856154 60.241455 
L 380.039251 60.241455 
L 381.222348 60.241455 
L 382.405446 60.241455 
L 383.588543 60.241455 
L 384.77164 60.241455 
L 385.954737 60.241455 
L 387.137835 60.241455 
L 388.320932 60.241455 
L 389.504029 60.241455 
L 390.687126 60.241455 
L 391.870224 60.241455 
L 393.053321 60.241455 
L 394.236418 60.241455 
L 395.419515 60.241455 
L 396.602612 60.241455 
L 397.78571 60.241455 
L 398.968807 60.241455 
L 400.151904 60.241455 
L 401.335001 60.241455 
L 402.518099 60.241455 
L 403.701196 60.241455 
L 404.884293 60.241455 
L 406.06739 60.241455 
" style="fill:none;stroke:#ff7f0e;stroke-linecap:square;stroke-width:1.5;"/>
   </g>
   <g id="line2d_38">
    <path clip-path="url(#p9d9a4b5bb2)" d="M 288.940764 60.241455 
L 290.123862 60.241455 
L 291.306959 60.241455 
L 292.490056 60.241455 
L 293.673153 60.241455 
L 294.856251 60.241455 
L 296.039348 60.241455 
L 297.222445 60.241455 
L 298.405542 60.241455 
L 299.588639 60.241455 
L 300.771737 60.241455 
L 301.954834 60.241455 
L 303.137931 60.241455 
L 304.321028 60.241455 
L 305.504126 60.241455 
L 306.687223 60.241455 
L 307.87032 60.241455 
L 309.053417 60.241455 
L 310.236515 60.241455 
L 311.419612 60.241455 
L 312.602709 60.241455 
L 313.785806 60.241455 
L 314.968903 60.241455 
L 316.152001 60.241455 
L 317.335098 60.241455 
L 318.518195 60.241455 
L 319.701292 60.241455 
L 320.88439 60.241455 
L 322.067487 60.241455 
L 323.250584 60.241455 
L 324.433681 60.241455 
L 325.616779 60.241455 
L 326.799876 60.241455 
L 327.982973 60.241455 
L 329.16607 60.241455 
L 330.349167 60.241455 
L 331.532265 60.241455 
L 332.715362 60.241455 
L 333.898459 60.241455 
L 335.081556 60.241455 
L 336.264654 60.241455 
L 337.447751 60.241455 
L 338.630848 60.241455 
L 339.813945 60.241455 
L 340.997043 60.241455 
L 342.18014 60.241455 
L 343.363237 60.241455 
L 344.546334 60.241455 
L 345.729432 60.241455 
L 346.912529 60.241455 
L 348.095626 60.241455 
L 349.278723 60.241455 
L 350.46182 60.241455 
L 351.644918 60.241455 
L 352.828015 60.241455 
L 354.011112 60.241455 
L 355.194209 60.241455 
L 356.377307 60.241455 
L 357.560404 60.241455 
L 358.743501 60.241455 
L 359.926598 60.241455 
L 361.109696 60.241455 
L 362.292793 60.241455 
L 363.47589 60.241455 
L 364.658987 60.241455 
L 365.842084 60.241455 
L 367.025182 60.241455 
L 368.208279 60.241455 
L 369.391376 60.241455 
L 370.574473 60.241455 
L 371.757571 60.241455 
L 372.940668 60.241455 
L 374.123765 60.241455 
L 375.306862 60.241455 
L 376.48996 60.241455 
L 377.673057 60.241455 
L 378.856154 60.241455 
L 380.039251 60.241455 
L 381.222348 60.241455 
L 382.405446 60.241455 
L 383.588543 60.241455 
L 384.77164 60.241455 
L 385.954737 60.241455 
L 387.137835 60.241455 
L 388.320932 60.241455 
L 389.504029 60.241455 
L 390.687126 60.241455 
L 391.870224 60.241455 
L 393.053321 60.241455 
L 394.236418 60.241455 
L 395.419515 60.241455 
L 396.602612 60.241455 
L 397.78571 60.241455 
L 398.968807 60.241455 
L 400.151904 60.241455 
L 401.335001 60.241455 
L 402.518099 60.241455 
L 403.701196 60.241455 
L 404.884293 60.241455 
L 406.06739 60.241455 
" style="fill:none;stroke:#2ca02c;stroke-linecap:square;stroke-width:1.5;"/>
   </g>
   <g id="patch_8">
    <path d="M 283.084433 231.8 
L 283.084433 52.072 
" style="fill:none;stroke:#000000;stroke-linecap:square;stroke-linejoin:miter;stroke-width:0.8;"/>
   </g>
   <g id="patch_9">
    <path d="M 411.923722 231.8 
L 411.923722 52.072 
" style="fill:none;stroke:#000000;stroke-linecap:square;stroke-linejoin:miter;stroke-width:0.8;"/>
   </g>
   <g id="patch_10">
    <path d="M 283.084433 231.8 
L 411.923722 231.8 
" style="fill:none;stroke:#000000;stroke-linecap:square;stroke-linejoin:miter;stroke-width:0.8;"/>
   </g>
   <g id="patch_11">
    <path d="M 283.084433 52.072 
L 411.923722 52.072 
" style="fill:none;stroke:#000000;stroke-linecap:square;stroke-linejoin:miter;stroke-width:0.8;"/>
   </g>
   <g id="text_22">
    <!-- PerfForesightConsumerType -->
    <defs>
     <path d="M 9.8125 72.90625 
L 51.703125 72.90625 
L 51.703125 64.59375 
L 19.671875 64.59375 
L 19.671875 43.109375 
L 48.578125 43.109375 
L 48.578125 34.8125 
L 19.671875 34.8125 
L 19.671875 0 
L 9.8125 0 
z
" id="DejaVuSans-70"/>
     <path d="M 45.40625 27.984375 
Q 45.40625 37.75 41.375 43.109375 
Q 37.359375 48.484375 30.078125 48.484375 
Q 22.859375 48.484375 18.828125 43.109375 
Q 14.796875 37.75 14.796875 27.984375 
Q 14.796875 18.265625 18.828125 12.890625 
Q 22.859375 7.515625 30.078125 7.515625 
Q 37.359375 7.515625 41.375 12.890625 
Q 45.40625 18.265625 45.40625 27.984375 
z
M 54.390625 6.78125 
Q 54.390625 -7.171875 48.1875 -13.984375 
Q 42 -20.796875 29.203125 -20.796875 
Q 24.46875 -20.796875 20.265625 -20.09375 
Q 16.0625 -19.390625 12.109375 -17.921875 
L 12.109375 -9.1875 
Q 16.0625 -11.328125 19.921875 -12.34375 
Q 23.78125 -13.375 27.78125 -13.375 
Q 36.625 -13.375 41.015625 -8.765625 
Q 45.40625 -4.15625 45.40625 5.171875 
L 45.40625 9.625 
Q 42.625 4.78125 38.28125 2.390625 
Q 33.9375 0 27.875 0 
Q 17.828125 0 11.671875 7.65625 
Q 5.515625 15.328125 5.515625 27.984375 
Q 5.515625 40.671875 11.671875 48.328125 
Q 17.828125 56 27.875 56 
Q 33.9375 56 38.28125 53.609375 
Q 42.625 51.21875 45.40625 46.390625 
L 45.40625 54.6875 
L 54.390625 54.6875 
z
" id="DejaVuSans-103"/>
     <path d="M 54.890625 33.015625 
L 54.890625 0 
L 45.90625 0 
L 45.90625 32.71875 
Q 45.90625 40.484375 42.875 44.328125 
Q 39.84375 48.1875 33.796875 48.1875 
Q 26.515625 48.1875 22.3125 43.546875 
Q 18.109375 38.921875 18.109375 30.90625 
L 18.109375 0 
L 9.078125 0 
L 9.078125 75.984375 
L 18.109375 75.984375 
L 18.109375 46.1875 
Q 21.34375 51.125 25.703125 53.5625 
Q 30.078125 56 35.796875 56 
Q 45.21875 56 50.046875 50.171875 
Q 54.890625 44.34375 54.890625 33.015625 
z
" id="DejaVuSans-104"/>
    </defs>
    <g transform="translate(262.289077 37.0856)scale(0.12 -0.12)">
     <use xlink:href="#DejaVuSans-80"/>
     <use x="60.255859" xlink:href="#DejaVuSans-101"/>
     <use x="121.779297" xlink:href="#DejaVuSans-114"/>
     <use x="162.892578" xlink:href="#DejaVuSans-102"/>
     <use x="198.097656" xlink:href="#DejaVuSans-70"/>
     <use x="255.570312" xlink:href="#DejaVuSans-111"/>
     <use x="316.751953" xlink:href="#DejaVuSans-114"/>
     <use x="357.833984" xlink:href="#DejaVuSans-101"/>
     <use x="419.357422" xlink:href="#DejaVuSans-115"/>
     <use x="471.457031" xlink:href="#DejaVuSans-105"/>
     <use x="499.240234" xlink:href="#DejaVuSans-103"/>
     <use x="562.716797" xlink:href="#DejaVuSans-104"/>
     <use x="626.095703" xlink:href="#DejaVuSans-116"/>
     <use x="665.304688" xlink:href="#DejaVuSans-67"/>
     <use x="735.128906" xlink:href="#DejaVuSans-111"/>
     <use x="796.310547" xlink:href="#DejaVuSans-110"/>
     <use x="859.689453" xlink:href="#DejaVuSans-115"/>
     <use x="911.789062" xlink:href="#DejaVuSans-117"/>
     <use x="975.167969" xlink:href="#DejaVuSans-109"/>
     <use x="1072.580078" xlink:href="#DejaVuSans-101"/>
     <use x="1134.103516" xlink:href="#DejaVuSans-114"/>
     <use x="1175.216797" xlink:href="#DejaVuSans-84"/>
     <use x="1236.066406" xlink:href="#DejaVuSans-121"/>
     <use x="1295.246094" xlink:href="#DejaVuSans-112"/>
     <use x="1358.722656" xlink:href="#DejaVuSans-101"/>
    </g>
   </g>
   <g id="legend_1">
    <g id="patch_12">
     <path d="M 319.758097 226.8 
L 404.923722 226.8 
Q 406.923722 226.8 406.923722 224.8 
L 406.923722 181.765625 
Q 406.923722 179.765625 404.923722 179.765625 
L 319.758097 179.765625 
Q 317.758097 179.765625 317.758097 181.765625 
L 317.758097 224.8 
Q 317.758097 226.8 319.758097 226.8 
z
" style="fill:#ffffff;opacity:0.8;stroke:#cccccc;stroke-linejoin:miter;"/>
    </g>
    <g id="line2d_39">
     <path d="M 321.758097 187.864063 
L 341.758097 187.864063 
" style="fill:none;stroke:#1f77b4;stroke-linecap:square;stroke-width:1.5;"/>
    </g>
    <g id="line2d_40"/>
    <g id="text_23">
     <!-- Age = 60 -->
     <defs>
      <path d="M 10.59375 45.40625 
L 73.1875 45.40625 
L 73.1875 37.203125 
L 10.59375 37.203125 
z
M 10.59375 25.484375 
L 73.1875 25.484375 
L 73.1875 17.1875 
L 10.59375 17.1875 
z
" id="DejaVuSans-61"/>
      <path d="M 33.015625 40.375 
Q 26.375 40.375 22.484375 35.828125 
Q 18.609375 31.296875 18.609375 23.390625 
Q 18.609375 15.53125 22.484375 10.953125 
Q 26.375 6.390625 33.015625 6.390625 
Q 39.65625 6.390625 43.53125 10.953125 
Q 47.40625 15.53125 47.40625 23.390625 
Q 47.40625 31.296875 43.53125 35.828125 
Q 39.65625 40.375 33.015625 40.375 
z
M 52.59375 71.296875 
L 52.59375 62.3125 
Q 48.875 64.0625 45.09375 64.984375 
Q 41.3125 65.921875 37.59375 65.921875 
Q 27.828125 65.921875 22.671875 59.328125 
Q 17.53125 52.734375 16.796875 39.40625 
Q 19.671875 43.65625 24.015625 45.921875 
Q 28.375 48.1875 33.59375 48.1875 
Q 44.578125 48.1875 50.953125 41.515625 
Q 57.328125 34.859375 57.328125 23.390625 
Q 57.328125 12.15625 50.6875 5.359375 
Q 44.046875 -1.421875 33.015625 -1.421875 
Q 20.359375 -1.421875 13.671875 8.265625 
Q 6.984375 17.96875 6.984375 36.375 
Q 6.984375 53.65625 15.1875 63.9375 
Q 23.390625 74.21875 37.203125 74.21875 
Q 40.921875 74.21875 44.703125 73.484375 
Q 48.484375 72.75 52.59375 71.296875 
z
" id="DejaVuSans-54"/>
     </defs>
     <g transform="translate(349.758097 191.364063)scale(0.1 -0.1)">
      <use xlink:href="#DejaVuSans-65"/>
      <use x="68.408203" xlink:href="#DejaVuSans-103"/>
      <use x="131.884766" xlink:href="#DejaVuSans-101"/>
      <use x="193.408203" xlink:href="#DejaVuSans-32"/>
      <use x="225.195312" xlink:href="#DejaVuSans-61"/>
      <use x="308.984375" xlink:href="#DejaVuSans-32"/>
      <use x="340.771484" xlink:href="#DejaVuSans-54"/>
      <use x="404.394531" xlink:href="#DejaVuSans-48"/>
     </g>
    </g>
    <g id="line2d_41">
     <path d="M 321.758097 202.542188 
L 341.758097 202.542188 
" style="fill:none;stroke:#ff7f0e;stroke-linecap:square;stroke-width:1.5;"/>
    </g>
    <g id="line2d_42"/>
    <g id="text_24">
     <!-- Age = 99 -->
     <defs>
      <path d="M 10.984375 1.515625 
L 10.984375 10.5 
Q 14.703125 8.734375 18.5 7.8125 
Q 22.3125 6.890625 25.984375 6.890625 
Q 35.75 6.890625 40.890625 13.453125 
Q 46.046875 20.015625 46.78125 33.40625 
Q 43.953125 29.203125 39.59375 26.953125 
Q 35.25 24.703125 29.984375 24.703125 
Q 19.046875 24.703125 12.671875 31.3125 
Q 6.296875 37.9375 6.296875 49.421875 
Q 6.296875 60.640625 12.9375 67.421875 
Q 19.578125 74.21875 30.609375 74.21875 
Q 43.265625 74.21875 49.921875 64.515625 
Q 56.59375 54.828125 56.59375 36.375 
Q 56.59375 19.140625 48.40625 8.859375 
Q 40.234375 -1.421875 26.421875 -1.421875 
Q 22.703125 -1.421875 18.890625 -0.6875 
Q 15.09375 0.046875 10.984375 1.515625 
z
M 30.609375 32.421875 
Q 37.25 32.421875 41.125 36.953125 
Q 45.015625 41.5 45.015625 49.421875 
Q 45.015625 57.28125 41.125 61.84375 
Q 37.25 66.40625 30.609375 66.40625 
Q 23.96875 66.40625 20.09375 61.84375 
Q 16.21875 57.28125 16.21875 49.421875 
Q 16.21875 41.5 20.09375 36.953125 
Q 23.96875 32.421875 30.609375 32.421875 
z
" id="DejaVuSans-57"/>
     </defs>
     <g transform="translate(349.758097 206.042188)scale(0.1 -0.1)">
      <use xlink:href="#DejaVuSans-65"/>
      <use x="68.408203" xlink:href="#DejaVuSans-103"/>
      <use x="131.884766" xlink:href="#DejaVuSans-101"/>
      <use x="193.408203" xlink:href="#DejaVuSans-32"/>
      <use x="225.195312" xlink:href="#DejaVuSans-61"/>
      <use x="308.984375" xlink:href="#DejaVuSans-32"/>
      <use x="340.771484" xlink:href="#DejaVuSans-57"/>
      <use x="404.394531" xlink:href="#DejaVuSans-57"/>
     </g>
    </g>
    <g id="line2d_43">
     <path d="M 321.758097 217.220313 
L 341.758097 217.220313 
" style="fill:none;stroke:#2ca02c;stroke-linecap:square;stroke-width:1.5;"/>
    </g>
    <g id="line2d_44"/>
    <g id="text_25">
     <!-- Age = 100 -->
     <g transform="translate(349.758097 220.720313)scale(0.1 -0.1)">
      <use xlink:href="#DejaVuSans-65"/>
      <use x="68.408203" xlink:href="#DejaVuSans-103"/>
      <use x="131.884766" xlink:href="#DejaVuSans-101"/>
      <use x="193.408203" xlink:href="#DejaVuSans-32"/>
      <use x="225.195312" xlink:href="#DejaVuSans-61"/>
      <use x="308.984375" xlink:href="#DejaVuSans-32"/>
      <use x="340.771484" xlink:href="#DejaVuSans-49"/>
      <use x="404.394531" xlink:href="#DejaVuSans-48"/>
      <use x="468.017578" xlink:href="#DejaVuSans-48"/>
     </g>
    </g>
   </g>
  </g>
  <g id="text_26">
   <!-- Consumption Comparisons with True Solution -->
   <defs>
    <path d="M 4.203125 54.6875 
L 13.1875 54.6875 
L 24.421875 12.015625 
L 35.59375 54.6875 
L 46.1875 54.6875 
L 57.421875 12.015625 
L 68.609375 54.6875 
L 77.59375 54.6875 
L 63.28125 0 
L 52.6875 0 
L 40.921875 44.828125 
L 29.109375 0 
L 18.5 0 
z
" id="DejaVuSans-119"/>
    <path d="M 53.515625 70.515625 
L 53.515625 60.890625 
Q 47.90625 63.578125 42.921875 64.890625 
Q 37.9375 66.21875 33.296875 66.21875 
Q 25.25 66.21875 20.875 63.09375 
Q 16.5 59.96875 16.5 54.203125 
Q 16.5 49.359375 19.40625 46.890625 
Q 22.3125 44.4375 30.421875 42.921875 
L 36.375 41.703125 
Q 47.40625 39.59375 52.65625 34.296875 
Q 57.90625 29 57.90625 20.125 
Q 57.90625 9.515625 50.796875 4.046875 
Q 43.703125 -1.421875 29.984375 -1.421875 
Q 24.8125 -1.421875 18.96875 -0.25 
Q 13.140625 0.921875 6.890625 3.21875 
L 6.890625 13.375 
Q 12.890625 10.015625 18.65625 8.296875 
Q 24.421875 6.59375 29.984375 6.59375 
Q 38.421875 6.59375 43.015625 9.90625 
Q 47.609375 13.234375 47.609375 19.390625 
Q 47.609375 24.75 44.3125 27.78125 
Q 41.015625 30.8125 33.5 32.328125 
L 27.484375 33.5 
Q 16.453125 35.6875 11.515625 40.375 
Q 6.59375 45.0625 6.59375 53.421875 
Q 6.59375 63.09375 13.40625 68.65625 
Q 20.21875 74.21875 32.171875 74.21875 
Q 37.3125 74.21875 42.625 73.28125 
Q 47.953125 72.359375 53.515625 70.515625 
z
" id="DejaVuSans-83"/>
   </defs>
   <g transform="translate(78.801563 14.878125)scale(0.12 -0.12)">
    <use xlink:href="#DejaVuSans-67"/>
    <use x="69.824219" xlink:href="#DejaVuSans-111"/>
    <use x="131.005859" xlink:href="#DejaVuSans-110"/>
    <use x="194.384766" xlink:href="#DejaVuSans-115"/>
    <use x="246.484375" xlink:href="#DejaVuSans-117"/>
    <use x="309.863281" xlink:href="#DejaVuSans-109"/>
    <use x="407.275391" xlink:href="#DejaVuSans-112"/>
    <use x="470.751953" xlink:href="#DejaVuSans-116"/>
    <use x="509.960938" xlink:href="#DejaVuSans-105"/>
    <use x="537.744141" xlink:href="#DejaVuSans-111"/>
    <use x="598.925781" xlink:href="#DejaVuSans-110"/>
    <use x="662.304688" xlink:href="#DejaVuSans-32"/>
    <use x="694.091797" xlink:href="#DejaVuSans-67"/>
    <use x="763.916016" xlink:href="#DejaVuSans-111"/>
    <use x="825.097656" xlink:href="#DejaVuSans-109"/>
    <use x="922.509766" xlink:href="#DejaVuSans-112"/>
    <use x="985.986328" xlink:href="#DejaVuSans-97"/>
    <use x="1047.265625" xlink:href="#DejaVuSans-114"/>
    <use x="1088.378906" xlink:href="#DejaVuSans-105"/>
    <use x="1116.162109" xlink:href="#DejaVuSans-115"/>
    <use x="1168.261719" xlink:href="#DejaVuSans-111"/>
    <use x="1229.443359" xlink:href="#DejaVuSans-110"/>
    <use x="1292.822266" xlink:href="#DejaVuSans-115"/>
    <use x="1344.921875" xlink:href="#DejaVuSans-32"/>
    <use x="1376.708984" xlink:href="#DejaVuSans-119"/>
    <use x="1458.496094" xlink:href="#DejaVuSans-105"/>
    <use x="1486.279297" xlink:href="#DejaVuSans-116"/>
    <use x="1525.488281" xlink:href="#DejaVuSans-104"/>
    <use x="1588.867188" xlink:href="#DejaVuSans-32"/>
    <use x="1620.654297" xlink:href="#DejaVuSans-84"/>
    <use x="1681.519531" xlink:href="#DejaVuSans-114"/>
    <use x="1722.632812" xlink:href="#DejaVuSans-117"/>
    <use x="1786.011719" xlink:href="#DejaVuSans-101"/>
    <use x="1847.535156" xlink:href="#DejaVuSans-32"/>
    <use x="1879.322266" xlink:href="#DejaVuSans-83"/>
    <use x="1942.798828" xlink:href="#DejaVuSans-111"/>
    <use x="2003.980469" xlink:href="#DejaVuSans-108"/>
    <use x="2031.763672" xlink:href="#DejaVuSans-117"/>
    <use x="2095.142578" xlink:href="#DejaVuSans-116"/>
    <use x="2134.351562" xlink:href="#DejaVuSans-105"/>
    <use x="2162.134766" xlink:href="#DejaVuSans-111"/>
    <use x="2223.316406" xlink:href="#DejaVuSans-110"/>
   </g>
  </g>
 </g>
 <defs>
  <clipPath id="p99123e821e">
   <rect height="179.728" width="128.839288" x="75.05" y="52.072"/>
  </clipPath>
  <clipPath id="p9d9a4b5bb2">
   <rect height="179.728" width="128.839288" x="283.084433" y="52.072"/>
  </clipPath>
 </defs>
</svg>
