<?xml version="1.0" encoding="utf-8" standalone="no"?>
<!DOCTYPE svg PUBLIC "-//W3C//DTD SVG 1.1//EN"
  "http://www.w3.org/Graphics/SVG/1.1/DTD/svg11.dtd">
<!-- Created with matplotlib (https://matplotlib.org/) -->
<svg height="345.6pt" version="1.1" viewBox="0 0 460.8 345.6" width="460.8pt" xmlns="http://www.w3.org/2000/svg" xmlns:xlink="http://www.w3.org/1999/xlink">
 <defs>
  <style type="text/css">
*{stroke-linecap:butt;stroke-linejoin:round;}
  </style>
 </defs>
 <g id="figure_1">
  <g id="patch_1">
   <path d="M 0 345.6 
L 460.8 345.6 
L 460.8 0 
L 0 0 
z
" style="fill:#ffffff;"/>
  </g>
  <g id="axes_1">
   <g id="patch_2">
    <path d="M 33.64 283.16 
L 137.337333 283.16 
L 137.337333 42.72 
L 33.64 42.72 
z
" style="fill:#ffffff;"/>
   </g>
   <g id="matplotlib.axis_1">
    <g id="xtick_1">
     <g id="line2d_1">
      <path clip-path="url(#p9fee0be95a)" d="M 38.353515 283.16 
L 38.353515 42.72 
" style="fill:none;stroke:#b0b0b0;stroke-linecap:square;stroke-width:0.8;"/>
     </g>
     <g id="line2d_2">
      <defs>
       <path d="M 0 0 
L 0 3.5 
" id="m38ab1bb001" style="stroke:#000000;stroke-width:0.8;"/>
      </defs>
      <g>
       <use style="stroke:#000000;stroke-width:0.8;" x="38.353515" xlink:href="#m38ab1bb001" y="283.16"/>
      </g>
     </g>
     <g id="text_1">
      <!-- 0 -->
      <defs>
       <path d="M 31.78125 66.40625 
Q 24.171875 66.40625 20.328125 58.90625 
Q 16.5 51.421875 16.5 36.375 
Q 16.5 21.390625 20.328125 13.890625 
Q 24.171875 6.390625 31.78125 6.390625 
Q 39.453125 6.390625 43.28125 13.890625 
Q 47.125 21.390625 47.125 36.375 
Q 47.125 51.421875 43.28125 58.90625 
Q 39.453125 66.40625 31.78125 66.40625 
z
M 31.78125 74.21875 
Q 44.046875 74.21875 50.515625 64.515625 
Q 56.984375 54.828125 56.984375 36.375 
Q 56.984375 17.96875 50.515625 8.265625 
Q 44.046875 -1.421875 31.78125 -1.421875 
Q 19.53125 -1.421875 13.0625 8.265625 
Q 6.59375 17.96875 6.59375 36.375 
Q 6.59375 54.828125 13.0625 64.515625 
Q 19.53125 74.21875 31.78125 74.21875 
z
" id="DejaVuSans-48"/>
      </defs>
      <g transform="translate(35.172265 297.758437)scale(0.1 -0.1)">
       <use xlink:href="#DejaVuSans-48"/>
      </g>
     </g>
    </g>
    <g id="xtick_2">
     <g id="line2d_3">
      <path clip-path="url(#p9fee0be95a)" d="M 85.488666 283.16 
L 85.488666 42.72 
" style="fill:none;stroke:#b0b0b0;stroke-linecap:square;stroke-width:0.8;"/>
     </g>
     <g id="line2d_4">
      <g>
       <use style="stroke:#000000;stroke-width:0.8;" x="85.488666" xlink:href="#m38ab1bb001" y="283.16"/>
      </g>
     </g>
     <g id="text_2">
      <!-- 5 -->
      <defs>
       <path d="M 10.796875 72.90625 
L 49.515625 72.90625 
L 49.515625 64.59375 
L 19.828125 64.59375 
L 19.828125 46.734375 
Q 21.96875 47.46875 24.109375 47.828125 
Q 26.265625 48.1875 28.421875 48.1875 
Q 40.625 48.1875 47.75 41.5 
Q 54.890625 34.8125 54.890625 23.390625 
Q 54.890625 11.625 47.5625 5.09375 
Q 40.234375 -1.421875 26.90625 -1.421875 
Q 22.3125 -1.421875 17.546875 -0.640625 
Q 12.796875 0.140625 7.71875 1.703125 
L 7.71875 11.625 
Q 12.109375 9.234375 16.796875 8.0625 
Q 21.484375 6.890625 26.703125 6.890625 
Q 35.15625 6.890625 40.078125 11.328125 
Q 45.015625 15.765625 45.015625 23.390625 
Q 45.015625 31 40.078125 35.4375 
Q 35.15625 39.890625 26.703125 39.890625 
Q 22.75 39.890625 18.8125 39.015625 
Q 14.890625 38.140625 10.796875 36.28125 
z
" id="DejaVuSans-53"/>
      </defs>
      <g transform="translate(82.307416 297.758437)scale(0.1 -0.1)">
       <use xlink:href="#DejaVuSans-53"/>
      </g>
     </g>
    </g>
    <g id="xtick_3">
     <g id="line2d_5">
      <path clip-path="url(#p9fee0be95a)" d="M 132.623818 283.16 
L 132.623818 42.72 
" style="fill:none;stroke:#b0b0b0;stroke-linecap:square;stroke-width:0.8;"/>
     </g>
     <g id="line2d_6">
      <g>
       <use style="stroke:#000000;stroke-width:0.8;" x="132.623818" xlink:href="#m38ab1bb001" y="283.16"/>
      </g>
     </g>
     <g id="text_3">
      <!-- 10 -->
      <defs>
       <path d="M 12.40625 8.296875 
L 28.515625 8.296875 
L 28.515625 63.921875 
L 10.984375 60.40625 
L 10.984375 69.390625 
L 28.421875 72.90625 
L 38.28125 72.90625 
L 38.28125 8.296875 
L 54.390625 8.296875 
L 54.390625 0 
L 12.40625 0 
z
" id="DejaVuSans-49"/>
      </defs>
      <g transform="translate(126.261318 297.758437)scale(0.1 -0.1)">
       <use xlink:href="#DejaVuSans-49"/>
       <use x="63.623047" xlink:href="#DejaVuSans-48"/>
      </g>
     </g>
    </g>
    <g id="text_4">
     <!-- M -->
     <defs>
      <path d="M 9.8125 72.90625 
L 24.515625 72.90625 
L 43.109375 23.296875 
L 61.8125 72.90625 
L 76.515625 72.90625 
L 76.515625 0 
L 66.890625 0 
L 66.890625 64.015625 
L 48.09375 14.015625 
L 38.1875 14.015625 
L 19.390625 64.015625 
L 19.390625 0 
L 9.8125 0 
z
" id="DejaVuSans-77"/>
     </defs>
     <g transform="translate(81.174604 311.436562)scale(0.1 -0.1)">
      <use xlink:href="#DejaVuSans-77"/>
     </g>
    </g>
   </g>
   <g id="matplotlib.axis_2">
    <g id="ytick_1">
     <g id="line2d_7">
      <path clip-path="url(#p9fee0be95a)" d="M 33.64 272.230909 
L 137.337333 272.230909 
" style="fill:none;stroke:#b0b0b0;stroke-linecap:square;stroke-width:0.8;"/>
     </g>
     <g id="line2d_8">
      <defs>
       <path d="M 0 0 
L -3.5 0 
" id="m064df3d385" style="stroke:#000000;stroke-width:0.8;"/>
      </defs>
      <g>
       <use style="stroke:#000000;stroke-width:0.8;" x="33.64" xlink:href="#m064df3d385" y="272.230909"/>
      </g>
     </g>
     <g id="text_5">
      <!-- 0.0 -->
      <defs>
       <path d="M 10.6875 12.40625 
L 21 12.40625 
L 21 0 
L 10.6875 0 
z
" id="DejaVuSans-46"/>
      </defs>
      <g transform="translate(10.736875 276.030128)scale(0.1 -0.1)">
       <use xlink:href="#DejaVuSans-48"/>
       <use x="63.623047" xlink:href="#DejaVuSans-46"/>
       <use x="95.410156" xlink:href="#DejaVuSans-48"/>
      </g>
     </g>
    </g>
    <g id="ytick_2">
     <g id="line2d_9">
      <path clip-path="url(#p9fee0be95a)" d="M 33.64 239.79096 
L 137.337333 239.79096 
" style="fill:none;stroke:#b0b0b0;stroke-linecap:square;stroke-width:0.8;"/>
     </g>
     <g id="line2d_10">
      <g>
       <use style="stroke:#000000;stroke-width:0.8;" x="33.64" xlink:href="#m064df3d385" y="239.79096"/>
      </g>
     </g>
     <g id="text_6">
      <!-- 0.2 -->
      <defs>
       <path d="M 19.1875 8.296875 
L 53.609375 8.296875 
L 53.609375 0 
L 7.328125 0 
L 7.328125 8.296875 
Q 12.9375 14.109375 22.625 23.890625 
Q 32.328125 33.6875 34.8125 36.53125 
Q 39.546875 41.84375 41.421875 45.53125 
Q 43.3125 49.21875 43.3125 52.78125 
Q 43.3125 58.59375 39.234375 62.25 
Q 35.15625 65.921875 28.609375 65.921875 
Q 23.96875 65.921875 18.8125 64.3125 
Q 13.671875 62.703125 7.8125 59.421875 
L 7.8125 69.390625 
Q 13.765625 71.78125 18.9375 73 
Q 24.125 74.21875 28.421875 74.21875 
Q 39.75 74.21875 46.484375 68.546875 
Q 53.21875 62.890625 53.21875 53.421875 
Q 53.21875 48.921875 51.53125 44.890625 
Q 49.859375 40.875 45.40625 35.40625 
Q 44.1875 33.984375 37.640625 27.21875 
Q 31.109375 20.453125 19.1875 8.296875 
z
" id="DejaVuSans-50"/>
      </defs>
      <g transform="translate(10.736875 243.590179)scale(0.1 -0.1)">
       <use xlink:href="#DejaVuSans-48"/>
       <use x="63.623047" xlink:href="#DejaVuSans-46"/>
       <use x="95.410156" xlink:href="#DejaVuSans-50"/>
      </g>
     </g>
    </g>
    <g id="ytick_3">
     <g id="line2d_11">
      <path clip-path="url(#p9fee0be95a)" d="M 33.64 207.351011 
L 137.337333 207.351011 
" style="fill:none;stroke:#b0b0b0;stroke-linecap:square;stroke-width:0.8;"/>
     </g>
     <g id="line2d_12">
      <g>
       <use style="stroke:#000000;stroke-width:0.8;" x="33.64" xlink:href="#m064df3d385" y="207.351011"/>
      </g>
     </g>
     <g id="text_7">
      <!-- 0.4 -->
      <defs>
       <path d="M 37.796875 64.3125 
L 12.890625 25.390625 
L 37.796875 25.390625 
z
M 35.203125 72.90625 
L 47.609375 72.90625 
L 47.609375 25.390625 
L 58.015625 25.390625 
L 58.015625 17.1875 
L 47.609375 17.1875 
L 47.609375 0 
L 37.796875 0 
L 37.796875 17.1875 
L 4.890625 17.1875 
L 4.890625 26.703125 
z
" id="DejaVuSans-52"/>
      </defs>
      <g transform="translate(10.736875 211.150229)scale(0.1 -0.1)">
       <use xlink:href="#DejaVuSans-48"/>
       <use x="63.623047" xlink:href="#DejaVuSans-46"/>
       <use x="95.410156" xlink:href="#DejaVuSans-52"/>
      </g>
     </g>
    </g>
    <g id="ytick_4">
     <g id="line2d_13">
      <path clip-path="url(#p9fee0be95a)" d="M 33.64 174.911061 
L 137.337333 174.911061 
" style="fill:none;stroke:#b0b0b0;stroke-linecap:square;stroke-width:0.8;"/>
     </g>
     <g id="line2d_14">
      <g>
       <use style="stroke:#000000;stroke-width:0.8;" x="33.64" xlink:href="#m064df3d385" y="174.911061"/>
      </g>
     </g>
     <g id="text_8">
      <!-- 0.6 -->
      <defs>
       <path d="M 33.015625 40.375 
Q 26.375 40.375 22.484375 35.828125 
Q 18.609375 31.296875 18.609375 23.390625 
Q 18.609375 15.53125 22.484375 10.953125 
Q 26.375 6.390625 33.015625 6.390625 
Q 39.65625 6.390625 43.53125 10.953125 
Q 47.40625 15.53125 47.40625 23.390625 
Q 47.40625 31.296875 43.53125 35.828125 
Q 39.65625 40.375 33.015625 40.375 
z
M 52.59375 71.296875 
L 52.59375 62.3125 
Q 48.875 64.0625 45.09375 64.984375 
Q 41.3125 65.921875 37.59375 65.921875 
Q 27.828125 65.921875 22.671875 59.328125 
Q 17.53125 52.734375 16.796875 39.40625 
Q 19.671875 43.65625 24.015625 45.921875 
Q 28.375 48.1875 33.59375 48.1875 
Q 44.578125 48.1875 50.953125 41.515625 
Q 57.328125 34.859375 57.328125 23.390625 
Q 57.328125 12.15625 50.6875 5.359375 
Q 44.046875 -1.421875 33.015625 -1.421875 
Q 20.359375 -1.421875 13.671875 8.265625 
Q 6.984375 17.96875 6.984375 36.375 
Q 6.984375 53.65625 15.1875 63.9375 
Q 23.390625 74.21875 37.203125 74.21875 
Q 40.921875 74.21875 44.703125 73.484375 
Q 48.484375 72.75 52.59375 71.296875 
z
" id="DejaVuSans-54"/>
      </defs>
      <g transform="translate(10.736875 178.71028)scale(0.1 -0.1)">
       <use xlink:href="#DejaVuSans-48"/>
       <use x="63.623047" xlink:href="#DejaVuSans-46"/>
       <use x="95.410156" xlink:href="#DejaVuSans-54"/>
      </g>
     </g>
    </g>
    <g id="ytick_5">
     <g id="line2d_15">
      <path clip-path="url(#p9fee0be95a)" d="M 33.64 142.471112 
L 137.337333 142.471112 
" style="fill:none;stroke:#b0b0b0;stroke-linecap:square;stroke-width:0.8;"/>
     </g>
     <g id="line2d_16">
      <g>
       <use style="stroke:#000000;stroke-width:0.8;" x="33.64" xlink:href="#m064df3d385" y="142.471112"/>
      </g>
     </g>
     <g id="text_9">
      <!-- 0.8 -->
      <defs>
       <path d="M 31.78125 34.625 
Q 24.75 34.625 20.71875 30.859375 
Q 16.703125 27.09375 16.703125 20.515625 
Q 16.703125 13.921875 20.71875 10.15625 
Q 24.75 6.390625 31.78125 6.390625 
Q 38.8125 6.390625 42.859375 10.171875 
Q 46.921875 13.96875 46.921875 20.515625 
Q 46.921875 27.09375 42.890625 30.859375 
Q 38.875 34.625 31.78125 34.625 
z
M 21.921875 38.8125 
Q 15.578125 40.375 12.03125 44.71875 
Q 8.5 49.078125 8.5 55.328125 
Q 8.5 64.0625 14.71875 69.140625 
Q 20.953125 74.21875 31.78125 74.21875 
Q 42.671875 74.21875 48.875 69.140625 
Q 55.078125 64.0625 55.078125 55.328125 
Q 55.078125 49.078125 51.53125 44.71875 
Q 48 40.375 41.703125 38.8125 
Q 48.828125 37.15625 52.796875 32.3125 
Q 56.78125 27.484375 56.78125 20.515625 
Q 56.78125 9.90625 50.3125 4.234375 
Q 43.84375 -1.421875 31.78125 -1.421875 
Q 19.734375 -1.421875 13.25 4.234375 
Q 6.78125 9.90625 6.78125 20.515625 
Q 6.78125 27.484375 10.78125 32.3125 
Q 14.796875 37.15625 21.921875 38.8125 
z
M 18.3125 54.390625 
Q 18.3125 48.734375 21.84375 45.5625 
Q 25.390625 42.390625 31.78125 42.390625 
Q 38.140625 42.390625 41.71875 45.5625 
Q 45.3125 48.734375 45.3125 54.390625 
Q 45.3125 60.0625 41.71875 63.234375 
Q 38.140625 66.40625 31.78125 66.40625 
Q 25.390625 66.40625 21.84375 63.234375 
Q 18.3125 60.0625 18.3125 54.390625 
z
" id="DejaVuSans-56"/>
      </defs>
      <g transform="translate(10.736875 146.270331)scale(0.1 -0.1)">
       <use xlink:href="#DejaVuSans-48"/>
       <use x="63.623047" xlink:href="#DejaVuSans-46"/>
       <use x="95.410156" xlink:href="#DejaVuSans-56"/>
      </g>
     </g>
    </g>
    <g id="ytick_6">
     <g id="line2d_17">
      <path clip-path="url(#p9fee0be95a)" d="M 33.64 110.031163 
L 137.337333 110.031163 
" style="fill:none;stroke:#b0b0b0;stroke-linecap:square;stroke-width:0.8;"/>
     </g>
     <g id="line2d_18">
      <g>
       <use style="stroke:#000000;stroke-width:0.8;" x="33.64" xlink:href="#m064df3d385" y="110.031163"/>
      </g>
     </g>
     <g id="text_10">
      <!-- 1.0 -->
      <g transform="translate(10.736875 113.830381)scale(0.1 -0.1)">
       <use xlink:href="#DejaVuSans-49"/>
       <use x="63.623047" xlink:href="#DejaVuSans-46"/>
       <use x="95.410156" xlink:href="#DejaVuSans-48"/>
      </g>
     </g>
    </g>
    <g id="ytick_7">
     <g id="line2d_19">
      <path clip-path="url(#p9fee0be95a)" d="M 33.64 77.591213 
L 137.337333 77.591213 
" style="fill:none;stroke:#b0b0b0;stroke-linecap:square;stroke-width:0.8;"/>
     </g>
     <g id="line2d_20">
      <g>
       <use style="stroke:#000000;stroke-width:0.8;" x="33.64" xlink:href="#m064df3d385" y="77.591213"/>
      </g>
     </g>
     <g id="text_11">
      <!-- 1.2 -->
      <g transform="translate(10.736875 81.390432)scale(0.1 -0.1)">
       <use xlink:href="#DejaVuSans-49"/>
       <use x="63.623047" xlink:href="#DejaVuSans-46"/>
       <use x="95.410156" xlink:href="#DejaVuSans-50"/>
      </g>
     </g>
    </g>
    <g id="ytick_8">
     <g id="line2d_21">
      <path clip-path="url(#p9fee0be95a)" d="M 33.64 45.151264 
L 137.337333 45.151264 
" style="fill:none;stroke:#b0b0b0;stroke-linecap:square;stroke-width:0.8;"/>
     </g>
     <g id="line2d_22">
      <g>
       <use style="stroke:#000000;stroke-width:0.8;" x="33.64" xlink:href="#m064df3d385" y="45.151264"/>
      </g>
     </g>
     <g id="text_12">
      <!-- 1.4 -->
      <g transform="translate(10.736875 48.950483)scale(0.1 -0.1)">
       <use xlink:href="#DejaVuSans-49"/>
       <use x="63.623047" xlink:href="#DejaVuSans-46"/>
       <use x="95.410156" xlink:href="#DejaVuSans-52"/>
      </g>
     </g>
    </g>
    <g id="text_13">
     <!-- C -->
     <defs>
      <path d="M 64.40625 67.28125 
L 64.40625 56.890625 
Q 59.421875 61.53125 53.78125 63.8125 
Q 48.140625 66.109375 41.796875 66.109375 
Q 29.296875 66.109375 22.65625 58.46875 
Q 16.015625 50.828125 16.015625 36.375 
Q 16.015625 21.96875 22.65625 14.328125 
Q 29.296875 6.6875 41.796875 6.6875 
Q 48.140625 6.6875 53.78125 8.984375 
Q 59.421875 11.28125 64.40625 15.921875 
L 64.40625 5.609375 
Q 59.234375 2.09375 53.4375 0.328125 
Q 47.65625 -1.421875 41.21875 -1.421875 
Q 24.65625 -1.421875 15.125 8.703125 
Q 5.609375 18.84375 5.609375 36.375 
Q 5.609375 53.953125 15.125 64.078125 
Q 24.65625 74.21875 41.21875 74.21875 
Q 47.75 74.21875 53.53125 72.484375 
Q 59.328125 70.75 64.40625 67.28125 
z
" id="DejaVuSans-67"/>
     </defs>
     <g transform="translate(4.657187 166.431406)rotate(-90)scale(0.1 -0.1)">
      <use xlink:href="#DejaVuSans-67"/>
     </g>
    </g>
   </g>
   <g id="line2d_23">
    <path clip-path="url(#p9fee0be95a)" d="M 38.353515 272.230909 
L 39.30574 255.863429 
L 40.257966 239.495949 
L 41.210191 223.128469 
L 42.162416 206.760989 
L 43.114642 190.393509 
L 44.066867 174.026029 
L 45.019092 157.658549 
L 45.971317 141.291069 
L 46.923543 124.923589 
L 47.875768 109.336976 
L 48.827993 106.645915 
L 49.780218 105.157972 
L 50.732444 103.972641 
L 51.684669 102.946904 
L 52.636894 102.023037 
L 53.58912 101.170951 
L 54.541345 100.373554 
L 55.49357 99.618961 
L 56.445795 98.899194 
L 57.398021 98.209035 
L 58.350246 97.544149 
L 59.302471 96.900055 
L 60.254697 96.276546 
L 61.206922 95.668286 
L 62.159147 95.074459 
L 63.111372 94.492954 
L 64.063598 93.919955 
L 65.015823 93.352912 
L 65.968048 92.789618 
L 66.920274 92.228471 
L 67.872499 91.668501 
L 68.824724 91.109071 
L 69.776949 90.549818 
L 70.729175 89.990655 
L 71.6814 89.431538 
L 72.633625 88.872431 
L 73.58585 88.313328 
L 74.538076 87.754227 
L 75.490301 87.195126 
L 76.442526 86.636026 
L 77.394752 86.076925 
L 78.346977 85.517824 
L 79.299202 84.958724 
L 80.251427 84.399623 
L 81.203653 83.840523 
L 82.155878 83.281422 
L 83.108103 82.722321 
L 84.060329 82.163221 
L 85.012554 81.60412 
L 85.964779 81.04502 
L 86.917004 80.485919 
L 87.86923 79.926818 
L 88.821455 79.367718 
L 89.77368 78.808617 
L 90.725905 78.249517 
L 91.678131 77.690416 
L 92.630356 77.131316 
L 93.582581 76.572215 
L 94.534807 76.013114 
L 95.487032 75.454014 
L 96.439257 74.894913 
L 97.391482 74.335813 
L 98.343708 73.776712 
L 99.295933 73.217611 
L 100.248158 72.658511 
L 101.200384 72.09941 
L 102.152609 71.54031 
L 103.104834 70.981209 
L 104.057059 70.422108 
L 105.009285 69.863008 
L 105.96151 69.303907 
L 106.913735 68.744807 
L 107.865961 68.185706 
L 108.818186 67.626606 
L 109.770411 67.067505 
L 110.722636 66.508404 
L 111.674862 65.949304 
L 112.627087 65.390203 
L 113.579312 64.831103 
L 114.531537 64.272002 
L 115.483763 63.712901 
L 116.435988 63.153801 
L 117.388213 62.5947 
L 118.340439 62.0356 
L 119.292664 61.476499 
L 120.244889 60.917399 
L 121.197114 60.358298 
L 122.14934 59.799197 
L 123.101565 59.240097 
L 124.05379 58.680996 
L 125.006016 58.121896 
L 125.958241 57.562795 
L 126.910466 57.003694 
L 127.862691 56.444594 
L 128.814917 55.885493 
L 129.767142 55.326393 
L 130.719367 54.767292 
L 131.671592 54.208191 
L 132.623818 53.649091 
" style="fill:none;stroke:#1f77b4;stroke-linecap:square;stroke-width:1.5;"/>
   </g>
   <g id="line2d_24">
    <path clip-path="url(#p9fee0be95a)" d="M 38.353515 272.230909 
L 39.30574 255.847096 
L 40.257966 239.463284 
L 41.210191 223.079471 
L 42.162416 206.695658 
L 43.114642 190.311845 
L 44.066867 173.928033 
L 45.019092 157.54422 
L 45.971317 141.160407 
L 46.923543 124.776594 
L 47.875768 109.136487 
L 48.827993 106.565636 
L 49.780218 105.099493 
L 50.732444 103.924173 
L 51.684669 102.903641 
L 52.636894 101.981996 
L 53.58912 101.225065 
L 54.541345 100.665965 
L 55.49357 100.106864 
L 56.445795 99.547764 
L 57.398021 98.988663 
L 58.350246 98.429562 
L 59.302471 97.870462 
L 60.254697 97.311361 
L 61.206922 96.752261 
L 62.159147 96.19316 
L 63.111372 95.634059 
L 64.063598 95.074959 
L 65.015823 94.515858 
L 65.968048 93.956758 
L 66.920274 93.397657 
L 67.872499 92.838556 
L 68.824724 92.279456 
L 69.776949 91.720355 
L 70.729175 91.161255 
L 71.6814 90.602154 
L 72.633625 90.043054 
L 73.58585 89.483953 
L 74.538076 88.924852 
L 75.490301 88.365752 
L 76.442526 87.806651 
L 77.394752 87.247551 
L 78.346977 86.68845 
L 79.299202 86.129349 
L 80.251427 85.570249 
L 81.203653 85.011148 
L 82.155878 84.452048 
L 83.108103 83.892947 
L 84.060329 83.333847 
L 85.012554 82.774746 
L 85.964779 82.215645 
L 86.917004 81.656545 
L 87.86923 81.097444 
L 88.821455 80.538344 
L 89.77368 79.979243 
L 90.725905 79.420142 
L 91.678131 78.861042 
L 92.630356 78.301941 
L 93.582581 77.742841 
L 94.534807 77.18374 
L 95.487032 76.624639 
L 96.439257 76.065539 
L 97.391482 75.506438 
L 98.343708 74.947338 
L 99.295933 74.388237 
L 100.248158 73.829137 
L 101.200384 73.270036 
L 102.152609 72.710935 
L 103.104834 72.151835 
L 104.057059 71.592734 
L 105.009285 71.033634 
L 105.96151 70.474533 
L 106.913735 69.915432 
L 107.865961 69.356332 
L 108.818186 68.797231 
L 109.770411 68.238131 
L 110.722636 67.67903 
L 111.674862 67.11993 
L 112.627087 66.560829 
L 113.579312 66.001728 
L 114.531537 65.442628 
L 115.483763 64.883527 
L 116.435988 64.324427 
L 117.388213 63.765326 
L 118.340439 63.206225 
L 119.292664 62.647125 
L 120.244889 62.088024 
L 121.197114 61.528924 
L 122.14934 60.969823 
L 123.101565 60.410722 
L 124.05379 59.851622 
L 125.006016 59.292521 
L 125.958241 58.733421 
L 126.910466 58.17432 
L 127.862691 57.61522 
L 128.814917 57.056119 
L 129.767142 56.497018 
L 130.719367 55.937918 
L 131.671592 55.378817 
L 132.623818 54.819717 
" style="fill:none;stroke:#ff7f0e;stroke-linecap:square;stroke-width:1.5;"/>
   </g>
   <g id="line2d_25">
    <path clip-path="url(#p9fee0be95a)" d="M 38.353515 272.230909 
L 39.30574 255.847096 
L 40.257966 239.463284 
L 41.210191 223.079471 
L 42.162416 206.695658 
L 43.114642 190.311845 
L 44.066867 173.928033 
L 45.019092 157.54422 
L 45.971317 141.160407 
L 46.923543 124.776594 
L 47.875768 108.392781 
L 48.827993 102.849942 
L 49.780218 102.290842 
L 50.732444 101.731741 
L 51.684669 101.172641 
L 52.636894 100.61354 
L 53.58912 100.05444 
L 54.541345 99.495339 
L 55.49357 98.936238 
L 56.445795 98.377138 
L 57.398021 97.818037 
L 58.350246 97.258937 
L 59.302471 96.699836 
L 60.254697 96.140735 
L 61.206922 95.581635 
L 62.159147 95.022534 
L 63.111372 94.463434 
L 64.063598 93.904333 
L 65.015823 93.345233 
L 65.968048 92.786132 
L 66.920274 92.227031 
L 67.872499 91.667931 
L 68.824724 91.10883 
L 69.776949 90.54973 
L 70.729175 89.990629 
L 71.6814 89.431528 
L 72.633625 88.872428 
L 73.58585 88.313327 
L 74.538076 87.754227 
L 75.490301 87.195126 
L 76.442526 86.636025 
L 77.394752 86.076925 
L 78.346977 85.517824 
L 79.299202 84.958724 
L 80.251427 84.399623 
L 81.203653 83.840523 
L 82.155878 83.281422 
L 83.108103 82.722321 
L 84.060329 82.163221 
L 85.012554 81.60412 
L 85.964779 81.04502 
L 86.917004 80.485919 
L 87.86923 79.926818 
L 88.821455 79.367718 
L 89.77368 78.808617 
L 90.725905 78.249517 
L 91.678131 77.690416 
L 92.630356 77.131316 
L 93.582581 76.572215 
L 94.534807 76.013114 
L 95.487032 75.454014 
L 96.439257 74.894913 
L 97.391482 74.335813 
L 98.343708 73.776712 
L 99.295933 73.217611 
L 100.248158 72.658511 
L 101.200384 72.09941 
L 102.152609 71.54031 
L 103.104834 70.981209 
L 104.057059 70.422108 
L 105.009285 69.863008 
L 105.96151 69.303907 
L 106.913735 68.744807 
L 107.865961 68.185706 
L 108.818186 67.626606 
L 109.770411 67.067505 
L 110.722636 66.508404 
L 111.674862 65.949304 
L 112.627087 65.390203 
L 113.579312 64.831103 
L 114.531537 64.272002 
L 115.483763 63.712901 
L 116.435988 63.153801 
L 117.388213 62.5947 
L 118.340439 62.0356 
L 119.292664 61.476499 
L 120.244889 60.917399 
L 121.197114 60.358298 
L 122.14934 59.799197 
L 123.101565 59.240097 
L 124.05379 58.680996 
L 125.006016 58.121896 
L 125.958241 57.562795 
L 126.910466 57.003694 
L 127.862691 56.444594 
L 128.814917 55.885493 
L 129.767142 55.326393 
L 130.719367 54.767292 
L 131.671592 54.208191 
L 132.623818 53.649091 
" style="fill:none;stroke:#2ca02c;stroke-linecap:square;stroke-width:1.5;"/>
   </g>
   <g id="patch_3">
    <path d="M 33.64 283.16 
L 33.64 42.72 
" style="fill:none;stroke:#000000;stroke-linecap:square;stroke-linejoin:miter;stroke-width:0.8;"/>
   </g>
   <g id="patch_4">
    <path d="M 137.337333 283.16 
L 137.337333 42.72 
" style="fill:none;stroke:#000000;stroke-linecap:square;stroke-linejoin:miter;stroke-width:0.8;"/>
   </g>
   <g id="patch_5">
    <path d="M 33.64 283.16 
L 137.337333 283.16 
" style="fill:none;stroke:#000000;stroke-linecap:square;stroke-linejoin:miter;stroke-width:0.8;"/>
   </g>
   <g id="patch_6">
    <path d="M 33.64 42.72 
L 137.337333 42.72 
" style="fill:none;stroke:#000000;stroke-linecap:square;stroke-linejoin:miter;stroke-width:0.8;"/>
   </g>
   <g id="text_14">
    <!-- Age = 55 -->
    <defs>
     <path d="M 34.1875 63.1875 
L 20.796875 26.90625 
L 47.609375 26.90625 
z
M 28.609375 72.90625 
L 39.796875 72.90625 
L 67.578125 0 
L 57.328125 0 
L 50.6875 18.703125 
L 17.828125 18.703125 
L 11.1875 0 
L 0.78125 0 
z
" id="DejaVuSans-65"/>
     <path d="M 45.40625 27.984375 
Q 45.40625 37.75 41.375 43.109375 
Q 37.359375 48.484375 30.078125 48.484375 
Q 22.859375 48.484375 18.828125 43.109375 
Q 14.796875 37.75 14.796875 27.984375 
Q 14.796875 18.265625 18.828125 12.890625 
Q 22.859375 7.515625 30.078125 7.515625 
Q 37.359375 7.515625 41.375 12.890625 
Q 45.40625 18.265625 45.40625 27.984375 
z
M 54.390625 6.78125 
Q 54.390625 -7.171875 48.1875 -13.984375 
Q 42 -20.796875 29.203125 -20.796875 
Q 24.46875 -20.796875 20.265625 -20.09375 
Q 16.0625 -19.390625 12.109375 -17.921875 
L 12.109375 -9.1875 
Q 16.0625 -11.328125 19.921875 -12.34375 
Q 23.78125 -13.375 27.78125 -13.375 
Q 36.625 -13.375 41.015625 -8.765625 
Q 45.40625 -4.15625 45.40625 5.171875 
L 45.40625 9.625 
Q 42.625 4.78125 38.28125 2.390625 
Q 33.9375 0 27.875 0 
Q 17.828125 0 11.671875 7.65625 
Q 5.515625 15.328125 5.515625 27.984375 
Q 5.515625 40.671875 11.671875 48.328125 
Q 17.828125 56 27.875 56 
Q 33.9375 56 38.28125 53.609375 
Q 42.625 51.21875 45.40625 46.390625 
L 45.40625 54.6875 
L 54.390625 54.6875 
z
" id="DejaVuSans-103"/>
     <path d="M 56.203125 29.59375 
L 56.203125 25.203125 
L 14.890625 25.203125 
Q 15.484375 15.921875 20.484375 11.0625 
Q 25.484375 6.203125 34.421875 6.203125 
Q 39.59375 6.203125 44.453125 7.46875 
Q 49.3125 8.734375 54.109375 11.28125 
L 54.109375 2.78125 
Q 49.265625 0.734375 44.1875 -0.34375 
Q 39.109375 -1.421875 33.890625 -1.421875 
Q 20.796875 -1.421875 13.15625 6.1875 
Q 5.515625 13.8125 5.515625 26.8125 
Q 5.515625 40.234375 12.765625 48.109375 
Q 20.015625 56 32.328125 56 
Q 43.359375 56 49.78125 48.890625 
Q 56.203125 41.796875 56.203125 29.59375 
z
M 47.21875 32.234375 
Q 47.125 39.59375 43.09375 43.984375 
Q 39.0625 48.390625 32.421875 48.390625 
Q 24.90625 48.390625 20.390625 44.140625 
Q 15.875 39.890625 15.1875 32.171875 
z
" id="DejaVuSans-101"/>
     <path id="DejaVuSans-32"/>
     <path d="M 10.59375 45.40625 
L 73.1875 45.40625 
L 73.1875 37.203125 
L 10.59375 37.203125 
z
M 10.59375 25.484375 
L 73.1875 25.484375 
L 73.1875 17.1875 
L 10.59375 17.1875 
z
" id="DejaVuSans-61"/>
    </defs>
    <g transform="translate(57.406791 36.72)scale(0.12 -0.12)">
     <use xlink:href="#DejaVuSans-65"/>
     <use x="68.408203" xlink:href="#DejaVuSans-103"/>
     <use x="131.884766" xlink:href="#DejaVuSans-101"/>
     <use x="193.408203" xlink:href="#DejaVuSans-32"/>
     <use x="225.195312" xlink:href="#DejaVuSans-61"/>
     <use x="308.984375" xlink:href="#DejaVuSans-32"/>
     <use x="340.771484" xlink:href="#DejaVuSans-53"/>
     <use x="404.394531" xlink:href="#DejaVuSans-53"/>
    </g>
   </g>
  </g>
  <g id="axes_2">
   <g id="patch_7">
    <path d="M 189.185999 283.16 
L 292.883332 283.16 
L 292.883332 42.72 
L 189.185999 42.72 
z
" style="fill:#ffffff;"/>
   </g>
   <g id="matplotlib.axis_3">
    <g id="xtick_4">
     <g id="line2d_26">
      <path clip-path="url(#p81b97a9e13)" d="M 193.899514 283.16 
L 193.899514 42.72 
" style="fill:none;stroke:#b0b0b0;stroke-linecap:square;stroke-width:0.8;"/>
     </g>
     <g id="line2d_27">
      <g>
       <use style="stroke:#000000;stroke-width:0.8;" x="193.899514" xlink:href="#m38ab1bb001" y="283.16"/>
      </g>
     </g>
     <g id="text_15">
      <!-- 0 -->
      <g transform="translate(190.718264 297.758437)scale(0.1 -0.1)">
       <use xlink:href="#DejaVuSans-48"/>
      </g>
     </g>
    </g>
    <g id="xtick_5">
     <g id="line2d_28">
      <path clip-path="url(#p81b97a9e13)" d="M 241.034666 283.16 
L 241.034666 42.72 
" style="fill:none;stroke:#b0b0b0;stroke-linecap:square;stroke-width:0.8;"/>
     </g>
     <g id="line2d_29">
      <g>
       <use style="stroke:#000000;stroke-width:0.8;" x="241.034666" xlink:href="#m38ab1bb001" y="283.16"/>
      </g>
     </g>
     <g id="text_16">
      <!-- 5 -->
      <g transform="translate(237.853416 297.758437)scale(0.1 -0.1)">
       <use xlink:href="#DejaVuSans-53"/>
      </g>
     </g>
    </g>
    <g id="xtick_6">
     <g id="line2d_30">
      <path clip-path="url(#p81b97a9e13)" d="M 288.169817 283.16 
L 288.169817 42.72 
" style="fill:none;stroke:#b0b0b0;stroke-linecap:square;stroke-width:0.8;"/>
     </g>
     <g id="line2d_31">
      <g>
       <use style="stroke:#000000;stroke-width:0.8;" x="288.169817" xlink:href="#m38ab1bb001" y="283.16"/>
      </g>
     </g>
     <g id="text_17">
      <!-- 10 -->
      <g transform="translate(281.807317 297.758437)scale(0.1 -0.1)">
       <use xlink:href="#DejaVuSans-49"/>
       <use x="63.623047" xlink:href="#DejaVuSans-48"/>
      </g>
     </g>
    </g>
    <g id="text_18">
     <!-- M -->
     <g transform="translate(236.720603 311.436562)scale(0.1 -0.1)">
      <use xlink:href="#DejaVuSans-77"/>
     </g>
    </g>
   </g>
   <g id="matplotlib.axis_4">
    <g id="ytick_9">
     <g id="line2d_32">
      <path clip-path="url(#p81b97a9e13)" d="M 189.185999 272.230909 
L 292.883332 272.230909 
" style="fill:none;stroke:#b0b0b0;stroke-linecap:square;stroke-width:0.8;"/>
     </g>
     <g id="line2d_33">
      <g>
       <use style="stroke:#000000;stroke-width:0.8;" x="189.185999" xlink:href="#m064df3d385" y="272.230909"/>
      </g>
     </g>
     <g id="text_19">
      <!-- 0 -->
      <g transform="translate(175.823499 276.030128)scale(0.1 -0.1)">
       <use xlink:href="#DejaVuSans-48"/>
      </g>
     </g>
    </g>
    <g id="ytick_10">
     <g id="line2d_34">
      <path clip-path="url(#p81b97a9e13)" d="M 189.185999 232.849096 
L 292.883332 232.849096 
" style="fill:none;stroke:#b0b0b0;stroke-linecap:square;stroke-width:0.8;"/>
     </g>
     <g id="line2d_35">
      <g>
       <use style="stroke:#000000;stroke-width:0.8;" x="189.185999" xlink:href="#m064df3d385" y="232.849096"/>
      </g>
     </g>
     <g id="text_20">
      <!-- 1 -->
      <g transform="translate(175.823499 236.648314)scale(0.1 -0.1)">
       <use xlink:href="#DejaVuSans-49"/>
      </g>
     </g>
    </g>
    <g id="ytick_11">
     <g id="line2d_36">
      <path clip-path="url(#p81b97a9e13)" d="M 189.185999 193.467282 
L 292.883332 193.467282 
" style="fill:none;stroke:#b0b0b0;stroke-linecap:square;stroke-width:0.8;"/>
     </g>
     <g id="line2d_37">
      <g>
       <use style="stroke:#000000;stroke-width:0.8;" x="189.185999" xlink:href="#m064df3d385" y="193.467282"/>
      </g>
     </g>
     <g id="text_21">
      <!-- 2 -->
      <g transform="translate(175.823499 197.266501)scale(0.1 -0.1)">
       <use xlink:href="#DejaVuSans-50"/>
      </g>
     </g>
    </g>
    <g id="ytick_12">
     <g id="line2d_38">
      <path clip-path="url(#p81b97a9e13)" d="M 189.185999 154.085469 
L 292.883332 154.085469 
" style="fill:none;stroke:#b0b0b0;stroke-linecap:square;stroke-width:0.8;"/>
     </g>
     <g id="line2d_39">
      <g>
       <use style="stroke:#000000;stroke-width:0.8;" x="189.185999" xlink:href="#m064df3d385" y="154.085469"/>
      </g>
     </g>
     <g id="text_22">
      <!-- 3 -->
      <defs>
       <path d="M 40.578125 39.3125 
Q 47.65625 37.796875 51.625 33 
Q 55.609375 28.21875 55.609375 21.1875 
Q 55.609375 10.40625 48.1875 4.484375 
Q 40.765625 -1.421875 27.09375 -1.421875 
Q 22.515625 -1.421875 17.65625 -0.515625 
Q 12.796875 0.390625 7.625 2.203125 
L 7.625 11.71875 
Q 11.71875 9.328125 16.59375 8.109375 
Q 21.484375 6.890625 26.8125 6.890625 
Q 36.078125 6.890625 40.9375 10.546875 
Q 45.796875 14.203125 45.796875 21.1875 
Q 45.796875 27.640625 41.28125 31.265625 
Q 36.765625 34.90625 28.71875 34.90625 
L 20.21875 34.90625 
L 20.21875 43.015625 
L 29.109375 43.015625 
Q 36.375 43.015625 40.234375 45.921875 
Q 44.09375 48.828125 44.09375 54.296875 
Q 44.09375 59.90625 40.109375 62.90625 
Q 36.140625 65.921875 28.71875 65.921875 
Q 24.65625 65.921875 20.015625 65.03125 
Q 15.375 64.15625 9.8125 62.3125 
L 9.8125 71.09375 
Q 15.4375 72.65625 20.34375 73.4375 
Q 25.25 74.21875 29.59375 74.21875 
Q 40.828125 74.21875 47.359375 69.109375 
Q 53.90625 64.015625 53.90625 55.328125 
Q 53.90625 49.265625 50.4375 45.09375 
Q 46.96875 40.921875 40.578125 39.3125 
z
" id="DejaVuSans-51"/>
      </defs>
      <g transform="translate(175.823499 157.884688)scale(0.1 -0.1)">
       <use xlink:href="#DejaVuSans-51"/>
      </g>
     </g>
    </g>
    <g id="ytick_13">
     <g id="line2d_40">
      <path clip-path="url(#p81b97a9e13)" d="M 189.185999 114.703655 
L 292.883332 114.703655 
" style="fill:none;stroke:#b0b0b0;stroke-linecap:square;stroke-width:0.8;"/>
     </g>
     <g id="line2d_41">
      <g>
       <use style="stroke:#000000;stroke-width:0.8;" x="189.185999" xlink:href="#m064df3d385" y="114.703655"/>
      </g>
     </g>
     <g id="text_23">
      <!-- 4 -->
      <g transform="translate(175.823499 118.502874)scale(0.1 -0.1)">
       <use xlink:href="#DejaVuSans-52"/>
      </g>
     </g>
    </g>
    <g id="ytick_14">
     <g id="line2d_42">
      <path clip-path="url(#p81b97a9e13)" d="M 189.185999 75.321842 
L 292.883332 75.321842 
" style="fill:none;stroke:#b0b0b0;stroke-linecap:square;stroke-width:0.8;"/>
     </g>
     <g id="line2d_43">
      <g>
       <use style="stroke:#000000;stroke-width:0.8;" x="189.185999" xlink:href="#m064df3d385" y="75.321842"/>
      </g>
     </g>
     <g id="text_24">
      <!-- 5 -->
      <g transform="translate(175.823499 79.121061)scale(0.1 -0.1)">
       <use xlink:href="#DejaVuSans-53"/>
      </g>
     </g>
    </g>
    <g id="text_25">
     <!-- C -->
     <g transform="translate(169.743812 166.431406)rotate(-90)scale(0.1 -0.1)">
      <use xlink:href="#DejaVuSans-67"/>
     </g>
    </g>
   </g>
   <g id="line2d_44">
    <path clip-path="url(#p81b97a9e13)" d="M 193.899514 272.230909 
L 194.85174 268.25691 
L 195.803965 264.28291 
L 196.75619 260.308911 
L 197.708416 256.334912 
L 198.660641 252.360912 
L 199.612866 248.386913 
L 200.565091 244.412914 
L 201.517317 240.438914 
L 202.469542 236.464915 
L 203.421767 232.607041 
L 204.373993 230.596277 
L 205.326218 228.585514 
L 206.278443 226.57475 
L 207.230668 224.563987 
L 208.182894 222.553223 
L 209.135119 220.54246 
L 210.087344 218.531696 
L 211.039569 216.520933 
L 211.991795 214.510169 
L 212.94402 212.499406 
L 213.896245 210.488642 
L 214.848471 208.477879 
L 215.800696 206.467115 
L 216.752921 204.456352 
L 217.705146 202.445588 
L 218.657372 200.434825 
L 219.609597 198.424061 
L 220.561822 196.413298 
L 221.514048 194.402534 
L 222.466273 192.391771 
L 223.418498 190.381007 
L 224.370723 188.370244 
L 225.322949 186.359481 
L 226.275174 184.348717 
L 227.227399 182.337954 
L 228.179625 180.32719 
L 229.13185 178.316427 
L 230.084075 176.305663 
L 231.0363 174.2949 
L 231.988526 172.284136 
L 232.940751 170.273373 
L 233.892976 168.262609 
L 234.845201 166.251846 
L 235.797427 164.241082 
L 236.749652 162.230319 
L 237.701877 160.219555 
L 238.654103 158.208792 
L 239.606328 156.198028 
L 240.558553 154.187265 
L 241.510778 152.176501 
L 242.463004 150.165738 
L 243.415229 148.154974 
L 244.367454 146.144211 
L 245.31968 144.133447 
L 246.271905 142.122684 
L 247.22413 140.111921 
L 248.176355 138.101157 
L 249.128581 136.090394 
L 250.080806 134.07963 
L 251.033031 132.068867 
L 251.985256 130.058103 
L 252.937482 128.04734 
L 253.889707 126.036576 
L 254.841932 124.025813 
L 255.794158 122.015049 
L 256.746383 120.004286 
L 257.698608 117.993522 
L 258.650833 115.982759 
L 259.603059 113.971995 
L 260.555284 111.961232 
L 261.507509 109.950468 
L 262.459735 107.939705 
L 263.41196 105.928941 
L 264.364185 103.918178 
L 265.31641 101.907414 
L 266.268636 99.896651 
L 267.220861 97.885887 
L 268.173086 95.875124 
L 269.125312 93.86436 
L 270.077537 91.853597 
L 271.029762 89.842834 
L 271.981987 87.83207 
L 272.934213 85.821307 
L 273.886438 83.810543 
L 274.838663 81.79978 
L 275.790888 79.789016 
L 276.743114 77.778253 
L 277.695339 75.767489 
L 278.647564 73.756726 
L 279.59979 71.745962 
L 280.552015 69.735199 
L 281.50424 67.724435 
L 282.456465 65.713672 
L 283.408691 63.702908 
L 284.360916 61.692145 
L 285.313141 59.681381 
L 286.265367 57.670618 
L 287.217592 55.659854 
L 288.169817 53.649091 
" style="fill:none;stroke:#1f77b4;stroke-linecap:square;stroke-width:1.5;"/>
   </g>
   <g id="line2d_45">
    <path clip-path="url(#p81b97a9e13)" d="M 193.899514 272.230909 
L 194.85174 268.252948 
L 195.803965 264.274987 
L 196.75619 260.297026 
L 197.708416 256.319065 
L 198.660641 252.723144 
L 199.612866 250.71238 
L 200.565091 248.701617 
L 201.517317 246.690853 
L 202.469542 244.68009 
L 203.421767 242.669327 
L 204.373993 240.658563 
L 205.326218 238.6478 
L 206.278443 236.637036 
L 207.230668 234.626273 
L 208.182894 232.615509 
L 209.135119 230.604746 
L 210.087344 228.593982 
L 211.039569 226.583219 
L 211.991795 224.572455 
L 212.94402 222.561692 
L 213.896245 220.550928 
L 214.848471 218.540165 
L 215.800696 216.529401 
L 216.752921 214.518638 
L 217.705146 212.507874 
L 218.657372 210.497111 
L 219.609597 208.486347 
L 220.561822 206.475584 
L 221.514048 204.46482 
L 222.466273 202.454057 
L 223.418498 200.443293 
L 224.370723 198.43253 
L 225.322949 196.421767 
L 226.275174 194.411003 
L 227.227399 192.40024 
L 228.179625 190.389476 
L 229.13185 188.378713 
L 230.084075 186.367949 
L 231.0363 184.357186 
L 231.988526 182.346422 
L 232.940751 180.335659 
L 233.892976 178.324895 
L 234.845201 176.314132 
L 235.797427 174.303368 
L 236.749652 172.292605 
L 237.701877 170.281841 
L 238.654103 168.271078 
L 239.606328 166.260314 
L 240.558553 164.249551 
L 241.510778 162.238787 
L 242.463004 160.228024 
L 243.415229 158.21726 
L 244.367454 156.206497 
L 245.31968 154.195733 
L 246.271905 152.18497 
L 247.22413 150.174206 
L 248.176355 148.163443 
L 249.128581 146.15268 
L 250.080806 144.141916 
L 251.033031 142.131153 
L 251.985256 140.120389 
L 252.937482 138.109626 
L 253.889707 136.098862 
L 254.841932 134.088099 
L 255.794158 132.077335 
L 256.746383 130.066572 
L 257.698608 128.055808 
L 258.650833 126.045045 
L 259.603059 124.034281 
L 260.555284 122.023518 
L 261.507509 120.012754 
L 262.459735 118.001991 
L 263.41196 115.991227 
L 264.364185 113.980464 
L 265.31641 111.9697 
L 266.268636 109.958937 
L 267.220861 107.948173 
L 268.173086 105.93741 
L 269.125312 103.926646 
L 270.077537 101.915883 
L 271.029762 99.90512 
L 271.981987 97.894356 
L 272.934213 95.883593 
L 273.886438 93.872829 
L 274.838663 91.862066 
L 275.790888 89.851302 
L 276.743114 87.840539 
L 277.695339 85.829775 
L 278.647564 83.819012 
L 279.59979 81.808248 
L 280.552015 79.797485 
L 281.50424 77.786721 
L 282.456465 75.775958 
L 283.408691 73.765194 
L 284.360916 71.754431 
L 285.313141 69.743667 
L 286.265367 67.732904 
L 287.217592 65.72214 
L 288.169817 63.711377 
" style="fill:none;stroke:#ff7f0e;stroke-linecap:square;stroke-width:1.5;"/>
   </g>
   <g id="line2d_46">
    <path clip-path="url(#p81b97a9e13)" d="M 193.899514 272.230909 
L 194.85174 268.252948 
L 195.803965 264.274987 
L 196.75619 260.297026 
L 197.708416 256.319065 
L 198.660641 252.341104 
L 199.612866 248.363143 
L 200.565091 244.385182 
L 201.517317 240.407221 
L 202.469542 236.429261 
L 203.421767 232.607041 
L 204.373993 230.596277 
L 205.326218 228.585514 
L 206.278443 226.57475 
L 207.230668 224.563987 
L 208.182894 222.553223 
L 209.135119 220.54246 
L 210.087344 218.531696 
L 211.039569 216.520933 
L 211.991795 214.510169 
L 212.94402 212.499406 
L 213.896245 210.488642 
L 214.848471 208.477879 
L 215.800696 206.467115 
L 216.752921 204.456352 
L 217.705146 202.445588 
L 218.657372 200.434825 
L 219.609597 198.424061 
L 220.561822 196.413298 
L 221.514048 194.402534 
L 222.466273 192.391771 
L 223.418498 190.381007 
L 224.370723 188.370244 
L 225.322949 186.359481 
L 226.275174 184.348717 
L 227.227399 182.337954 
L 228.179625 180.32719 
L 229.13185 178.316427 
L 230.084075 176.305663 
L 231.0363 174.2949 
L 231.988526 172.284136 
L 232.940751 170.273373 
L 233.892976 168.262609 
L 234.845201 166.251846 
L 235.797427 164.241082 
L 236.749652 162.230319 
L 237.701877 160.219555 
L 238.654103 158.208792 
L 239.606328 156.198028 
L 240.558553 154.187265 
L 241.510778 152.176501 
L 242.463004 150.165738 
L 243.415229 148.154974 
L 244.367454 146.144211 
L 245.31968 144.133447 
L 246.271905 142.122684 
L 247.22413 140.111921 
L 248.176355 138.101157 
L 249.128581 136.090394 
L 250.080806 134.07963 
L 251.033031 132.068867 
L 251.985256 130.058103 
L 252.937482 128.04734 
L 253.889707 126.036576 
L 254.841932 124.025813 
L 255.794158 122.015049 
L 256.746383 120.004286 
L 257.698608 117.993522 
L 258.650833 115.982759 
L 259.603059 113.971995 
L 260.555284 111.961232 
L 261.507509 109.950468 
L 262.459735 107.939705 
L 263.41196 105.928941 
L 264.364185 103.918178 
L 265.31641 101.907414 
L 266.268636 99.896651 
L 267.220861 97.885887 
L 268.173086 95.875124 
L 269.125312 93.86436 
L 270.077537 91.853597 
L 271.029762 89.842834 
L 271.981987 87.83207 
L 272.934213 85.821307 
L 273.886438 83.810543 
L 274.838663 81.79978 
L 275.790888 79.789016 
L 276.743114 77.778253 
L 277.695339 75.767489 
L 278.647564 73.756726 
L 279.59979 71.745962 
L 280.552015 69.735199 
L 281.50424 67.724435 
L 282.456465 65.713672 
L 283.408691 63.702908 
L 284.360916 61.692145 
L 285.313141 59.681381 
L 286.265367 57.670618 
L 287.217592 55.659854 
L 288.169817 53.649091 
" style="fill:none;stroke:#2ca02c;stroke-linecap:square;stroke-width:1.5;"/>
   </g>
   <g id="patch_8">
    <path d="M 189.185999 283.16 
L 189.185999 42.72 
" style="fill:none;stroke:#000000;stroke-linecap:square;stroke-linejoin:miter;stroke-width:0.8;"/>
   </g>
   <g id="patch_9">
    <path d="M 292.883332 283.16 
L 292.883332 42.72 
" style="fill:none;stroke:#000000;stroke-linecap:square;stroke-linejoin:miter;stroke-width:0.8;"/>
   </g>
   <g id="patch_10">
    <path d="M 189.185999 283.16 
L 292.883332 283.16 
" style="fill:none;stroke:#000000;stroke-linecap:square;stroke-linejoin:miter;stroke-width:0.8;"/>
   </g>
   <g id="patch_11">
    <path d="M 189.185999 42.72 
L 292.883332 42.72 
" style="fill:none;stroke:#000000;stroke-linecap:square;stroke-linejoin:miter;stroke-width:0.8;"/>
   </g>
   <g id="text_26">
    <!-- Age = 99 -->
    <defs>
     <path d="M 10.984375 1.515625 
L 10.984375 10.5 
Q 14.703125 8.734375 18.5 7.8125 
Q 22.3125 6.890625 25.984375 6.890625 
Q 35.75 6.890625 40.890625 13.453125 
Q 46.046875 20.015625 46.78125 33.40625 
Q 43.953125 29.203125 39.59375 26.953125 
Q 35.25 24.703125 29.984375 24.703125 
Q 19.046875 24.703125 12.671875 31.3125 
Q 6.296875 37.9375 6.296875 49.421875 
Q 6.296875 60.640625 12.9375 67.421875 
Q 19.578125 74.21875 30.609375 74.21875 
Q 43.265625 74.21875 49.921875 64.515625 
Q 56.59375 54.828125 56.59375 36.375 
Q 56.59375 19.140625 48.40625 8.859375 
Q 40.234375 -1.421875 26.421875 -1.421875 
Q 22.703125 -1.421875 18.890625 -0.6875 
Q 15.09375 0.046875 10.984375 1.515625 
z
M 30.609375 32.421875 
Q 37.25 32.421875 41.125 36.953125 
Q 45.015625 41.5 45.015625 49.421875 
Q 45.015625 57.28125 41.125 61.84375 
Q 37.25 66.40625 30.609375 66.40625 
Q 23.96875 66.40625 20.09375 61.84375 
Q 16.21875 57.28125 16.21875 49.421875 
Q 16.21875 41.5 20.09375 36.953125 
Q 23.96875 32.421875 30.609375 32.421875 
z
" id="DejaVuSans-57"/>
    </defs>
    <g transform="translate(212.952791 36.72)scale(0.12 -0.12)">
     <use xlink:href="#DejaVuSans-65"/>
     <use x="68.408203" xlink:href="#DejaVuSans-103"/>
     <use x="131.884766" xlink:href="#DejaVuSans-101"/>
     <use x="193.408203" xlink:href="#DejaVuSans-32"/>
     <use x="225.195312" xlink:href="#DejaVuSans-61"/>
     <use x="308.984375" xlink:href="#DejaVuSans-32"/>
     <use x="340.771484" xlink:href="#DejaVuSans-57"/>
     <use x="404.394531" xlink:href="#DejaVuSans-57"/>
    </g>
   </g>
  </g>
  <g id="axes_3">
   <g id="patch_12">
    <path d="M 344.731999 283.16 
L 448.429332 283.16 
L 448.429332 42.72 
L 344.731999 42.72 
z
" style="fill:#ffffff;"/>
   </g>
   <g id="matplotlib.axis_5">
    <g id="xtick_7">
     <g id="line2d_47">
      <path clip-path="url(#p83f4ae3b83)" d="M 349.445514 283.16 
L 349.445514 42.72 
" style="fill:none;stroke:#b0b0b0;stroke-linecap:square;stroke-width:0.8;"/>
     </g>
     <g id="line2d_48">
      <g>
       <use style="stroke:#000000;stroke-width:0.8;" x="349.445514" xlink:href="#m38ab1bb001" y="283.16"/>
      </g>
     </g>
     <g id="text_27">
      <!-- 0 -->
      <g transform="translate(346.264264 297.758437)scale(0.1 -0.1)">
       <use xlink:href="#DejaVuSans-48"/>
      </g>
     </g>
    </g>
    <g id="xtick_8">
     <g id="line2d_49">
      <path clip-path="url(#p83f4ae3b83)" d="M 396.580665 283.16 
L 396.580665 42.72 
" style="fill:none;stroke:#b0b0b0;stroke-linecap:square;stroke-width:0.8;"/>
     </g>
     <g id="line2d_50">
      <g>
       <use style="stroke:#000000;stroke-width:0.8;" x="396.580665" xlink:href="#m38ab1bb001" y="283.16"/>
      </g>
     </g>
     <g id="text_28">
      <!-- 5 -->
      <g transform="translate(393.399415 297.758437)scale(0.1 -0.1)">
       <use xlink:href="#DejaVuSans-53"/>
      </g>
     </g>
    </g>
    <g id="xtick_9">
     <g id="line2d_51">
      <path clip-path="url(#p83f4ae3b83)" d="M 443.715816 283.16 
L 443.715816 42.72 
" style="fill:none;stroke:#b0b0b0;stroke-linecap:square;stroke-width:0.8;"/>
     </g>
     <g id="line2d_52">
      <g>
       <use style="stroke:#000000;stroke-width:0.8;" x="443.715816" xlink:href="#m38ab1bb001" y="283.16"/>
      </g>
     </g>
     <g id="text_29">
      <!-- 10 -->
      <g transform="translate(437.353316 297.758437)scale(0.1 -0.1)">
       <use xlink:href="#DejaVuSans-49"/>
       <use x="63.623047" xlink:href="#DejaVuSans-48"/>
      </g>
     </g>
    </g>
    <g id="text_30">
     <!-- M -->
     <g transform="translate(392.266603 311.436562)scale(0.1 -0.1)">
      <use xlink:href="#DejaVuSans-77"/>
     </g>
    </g>
   </g>
   <g id="matplotlib.axis_6">
    <g id="ytick_15">
     <g id="line2d_53">
      <path clip-path="url(#p83f4ae3b83)" d="M 344.731999 272.230909 
L 448.429332 272.230909 
" style="fill:none;stroke:#b0b0b0;stroke-linecap:square;stroke-width:0.8;"/>
     </g>
     <g id="line2d_54">
      <g>
       <use style="stroke:#000000;stroke-width:0.8;" x="344.731999" xlink:href="#m064df3d385" y="272.230909"/>
      </g>
     </g>
     <g id="text_31">
      <!-- 0 -->
      <g transform="translate(331.369499 276.030128)scale(0.1 -0.1)">
       <use xlink:href="#DejaVuSans-48"/>
      </g>
     </g>
    </g>
    <g id="ytick_16">
     <g id="line2d_55">
      <path clip-path="url(#p83f4ae3b83)" d="M 344.731999 228.514545 
L 448.429332 228.514545 
" style="fill:none;stroke:#b0b0b0;stroke-linecap:square;stroke-width:0.8;"/>
     </g>
     <g id="line2d_56">
      <g>
       <use style="stroke:#000000;stroke-width:0.8;" x="344.731999" xlink:href="#m064df3d385" y="228.514545"/>
      </g>
     </g>
     <g id="text_32">
      <!-- 2 -->
      <g transform="translate(331.369499 232.313764)scale(0.1 -0.1)">
       <use xlink:href="#DejaVuSans-50"/>
      </g>
     </g>
    </g>
    <g id="ytick_17">
     <g id="line2d_57">
      <path clip-path="url(#p83f4ae3b83)" d="M 344.731999 184.798182 
L 448.429332 184.798182 
" style="fill:none;stroke:#b0b0b0;stroke-linecap:square;stroke-width:0.8;"/>
     </g>
     <g id="line2d_58">
      <g>
       <use style="stroke:#000000;stroke-width:0.8;" x="344.731999" xlink:href="#m064df3d385" y="184.798182"/>
      </g>
     </g>
     <g id="text_33">
      <!-- 4 -->
      <g transform="translate(331.369499 188.597401)scale(0.1 -0.1)">
       <use xlink:href="#DejaVuSans-52"/>
      </g>
     </g>
    </g>
    <g id="ytick_18">
     <g id="line2d_59">
      <path clip-path="url(#p83f4ae3b83)" d="M 344.731999 141.081818 
L 448.429332 141.081818 
" style="fill:none;stroke:#b0b0b0;stroke-linecap:square;stroke-width:0.8;"/>
     </g>
     <g id="line2d_60">
      <g>
       <use style="stroke:#000000;stroke-width:0.8;" x="344.731999" xlink:href="#m064df3d385" y="141.081818"/>
      </g>
     </g>
     <g id="text_34">
      <!-- 6 -->
      <g transform="translate(331.369499 144.881037)scale(0.1 -0.1)">
       <use xlink:href="#DejaVuSans-54"/>
      </g>
     </g>
    </g>
    <g id="ytick_19">
     <g id="line2d_61">
      <path clip-path="url(#p83f4ae3b83)" d="M 344.731999 97.365455 
L 448.429332 97.365455 
" style="fill:none;stroke:#b0b0b0;stroke-linecap:square;stroke-width:0.8;"/>
     </g>
     <g id="line2d_62">
      <g>
       <use style="stroke:#000000;stroke-width:0.8;" x="344.731999" xlink:href="#m064df3d385" y="97.365455"/>
      </g>
     </g>
     <g id="text_35">
      <!-- 8 -->
      <g transform="translate(331.369499 101.164673)scale(0.1 -0.1)">
       <use xlink:href="#DejaVuSans-56"/>
      </g>
     </g>
    </g>
    <g id="ytick_20">
     <g id="line2d_63">
      <path clip-path="url(#p83f4ae3b83)" d="M 344.731999 53.649091 
L 448.429332 53.649091 
" style="fill:none;stroke:#b0b0b0;stroke-linecap:square;stroke-width:0.8;"/>
     </g>
     <g id="line2d_64">
      <g>
       <use style="stroke:#000000;stroke-width:0.8;" x="344.731999" xlink:href="#m064df3d385" y="53.649091"/>
      </g>
     </g>
     <g id="text_36">
      <!-- 10 -->
      <g transform="translate(325.006999 57.44831)scale(0.1 -0.1)">
       <use xlink:href="#DejaVuSans-49"/>
       <use x="63.623047" xlink:href="#DejaVuSans-48"/>
      </g>
     </g>
    </g>
    <g id="text_37">
     <!-- C -->
     <g transform="translate(318.927311 166.431406)rotate(-90)scale(0.1 -0.1)">
      <use xlink:href="#DejaVuSans-67"/>
     </g>
    </g>
   </g>
   <g id="line2d_65">
    <path clip-path="url(#p83f4ae3b83)" d="M 349.445514 272.230909 
L 350.397739 270.023012 
L 351.349964 267.815115 
L 352.30219 265.607218 
L 353.254415 263.39932 
L 354.20664 261.191423 
L 355.158865 258.983526 
L 356.111091 256.775629 
L 357.063316 254.567732 
L 358.015541 252.359835 
L 358.967767 250.151938 
L 359.919992 247.94404 
L 360.872217 245.736143 
L 361.824442 243.528246 
L 362.776668 241.320349 
L 363.728893 239.112452 
L 364.681118 236.904555 
L 365.633344 234.696657 
L 366.585569 232.48876 
L 367.537794 230.280863 
L 368.490019 228.072966 
L 369.442245 225.865069 
L 370.39447 223.657172 
L 371.346695 221.449275 
L 372.29892 219.241377 
L 373.251146 217.03348 
L 374.203371 214.825583 
L 375.155596 212.617686 
L 376.107822 210.409789 
L 377.060047 208.201892 
L 378.012272 205.993994 
L 378.964497 203.786097 
L 379.916723 201.5782 
L 380.868948 199.370303 
L 381.821173 197.162406 
L 382.773399 194.954509 
L 383.725624 192.746612 
L 384.677849 190.538714 
L 385.630074 188.330817 
L 386.5823 186.12292 
L 387.534525 183.915023 
L 388.48675 181.707126 
L 389.438976 179.499229 
L 390.391201 177.291331 
L 391.343426 175.083434 
L 392.295651 172.875537 
L 393.247877 170.66764 
L 394.200102 168.459743 
L 395.152327 166.251846 
L 396.104552 164.043949 
L 397.056778 161.836051 
L 398.009003 159.628154 
L 398.961228 157.420257 
L 399.913454 155.21236 
L 400.865679 153.004463 
L 401.817904 150.796566 
L 402.770129 148.588669 
L 403.722355 146.380771 
L 404.67458 144.172874 
L 405.626805 141.964977 
L 406.579031 139.75708 
L 407.531256 137.549183 
L 408.483481 135.341286 
L 409.435706 133.133388 
L 410.387932 130.925491 
L 411.340157 128.717594 
L 412.292382 126.509697 
L 413.244607 124.3018 
L 414.196833 122.093903 
L 415.149058 119.886006 
L 416.101283 117.678108 
L 417.053509 115.470211 
L 418.005734 113.262314 
L 418.957959 111.054417 
L 419.910184 108.84652 
L 420.86241 106.638623 
L 421.814635 104.430725 
L 422.76686 102.222828 
L 423.719086 100.014931 
L 424.671311 97.807034 
L 425.623536 95.599137 
L 426.575761 93.39124 
L 427.527987 91.183343 
L 428.480212 88.975445 
L 429.432437 86.767548 
L 430.384663 84.559651 
L 431.336888 82.351754 
L 432.289113 80.143857 
L 433.241338 77.93596 
L 434.193564 75.728062 
L 435.145789 73.520165 
L 436.098014 71.312268 
L 437.050239 69.104371 
L 438.002465 66.896474 
L 438.95469 64.688577 
L 439.906915 62.48068 
L 440.859141 60.272782 
L 441.811366 58.064885 
L 442.763591 55.856988 
L 443.715816 53.649091 
" style="fill:none;stroke:#1f77b4;stroke-linecap:square;stroke-width:1.5;"/>
   </g>
   <g id="line2d_66">
    <path clip-path="url(#p83f4ae3b83)" d="M 349.445514 272.230909 
L 350.397739 270.023012 
L 351.349964 267.815115 
L 352.30219 265.607218 
L 353.254415 263.39932 
L 354.20664 261.191423 
L 355.158865 258.983526 
L 356.111091 256.775629 
L 357.063316 254.567732 
L 358.015541 252.359835 
L 358.967767 250.151938 
L 359.919992 247.94404 
L 360.872217 245.736143 
L 361.824442 243.528246 
L 362.776668 241.320349 
L 363.728893 239.112452 
L 364.681118 236.904555 
L 365.633344 234.696657 
L 366.585569 232.48876 
L 367.537794 230.280863 
L 368.490019 228.072966 
L 369.442245 225.865069 
L 370.39447 223.657172 
L 371.346695 221.449275 
L 372.29892 219.241377 
L 373.251146 217.03348 
L 374.203371 214.825583 
L 375.155596 212.617686 
L 376.107822 210.409789 
L 377.060047 208.201892 
L 378.012272 205.993994 
L 378.964497 203.786097 
L 379.916723 201.5782 
L 380.868948 199.370303 
L 381.821173 197.162406 
L 382.773399 194.954509 
L 383.725624 192.746612 
L 384.677849 190.538714 
L 385.630074 188.330817 
L 386.5823 186.12292 
L 387.534525 183.915023 
L 388.48675 181.707126 
L 389.438976 179.499229 
L 390.391201 177.291331 
L 391.343426 175.083434 
L 392.295651 172.875537 
L 393.247877 170.66764 
L 394.200102 168.459743 
L 395.152327 166.251846 
L 396.104552 164.043949 
L 397.056778 161.836051 
L 398.009003 159.628154 
L 398.961228 157.420257 
L 399.913454 155.21236 
L 400.865679 153.004463 
L 401.817904 150.796566 
L 402.770129 148.588669 
L 403.722355 146.380771 
L 404.67458 144.172874 
L 405.626805 141.964977 
L 406.579031 139.75708 
L 407.531256 137.549183 
L 408.483481 135.341286 
L 409.435706 133.133388 
L 410.387932 130.925491 
L 411.340157 128.717594 
L 412.292382 126.509697 
L 413.244607 124.3018 
L 414.196833 122.093903 
L 415.149058 119.886006 
L 416.101283 117.678108 
L 417.053509 115.470211 
L 418.005734 113.262314 
L 418.957959 111.054417 
L 419.910184 108.84652 
L 420.86241 106.638623 
L 421.814635 104.430725 
L 422.76686 102.222828 
L 423.719086 100.014931 
L 424.671311 97.807034 
L 425.623536 95.599137 
L 426.575761 93.39124 
L 427.527987 91.183343 
L 428.480212 88.975445 
L 429.432437 86.767548 
L 430.384663 84.559651 
L 431.336888 82.351754 
L 432.289113 80.143857 
L 433.241338 77.93596 
L 434.193564 75.728062 
L 435.145789 73.520165 
L 436.098014 71.312268 
L 437.050239 69.104371 
L 438.002465 66.896474 
L 438.95469 64.688577 
L 439.906915 62.48068 
L 440.859141 60.272782 
L 441.811366 58.064885 
L 442.763591 55.856988 
L 443.715816 53.649091 
" style="fill:none;stroke:#ff7f0e;stroke-linecap:square;stroke-width:1.5;"/>
   </g>
   <g id="line2d_67">
    <path clip-path="url(#p83f4ae3b83)" d="M 349.445514 272.230909 
L 350.397739 270.023012 
L 351.349964 267.815115 
L 352.30219 265.607218 
L 353.254415 263.39932 
L 354.20664 261.191423 
L 355.158865 258.983526 
L 356.111091 256.775629 
L 357.063316 254.567732 
L 358.015541 252.359835 
L 358.967767 250.151938 
L 359.919992 247.94404 
L 360.872217 245.736143 
L 361.824442 243.528246 
L 362.776668 241.320349 
L 363.728893 239.112452 
L 364.681118 236.904555 
L 365.633344 234.696657 
L 366.585569 232.48876 
L 367.537794 230.280863 
L 368.490019 228.072966 
L 369.442245 225.865069 
L 370.39447 223.657172 
L 371.346695 221.449275 
L 372.29892 219.241377 
L 373.251146 217.03348 
L 374.203371 214.825583 
L 375.155596 212.617686 
L 376.107822 210.409789 
L 377.060047 208.201892 
L 378.012272 205.993994 
L 378.964497 203.786097 
L 379.916723 201.5782 
L 380.868948 199.370303 
L 381.821173 197.162406 
L 382.773399 194.954509 
L 383.725624 192.746612 
L 384.677849 190.538714 
L 385.630074 188.330817 
L 386.5823 186.12292 
L 387.534525 183.915023 
L 388.48675 181.707126 
L 389.438976 179.499229 
L 390.391201 177.291331 
L 391.343426 175.083434 
L 392.295651 172.875537 
L 393.247877 170.66764 
L 394.200102 168.459743 
L 395.152327 166.251846 
L 396.104552 164.043949 
L 397.056778 161.836051 
L 398.009003 159.628154 
L 398.961228 157.420257 
L 399.913454 155.21236 
L 400.865679 153.004463 
L 401.817904 150.796566 
L 402.770129 148.588669 
L 403.722355 146.380771 
L 404.67458 144.172874 
L 405.626805 141.964977 
L 406.579031 139.75708 
L 407.531256 137.549183 
L 408.483481 135.341286 
L 409.435706 133.133388 
L 410.387932 130.925491 
L 411.340157 128.717594 
L 412.292382 126.509697 
L 413.244607 124.3018 
L 414.196833 122.093903 
L 415.149058 119.886006 
L 416.101283 117.678108 
L 417.053509 115.470211 
L 418.005734 113.262314 
L 418.957959 111.054417 
L 419.910184 108.84652 
L 420.86241 106.638623 
L 421.814635 104.430725 
L 422.76686 102.222828 
L 423.719086 100.014931 
L 424.671311 97.807034 
L 425.623536 95.599137 
L 426.575761 93.39124 
L 427.527987 91.183343 
L 428.480212 88.975445 
L 429.432437 86.767548 
L 430.384663 84.559651 
L 431.336888 82.351754 
L 432.289113 80.143857 
L 433.241338 77.93596 
L 434.193564 75.728062 
L 435.145789 73.520165 
L 436.098014 71.312268 
L 437.050239 69.104371 
L 438.002465 66.896474 
L 438.95469 64.688577 
L 439.906915 62.48068 
L 440.859141 60.272782 
L 441.811366 58.064885 
L 442.763591 55.856988 
L 443.715816 53.649091 
" style="fill:none;stroke:#2ca02c;stroke-linecap:square;stroke-width:1.5;"/>
   </g>
   <g id="patch_13">
    <path d="M 344.731999 283.16 
L 344.731999 42.72 
" style="fill:none;stroke:#000000;stroke-linecap:square;stroke-linejoin:miter;stroke-width:0.8;"/>
   </g>
   <g id="patch_14">
    <path d="M 448.429332 283.16 
L 448.429332 42.72 
" style="fill:none;stroke:#000000;stroke-linecap:square;stroke-linejoin:miter;stroke-width:0.8;"/>
   </g>
   <g id="patch_15">
    <path d="M 344.731999 283.16 
L 448.429332 283.16 
" style="fill:none;stroke:#000000;stroke-linecap:square;stroke-linejoin:miter;stroke-width:0.8;"/>
   </g>
   <g id="patch_16">
    <path d="M 344.731999 42.72 
L 448.429332 42.72 
" style="fill:none;stroke:#000000;stroke-linecap:square;stroke-linejoin:miter;stroke-width:0.8;"/>
   </g>
   <g id="text_38">
    <!-- Age = 100 -->
    <g transform="translate(364.68129 36.72)scale(0.12 -0.12)">
     <use xlink:href="#DejaVuSans-65"/>
     <use x="68.408203" xlink:href="#DejaVuSans-103"/>
     <use x="131.884766" xlink:href="#DejaVuSans-101"/>
     <use x="193.408203" xlink:href="#DejaVuSans-32"/>
     <use x="225.195312" xlink:href="#DejaVuSans-61"/>
     <use x="308.984375" xlink:href="#DejaVuSans-32"/>
     <use x="340.771484" xlink:href="#DejaVuSans-49"/>
     <use x="404.394531" xlink:href="#DejaVuSans-48"/>
     <use x="468.017578" xlink:href="#DejaVuSans-48"/>
    </g>
   </g>
  </g>
  <g id="text_39">
   <!-- Consumption Comparisons by Age (Levels) -->
   <defs>
    <path d="M 30.609375 48.390625 
Q 23.390625 48.390625 19.1875 42.75 
Q 14.984375 37.109375 14.984375 27.296875 
Q 14.984375 17.484375 19.15625 11.84375 
Q 23.34375 6.203125 30.609375 6.203125 
Q 37.796875 6.203125 41.984375 11.859375 
Q 46.1875 17.53125 46.1875 27.296875 
Q 46.1875 37.015625 41.984375 42.703125 
Q 37.796875 48.390625 30.609375 48.390625 
z
M 30.609375 56 
Q 42.328125 56 49.015625 48.375 
Q 55.71875 40.765625 55.71875 27.296875 
Q 55.71875 13.875 49.015625 6.21875 
Q 42.328125 -1.421875 30.609375 -1.421875 
Q 18.84375 -1.421875 12.171875 6.21875 
Q 5.515625 13.875 5.515625 27.296875 
Q 5.515625 40.765625 12.171875 48.375 
Q 18.84375 56 30.609375 56 
z
" id="DejaVuSans-111"/>
    <path d="M 54.890625 33.015625 
L 54.890625 0 
L 45.90625 0 
L 45.90625 32.71875 
Q 45.90625 40.484375 42.875 44.328125 
Q 39.84375 48.1875 33.796875 48.1875 
Q 26.515625 48.1875 22.3125 43.546875 
Q 18.109375 38.921875 18.109375 30.90625 
L 18.109375 0 
L 9.078125 0 
L 9.078125 54.6875 
L 18.109375 54.6875 
L 18.109375 46.1875 
Q 21.34375 51.125 25.703125 53.5625 
Q 30.078125 56 35.796875 56 
Q 45.21875 56 50.046875 50.171875 
Q 54.890625 44.34375 54.890625 33.015625 
z
" id="DejaVuSans-110"/>
    <path d="M 44.28125 53.078125 
L 44.28125 44.578125 
Q 40.484375 46.53125 36.375 47.5 
Q 32.28125 48.484375 27.875 48.484375 
Q 21.1875 48.484375 17.84375 46.4375 
Q 14.5 44.390625 14.5 40.28125 
Q 14.5 37.15625 16.890625 35.375 
Q 19.28125 33.59375 26.515625 31.984375 
L 29.59375 31.296875 
Q 39.15625 29.25 43.1875 25.515625 
Q 47.21875 21.78125 47.21875 15.09375 
Q 47.21875 7.46875 41.1875 3.015625 
Q 35.15625 -1.421875 24.609375 -1.421875 
Q 20.21875 -1.421875 15.453125 -0.5625 
Q 10.6875 0.296875 5.421875 2 
L 5.421875 11.28125 
Q 10.40625 8.6875 15.234375 7.390625 
Q 20.0625 6.109375 24.8125 6.109375 
Q 31.15625 6.109375 34.5625 8.28125 
Q 37.984375 10.453125 37.984375 14.40625 
Q 37.984375 18.0625 35.515625 20.015625 
Q 33.0625 21.96875 24.703125 23.78125 
L 21.578125 24.515625 
Q 13.234375 26.265625 9.515625 29.90625 
Q 5.8125 33.546875 5.8125 39.890625 
Q 5.8125 47.609375 11.28125 51.796875 
Q 16.75 56 26.8125 56 
Q 31.78125 56 36.171875 55.265625 
Q 40.578125 54.546875 44.28125 53.078125 
z
" id="DejaVuSans-115"/>
    <path d="M 8.5 21.578125 
L 8.5 54.6875 
L 17.484375 54.6875 
L 17.484375 21.921875 
Q 17.484375 14.15625 20.5 10.265625 
Q 23.53125 6.390625 29.59375 6.390625 
Q 36.859375 6.390625 41.078125 11.03125 
Q 45.3125 15.671875 45.3125 23.6875 
L 45.3125 54.6875 
L 54.296875 54.6875 
L 54.296875 0 
L 45.3125 0 
L 45.3125 8.40625 
Q 42.046875 3.421875 37.71875 1 
Q 33.40625 -1.421875 27.6875 -1.421875 
Q 18.265625 -1.421875 13.375 4.4375 
Q 8.5 10.296875 8.5 21.578125 
z
M 31.109375 56 
z
" id="DejaVuSans-117"/>
    <path d="M 52 44.1875 
Q 55.375 50.25 60.0625 53.125 
Q 64.75 56 71.09375 56 
Q 79.640625 56 84.28125 50.015625 
Q 88.921875 44.046875 88.921875 33.015625 
L 88.921875 0 
L 79.890625 0 
L 79.890625 32.71875 
Q 79.890625 40.578125 77.09375 44.375 
Q 74.3125 48.1875 68.609375 48.1875 
Q 61.625 48.1875 57.5625 43.546875 
Q 53.515625 38.921875 53.515625 30.90625 
L 53.515625 0 
L 44.484375 0 
L 44.484375 32.71875 
Q 44.484375 40.625 41.703125 44.40625 
Q 38.921875 48.1875 33.109375 48.1875 
Q 26.21875 48.1875 22.15625 43.53125 
Q 18.109375 38.875 18.109375 30.90625 
L 18.109375 0 
L 9.078125 0 
L 9.078125 54.6875 
L 18.109375 54.6875 
L 18.109375 46.1875 
Q 21.1875 51.21875 25.484375 53.609375 
Q 29.78125 56 35.6875 56 
Q 41.65625 56 45.828125 52.96875 
Q 50 49.953125 52 44.1875 
z
" id="DejaVuSans-109"/>
    <path d="M 18.109375 8.203125 
L 18.109375 -20.796875 
L 9.078125 -20.796875 
L 9.078125 54.6875 
L 18.109375 54.6875 
L 18.109375 46.390625 
Q 20.953125 51.265625 25.265625 53.625 
Q 29.59375 56 35.59375 56 
Q 45.5625 56 51.78125 48.09375 
Q 58.015625 40.1875 58.015625 27.296875 
Q 58.015625 14.40625 51.78125 6.484375 
Q 45.5625 -1.421875 35.59375 -1.421875 
Q 29.59375 -1.421875 25.265625 0.953125 
Q 20.953125 3.328125 18.109375 8.203125 
z
M 48.6875 27.296875 
Q 48.6875 37.203125 44.609375 42.84375 
Q 40.53125 48.484375 33.40625 48.484375 
Q 26.265625 48.484375 22.1875 42.84375 
Q 18.109375 37.203125 18.109375 27.296875 
Q 18.109375 17.390625 22.1875 11.75 
Q 26.265625 6.109375 33.40625 6.109375 
Q 40.53125 6.109375 44.609375 11.75 
Q 48.6875 17.390625 48.6875 27.296875 
z
" id="DejaVuSans-112"/>
    <path d="M 18.3125 70.21875 
L 18.3125 54.6875 
L 36.8125 54.6875 
L 36.8125 47.703125 
L 18.3125 47.703125 
L 18.3125 18.015625 
Q 18.3125 11.328125 20.140625 9.421875 
Q 21.96875 7.515625 27.59375 7.515625 
L 36.8125 7.515625 
L 36.8125 0 
L 27.59375 0 
Q 17.1875 0 13.234375 3.875 
Q 9.28125 7.765625 9.28125 18.015625 
L 9.28125 47.703125 
L 2.6875 47.703125 
L 2.6875 54.6875 
L 9.28125 54.6875 
L 9.28125 70.21875 
z
" id="DejaVuSans-116"/>
    <path d="M 9.421875 54.6875 
L 18.40625 54.6875 
L 18.40625 0 
L 9.421875 0 
z
M 9.421875 75.984375 
L 18.40625 75.984375 
L 18.40625 64.59375 
L 9.421875 64.59375 
z
" id="DejaVuSans-105"/>
    <path d="M 34.28125 27.484375 
Q 23.390625 27.484375 19.1875 25 
Q 14.984375 22.515625 14.984375 16.5 
Q 14.984375 11.71875 18.140625 8.90625 
Q 21.296875 6.109375 26.703125 6.109375 
Q 34.1875 6.109375 38.703125 11.40625 
Q 43.21875 16.703125 43.21875 25.484375 
L 43.21875 27.484375 
z
M 52.203125 31.203125 
L 52.203125 0 
L 43.21875 0 
L 43.21875 8.296875 
Q 40.140625 3.328125 35.546875 0.953125 
Q 30.953125 -1.421875 24.3125 -1.421875 
Q 15.921875 -1.421875 10.953125 3.296875 
Q 6 8.015625 6 15.921875 
Q 6 25.140625 12.171875 29.828125 
Q 18.359375 34.515625 30.609375 34.515625 
L 43.21875 34.515625 
L 43.21875 35.40625 
Q 43.21875 41.609375 39.140625 45 
Q 35.0625 48.390625 27.6875 48.390625 
Q 23 48.390625 18.546875 47.265625 
Q 14.109375 46.140625 10.015625 43.890625 
L 10.015625 52.203125 
Q 14.9375 54.109375 19.578125 55.046875 
Q 24.21875 56 28.609375 56 
Q 40.484375 56 46.34375 49.84375 
Q 52.203125 43.703125 52.203125 31.203125 
z
" id="DejaVuSans-97"/>
    <path d="M 41.109375 46.296875 
Q 39.59375 47.171875 37.8125 47.578125 
Q 36.03125 48 33.890625 48 
Q 26.265625 48 22.1875 43.046875 
Q 18.109375 38.09375 18.109375 28.8125 
L 18.109375 0 
L 9.078125 0 
L 9.078125 54.6875 
L 18.109375 54.6875 
L 18.109375 46.1875 
Q 20.953125 51.171875 25.484375 53.578125 
Q 30.03125 56 36.53125 56 
Q 37.453125 56 38.578125 55.875 
Q 39.703125 55.765625 41.0625 55.515625 
z
" id="DejaVuSans-114"/>
    <path d="M 48.6875 27.296875 
Q 48.6875 37.203125 44.609375 42.84375 
Q 40.53125 48.484375 33.40625 48.484375 
Q 26.265625 48.484375 22.1875 42.84375 
Q 18.109375 37.203125 18.109375 27.296875 
Q 18.109375 17.390625 22.1875 11.75 
Q 26.265625 6.109375 33.40625 6.109375 
Q 40.53125 6.109375 44.609375 11.75 
Q 48.6875 17.390625 48.6875 27.296875 
z
M 18.109375 46.390625 
Q 20.953125 51.265625 25.265625 53.625 
Q 29.59375 56 35.59375 56 
Q 45.5625 56 51.78125 48.09375 
Q 58.015625 40.1875 58.015625 27.296875 
Q 58.015625 14.40625 51.78125 6.484375 
Q 45.5625 -1.421875 35.59375 -1.421875 
Q 29.59375 -1.421875 25.265625 0.953125 
Q 20.953125 3.328125 18.109375 8.203125 
L 18.109375 0 
L 9.078125 0 
L 9.078125 75.984375 
L 18.109375 75.984375 
z
" id="DejaVuSans-98"/>
    <path d="M 32.171875 -5.078125 
Q 28.375 -14.84375 24.75 -17.8125 
Q 21.140625 -20.796875 15.09375 -20.796875 
L 7.90625 -20.796875 
L 7.90625 -13.28125 
L 13.1875 -13.28125 
Q 16.890625 -13.28125 18.9375 -11.515625 
Q 21 -9.765625 23.484375 -3.21875 
L 25.09375 0.875 
L 2.984375 54.6875 
L 12.5 54.6875 
L 29.59375 11.921875 
L 46.6875 54.6875 
L 56.203125 54.6875 
z
" id="DejaVuSans-121"/>
    <path d="M 31 75.875 
Q 24.46875 64.65625 21.28125 53.65625 
Q 18.109375 42.671875 18.109375 31.390625 
Q 18.109375 20.125 21.3125 9.0625 
Q 24.515625 -2 31 -13.1875 
L 23.1875 -13.1875 
Q 15.875 -1.703125 12.234375 9.375 
Q 8.59375 20.453125 8.59375 31.390625 
Q 8.59375 42.28125 12.203125 53.3125 
Q 15.828125 64.359375 23.1875 75.875 
z
" id="DejaVuSans-40"/>
    <path d="M 9.8125 72.90625 
L 19.671875 72.90625 
L 19.671875 8.296875 
L 55.171875 8.296875 
L 55.171875 0 
L 9.8125 0 
z
" id="DejaVuSans-76"/>
    <path d="M 2.984375 54.6875 
L 12.5 54.6875 
L 29.59375 8.796875 
L 46.6875 54.6875 
L 56.203125 54.6875 
L 35.6875 0 
L 23.484375 0 
z
" id="DejaVuSans-118"/>
    <path d="M 9.421875 75.984375 
L 18.40625 75.984375 
L 18.40625 0 
L 9.421875 0 
z
" id="DejaVuSans-108"/>
    <path d="M 8.015625 75.875 
L 15.828125 75.875 
Q 23.140625 64.359375 26.78125 53.3125 
Q 30.421875 42.28125 30.421875 31.390625 
Q 30.421875 20.453125 26.78125 9.375 
Q 23.140625 -1.703125 15.828125 -13.1875 
L 8.015625 -13.1875 
Q 14.5 -2 17.703125 9.0625 
Q 20.90625 20.125 20.90625 31.390625 
Q 20.90625 42.671875 17.703125 53.65625 
Q 14.5 64.65625 8.015625 75.875 
z
" id="DejaVuSans-41"/>
   </defs>
   <g transform="translate(101.267813 16.030125)scale(0.12 -0.12)">
    <use xlink:href="#DejaVuSans-67"/>
    <use x="69.824219" xlink:href="#DejaVuSans-111"/>
    <use x="131.005859" xlink:href="#DejaVuSans-110"/>
    <use x="194.384766" xlink:href="#DejaVuSans-115"/>
    <use x="246.484375" xlink:href="#DejaVuSans-117"/>
    <use x="309.863281" xlink:href="#DejaVuSans-109"/>
    <use x="407.275391" xlink:href="#DejaVuSans-112"/>
    <use x="470.751953" xlink:href="#DejaVuSans-116"/>
    <use x="509.960938" xlink:href="#DejaVuSans-105"/>
    <use x="537.744141" xlink:href="#DejaVuSans-111"/>
    <use x="598.925781" xlink:href="#DejaVuSans-110"/>
    <use x="662.304688" xlink:href="#DejaVuSans-32"/>
    <use x="694.091797" xlink:href="#DejaVuSans-67"/>
    <use x="763.916016" xlink:href="#DejaVuSans-111"/>
    <use x="825.097656" xlink:href="#DejaVuSans-109"/>
    <use x="922.509766" xlink:href="#DejaVuSans-112"/>
    <use x="985.986328" xlink:href="#DejaVuSans-97"/>
    <use x="1047.265625" xlink:href="#DejaVuSans-114"/>
    <use x="1088.378906" xlink:href="#DejaVuSans-105"/>
    <use x="1116.162109" xlink:href="#DejaVuSans-115"/>
    <use x="1168.261719" xlink:href="#DejaVuSans-111"/>
    <use x="1229.443359" xlink:href="#DejaVuSans-110"/>
    <use x="1292.822266" xlink:href="#DejaVuSans-115"/>
    <use x="1344.921875" xlink:href="#DejaVuSans-32"/>
    <use x="1376.708984" xlink:href="#DejaVuSans-98"/>
    <use x="1440.185547" xlink:href="#DejaVuSans-121"/>
    <use x="1499.365234" xlink:href="#DejaVuSans-32"/>
    <use x="1531.152344" xlink:href="#DejaVuSans-65"/>
    <use x="1599.560547" xlink:href="#DejaVuSans-103"/>
    <use x="1663.037109" xlink:href="#DejaVuSans-101"/>
    <use x="1724.560547" xlink:href="#DejaVuSans-32"/>
    <use x="1756.347656" xlink:href="#DejaVuSans-40"/>
    <use x="1795.361328" xlink:href="#DejaVuSans-76"/>
    <use x="1851.058594" xlink:href="#DejaVuSans-101"/>
    <use x="1912.582031" xlink:href="#DejaVuSans-118"/>
    <use x="1971.761719" xlink:href="#DejaVuSans-101"/>
    <use x="2033.285156" xlink:href="#DejaVuSans-108"/>
    <use x="2061.068359" xlink:href="#DejaVuSans-115"/>
    <use x="2113.167969" xlink:href="#DejaVuSans-41"/>
   </g>
  </g>
  <g id="legend_1">
   <g id="patch_17">
    <path d="M 25.551563 340.6 
L 435.248438 340.6 
Q 437.248438 340.6 437.248438 338.6 
L 437.248438 324.921875 
Q 437.248438 322.921875 435.248438 322.921875 
L 25.551563 322.921875 
Q 23.551563 322.921875 23.551563 324.921875 
L 23.551563 338.6 
Q 23.551563 340.6 25.551563 340.6 
z
" style="fill:#ffffff;opacity:0.8;stroke:#cccccc;stroke-linejoin:miter;"/>
   </g>
   <g id="line2d_68">
    <path d="M 27.551563 331.020312 
L 47.551563 331.020312 
" style="fill:none;stroke:#1f77b4;stroke-linecap:square;stroke-width:1.5;"/>
   </g>
   <g id="line2d_69"/>
   <g id="text_40">
    <!-- PortfolioConsumerType -->
    <defs>
     <path d="M 19.671875 64.796875 
L 19.671875 37.40625 
L 32.078125 37.40625 
Q 38.96875 37.40625 42.71875 40.96875 
Q 46.484375 44.53125 46.484375 51.125 
Q 46.484375 57.671875 42.71875 61.234375 
Q 38.96875 64.796875 32.078125 64.796875 
z
M 9.8125 72.90625 
L 32.078125 72.90625 
Q 44.34375 72.90625 50.609375 67.359375 
Q 56.890625 61.8125 56.890625 51.125 
Q 56.890625 40.328125 50.609375 34.8125 
Q 44.34375 29.296875 32.078125 29.296875 
L 19.671875 29.296875 
L 19.671875 0 
L 9.8125 0 
z
" id="DejaVuSans-80"/>
     <path d="M 37.109375 75.984375 
L 37.109375 68.5 
L 28.515625 68.5 
Q 23.6875 68.5 21.796875 66.546875 
Q 19.921875 64.59375 19.921875 59.515625 
L 19.921875 54.6875 
L 34.71875 54.6875 
L 34.71875 47.703125 
L 19.921875 47.703125 
L 19.921875 0 
L 10.890625 0 
L 10.890625 47.703125 
L 2.296875 47.703125 
L 2.296875 54.6875 
L 10.890625 54.6875 
L 10.890625 58.5 
Q 10.890625 67.625 15.140625 71.796875 
Q 19.390625 75.984375 28.609375 75.984375 
z
" id="DejaVuSans-102"/>
     <path d="M -0.296875 72.90625 
L 61.375 72.90625 
L 61.375 64.59375 
L 35.5 64.59375 
L 35.5 0 
L 25.59375 0 
L 25.59375 64.59375 
L -0.296875 64.59375 
z
" id="DejaVuSans-84"/>
    </defs>
    <g transform="translate(55.551563 334.520312)scale(0.1 -0.1)">
     <use xlink:href="#DejaVuSans-80"/>
     <use x="60.255859" xlink:href="#DejaVuSans-111"/>
     <use x="121.4375" xlink:href="#DejaVuSans-114"/>
     <use x="162.550781" xlink:href="#DejaVuSans-116"/>
     <use x="201.759766" xlink:href="#DejaVuSans-102"/>
     <use x="236.964844" xlink:href="#DejaVuSans-111"/>
     <use x="298.146484" xlink:href="#DejaVuSans-108"/>
     <use x="325.929688" xlink:href="#DejaVuSans-105"/>
     <use x="353.712891" xlink:href="#DejaVuSans-111"/>
     <use x="414.894531" xlink:href="#DejaVuSans-67"/>
     <use x="484.71875" xlink:href="#DejaVuSans-111"/>
     <use x="545.900391" xlink:href="#DejaVuSans-110"/>
     <use x="609.279297" xlink:href="#DejaVuSans-115"/>
     <use x="661.378906" xlink:href="#DejaVuSans-117"/>
     <use x="724.757812" xlink:href="#DejaVuSans-109"/>
     <use x="822.169922" xlink:href="#DejaVuSans-101"/>
     <use x="883.693359" xlink:href="#DejaVuSans-114"/>
     <use x="924.806641" xlink:href="#DejaVuSans-84"/>
     <use x="985.65625" xlink:href="#DejaVuSans-121"/>
     <use x="1044.835938" xlink:href="#DejaVuSans-112"/>
     <use x="1108.3125" xlink:href="#DejaVuSans-101"/>
    </g>
   </g>
   <g id="line2d_70">
    <path d="M 192.535938 331.020312 
L 212.535938 331.020312 
" style="fill:none;stroke:#ff7f0e;stroke-linecap:square;stroke-width:1.5;"/>
   </g>
   <g id="line2d_71"/>
   <g id="text_41">
    <!-- PerfForesightConsumerType -->
    <defs>
     <path d="M 9.8125 72.90625 
L 51.703125 72.90625 
L 51.703125 64.59375 
L 19.671875 64.59375 
L 19.671875 43.109375 
L 48.578125 43.109375 
L 48.578125 34.8125 
L 19.671875 34.8125 
L 19.671875 0 
L 9.8125 0 
z
" id="DejaVuSans-70"/>
     <path d="M 54.890625 33.015625 
L 54.890625 0 
L 45.90625 0 
L 45.90625 32.71875 
Q 45.90625 40.484375 42.875 44.328125 
Q 39.84375 48.1875 33.796875 48.1875 
Q 26.515625 48.1875 22.3125 43.546875 
Q 18.109375 38.921875 18.109375 30.90625 
L 18.109375 0 
L 9.078125 0 
L 9.078125 75.984375 
L 18.109375 75.984375 
L 18.109375 46.1875 
Q 21.34375 51.125 25.703125 53.5625 
Q 30.078125 56 35.796875 56 
Q 45.21875 56 50.046875 50.171875 
Q 54.890625 44.34375 54.890625 33.015625 
z
" id="DejaVuSans-104"/>
    </defs>
    <g transform="translate(220.535938 334.520312)scale(0.1 -0.1)">
     <use xlink:href="#DejaVuSans-80"/>
     <use x="60.255859" xlink:href="#DejaVuSans-101"/>
     <use x="121.779297" xlink:href="#DejaVuSans-114"/>
     <use x="162.892578" xlink:href="#DejaVuSans-102"/>
     <use x="198.097656" xlink:href="#DejaVuSans-70"/>
     <use x="255.570312" xlink:href="#DejaVuSans-111"/>
     <use x="316.751953" xlink:href="#DejaVuSans-114"/>
     <use x="357.833984" xlink:href="#DejaVuSans-101"/>
     <use x="419.357422" xlink:href="#DejaVuSans-115"/>
     <use x="471.457031" xlink:href="#DejaVuSans-105"/>
     <use x="499.240234" xlink:href="#DejaVuSans-103"/>
     <use x="562.716797" xlink:href="#DejaVuSans-104"/>
     <use x="626.095703" xlink:href="#DejaVuSans-116"/>
     <use x="665.304688" xlink:href="#DejaVuSans-67"/>
     <use x="735.128906" xlink:href="#DejaVuSans-111"/>
     <use x="796.310547" xlink:href="#DejaVuSans-110"/>
     <use x="859.689453" xlink:href="#DejaVuSans-115"/>
     <use x="911.789062" xlink:href="#DejaVuSans-117"/>
     <use x="975.167969" xlink:href="#DejaVuSans-109"/>
     <use x="1072.580078" xlink:href="#DejaVuSans-101"/>
     <use x="1134.103516" xlink:href="#DejaVuSans-114"/>
     <use x="1175.216797" xlink:href="#DejaVuSans-84"/>
     <use x="1236.066406" xlink:href="#DejaVuSans-121"/>
     <use x="1295.246094" xlink:href="#DejaVuSans-112"/>
     <use x="1358.722656" xlink:href="#DejaVuSans-101"/>
    </g>
   </g>
   <g id="line2d_72">
    <path d="M 382.560938 331.020312 
L 402.560938 331.020312 
" style="fill:none;stroke:#2ca02c;stroke-linecap:square;stroke-width:1.5;"/>
   </g>
   <g id="line2d_73"/>
   <g id="text_42">
    <!-- True -->
    <g transform="translate(410.560938 334.520312)scale(0.1 -0.1)">
     <use xlink:href="#DejaVuSans-84"/>
     <use x="60.865234" xlink:href="#DejaVuSans-114"/>
     <use x="101.978516" xlink:href="#DejaVuSans-117"/>
     <use x="165.357422" xlink:href="#DejaVuSans-101"/>
    </g>
   </g>
  </g>
 </g>
 <defs>
  <clipPath id="p9fee0be95a">
   <rect height="240.44" width="103.697333" x="33.64" y="42.72"/>
  </clipPath>
  <clipPath id="p81b97a9e13">
   <rect height="240.44" width="103.697333" x="189.185999" y="42.72"/>
  </clipPath>
  <clipPath id="p83f4ae3b83">
   <rect height="240.44" width="103.697333" x="344.731999" y="42.72"/>
  </clipPath>
 </defs>
</svg>
