<?xml version="1.0" encoding="utf-8" standalone="no"?>
<!DOCTYPE svg PUBLIC "-//W3C//DTD SVG 1.1//EN"
  "http://www.w3.org/Graphics/SVG/1.1/DTD/svg11.dtd">
<!-- Created with matplotlib (https://matplotlib.org/) -->
<svg height="288pt" version="1.1" viewBox="0 0 432 288" width="432pt" xmlns="http://www.w3.org/2000/svg" xmlns:xlink="http://www.w3.org/1999/xlink">
 <defs>
  <style type="text/css">
*{stroke-linecap:butt;stroke-linejoin:round;}
  </style>
 </defs>
 <g id="figure_1">
  <g id="patch_1">
   <path d="M 0 288 
L 432 288 
L 432 0 
L 0 0 
z
" style="fill:#ffffff;"/>
  </g>
  <g id="axes_1">
   <g id="patch_2">
    <path d="M 33.8 231.4 
L 130.190859 231.4 
L 130.190859 41.2 
L 33.8 41.2 
z
" style="fill:#ffffff;"/>
   </g>
   <g id="matplotlib.axis_1">
    <g id="xtick_1">
     <g id="line2d_1">
      <path clip-path="url(#pfdc0400a25)" d="M 38.181403 231.4 
L 38.181403 41.2 
" style="fill:none;stroke:#b0b0b0;stroke-linecap:square;stroke-width:0.8;"/>
     </g>
     <g id="line2d_2">
      <defs>
       <path d="M 0 0 
L 0 3.5 
" id="m2071f81abb" style="stroke:#000000;stroke-width:0.8;"/>
      </defs>
      <g>
       <use style="stroke:#000000;stroke-width:0.8;" x="38.181403" xlink:href="#m2071f81abb" y="231.4"/>
      </g>
     </g>
     <g id="text_1">
      <!-- 0 -->
      <defs>
       <path d="M 31.78125 66.40625 
Q 24.171875 66.40625 20.328125 58.90625 
Q 16.5 51.421875 16.5 36.375 
Q 16.5 21.390625 20.328125 13.890625 
Q 24.171875 6.390625 31.78125 6.390625 
Q 39.453125 6.390625 43.28125 13.890625 
Q 47.125 21.390625 47.125 36.375 
Q 47.125 51.421875 43.28125 58.90625 
Q 39.453125 66.40625 31.78125 66.40625 
z
M 31.78125 74.21875 
Q 44.046875 74.21875 50.515625 64.515625 
Q 56.984375 54.828125 56.984375 36.375 
Q 56.984375 17.96875 50.515625 8.265625 
Q 44.046875 -1.421875 31.78125 -1.421875 
Q 19.53125 -1.421875 13.0625 8.265625 
Q 6.59375 17.96875 6.59375 36.375 
Q 6.59375 54.828125 13.0625 64.515625 
Q 19.53125 74.21875 31.78125 74.21875 
z
" id="DejaVuSans-48"/>
      </defs>
      <g transform="translate(35.000153 245.998437)scale(0.1 -0.1)">
       <use xlink:href="#DejaVuSans-48"/>
      </g>
     </g>
    </g>
    <g id="xtick_2">
     <g id="line2d_3">
      <path clip-path="url(#pfdc0400a25)" d="M 81.995429 231.4 
L 81.995429 41.2 
" style="fill:none;stroke:#b0b0b0;stroke-linecap:square;stroke-width:0.8;"/>
     </g>
     <g id="line2d_4">
      <g>
       <use style="stroke:#000000;stroke-width:0.8;" x="81.995429" xlink:href="#m2071f81abb" y="231.4"/>
      </g>
     </g>
     <g id="text_2">
      <!-- 5 -->
      <defs>
       <path d="M 10.796875 72.90625 
L 49.515625 72.90625 
L 49.515625 64.59375 
L 19.828125 64.59375 
L 19.828125 46.734375 
Q 21.96875 47.46875 24.109375 47.828125 
Q 26.265625 48.1875 28.421875 48.1875 
Q 40.625 48.1875 47.75 41.5 
Q 54.890625 34.8125 54.890625 23.390625 
Q 54.890625 11.625 47.5625 5.09375 
Q 40.234375 -1.421875 26.90625 -1.421875 
Q 22.3125 -1.421875 17.546875 -0.640625 
Q 12.796875 0.140625 7.71875 1.703125 
L 7.71875 11.625 
Q 12.109375 9.234375 16.796875 8.0625 
Q 21.484375 6.890625 26.703125 6.890625 
Q 35.15625 6.890625 40.078125 11.328125 
Q 45.015625 15.765625 45.015625 23.390625 
Q 45.015625 31 40.078125 35.4375 
Q 35.15625 39.890625 26.703125 39.890625 
Q 22.75 39.890625 18.8125 39.015625 
Q 14.890625 38.140625 10.796875 36.28125 
z
" id="DejaVuSans-53"/>
      </defs>
      <g transform="translate(78.814179 245.998437)scale(0.1 -0.1)">
       <use xlink:href="#DejaVuSans-53"/>
      </g>
     </g>
    </g>
    <g id="xtick_3">
     <g id="line2d_5">
      <path clip-path="url(#pfdc0400a25)" d="M 125.809456 231.4 
L 125.809456 41.2 
" style="fill:none;stroke:#b0b0b0;stroke-linecap:square;stroke-width:0.8;"/>
     </g>
     <g id="line2d_6">
      <g>
       <use style="stroke:#000000;stroke-width:0.8;" x="125.809456" xlink:href="#m2071f81abb" y="231.4"/>
      </g>
     </g>
     <g id="text_3">
      <!-- 10 -->
      <defs>
       <path d="M 12.40625 8.296875 
L 28.515625 8.296875 
L 28.515625 63.921875 
L 10.984375 60.40625 
L 10.984375 69.390625 
L 28.421875 72.90625 
L 38.28125 72.90625 
L 38.28125 8.296875 
L 54.390625 8.296875 
L 54.390625 0 
L 12.40625 0 
z
" id="DejaVuSans-49"/>
      </defs>
      <g transform="translate(119.446956 245.998437)scale(0.1 -0.1)">
       <use xlink:href="#DejaVuSans-49"/>
       <use x="63.623047" xlink:href="#DejaVuSans-48"/>
      </g>
     </g>
    </g>
    <g id="text_4">
     <!-- M -->
     <defs>
      <path d="M 9.8125 72.90625 
L 24.515625 72.90625 
L 43.109375 23.296875 
L 61.8125 72.90625 
L 76.515625 72.90625 
L 76.515625 0 
L 66.890625 0 
L 66.890625 64.015625 
L 48.09375 14.015625 
L 38.1875 14.015625 
L 19.390625 64.015625 
L 19.390625 0 
L 9.8125 0 
z
" id="DejaVuSans-77"/>
     </defs>
     <g transform="translate(77.681367 259.676562)scale(0.1 -0.1)">
      <use xlink:href="#DejaVuSans-77"/>
     </g>
    </g>
   </g>
   <g id="matplotlib.axis_2">
    <g id="ytick_1">
     <g id="line2d_7">
      <path clip-path="url(#pfdc0400a25)" d="M 33.8 222.754545 
L 130.190859 222.754545 
" style="fill:none;stroke:#b0b0b0;stroke-linecap:square;stroke-width:0.8;"/>
     </g>
     <g id="line2d_8">
      <defs>
       <path d="M 0 0 
L -3.5 0 
" id="m9adfcb1a7d" style="stroke:#000000;stroke-width:0.8;"/>
      </defs>
      <g>
       <use style="stroke:#000000;stroke-width:0.8;" x="33.8" xlink:href="#m9adfcb1a7d" y="222.754545"/>
      </g>
     </g>
     <g id="text_5">
      <!-- 0.0 -->
      <defs>
       <path d="M 10.6875 12.40625 
L 21 12.40625 
L 21 0 
L 10.6875 0 
z
" id="DejaVuSans-46"/>
      </defs>
      <g transform="translate(10.896875 226.553764)scale(0.1 -0.1)">
       <use xlink:href="#DejaVuSans-48"/>
       <use x="63.623047" xlink:href="#DejaVuSans-46"/>
       <use x="95.410156" xlink:href="#DejaVuSans-48"/>
      </g>
     </g>
    </g>
    <g id="ytick_2">
     <g id="line2d_9">
      <path clip-path="url(#pfdc0400a25)" d="M 33.8 197.432056 
L 130.190859 197.432056 
" style="fill:none;stroke:#b0b0b0;stroke-linecap:square;stroke-width:0.8;"/>
     </g>
     <g id="line2d_10">
      <g>
       <use style="stroke:#000000;stroke-width:0.8;" x="33.8" xlink:href="#m9adfcb1a7d" y="197.432056"/>
      </g>
     </g>
     <g id="text_6">
      <!-- 0.2 -->
      <defs>
       <path d="M 19.1875 8.296875 
L 53.609375 8.296875 
L 53.609375 0 
L 7.328125 0 
L 7.328125 8.296875 
Q 12.9375 14.109375 22.625 23.890625 
Q 32.328125 33.6875 34.8125 36.53125 
Q 39.546875 41.84375 41.421875 45.53125 
Q 43.3125 49.21875 43.3125 52.78125 
Q 43.3125 58.59375 39.234375 62.25 
Q 35.15625 65.921875 28.609375 65.921875 
Q 23.96875 65.921875 18.8125 64.3125 
Q 13.671875 62.703125 7.8125 59.421875 
L 7.8125 69.390625 
Q 13.765625 71.78125 18.9375 73 
Q 24.125 74.21875 28.421875 74.21875 
Q 39.75 74.21875 46.484375 68.546875 
Q 53.21875 62.890625 53.21875 53.421875 
Q 53.21875 48.921875 51.53125 44.890625 
Q 49.859375 40.875 45.40625 35.40625 
Q 44.1875 33.984375 37.640625 27.21875 
Q 31.109375 20.453125 19.1875 8.296875 
z
" id="DejaVuSans-50"/>
      </defs>
      <g transform="translate(10.896875 201.231275)scale(0.1 -0.1)">
       <use xlink:href="#DejaVuSans-48"/>
       <use x="63.623047" xlink:href="#DejaVuSans-46"/>
       <use x="95.410156" xlink:href="#DejaVuSans-50"/>
      </g>
     </g>
    </g>
    <g id="ytick_3">
     <g id="line2d_11">
      <path clip-path="url(#pfdc0400a25)" d="M 33.8 172.109567 
L 130.190859 172.109567 
" style="fill:none;stroke:#b0b0b0;stroke-linecap:square;stroke-width:0.8;"/>
     </g>
     <g id="line2d_12">
      <g>
       <use style="stroke:#000000;stroke-width:0.8;" x="33.8" xlink:href="#m9adfcb1a7d" y="172.109567"/>
      </g>
     </g>
     <g id="text_7">
      <!-- 0.4 -->
      <defs>
       <path d="M 37.796875 64.3125 
L 12.890625 25.390625 
L 37.796875 25.390625 
z
M 35.203125 72.90625 
L 47.609375 72.90625 
L 47.609375 25.390625 
L 58.015625 25.390625 
L 58.015625 17.1875 
L 47.609375 17.1875 
L 47.609375 0 
L 37.796875 0 
L 37.796875 17.1875 
L 4.890625 17.1875 
L 4.890625 26.703125 
z
" id="DejaVuSans-52"/>
      </defs>
      <g transform="translate(10.896875 175.908786)scale(0.1 -0.1)">
       <use xlink:href="#DejaVuSans-48"/>
       <use x="63.623047" xlink:href="#DejaVuSans-46"/>
       <use x="95.410156" xlink:href="#DejaVuSans-52"/>
      </g>
     </g>
    </g>
    <g id="ytick_4">
     <g id="line2d_13">
      <path clip-path="url(#pfdc0400a25)" d="M 33.8 146.787078 
L 130.190859 146.787078 
" style="fill:none;stroke:#b0b0b0;stroke-linecap:square;stroke-width:0.8;"/>
     </g>
     <g id="line2d_14">
      <g>
       <use style="stroke:#000000;stroke-width:0.8;" x="33.8" xlink:href="#m9adfcb1a7d" y="146.787078"/>
      </g>
     </g>
     <g id="text_8">
      <!-- 0.6 -->
      <defs>
       <path d="M 33.015625 40.375 
Q 26.375 40.375 22.484375 35.828125 
Q 18.609375 31.296875 18.609375 23.390625 
Q 18.609375 15.53125 22.484375 10.953125 
Q 26.375 6.390625 33.015625 6.390625 
Q 39.65625 6.390625 43.53125 10.953125 
Q 47.40625 15.53125 47.40625 23.390625 
Q 47.40625 31.296875 43.53125 35.828125 
Q 39.65625 40.375 33.015625 40.375 
z
M 52.59375 71.296875 
L 52.59375 62.3125 
Q 48.875 64.0625 45.09375 64.984375 
Q 41.3125 65.921875 37.59375 65.921875 
Q 27.828125 65.921875 22.671875 59.328125 
Q 17.53125 52.734375 16.796875 39.40625 
Q 19.671875 43.65625 24.015625 45.921875 
Q 28.375 48.1875 33.59375 48.1875 
Q 44.578125 48.1875 50.953125 41.515625 
Q 57.328125 34.859375 57.328125 23.390625 
Q 57.328125 12.15625 50.6875 5.359375 
Q 44.046875 -1.421875 33.015625 -1.421875 
Q 20.359375 -1.421875 13.671875 8.265625 
Q 6.984375 17.96875 6.984375 36.375 
Q 6.984375 53.65625 15.1875 63.9375 
Q 23.390625 74.21875 37.203125 74.21875 
Q 40.921875 74.21875 44.703125 73.484375 
Q 48.484375 72.75 52.59375 71.296875 
z
" id="DejaVuSans-54"/>
      </defs>
      <g transform="translate(10.896875 150.586296)scale(0.1 -0.1)">
       <use xlink:href="#DejaVuSans-48"/>
       <use x="63.623047" xlink:href="#DejaVuSans-46"/>
       <use x="95.410156" xlink:href="#DejaVuSans-54"/>
      </g>
     </g>
    </g>
    <g id="ytick_5">
     <g id="line2d_15">
      <path clip-path="url(#pfdc0400a25)" d="M 33.8 121.464588 
L 130.190859 121.464588 
" style="fill:none;stroke:#b0b0b0;stroke-linecap:square;stroke-width:0.8;"/>
     </g>
     <g id="line2d_16">
      <g>
       <use style="stroke:#000000;stroke-width:0.8;" x="33.8" xlink:href="#m9adfcb1a7d" y="121.464588"/>
      </g>
     </g>
     <g id="text_9">
      <!-- 0.8 -->
      <defs>
       <path d="M 31.78125 34.625 
Q 24.75 34.625 20.71875 30.859375 
Q 16.703125 27.09375 16.703125 20.515625 
Q 16.703125 13.921875 20.71875 10.15625 
Q 24.75 6.390625 31.78125 6.390625 
Q 38.8125 6.390625 42.859375 10.171875 
Q 46.921875 13.96875 46.921875 20.515625 
Q 46.921875 27.09375 42.890625 30.859375 
Q 38.875 34.625 31.78125 34.625 
z
M 21.921875 38.8125 
Q 15.578125 40.375 12.03125 44.71875 
Q 8.5 49.078125 8.5 55.328125 
Q 8.5 64.0625 14.71875 69.140625 
Q 20.953125 74.21875 31.78125 74.21875 
Q 42.671875 74.21875 48.875 69.140625 
Q 55.078125 64.0625 55.078125 55.328125 
Q 55.078125 49.078125 51.53125 44.71875 
Q 48 40.375 41.703125 38.8125 
Q 48.828125 37.15625 52.796875 32.3125 
Q 56.78125 27.484375 56.78125 20.515625 
Q 56.78125 9.90625 50.3125 4.234375 
Q 43.84375 -1.421875 31.78125 -1.421875 
Q 19.734375 -1.421875 13.25 4.234375 
Q 6.78125 9.90625 6.78125 20.515625 
Q 6.78125 27.484375 10.78125 32.3125 
Q 14.796875 37.15625 21.921875 38.8125 
z
M 18.3125 54.390625 
Q 18.3125 48.734375 21.84375 45.5625 
Q 25.390625 42.390625 31.78125 42.390625 
Q 38.140625 42.390625 41.71875 45.5625 
Q 45.3125 48.734375 45.3125 54.390625 
Q 45.3125 60.0625 41.71875 63.234375 
Q 38.140625 66.40625 31.78125 66.40625 
Q 25.390625 66.40625 21.84375 63.234375 
Q 18.3125 60.0625 18.3125 54.390625 
z
" id="DejaVuSans-56"/>
      </defs>
      <g transform="translate(10.896875 125.263807)scale(0.1 -0.1)">
       <use xlink:href="#DejaVuSans-48"/>
       <use x="63.623047" xlink:href="#DejaVuSans-46"/>
       <use x="95.410156" xlink:href="#DejaVuSans-56"/>
      </g>
     </g>
    </g>
    <g id="ytick_6">
     <g id="line2d_17">
      <path clip-path="url(#pfdc0400a25)" d="M 33.8 96.142099 
L 130.190859 96.142099 
" style="fill:none;stroke:#b0b0b0;stroke-linecap:square;stroke-width:0.8;"/>
     </g>
     <g id="line2d_18">
      <g>
       <use style="stroke:#000000;stroke-width:0.8;" x="33.8" xlink:href="#m9adfcb1a7d" y="96.142099"/>
      </g>
     </g>
     <g id="text_10">
      <!-- 1.0 -->
      <g transform="translate(10.896875 99.941318)scale(0.1 -0.1)">
       <use xlink:href="#DejaVuSans-49"/>
       <use x="63.623047" xlink:href="#DejaVuSans-46"/>
       <use x="95.410156" xlink:href="#DejaVuSans-48"/>
      </g>
     </g>
    </g>
    <g id="ytick_7">
     <g id="line2d_19">
      <path clip-path="url(#pfdc0400a25)" d="M 33.8 70.81961 
L 130.190859 70.81961 
" style="fill:none;stroke:#b0b0b0;stroke-linecap:square;stroke-width:0.8;"/>
     </g>
     <g id="line2d_20">
      <g>
       <use style="stroke:#000000;stroke-width:0.8;" x="33.8" xlink:href="#m9adfcb1a7d" y="70.81961"/>
      </g>
     </g>
     <g id="text_11">
      <!-- 1.2 -->
      <g transform="translate(10.896875 74.618829)scale(0.1 -0.1)">
       <use xlink:href="#DejaVuSans-49"/>
       <use x="63.623047" xlink:href="#DejaVuSans-46"/>
       <use x="95.410156" xlink:href="#DejaVuSans-50"/>
      </g>
     </g>
    </g>
    <g id="ytick_8">
     <g id="line2d_21">
      <path clip-path="url(#pfdc0400a25)" d="M 33.8 45.49712 
L 130.190859 45.49712 
" style="fill:none;stroke:#b0b0b0;stroke-linecap:square;stroke-width:0.8;"/>
     </g>
     <g id="line2d_22">
      <g>
       <use style="stroke:#000000;stroke-width:0.8;" x="33.8" xlink:href="#m9adfcb1a7d" y="45.49712"/>
      </g>
     </g>
     <g id="text_12">
      <!-- 1.4 -->
      <g transform="translate(10.896875 49.296339)scale(0.1 -0.1)">
       <use xlink:href="#DejaVuSans-49"/>
       <use x="63.623047" xlink:href="#DejaVuSans-46"/>
       <use x="95.410156" xlink:href="#DejaVuSans-52"/>
      </g>
     </g>
    </g>
    <g id="text_13">
     <!-- C -->
     <defs>
      <path d="M 64.40625 67.28125 
L 64.40625 56.890625 
Q 59.421875 61.53125 53.78125 63.8125 
Q 48.140625 66.109375 41.796875 66.109375 
Q 29.296875 66.109375 22.65625 58.46875 
Q 16.015625 50.828125 16.015625 36.375 
Q 16.015625 21.96875 22.65625 14.328125 
Q 29.296875 6.6875 41.796875 6.6875 
Q 48.140625 6.6875 53.78125 8.984375 
Q 59.421875 11.28125 64.40625 15.921875 
L 64.40625 5.609375 
Q 59.234375 2.09375 53.4375 0.328125 
Q 47.65625 -1.421875 41.21875 -1.421875 
Q 24.65625 -1.421875 15.125 8.703125 
Q 5.609375 18.84375 5.609375 36.375 
Q 5.609375 53.953125 15.125 64.078125 
Q 24.65625 74.21875 41.21875 74.21875 
Q 47.75 74.21875 53.53125 72.484375 
Q 59.328125 70.75 64.40625 67.28125 
z
" id="DejaVuSans-67"/>
     </defs>
     <g transform="translate(4.817188 139.791406)rotate(-90)scale(0.1 -0.1)">
      <use xlink:href="#DejaVuSans-67"/>
     </g>
    </g>
   </g>
   <g id="line2d_23">
    <path clip-path="url(#pfdc0400a25)" d="M 38.181403 222.754545 
L 39.066535 209.965409 
L 39.951666 197.176273 
L 40.836798 184.387137 
L 41.72193 171.598001 
L 42.607062 158.808865 
L 43.492194 146.019729 
L 44.377326 133.230593 
L 45.262458 120.441457 
L 46.147589 107.652321 
L 47.032721 95.53819 
L 47.917853 93.492229 
L 48.802985 92.334007 
L 49.688117 91.410311 
L 50.573249 90.610232 
L 51.45838 89.889537 
L 52.343512 89.225279 
L 53.228644 88.604221 
L 54.113776 88.016823 
L 54.998908 87.456755 
L 55.88404 86.919752 
L 56.769172 86.401695 
L 57.654303 85.898436 
L 58.539435 85.408387 
L 59.424567 84.926599 
L 60.309699 84.451166 
L 61.194831 83.979819 
L 62.079963 83.510448 
L 62.965095 83.042083 
L 63.850226 82.574188 
L 64.735358 82.1065 
L 65.62049 81.638903 
L 66.505622 81.171336 
L 67.390754 80.703778 
L 68.275886 80.236225 
L 69.161018 79.768673 
L 70.046149 79.301122 
L 70.931281 78.833572 
L 71.816413 78.366022 
L 72.701545 77.898471 
L 73.586677 77.430921 
L 74.471809 76.963371 
L 75.356941 76.49582 
L 76.242072 76.02827 
L 77.127204 75.56072 
L 78.012336 75.09317 
L 78.897468 74.625619 
L 79.7826 74.158069 
L 80.667732 73.690519 
L 81.552864 73.222968 
L 82.437995 72.755418 
L 83.323127 72.287868 
L 84.208259 71.820318 
L 85.093391 71.352767 
L 85.978523 70.885217 
L 86.863655 70.417667 
L 87.748787 69.950117 
L 88.633918 69.482566 
L 89.51905 69.015016 
L 90.404182 68.547466 
L 91.289314 68.079915 
L 92.174446 67.612365 
L 93.059578 67.144815 
L 93.94471 66.677265 
L 94.829841 66.209714 
L 95.714973 65.742164 
L 96.600105 65.274614 
L 97.485237 64.807063 
L 98.370369 64.339513 
L 99.255501 63.871963 
L 100.140632 63.404413 
L 101.025764 62.936862 
L 101.910896 62.469312 
L 102.796028 62.001762 
L 103.68116 61.534212 
L 104.566292 61.066661 
L 105.451424 60.599111 
L 106.336555 60.131561 
L 107.221687 59.66401 
L 108.106819 59.19646 
L 108.991951 58.72891 
L 109.877083 58.26136 
L 110.762215 57.793809 
L 111.647347 57.326259 
L 112.532478 56.858709 
L 113.41761 56.391158 
L 114.302742 55.923608 
L 115.187874 55.456058 
L 116.073006 54.988508 
L 116.958138 54.520957 
L 117.84327 54.053407 
L 118.728401 53.585857 
L 119.613533 53.118306 
L 120.498665 52.650756 
L 121.383797 52.183206 
L 122.268929 51.715656 
L 123.154061 51.248105 
L 124.039193 50.780555 
L 124.924324 50.313005 
L 125.809456 49.845455 
" style="fill:none;stroke:#1f77b4;stroke-linecap:square;stroke-width:1.5;"/>
   </g>
   <g id="line2d_24">
    <path clip-path="url(#pfdc0400a25)" d="M 38.181403 222.754545 
L 39.066535 209.965409 
L 39.951666 197.176273 
L 40.836798 184.387137 
L 41.72193 171.598001 
L 42.607062 158.808865 
L 43.492194 146.019729 
L 44.377326 133.230593 
L 45.262458 120.441457 
L 46.147589 107.652321 
L 47.032721 95.443719 
L 47.917853 93.436923 
L 48.802985 92.292459 
L 49.688117 91.375009 
L 50.573249 90.578385 
L 51.45838 89.858953 
L 52.343512 89.197067 
L 53.228644 88.576465 
L 54.113776 87.989162 
L 54.998908 87.429173 
L 55.88404 86.891922 
L 56.769172 86.37385 
L 57.654303 85.872149 
L 58.539435 85.385519 
L 59.424567 84.911725 
L 60.309699 84.444175 
L 61.194831 83.976625 
L 62.079963 83.509075 
L 62.965095 83.041524 
L 63.850226 82.573974 
L 64.735358 82.106424 
L 65.62049 81.638874 
L 66.505622 81.171323 
L 67.390754 80.703773 
L 68.275886 80.236223 
L 69.161018 79.768672 
L 70.046149 79.301122 
L 70.931281 78.833572 
L 71.816413 78.366022 
L 72.701545 77.898471 
L 73.586677 77.430921 
L 74.471809 76.963371 
L 75.356941 76.49582 
L 76.242072 76.02827 
L 77.127204 75.56072 
L 78.012336 75.09317 
L 78.897468 74.625619 
L 79.7826 74.158069 
L 80.667732 73.690519 
L 81.552864 73.222968 
L 82.437995 72.755418 
L 83.323127 72.287868 
L 84.208259 71.820318 
L 85.093391 71.352767 
L 85.978523 70.885217 
L 86.863655 70.417667 
L 87.748787 69.950117 
L 88.633918 69.482566 
L 89.51905 69.015016 
L 90.404182 68.547466 
L 91.289314 68.079915 
L 92.174446 67.612365 
L 93.059578 67.144815 
L 93.94471 66.677265 
L 94.829841 66.209714 
L 95.714973 65.742164 
L 96.600105 65.274614 
L 97.485237 64.807063 
L 98.370369 64.339513 
L 99.255501 63.871963 
L 100.140632 63.404413 
L 101.025764 62.936862 
L 101.910896 62.469312 
L 102.796028 62.001762 
L 103.68116 61.534212 
L 104.566292 61.066661 
L 105.451424 60.599111 
L 106.336555 60.131561 
L 107.221687 59.66401 
L 108.106819 59.19646 
L 108.991951 58.72891 
L 109.877083 58.26136 
L 110.762215 57.793809 
L 111.647347 57.326259 
L 112.532478 56.858709 
L 113.41761 56.391158 
L 114.302742 55.923608 
L 115.187874 55.456058 
L 116.073006 54.988508 
L 116.958138 54.520957 
L 117.84327 54.053407 
L 118.728401 53.585857 
L 119.613533 53.118306 
L 120.498665 52.650756 
L 121.383797 52.183206 
L 122.268929 51.715656 
L 123.154061 51.248105 
L 124.039193 50.780555 
L 124.924324 50.313005 
L 125.809456 49.845455 
" style="fill:none;stroke:#ff7f0e;stroke-linecap:square;stroke-width:1.5;"/>
   </g>
   <g id="line2d_25">
    <path clip-path="url(#pfdc0400a25)" d="M 38.181403 222.754545 
L 39.066535 209.965409 
L 39.951666 197.176273 
L 40.836798 184.387137 
L 41.72193 171.598001 
L 42.607062 158.808865 
L 43.492194 146.019729 
L 44.377326 133.230593 
L 45.262458 120.441457 
L 46.147589 107.652321 
L 47.032721 94.863185 
L 47.917853 90.989879 
L 48.802985 90.522329 
L 49.688117 90.054779 
L 50.573249 89.587228 
L 51.45838 89.119678 
L 52.343512 88.652128 
L 53.228644 88.184577 
L 54.113776 87.717027 
L 54.998908 87.249477 
L 55.88404 86.781927 
L 56.769172 86.314376 
L 57.654303 85.846826 
L 58.539435 85.379276 
L 59.424567 84.911725 
L 60.309699 84.444175 
L 61.194831 83.976625 
L 62.079963 83.509075 
L 62.965095 83.041524 
L 63.850226 82.573974 
L 64.735358 82.106424 
L 65.62049 81.638874 
L 66.505622 81.171323 
L 67.390754 80.703773 
L 68.275886 80.236223 
L 69.161018 79.768672 
L 70.046149 79.301122 
L 70.931281 78.833572 
L 71.816413 78.366022 
L 72.701545 77.898471 
L 73.586677 77.430921 
L 74.471809 76.963371 
L 75.356941 76.49582 
L 76.242072 76.02827 
L 77.127204 75.56072 
L 78.012336 75.09317 
L 78.897468 74.625619 
L 79.7826 74.158069 
L 80.667732 73.690519 
L 81.552864 73.222968 
L 82.437995 72.755418 
L 83.323127 72.287868 
L 84.208259 71.820318 
L 85.093391 71.352767 
L 85.978523 70.885217 
L 86.863655 70.417667 
L 87.748787 69.950117 
L 88.633918 69.482566 
L 89.51905 69.015016 
L 90.404182 68.547466 
L 91.289314 68.079915 
L 92.174446 67.612365 
L 93.059578 67.144815 
L 93.94471 66.677265 
L 94.829841 66.209714 
L 95.714973 65.742164 
L 96.600105 65.274614 
L 97.485237 64.807063 
L 98.370369 64.339513 
L 99.255501 63.871963 
L 100.140632 63.404413 
L 101.025764 62.936862 
L 101.910896 62.469312 
L 102.796028 62.001762 
L 103.68116 61.534212 
L 104.566292 61.066661 
L 105.451424 60.599111 
L 106.336555 60.131561 
L 107.221687 59.66401 
L 108.106819 59.19646 
L 108.991951 58.72891 
L 109.877083 58.26136 
L 110.762215 57.793809 
L 111.647347 57.326259 
L 112.532478 56.858709 
L 113.41761 56.391158 
L 114.302742 55.923608 
L 115.187874 55.456058 
L 116.073006 54.988508 
L 116.958138 54.520957 
L 117.84327 54.053407 
L 118.728401 53.585857 
L 119.613533 53.118306 
L 120.498665 52.650756 
L 121.383797 52.183206 
L 122.268929 51.715656 
L 123.154061 51.248105 
L 124.039193 50.780555 
L 124.924324 50.313005 
L 125.809456 49.845455 
" style="fill:none;stroke:#2ca02c;stroke-linecap:square;stroke-width:1.5;"/>
   </g>
   <g id="patch_3">
    <path d="M 33.8 231.4 
L 33.8 41.2 
" style="fill:none;stroke:#000000;stroke-linecap:square;stroke-linejoin:miter;stroke-width:0.8;"/>
   </g>
   <g id="patch_4">
    <path d="M 130.190859 231.4 
L 130.190859 41.2 
" style="fill:none;stroke:#000000;stroke-linecap:square;stroke-linejoin:miter;stroke-width:0.8;"/>
   </g>
   <g id="patch_5">
    <path d="M 33.8 231.4 
L 130.190859 231.4 
" style="fill:none;stroke:#000000;stroke-linecap:square;stroke-linejoin:miter;stroke-width:0.8;"/>
   </g>
   <g id="patch_6">
    <path d="M 33.8 41.2 
L 130.190859 41.2 
" style="fill:none;stroke:#000000;stroke-linecap:square;stroke-linejoin:miter;stroke-width:0.8;"/>
   </g>
   <g id="text_14">
    <!-- Age = 60 -->
    <defs>
     <path d="M 34.1875 63.1875 
L 20.796875 26.90625 
L 47.609375 26.90625 
z
M 28.609375 72.90625 
L 39.796875 72.90625 
L 67.578125 0 
L 57.328125 0 
L 50.6875 18.703125 
L 17.828125 18.703125 
L 11.1875 0 
L 0.78125 0 
z
" id="DejaVuSans-65"/>
     <path d="M 45.40625 27.984375 
Q 45.40625 37.75 41.375 43.109375 
Q 37.359375 48.484375 30.078125 48.484375 
Q 22.859375 48.484375 18.828125 43.109375 
Q 14.796875 37.75 14.796875 27.984375 
Q 14.796875 18.265625 18.828125 12.890625 
Q 22.859375 7.515625 30.078125 7.515625 
Q 37.359375 7.515625 41.375 12.890625 
Q 45.40625 18.265625 45.40625 27.984375 
z
M 54.390625 6.78125 
Q 54.390625 -7.171875 48.1875 -13.984375 
Q 42 -20.796875 29.203125 -20.796875 
Q 24.46875 -20.796875 20.265625 -20.09375 
Q 16.0625 -19.390625 12.109375 -17.921875 
L 12.109375 -9.1875 
Q 16.0625 -11.328125 19.921875 -12.34375 
Q 23.78125 -13.375 27.78125 -13.375 
Q 36.625 -13.375 41.015625 -8.765625 
Q 45.40625 -4.15625 45.40625 5.171875 
L 45.40625 9.625 
Q 42.625 4.78125 38.28125 2.390625 
Q 33.9375 0 27.875 0 
Q 17.828125 0 11.671875 7.65625 
Q 5.515625 15.328125 5.515625 27.984375 
Q 5.515625 40.671875 11.671875 48.328125 
Q 17.828125 56 27.875 56 
Q 33.9375 56 38.28125 53.609375 
Q 42.625 51.21875 45.40625 46.390625 
L 45.40625 54.6875 
L 54.390625 54.6875 
z
" id="DejaVuSans-103"/>
     <path d="M 56.203125 29.59375 
L 56.203125 25.203125 
L 14.890625 25.203125 
Q 15.484375 15.921875 20.484375 11.0625 
Q 25.484375 6.203125 34.421875 6.203125 
Q 39.59375 6.203125 44.453125 7.46875 
Q 49.3125 8.734375 54.109375 11.28125 
L 54.109375 2.78125 
Q 49.265625 0.734375 44.1875 -0.34375 
Q 39.109375 -1.421875 33.890625 -1.421875 
Q 20.796875 -1.421875 13.15625 6.1875 
Q 5.515625 13.8125 5.515625 26.8125 
Q 5.515625 40.234375 12.765625 48.109375 
Q 20.015625 56 32.328125 56 
Q 43.359375 56 49.78125 48.890625 
Q 56.203125 41.796875 56.203125 29.59375 
z
M 47.21875 32.234375 
Q 47.125 39.59375 43.09375 43.984375 
Q 39.0625 48.390625 32.421875 48.390625 
Q 24.90625 48.390625 20.390625 44.140625 
Q 15.875 39.890625 15.1875 32.171875 
z
" id="DejaVuSans-101"/>
     <path id="DejaVuSans-32"/>
     <path d="M 10.59375 45.40625 
L 73.1875 45.40625 
L 73.1875 37.203125 
L 10.59375 37.203125 
z
M 10.59375 25.484375 
L 73.1875 25.484375 
L 73.1875 17.1875 
L 10.59375 17.1875 
z
" id="DejaVuSans-61"/>
    </defs>
    <g transform="translate(53.913554 35.2)scale(0.12 -0.12)">
     <use xlink:href="#DejaVuSans-65"/>
     <use x="68.408203" xlink:href="#DejaVuSans-103"/>
     <use x="131.884766" xlink:href="#DejaVuSans-101"/>
     <use x="193.408203" xlink:href="#DejaVuSans-32"/>
     <use x="225.195312" xlink:href="#DejaVuSans-61"/>
     <use x="308.984375" xlink:href="#DejaVuSans-32"/>
     <use x="340.771484" xlink:href="#DejaVuSans-54"/>
     <use x="404.394531" xlink:href="#DejaVuSans-48"/>
    </g>
   </g>
  </g>
  <g id="axes_2">
   <g id="patch_7">
    <path d="M 178.386288 231.4 
L 274.777147 231.4 
L 274.777147 41.2 
L 178.386288 41.2 
z
" style="fill:#ffffff;"/>
   </g>
   <g id="matplotlib.axis_3">
    <g id="xtick_4">
     <g id="line2d_26">
      <path clip-path="url(#p03eb4aef32)" d="M 182.767691 231.4 
L 182.767691 41.2 
" style="fill:none;stroke:#b0b0b0;stroke-linecap:square;stroke-width:0.8;"/>
     </g>
     <g id="line2d_27">
      <g>
       <use style="stroke:#000000;stroke-width:0.8;" x="182.767691" xlink:href="#m2071f81abb" y="231.4"/>
      </g>
     </g>
     <g id="text_15">
      <!-- 0 -->
      <g transform="translate(179.586441 245.998437)scale(0.1 -0.1)">
       <use xlink:href="#DejaVuSans-48"/>
      </g>
     </g>
    </g>
    <g id="xtick_5">
     <g id="line2d_28">
      <path clip-path="url(#p03eb4aef32)" d="M 226.581718 231.4 
L 226.581718 41.2 
" style="fill:none;stroke:#b0b0b0;stroke-linecap:square;stroke-width:0.8;"/>
     </g>
     <g id="line2d_29">
      <g>
       <use style="stroke:#000000;stroke-width:0.8;" x="226.581718" xlink:href="#m2071f81abb" y="231.4"/>
      </g>
     </g>
     <g id="text_16">
      <!-- 5 -->
      <g transform="translate(223.400468 245.998437)scale(0.1 -0.1)">
       <use xlink:href="#DejaVuSans-53"/>
      </g>
     </g>
    </g>
    <g id="xtick_6">
     <g id="line2d_30">
      <path clip-path="url(#p03eb4aef32)" d="M 270.395745 231.4 
L 270.395745 41.2 
" style="fill:none;stroke:#b0b0b0;stroke-linecap:square;stroke-width:0.8;"/>
     </g>
     <g id="line2d_31">
      <g>
       <use style="stroke:#000000;stroke-width:0.8;" x="270.395745" xlink:href="#m2071f81abb" y="231.4"/>
      </g>
     </g>
     <g id="text_17">
      <!-- 10 -->
      <g transform="translate(264.033245 245.998437)scale(0.1 -0.1)">
       <use xlink:href="#DejaVuSans-49"/>
       <use x="63.623047" xlink:href="#DejaVuSans-48"/>
      </g>
     </g>
    </g>
    <g id="text_18">
     <!-- M -->
     <g transform="translate(222.267655 259.676562)scale(0.1 -0.1)">
      <use xlink:href="#DejaVuSans-77"/>
     </g>
    </g>
   </g>
   <g id="matplotlib.axis_4">
    <g id="ytick_9">
     <g id="line2d_32">
      <path clip-path="url(#p03eb4aef32)" d="M 178.386288 222.754545 
L 274.777147 222.754545 
" style="fill:none;stroke:#b0b0b0;stroke-linecap:square;stroke-width:0.8;"/>
     </g>
     <g id="line2d_33">
      <g>
       <use style="stroke:#000000;stroke-width:0.8;" x="178.386288" xlink:href="#m9adfcb1a7d" y="222.754545"/>
      </g>
     </g>
     <g id="text_19">
      <!-- 0 -->
      <g transform="translate(165.023788 226.553764)scale(0.1 -0.1)">
       <use xlink:href="#DejaVuSans-48"/>
      </g>
     </g>
    </g>
    <g id="ytick_10">
     <g id="line2d_34">
      <path clip-path="url(#p03eb4aef32)" d="M 178.386288 191.601572 
L 274.777147 191.601572 
" style="fill:none;stroke:#b0b0b0;stroke-linecap:square;stroke-width:0.8;"/>
     </g>
     <g id="line2d_35">
      <g>
       <use style="stroke:#000000;stroke-width:0.8;" x="178.386288" xlink:href="#m9adfcb1a7d" y="191.601572"/>
      </g>
     </g>
     <g id="text_20">
      <!-- 1 -->
      <g transform="translate(165.023788 195.400791)scale(0.1 -0.1)">
       <use xlink:href="#DejaVuSans-49"/>
      </g>
     </g>
    </g>
    <g id="ytick_11">
     <g id="line2d_36">
      <path clip-path="url(#p03eb4aef32)" d="M 178.386288 160.448599 
L 274.777147 160.448599 
" style="fill:none;stroke:#b0b0b0;stroke-linecap:square;stroke-width:0.8;"/>
     </g>
     <g id="line2d_37">
      <g>
       <use style="stroke:#000000;stroke-width:0.8;" x="178.386288" xlink:href="#m9adfcb1a7d" y="160.448599"/>
      </g>
     </g>
     <g id="text_21">
      <!-- 2 -->
      <g transform="translate(165.023788 164.247818)scale(0.1 -0.1)">
       <use xlink:href="#DejaVuSans-50"/>
      </g>
     </g>
    </g>
    <g id="ytick_12">
     <g id="line2d_38">
      <path clip-path="url(#p03eb4aef32)" d="M 178.386288 129.295625 
L 274.777147 129.295625 
" style="fill:none;stroke:#b0b0b0;stroke-linecap:square;stroke-width:0.8;"/>
     </g>
     <g id="line2d_39">
      <g>
       <use style="stroke:#000000;stroke-width:0.8;" x="178.386288" xlink:href="#m9adfcb1a7d" y="129.295625"/>
      </g>
     </g>
     <g id="text_22">
      <!-- 3 -->
      <defs>
       <path d="M 40.578125 39.3125 
Q 47.65625 37.796875 51.625 33 
Q 55.609375 28.21875 55.609375 21.1875 
Q 55.609375 10.40625 48.1875 4.484375 
Q 40.765625 -1.421875 27.09375 -1.421875 
Q 22.515625 -1.421875 17.65625 -0.515625 
Q 12.796875 0.390625 7.625 2.203125 
L 7.625 11.71875 
Q 11.71875 9.328125 16.59375 8.109375 
Q 21.484375 6.890625 26.8125 6.890625 
Q 36.078125 6.890625 40.9375 10.546875 
Q 45.796875 14.203125 45.796875 21.1875 
Q 45.796875 27.640625 41.28125 31.265625 
Q 36.765625 34.90625 28.71875 34.90625 
L 20.21875 34.90625 
L 20.21875 43.015625 
L 29.109375 43.015625 
Q 36.375 43.015625 40.234375 45.921875 
Q 44.09375 48.828125 44.09375 54.296875 
Q 44.09375 59.90625 40.109375 62.90625 
Q 36.140625 65.921875 28.71875 65.921875 
Q 24.65625 65.921875 20.015625 65.03125 
Q 15.375 64.15625 9.8125 62.3125 
L 9.8125 71.09375 
Q 15.4375 72.65625 20.34375 73.4375 
Q 25.25 74.21875 29.59375 74.21875 
Q 40.828125 74.21875 47.359375 69.109375 
Q 53.90625 64.015625 53.90625 55.328125 
Q 53.90625 49.265625 50.4375 45.09375 
Q 46.96875 40.921875 40.578125 39.3125 
z
" id="DejaVuSans-51"/>
      </defs>
      <g transform="translate(165.023788 133.094844)scale(0.1 -0.1)">
       <use xlink:href="#DejaVuSans-51"/>
      </g>
     </g>
    </g>
    <g id="ytick_13">
     <g id="line2d_40">
      <path clip-path="url(#p03eb4aef32)" d="M 178.386288 98.142652 
L 274.777147 98.142652 
" style="fill:none;stroke:#b0b0b0;stroke-linecap:square;stroke-width:0.8;"/>
     </g>
     <g id="line2d_41">
      <g>
       <use style="stroke:#000000;stroke-width:0.8;" x="178.386288" xlink:href="#m9adfcb1a7d" y="98.142652"/>
      </g>
     </g>
     <g id="text_23">
      <!-- 4 -->
      <g transform="translate(165.023788 101.941871)scale(0.1 -0.1)">
       <use xlink:href="#DejaVuSans-52"/>
      </g>
     </g>
    </g>
    <g id="ytick_14">
     <g id="line2d_42">
      <path clip-path="url(#p03eb4aef32)" d="M 178.386288 66.989679 
L 274.777147 66.989679 
" style="fill:none;stroke:#b0b0b0;stroke-linecap:square;stroke-width:0.8;"/>
     </g>
     <g id="line2d_43">
      <g>
       <use style="stroke:#000000;stroke-width:0.8;" x="178.386288" xlink:href="#m9adfcb1a7d" y="66.989679"/>
      </g>
     </g>
     <g id="text_24">
      <!-- 5 -->
      <g transform="translate(165.023788 70.788898)scale(0.1 -0.1)">
       <use xlink:href="#DejaVuSans-53"/>
      </g>
     </g>
    </g>
    <g id="text_25">
     <!-- C -->
     <g transform="translate(158.944101 139.791406)rotate(-90)scale(0.1 -0.1)">
      <use xlink:href="#DejaVuSans-67"/>
     </g>
    </g>
   </g>
   <g id="line2d_44">
    <path clip-path="url(#p03eb4aef32)" d="M 182.767691 222.754545 
L 183.652823 219.60778 
L 184.537955 216.461015 
L 185.423087 213.314251 
L 186.308219 210.167486 
L 187.19335 207.020721 
L 188.078482 203.873956 
L 188.963614 200.727191 
L 189.848746 197.580426 
L 190.733878 194.433661 
L 191.61901 191.410094 
L 192.504142 189.819481 
L 193.389273 188.228867 
L 194.274405 186.638253 
L 195.159537 185.047639 
L 196.044669 183.457025 
L 196.929801 181.866411 
L 197.814933 180.275797 
L 198.700064 178.685183 
L 199.585196 177.094569 
L 200.470328 175.503955 
L 201.35546 173.913341 
L 202.240592 172.322727 
L 203.125724 170.732113 
L 204.010856 169.141499 
L 204.895987 167.550885 
L 205.781119 165.960272 
L 206.666251 164.369658 
L 207.551383 162.779044 
L 208.436515 161.18843 
L 209.321647 159.597816 
L 210.206779 158.007202 
L 211.09191 156.416588 
L 211.977042 154.825974 
L 212.862174 153.23536 
L 213.747306 151.644746 
L 214.632438 150.054132 
L 215.51757 148.463518 
L 216.402702 146.872904 
L 217.287833 145.28229 
L 218.172965 143.691677 
L 219.058097 142.101063 
L 219.943229 140.510449 
L 220.828361 138.919835 
L 221.713493 137.329221 
L 222.598625 135.738607 
L 223.483756 134.147993 
L 224.368888 132.557379 
L 225.25402 130.966765 
L 226.139152 129.376151 
L 227.024284 127.785537 
L 227.909416 126.194923 
L 228.794548 124.604309 
L 229.679679 123.013695 
L 230.564811 121.423081 
L 231.449943 119.832468 
L 232.335075 118.241854 
L 233.220207 116.65124 
L 234.105339 115.060626 
L 234.990471 113.470012 
L 235.875602 111.879398 
L 236.760734 110.288784 
L 237.645866 108.69817 
L 238.530998 107.107556 
L 239.41613 105.516942 
L 240.301262 103.926328 
L 241.186394 102.335714 
L 242.071525 100.7451 
L 242.956657 99.154486 
L 243.841789 97.563872 
L 244.726921 95.973259 
L 245.612053 94.382645 
L 246.497185 92.792031 
L 247.382316 91.201417 
L 248.267448 89.610803 
L 249.15258 88.020189 
L 250.037712 86.429575 
L 250.922844 84.838961 
L 251.807976 83.248347 
L 252.693108 81.657733 
L 253.578239 80.067119 
L 254.463371 78.476505 
L 255.348503 76.885891 
L 256.233635 75.295277 
L 257.118767 73.704664 
L 258.003899 72.11405 
L 258.889031 70.523436 
L 259.774162 68.932822 
L 260.659294 67.342208 
L 261.544426 65.751594 
L 262.429558 64.16098 
L 263.31469 62.570366 
L 264.199822 60.979752 
L 265.084954 59.389138 
L 265.970085 57.798524 
L 266.855217 56.20791 
L 267.740349 54.617296 
L 268.625481 53.026682 
L 269.510613 51.436068 
L 270.395745 49.845455 
" style="fill:none;stroke:#1f77b4;stroke-linecap:square;stroke-width:1.5;"/>
   </g>
   <g id="line2d_45">
    <path clip-path="url(#p03eb4aef32)" d="M 182.767691 222.754545 
L 183.652823 219.60778 
L 184.537955 216.461015 
L 185.423087 213.314251 
L 186.308219 210.167486 
L 187.19335 207.020721 
L 188.078482 203.873956 
L 188.963614 200.727191 
L 189.848746 197.580426 
L 190.733878 194.433661 
L 191.61901 191.410094 
L 192.504142 189.819481 
L 193.389273 188.228867 
L 194.274405 186.638253 
L 195.159537 185.047639 
L 196.044669 183.457025 
L 196.929801 181.866411 
L 197.814933 180.275797 
L 198.700064 178.685183 
L 199.585196 177.094569 
L 200.470328 175.503955 
L 201.35546 173.913341 
L 202.240592 172.322727 
L 203.125724 170.732113 
L 204.010856 169.141499 
L 204.895987 167.550885 
L 205.781119 165.960272 
L 206.666251 164.369658 
L 207.551383 162.779044 
L 208.436515 161.18843 
L 209.321647 159.597816 
L 210.206779 158.007202 
L 211.09191 156.416588 
L 211.977042 154.825974 
L 212.862174 153.23536 
L 213.747306 151.644746 
L 214.632438 150.054132 
L 215.51757 148.463518 
L 216.402702 146.872904 
L 217.287833 145.28229 
L 218.172965 143.691677 
L 219.058097 142.101063 
L 219.943229 140.510449 
L 220.828361 138.919835 
L 221.713493 137.329221 
L 222.598625 135.738607 
L 223.483756 134.147993 
L 224.368888 132.557379 
L 225.25402 130.966765 
L 226.139152 129.376151 
L 227.024284 127.785537 
L 227.909416 126.194923 
L 228.794548 124.604309 
L 229.679679 123.013695 
L 230.564811 121.423081 
L 231.449943 119.832468 
L 232.335075 118.241854 
L 233.220207 116.65124 
L 234.105339 115.060626 
L 234.990471 113.470012 
L 235.875602 111.879398 
L 236.760734 110.288784 
L 237.645866 108.69817 
L 238.530998 107.107556 
L 239.41613 105.516942 
L 240.301262 103.926328 
L 241.186394 102.335714 
L 242.071525 100.7451 
L 242.956657 99.154486 
L 243.841789 97.563872 
L 244.726921 95.973259 
L 245.612053 94.382645 
L 246.497185 92.792031 
L 247.382316 91.201417 
L 248.267448 89.610803 
L 249.15258 88.020189 
L 250.037712 86.429575 
L 250.922844 84.838961 
L 251.807976 83.248347 
L 252.693108 81.657733 
L 253.578239 80.067119 
L 254.463371 78.476505 
L 255.348503 76.885891 
L 256.233635 75.295277 
L 257.118767 73.704664 
L 258.003899 72.11405 
L 258.889031 70.523436 
L 259.774162 68.932822 
L 260.659294 67.342208 
L 261.544426 65.751594 
L 262.429558 64.16098 
L 263.31469 62.570366 
L 264.199822 60.979752 
L 265.084954 59.389138 
L 265.970085 57.798524 
L 266.855217 56.20791 
L 267.740349 54.617296 
L 268.625481 53.026682 
L 269.510613 51.436068 
L 270.395745 49.845455 
" style="fill:none;stroke:#ff7f0e;stroke-linecap:square;stroke-width:1.5;"/>
   </g>
   <g id="line2d_46">
    <path clip-path="url(#p03eb4aef32)" d="M 182.767691 222.754545 
L 183.652823 219.60778 
L 184.537955 216.461015 
L 185.423087 213.314251 
L 186.308219 210.167486 
L 187.19335 207.020721 
L 188.078482 203.873956 
L 188.963614 200.727191 
L 189.848746 197.580426 
L 190.733878 194.433661 
L 191.61901 191.410094 
L 192.504142 189.819481 
L 193.389273 188.228867 
L 194.274405 186.638253 
L 195.159537 185.047639 
L 196.044669 183.457025 
L 196.929801 181.866411 
L 197.814933 180.275797 
L 198.700064 178.685183 
L 199.585196 177.094569 
L 200.470328 175.503955 
L 201.35546 173.913341 
L 202.240592 172.322727 
L 203.125724 170.732113 
L 204.010856 169.141499 
L 204.895987 167.550885 
L 205.781119 165.960272 
L 206.666251 164.369658 
L 207.551383 162.779044 
L 208.436515 161.18843 
L 209.321647 159.597816 
L 210.206779 158.007202 
L 211.09191 156.416588 
L 211.977042 154.825974 
L 212.862174 153.23536 
L 213.747306 151.644746 
L 214.632438 150.054132 
L 215.51757 148.463518 
L 216.402702 146.872904 
L 217.287833 145.28229 
L 218.172965 143.691677 
L 219.058097 142.101063 
L 219.943229 140.510449 
L 220.828361 138.919835 
L 221.713493 137.329221 
L 222.598625 135.738607 
L 223.483756 134.147993 
L 224.368888 132.557379 
L 225.25402 130.966765 
L 226.139152 129.376151 
L 227.024284 127.785537 
L 227.909416 126.194923 
L 228.794548 124.604309 
L 229.679679 123.013695 
L 230.564811 121.423081 
L 231.449943 119.832468 
L 232.335075 118.241854 
L 233.220207 116.65124 
L 234.105339 115.060626 
L 234.990471 113.470012 
L 235.875602 111.879398 
L 236.760734 110.288784 
L 237.645866 108.69817 
L 238.530998 107.107556 
L 239.41613 105.516942 
L 240.301262 103.926328 
L 241.186394 102.335714 
L 242.071525 100.7451 
L 242.956657 99.154486 
L 243.841789 97.563872 
L 244.726921 95.973259 
L 245.612053 94.382645 
L 246.497185 92.792031 
L 247.382316 91.201417 
L 248.267448 89.610803 
L 249.15258 88.020189 
L 250.037712 86.429575 
L 250.922844 84.838961 
L 251.807976 83.248347 
L 252.693108 81.657733 
L 253.578239 80.067119 
L 254.463371 78.476505 
L 255.348503 76.885891 
L 256.233635 75.295277 
L 257.118767 73.704664 
L 258.003899 72.11405 
L 258.889031 70.523436 
L 259.774162 68.932822 
L 260.659294 67.342208 
L 261.544426 65.751594 
L 262.429558 64.16098 
L 263.31469 62.570366 
L 264.199822 60.979752 
L 265.084954 59.389138 
L 265.970085 57.798524 
L 266.855217 56.20791 
L 267.740349 54.617296 
L 268.625481 53.026682 
L 269.510613 51.436068 
L 270.395745 49.845455 
" style="fill:none;stroke:#2ca02c;stroke-linecap:square;stroke-width:1.5;"/>
   </g>
   <g id="patch_8">
    <path d="M 178.386288 231.4 
L 178.386288 41.2 
" style="fill:none;stroke:#000000;stroke-linecap:square;stroke-linejoin:miter;stroke-width:0.8;"/>
   </g>
   <g id="patch_9">
    <path d="M 274.777147 231.4 
L 274.777147 41.2 
" style="fill:none;stroke:#000000;stroke-linecap:square;stroke-linejoin:miter;stroke-width:0.8;"/>
   </g>
   <g id="patch_10">
    <path d="M 178.386288 231.4 
L 274.777147 231.4 
" style="fill:none;stroke:#000000;stroke-linecap:square;stroke-linejoin:miter;stroke-width:0.8;"/>
   </g>
   <g id="patch_11">
    <path d="M 178.386288 41.2 
L 274.777147 41.2 
" style="fill:none;stroke:#000000;stroke-linecap:square;stroke-linejoin:miter;stroke-width:0.8;"/>
   </g>
   <g id="text_26">
    <!-- Age = 99 -->
    <defs>
     <path d="M 10.984375 1.515625 
L 10.984375 10.5 
Q 14.703125 8.734375 18.5 7.8125 
Q 22.3125 6.890625 25.984375 6.890625 
Q 35.75 6.890625 40.890625 13.453125 
Q 46.046875 20.015625 46.78125 33.40625 
Q 43.953125 29.203125 39.59375 26.953125 
Q 35.25 24.703125 29.984375 24.703125 
Q 19.046875 24.703125 12.671875 31.3125 
Q 6.296875 37.9375 6.296875 49.421875 
Q 6.296875 60.640625 12.9375 67.421875 
Q 19.578125 74.21875 30.609375 74.21875 
Q 43.265625 74.21875 49.921875 64.515625 
Q 56.59375 54.828125 56.59375 36.375 
Q 56.59375 19.140625 48.40625 8.859375 
Q 40.234375 -1.421875 26.421875 -1.421875 
Q 22.703125 -1.421875 18.890625 -0.6875 
Q 15.09375 0.046875 10.984375 1.515625 
z
M 30.609375 32.421875 
Q 37.25 32.421875 41.125 36.953125 
Q 45.015625 41.5 45.015625 49.421875 
Q 45.015625 57.28125 41.125 61.84375 
Q 37.25 66.40625 30.609375 66.40625 
Q 23.96875 66.40625 20.09375 61.84375 
Q 16.21875 57.28125 16.21875 49.421875 
Q 16.21875 41.5 20.09375 36.953125 
Q 23.96875 32.421875 30.609375 32.421875 
z
" id="DejaVuSans-57"/>
    </defs>
    <g transform="translate(198.499843 35.2)scale(0.12 -0.12)">
     <use xlink:href="#DejaVuSans-65"/>
     <use x="68.408203" xlink:href="#DejaVuSans-103"/>
     <use x="131.884766" xlink:href="#DejaVuSans-101"/>
     <use x="193.408203" xlink:href="#DejaVuSans-32"/>
     <use x="225.195312" xlink:href="#DejaVuSans-61"/>
     <use x="308.984375" xlink:href="#DejaVuSans-32"/>
     <use x="340.771484" xlink:href="#DejaVuSans-57"/>
     <use x="404.394531" xlink:href="#DejaVuSans-57"/>
    </g>
   </g>
  </g>
  <g id="axes_3">
   <g id="patch_12">
    <path d="M 322.972577 231.4 
L 419.363436 231.4 
L 419.363436 41.2 
L 322.972577 41.2 
z
" style="fill:#ffffff;"/>
   </g>
   <g id="matplotlib.axis_5">
    <g id="xtick_7">
     <g id="line2d_47">
      <path clip-path="url(#paa5f25983c)" d="M 327.35398 231.4 
L 327.35398 41.2 
" style="fill:none;stroke:#b0b0b0;stroke-linecap:square;stroke-width:0.8;"/>
     </g>
     <g id="line2d_48">
      <g>
       <use style="stroke:#000000;stroke-width:0.8;" x="327.35398" xlink:href="#m2071f81abb" y="231.4"/>
      </g>
     </g>
     <g id="text_27">
      <!-- 0 -->
      <g transform="translate(324.17273 245.998437)scale(0.1 -0.1)">
       <use xlink:href="#DejaVuSans-48"/>
      </g>
     </g>
    </g>
    <g id="xtick_8">
     <g id="line2d_49">
      <path clip-path="url(#paa5f25983c)" d="M 371.168006 231.4 
L 371.168006 41.2 
" style="fill:none;stroke:#b0b0b0;stroke-linecap:square;stroke-width:0.8;"/>
     </g>
     <g id="line2d_50">
      <g>
       <use style="stroke:#000000;stroke-width:0.8;" x="371.168006" xlink:href="#m2071f81abb" y="231.4"/>
      </g>
     </g>
     <g id="text_28">
      <!-- 5 -->
      <g transform="translate(367.986756 245.998437)scale(0.1 -0.1)">
       <use xlink:href="#DejaVuSans-53"/>
      </g>
     </g>
    </g>
    <g id="xtick_9">
     <g id="line2d_51">
      <path clip-path="url(#paa5f25983c)" d="M 414.982033 231.4 
L 414.982033 41.2 
" style="fill:none;stroke:#b0b0b0;stroke-linecap:square;stroke-width:0.8;"/>
     </g>
     <g id="line2d_52">
      <g>
       <use style="stroke:#000000;stroke-width:0.8;" x="414.982033" xlink:href="#m2071f81abb" y="231.4"/>
      </g>
     </g>
     <g id="text_29">
      <!-- 10 -->
      <g transform="translate(408.619533 245.998437)scale(0.1 -0.1)">
       <use xlink:href="#DejaVuSans-49"/>
       <use x="63.623047" xlink:href="#DejaVuSans-48"/>
      </g>
     </g>
    </g>
    <g id="text_30">
     <!-- M -->
     <g transform="translate(366.853944 259.676562)scale(0.1 -0.1)">
      <use xlink:href="#DejaVuSans-77"/>
     </g>
    </g>
   </g>
   <g id="matplotlib.axis_6">
    <g id="ytick_15">
     <g id="line2d_53">
      <path clip-path="url(#paa5f25983c)" d="M 322.972577 222.754545 
L 419.363436 222.754545 
" style="fill:none;stroke:#b0b0b0;stroke-linecap:square;stroke-width:0.8;"/>
     </g>
     <g id="line2d_54">
      <g>
       <use style="stroke:#000000;stroke-width:0.8;" x="322.972577" xlink:href="#m9adfcb1a7d" y="222.754545"/>
      </g>
     </g>
     <g id="text_31">
      <!-- 0 -->
      <g transform="translate(309.610077 226.553764)scale(0.1 -0.1)">
       <use xlink:href="#DejaVuSans-48"/>
      </g>
     </g>
    </g>
    <g id="ytick_16">
     <g id="line2d_55">
      <path clip-path="url(#paa5f25983c)" d="M 322.972577 188.172727 
L 419.363436 188.172727 
" style="fill:none;stroke:#b0b0b0;stroke-linecap:square;stroke-width:0.8;"/>
     </g>
     <g id="line2d_56">
      <g>
       <use style="stroke:#000000;stroke-width:0.8;" x="322.972577" xlink:href="#m9adfcb1a7d" y="188.172727"/>
      </g>
     </g>
     <g id="text_32">
      <!-- 2 -->
      <g transform="translate(309.610077 191.971946)scale(0.1 -0.1)">
       <use xlink:href="#DejaVuSans-50"/>
      </g>
     </g>
    </g>
    <g id="ytick_17">
     <g id="line2d_57">
      <path clip-path="url(#paa5f25983c)" d="M 322.972577 153.590909 
L 419.363436 153.590909 
" style="fill:none;stroke:#b0b0b0;stroke-linecap:square;stroke-width:0.8;"/>
     </g>
     <g id="line2d_58">
      <g>
       <use style="stroke:#000000;stroke-width:0.8;" x="322.972577" xlink:href="#m9adfcb1a7d" y="153.590909"/>
      </g>
     </g>
     <g id="text_33">
      <!-- 4 -->
      <g transform="translate(309.610077 157.390128)scale(0.1 -0.1)">
       <use xlink:href="#DejaVuSans-52"/>
      </g>
     </g>
    </g>
    <g id="ytick_18">
     <g id="line2d_59">
      <path clip-path="url(#paa5f25983c)" d="M 322.972577 119.009091 
L 419.363436 119.009091 
" style="fill:none;stroke:#b0b0b0;stroke-linecap:square;stroke-width:0.8;"/>
     </g>
     <g id="line2d_60">
      <g>
       <use style="stroke:#000000;stroke-width:0.8;" x="322.972577" xlink:href="#m9adfcb1a7d" y="119.009091"/>
      </g>
     </g>
     <g id="text_34">
      <!-- 6 -->
      <g transform="translate(309.610077 122.80831)scale(0.1 -0.1)">
       <use xlink:href="#DejaVuSans-54"/>
      </g>
     </g>
    </g>
    <g id="ytick_19">
     <g id="line2d_61">
      <path clip-path="url(#paa5f25983c)" d="M 322.972577 84.427273 
L 419.363436 84.427273 
" style="fill:none;stroke:#b0b0b0;stroke-linecap:square;stroke-width:0.8;"/>
     </g>
     <g id="line2d_62">
      <g>
       <use style="stroke:#000000;stroke-width:0.8;" x="322.972577" xlink:href="#m9adfcb1a7d" y="84.427273"/>
      </g>
     </g>
     <g id="text_35">
      <!-- 8 -->
      <g transform="translate(309.610077 88.226491)scale(0.1 -0.1)">
       <use xlink:href="#DejaVuSans-56"/>
      </g>
     </g>
    </g>
    <g id="ytick_20">
     <g id="line2d_63">
      <path clip-path="url(#paa5f25983c)" d="M 322.972577 49.845455 
L 419.363436 49.845455 
" style="fill:none;stroke:#b0b0b0;stroke-linecap:square;stroke-width:0.8;"/>
     </g>
     <g id="line2d_64">
      <g>
       <use style="stroke:#000000;stroke-width:0.8;" x="322.972577" xlink:href="#m9adfcb1a7d" y="49.845455"/>
      </g>
     </g>
     <g id="text_36">
      <!-- 10 -->
      <g transform="translate(303.247577 53.644673)scale(0.1 -0.1)">
       <use xlink:href="#DejaVuSans-49"/>
       <use x="63.623047" xlink:href="#DejaVuSans-48"/>
      </g>
     </g>
    </g>
    <g id="text_37">
     <!-- C -->
     <g transform="translate(297.167889 139.791406)rotate(-90)scale(0.1 -0.1)">
      <use xlink:href="#DejaVuSans-67"/>
     </g>
    </g>
   </g>
   <g id="line2d_65">
    <path clip-path="url(#paa5f25983c)" d="M 327.35398 222.754545 
L 328.239111 221.007989 
L 329.124243 219.261433 
L 330.009375 217.514876 
L 330.894507 215.76832 
L 331.779639 214.021763 
L 332.664771 212.275207 
L 333.549903 210.52865 
L 334.435034 208.782094 
L 335.320166 207.035537 
L 336.205298 205.288981 
L 337.09043 203.542424 
L 337.975562 201.795868 
L 338.860694 200.049311 
L 339.745826 198.302755 
L 340.630957 196.556198 
L 341.516089 194.809642 
L 342.401221 193.063085 
L 343.286353 191.316529 
L 344.171485 189.569972 
L 345.056617 187.823416 
L 345.941748 186.07686 
L 346.82688 184.330303 
L 347.712012 182.583747 
L 348.597144 180.83719 
L 349.482276 179.090634 
L 350.367408 177.344077 
L 351.25254 175.597521 
L 352.137671 173.850964 
L 353.022803 172.104408 
L 353.907935 170.357851 
L 354.793067 168.611295 
L 355.678199 166.864738 
L 356.563331 165.118182 
L 357.448463 163.371625 
L 358.333594 161.625069 
L 359.218726 159.878512 
L 360.103858 158.131956 
L 360.98899 156.385399 
L 361.874122 154.638843 
L 362.759254 152.892287 
L 363.644386 151.14573 
L 364.529517 149.399174 
L 365.414649 147.652617 
L 366.299781 145.906061 
L 367.184913 144.159504 
L 368.070045 142.412948 
L 368.955177 140.666391 
L 369.840309 138.919835 
L 370.72544 137.173278 
L 371.610572 135.426722 
L 372.495704 133.680165 
L 373.380836 131.933609 
L 374.265968 130.187052 
L 375.1511 128.440496 
L 376.036232 126.693939 
L 376.921363 124.947383 
L 377.806495 123.200826 
L 378.691627 121.45427 
L 379.576759 119.707713 
L 380.461891 117.961157 
L 381.347023 116.214601 
L 382.232155 114.468044 
L 383.117286 112.721488 
L 384.002418 110.974931 
L 384.88755 109.228375 
L 385.772682 107.481818 
L 386.657814 105.735262 
L 387.542946 103.988705 
L 388.428078 102.242149 
L 389.313209 100.495592 
L 390.198341 98.749036 
L 391.083473 97.002479 
L 391.968605 95.255923 
L 392.853737 93.509366 
L 393.738869 91.76281 
L 394.624 90.016253 
L 395.509132 88.269697 
L 396.394264 86.52314 
L 397.279396 84.776584 
L 398.164528 83.030028 
L 399.04966 81.283471 
L 399.934792 79.536915 
L 400.819923 77.790358 
L 401.705055 76.043802 
L 402.590187 74.297245 
L 403.475319 72.550689 
L 404.360451 70.804132 
L 405.245583 69.057576 
L 406.130715 67.311019 
L 407.015846 65.564463 
L 407.900978 63.817906 
L 408.78611 62.07135 
L 409.671242 60.324793 
L 410.556374 58.578237 
L 411.441506 56.83168 
L 412.326638 55.085124 
L 413.211769 53.338567 
L 414.096901 51.592011 
L 414.982033 49.845455 
" style="fill:none;stroke:#1f77b4;stroke-linecap:square;stroke-width:1.5;"/>
   </g>
   <g id="line2d_66">
    <path clip-path="url(#paa5f25983c)" d="M 327.35398 222.754545 
L 328.239111 221.007989 
L 329.124243 219.261433 
L 330.009375 217.514876 
L 330.894507 215.76832 
L 331.779639 214.021763 
L 332.664771 212.275207 
L 333.549903 210.52865 
L 334.435034 208.782094 
L 335.320166 207.035537 
L 336.205298 205.288981 
L 337.09043 203.542424 
L 337.975562 201.795868 
L 338.860694 200.049311 
L 339.745826 198.302755 
L 340.630957 196.556198 
L 341.516089 194.809642 
L 342.401221 193.063085 
L 343.286353 191.316529 
L 344.171485 189.569972 
L 345.056617 187.823416 
L 345.941748 186.07686 
L 346.82688 184.330303 
L 347.712012 182.583747 
L 348.597144 180.83719 
L 349.482276 179.090634 
L 350.367408 177.344077 
L 351.25254 175.597521 
L 352.137671 173.850964 
L 353.022803 172.104408 
L 353.907935 170.357851 
L 354.793067 168.611295 
L 355.678199 166.864738 
L 356.563331 165.118182 
L 357.448463 163.371625 
L 358.333594 161.625069 
L 359.218726 159.878512 
L 360.103858 158.131956 
L 360.98899 156.385399 
L 361.874122 154.638843 
L 362.759254 152.892287 
L 363.644386 151.14573 
L 364.529517 149.399174 
L 365.414649 147.652617 
L 366.299781 145.906061 
L 367.184913 144.159504 
L 368.070045 142.412948 
L 368.955177 140.666391 
L 369.840309 138.919835 
L 370.72544 137.173278 
L 371.610572 135.426722 
L 372.495704 133.680165 
L 373.380836 131.933609 
L 374.265968 130.187052 
L 375.1511 128.440496 
L 376.036232 126.693939 
L 376.921363 124.947383 
L 377.806495 123.200826 
L 378.691627 121.45427 
L 379.576759 119.707713 
L 380.461891 117.961157 
L 381.347023 116.214601 
L 382.232155 114.468044 
L 383.117286 112.721488 
L 384.002418 110.974931 
L 384.88755 109.228375 
L 385.772682 107.481818 
L 386.657814 105.735262 
L 387.542946 103.988705 
L 388.428078 102.242149 
L 389.313209 100.495592 
L 390.198341 98.749036 
L 391.083473 97.002479 
L 391.968605 95.255923 
L 392.853737 93.509366 
L 393.738869 91.76281 
L 394.624 90.016253 
L 395.509132 88.269697 
L 396.394264 86.52314 
L 397.279396 84.776584 
L 398.164528 83.030028 
L 399.04966 81.283471 
L 399.934792 79.536915 
L 400.819923 77.790358 
L 401.705055 76.043802 
L 402.590187 74.297245 
L 403.475319 72.550689 
L 404.360451 70.804132 
L 405.245583 69.057576 
L 406.130715 67.311019 
L 407.015846 65.564463 
L 407.900978 63.817906 
L 408.78611 62.07135 
L 409.671242 60.324793 
L 410.556374 58.578237 
L 411.441506 56.83168 
L 412.326638 55.085124 
L 413.211769 53.338567 
L 414.096901 51.592011 
L 414.982033 49.845455 
" style="fill:none;stroke:#ff7f0e;stroke-linecap:square;stroke-width:1.5;"/>
   </g>
   <g id="line2d_67">
    <path clip-path="url(#paa5f25983c)" d="M 327.35398 222.754545 
L 328.239111 221.007989 
L 329.124243 219.261433 
L 330.009375 217.514876 
L 330.894507 215.76832 
L 331.779639 214.021763 
L 332.664771 212.275207 
L 333.549903 210.52865 
L 334.435034 208.782094 
L 335.320166 207.035537 
L 336.205298 205.288981 
L 337.09043 203.542424 
L 337.975562 201.795868 
L 338.860694 200.049311 
L 339.745826 198.302755 
L 340.630957 196.556198 
L 341.516089 194.809642 
L 342.401221 193.063085 
L 343.286353 191.316529 
L 344.171485 189.569972 
L 345.056617 187.823416 
L 345.941748 186.07686 
L 346.82688 184.330303 
L 347.712012 182.583747 
L 348.597144 180.83719 
L 349.482276 179.090634 
L 350.367408 177.344077 
L 351.25254 175.597521 
L 352.137671 173.850964 
L 353.022803 172.104408 
L 353.907935 170.357851 
L 354.793067 168.611295 
L 355.678199 166.864738 
L 356.563331 165.118182 
L 357.448463 163.371625 
L 358.333594 161.625069 
L 359.218726 159.878512 
L 360.103858 158.131956 
L 360.98899 156.385399 
L 361.874122 154.638843 
L 362.759254 152.892287 
L 363.644386 151.14573 
L 364.529517 149.399174 
L 365.414649 147.652617 
L 366.299781 145.906061 
L 367.184913 144.159504 
L 368.070045 142.412948 
L 368.955177 140.666391 
L 369.840309 138.919835 
L 370.72544 137.173278 
L 371.610572 135.426722 
L 372.495704 133.680165 
L 373.380836 131.933609 
L 374.265968 130.187052 
L 375.1511 128.440496 
L 376.036232 126.693939 
L 376.921363 124.947383 
L 377.806495 123.200826 
L 378.691627 121.45427 
L 379.576759 119.707713 
L 380.461891 117.961157 
L 381.347023 116.214601 
L 382.232155 114.468044 
L 383.117286 112.721488 
L 384.002418 110.974931 
L 384.88755 109.228375 
L 385.772682 107.481818 
L 386.657814 105.735262 
L 387.542946 103.988705 
L 388.428078 102.242149 
L 389.313209 100.495592 
L 390.198341 98.749036 
L 391.083473 97.002479 
L 391.968605 95.255923 
L 392.853737 93.509366 
L 393.738869 91.76281 
L 394.624 90.016253 
L 395.509132 88.269697 
L 396.394264 86.52314 
L 397.279396 84.776584 
L 398.164528 83.030028 
L 399.04966 81.283471 
L 399.934792 79.536915 
L 400.819923 77.790358 
L 401.705055 76.043802 
L 402.590187 74.297245 
L 403.475319 72.550689 
L 404.360451 70.804132 
L 405.245583 69.057576 
L 406.130715 67.311019 
L 407.015846 65.564463 
L 407.900978 63.817906 
L 408.78611 62.07135 
L 409.671242 60.324793 
L 410.556374 58.578237 
L 411.441506 56.83168 
L 412.326638 55.085124 
L 413.211769 53.338567 
L 414.096901 51.592011 
L 414.982033 49.845455 
" style="fill:none;stroke:#2ca02c;stroke-linecap:square;stroke-width:1.5;"/>
   </g>
   <g id="patch_13">
    <path d="M 322.972577 231.4 
L 322.972577 41.2 
" style="fill:none;stroke:#000000;stroke-linecap:square;stroke-linejoin:miter;stroke-width:0.8;"/>
   </g>
   <g id="patch_14">
    <path d="M 419.363436 231.4 
L 419.363436 41.2 
" style="fill:none;stroke:#000000;stroke-linecap:square;stroke-linejoin:miter;stroke-width:0.8;"/>
   </g>
   <g id="patch_15">
    <path d="M 322.972577 231.4 
L 419.363436 231.4 
" style="fill:none;stroke:#000000;stroke-linecap:square;stroke-linejoin:miter;stroke-width:0.8;"/>
   </g>
   <g id="patch_16">
    <path d="M 322.972577 41.2 
L 419.363436 41.2 
" style="fill:none;stroke:#000000;stroke-linecap:square;stroke-linejoin:miter;stroke-width:0.8;"/>
   </g>
   <g id="text_38">
    <!-- Age = 100 -->
    <g transform="translate(339.268631 35.2)scale(0.12 -0.12)">
     <use xlink:href="#DejaVuSans-65"/>
     <use x="68.408203" xlink:href="#DejaVuSans-103"/>
     <use x="131.884766" xlink:href="#DejaVuSans-101"/>
     <use x="193.408203" xlink:href="#DejaVuSans-32"/>
     <use x="225.195312" xlink:href="#DejaVuSans-61"/>
     <use x="308.984375" xlink:href="#DejaVuSans-32"/>
     <use x="340.771484" xlink:href="#DejaVuSans-49"/>
     <use x="404.394531" xlink:href="#DejaVuSans-48"/>
     <use x="468.017578" xlink:href="#DejaVuSans-48"/>
    </g>
   </g>
  </g>
  <g id="text_39">
   <!-- Consumption Comparisons by Age (Levels) -->
   <defs>
    <path d="M 30.609375 48.390625 
Q 23.390625 48.390625 19.1875 42.75 
Q 14.984375 37.109375 14.984375 27.296875 
Q 14.984375 17.484375 19.15625 11.84375 
Q 23.34375 6.203125 30.609375 6.203125 
Q 37.796875 6.203125 41.984375 11.859375 
Q 46.1875 17.53125 46.1875 27.296875 
Q 46.1875 37.015625 41.984375 42.703125 
Q 37.796875 48.390625 30.609375 48.390625 
z
M 30.609375 56 
Q 42.328125 56 49.015625 48.375 
Q 55.71875 40.765625 55.71875 27.296875 
Q 55.71875 13.875 49.015625 6.21875 
Q 42.328125 -1.421875 30.609375 -1.421875 
Q 18.84375 -1.421875 12.171875 6.21875 
Q 5.515625 13.875 5.515625 27.296875 
Q 5.515625 40.765625 12.171875 48.375 
Q 18.84375 56 30.609375 56 
z
" id="DejaVuSans-111"/>
    <path d="M 54.890625 33.015625 
L 54.890625 0 
L 45.90625 0 
L 45.90625 32.71875 
Q 45.90625 40.484375 42.875 44.328125 
Q 39.84375 48.1875 33.796875 48.1875 
Q 26.515625 48.1875 22.3125 43.546875 
Q 18.109375 38.921875 18.109375 30.90625 
L 18.109375 0 
L 9.078125 0 
L 9.078125 54.6875 
L 18.109375 54.6875 
L 18.109375 46.1875 
Q 21.34375 51.125 25.703125 53.5625 
Q 30.078125 56 35.796875 56 
Q 45.21875 56 50.046875 50.171875 
Q 54.890625 44.34375 54.890625 33.015625 
z
" id="DejaVuSans-110"/>
    <path d="M 44.28125 53.078125 
L 44.28125 44.578125 
Q 40.484375 46.53125 36.375 47.5 
Q 32.28125 48.484375 27.875 48.484375 
Q 21.1875 48.484375 17.84375 46.4375 
Q 14.5 44.390625 14.5 40.28125 
Q 14.5 37.15625 16.890625 35.375 
Q 19.28125 33.59375 26.515625 31.984375 
L 29.59375 31.296875 
Q 39.15625 29.25 43.1875 25.515625 
Q 47.21875 21.78125 47.21875 15.09375 
Q 47.21875 7.46875 41.1875 3.015625 
Q 35.15625 -1.421875 24.609375 -1.421875 
Q 20.21875 -1.421875 15.453125 -0.5625 
Q 10.6875 0.296875 5.421875 2 
L 5.421875 11.28125 
Q 10.40625 8.6875 15.234375 7.390625 
Q 20.0625 6.109375 24.8125 6.109375 
Q 31.15625 6.109375 34.5625 8.28125 
Q 37.984375 10.453125 37.984375 14.40625 
Q 37.984375 18.0625 35.515625 20.015625 
Q 33.0625 21.96875 24.703125 23.78125 
L 21.578125 24.515625 
Q 13.234375 26.265625 9.515625 29.90625 
Q 5.8125 33.546875 5.8125 39.890625 
Q 5.8125 47.609375 11.28125 51.796875 
Q 16.75 56 26.8125 56 
Q 31.78125 56 36.171875 55.265625 
Q 40.578125 54.546875 44.28125 53.078125 
z
" id="DejaVuSans-115"/>
    <path d="M 8.5 21.578125 
L 8.5 54.6875 
L 17.484375 54.6875 
L 17.484375 21.921875 
Q 17.484375 14.15625 20.5 10.265625 
Q 23.53125 6.390625 29.59375 6.390625 
Q 36.859375 6.390625 41.078125 11.03125 
Q 45.3125 15.671875 45.3125 23.6875 
L 45.3125 54.6875 
L 54.296875 54.6875 
L 54.296875 0 
L 45.3125 0 
L 45.3125 8.40625 
Q 42.046875 3.421875 37.71875 1 
Q 33.40625 -1.421875 27.6875 -1.421875 
Q 18.265625 -1.421875 13.375 4.4375 
Q 8.5 10.296875 8.5 21.578125 
z
M 31.109375 56 
z
" id="DejaVuSans-117"/>
    <path d="M 52 44.1875 
Q 55.375 50.25 60.0625 53.125 
Q 64.75 56 71.09375 56 
Q 79.640625 56 84.28125 50.015625 
Q 88.921875 44.046875 88.921875 33.015625 
L 88.921875 0 
L 79.890625 0 
L 79.890625 32.71875 
Q 79.890625 40.578125 77.09375 44.375 
Q 74.3125 48.1875 68.609375 48.1875 
Q 61.625 48.1875 57.5625 43.546875 
Q 53.515625 38.921875 53.515625 30.90625 
L 53.515625 0 
L 44.484375 0 
L 44.484375 32.71875 
Q 44.484375 40.625 41.703125 44.40625 
Q 38.921875 48.1875 33.109375 48.1875 
Q 26.21875 48.1875 22.15625 43.53125 
Q 18.109375 38.875 18.109375 30.90625 
L 18.109375 0 
L 9.078125 0 
L 9.078125 54.6875 
L 18.109375 54.6875 
L 18.109375 46.1875 
Q 21.1875 51.21875 25.484375 53.609375 
Q 29.78125 56 35.6875 56 
Q 41.65625 56 45.828125 52.96875 
Q 50 49.953125 52 44.1875 
z
" id="DejaVuSans-109"/>
    <path d="M 18.109375 8.203125 
L 18.109375 -20.796875 
L 9.078125 -20.796875 
L 9.078125 54.6875 
L 18.109375 54.6875 
L 18.109375 46.390625 
Q 20.953125 51.265625 25.265625 53.625 
Q 29.59375 56 35.59375 56 
Q 45.5625 56 51.78125 48.09375 
Q 58.015625 40.1875 58.015625 27.296875 
Q 58.015625 14.40625 51.78125 6.484375 
Q 45.5625 -1.421875 35.59375 -1.421875 
Q 29.59375 -1.421875 25.265625 0.953125 
Q 20.953125 3.328125 18.109375 8.203125 
z
M 48.6875 27.296875 
Q 48.6875 37.203125 44.609375 42.84375 
Q 40.53125 48.484375 33.40625 48.484375 
Q 26.265625 48.484375 22.1875 42.84375 
Q 18.109375 37.203125 18.109375 27.296875 
Q 18.109375 17.390625 22.1875 11.75 
Q 26.265625 6.109375 33.40625 6.109375 
Q 40.53125 6.109375 44.609375 11.75 
Q 48.6875 17.390625 48.6875 27.296875 
z
" id="DejaVuSans-112"/>
    <path d="M 18.3125 70.21875 
L 18.3125 54.6875 
L 36.8125 54.6875 
L 36.8125 47.703125 
L 18.3125 47.703125 
L 18.3125 18.015625 
Q 18.3125 11.328125 20.140625 9.421875 
Q 21.96875 7.515625 27.59375 7.515625 
L 36.8125 7.515625 
L 36.8125 0 
L 27.59375 0 
Q 17.1875 0 13.234375 3.875 
Q 9.28125 7.765625 9.28125 18.015625 
L 9.28125 47.703125 
L 2.6875 47.703125 
L 2.6875 54.6875 
L 9.28125 54.6875 
L 9.28125 70.21875 
z
" id="DejaVuSans-116"/>
    <path d="M 9.421875 54.6875 
L 18.40625 54.6875 
L 18.40625 0 
L 9.421875 0 
z
M 9.421875 75.984375 
L 18.40625 75.984375 
L 18.40625 64.59375 
L 9.421875 64.59375 
z
" id="DejaVuSans-105"/>
    <path d="M 34.28125 27.484375 
Q 23.390625 27.484375 19.1875 25 
Q 14.984375 22.515625 14.984375 16.5 
Q 14.984375 11.71875 18.140625 8.90625 
Q 21.296875 6.109375 26.703125 6.109375 
Q 34.1875 6.109375 38.703125 11.40625 
Q 43.21875 16.703125 43.21875 25.484375 
L 43.21875 27.484375 
z
M 52.203125 31.203125 
L 52.203125 0 
L 43.21875 0 
L 43.21875 8.296875 
Q 40.140625 3.328125 35.546875 0.953125 
Q 30.953125 -1.421875 24.3125 -1.421875 
Q 15.921875 -1.421875 10.953125 3.296875 
Q 6 8.015625 6 15.921875 
Q 6 25.140625 12.171875 29.828125 
Q 18.359375 34.515625 30.609375 34.515625 
L 43.21875 34.515625 
L 43.21875 35.40625 
Q 43.21875 41.609375 39.140625 45 
Q 35.0625 48.390625 27.6875 48.390625 
Q 23 48.390625 18.546875 47.265625 
Q 14.109375 46.140625 10.015625 43.890625 
L 10.015625 52.203125 
Q 14.9375 54.109375 19.578125 55.046875 
Q 24.21875 56 28.609375 56 
Q 40.484375 56 46.34375 49.84375 
Q 52.203125 43.703125 52.203125 31.203125 
z
" id="DejaVuSans-97"/>
    <path d="M 41.109375 46.296875 
Q 39.59375 47.171875 37.8125 47.578125 
Q 36.03125 48 33.890625 48 
Q 26.265625 48 22.1875 43.046875 
Q 18.109375 38.09375 18.109375 28.8125 
L 18.109375 0 
L 9.078125 0 
L 9.078125 54.6875 
L 18.109375 54.6875 
L 18.109375 46.1875 
Q 20.953125 51.171875 25.484375 53.578125 
Q 30.03125 56 36.53125 56 
Q 37.453125 56 38.578125 55.875 
Q 39.703125 55.765625 41.0625 55.515625 
z
" id="DejaVuSans-114"/>
    <path d="M 48.6875 27.296875 
Q 48.6875 37.203125 44.609375 42.84375 
Q 40.53125 48.484375 33.40625 48.484375 
Q 26.265625 48.484375 22.1875 42.84375 
Q 18.109375 37.203125 18.109375 27.296875 
Q 18.109375 17.390625 22.1875 11.75 
Q 26.265625 6.109375 33.40625 6.109375 
Q 40.53125 6.109375 44.609375 11.75 
Q 48.6875 17.390625 48.6875 27.296875 
z
M 18.109375 46.390625 
Q 20.953125 51.265625 25.265625 53.625 
Q 29.59375 56 35.59375 56 
Q 45.5625 56 51.78125 48.09375 
Q 58.015625 40.1875 58.015625 27.296875 
Q 58.015625 14.40625 51.78125 6.484375 
Q 45.5625 -1.421875 35.59375 -1.421875 
Q 29.59375 -1.421875 25.265625 0.953125 
Q 20.953125 3.328125 18.109375 8.203125 
L 18.109375 0 
L 9.078125 0 
L 9.078125 75.984375 
L 18.109375 75.984375 
z
" id="DejaVuSans-98"/>
    <path d="M 32.171875 -5.078125 
Q 28.375 -14.84375 24.75 -17.8125 
Q 21.140625 -20.796875 15.09375 -20.796875 
L 7.90625 -20.796875 
L 7.90625 -13.28125 
L 13.1875 -13.28125 
Q 16.890625 -13.28125 18.9375 -11.515625 
Q 21 -9.765625 23.484375 -3.21875 
L 25.09375 0.875 
L 2.984375 54.6875 
L 12.5 54.6875 
L 29.59375 11.921875 
L 46.6875 54.6875 
L 56.203125 54.6875 
z
" id="DejaVuSans-121"/>
    <path d="M 31 75.875 
Q 24.46875 64.65625 21.28125 53.65625 
Q 18.109375 42.671875 18.109375 31.390625 
Q 18.109375 20.125 21.3125 9.0625 
Q 24.515625 -2 31 -13.1875 
L 23.1875 -13.1875 
Q 15.875 -1.703125 12.234375 9.375 
Q 8.59375 20.453125 8.59375 31.390625 
Q 8.59375 42.28125 12.203125 53.3125 
Q 15.828125 64.359375 23.1875 75.875 
z
" id="DejaVuSans-40"/>
    <path d="M 9.8125 72.90625 
L 19.671875 72.90625 
L 19.671875 8.296875 
L 55.171875 8.296875 
L 55.171875 0 
L 9.8125 0 
z
" id="DejaVuSans-76"/>
    <path d="M 2.984375 54.6875 
L 12.5 54.6875 
L 29.59375 8.796875 
L 46.6875 54.6875 
L 56.203125 54.6875 
L 35.6875 0 
L 23.484375 0 
z
" id="DejaVuSans-118"/>
    <path d="M 9.421875 75.984375 
L 18.40625 75.984375 
L 18.40625 0 
L 9.421875 0 
z
" id="DejaVuSans-108"/>
    <path d="M 8.015625 75.875 
L 15.828125 75.875 
Q 23.140625 64.359375 26.78125 53.3125 
Q 30.421875 42.28125 30.421875 31.390625 
Q 30.421875 20.453125 26.78125 9.375 
Q 23.140625 -1.703125 15.828125 -13.1875 
L 8.015625 -13.1875 
Q 14.5 -2 17.703125 9.0625 
Q 20.90625 20.125 20.90625 31.390625 
Q 20.90625 42.671875 17.703125 53.65625 
Q 14.5 64.65625 8.015625 75.875 
z
" id="DejaVuSans-41"/>
   </defs>
   <g transform="translate(86.867813 14.878125)scale(0.12 -0.12)">
    <use xlink:href="#DejaVuSans-67"/>
    <use x="69.824219" xlink:href="#DejaVuSans-111"/>
    <use x="131.005859" xlink:href="#DejaVuSans-110"/>
    <use x="194.384766" xlink:href="#DejaVuSans-115"/>
    <use x="246.484375" xlink:href="#DejaVuSans-117"/>
    <use x="309.863281" xlink:href="#DejaVuSans-109"/>
    <use x="407.275391" xlink:href="#DejaVuSans-112"/>
    <use x="470.751953" xlink:href="#DejaVuSans-116"/>
    <use x="509.960938" xlink:href="#DejaVuSans-105"/>
    <use x="537.744141" xlink:href="#DejaVuSans-111"/>
    <use x="598.925781" xlink:href="#DejaVuSans-110"/>
    <use x="662.304688" xlink:href="#DejaVuSans-32"/>
    <use x="694.091797" xlink:href="#DejaVuSans-67"/>
    <use x="763.916016" xlink:href="#DejaVuSans-111"/>
    <use x="825.097656" xlink:href="#DejaVuSans-109"/>
    <use x="922.509766" xlink:href="#DejaVuSans-112"/>
    <use x="985.986328" xlink:href="#DejaVuSans-97"/>
    <use x="1047.265625" xlink:href="#DejaVuSans-114"/>
    <use x="1088.378906" xlink:href="#DejaVuSans-105"/>
    <use x="1116.162109" xlink:href="#DejaVuSans-115"/>
    <use x="1168.261719" xlink:href="#DejaVuSans-111"/>
    <use x="1229.443359" xlink:href="#DejaVuSans-110"/>
    <use x="1292.822266" xlink:href="#DejaVuSans-115"/>
    <use x="1344.921875" xlink:href="#DejaVuSans-32"/>
    <use x="1376.708984" xlink:href="#DejaVuSans-98"/>
    <use x="1440.185547" xlink:href="#DejaVuSans-121"/>
    <use x="1499.365234" xlink:href="#DejaVuSans-32"/>
    <use x="1531.152344" xlink:href="#DejaVuSans-65"/>
    <use x="1599.560547" xlink:href="#DejaVuSans-103"/>
    <use x="1663.037109" xlink:href="#DejaVuSans-101"/>
    <use x="1724.560547" xlink:href="#DejaVuSans-32"/>
    <use x="1756.347656" xlink:href="#DejaVuSans-40"/>
    <use x="1795.361328" xlink:href="#DejaVuSans-76"/>
    <use x="1851.058594" xlink:href="#DejaVuSans-101"/>
    <use x="1912.582031" xlink:href="#DejaVuSans-118"/>
    <use x="1971.761719" xlink:href="#DejaVuSans-101"/>
    <use x="2033.285156" xlink:href="#DejaVuSans-108"/>
    <use x="2061.068359" xlink:href="#DejaVuSans-115"/>
    <use x="2113.167969" xlink:href="#DejaVuSans-41"/>
   </g>
  </g>
  <g id="legend_1">
   <g id="patch_17">
    <path d="M 11.151563 283 
L 420.848437 283 
Q 422.848437 283 422.848437 281 
L 422.848437 267.321875 
Q 422.848437 265.321875 420.848437 265.321875 
L 11.151563 265.321875 
Q 9.151563 265.321875 9.151563 267.321875 
L 9.151563 281 
Q 9.151563 283 11.151563 283 
z
" style="fill:#ffffff;opacity:0.8;stroke:#cccccc;stroke-linejoin:miter;"/>
   </g>
   <g id="line2d_68">
    <path d="M 13.151563 273.420313 
L 33.151563 273.420313 
" style="fill:none;stroke:#1f77b4;stroke-linecap:square;stroke-width:1.5;"/>
   </g>
   <g id="line2d_69"/>
   <g id="text_40">
    <!-- PortfolioConsumerType -->
    <defs>
     <path d="M 19.671875 64.796875 
L 19.671875 37.40625 
L 32.078125 37.40625 
Q 38.96875 37.40625 42.71875 40.96875 
Q 46.484375 44.53125 46.484375 51.125 
Q 46.484375 57.671875 42.71875 61.234375 
Q 38.96875 64.796875 32.078125 64.796875 
z
M 9.8125 72.90625 
L 32.078125 72.90625 
Q 44.34375 72.90625 50.609375 67.359375 
Q 56.890625 61.8125 56.890625 51.125 
Q 56.890625 40.328125 50.609375 34.8125 
Q 44.34375 29.296875 32.078125 29.296875 
L 19.671875 29.296875 
L 19.671875 0 
L 9.8125 0 
z
" id="DejaVuSans-80"/>
     <path d="M 37.109375 75.984375 
L 37.109375 68.5 
L 28.515625 68.5 
Q 23.6875 68.5 21.796875 66.546875 
Q 19.921875 64.59375 19.921875 59.515625 
L 19.921875 54.6875 
L 34.71875 54.6875 
L 34.71875 47.703125 
L 19.921875 47.703125 
L 19.921875 0 
L 10.890625 0 
L 10.890625 47.703125 
L 2.296875 47.703125 
L 2.296875 54.6875 
L 10.890625 54.6875 
L 10.890625 58.5 
Q 10.890625 67.625 15.140625 71.796875 
Q 19.390625 75.984375 28.609375 75.984375 
z
" id="DejaVuSans-102"/>
     <path d="M -0.296875 72.90625 
L 61.375 72.90625 
L 61.375 64.59375 
L 35.5 64.59375 
L 35.5 0 
L 25.59375 0 
L 25.59375 64.59375 
L -0.296875 64.59375 
z
" id="DejaVuSans-84"/>
    </defs>
    <g transform="translate(41.151563 276.920313)scale(0.1 -0.1)">
     <use xlink:href="#DejaVuSans-80"/>
     <use x="60.255859" xlink:href="#DejaVuSans-111"/>
     <use x="121.4375" xlink:href="#DejaVuSans-114"/>
     <use x="162.550781" xlink:href="#DejaVuSans-116"/>
     <use x="201.759766" xlink:href="#DejaVuSans-102"/>
     <use x="236.964844" xlink:href="#DejaVuSans-111"/>
     <use x="298.146484" xlink:href="#DejaVuSans-108"/>
     <use x="325.929688" xlink:href="#DejaVuSans-105"/>
     <use x="353.712891" xlink:href="#DejaVuSans-111"/>
     <use x="414.894531" xlink:href="#DejaVuSans-67"/>
     <use x="484.71875" xlink:href="#DejaVuSans-111"/>
     <use x="545.900391" xlink:href="#DejaVuSans-110"/>
     <use x="609.279297" xlink:href="#DejaVuSans-115"/>
     <use x="661.378906" xlink:href="#DejaVuSans-117"/>
     <use x="724.757812" xlink:href="#DejaVuSans-109"/>
     <use x="822.169922" xlink:href="#DejaVuSans-101"/>
     <use x="883.693359" xlink:href="#DejaVuSans-114"/>
     <use x="924.806641" xlink:href="#DejaVuSans-84"/>
     <use x="985.65625" xlink:href="#DejaVuSans-121"/>
     <use x="1044.835938" xlink:href="#DejaVuSans-112"/>
     <use x="1108.3125" xlink:href="#DejaVuSans-101"/>
    </g>
   </g>
   <g id="line2d_70">
    <path d="M 178.135938 273.420313 
L 198.135938 273.420313 
" style="fill:none;stroke:#ff7f0e;stroke-linecap:square;stroke-width:1.5;"/>
   </g>
   <g id="line2d_71"/>
   <g id="text_41">
    <!-- PerfForesightConsumerType -->
    <defs>
     <path d="M 9.8125 72.90625 
L 51.703125 72.90625 
L 51.703125 64.59375 
L 19.671875 64.59375 
L 19.671875 43.109375 
L 48.578125 43.109375 
L 48.578125 34.8125 
L 19.671875 34.8125 
L 19.671875 0 
L 9.8125 0 
z
" id="DejaVuSans-70"/>
     <path d="M 54.890625 33.015625 
L 54.890625 0 
L 45.90625 0 
L 45.90625 32.71875 
Q 45.90625 40.484375 42.875 44.328125 
Q 39.84375 48.1875 33.796875 48.1875 
Q 26.515625 48.1875 22.3125 43.546875 
Q 18.109375 38.921875 18.109375 30.90625 
L 18.109375 0 
L 9.078125 0 
L 9.078125 75.984375 
L 18.109375 75.984375 
L 18.109375 46.1875 
Q 21.34375 51.125 25.703125 53.5625 
Q 30.078125 56 35.796875 56 
Q 45.21875 56 50.046875 50.171875 
Q 54.890625 44.34375 54.890625 33.015625 
z
" id="DejaVuSans-104"/>
    </defs>
    <g transform="translate(206.135938 276.920313)scale(0.1 -0.1)">
     <use xlink:href="#DejaVuSans-80"/>
     <use x="60.255859" xlink:href="#DejaVuSans-101"/>
     <use x="121.779297" xlink:href="#DejaVuSans-114"/>
     <use x="162.892578" xlink:href="#DejaVuSans-102"/>
     <use x="198.097656" xlink:href="#DejaVuSans-70"/>
     <use x="255.570312" xlink:href="#DejaVuSans-111"/>
     <use x="316.751953" xlink:href="#DejaVuSans-114"/>
     <use x="357.833984" xlink:href="#DejaVuSans-101"/>
     <use x="419.357422" xlink:href="#DejaVuSans-115"/>
     <use x="471.457031" xlink:href="#DejaVuSans-105"/>
     <use x="499.240234" xlink:href="#DejaVuSans-103"/>
     <use x="562.716797" xlink:href="#DejaVuSans-104"/>
     <use x="626.095703" xlink:href="#DejaVuSans-116"/>
     <use x="665.304688" xlink:href="#DejaVuSans-67"/>
     <use x="735.128906" xlink:href="#DejaVuSans-111"/>
     <use x="796.310547" xlink:href="#DejaVuSans-110"/>
     <use x="859.689453" xlink:href="#DejaVuSans-115"/>
     <use x="911.789062" xlink:href="#DejaVuSans-117"/>
     <use x="975.167969" xlink:href="#DejaVuSans-109"/>
     <use x="1072.580078" xlink:href="#DejaVuSans-101"/>
     <use x="1134.103516" xlink:href="#DejaVuSans-114"/>
     <use x="1175.216797" xlink:href="#DejaVuSans-84"/>
     <use x="1236.066406" xlink:href="#DejaVuSans-121"/>
     <use x="1295.246094" xlink:href="#DejaVuSans-112"/>
     <use x="1358.722656" xlink:href="#DejaVuSans-101"/>
    </g>
   </g>
   <g id="line2d_72">
    <path d="M 368.160937 273.420313 
L 388.160937 273.420313 
" style="fill:none;stroke:#2ca02c;stroke-linecap:square;stroke-width:1.5;"/>
   </g>
   <g id="line2d_73"/>
   <g id="text_42">
    <!-- True -->
    <g transform="translate(396.160937 276.920313)scale(0.1 -0.1)">
     <use xlink:href="#DejaVuSans-84"/>
     <use x="60.865234" xlink:href="#DejaVuSans-114"/>
     <use x="101.978516" xlink:href="#DejaVuSans-117"/>
     <use x="165.357422" xlink:href="#DejaVuSans-101"/>
    </g>
   </g>
  </g>
 </g>
 <defs>
  <clipPath id="pfdc0400a25">
   <rect height="190.2" width="96.390859" x="33.8" y="41.2"/>
  </clipPath>
  <clipPath id="p03eb4aef32">
   <rect height="190.2" width="96.390859" x="178.386288" y="41.2"/>
  </clipPath>
  <clipPath id="paa5f25983c">
   <rect height="190.2" width="96.390859" x="322.972577" y="41.2"/>
  </clipPath>
 </defs>
</svg>
