<?xml version="1.0" encoding="utf-8" standalone="no"?>
<!DOCTYPE svg PUBLIC "-//W3C//DTD SVG 1.1//EN"
  "http://www.w3.org/Graphics/SVG/1.1/DTD/svg11.dtd">
<!-- Created with matplotlib (https://matplotlib.org/) -->
<svg height="288pt" version="1.1" viewBox="0 0 720 288" width="720pt" xmlns="http://www.w3.org/2000/svg" xmlns:xlink="http://www.w3.org/1999/xlink">
 <defs>
  <style type="text/css">
*{stroke-linecap:butt;stroke-linejoin:round;}
  </style>
 </defs>
 <g id="figure_1">
  <g id="patch_1">
   <path d="M 0 288 
L 720 288 
L 720 0 
L 0 0 
z
" style="fill:#ffffff;"/>
  </g>
  <g id="axes_1">
   <g id="patch_2">
    <path d="M 39.94 120.5216 
L 353.52 120.5216 
L 353.52 32.64 
L 39.94 32.64 
z
" style="fill:#ffffff;"/>
   </g>
   <g id="matplotlib.axis_1">
    <g id="xtick_1">
     <g id="line2d_1">
      <path clip-path="url(#pbc82ce621e)" d="M 51.342909 120.5216 
L 51.342909 32.64 
" style="fill:none;stroke:#b0b0b0;stroke-linecap:square;stroke-width:0.8;"/>
     </g>
     <g id="line2d_2">
      <defs>
       <path d="M 0 0 
L 0 3.5 
" id="m958c9120a3" style="stroke:#000000;stroke-width:0.8;"/>
      </defs>
      <g>
       <use style="stroke:#000000;stroke-width:0.8;" x="51.342909" xlink:href="#m958c9120a3" y="120.5216"/>
      </g>
     </g>
    </g>
    <g id="xtick_2">
     <g id="line2d_3">
      <path clip-path="url(#pbc82ce621e)" d="M 86.977 120.5216 
L 86.977 32.64 
" style="fill:none;stroke:#b0b0b0;stroke-linecap:square;stroke-width:0.8;"/>
     </g>
     <g id="line2d_4">
      <g>
       <use style="stroke:#000000;stroke-width:0.8;" x="86.977" xlink:href="#m958c9120a3" y="120.5216"/>
      </g>
     </g>
    </g>
    <g id="xtick_3">
     <g id="line2d_5">
      <path clip-path="url(#pbc82ce621e)" d="M 122.611091 120.5216 
L 122.611091 32.64 
" style="fill:none;stroke:#b0b0b0;stroke-linecap:square;stroke-width:0.8;"/>
     </g>
     <g id="line2d_6">
      <g>
       <use style="stroke:#000000;stroke-width:0.8;" x="122.611091" xlink:href="#m958c9120a3" y="120.5216"/>
      </g>
     </g>
    </g>
    <g id="xtick_4">
     <g id="line2d_7">
      <path clip-path="url(#pbc82ce621e)" d="M 158.245182 120.5216 
L 158.245182 32.64 
" style="fill:none;stroke:#b0b0b0;stroke-linecap:square;stroke-width:0.8;"/>
     </g>
     <g id="line2d_8">
      <g>
       <use style="stroke:#000000;stroke-width:0.8;" x="158.245182" xlink:href="#m958c9120a3" y="120.5216"/>
      </g>
     </g>
    </g>
    <g id="xtick_5">
     <g id="line2d_9">
      <path clip-path="url(#pbc82ce621e)" d="M 193.879273 120.5216 
L 193.879273 32.64 
" style="fill:none;stroke:#b0b0b0;stroke-linecap:square;stroke-width:0.8;"/>
     </g>
     <g id="line2d_10">
      <g>
       <use style="stroke:#000000;stroke-width:0.8;" x="193.879273" xlink:href="#m958c9120a3" y="120.5216"/>
      </g>
     </g>
    </g>
    <g id="xtick_6">
     <g id="line2d_11">
      <path clip-path="url(#pbc82ce621e)" d="M 229.513364 120.5216 
L 229.513364 32.64 
" style="fill:none;stroke:#b0b0b0;stroke-linecap:square;stroke-width:0.8;"/>
     </g>
     <g id="line2d_12">
      <g>
       <use style="stroke:#000000;stroke-width:0.8;" x="229.513364" xlink:href="#m958c9120a3" y="120.5216"/>
      </g>
     </g>
    </g>
    <g id="xtick_7">
     <g id="line2d_13">
      <path clip-path="url(#pbc82ce621e)" d="M 265.147455 120.5216 
L 265.147455 32.64 
" style="fill:none;stroke:#b0b0b0;stroke-linecap:square;stroke-width:0.8;"/>
     </g>
     <g id="line2d_14">
      <g>
       <use style="stroke:#000000;stroke-width:0.8;" x="265.147455" xlink:href="#m958c9120a3" y="120.5216"/>
      </g>
     </g>
    </g>
    <g id="xtick_8">
     <g id="line2d_15">
      <path clip-path="url(#pbc82ce621e)" d="M 300.781545 120.5216 
L 300.781545 32.64 
" style="fill:none;stroke:#b0b0b0;stroke-linecap:square;stroke-width:0.8;"/>
     </g>
     <g id="line2d_16">
      <g>
       <use style="stroke:#000000;stroke-width:0.8;" x="300.781545" xlink:href="#m958c9120a3" y="120.5216"/>
      </g>
     </g>
    </g>
    <g id="xtick_9">
     <g id="line2d_17">
      <path clip-path="url(#pbc82ce621e)" d="M 336.415636 120.5216 
L 336.415636 32.64 
" style="fill:none;stroke:#b0b0b0;stroke-linecap:square;stroke-width:0.8;"/>
     </g>
     <g id="line2d_18">
      <g>
       <use style="stroke:#000000;stroke-width:0.8;" x="336.415636" xlink:href="#m958c9120a3" y="120.5216"/>
      </g>
     </g>
    </g>
   </g>
   <g id="matplotlib.axis_2">
    <g id="ytick_1">
     <g id="line2d_19">
      <path clip-path="url(#pbc82ce621e)" d="M 39.94 118.637906 
L 353.52 118.637906 
" style="fill:none;stroke:#b0b0b0;stroke-linecap:square;stroke-width:0.8;"/>
     </g>
     <g id="line2d_20">
      <defs>
       <path d="M 0 0 
L -3.5 0 
" id="m5415de7722" style="stroke:#000000;stroke-width:0.8;"/>
      </defs>
      <g>
       <use style="stroke:#000000;stroke-width:0.8;" x="39.94" xlink:href="#m5415de7722" y="118.637906"/>
      </g>
     </g>
     <g id="text_1">
      <!-- 0 -->
      <defs>
       <path d="M 31.78125 66.40625 
Q 24.171875 66.40625 20.328125 58.90625 
Q 16.5 51.421875 16.5 36.375 
Q 16.5 21.390625 20.328125 13.890625 
Q 24.171875 6.390625 31.78125 6.390625 
Q 39.453125 6.390625 43.28125 13.890625 
Q 47.125 21.390625 47.125 36.375 
Q 47.125 51.421875 43.28125 58.90625 
Q 39.453125 66.40625 31.78125 66.40625 
z
M 31.78125 74.21875 
Q 44.046875 74.21875 50.515625 64.515625 
Q 56.984375 54.828125 56.984375 36.375 
Q 56.984375 17.96875 50.515625 8.265625 
Q 44.046875 -1.421875 31.78125 -1.421875 
Q 19.53125 -1.421875 13.0625 8.265625 
Q 6.59375 17.96875 6.59375 36.375 
Q 6.59375 54.828125 13.0625 64.515625 
Q 19.53125 74.21875 31.78125 74.21875 
z
" id="DejaVuSans-48"/>
      </defs>
      <g transform="translate(26.5775 122.437125)scale(0.1 -0.1)">
       <use xlink:href="#DejaVuSans-48"/>
      </g>
     </g>
    </g>
    <g id="ytick_2">
     <g id="line2d_21">
      <path clip-path="url(#pbc82ce621e)" d="M 39.94 92.225816 
L 353.52 92.225816 
" style="fill:none;stroke:#b0b0b0;stroke-linecap:square;stroke-width:0.8;"/>
     </g>
     <g id="line2d_22">
      <g>
       <use style="stroke:#000000;stroke-width:0.8;" x="39.94" xlink:href="#m5415de7722" y="92.225816"/>
      </g>
     </g>
     <g id="text_2">
      <!-- 50 -->
      <defs>
       <path d="M 10.796875 72.90625 
L 49.515625 72.90625 
L 49.515625 64.59375 
L 19.828125 64.59375 
L 19.828125 46.734375 
Q 21.96875 47.46875 24.109375 47.828125 
Q 26.265625 48.1875 28.421875 48.1875 
Q 40.625 48.1875 47.75 41.5 
Q 54.890625 34.8125 54.890625 23.390625 
Q 54.890625 11.625 47.5625 5.09375 
Q 40.234375 -1.421875 26.90625 -1.421875 
Q 22.3125 -1.421875 17.546875 -0.640625 
Q 12.796875 0.140625 7.71875 1.703125 
L 7.71875 11.625 
Q 12.109375 9.234375 16.796875 8.0625 
Q 21.484375 6.890625 26.703125 6.890625 
Q 35.15625 6.890625 40.078125 11.328125 
Q 45.015625 15.765625 45.015625 23.390625 
Q 45.015625 31 40.078125 35.4375 
Q 35.15625 39.890625 26.703125 39.890625 
Q 22.75 39.890625 18.8125 39.015625 
Q 14.890625 38.140625 10.796875 36.28125 
z
" id="DejaVuSans-53"/>
      </defs>
      <g transform="translate(20.215 96.025034)scale(0.1 -0.1)">
       <use xlink:href="#DejaVuSans-53"/>
       <use x="63.623047" xlink:href="#DejaVuSans-48"/>
      </g>
     </g>
    </g>
    <g id="ytick_3">
     <g id="line2d_23">
      <path clip-path="url(#pbc82ce621e)" d="M 39.94 65.813725 
L 353.52 65.813725 
" style="fill:none;stroke:#b0b0b0;stroke-linecap:square;stroke-width:0.8;"/>
     </g>
     <g id="line2d_24">
      <g>
       <use style="stroke:#000000;stroke-width:0.8;" x="39.94" xlink:href="#m5415de7722" y="65.813725"/>
      </g>
     </g>
     <g id="text_3">
      <!-- 100 -->
      <defs>
       <path d="M 12.40625 8.296875 
L 28.515625 8.296875 
L 28.515625 63.921875 
L 10.984375 60.40625 
L 10.984375 69.390625 
L 28.421875 72.90625 
L 38.28125 72.90625 
L 38.28125 8.296875 
L 54.390625 8.296875 
L 54.390625 0 
L 12.40625 0 
z
" id="DejaVuSans-49"/>
      </defs>
      <g transform="translate(13.8525 69.612944)scale(0.1 -0.1)">
       <use xlink:href="#DejaVuSans-49"/>
       <use x="63.623047" xlink:href="#DejaVuSans-48"/>
       <use x="127.246094" xlink:href="#DejaVuSans-48"/>
      </g>
     </g>
    </g>
    <g id="ytick_4">
     <g id="line2d_25">
      <path clip-path="url(#pbc82ce621e)" d="M 39.94 39.401635 
L 353.52 39.401635 
" style="fill:none;stroke:#b0b0b0;stroke-linecap:square;stroke-width:0.8;"/>
     </g>
     <g id="line2d_26">
      <g>
       <use style="stroke:#000000;stroke-width:0.8;" x="39.94" xlink:href="#m5415de7722" y="39.401635"/>
      </g>
     </g>
     <g id="text_4">
      <!-- 150 -->
      <g transform="translate(13.8525 43.200853)scale(0.1 -0.1)">
       <use xlink:href="#DejaVuSans-49"/>
       <use x="63.623047" xlink:href="#DejaVuSans-53"/>
       <use x="127.246094" xlink:href="#DejaVuSans-48"/>
      </g>
     </g>
    </g>
   </g>
   <g id="line2d_27">
    <path clip-path="url(#pbc82ce621e)" d="M 54.193636 116.524939 
L 64.171182 109.261614 
L 65.596545 108.733372 
L 67.021909 108.469251 
L 67.734591 108.20513 
L 68.447273 108.07307 
L 69.159955 107.808949 
L 69.872636 107.676889 
L 70.585318 107.412768 
L 71.298 107.280707 
L 72.010682 107.016586 
L 73.436045 106.752465 
L 74.148727 106.488345 
L 74.861409 106.356284 
L 75.574091 106.092163 
L 76.286773 105.960103 
L 76.999455 105.695982 
L 78.424818 105.431861 
L 79.1375 105.16774 
L 79.850182 105.03568 
L 80.562864 104.771559 
L 81.988227 104.507438 
L 82.700909 104.243317 
L 83.413591 104.111256 
L 84.126273 103.847135 
L 84.838955 103.715075 
L 85.551636 103.450954 
L 86.264318 103.318894 
L 86.977 103.979196 
L 87.689682 103.715075 
L 88.402364 103.318894 
L 89.115045 103.186833 
L 89.827727 102.790652 
L 91.253091 102.26241 
L 91.965773 101.866229 
L 92.678455 101.734168 
L 94.103818 101.205926 
L 95.529182 100.941806 
L 96.241864 100.677685 
L 97.667227 100.413564 
L 98.379909 100.017382 
L 99.092591 99.753261 
L 99.805273 100.017382 
L 102.656 98.960899 
L 103.368682 98.960899 
L 104.794045 98.432657 
L 106.219409 98.168536 
L 106.932091 97.904415 
L 107.644773 97.772355 
L 108.357455 97.508234 
L 109.070136 97.376173 
L 109.782818 97.112052 
L 110.4955 96.979992 
L 111.208182 96.715871 
L 112.633545 96.45175 
L 113.346227 96.187629 
L 114.058909 96.055569 
L 114.771591 95.791448 
L 116.196955 95.527327 
L 116.909636 95.263206 
L 117.622318 95.131146 
L 118.335 94.867025 
L 119.760364 94.602904 
L 120.473045 94.338783 
L 121.185727 94.206722 
L 121.898409 93.942602 
L 122.611091 93.810541 
L 123.323773 93.54642 
L 124.749136 93.282299 
L 125.461818 93.018178 
L 126.1745 92.886118 
L 126.887182 92.621997 
L 127.599864 92.489937 
L 128.312545 92.225816 
L 129.737909 91.961695 
L 130.450591 91.697574 
L 131.163273 91.565513 
L 131.875955 91.301392 
L 133.301318 91.037272 
L 134.014 90.773151 
L 134.726682 90.64109 
L 135.439364 90.376969 
L 136.864727 90.112848 
L 137.577409 89.848727 
L 138.290091 89.716667 
L 139.002773 89.452546 
L 139.715455 89.320486 
L 140.428136 89.056365 
L 141.8535 88.792244 
L 142.566182 88.528123 
L 143.278864 88.396063 
L 143.991545 88.131942 
L 144.704227 87.999881 
L 145.416909 87.73576 
L 146.842273 87.471639 
L 147.554955 87.207518 
L 148.267636 87.075458 
L 148.980318 86.811337 
L 150.405682 86.547216 
L 151.118364 86.283095 
L 151.831045 86.151035 
L 152.543727 85.886914 
L 153.969091 85.622793 
L 154.681773 85.358672 
L 155.394455 85.226612 
L 156.107136 84.962491 
L 156.819818 84.83043 
L 157.5325 84.566309 
L 158.957864 84.302188 
L 159.670545 84.038068 
L 160.383227 83.906007 
L 161.095909 83.641886 
L 162.521273 83.377765 
L 163.233955 83.113644 
L 163.946636 82.981584 
L 164.659318 82.717463 
L 165.372 82.585403 
L 166.084682 82.321282 
L 167.510045 82.057161 
L 168.222727 81.79304 
L 168.935409 81.660979 
L 169.648091 81.396859 
L 171.073455 81.132738 
L 171.786136 80.868617 
L 172.498818 80.736556 
L 173.2115 80.472435 
L 173.924182 80.340375 
L 174.636864 80.076254 
L 176.062227 79.812133 
L 176.774909 79.548012 
L 177.487591 79.415952 
L 178.200273 79.151831 
L 179.625636 78.88771 
L 180.338318 78.623589 
L 181.051 78.491529 
L 181.763682 78.227408 
L 182.476364 78.095347 
L 183.189045 77.831226 
L 184.614409 77.567105 
L 185.327091 77.302984 
L 186.039773 77.170924 
L 186.752455 76.906803 
L 188.177818 76.642682 
L 188.8905 76.378561 
L 189.603182 76.246501 
L 190.315864 75.98238 
L 191.028545 75.85032 
L 191.741227 75.586199 
L 193.166591 75.322078 
L 193.879273 75.057957 
L 194.591955 74.925896 
L 195.304636 74.661775 
L 196.73 74.397655 
L 197.442682 74.133534 
L 198.155364 74.001473 
L 198.868045 73.737352 
L 199.580727 73.605292 
L 200.293409 73.341171 
L 201.718773 73.07705 
L 202.431455 72.812929 
L 203.144136 72.680869 
L 203.856818 72.416748 
L 205.282182 72.152627 
L 205.994864 71.888506 
L 206.707545 71.756445 
L 207.420227 71.492325 
L 208.132909 71.360264 
L 208.845591 71.096143 
L 210.270955 70.832022 
L 210.983636 70.567901 
L 211.696318 70.435841 
L 212.409 70.17172 
L 213.834364 69.907599 
L 214.547045 69.643478 
L 215.259727 69.511418 
L 215.972409 69.247297 
L 216.685091 69.115236 
L 217.397773 68.851116 
L 218.823136 68.586995 
L 219.535818 68.322874 
L 220.2485 68.190813 
L 220.961182 67.926692 
L 222.386545 67.662571 
L 223.099227 67.398451 
L 223.811909 67.26639 
L 224.524591 67.002269 
L 225.237273 66.870209 
L 225.949955 66.606088 
L 227.375318 66.341967 
L 228.088 66.077846 
L 228.800682 65.945786 
L 229.513364 65.681665 
L 230.938727 65.417544 
L 231.651409 65.153423 
L 232.364091 65.021362 
L 233.076773 64.757241 
L 233.789455 64.625181 
L 234.502136 64.36106 
L 235.9275 64.096939 
L 236.640182 63.832818 
L 237.352864 63.700758 
L 238.065545 63.436637 
L 239.490909 63.172516 
L 240.203591 62.908395 
L 240.916273 62.776335 
L 241.628955 62.512214 
L 242.341636 62.380153 
L 243.054318 62.116032 
L 244.479682 61.851912 
L 245.192364 61.587791 
L 245.905045 61.45573 
L 246.617727 61.191609 
L 248.043091 60.927488 
L 248.755773 60.663367 
L 249.468455 60.531307 
L 250.181136 60.267186 
L 250.893818 60.135126 
L 251.6065 59.871005 
L 253.031864 59.606884 
L 253.744545 59.342763 
L 254.457227 59.210702 
L 255.169909 58.946582 
L 256.595273 58.682461 
L 257.307955 58.41834 
L 258.020636 58.286279 
L 258.733318 58.022158 
L 259.446 57.890098 
L 260.158682 57.625977 
L 261.584045 57.361856 
L 262.296727 57.097735 
L 263.009409 56.965675 
L 263.722091 56.701554 
L 265.147455 56.437433 
L 265.860136 56.173312 
L 266.572818 56.041252 
L 267.2855 55.777131 
L 267.998182 55.64507 
L 268.710864 55.380949 
L 270.136227 55.116828 
L 270.848909 54.852708 
L 271.561591 54.720647 
L 272.274273 54.456526 
L 273.699636 54.192405 
L 274.412318 53.928284 
L 275.125 53.796224 
L 275.837682 53.532103 
L 276.550364 53.400043 
L 277.263045 53.135922 
L 278.688409 52.871801 
L 279.401091 52.60768 
L 280.113773 52.475619 
L 280.826455 52.211499 
L 282.251818 51.947378 
L 282.9645 51.683257 
L 283.677182 51.551196 
L 284.389864 51.287075 
L 285.102545 51.155015 
L 285.815227 50.890894 
L 287.240591 50.626773 
L 287.953273 50.362652 
L 288.665955 50.230592 
L 289.378636 49.966471 
L 290.804 49.70235 
L 291.516682 49.438229 
L 292.229364 49.306169 
L 292.942045 49.042048 
L 293.654727 48.909987 
L 294.367409 48.645866 
L 295.792773 48.381745 
L 296.505455 48.117624 
L 297.218136 47.985564 
L 297.930818 47.721443 
L 299.356182 47.457322 
L 300.068864 47.193201 
L 300.781545 47.061141 
L 301.494227 46.79702 
L 302.206909 46.664959 
L 302.919591 46.400839 
L 304.344955 46.136718 
L 305.057636 45.872597 
L 305.770318 45.740536 
L 306.483 45.476415 
L 307.908364 45.212295 
L 308.621045 44.948174 
L 309.333727 44.816113 
L 310.046409 44.551992 
L 310.759091 44.419932 
L 311.471773 44.155811 
L 312.897136 43.89169 
L 313.609818 43.627569 
L 314.3225 43.495509 
L 315.035182 43.231388 
L 316.460545 42.967267 
L 317.173227 42.703146 
L 317.885909 42.571085 
L 318.598591 42.306965 
L 319.311273 42.174904 
L 320.023955 41.910783 
L 321.449318 41.646662 
L 322.162 41.382541 
L 322.874682 41.250481 
L 323.587364 40.98636 
L 325.012727 40.722239 
L 325.725409 40.458118 
L 326.438091 40.326058 
L 327.150773 40.061937 
L 327.863455 39.929876 
L 328.576136 39.665756 
L 330.0015 39.401635 
L 330.714182 39.137514 
L 331.426864 39.005453 
L 332.139545 38.741332 
L 333.564909 38.477211 
L 334.277591 38.213091 
L 334.990273 38.08103 
L 335.702955 37.816909 
L 336.415636 37.684849 
L 337.128318 37.420728 
L 338.553682 37.156607 
L 339.266364 36.892486 
L 339.266364 36.892486 
" style="fill:none;stroke:#1f77b4;stroke-linecap:square;stroke-width:1.5;"/>
   </g>
   <g id="line2d_28">
    <path clip-path="url(#pbc82ce621e)" d="M 54.193636 116.526982 
L 64.171182 109.263033 
L 66.309227 108.611098 
L 81.275545 104.58838 
L 339.266364 36.634618 
L 339.266364 36.634618 
" style="fill:none;stroke:#ff7f0e;stroke-linecap:square;stroke-width:1.5;"/>
   </g>
   <g id="patch_3">
    <path d="M 39.94 120.5216 
L 39.94 32.64 
" style="fill:none;stroke:#000000;stroke-linecap:square;stroke-linejoin:miter;stroke-width:0.8;"/>
   </g>
   <g id="patch_4">
    <path d="M 353.52 120.5216 
L 353.52 32.64 
" style="fill:none;stroke:#000000;stroke-linecap:square;stroke-linejoin:miter;stroke-width:0.8;"/>
   </g>
   <g id="patch_5">
    <path d="M 39.94 120.5216 
L 353.52 120.5216 
" style="fill:none;stroke:#000000;stroke-linecap:square;stroke-linejoin:miter;stroke-width:0.8;"/>
   </g>
   <g id="patch_6">
    <path d="M 39.94 32.64 
L 353.52 32.64 
" style="fill:none;stroke:#000000;stroke-linecap:square;stroke-linejoin:miter;stroke-width:0.8;"/>
   </g>
   <g id="text_5">
    <!-- Cons. Functions -->
    <defs>
     <path d="M 64.40625 67.28125 
L 64.40625 56.890625 
Q 59.421875 61.53125 53.78125 63.8125 
Q 48.140625 66.109375 41.796875 66.109375 
Q 29.296875 66.109375 22.65625 58.46875 
Q 16.015625 50.828125 16.015625 36.375 
Q 16.015625 21.96875 22.65625 14.328125 
Q 29.296875 6.6875 41.796875 6.6875 
Q 48.140625 6.6875 53.78125 8.984375 
Q 59.421875 11.28125 64.40625 15.921875 
L 64.40625 5.609375 
Q 59.234375 2.09375 53.4375 0.328125 
Q 47.65625 -1.421875 41.21875 -1.421875 
Q 24.65625 -1.421875 15.125 8.703125 
Q 5.609375 18.84375 5.609375 36.375 
Q 5.609375 53.953125 15.125 64.078125 
Q 24.65625 74.21875 41.21875 74.21875 
Q 47.75 74.21875 53.53125 72.484375 
Q 59.328125 70.75 64.40625 67.28125 
z
" id="DejaVuSans-67"/>
     <path d="M 30.609375 48.390625 
Q 23.390625 48.390625 19.1875 42.75 
Q 14.984375 37.109375 14.984375 27.296875 
Q 14.984375 17.484375 19.15625 11.84375 
Q 23.34375 6.203125 30.609375 6.203125 
Q 37.796875 6.203125 41.984375 11.859375 
Q 46.1875 17.53125 46.1875 27.296875 
Q 46.1875 37.015625 41.984375 42.703125 
Q 37.796875 48.390625 30.609375 48.390625 
z
M 30.609375 56 
Q 42.328125 56 49.015625 48.375 
Q 55.71875 40.765625 55.71875 27.296875 
Q 55.71875 13.875 49.015625 6.21875 
Q 42.328125 -1.421875 30.609375 -1.421875 
Q 18.84375 -1.421875 12.171875 6.21875 
Q 5.515625 13.875 5.515625 27.296875 
Q 5.515625 40.765625 12.171875 48.375 
Q 18.84375 56 30.609375 56 
z
" id="DejaVuSans-111"/>
     <path d="M 54.890625 33.015625 
L 54.890625 0 
L 45.90625 0 
L 45.90625 32.71875 
Q 45.90625 40.484375 42.875 44.328125 
Q 39.84375 48.1875 33.796875 48.1875 
Q 26.515625 48.1875 22.3125 43.546875 
Q 18.109375 38.921875 18.109375 30.90625 
L 18.109375 0 
L 9.078125 0 
L 9.078125 54.6875 
L 18.109375 54.6875 
L 18.109375 46.1875 
Q 21.34375 51.125 25.703125 53.5625 
Q 30.078125 56 35.796875 56 
Q 45.21875 56 50.046875 50.171875 
Q 54.890625 44.34375 54.890625 33.015625 
z
" id="DejaVuSans-110"/>
     <path d="M 44.28125 53.078125 
L 44.28125 44.578125 
Q 40.484375 46.53125 36.375 47.5 
Q 32.28125 48.484375 27.875 48.484375 
Q 21.1875 48.484375 17.84375 46.4375 
Q 14.5 44.390625 14.5 40.28125 
Q 14.5 37.15625 16.890625 35.375 
Q 19.28125 33.59375 26.515625 31.984375 
L 29.59375 31.296875 
Q 39.15625 29.25 43.1875 25.515625 
Q 47.21875 21.78125 47.21875 15.09375 
Q 47.21875 7.46875 41.1875 3.015625 
Q 35.15625 -1.421875 24.609375 -1.421875 
Q 20.21875 -1.421875 15.453125 -0.5625 
Q 10.6875 0.296875 5.421875 2 
L 5.421875 11.28125 
Q 10.40625 8.6875 15.234375 7.390625 
Q 20.0625 6.109375 24.8125 6.109375 
Q 31.15625 6.109375 34.5625 8.28125 
Q 37.984375 10.453125 37.984375 14.40625 
Q 37.984375 18.0625 35.515625 20.015625 
Q 33.0625 21.96875 24.703125 23.78125 
L 21.578125 24.515625 
Q 13.234375 26.265625 9.515625 29.90625 
Q 5.8125 33.546875 5.8125 39.890625 
Q 5.8125 47.609375 11.28125 51.796875 
Q 16.75 56 26.8125 56 
Q 31.78125 56 36.171875 55.265625 
Q 40.578125 54.546875 44.28125 53.078125 
z
" id="DejaVuSans-115"/>
     <path d="M 10.6875 12.40625 
L 21 12.40625 
L 21 0 
L 10.6875 0 
z
" id="DejaVuSans-46"/>
     <path id="DejaVuSans-32"/>
     <path d="M 9.8125 72.90625 
L 51.703125 72.90625 
L 51.703125 64.59375 
L 19.671875 64.59375 
L 19.671875 43.109375 
L 48.578125 43.109375 
L 48.578125 34.8125 
L 19.671875 34.8125 
L 19.671875 0 
L 9.8125 0 
z
" id="DejaVuSans-70"/>
     <path d="M 8.5 21.578125 
L 8.5 54.6875 
L 17.484375 54.6875 
L 17.484375 21.921875 
Q 17.484375 14.15625 20.5 10.265625 
Q 23.53125 6.390625 29.59375 6.390625 
Q 36.859375 6.390625 41.078125 11.03125 
Q 45.3125 15.671875 45.3125 23.6875 
L 45.3125 54.6875 
L 54.296875 54.6875 
L 54.296875 0 
L 45.3125 0 
L 45.3125 8.40625 
Q 42.046875 3.421875 37.71875 1 
Q 33.40625 -1.421875 27.6875 -1.421875 
Q 18.265625 -1.421875 13.375 4.4375 
Q 8.5 10.296875 8.5 21.578125 
z
M 31.109375 56 
z
" id="DejaVuSans-117"/>
     <path d="M 48.78125 52.59375 
L 48.78125 44.1875 
Q 44.96875 46.296875 41.140625 47.34375 
Q 37.3125 48.390625 33.40625 48.390625 
Q 24.65625 48.390625 19.8125 42.84375 
Q 14.984375 37.3125 14.984375 27.296875 
Q 14.984375 17.28125 19.8125 11.734375 
Q 24.65625 6.203125 33.40625 6.203125 
Q 37.3125 6.203125 41.140625 7.25 
Q 44.96875 8.296875 48.78125 10.40625 
L 48.78125 2.09375 
Q 45.015625 0.34375 40.984375 -0.53125 
Q 36.96875 -1.421875 32.421875 -1.421875 
Q 20.0625 -1.421875 12.78125 6.34375 
Q 5.515625 14.109375 5.515625 27.296875 
Q 5.515625 40.671875 12.859375 48.328125 
Q 20.21875 56 33.015625 56 
Q 37.15625 56 41.109375 55.140625 
Q 45.0625 54.296875 48.78125 52.59375 
z
" id="DejaVuSans-99"/>
     <path d="M 18.3125 70.21875 
L 18.3125 54.6875 
L 36.8125 54.6875 
L 36.8125 47.703125 
L 18.3125 47.703125 
L 18.3125 18.015625 
Q 18.3125 11.328125 20.140625 9.421875 
Q 21.96875 7.515625 27.59375 7.515625 
L 36.8125 7.515625 
L 36.8125 0 
L 27.59375 0 
Q 17.1875 0 13.234375 3.875 
Q 9.28125 7.765625 9.28125 18.015625 
L 9.28125 47.703125 
L 2.6875 47.703125 
L 2.6875 54.6875 
L 9.28125 54.6875 
L 9.28125 70.21875 
z
" id="DejaVuSans-116"/>
     <path d="M 9.421875 54.6875 
L 18.40625 54.6875 
L 18.40625 0 
L 9.421875 0 
z
M 9.421875 75.984375 
L 18.40625 75.984375 
L 18.40625 64.59375 
L 9.421875 64.59375 
z
" id="DejaVuSans-105"/>
    </defs>
    <g transform="translate(149.158438 26.64)scale(0.12 -0.12)">
     <use xlink:href="#DejaVuSans-67"/>
     <use x="69.824219" xlink:href="#DejaVuSans-111"/>
     <use x="131.005859" xlink:href="#DejaVuSans-110"/>
     <use x="194.384766" xlink:href="#DejaVuSans-115"/>
     <use x="246.484375" xlink:href="#DejaVuSans-46"/>
     <use x="278.271484" xlink:href="#DejaVuSans-32"/>
     <use x="310.058594" xlink:href="#DejaVuSans-70"/>
     <use x="367.5" xlink:href="#DejaVuSans-117"/>
     <use x="430.878906" xlink:href="#DejaVuSans-110"/>
     <use x="494.257812" xlink:href="#DejaVuSans-99"/>
     <use x="549.238281" xlink:href="#DejaVuSans-116"/>
     <use x="588.447266" xlink:href="#DejaVuSans-105"/>
     <use x="616.230469" xlink:href="#DejaVuSans-111"/>
     <use x="677.412109" xlink:href="#DejaVuSans-110"/>
     <use x="740.791016" xlink:href="#DejaVuSans-115"/>
    </g>
   </g>
   <g id="legend_1">
    <g id="patch_7">
     <path d="M 46.94 69.99625 
L 106.807187 69.99625 
Q 108.807187 69.99625 108.807187 67.99625 
L 108.807187 39.64 
Q 108.807187 37.64 106.807187 37.64 
L 46.94 37.64 
Q 44.94 37.64 44.94 39.64 
L 44.94 67.99625 
Q 44.94 69.99625 46.94 69.99625 
z
" style="fill:#ffffff;opacity:0.8;stroke:#cccccc;stroke-linejoin:miter;"/>
    </g>
    <g id="line2d_29">
     <path d="M 48.94 45.738438 
L 68.94 45.738438 
" style="fill:none;stroke:#1f77b4;stroke-linecap:square;stroke-width:1.5;"/>
    </g>
    <g id="line2d_30"/>
    <g id="text_6">
     <!-- CGM -->
     <defs>
      <path d="M 59.515625 10.40625 
L 59.515625 29.984375 
L 43.40625 29.984375 
L 43.40625 38.09375 
L 69.28125 38.09375 
L 69.28125 6.78125 
Q 63.578125 2.734375 56.6875 0.65625 
Q 49.8125 -1.421875 42 -1.421875 
Q 24.90625 -1.421875 15.25 8.5625 
Q 5.609375 18.5625 5.609375 36.375 
Q 5.609375 54.25 15.25 64.234375 
Q 24.90625 74.21875 42 74.21875 
Q 49.125 74.21875 55.546875 72.453125 
Q 61.96875 70.703125 67.390625 67.28125 
L 67.390625 56.78125 
Q 61.921875 61.421875 55.765625 63.765625 
Q 49.609375 66.109375 42.828125 66.109375 
Q 29.4375 66.109375 22.71875 58.640625 
Q 16.015625 51.171875 16.015625 36.375 
Q 16.015625 21.625 22.71875 14.15625 
Q 29.4375 6.6875 42.828125 6.6875 
Q 48.046875 6.6875 52.140625 7.59375 
Q 56.25 8.5 59.515625 10.40625 
z
" id="DejaVuSans-71"/>
      <path d="M 9.8125 72.90625 
L 24.515625 72.90625 
L 43.109375 23.296875 
L 61.8125 72.90625 
L 76.515625 72.90625 
L 76.515625 0 
L 66.890625 0 
L 66.890625 64.015625 
L 48.09375 14.015625 
L 38.1875 14.015625 
L 19.390625 64.015625 
L 19.390625 0 
L 9.8125 0 
z
" id="DejaVuSans-77"/>
     </defs>
     <g transform="translate(76.94 49.238438)scale(0.1 -0.1)">
      <use xlink:href="#DejaVuSans-67"/>
      <use x="69.824219" xlink:href="#DejaVuSans-71"/>
      <use x="147.314453" xlink:href="#DejaVuSans-77"/>
     </g>
    </g>
    <g id="line2d_31">
     <path d="M 48.94 60.416563 
L 68.94 60.416563 
" style="fill:none;stroke:#ff7f0e;stroke-linecap:square;stroke-width:1.5;"/>
    </g>
    <g id="line2d_32"/>
    <g id="text_7">
     <!-- HARK -->
     <defs>
      <path d="M 9.8125 72.90625 
L 19.671875 72.90625 
L 19.671875 43.015625 
L 55.515625 43.015625 
L 55.515625 72.90625 
L 65.375 72.90625 
L 65.375 0 
L 55.515625 0 
L 55.515625 34.71875 
L 19.671875 34.71875 
L 19.671875 0 
L 9.8125 0 
z
" id="DejaVuSans-72"/>
      <path d="M 34.1875 63.1875 
L 20.796875 26.90625 
L 47.609375 26.90625 
z
M 28.609375 72.90625 
L 39.796875 72.90625 
L 67.578125 0 
L 57.328125 0 
L 50.6875 18.703125 
L 17.828125 18.703125 
L 11.1875 0 
L 0.78125 0 
z
" id="DejaVuSans-65"/>
      <path d="M 44.390625 34.1875 
Q 47.5625 33.109375 50.5625 29.59375 
Q 53.5625 26.078125 56.59375 19.921875 
L 66.609375 0 
L 56 0 
L 46.6875 18.703125 
Q 43.0625 26.03125 39.671875 28.421875 
Q 36.28125 30.8125 30.421875 30.8125 
L 19.671875 30.8125 
L 19.671875 0 
L 9.8125 0 
L 9.8125 72.90625 
L 32.078125 72.90625 
Q 44.578125 72.90625 50.734375 67.671875 
Q 56.890625 62.453125 56.890625 51.90625 
Q 56.890625 45.015625 53.6875 40.46875 
Q 50.484375 35.9375 44.390625 34.1875 
z
M 19.671875 64.796875 
L 19.671875 38.921875 
L 32.078125 38.921875 
Q 39.203125 38.921875 42.84375 42.21875 
Q 46.484375 45.515625 46.484375 51.90625 
Q 46.484375 58.296875 42.84375 61.546875 
Q 39.203125 64.796875 32.078125 64.796875 
z
" id="DejaVuSans-82"/>
      <path d="M 9.8125 72.90625 
L 19.671875 72.90625 
L 19.671875 42.09375 
L 52.390625 72.90625 
L 65.09375 72.90625 
L 28.90625 38.921875 
L 67.671875 0 
L 54.6875 0 
L 19.671875 35.109375 
L 19.671875 0 
L 9.8125 0 
z
" id="DejaVuSans-75"/>
     </defs>
     <g transform="translate(76.94 63.916563)scale(0.1 -0.1)">
      <use xlink:href="#DejaVuSans-72"/>
      <use x="75.195312" xlink:href="#DejaVuSans-65"/>
      <use x="143.603516" xlink:href="#DejaVuSans-82"/>
      <use x="213.085938" xlink:href="#DejaVuSans-75"/>
     </g>
    </g>
   </g>
  </g>
  <g id="axes_2">
   <g id="patch_8">
    <path d="M 395.62 120.5216 
L 709.2 120.5216 
L 709.2 32.64 
L 395.62 32.64 
z
" style="fill:#ffffff;"/>
   </g>
   <g id="matplotlib.axis_3">
    <g id="xtick_10">
     <g id="line2d_33">
      <path clip-path="url(#pdb296d01f7)" d="M 407.022909 120.5216 
L 407.022909 32.64 
" style="fill:none;stroke:#b0b0b0;stroke-linecap:square;stroke-width:0.8;"/>
     </g>
     <g id="line2d_34">
      <g>
       <use style="stroke:#000000;stroke-width:0.8;" x="407.022909" xlink:href="#m958c9120a3" y="120.5216"/>
      </g>
     </g>
    </g>
    <g id="xtick_11">
     <g id="line2d_35">
      <path clip-path="url(#pdb296d01f7)" d="M 442.657 120.5216 
L 442.657 32.64 
" style="fill:none;stroke:#b0b0b0;stroke-linecap:square;stroke-width:0.8;"/>
     </g>
     <g id="line2d_36">
      <g>
       <use style="stroke:#000000;stroke-width:0.8;" x="442.657" xlink:href="#m958c9120a3" y="120.5216"/>
      </g>
     </g>
    </g>
    <g id="xtick_12">
     <g id="line2d_37">
      <path clip-path="url(#pdb296d01f7)" d="M 478.291091 120.5216 
L 478.291091 32.64 
" style="fill:none;stroke:#b0b0b0;stroke-linecap:square;stroke-width:0.8;"/>
     </g>
     <g id="line2d_38">
      <g>
       <use style="stroke:#000000;stroke-width:0.8;" x="478.291091" xlink:href="#m958c9120a3" y="120.5216"/>
      </g>
     </g>
    </g>
    <g id="xtick_13">
     <g id="line2d_39">
      <path clip-path="url(#pdb296d01f7)" d="M 513.925182 120.5216 
L 513.925182 32.64 
" style="fill:none;stroke:#b0b0b0;stroke-linecap:square;stroke-width:0.8;"/>
     </g>
     <g id="line2d_40">
      <g>
       <use style="stroke:#000000;stroke-width:0.8;" x="513.925182" xlink:href="#m958c9120a3" y="120.5216"/>
      </g>
     </g>
    </g>
    <g id="xtick_14">
     <g id="line2d_41">
      <path clip-path="url(#pdb296d01f7)" d="M 549.559273 120.5216 
L 549.559273 32.64 
" style="fill:none;stroke:#b0b0b0;stroke-linecap:square;stroke-width:0.8;"/>
     </g>
     <g id="line2d_42">
      <g>
       <use style="stroke:#000000;stroke-width:0.8;" x="549.559273" xlink:href="#m958c9120a3" y="120.5216"/>
      </g>
     </g>
    </g>
    <g id="xtick_15">
     <g id="line2d_43">
      <path clip-path="url(#pdb296d01f7)" d="M 585.193364 120.5216 
L 585.193364 32.64 
" style="fill:none;stroke:#b0b0b0;stroke-linecap:square;stroke-width:0.8;"/>
     </g>
     <g id="line2d_44">
      <g>
       <use style="stroke:#000000;stroke-width:0.8;" x="585.193364" xlink:href="#m958c9120a3" y="120.5216"/>
      </g>
     </g>
    </g>
    <g id="xtick_16">
     <g id="line2d_45">
      <path clip-path="url(#pdb296d01f7)" d="M 620.827455 120.5216 
L 620.827455 32.64 
" style="fill:none;stroke:#b0b0b0;stroke-linecap:square;stroke-width:0.8;"/>
     </g>
     <g id="line2d_46">
      <g>
       <use style="stroke:#000000;stroke-width:0.8;" x="620.827455" xlink:href="#m958c9120a3" y="120.5216"/>
      </g>
     </g>
    </g>
    <g id="xtick_17">
     <g id="line2d_47">
      <path clip-path="url(#pdb296d01f7)" d="M 656.461545 120.5216 
L 656.461545 32.64 
" style="fill:none;stroke:#b0b0b0;stroke-linecap:square;stroke-width:0.8;"/>
     </g>
     <g id="line2d_48">
      <g>
       <use style="stroke:#000000;stroke-width:0.8;" x="656.461545" xlink:href="#m958c9120a3" y="120.5216"/>
      </g>
     </g>
    </g>
    <g id="xtick_18">
     <g id="line2d_49">
      <path clip-path="url(#pdb296d01f7)" d="M 692.095636 120.5216 
L 692.095636 32.64 
" style="fill:none;stroke:#b0b0b0;stroke-linecap:square;stroke-width:0.8;"/>
     </g>
     <g id="line2d_50">
      <g>
       <use style="stroke:#000000;stroke-width:0.8;" x="692.095636" xlink:href="#m958c9120a3" y="120.5216"/>
      </g>
     </g>
    </g>
   </g>
   <g id="matplotlib.axis_4">
    <g id="ytick_5">
     <g id="line2d_51">
      <path clip-path="url(#pdb296d01f7)" d="M 395.62 88.398103 
L 709.2 88.398103 
" style="fill:none;stroke:#b0b0b0;stroke-linecap:square;stroke-width:0.8;"/>
     </g>
     <g id="line2d_52">
      <g>
       <use style="stroke:#000000;stroke-width:0.8;" x="395.62" xlink:href="#m5415de7722" y="88.398103"/>
      </g>
     </g>
     <g id="text_8">
      <!-- −1 -->
      <defs>
       <path d="M 10.59375 35.5 
L 73.1875 35.5 
L 73.1875 27.203125 
L 10.59375 27.203125 
z
" id="DejaVuSans-8722"/>
      </defs>
      <g transform="translate(373.877813 92.197321)scale(0.1 -0.1)">
       <use xlink:href="#DejaVuSans-8722"/>
       <use x="83.789062" xlink:href="#DejaVuSans-49"/>
      </g>
     </g>
    </g>
    <g id="ytick_6">
     <g id="line2d_53">
      <path clip-path="url(#pdb296d01f7)" d="M 395.62 47.612342 
L 709.2 47.612342 
" style="fill:none;stroke:#b0b0b0;stroke-linecap:square;stroke-width:0.8;"/>
     </g>
     <g id="line2d_54">
      <g>
       <use style="stroke:#000000;stroke-width:0.8;" x="395.62" xlink:href="#m5415de7722" y="47.612342"/>
      </g>
     </g>
     <g id="text_9">
      <!-- 0 -->
      <g transform="translate(382.2575 51.41156)scale(0.1 -0.1)">
       <use xlink:href="#DejaVuSans-48"/>
      </g>
     </g>
    </g>
   </g>
   <g id="line2d_55">
    <path clip-path="url(#pdb296d01f7)" d="M 409.873636 47.454608 
L 419.1385 46.941972 
L 419.851182 47.502756 
L 420.563864 46.8296 
L 421.276545 41.789317 
L 422.701909 51.869436 
L 423.414591 46.633937 
L 424.127273 51.545847 
L 424.839955 46.214902 
L 425.552636 51.036047 
L 426.265318 45.618523 
L 426.978 50.357432 
L 427.690682 44.861482 
L 429.116045 54.154427 
L 429.828727 48.552854 
L 430.541409 53.109003 
L 431.254091 47.439435 
L 431.966773 51.912315 
L 432.679455 46.067551 
L 434.104818 54.714396 
L 434.8175 48.837354 
L 435.530182 53.154162 
L 436.242864 47.261886 
L 437.668227 55.856515 
L 438.380909 49.957362 
L 439.093591 54.254686 
L 439.806273 48.355539 
L 440.518955 52.652865 
L 441.231636 46.753713 
L 441.944318 51.05104 
L 442.657 116.526982 
L 443.369682 110.627837 
L 444.082364 94.532285 
L 444.795045 98.829587 
L 445.507727 82.733996 
L 446.933091 70.935766 
L 447.645773 54.840167 
L 448.358455 59.137465 
L 449.783818 47.339244 
L 451.209182 55.933823 
L 451.921864 50.034687 
L 453.347227 58.629338 
L 454.059909 42.533765 
L 454.772591 36.634618 
L 455.485273 71.521232 
L 458.336 47.924739 
L 459.048682 62.418492 
L 460.474045 50.620193 
L 461.899409 59.214794 
L 462.612091 53.315664 
L 463.324773 57.612982 
L 464.037455 51.713868 
L 464.750136 56.011198 
L 465.462818 50.112071 
L 466.1755 54.409367 
L 466.888182 48.510221 
L 468.313545 57.104816 
L 469.026227 51.205678 
L 469.738909 55.502985 
L 470.451591 49.603855 
L 471.876955 58.198484 
L 472.589636 52.299361 
L 473.302318 56.596681 
L 474.015 50.697566 
L 475.440364 59.292184 
L 476.153045 53.393042 
L 476.865727 57.69034 
L 477.578409 51.791199 
L 478.291091 56.088499 
L 479.003773 50.189361 
L 480.429136 58.783972 
L 481.141818 52.884839 
L 481.8545 57.182148 
L 482.567182 51.283017 
L 483.279864 55.580327 
L 483.992545 49.681197 
L 485.417909 58.275824 
L 486.130591 52.376699 
L 486.843273 56.674017 
L 487.555955 50.774896 
L 488.981318 59.369531 
L 489.694 53.470401 
L 490.406682 57.767703 
L 491.119364 51.868564 
L 492.544727 60.463167 
L 493.257409 54.56403 
L 493.970091 58.861333 
L 494.682773 52.962196 
L 495.395455 57.259501 
L 496.108136 51.360366 
L 497.5335 59.954977 
L 498.246182 54.055843 
L 498.958864 58.353148 
L 499.671545 52.454014 
L 500.384227 56.751321 
L 501.096909 50.852188 
L 502.522273 59.446805 
L 503.234955 53.547674 
L 503.947636 57.844984 
L 504.660318 51.945855 
L 506.085682 60.540478 
L 506.798364 54.641351 
L 507.511045 58.938664 
L 508.223727 53.039537 
L 509.649091 61.634166 
L 510.361773 55.73504 
L 511.074455 60.032357 
L 511.787136 54.133233 
L 512.499818 58.430549 
L 513.2125 52.531425 
L 514.637864 61.126045 
L 515.350545 55.22691 
L 516.063227 59.524215 
L 516.775909 53.625079 
L 518.201273 62.219688 
L 518.913955 56.320553 
L 519.626636 60.617858 
L 520.339318 54.718723 
L 521.052 59.016028 
L 521.764682 53.116894 
L 523.190045 61.711505 
L 523.902727 55.81237 
L 524.615409 60.109676 
L 525.328091 54.210541 
L 526.753455 62.805152 
L 527.466136 56.906017 
L 528.178818 61.203323 
L 528.8915 55.304189 
L 529.604182 59.601495 
L 530.316864 53.702361 
L 531.742227 62.296974 
L 532.454909 56.397841 
L 533.167591 60.695148 
L 533.880273 54.796015 
L 535.305636 63.39063 
L 536.018318 57.491498 
L 536.731 61.788806 
L 537.443682 55.889673 
L 538.156364 60.186982 
L 538.869045 54.28785 
L 540.294409 62.882467 
L 541.007091 56.983336 
L 541.719773 61.280645 
L 542.432455 55.381514 
L 543.857818 63.976134 
L 544.5705 58.077003 
L 545.283182 62.374313 
L 545.995864 56.475183 
L 546.708545 60.772493 
L 547.421227 54.873363 
L 548.846591 63.467985 
L 549.559273 57.568855 
L 550.271955 61.866166 
L 550.984636 55.967037 
L 552.41 64.561659 
L 553.122682 58.662531 
L 553.835364 62.959842 
L 554.548045 57.060714 
L 555.260727 61.358026 
L 555.973409 55.458897 
L 557.398773 64.053522 
L 558.111455 58.154393 
L 558.824136 62.451706 
L 559.536818 56.552578 
L 560.962182 65.147203 
L 561.674864 59.248076 
L 562.387545 63.545388 
L 563.100227 57.646261 
L 563.812909 61.943574 
L 564.525591 56.044446 
L 565.950955 64.639067 
L 566.663636 58.739938 
L 567.376318 63.037247 
L 568.089 57.138114 
L 569.514364 65.732729 
L 570.227045 59.833595 
L 570.939727 64.130902 
L 571.652409 58.231769 
L 572.365091 62.529076 
L 573.077773 56.629943 
L 574.503136 65.224557 
L 575.215818 59.325423 
L 575.9285 63.62273 
L 576.641182 57.723597 
L 578.066545 66.318212 
L 578.779227 60.419078 
L 579.491909 64.716386 
L 580.204591 58.817252 
L 580.917273 63.114559 
L 581.629955 57.215426 
L 583.055318 65.81004 
L 583.768 59.910906 
L 584.480682 64.208213 
L 585.193364 58.30908 
L 586.618727 66.903693 
L 587.331409 61.00456 
L 588.044091 65.301867 
L 588.756773 59.402734 
L 589.469455 63.700041 
L 590.182136 57.800907 
L 591.6075 66.395521 
L 592.320182 60.496388 
L 593.032864 64.793695 
L 593.745545 58.894562 
L 595.170909 67.489177 
L 595.883591 61.590044 
L 596.596273 65.887351 
L 597.308955 59.988218 
L 598.021636 64.285526 
L 598.734318 58.386393 
L 600.159682 66.981008 
L 600.872364 61.081875 
L 601.585045 65.379182 
L 602.297727 59.480049 
L 603.723091 68.074665 
L 604.435773 62.175532 
L 605.148455 66.47284 
L 605.861136 60.573707 
L 606.573818 64.871015 
L 607.2865 58.971882 
L 608.711864 67.566498 
L 609.424545 61.667365 
L 610.137227 65.964673 
L 610.849909 60.065541 
L 612.275273 68.660156 
L 612.987955 62.761024 
L 613.700636 67.058332 
L 614.413318 61.1592 
L 615.126 65.456508 
L 615.838682 59.557375 
L 617.264045 68.151992 
L 617.976727 62.252859 
L 618.689409 66.550168 
L 619.402091 60.651035 
L 620.827455 69.245652 
L 621.540136 63.34652 
L 622.252818 67.643828 
L 622.9655 61.744696 
L 623.678182 66.042004 
L 624.390864 60.142872 
L 625.816227 68.737489 
L 626.528909 62.838357 
L 627.241591 67.135665 
L 627.954273 61.236533 
L 629.379636 69.83115 
L 630.092318 63.932018 
L 630.805 68.229327 
L 631.517682 62.330195 
L 632.230364 66.627504 
L 632.943045 60.728372 
L 634.368409 69.322989 
L 635.081091 63.423857 
L 635.793773 67.721166 
L 636.506455 61.822034 
L 637.931818 70.416652 
L 638.6445 64.51752 
L 639.357182 68.814829 
L 640.069864 62.915697 
L 640.782545 67.213006 
L 641.495227 61.313875 
L 642.920591 69.908492 
L 643.633273 64.009361 
L 644.345955 68.306669 
L 645.058636 62.407538 
L 646.484 71.002156 
L 647.196682 65.103024 
L 647.909364 69.400333 
L 648.622045 63.501202 
L 649.334727 67.798511 
L 650.047409 61.899379 
L 651.472773 70.493997 
L 652.185455 64.594866 
L 652.898136 68.892175 
L 653.610818 62.993044 
L 655.036182 71.587662 
L 655.748864 65.688531 
L 656.461545 69.98584 
L 657.174227 64.086709 
L 657.886909 68.384018 
L 658.599591 62.484887 
L 660.024955 71.079505 
L 660.737636 65.180374 
L 661.450318 69.477683 
L 662.163 63.578552 
L 663.588364 72.17317 
L 664.301045 66.274039 
L 665.013727 70.571348 
L 665.726409 64.672217 
L 666.439091 68.969526 
L 667.151773 63.070395 
L 668.577136 71.665014 
L 669.289818 65.765883 
L 670.0025 70.063192 
L 670.715182 64.164061 
L 672.140545 72.75868 
L 672.853227 66.859549 
L 673.565909 71.156858 
L 674.278591 65.257727 
L 674.991273 69.555037 
L 675.703955 63.655906 
L 677.129318 72.250525 
L 677.842 66.351394 
L 678.554682 70.648703 
L 679.267364 64.749572 
L 680.692727 73.344191 
L 681.405409 67.44506 
L 682.118091 71.74237 
L 682.830773 65.843239 
L 683.543455 70.140548 
L 684.256136 64.241418 
L 685.6815 72.836036 
L 686.394182 66.936906 
L 687.106864 71.234215 
L 687.819545 65.335084 
L 689.244909 73.929704 
L 689.957591 68.030573 
L 690.670273 72.327882 
L 691.382955 66.428752 
L 692.095636 70.726061 
L 692.808318 64.82693 
L 694.233682 73.42155 
L 694.946364 67.522419 
L 694.946364 67.522419 
" style="fill:none;stroke:#1f77b4;stroke-linecap:square;stroke-width:1.5;"/>
   </g>
   <g id="patch_9">
    <path d="M 395.62 120.5216 
L 395.62 32.64 
" style="fill:none;stroke:#000000;stroke-linecap:square;stroke-linejoin:miter;stroke-width:0.8;"/>
   </g>
   <g id="patch_10">
    <path d="M 709.2 120.5216 
L 709.2 32.64 
" style="fill:none;stroke:#000000;stroke-linecap:square;stroke-linejoin:miter;stroke-width:0.8;"/>
   </g>
   <g id="patch_11">
    <path d="M 395.62 120.5216 
L 709.2 120.5216 
" style="fill:none;stroke:#000000;stroke-linecap:square;stroke-linejoin:miter;stroke-width:0.8;"/>
   </g>
   <g id="patch_12">
    <path d="M 395.62 32.64 
L 709.2 32.64 
" style="fill:none;stroke:#000000;stroke-linecap:square;stroke-linejoin:miter;stroke-width:0.8;"/>
   </g>
   <g id="text_10">
    <!-- Cons. Difference -->
    <defs>
     <path d="M 19.671875 64.796875 
L 19.671875 8.109375 
L 31.59375 8.109375 
Q 46.6875 8.109375 53.6875 14.9375 
Q 60.6875 21.78125 60.6875 36.53125 
Q 60.6875 51.171875 53.6875 57.984375 
Q 46.6875 64.796875 31.59375 64.796875 
z
M 9.8125 72.90625 
L 30.078125 72.90625 
Q 51.265625 72.90625 61.171875 64.09375 
Q 71.09375 55.28125 71.09375 36.53125 
Q 71.09375 17.671875 61.125 8.828125 
Q 51.171875 0 30.078125 0 
L 9.8125 0 
z
" id="DejaVuSans-68"/>
     <path d="M 37.109375 75.984375 
L 37.109375 68.5 
L 28.515625 68.5 
Q 23.6875 68.5 21.796875 66.546875 
Q 19.921875 64.59375 19.921875 59.515625 
L 19.921875 54.6875 
L 34.71875 54.6875 
L 34.71875 47.703125 
L 19.921875 47.703125 
L 19.921875 0 
L 10.890625 0 
L 10.890625 47.703125 
L 2.296875 47.703125 
L 2.296875 54.6875 
L 10.890625 54.6875 
L 10.890625 58.5 
Q 10.890625 67.625 15.140625 71.796875 
Q 19.390625 75.984375 28.609375 75.984375 
z
" id="DejaVuSans-102"/>
     <path d="M 56.203125 29.59375 
L 56.203125 25.203125 
L 14.890625 25.203125 
Q 15.484375 15.921875 20.484375 11.0625 
Q 25.484375 6.203125 34.421875 6.203125 
Q 39.59375 6.203125 44.453125 7.46875 
Q 49.3125 8.734375 54.109375 11.28125 
L 54.109375 2.78125 
Q 49.265625 0.734375 44.1875 -0.34375 
Q 39.109375 -1.421875 33.890625 -1.421875 
Q 20.796875 -1.421875 13.15625 6.1875 
Q 5.515625 13.8125 5.515625 26.8125 
Q 5.515625 40.234375 12.765625 48.109375 
Q 20.015625 56 32.328125 56 
Q 43.359375 56 49.78125 48.890625 
Q 56.203125 41.796875 56.203125 29.59375 
z
M 47.21875 32.234375 
Q 47.125 39.59375 43.09375 43.984375 
Q 39.0625 48.390625 32.421875 48.390625 
Q 24.90625 48.390625 20.390625 44.140625 
Q 15.875 39.890625 15.1875 32.171875 
z
" id="DejaVuSans-101"/>
     <path d="M 41.109375 46.296875 
Q 39.59375 47.171875 37.8125 47.578125 
Q 36.03125 48 33.890625 48 
Q 26.265625 48 22.1875 43.046875 
Q 18.109375 38.09375 18.109375 28.8125 
L 18.109375 0 
L 9.078125 0 
L 9.078125 54.6875 
L 18.109375 54.6875 
L 18.109375 46.1875 
Q 20.953125 51.171875 25.484375 53.578125 
Q 30.03125 56 36.53125 56 
Q 37.453125 56 38.578125 55.875 
Q 39.703125 55.765625 41.0625 55.515625 
z
" id="DejaVuSans-114"/>
    </defs>
    <g transform="translate(502.654063 26.64)scale(0.12 -0.12)">
     <use xlink:href="#DejaVuSans-67"/>
     <use x="69.824219" xlink:href="#DejaVuSans-111"/>
     <use x="131.005859" xlink:href="#DejaVuSans-110"/>
     <use x="194.384766" xlink:href="#DejaVuSans-115"/>
     <use x="246.484375" xlink:href="#DejaVuSans-46"/>
     <use x="278.271484" xlink:href="#DejaVuSans-32"/>
     <use x="310.058594" xlink:href="#DejaVuSans-68"/>
     <use x="387.060547" xlink:href="#DejaVuSans-105"/>
     <use x="414.84375" xlink:href="#DejaVuSans-102"/>
     <use x="450.048828" xlink:href="#DejaVuSans-102"/>
     <use x="485.253906" xlink:href="#DejaVuSans-101"/>
     <use x="546.777344" xlink:href="#DejaVuSans-114"/>
     <use x="587.859375" xlink:href="#DejaVuSans-101"/>
     <use x="649.382812" xlink:href="#DejaVuSans-110"/>
     <use x="712.761719" xlink:href="#DejaVuSans-99"/>
     <use x="767.742188" xlink:href="#DejaVuSans-101"/>
    </g>
   </g>
   <g id="legend_2">
    <g id="patch_13">
     <path d="M 609.009375 55.318125 
L 702.2 55.318125 
Q 704.2 55.318125 704.2 53.318125 
L 704.2 39.64 
Q 704.2 37.64 702.2 37.64 
L 609.009375 37.64 
Q 607.009375 37.64 607.009375 39.64 
L 607.009375 53.318125 
Q 607.009375 55.318125 609.009375 55.318125 
z
" style="fill:#ffffff;opacity:0.8;stroke:#cccccc;stroke-linejoin:miter;"/>
    </g>
    <g id="line2d_56">
     <path d="M 611.009375 45.738438 
L 631.009375 45.738438 
" style="fill:none;stroke:#1f77b4;stroke-linecap:square;stroke-width:1.5;"/>
    </g>
    <g id="line2d_57"/>
    <g id="text_11">
     <!-- CGM - HARK -->
     <defs>
      <path d="M 4.890625 31.390625 
L 31.203125 31.390625 
L 31.203125 23.390625 
L 4.890625 23.390625 
z
" id="DejaVuSans-45"/>
     </defs>
     <g transform="translate(639.009375 49.238438)scale(0.1 -0.1)">
      <use xlink:href="#DejaVuSans-67"/>
      <use x="69.824219" xlink:href="#DejaVuSans-71"/>
      <use x="147.314453" xlink:href="#DejaVuSans-77"/>
      <use x="233.59375" xlink:href="#DejaVuSans-32"/>
      <use x="265.380859" xlink:href="#DejaVuSans-45"/>
      <use x="301.464844" xlink:href="#DejaVuSans-32"/>
      <use x="333.251953" xlink:href="#DejaVuSans-72"/>
      <use x="408.447266" xlink:href="#DejaVuSans-65"/>
      <use x="476.855469" xlink:href="#DejaVuSans-82"/>
      <use x="546.337891" xlink:href="#DejaVuSans-75"/>
     </g>
    </g>
   </g>
  </g>
  <g id="axes_3">
   <g id="patch_14">
    <path d="M 39.94 252.344 
L 353.52 252.344 
L 353.52 164.4624 
L 39.94 164.4624 
z
" style="fill:#ffffff;"/>
   </g>
   <g id="matplotlib.axis_5">
    <g id="xtick_19">
     <g id="line2d_58">
      <path clip-path="url(#p2ff9e97066)" d="M 51.342909 252.344 
L 51.342909 164.4624 
" style="fill:none;stroke:#b0b0b0;stroke-linecap:square;stroke-width:0.8;"/>
     </g>
     <g id="line2d_59">
      <g>
       <use style="stroke:#000000;stroke-width:0.8;" x="51.342909" xlink:href="#m958c9120a3" y="252.344"/>
      </g>
     </g>
     <g id="text_12">
      <!-- 0 -->
      <g transform="translate(48.161659 266.942437)scale(0.1 -0.1)">
       <use xlink:href="#DejaVuSans-48"/>
      </g>
     </g>
    </g>
    <g id="xtick_20">
     <g id="line2d_60">
      <path clip-path="url(#p2ff9e97066)" d="M 86.977 252.344 
L 86.977 164.4624 
" style="fill:none;stroke:#b0b0b0;stroke-linecap:square;stroke-width:0.8;"/>
     </g>
     <g id="line2d_61">
      <g>
       <use style="stroke:#000000;stroke-width:0.8;" x="86.977" xlink:href="#m958c9120a3" y="252.344"/>
      </g>
     </g>
     <g id="text_13">
      <!-- 50 -->
      <g transform="translate(80.6145 266.942437)scale(0.1 -0.1)">
       <use xlink:href="#DejaVuSans-53"/>
       <use x="63.623047" xlink:href="#DejaVuSans-48"/>
      </g>
     </g>
    </g>
    <g id="xtick_21">
     <g id="line2d_62">
      <path clip-path="url(#p2ff9e97066)" d="M 122.611091 252.344 
L 122.611091 164.4624 
" style="fill:none;stroke:#b0b0b0;stroke-linecap:square;stroke-width:0.8;"/>
     </g>
     <g id="line2d_63">
      <g>
       <use style="stroke:#000000;stroke-width:0.8;" x="122.611091" xlink:href="#m958c9120a3" y="252.344"/>
      </g>
     </g>
     <g id="text_14">
      <!-- 100 -->
      <g transform="translate(113.067341 266.942437)scale(0.1 -0.1)">
       <use xlink:href="#DejaVuSans-49"/>
       <use x="63.623047" xlink:href="#DejaVuSans-48"/>
       <use x="127.246094" xlink:href="#DejaVuSans-48"/>
      </g>
     </g>
    </g>
    <g id="xtick_22">
     <g id="line2d_64">
      <path clip-path="url(#p2ff9e97066)" d="M 158.245182 252.344 
L 158.245182 164.4624 
" style="fill:none;stroke:#b0b0b0;stroke-linecap:square;stroke-width:0.8;"/>
     </g>
     <g id="line2d_65">
      <g>
       <use style="stroke:#000000;stroke-width:0.8;" x="158.245182" xlink:href="#m958c9120a3" y="252.344"/>
      </g>
     </g>
     <g id="text_15">
      <!-- 150 -->
      <g transform="translate(148.701432 266.942437)scale(0.1 -0.1)">
       <use xlink:href="#DejaVuSans-49"/>
       <use x="63.623047" xlink:href="#DejaVuSans-53"/>
       <use x="127.246094" xlink:href="#DejaVuSans-48"/>
      </g>
     </g>
    </g>
    <g id="xtick_23">
     <g id="line2d_66">
      <path clip-path="url(#p2ff9e97066)" d="M 193.879273 252.344 
L 193.879273 164.4624 
" style="fill:none;stroke:#b0b0b0;stroke-linecap:square;stroke-width:0.8;"/>
     </g>
     <g id="line2d_67">
      <g>
       <use style="stroke:#000000;stroke-width:0.8;" x="193.879273" xlink:href="#m958c9120a3" y="252.344"/>
      </g>
     </g>
     <g id="text_16">
      <!-- 200 -->
      <defs>
       <path d="M 19.1875 8.296875 
L 53.609375 8.296875 
L 53.609375 0 
L 7.328125 0 
L 7.328125 8.296875 
Q 12.9375 14.109375 22.625 23.890625 
Q 32.328125 33.6875 34.8125 36.53125 
Q 39.546875 41.84375 41.421875 45.53125 
Q 43.3125 49.21875 43.3125 52.78125 
Q 43.3125 58.59375 39.234375 62.25 
Q 35.15625 65.921875 28.609375 65.921875 
Q 23.96875 65.921875 18.8125 64.3125 
Q 13.671875 62.703125 7.8125 59.421875 
L 7.8125 69.390625 
Q 13.765625 71.78125 18.9375 73 
Q 24.125 74.21875 28.421875 74.21875 
Q 39.75 74.21875 46.484375 68.546875 
Q 53.21875 62.890625 53.21875 53.421875 
Q 53.21875 48.921875 51.53125 44.890625 
Q 49.859375 40.875 45.40625 35.40625 
Q 44.1875 33.984375 37.640625 27.21875 
Q 31.109375 20.453125 19.1875 8.296875 
z
" id="DejaVuSans-50"/>
      </defs>
      <g transform="translate(184.335523 266.942437)scale(0.1 -0.1)">
       <use xlink:href="#DejaVuSans-50"/>
       <use x="63.623047" xlink:href="#DejaVuSans-48"/>
       <use x="127.246094" xlink:href="#DejaVuSans-48"/>
      </g>
     </g>
    </g>
    <g id="xtick_24">
     <g id="line2d_68">
      <path clip-path="url(#p2ff9e97066)" d="M 229.513364 252.344 
L 229.513364 164.4624 
" style="fill:none;stroke:#b0b0b0;stroke-linecap:square;stroke-width:0.8;"/>
     </g>
     <g id="line2d_69">
      <g>
       <use style="stroke:#000000;stroke-width:0.8;" x="229.513364" xlink:href="#m958c9120a3" y="252.344"/>
      </g>
     </g>
     <g id="text_17">
      <!-- 250 -->
      <g transform="translate(219.969614 266.942437)scale(0.1 -0.1)">
       <use xlink:href="#DejaVuSans-50"/>
       <use x="63.623047" xlink:href="#DejaVuSans-53"/>
       <use x="127.246094" xlink:href="#DejaVuSans-48"/>
      </g>
     </g>
    </g>
    <g id="xtick_25">
     <g id="line2d_70">
      <path clip-path="url(#p2ff9e97066)" d="M 265.147455 252.344 
L 265.147455 164.4624 
" style="fill:none;stroke:#b0b0b0;stroke-linecap:square;stroke-width:0.8;"/>
     </g>
     <g id="line2d_71">
      <g>
       <use style="stroke:#000000;stroke-width:0.8;" x="265.147455" xlink:href="#m958c9120a3" y="252.344"/>
      </g>
     </g>
     <g id="text_18">
      <!-- 300 -->
      <defs>
       <path d="M 40.578125 39.3125 
Q 47.65625 37.796875 51.625 33 
Q 55.609375 28.21875 55.609375 21.1875 
Q 55.609375 10.40625 48.1875 4.484375 
Q 40.765625 -1.421875 27.09375 -1.421875 
Q 22.515625 -1.421875 17.65625 -0.515625 
Q 12.796875 0.390625 7.625 2.203125 
L 7.625 11.71875 
Q 11.71875 9.328125 16.59375 8.109375 
Q 21.484375 6.890625 26.8125 6.890625 
Q 36.078125 6.890625 40.9375 10.546875 
Q 45.796875 14.203125 45.796875 21.1875 
Q 45.796875 27.640625 41.28125 31.265625 
Q 36.765625 34.90625 28.71875 34.90625 
L 20.21875 34.90625 
L 20.21875 43.015625 
L 29.109375 43.015625 
Q 36.375 43.015625 40.234375 45.921875 
Q 44.09375 48.828125 44.09375 54.296875 
Q 44.09375 59.90625 40.109375 62.90625 
Q 36.140625 65.921875 28.71875 65.921875 
Q 24.65625 65.921875 20.015625 65.03125 
Q 15.375 64.15625 9.8125 62.3125 
L 9.8125 71.09375 
Q 15.4375 72.65625 20.34375 73.4375 
Q 25.25 74.21875 29.59375 74.21875 
Q 40.828125 74.21875 47.359375 69.109375 
Q 53.90625 64.015625 53.90625 55.328125 
Q 53.90625 49.265625 50.4375 45.09375 
Q 46.96875 40.921875 40.578125 39.3125 
z
" id="DejaVuSans-51"/>
      </defs>
      <g transform="translate(255.603705 266.942437)scale(0.1 -0.1)">
       <use xlink:href="#DejaVuSans-51"/>
       <use x="63.623047" xlink:href="#DejaVuSans-48"/>
       <use x="127.246094" xlink:href="#DejaVuSans-48"/>
      </g>
     </g>
    </g>
    <g id="xtick_26">
     <g id="line2d_72">
      <path clip-path="url(#p2ff9e97066)" d="M 300.781545 252.344 
L 300.781545 164.4624 
" style="fill:none;stroke:#b0b0b0;stroke-linecap:square;stroke-width:0.8;"/>
     </g>
     <g id="line2d_73">
      <g>
       <use style="stroke:#000000;stroke-width:0.8;" x="300.781545" xlink:href="#m958c9120a3" y="252.344"/>
      </g>
     </g>
     <g id="text_19">
      <!-- 350 -->
      <g transform="translate(291.237795 266.942437)scale(0.1 -0.1)">
       <use xlink:href="#DejaVuSans-51"/>
       <use x="63.623047" xlink:href="#DejaVuSans-53"/>
       <use x="127.246094" xlink:href="#DejaVuSans-48"/>
      </g>
     </g>
    </g>
    <g id="xtick_27">
     <g id="line2d_74">
      <path clip-path="url(#p2ff9e97066)" d="M 336.415636 252.344 
L 336.415636 164.4624 
" style="fill:none;stroke:#b0b0b0;stroke-linecap:square;stroke-width:0.8;"/>
     </g>
     <g id="line2d_75">
      <g>
       <use style="stroke:#000000;stroke-width:0.8;" x="336.415636" xlink:href="#m958c9120a3" y="252.344"/>
      </g>
     </g>
     <g id="text_20">
      <!-- 400 -->
      <defs>
       <path d="M 37.796875 64.3125 
L 12.890625 25.390625 
L 37.796875 25.390625 
z
M 35.203125 72.90625 
L 47.609375 72.90625 
L 47.609375 25.390625 
L 58.015625 25.390625 
L 58.015625 17.1875 
L 47.609375 17.1875 
L 47.609375 0 
L 37.796875 0 
L 37.796875 17.1875 
L 4.890625 17.1875 
L 4.890625 26.703125 
z
" id="DejaVuSans-52"/>
      </defs>
      <g transform="translate(326.871886 266.942437)scale(0.1 -0.1)">
       <use xlink:href="#DejaVuSans-52"/>
       <use x="63.623047" xlink:href="#DejaVuSans-48"/>
       <use x="127.246094" xlink:href="#DejaVuSans-48"/>
      </g>
     </g>
    </g>
   </g>
   <g id="matplotlib.axis_6">
    <g id="ytick_7">
     <g id="line2d_76">
      <path clip-path="url(#p2ff9e97066)" d="M 39.94 248.349382 
L 353.52 248.349382 
" style="fill:none;stroke:#b0b0b0;stroke-linecap:square;stroke-width:0.8;"/>
     </g>
     <g id="line2d_77">
      <g>
       <use style="stroke:#000000;stroke-width:0.8;" x="39.94" xlink:href="#m5415de7722" y="248.349382"/>
      </g>
     </g>
     <g id="text_21">
      <!-- 0.0 -->
      <g transform="translate(17.036875 252.148601)scale(0.1 -0.1)">
       <use xlink:href="#DejaVuSans-48"/>
       <use x="63.623047" xlink:href="#DejaVuSans-46"/>
       <use x="95.410156" xlink:href="#DejaVuSans-48"/>
      </g>
     </g>
    </g>
    <g id="ytick_8">
     <g id="line2d_78">
      <path clip-path="url(#p2ff9e97066)" d="M 39.94 208.4032 
L 353.52 208.4032 
" style="fill:none;stroke:#b0b0b0;stroke-linecap:square;stroke-width:0.8;"/>
     </g>
     <g id="line2d_79">
      <g>
       <use style="stroke:#000000;stroke-width:0.8;" x="39.94" xlink:href="#m5415de7722" y="208.4032"/>
      </g>
     </g>
     <g id="text_22">
      <!-- 0.5 -->
      <g transform="translate(17.036875 212.202419)scale(0.1 -0.1)">
       <use xlink:href="#DejaVuSans-48"/>
       <use x="63.623047" xlink:href="#DejaVuSans-46"/>
       <use x="95.410156" xlink:href="#DejaVuSans-53"/>
      </g>
     </g>
    </g>
    <g id="ytick_9">
     <g id="line2d_80">
      <path clip-path="url(#p2ff9e97066)" d="M 39.94 168.457018 
L 353.52 168.457018 
" style="fill:none;stroke:#b0b0b0;stroke-linecap:square;stroke-width:0.8;"/>
     </g>
     <g id="line2d_81">
      <g>
       <use style="stroke:#000000;stroke-width:0.8;" x="39.94" xlink:href="#m5415de7722" y="168.457018"/>
      </g>
     </g>
     <g id="text_23">
      <!-- 1.0 -->
      <g transform="translate(17.036875 172.256237)scale(0.1 -0.1)">
       <use xlink:href="#DejaVuSans-49"/>
       <use x="63.623047" xlink:href="#DejaVuSans-46"/>
       <use x="95.410156" xlink:href="#DejaVuSans-48"/>
      </g>
     </g>
    </g>
   </g>
   <g id="line2d_82">
    <path clip-path="url(#p2ff9e97066)" d="M 54.193636 248.349382 
L 63.4585 248.349382 
L 64.171182 168.457018 
L 70.585318 168.457018 
L 71.298 169.255942 
L 72.010682 174.049484 
L 73.436045 184.435491 
L 74.148727 186.832262 
L 74.861409 190.82688 
L 75.574091 192.424727 
L 76.286773 195.620422 
L 76.999455 197.218269 
L 78.424818 202.011811 
L 79.1375 202.810735 
L 80.562864 206.006429 
L 81.275545 206.805353 
L 81.988227 208.4032 
L 86.264318 213.196742 
L 86.977 215.593513 
L 87.689682 216.392436 
L 88.402364 216.392436 
L 89.115045 217.19136 
L 90.540409 217.19136 
L 91.253091 217.990284 
L 91.965773 217.990284 
L 92.678455 218.789207 
L 93.391136 218.789207 
L 94.103818 219.588131 
L 94.8165 218.789207 
L 95.529182 222.783825 
L 96.241864 225.97952 
L 96.954545 215.593513 
L 98.379909 220.387055 
L 99.092591 225.180596 
L 99.805273 215.593513 
L 100.517955 221.185978 
L 101.230636 221.185978 
L 102.656 214.794589 
L 103.368682 227.577367 
L 104.794045 224.381673 
L 105.506727 223.582749 
L 106.219409 226.778444 
L 106.932091 226.778444 
L 107.644773 225.180596 
L 108.357455 224.381673 
L 109.070136 224.381673 
L 109.782818 225.180596 
L 114.058909 225.180596 
L 114.771591 225.97952 
L 119.047682 225.97952 
L 119.760364 226.778444 
L 124.036455 226.778444 
L 124.749136 227.577367 
L 131.163273 227.577367 
L 131.875955 228.376291 
L 139.002773 228.376291 
L 139.715455 229.175215 
L 149.693 229.175215 
L 150.405682 229.974138 
L 164.659318 229.974138 
L 165.372 230.773062 
L 184.614409 230.773062 
L 185.327091 231.571985 
L 215.259727 231.571985 
L 215.972409 232.370909 
L 266.572818 232.370909 
L 267.2855 233.169833 
L 339.266364 233.169833 
L 339.266364 233.169833 
" style="fill:none;stroke:#1f77b4;stroke-linecap:square;stroke-width:1.5;"/>
   </g>
   <g id="line2d_83">
    <path clip-path="url(#p2ff9e97066)" d="M 54.193636 168.457018 
L 58.469727 168.457018 
L 59.182409 169.774429 
L 60.607773 178.501726 
L 62.033136 185.024762 
L 63.4585 190.139284 
L 64.883864 194.177398 
L 66.309227 197.44602 
L 67.734591 200.147364 
L 69.159955 202.41473 
L 70.585318 204.345783 
L 72.010682 206.01255 
L 74.148727 208.120833 
L 76.286773 209.866573 
L 78.424818 211.337742 
L 81.275545 212.972162 
L 84.126273 214.32252 
L 87.689682 215.711169 
L 91.253091 216.854232 
L 95.529182 217.979407 
L 100.517955 219.047321 
L 106.219409 220.029341 
L 112.633545 220.914211 
L 120.473045 221.775673 
L 130.450591 222.624022 
L 142.566182 223.402715 
L 158.245182 224.150167 
L 176.062227 224.772095 
L 198.868045 225.348412 
L 228.088 225.868611 
L 270.136227 226.372324 
L 327.150773 226.81241 
L 339.266364 226.883522 
L 339.266364 226.883522 
" style="fill:none;stroke:#ff7f0e;stroke-linecap:square;stroke-width:1.5;"/>
   </g>
   <g id="patch_15">
    <path d="M 39.94 252.344 
L 39.94 164.4624 
" style="fill:none;stroke:#000000;stroke-linecap:square;stroke-linejoin:miter;stroke-width:0.8;"/>
   </g>
   <g id="patch_16">
    <path d="M 353.52 252.344 
L 353.52 164.4624 
" style="fill:none;stroke:#000000;stroke-linecap:square;stroke-linejoin:miter;stroke-width:0.8;"/>
   </g>
   <g id="patch_17">
    <path d="M 39.94 252.344 
L 353.52 252.344 
" style="fill:none;stroke:#000000;stroke-linecap:square;stroke-linejoin:miter;stroke-width:0.8;"/>
   </g>
   <g id="patch_18">
    <path d="M 39.94 164.4624 
L 353.52 164.4624 
" style="fill:none;stroke:#000000;stroke-linecap:square;stroke-linejoin:miter;stroke-width:0.8;"/>
   </g>
   <g id="text_24">
    <!-- Risky Sh. Functions -->
    <defs>
     <path d="M 9.078125 75.984375 
L 18.109375 75.984375 
L 18.109375 31.109375 
L 44.921875 54.6875 
L 56.390625 54.6875 
L 27.390625 29.109375 
L 57.625 0 
L 45.90625 0 
L 18.109375 26.703125 
L 18.109375 0 
L 9.078125 0 
z
" id="DejaVuSans-107"/>
     <path d="M 32.171875 -5.078125 
Q 28.375 -14.84375 24.75 -17.8125 
Q 21.140625 -20.796875 15.09375 -20.796875 
L 7.90625 -20.796875 
L 7.90625 -13.28125 
L 13.1875 -13.28125 
Q 16.890625 -13.28125 18.9375 -11.515625 
Q 21 -9.765625 23.484375 -3.21875 
L 25.09375 0.875 
L 2.984375 54.6875 
L 12.5 54.6875 
L 29.59375 11.921875 
L 46.6875 54.6875 
L 56.203125 54.6875 
z
" id="DejaVuSans-121"/>
     <path d="M 53.515625 70.515625 
L 53.515625 60.890625 
Q 47.90625 63.578125 42.921875 64.890625 
Q 37.9375 66.21875 33.296875 66.21875 
Q 25.25 66.21875 20.875 63.09375 
Q 16.5 59.96875 16.5 54.203125 
Q 16.5 49.359375 19.40625 46.890625 
Q 22.3125 44.4375 30.421875 42.921875 
L 36.375 41.703125 
Q 47.40625 39.59375 52.65625 34.296875 
Q 57.90625 29 57.90625 20.125 
Q 57.90625 9.515625 50.796875 4.046875 
Q 43.703125 -1.421875 29.984375 -1.421875 
Q 24.8125 -1.421875 18.96875 -0.25 
Q 13.140625 0.921875 6.890625 3.21875 
L 6.890625 13.375 
Q 12.890625 10.015625 18.65625 8.296875 
Q 24.421875 6.59375 29.984375 6.59375 
Q 38.421875 6.59375 43.015625 9.90625 
Q 47.609375 13.234375 47.609375 19.390625 
Q 47.609375 24.75 44.3125 27.78125 
Q 41.015625 30.8125 33.5 32.328125 
L 27.484375 33.5 
Q 16.453125 35.6875 11.515625 40.375 
Q 6.59375 45.0625 6.59375 53.421875 
Q 6.59375 63.09375 13.40625 68.65625 
Q 20.21875 74.21875 32.171875 74.21875 
Q 37.3125 74.21875 42.625 73.28125 
Q 47.953125 72.359375 53.515625 70.515625 
z
" id="DejaVuSans-83"/>
     <path d="M 54.890625 33.015625 
L 54.890625 0 
L 45.90625 0 
L 45.90625 32.71875 
Q 45.90625 40.484375 42.875 44.328125 
Q 39.84375 48.1875 33.796875 48.1875 
Q 26.515625 48.1875 22.3125 43.546875 
Q 18.109375 38.921875 18.109375 30.90625 
L 18.109375 0 
L 9.078125 0 
L 9.078125 75.984375 
L 18.109375 75.984375 
L 18.109375 46.1875 
Q 21.34375 51.125 25.703125 53.5625 
Q 30.078125 56 35.796875 56 
Q 45.21875 56 50.046875 50.171875 
Q 54.890625 44.34375 54.890625 33.015625 
z
" id="DejaVuSans-104"/>
    </defs>
    <g transform="translate(138.444688 158.4624)scale(0.12 -0.12)">
     <use xlink:href="#DejaVuSans-82"/>
     <use x="69.482422" xlink:href="#DejaVuSans-105"/>
     <use x="97.265625" xlink:href="#DejaVuSans-115"/>
     <use x="149.365234" xlink:href="#DejaVuSans-107"/>
     <use x="207.228516" xlink:href="#DejaVuSans-121"/>
     <use x="266.408203" xlink:href="#DejaVuSans-32"/>
     <use x="298.195312" xlink:href="#DejaVuSans-83"/>
     <use x="361.671875" xlink:href="#DejaVuSans-104"/>
     <use x="425.050781" xlink:href="#DejaVuSans-46"/>
     <use x="456.837891" xlink:href="#DejaVuSans-32"/>
     <use x="488.625" xlink:href="#DejaVuSans-70"/>
     <use x="546.066406" xlink:href="#DejaVuSans-117"/>
     <use x="609.445312" xlink:href="#DejaVuSans-110"/>
     <use x="672.824219" xlink:href="#DejaVuSans-99"/>
     <use x="727.804688" xlink:href="#DejaVuSans-116"/>
     <use x="767.013672" xlink:href="#DejaVuSans-105"/>
     <use x="794.796875" xlink:href="#DejaVuSans-111"/>
     <use x="855.978516" xlink:href="#DejaVuSans-110"/>
     <use x="919.357422" xlink:href="#DejaVuSans-115"/>
    </g>
   </g>
   <g id="legend_3">
    <g id="patch_19">
     <path d="M 286.652813 201.81865 
L 346.52 201.81865 
Q 348.52 201.81865 348.52 199.81865 
L 348.52 171.4624 
Q 348.52 169.4624 346.52 169.4624 
L 286.652813 169.4624 
Q 284.652813 169.4624 284.652813 171.4624 
L 284.652813 199.81865 
Q 284.652813 201.81865 286.652813 201.81865 
z
" style="fill:#ffffff;opacity:0.8;stroke:#cccccc;stroke-linejoin:miter;"/>
    </g>
    <g id="line2d_84">
     <path d="M 288.652813 177.560837 
L 308.652813 177.560837 
" style="fill:none;stroke:#1f77b4;stroke-linecap:square;stroke-width:1.5;"/>
    </g>
    <g id="line2d_85"/>
    <g id="text_25">
     <!-- CGM -->
     <g transform="translate(316.652813 181.060837)scale(0.1 -0.1)">
      <use xlink:href="#DejaVuSans-67"/>
      <use x="69.824219" xlink:href="#DejaVuSans-71"/>
      <use x="147.314453" xlink:href="#DejaVuSans-77"/>
     </g>
    </g>
    <g id="line2d_86">
     <path d="M 288.652813 192.238962 
L 308.652813 192.238962 
" style="fill:none;stroke:#ff7f0e;stroke-linecap:square;stroke-width:1.5;"/>
    </g>
    <g id="line2d_87"/>
    <g id="text_26">
     <!-- HARK -->
     <g transform="translate(316.652813 195.738962)scale(0.1 -0.1)">
      <use xlink:href="#DejaVuSans-72"/>
      <use x="75.195312" xlink:href="#DejaVuSans-65"/>
      <use x="143.603516" xlink:href="#DejaVuSans-82"/>
      <use x="213.085938" xlink:href="#DejaVuSans-75"/>
     </g>
    </g>
   </g>
  </g>
  <g id="axes_4">
   <g id="patch_20">
    <path d="M 395.62 252.344 
L 709.2 252.344 
L 709.2 164.4624 
L 395.62 164.4624 
z
" style="fill:#ffffff;"/>
   </g>
   <g id="matplotlib.axis_7">
    <g id="xtick_28">
     <g id="line2d_88">
      <path clip-path="url(#pf33905b01f)" d="M 407.022909 252.344 
L 407.022909 164.4624 
" style="fill:none;stroke:#b0b0b0;stroke-linecap:square;stroke-width:0.8;"/>
     </g>
     <g id="line2d_89">
      <g>
       <use style="stroke:#000000;stroke-width:0.8;" x="407.022909" xlink:href="#m958c9120a3" y="252.344"/>
      </g>
     </g>
     <g id="text_27">
      <!-- 0 -->
      <g transform="translate(403.841659 266.942437)scale(0.1 -0.1)">
       <use xlink:href="#DejaVuSans-48"/>
      </g>
     </g>
    </g>
    <g id="xtick_29">
     <g id="line2d_90">
      <path clip-path="url(#pf33905b01f)" d="M 442.657 252.344 
L 442.657 164.4624 
" style="fill:none;stroke:#b0b0b0;stroke-linecap:square;stroke-width:0.8;"/>
     </g>
     <g id="line2d_91">
      <g>
       <use style="stroke:#000000;stroke-width:0.8;" x="442.657" xlink:href="#m958c9120a3" y="252.344"/>
      </g>
     </g>
     <g id="text_28">
      <!-- 50 -->
      <g transform="translate(436.2945 266.942437)scale(0.1 -0.1)">
       <use xlink:href="#DejaVuSans-53"/>
       <use x="63.623047" xlink:href="#DejaVuSans-48"/>
      </g>
     </g>
    </g>
    <g id="xtick_30">
     <g id="line2d_92">
      <path clip-path="url(#pf33905b01f)" d="M 478.291091 252.344 
L 478.291091 164.4624 
" style="fill:none;stroke:#b0b0b0;stroke-linecap:square;stroke-width:0.8;"/>
     </g>
     <g id="line2d_93">
      <g>
       <use style="stroke:#000000;stroke-width:0.8;" x="478.291091" xlink:href="#m958c9120a3" y="252.344"/>
      </g>
     </g>
     <g id="text_29">
      <!-- 100 -->
      <g transform="translate(468.747341 266.942437)scale(0.1 -0.1)">
       <use xlink:href="#DejaVuSans-49"/>
       <use x="63.623047" xlink:href="#DejaVuSans-48"/>
       <use x="127.246094" xlink:href="#DejaVuSans-48"/>
      </g>
     </g>
    </g>
    <g id="xtick_31">
     <g id="line2d_94">
      <path clip-path="url(#pf33905b01f)" d="M 513.925182 252.344 
L 513.925182 164.4624 
" style="fill:none;stroke:#b0b0b0;stroke-linecap:square;stroke-width:0.8;"/>
     </g>
     <g id="line2d_95">
      <g>
       <use style="stroke:#000000;stroke-width:0.8;" x="513.925182" xlink:href="#m958c9120a3" y="252.344"/>
      </g>
     </g>
     <g id="text_30">
      <!-- 150 -->
      <g transform="translate(504.381432 266.942437)scale(0.1 -0.1)">
       <use xlink:href="#DejaVuSans-49"/>
       <use x="63.623047" xlink:href="#DejaVuSans-53"/>
       <use x="127.246094" xlink:href="#DejaVuSans-48"/>
      </g>
     </g>
    </g>
    <g id="xtick_32">
     <g id="line2d_96">
      <path clip-path="url(#pf33905b01f)" d="M 549.559273 252.344 
L 549.559273 164.4624 
" style="fill:none;stroke:#b0b0b0;stroke-linecap:square;stroke-width:0.8;"/>
     </g>
     <g id="line2d_97">
      <g>
       <use style="stroke:#000000;stroke-width:0.8;" x="549.559273" xlink:href="#m958c9120a3" y="252.344"/>
      </g>
     </g>
     <g id="text_31">
      <!-- 200 -->
      <g transform="translate(540.015523 266.942437)scale(0.1 -0.1)">
       <use xlink:href="#DejaVuSans-50"/>
       <use x="63.623047" xlink:href="#DejaVuSans-48"/>
       <use x="127.246094" xlink:href="#DejaVuSans-48"/>
      </g>
     </g>
    </g>
    <g id="xtick_33">
     <g id="line2d_98">
      <path clip-path="url(#pf33905b01f)" d="M 585.193364 252.344 
L 585.193364 164.4624 
" style="fill:none;stroke:#b0b0b0;stroke-linecap:square;stroke-width:0.8;"/>
     </g>
     <g id="line2d_99">
      <g>
       <use style="stroke:#000000;stroke-width:0.8;" x="585.193364" xlink:href="#m958c9120a3" y="252.344"/>
      </g>
     </g>
     <g id="text_32">
      <!-- 250 -->
      <g transform="translate(575.649614 266.942437)scale(0.1 -0.1)">
       <use xlink:href="#DejaVuSans-50"/>
       <use x="63.623047" xlink:href="#DejaVuSans-53"/>
       <use x="127.246094" xlink:href="#DejaVuSans-48"/>
      </g>
     </g>
    </g>
    <g id="xtick_34">
     <g id="line2d_100">
      <path clip-path="url(#pf33905b01f)" d="M 620.827455 252.344 
L 620.827455 164.4624 
" style="fill:none;stroke:#b0b0b0;stroke-linecap:square;stroke-width:0.8;"/>
     </g>
     <g id="line2d_101">
      <g>
       <use style="stroke:#000000;stroke-width:0.8;" x="620.827455" xlink:href="#m958c9120a3" y="252.344"/>
      </g>
     </g>
     <g id="text_33">
      <!-- 300 -->
      <g transform="translate(611.283705 266.942437)scale(0.1 -0.1)">
       <use xlink:href="#DejaVuSans-51"/>
       <use x="63.623047" xlink:href="#DejaVuSans-48"/>
       <use x="127.246094" xlink:href="#DejaVuSans-48"/>
      </g>
     </g>
    </g>
    <g id="xtick_35">
     <g id="line2d_102">
      <path clip-path="url(#pf33905b01f)" d="M 656.461545 252.344 
L 656.461545 164.4624 
" style="fill:none;stroke:#b0b0b0;stroke-linecap:square;stroke-width:0.8;"/>
     </g>
     <g id="line2d_103">
      <g>
       <use style="stroke:#000000;stroke-width:0.8;" x="656.461545" xlink:href="#m958c9120a3" y="252.344"/>
      </g>
     </g>
     <g id="text_34">
      <!-- 350 -->
      <g transform="translate(646.917795 266.942437)scale(0.1 -0.1)">
       <use xlink:href="#DejaVuSans-51"/>
       <use x="63.623047" xlink:href="#DejaVuSans-53"/>
       <use x="127.246094" xlink:href="#DejaVuSans-48"/>
      </g>
     </g>
    </g>
    <g id="xtick_36">
     <g id="line2d_104">
      <path clip-path="url(#pf33905b01f)" d="M 692.095636 252.344 
L 692.095636 164.4624 
" style="fill:none;stroke:#b0b0b0;stroke-linecap:square;stroke-width:0.8;"/>
     </g>
     <g id="line2d_105">
      <g>
       <use style="stroke:#000000;stroke-width:0.8;" x="692.095636" xlink:href="#m958c9120a3" y="252.344"/>
      </g>
     </g>
     <g id="text_35">
      <!-- 400 -->
      <g transform="translate(682.551886 266.942437)scale(0.1 -0.1)">
       <use xlink:href="#DejaVuSans-52"/>
       <use x="63.623047" xlink:href="#DejaVuSans-48"/>
       <use x="127.246094" xlink:href="#DejaVuSans-48"/>
      </g>
     </g>
    </g>
   </g>
   <g id="matplotlib.axis_8">
    <g id="ytick_10">
     <g id="line2d_106">
      <path clip-path="url(#pf33905b01f)" d="M 395.62 248.349382 
L 709.2 248.349382 
" style="fill:none;stroke:#b0b0b0;stroke-linecap:square;stroke-width:0.8;"/>
     </g>
     <g id="line2d_107">
      <g>
       <use style="stroke:#000000;stroke-width:0.8;" x="395.62" xlink:href="#m5415de7722" y="248.349382"/>
      </g>
     </g>
     <g id="text_36">
      <!-- −1.0 -->
      <g transform="translate(364.337188 252.148601)scale(0.1 -0.1)">
       <use xlink:href="#DejaVuSans-8722"/>
       <use x="83.789062" xlink:href="#DejaVuSans-49"/>
       <use x="147.412109" xlink:href="#DejaVuSans-46"/>
       <use x="179.199219" xlink:href="#DejaVuSans-48"/>
      </g>
     </g>
    </g>
    <g id="ytick_11">
     <g id="line2d_108">
      <path clip-path="url(#pf33905b01f)" d="M 395.62 220.800676 
L 709.2 220.800676 
" style="fill:none;stroke:#b0b0b0;stroke-linecap:square;stroke-width:0.8;"/>
     </g>
     <g id="line2d_109">
      <g>
       <use style="stroke:#000000;stroke-width:0.8;" x="395.62" xlink:href="#m5415de7722" y="220.800676"/>
      </g>
     </g>
     <g id="text_37">
      <!-- −0.5 -->
      <g transform="translate(364.337188 224.599894)scale(0.1 -0.1)">
       <use xlink:href="#DejaVuSans-8722"/>
       <use x="83.789062" xlink:href="#DejaVuSans-48"/>
       <use x="147.412109" xlink:href="#DejaVuSans-46"/>
       <use x="179.199219" xlink:href="#DejaVuSans-53"/>
      </g>
     </g>
    </g>
    <g id="ytick_12">
     <g id="line2d_110">
      <path clip-path="url(#pf33905b01f)" d="M 395.62 193.251969 
L 709.2 193.251969 
" style="fill:none;stroke:#b0b0b0;stroke-linecap:square;stroke-width:0.8;"/>
     </g>
     <g id="line2d_111">
      <g>
       <use style="stroke:#000000;stroke-width:0.8;" x="395.62" xlink:href="#m5415de7722" y="193.251969"/>
      </g>
     </g>
     <g id="text_38">
      <!-- 0.0 -->
      <g transform="translate(372.716875 197.051188)scale(0.1 -0.1)">
       <use xlink:href="#DejaVuSans-48"/>
       <use x="63.623047" xlink:href="#DejaVuSans-46"/>
       <use x="95.410156" xlink:href="#DejaVuSans-48"/>
      </g>
     </g>
    </g>
    <g id="ytick_13">
     <g id="line2d_112">
      <path clip-path="url(#pf33905b01f)" d="M 395.62 165.703263 
L 709.2 165.703263 
" style="fill:none;stroke:#b0b0b0;stroke-linecap:square;stroke-width:0.8;"/>
     </g>
     <g id="line2d_113">
      <g>
       <use style="stroke:#000000;stroke-width:0.8;" x="395.62" xlink:href="#m5415de7722" y="165.703263"/>
      </g>
     </g>
     <g id="text_39">
      <!-- 0.5 -->
      <g transform="translate(372.716875 169.502482)scale(0.1 -0.1)">
       <use xlink:href="#DejaVuSans-48"/>
       <use x="63.623047" xlink:href="#DejaVuSans-46"/>
       <use x="95.410156" xlink:href="#DejaVuSans-53"/>
      </g>
     </g>
    </g>
   </g>
   <g id="line2d_114">
    <path clip-path="url(#pf33905b01f)" d="M 409.873636 248.349382 
L 414.149727 248.349382 
L 414.862409 247.440835 
L 416.287773 241.422094 
L 417.713136 236.923511 
L 419.1385 233.396304 
L 419.851182 176.829012 
L 421.276545 174.330091 
L 422.701909 172.286604 
L 424.127273 170.582717 
L 425.552636 169.141649 
L 426.265318 168.501442 
L 426.978 168.457018 
L 427.690682 171.208783 
L 429.116045 177.371557 
L 429.828727 178.570401 
L 430.541409 180.899183 
L 431.254091 181.600705 
L 431.966773 183.427174 
L 432.679455 184.172034 
L 434.104818 186.820383 
L 434.8175 187.067745 
L 436.242864 188.710171 
L 436.955545 188.999057 
L 437.668227 189.852329 
L 441.231636 191.51799 
L 441.944318 191.877923 
L 442.657 193.347144 
L 443.369682 193.721802 
L 444.082364 193.552067 
L 444.795045 193.939593 
L 446.220409 193.630431 
L 446.933091 194.035442 
L 447.645773 193.894714 
L 448.358455 194.30982 
L 449.071136 194.178584 
L 449.783818 194.602732 
L 450.4965 193.929129 
L 451.209182 196.565315 
L 451.921864 198.654056 
L 452.634545 191.379537 
L 454.059909 194.472317 
L 454.772591 197.676462 
L 455.485273 190.966022 
L 456.197955 194.726884 
L 456.910636 194.633574 
L 458.336 190.04712 
L 459.048682 198.777326 
L 460.474045 196.408982 
L 461.186727 195.779071 
L 461.899409 197.906458 
L 462.612091 197.831658 
L 463.324773 196.656516 
L 464.037455 196.034745 
L 464.750136 195.965608 
L 465.462818 196.448779 
L 469.738909 196.074904 
L 470.451591 196.568724 
L 474.727682 196.248727 
L 475.440364 196.750676 
L 479.716455 196.47476 
L 480.429136 196.982902 
L 486.843273 196.63218 
L 487.555955 197.147313 
L 494.682773 196.824446 
L 495.395455 197.346188 
L 505.373 196.978636 
L 506.085682 197.505849 
L 520.339318 197.098374 
L 521.052 197.631731 
L 540.294409 197.225478 
L 541.007091 197.763633 
L 570.939727 197.326876 
L 571.652409 197.869532 
L 616.551364 197.453611 
L 622.252818 197.413124 
L 622.9655 197.959105 
L 687.819545 197.615664 
L 694.946364 197.587295 
L 694.946364 197.587295 
" style="fill:none;stroke:#1f77b4;stroke-linecap:square;stroke-width:1.5;"/>
   </g>
   <g id="patch_21">
    <path d="M 395.62 252.344 
L 395.62 164.4624 
" style="fill:none;stroke:#000000;stroke-linecap:square;stroke-linejoin:miter;stroke-width:0.8;"/>
   </g>
   <g id="patch_22">
    <path d="M 709.2 252.344 
L 709.2 164.4624 
" style="fill:none;stroke:#000000;stroke-linecap:square;stroke-linejoin:miter;stroke-width:0.8;"/>
   </g>
   <g id="patch_23">
    <path d="M 395.62 252.344 
L 709.2 252.344 
" style="fill:none;stroke:#000000;stroke-linecap:square;stroke-linejoin:miter;stroke-width:0.8;"/>
   </g>
   <g id="patch_24">
    <path d="M 395.62 164.4624 
L 709.2 164.4624 
" style="fill:none;stroke:#000000;stroke-linecap:square;stroke-linejoin:miter;stroke-width:0.8;"/>
   </g>
   <g id="text_40">
    <!-- Risky Sh. Difference -->
    <g transform="translate(491.940313 158.4624)scale(0.12 -0.12)">
     <use xlink:href="#DejaVuSans-82"/>
     <use x="69.482422" xlink:href="#DejaVuSans-105"/>
     <use x="97.265625" xlink:href="#DejaVuSans-115"/>
     <use x="149.365234" xlink:href="#DejaVuSans-107"/>
     <use x="207.228516" xlink:href="#DejaVuSans-121"/>
     <use x="266.408203" xlink:href="#DejaVuSans-32"/>
     <use x="298.195312" xlink:href="#DejaVuSans-83"/>
     <use x="361.671875" xlink:href="#DejaVuSans-104"/>
     <use x="425.050781" xlink:href="#DejaVuSans-46"/>
     <use x="456.837891" xlink:href="#DejaVuSans-32"/>
     <use x="488.625" xlink:href="#DejaVuSans-68"/>
     <use x="565.626953" xlink:href="#DejaVuSans-105"/>
     <use x="593.410156" xlink:href="#DejaVuSans-102"/>
     <use x="628.615234" xlink:href="#DejaVuSans-102"/>
     <use x="663.820312" xlink:href="#DejaVuSans-101"/>
     <use x="725.34375" xlink:href="#DejaVuSans-114"/>
     <use x="766.425781" xlink:href="#DejaVuSans-101"/>
     <use x="827.949219" xlink:href="#DejaVuSans-110"/>
     <use x="891.328125" xlink:href="#DejaVuSans-99"/>
     <use x="946.308594" xlink:href="#DejaVuSans-101"/>
    </g>
   </g>
   <g id="legend_4">
    <g id="patch_25">
     <path d="M 609.009375 187.140525 
L 702.2 187.140525 
Q 704.2 187.140525 704.2 185.140525 
L 704.2 171.4624 
Q 704.2 169.4624 702.2 169.4624 
L 609.009375 169.4624 
Q 607.009375 169.4624 607.009375 171.4624 
L 607.009375 185.140525 
Q 607.009375 187.140525 609.009375 187.140525 
z
" style="fill:#ffffff;opacity:0.8;stroke:#cccccc;stroke-linejoin:miter;"/>
    </g>
    <g id="line2d_115">
     <path d="M 611.009375 177.560837 
L 631.009375 177.560837 
" style="fill:none;stroke:#1f77b4;stroke-linecap:square;stroke-width:1.5;"/>
    </g>
    <g id="line2d_116"/>
    <g id="text_41">
     <!-- CGM - HARK -->
     <g transform="translate(639.009375 181.060837)scale(0.1 -0.1)">
      <use xlink:href="#DejaVuSans-67"/>
      <use x="69.824219" xlink:href="#DejaVuSans-71"/>
      <use x="147.314453" xlink:href="#DejaVuSans-77"/>
      <use x="233.59375" xlink:href="#DejaVuSans-32"/>
      <use x="265.380859" xlink:href="#DejaVuSans-45"/>
      <use x="301.464844" xlink:href="#DejaVuSans-32"/>
      <use x="333.251953" xlink:href="#DejaVuSans-72"/>
      <use x="408.447266" xlink:href="#DejaVuSans-65"/>
      <use x="476.855469" xlink:href="#DejaVuSans-82"/>
      <use x="546.337891" xlink:href="#DejaVuSans-75"/>
     </g>
    </g>
   </g>
  </g>
  <g id="text_42">
   <!-- Year 98 -->
   <defs>
    <path d="M -0.203125 72.90625 
L 10.40625 72.90625 
L 30.609375 42.921875 
L 50.6875 72.90625 
L 61.28125 72.90625 
L 35.5 34.71875 
L 35.5 0 
L 25.59375 0 
L 25.59375 34.71875 
z
" id="DejaVuSans-89"/>
    <path d="M 34.28125 27.484375 
Q 23.390625 27.484375 19.1875 25 
Q 14.984375 22.515625 14.984375 16.5 
Q 14.984375 11.71875 18.140625 8.90625 
Q 21.296875 6.109375 26.703125 6.109375 
Q 34.1875 6.109375 38.703125 11.40625 
Q 43.21875 16.703125 43.21875 25.484375 
L 43.21875 27.484375 
z
M 52.203125 31.203125 
L 52.203125 0 
L 43.21875 0 
L 43.21875 8.296875 
Q 40.140625 3.328125 35.546875 0.953125 
Q 30.953125 -1.421875 24.3125 -1.421875 
Q 15.921875 -1.421875 10.953125 3.296875 
Q 6 8.015625 6 15.921875 
Q 6 25.140625 12.171875 29.828125 
Q 18.359375 34.515625 30.609375 34.515625 
L 43.21875 34.515625 
L 43.21875 35.40625 
Q 43.21875 41.609375 39.140625 45 
Q 35.0625 48.390625 27.6875 48.390625 
Q 23 48.390625 18.546875 47.265625 
Q 14.109375 46.140625 10.015625 43.890625 
L 10.015625 52.203125 
Q 14.9375 54.109375 19.578125 55.046875 
Q 24.21875 56 28.609375 56 
Q 40.484375 56 46.34375 49.84375 
Q 52.203125 43.703125 52.203125 31.203125 
z
" id="DejaVuSans-97"/>
    <path d="M 10.984375 1.515625 
L 10.984375 10.5 
Q 14.703125 8.734375 18.5 7.8125 
Q 22.3125 6.890625 25.984375 6.890625 
Q 35.75 6.890625 40.890625 13.453125 
Q 46.046875 20.015625 46.78125 33.40625 
Q 43.953125 29.203125 39.59375 26.953125 
Q 35.25 24.703125 29.984375 24.703125 
Q 19.046875 24.703125 12.671875 31.3125 
Q 6.296875 37.9375 6.296875 49.421875 
Q 6.296875 60.640625 12.9375 67.421875 
Q 19.578125 74.21875 30.609375 74.21875 
Q 43.265625 74.21875 49.921875 64.515625 
Q 56.59375 54.828125 56.59375 36.375 
Q 56.59375 19.140625 48.40625 8.859375 
Q 40.234375 -1.421875 26.421875 -1.421875 
Q 22.703125 -1.421875 18.890625 -0.6875 
Q 15.09375 0.046875 10.984375 1.515625 
z
M 30.609375 32.421875 
Q 37.25 32.421875 41.125 36.953125 
Q 45.015625 41.5 45.015625 49.421875 
Q 45.015625 57.28125 41.125 61.84375 
Q 37.25 66.40625 30.609375 66.40625 
Q 23.96875 66.40625 20.09375 61.84375 
Q 16.21875 57.28125 16.21875 49.421875 
Q 16.21875 41.5 20.09375 36.953125 
Q 23.96875 32.421875 30.609375 32.421875 
z
" id="DejaVuSans-57"/>
    <path d="M 31.78125 34.625 
Q 24.75 34.625 20.71875 30.859375 
Q 16.703125 27.09375 16.703125 20.515625 
Q 16.703125 13.921875 20.71875 10.15625 
Q 24.75 6.390625 31.78125 6.390625 
Q 38.8125 6.390625 42.859375 10.171875 
Q 46.921875 13.96875 46.921875 20.515625 
Q 46.921875 27.09375 42.890625 30.859375 
Q 38.875 34.625 31.78125 34.625 
z
M 21.921875 38.8125 
Q 15.578125 40.375 12.03125 44.71875 
Q 8.5 49.078125 8.5 55.328125 
Q 8.5 64.0625 14.71875 69.140625 
Q 20.953125 74.21875 31.78125 74.21875 
Q 42.671875 74.21875 48.875 69.140625 
Q 55.078125 64.0625 55.078125 55.328125 
Q 55.078125 49.078125 51.53125 44.71875 
Q 48 40.375 41.703125 38.8125 
Q 48.828125 37.15625 52.796875 32.3125 
Q 56.78125 27.484375 56.78125 20.515625 
Q 56.78125 9.90625 50.3125 4.234375 
Q 43.84375 -1.421875 31.78125 -1.421875 
Q 19.734375 -1.421875 13.25 4.234375 
Q 6.78125 9.90625 6.78125 20.515625 
Q 6.78125 27.484375 10.78125 32.3125 
Q 14.796875 37.15625 21.921875 38.8125 
z
M 18.3125 54.390625 
Q 18.3125 48.734375 21.84375 45.5625 
Q 25.390625 42.390625 31.78125 42.390625 
Q 38.140625 42.390625 41.71875 45.5625 
Q 45.3125 48.734375 45.3125 54.390625 
Q 45.3125 60.0625 41.71875 63.234375 
Q 38.140625 66.40625 31.78125 66.40625 
Q 25.390625 66.40625 21.84375 63.234375 
Q 18.3125 60.0625 18.3125 54.390625 
z
" id="DejaVuSans-56"/>
   </defs>
   <g transform="translate(336.970312 14.878125)scale(0.12 -0.12)">
    <use xlink:href="#DejaVuSans-89"/>
    <use x="60.880859" xlink:href="#DejaVuSans-101"/>
    <use x="122.404297" xlink:href="#DejaVuSans-97"/>
    <use x="183.683594" xlink:href="#DejaVuSans-114"/>
    <use x="224.796875" xlink:href="#DejaVuSans-32"/>
    <use x="256.583984" xlink:href="#DejaVuSans-57"/>
    <use x="320.207031" xlink:href="#DejaVuSans-56"/>
   </g>
  </g>
 </g>
 <defs>
  <clipPath id="pbc82ce621e">
   <rect height="87.8816" width="313.58" x="39.94" y="32.64"/>
  </clipPath>
  <clipPath id="pdb296d01f7">
   <rect height="87.8816" width="313.58" x="395.62" y="32.64"/>
  </clipPath>
  <clipPath id="p2ff9e97066">
   <rect height="87.8816" width="313.58" x="39.94" y="164.4624"/>
  </clipPath>
  <clipPath id="pf33905b01f">
   <rect height="87.8816" width="313.58" x="395.62" y="164.4624"/>
  </clipPath>
 </defs>
</svg>
