<?xml version="1.0" encoding="utf-8" standalone="no"?>
<!DOCTYPE svg PUBLIC "-//W3C//DTD SVG 1.1//EN"
  "http://www.w3.org/Graphics/SVG/1.1/DTD/svg11.dtd">
<!-- Created with matplotlib (https://matplotlib.org/) -->
<svg height="288pt" version="1.1" viewBox="0 0 720 288" width="720pt" xmlns="http://www.w3.org/2000/svg" xmlns:xlink="http://www.w3.org/1999/xlink">
 <defs>
  <style type="text/css">
*{stroke-linecap:butt;stroke-linejoin:round;}
  </style>
 </defs>
 <g id="figure_1">
  <g id="patch_1">
   <path d="M 0 288 
L 720 288 
L 720 0 
L 0 0 
z
" style="fill:#ffffff;"/>
  </g>
  <g id="axes_1">
   <g id="patch_2">
    <path d="M 36.8 121.3696 
L 351.975 121.3696 
L 351.975 34 
L 36.8 34 
z
" style="fill:#ffffff;"/>
   </g>
   <g id="matplotlib.axis_1">
    <g id="xtick_1">
     <g id="line2d_1">
      <path clip-path="url(#peb96138296)" d="M 48.260909 121.3696 
L 48.260909 34 
" style="fill:none;stroke:#b0b0b0;stroke-linecap:square;stroke-width:0.8;"/>
     </g>
     <g id="line2d_2">
      <defs>
       <path d="M 0 0 
L 0 3.5 
" id="m745a5d5636" style="stroke:#000000;stroke-width:0.8;"/>
      </defs>
      <g>
       <use style="stroke:#000000;stroke-width:0.8;" x="48.260909" xlink:href="#m745a5d5636" y="121.3696"/>
      </g>
     </g>
    </g>
    <g id="xtick_2">
     <g id="line2d_3">
      <path clip-path="url(#peb96138296)" d="M 84.07625 121.3696 
L 84.07625 34 
" style="fill:none;stroke:#b0b0b0;stroke-linecap:square;stroke-width:0.8;"/>
     </g>
     <g id="line2d_4">
      <g>
       <use style="stroke:#000000;stroke-width:0.8;" x="84.07625" xlink:href="#m745a5d5636" y="121.3696"/>
      </g>
     </g>
    </g>
    <g id="xtick_3">
     <g id="line2d_5">
      <path clip-path="url(#peb96138296)" d="M 119.891591 121.3696 
L 119.891591 34 
" style="fill:none;stroke:#b0b0b0;stroke-linecap:square;stroke-width:0.8;"/>
     </g>
     <g id="line2d_6">
      <g>
       <use style="stroke:#000000;stroke-width:0.8;" x="119.891591" xlink:href="#m745a5d5636" y="121.3696"/>
      </g>
     </g>
    </g>
    <g id="xtick_4">
     <g id="line2d_7">
      <path clip-path="url(#peb96138296)" d="M 155.706932 121.3696 
L 155.706932 34 
" style="fill:none;stroke:#b0b0b0;stroke-linecap:square;stroke-width:0.8;"/>
     </g>
     <g id="line2d_8">
      <g>
       <use style="stroke:#000000;stroke-width:0.8;" x="155.706932" xlink:href="#m745a5d5636" y="121.3696"/>
      </g>
     </g>
    </g>
    <g id="xtick_5">
     <g id="line2d_9">
      <path clip-path="url(#peb96138296)" d="M 191.522273 121.3696 
L 191.522273 34 
" style="fill:none;stroke:#b0b0b0;stroke-linecap:square;stroke-width:0.8;"/>
     </g>
     <g id="line2d_10">
      <g>
       <use style="stroke:#000000;stroke-width:0.8;" x="191.522273" xlink:href="#m745a5d5636" y="121.3696"/>
      </g>
     </g>
    </g>
    <g id="xtick_6">
     <g id="line2d_11">
      <path clip-path="url(#peb96138296)" d="M 227.337614 121.3696 
L 227.337614 34 
" style="fill:none;stroke:#b0b0b0;stroke-linecap:square;stroke-width:0.8;"/>
     </g>
     <g id="line2d_12">
      <g>
       <use style="stroke:#000000;stroke-width:0.8;" x="227.337614" xlink:href="#m745a5d5636" y="121.3696"/>
      </g>
     </g>
    </g>
    <g id="xtick_7">
     <g id="line2d_13">
      <path clip-path="url(#peb96138296)" d="M 263.152955 121.3696 
L 263.152955 34 
" style="fill:none;stroke:#b0b0b0;stroke-linecap:square;stroke-width:0.8;"/>
     </g>
     <g id="line2d_14">
      <g>
       <use style="stroke:#000000;stroke-width:0.8;" x="263.152955" xlink:href="#m745a5d5636" y="121.3696"/>
      </g>
     </g>
    </g>
    <g id="xtick_8">
     <g id="line2d_15">
      <path clip-path="url(#peb96138296)" d="M 298.968295 121.3696 
L 298.968295 34 
" style="fill:none;stroke:#b0b0b0;stroke-linecap:square;stroke-width:0.8;"/>
     </g>
     <g id="line2d_16">
      <g>
       <use style="stroke:#000000;stroke-width:0.8;" x="298.968295" xlink:href="#m745a5d5636" y="121.3696"/>
      </g>
     </g>
    </g>
    <g id="xtick_9">
     <g id="line2d_17">
      <path clip-path="url(#peb96138296)" d="M 334.783636 121.3696 
L 334.783636 34 
" style="fill:none;stroke:#b0b0b0;stroke-linecap:square;stroke-width:0.8;"/>
     </g>
     <g id="line2d_18">
      <g>
       <use style="stroke:#000000;stroke-width:0.8;" x="334.783636" xlink:href="#m745a5d5636" y="121.3696"/>
      </g>
     </g>
    </g>
   </g>
   <g id="matplotlib.axis_2">
    <g id="ytick_1">
     <g id="line2d_19">
      <path clip-path="url(#peb96138296)" d="M 36.8 119.49436 
L 351.975 119.49436 
" style="fill:none;stroke:#b0b0b0;stroke-linecap:square;stroke-width:0.8;"/>
     </g>
     <g id="line2d_20">
      <defs>
       <path d="M 0 0 
L -3.5 0 
" id="m16a723b99b" style="stroke:#000000;stroke-width:0.8;"/>
      </defs>
      <g>
       <use style="stroke:#000000;stroke-width:0.8;" x="36.8" xlink:href="#m16a723b99b" y="119.49436"/>
      </g>
     </g>
     <g id="text_1">
      <!-- 0 -->
      <defs>
       <path d="M 31.78125 66.40625 
Q 24.171875 66.40625 20.328125 58.90625 
Q 16.5 51.421875 16.5 36.375 
Q 16.5 21.390625 20.328125 13.890625 
Q 24.171875 6.390625 31.78125 6.390625 
Q 39.453125 6.390625 43.28125 13.890625 
Q 47.125 21.390625 47.125 36.375 
Q 47.125 51.421875 43.28125 58.90625 
Q 39.453125 66.40625 31.78125 66.40625 
z
M 31.78125 74.21875 
Q 44.046875 74.21875 50.515625 64.515625 
Q 56.984375 54.828125 56.984375 36.375 
Q 56.984375 17.96875 50.515625 8.265625 
Q 44.046875 -1.421875 31.78125 -1.421875 
Q 19.53125 -1.421875 13.0625 8.265625 
Q 6.59375 17.96875 6.59375 36.375 
Q 6.59375 54.828125 13.0625 64.515625 
Q 19.53125 74.21875 31.78125 74.21875 
z
" id="DejaVuSans-48"/>
      </defs>
      <g transform="translate(23.4375 123.293579)scale(0.1 -0.1)">
       <use xlink:href="#DejaVuSans-48"/>
      </g>
     </g>
    </g>
    <g id="ytick_2">
     <g id="line2d_21">
      <path clip-path="url(#peb96138296)" d="M 36.8 93.293044 
L 351.975 93.293044 
" style="fill:none;stroke:#b0b0b0;stroke-linecap:square;stroke-width:0.8;"/>
     </g>
     <g id="line2d_22">
      <g>
       <use style="stroke:#000000;stroke-width:0.8;" x="36.8" xlink:href="#m16a723b99b" y="93.293044"/>
      </g>
     </g>
     <g id="text_2">
      <!-- 50 -->
      <defs>
       <path d="M 10.796875 72.90625 
L 49.515625 72.90625 
L 49.515625 64.59375 
L 19.828125 64.59375 
L 19.828125 46.734375 
Q 21.96875 47.46875 24.109375 47.828125 
Q 26.265625 48.1875 28.421875 48.1875 
Q 40.625 48.1875 47.75 41.5 
Q 54.890625 34.8125 54.890625 23.390625 
Q 54.890625 11.625 47.5625 5.09375 
Q 40.234375 -1.421875 26.90625 -1.421875 
Q 22.3125 -1.421875 17.546875 -0.640625 
Q 12.796875 0.140625 7.71875 1.703125 
L 7.71875 11.625 
Q 12.109375 9.234375 16.796875 8.0625 
Q 21.484375 6.890625 26.703125 6.890625 
Q 35.15625 6.890625 40.078125 11.328125 
Q 45.015625 15.765625 45.015625 23.390625 
Q 45.015625 31 40.078125 35.4375 
Q 35.15625 39.890625 26.703125 39.890625 
Q 22.75 39.890625 18.8125 39.015625 
Q 14.890625 38.140625 10.796875 36.28125 
z
" id="DejaVuSans-53"/>
      </defs>
      <g transform="translate(17.075 97.092263)scale(0.1 -0.1)">
       <use xlink:href="#DejaVuSans-53"/>
       <use x="63.623047" xlink:href="#DejaVuSans-48"/>
      </g>
     </g>
    </g>
    <g id="ytick_3">
     <g id="line2d_23">
      <path clip-path="url(#peb96138296)" d="M 36.8 67.091728 
L 351.975 67.091728 
" style="fill:none;stroke:#b0b0b0;stroke-linecap:square;stroke-width:0.8;"/>
     </g>
     <g id="line2d_24">
      <g>
       <use style="stroke:#000000;stroke-width:0.8;" x="36.8" xlink:href="#m16a723b99b" y="67.091728"/>
      </g>
     </g>
     <g id="text_3">
      <!-- 100 -->
      <defs>
       <path d="M 12.40625 8.296875 
L 28.515625 8.296875 
L 28.515625 63.921875 
L 10.984375 60.40625 
L 10.984375 69.390625 
L 28.421875 72.90625 
L 38.28125 72.90625 
L 38.28125 8.296875 
L 54.390625 8.296875 
L 54.390625 0 
L 12.40625 0 
z
" id="DejaVuSans-49"/>
      </defs>
      <g transform="translate(10.7125 70.890947)scale(0.1 -0.1)">
       <use xlink:href="#DejaVuSans-49"/>
       <use x="63.623047" xlink:href="#DejaVuSans-48"/>
       <use x="127.246094" xlink:href="#DejaVuSans-48"/>
      </g>
     </g>
    </g>
    <g id="ytick_4">
     <g id="line2d_25">
      <path clip-path="url(#peb96138296)" d="M 36.8 40.890412 
L 351.975 40.890412 
" style="fill:none;stroke:#b0b0b0;stroke-linecap:square;stroke-width:0.8;"/>
     </g>
     <g id="line2d_26">
      <g>
       <use style="stroke:#000000;stroke-width:0.8;" x="36.8" xlink:href="#m16a723b99b" y="40.890412"/>
      </g>
     </g>
     <g id="text_4">
      <!-- 150 -->
      <g transform="translate(10.7125 44.689631)scale(0.1 -0.1)">
       <use xlink:href="#DejaVuSans-49"/>
       <use x="63.623047" xlink:href="#DejaVuSans-53"/>
       <use x="127.246094" xlink:href="#DejaVuSans-48"/>
      </g>
     </g>
    </g>
   </g>
   <g id="line2d_27">
    <path clip-path="url(#peb96138296)" d="M 51.126136 117.398255 
L 61.154432 110.192893 
L 62.587045 109.668866 
L 64.019659 109.406853 
L 64.735966 109.14484 
L 65.452273 109.013833 
L 66.16858 108.75182 
L 66.884886 108.620814 
L 67.601193 108.358801 
L 68.3175 108.227794 
L 69.033807 107.965781 
L 70.46642 107.703768 
L 71.182727 107.441754 
L 71.899034 107.310748 
L 72.615341 107.048735 
L 73.331648 106.917728 
L 74.047955 106.655715 
L 75.480568 106.393702 
L 76.196875 106.131689 
L 76.913182 106.000682 
L 77.629489 105.738669 
L 79.062102 105.476656 
L 79.778409 105.214643 
L 80.494716 105.083636 
L 81.211023 104.821623 
L 81.92733 104.690616 
L 82.643636 104.428603 
L 83.359943 104.297597 
L 84.07625 104.952629 
L 84.792557 104.690616 
L 85.508864 104.297597 
L 86.22517 104.16659 
L 86.941477 103.77357 
L 88.374091 103.249544 
L 89.090398 102.856524 
L 89.806705 102.725518 
L 91.239318 102.201491 
L 92.671932 101.939478 
L 93.388239 101.677465 
L 94.820852 101.415452 
L 95.537159 101.022432 
L 96.253466 100.760419 
L 96.969773 101.022432 
L 99.835 99.974379 
L 100.551307 99.974379 
L 101.98392 99.450353 
L 103.416534 99.18834 
L 104.132841 98.926327 
L 104.849148 98.79532 
L 105.565455 98.533307 
L 106.281761 98.4023 
L 106.998068 98.140287 
L 107.714375 98.009281 
L 108.430682 97.747268 
L 109.863295 97.485254 
L 110.579602 97.223241 
L 111.295909 97.092235 
L 112.012216 96.830222 
L 113.44483 96.568208 
L 114.161136 96.306195 
L 114.877443 96.175189 
L 115.59375 95.913175 
L 117.026364 95.651162 
L 117.74267 95.389149 
L 118.458977 95.258143 
L 119.175284 94.996129 
L 119.891591 94.865123 
L 120.607898 94.60311 
L 122.040511 94.341096 
L 122.756818 94.079083 
L 123.473125 93.948077 
L 124.189432 93.686064 
L 124.905739 93.555057 
L 125.622045 93.293044 
L 127.054659 93.031031 
L 127.770966 92.769018 
L 128.487273 92.638011 
L 129.20358 92.375998 
L 130.636193 92.113985 
L 131.3525 91.851971 
L 132.068807 91.720965 
L 132.785114 91.458952 
L 134.217727 91.196939 
L 134.934034 90.934925 
L 135.650341 90.803919 
L 136.366648 90.541906 
L 137.082955 90.410899 
L 137.799261 90.148886 
L 139.231875 89.886873 
L 139.948182 89.62486 
L 140.664489 89.493853 
L 141.380795 89.23184 
L 142.097102 89.100833 
L 142.813409 88.83882 
L 144.246023 88.576807 
L 144.96233 88.314794 
L 145.678636 88.183787 
L 146.394943 87.921774 
L 147.827557 87.659761 
L 148.543864 87.397748 
L 149.26017 87.266741 
L 149.976477 87.004728 
L 151.409091 86.742715 
L 152.125398 86.480702 
L 152.841705 86.349695 
L 153.558011 86.087682 
L 154.274318 85.956675 
L 154.990625 85.694662 
L 156.423239 85.432649 
L 157.139545 85.170636 
L 157.855852 85.039629 
L 158.572159 84.777616 
L 160.004773 84.515603 
L 160.72108 84.25359 
L 161.437386 84.122583 
L 162.153693 83.86057 
L 162.87 83.729564 
L 163.586307 83.46755 
L 165.01892 83.205537 
L 165.735227 82.943524 
L 166.451534 82.812517 
L 167.167841 82.550504 
L 168.600455 82.288491 
L 169.316761 82.026478 
L 170.033068 81.895471 
L 170.749375 81.633458 
L 171.465682 81.502452 
L 172.181989 81.240439 
L 173.614602 80.978425 
L 174.330909 80.716412 
L 175.047216 80.585406 
L 175.763523 80.323392 
L 177.196136 80.061379 
L 177.912443 79.799366 
L 178.62875 79.66836 
L 179.345057 79.406346 
L 180.061364 79.27534 
L 180.77767 79.013327 
L 182.210284 78.751313 
L 182.926591 78.4893 
L 183.642898 78.358294 
L 184.359205 78.096281 
L 185.791818 77.834267 
L 186.508125 77.572254 
L 187.224432 77.441248 
L 187.940739 77.179235 
L 188.657045 77.048228 
L 189.373352 76.786215 
L 190.805966 76.524202 
L 191.522273 76.262188 
L 192.23858 76.131182 
L 192.954886 75.869169 
L 194.3875 75.607156 
L 195.103807 75.345142 
L 195.820114 75.214136 
L 196.53642 74.952123 
L 197.252727 74.821116 
L 197.969034 74.559103 
L 199.401648 74.29709 
L 200.117955 74.035077 
L 200.834261 73.90407 
L 201.550568 73.642057 
L 202.983182 73.380044 
L 203.699489 73.118031 
L 204.415795 72.987024 
L 205.132102 72.725011 
L 205.848409 72.594004 
L 206.564716 72.331991 
L 207.99733 72.069978 
L 208.713636 71.807965 
L 209.429943 71.676958 
L 210.14625 71.414945 
L 211.578864 71.152932 
L 212.29517 70.890919 
L 213.011477 70.759912 
L 213.727784 70.497899 
L 214.444091 70.366892 
L 215.160398 70.104879 
L 216.593011 69.842866 
L 217.309318 69.580853 
L 218.025625 69.449846 
L 218.741932 69.187833 
L 220.174545 68.92582 
L 220.890852 68.663807 
L 221.607159 68.5328 
L 222.323466 68.270787 
L 223.039773 68.139781 
L 223.75608 67.877767 
L 225.188693 67.615754 
L 225.905 67.353741 
L 226.621307 67.222734 
L 227.337614 66.960721 
L 228.770227 66.698708 
L 229.486534 66.436695 
L 230.202841 66.305688 
L 230.919148 66.043675 
L 231.635455 65.912669 
L 232.351761 65.650656 
L 233.784375 65.388642 
L 234.500682 65.126629 
L 235.216989 64.995623 
L 235.933295 64.733609 
L 237.365909 64.471596 
L 238.082216 64.209583 
L 238.798523 64.078577 
L 239.51483 63.816563 
L 240.231136 63.685557 
L 240.947443 63.423544 
L 242.380057 63.16153 
L 243.096364 62.899517 
L 243.81267 62.768511 
L 244.528977 62.506498 
L 245.961591 62.244484 
L 246.677898 61.982471 
L 247.394205 61.851465 
L 248.110511 61.589452 
L 248.826818 61.458445 
L 249.543125 61.196432 
L 250.975739 60.934419 
L 251.692045 60.672405 
L 252.408352 60.541399 
L 253.124659 60.279386 
L 254.557273 60.017373 
L 255.27358 59.755359 
L 255.989886 59.624353 
L 256.706193 59.36234 
L 257.4225 59.231333 
L 258.138807 58.96932 
L 259.57142 58.707307 
L 260.287727 58.445294 
L 261.004034 58.314287 
L 261.720341 58.052274 
L 263.152955 57.790261 
L 263.869261 57.528248 
L 264.585568 57.397241 
L 265.301875 57.135228 
L 266.018182 57.004221 
L 266.734489 56.742208 
L 268.167102 56.480195 
L 268.883409 56.218182 
L 269.599716 56.087175 
L 270.316023 55.825162 
L 271.748636 55.563149 
L 272.464943 55.301136 
L 273.18125 55.170129 
L 273.897557 54.908116 
L 274.613864 54.777109 
L 275.33017 54.515096 
L 276.762784 54.253083 
L 277.479091 53.99107 
L 278.195398 53.860063 
L 278.911705 53.59805 
L 280.344318 53.336037 
L 281.060625 53.074024 
L 281.776932 52.943017 
L 282.493239 52.681004 
L 283.209545 52.549998 
L 283.925852 52.287984 
L 285.358466 52.025971 
L 286.074773 51.763958 
L 286.79108 51.632951 
L 287.507386 51.370938 
L 288.94 51.108925 
L 289.656307 50.846912 
L 290.372614 50.715905 
L 291.08892 50.453892 
L 291.805227 50.322886 
L 292.521534 50.060872 
L 293.954148 49.798859 
L 294.670455 49.536846 
L 295.386761 49.40584 
L 296.103068 49.143826 
L 297.535682 48.881813 
L 298.251989 48.6198 
L 298.968295 48.488794 
L 299.684602 48.22678 
L 300.400909 48.095774 
L 301.117216 47.833761 
L 302.54983 47.571747 
L 303.266136 47.309734 
L 303.982443 47.178728 
L 304.69875 46.916715 
L 306.131364 46.654701 
L 306.84767 46.392688 
L 307.563977 46.261682 
L 308.280284 45.999669 
L 308.996591 45.868662 
L 309.712898 45.606649 
L 311.145511 45.344636 
L 311.861818 45.082622 
L 312.578125 44.951616 
L 313.294432 44.689603 
L 314.727045 44.42759 
L 315.443352 44.165576 
L 316.159659 44.03457 
L 316.875966 43.772557 
L 317.592273 43.64155 
L 318.30858 43.379537 
L 319.741193 43.117524 
L 320.4575 42.855511 
L 321.173807 42.724504 
L 321.890114 42.462491 
L 323.322727 42.200478 
L 324.039034 41.938465 
L 324.755341 41.807458 
L 325.471648 41.545445 
L 326.187955 41.414438 
L 326.904261 41.152425 
L 328.336875 40.890412 
L 329.053182 40.628399 
L 329.769489 40.497392 
L 330.485795 40.235379 
L 331.918409 39.973366 
L 332.634716 39.711353 
L 333.351023 39.580346 
L 334.06733 39.318333 
L 334.783636 39.187326 
L 335.499943 38.925313 
L 336.932557 38.6633 
L 337.648864 38.401287 
L 337.648864 38.401287 
" style="fill:none;stroke:#1f77b4;stroke-linecap:square;stroke-width:1.5;"/>
   </g>
   <g id="line2d_28">
    <path clip-path="url(#peb96138296)" d="M 51.126136 117.398255 
L 61.154432 110.190384 
L 63.303352 109.549271 
L 81.211023 104.781437 
L 337.648864 37.971345 
L 337.648864 37.971345 
" style="fill:none;stroke:#ff7f0e;stroke-linecap:square;stroke-width:1.5;"/>
   </g>
   <g id="patch_3">
    <path d="M 36.8 121.3696 
L 36.8 34 
" style="fill:none;stroke:#000000;stroke-linecap:square;stroke-linejoin:miter;stroke-width:0.8;"/>
   </g>
   <g id="patch_4">
    <path d="M 351.975 121.3696 
L 351.975 34 
" style="fill:none;stroke:#000000;stroke-linecap:square;stroke-linejoin:miter;stroke-width:0.8;"/>
   </g>
   <g id="patch_5">
    <path d="M 36.8 121.3696 
L 351.975 121.3696 
" style="fill:none;stroke:#000000;stroke-linecap:square;stroke-linejoin:miter;stroke-width:0.8;"/>
   </g>
   <g id="patch_6">
    <path d="M 36.8 34 
L 351.975 34 
" style="fill:none;stroke:#000000;stroke-linecap:square;stroke-linejoin:miter;stroke-width:0.8;"/>
   </g>
   <g id="text_5">
    <!-- Cons. Functions -->
    <defs>
     <path d="M 64.40625 67.28125 
L 64.40625 56.890625 
Q 59.421875 61.53125 53.78125 63.8125 
Q 48.140625 66.109375 41.796875 66.109375 
Q 29.296875 66.109375 22.65625 58.46875 
Q 16.015625 50.828125 16.015625 36.375 
Q 16.015625 21.96875 22.65625 14.328125 
Q 29.296875 6.6875 41.796875 6.6875 
Q 48.140625 6.6875 53.78125 8.984375 
Q 59.421875 11.28125 64.40625 15.921875 
L 64.40625 5.609375 
Q 59.234375 2.09375 53.4375 0.328125 
Q 47.65625 -1.421875 41.21875 -1.421875 
Q 24.65625 -1.421875 15.125 8.703125 
Q 5.609375 18.84375 5.609375 36.375 
Q 5.609375 53.953125 15.125 64.078125 
Q 24.65625 74.21875 41.21875 74.21875 
Q 47.75 74.21875 53.53125 72.484375 
Q 59.328125 70.75 64.40625 67.28125 
z
" id="DejaVuSans-67"/>
     <path d="M 30.609375 48.390625 
Q 23.390625 48.390625 19.1875 42.75 
Q 14.984375 37.109375 14.984375 27.296875 
Q 14.984375 17.484375 19.15625 11.84375 
Q 23.34375 6.203125 30.609375 6.203125 
Q 37.796875 6.203125 41.984375 11.859375 
Q 46.1875 17.53125 46.1875 27.296875 
Q 46.1875 37.015625 41.984375 42.703125 
Q 37.796875 48.390625 30.609375 48.390625 
z
M 30.609375 56 
Q 42.328125 56 49.015625 48.375 
Q 55.71875 40.765625 55.71875 27.296875 
Q 55.71875 13.875 49.015625 6.21875 
Q 42.328125 -1.421875 30.609375 -1.421875 
Q 18.84375 -1.421875 12.171875 6.21875 
Q 5.515625 13.875 5.515625 27.296875 
Q 5.515625 40.765625 12.171875 48.375 
Q 18.84375 56 30.609375 56 
z
" id="DejaVuSans-111"/>
     <path d="M 54.890625 33.015625 
L 54.890625 0 
L 45.90625 0 
L 45.90625 32.71875 
Q 45.90625 40.484375 42.875 44.328125 
Q 39.84375 48.1875 33.796875 48.1875 
Q 26.515625 48.1875 22.3125 43.546875 
Q 18.109375 38.921875 18.109375 30.90625 
L 18.109375 0 
L 9.078125 0 
L 9.078125 54.6875 
L 18.109375 54.6875 
L 18.109375 46.1875 
Q 21.34375 51.125 25.703125 53.5625 
Q 30.078125 56 35.796875 56 
Q 45.21875 56 50.046875 50.171875 
Q 54.890625 44.34375 54.890625 33.015625 
z
" id="DejaVuSans-110"/>
     <path d="M 44.28125 53.078125 
L 44.28125 44.578125 
Q 40.484375 46.53125 36.375 47.5 
Q 32.28125 48.484375 27.875 48.484375 
Q 21.1875 48.484375 17.84375 46.4375 
Q 14.5 44.390625 14.5 40.28125 
Q 14.5 37.15625 16.890625 35.375 
Q 19.28125 33.59375 26.515625 31.984375 
L 29.59375 31.296875 
Q 39.15625 29.25 43.1875 25.515625 
Q 47.21875 21.78125 47.21875 15.09375 
Q 47.21875 7.46875 41.1875 3.015625 
Q 35.15625 -1.421875 24.609375 -1.421875 
Q 20.21875 -1.421875 15.453125 -0.5625 
Q 10.6875 0.296875 5.421875 2 
L 5.421875 11.28125 
Q 10.40625 8.6875 15.234375 7.390625 
Q 20.0625 6.109375 24.8125 6.109375 
Q 31.15625 6.109375 34.5625 8.28125 
Q 37.984375 10.453125 37.984375 14.40625 
Q 37.984375 18.0625 35.515625 20.015625 
Q 33.0625 21.96875 24.703125 23.78125 
L 21.578125 24.515625 
Q 13.234375 26.265625 9.515625 29.90625 
Q 5.8125 33.546875 5.8125 39.890625 
Q 5.8125 47.609375 11.28125 51.796875 
Q 16.75 56 26.8125 56 
Q 31.78125 56 36.171875 55.265625 
Q 40.578125 54.546875 44.28125 53.078125 
z
" id="DejaVuSans-115"/>
     <path d="M 10.6875 12.40625 
L 21 12.40625 
L 21 0 
L 10.6875 0 
z
" id="DejaVuSans-46"/>
     <path id="DejaVuSans-32"/>
     <path d="M 9.8125 72.90625 
L 51.703125 72.90625 
L 51.703125 64.59375 
L 19.671875 64.59375 
L 19.671875 43.109375 
L 48.578125 43.109375 
L 48.578125 34.8125 
L 19.671875 34.8125 
L 19.671875 0 
L 9.8125 0 
z
" id="DejaVuSans-70"/>
     <path d="M 8.5 21.578125 
L 8.5 54.6875 
L 17.484375 54.6875 
L 17.484375 21.921875 
Q 17.484375 14.15625 20.5 10.265625 
Q 23.53125 6.390625 29.59375 6.390625 
Q 36.859375 6.390625 41.078125 11.03125 
Q 45.3125 15.671875 45.3125 23.6875 
L 45.3125 54.6875 
L 54.296875 54.6875 
L 54.296875 0 
L 45.3125 0 
L 45.3125 8.40625 
Q 42.046875 3.421875 37.71875 1 
Q 33.40625 -1.421875 27.6875 -1.421875 
Q 18.265625 -1.421875 13.375 4.4375 
Q 8.5 10.296875 8.5 21.578125 
z
M 31.109375 56 
z
" id="DejaVuSans-117"/>
     <path d="M 48.78125 52.59375 
L 48.78125 44.1875 
Q 44.96875 46.296875 41.140625 47.34375 
Q 37.3125 48.390625 33.40625 48.390625 
Q 24.65625 48.390625 19.8125 42.84375 
Q 14.984375 37.3125 14.984375 27.296875 
Q 14.984375 17.28125 19.8125 11.734375 
Q 24.65625 6.203125 33.40625 6.203125 
Q 37.3125 6.203125 41.140625 7.25 
Q 44.96875 8.296875 48.78125 10.40625 
L 48.78125 2.09375 
Q 45.015625 0.34375 40.984375 -0.53125 
Q 36.96875 -1.421875 32.421875 -1.421875 
Q 20.0625 -1.421875 12.78125 6.34375 
Q 5.515625 14.109375 5.515625 27.296875 
Q 5.515625 40.671875 12.859375 48.328125 
Q 20.21875 56 33.015625 56 
Q 37.15625 56 41.109375 55.140625 
Q 45.0625 54.296875 48.78125 52.59375 
z
" id="DejaVuSans-99"/>
     <path d="M 18.3125 70.21875 
L 18.3125 54.6875 
L 36.8125 54.6875 
L 36.8125 47.703125 
L 18.3125 47.703125 
L 18.3125 18.015625 
Q 18.3125 11.328125 20.140625 9.421875 
Q 21.96875 7.515625 27.59375 7.515625 
L 36.8125 7.515625 
L 36.8125 0 
L 27.59375 0 
Q 17.1875 0 13.234375 3.875 
Q 9.28125 7.765625 9.28125 18.015625 
L 9.28125 47.703125 
L 2.6875 47.703125 
L 2.6875 54.6875 
L 9.28125 54.6875 
L 9.28125 70.21875 
z
" id="DejaVuSans-116"/>
     <path d="M 9.421875 54.6875 
L 18.40625 54.6875 
L 18.40625 0 
L 9.421875 0 
z
M 9.421875 75.984375 
L 18.40625 75.984375 
L 18.40625 64.59375 
L 9.421875 64.59375 
z
" id="DejaVuSans-105"/>
    </defs>
    <g transform="translate(146.815937 28)scale(0.12 -0.12)">
     <use xlink:href="#DejaVuSans-67"/>
     <use x="69.824219" xlink:href="#DejaVuSans-111"/>
     <use x="131.005859" xlink:href="#DejaVuSans-110"/>
     <use x="194.384766" xlink:href="#DejaVuSans-115"/>
     <use x="246.484375" xlink:href="#DejaVuSans-46"/>
     <use x="278.271484" xlink:href="#DejaVuSans-32"/>
     <use x="310.058594" xlink:href="#DejaVuSans-70"/>
     <use x="367.5" xlink:href="#DejaVuSans-117"/>
     <use x="430.878906" xlink:href="#DejaVuSans-110"/>
     <use x="494.257812" xlink:href="#DejaVuSans-99"/>
     <use x="549.238281" xlink:href="#DejaVuSans-116"/>
     <use x="588.447266" xlink:href="#DejaVuSans-105"/>
     <use x="616.230469" xlink:href="#DejaVuSans-111"/>
     <use x="677.412109" xlink:href="#DejaVuSans-110"/>
     <use x="740.791016" xlink:href="#DejaVuSans-115"/>
    </g>
   </g>
   <g id="legend_1">
    <g id="patch_7">
     <path d="M 43.8 71.35625 
L 103.667187 71.35625 
Q 105.667187 71.35625 105.667187 69.35625 
L 105.667187 41 
Q 105.667187 39 103.667187 39 
L 43.8 39 
Q 41.8 39 41.8 41 
L 41.8 69.35625 
Q 41.8 71.35625 43.8 71.35625 
z
" style="fill:#ffffff;opacity:0.8;stroke:#cccccc;stroke-linejoin:miter;"/>
    </g>
    <g id="line2d_29">
     <path d="M 45.8 47.098437 
L 65.8 47.098437 
" style="fill:none;stroke:#1f77b4;stroke-linecap:square;stroke-width:1.5;"/>
    </g>
    <g id="line2d_30"/>
    <g id="text_6">
     <!-- CGM -->
     <defs>
      <path d="M 59.515625 10.40625 
L 59.515625 29.984375 
L 43.40625 29.984375 
L 43.40625 38.09375 
L 69.28125 38.09375 
L 69.28125 6.78125 
Q 63.578125 2.734375 56.6875 0.65625 
Q 49.8125 -1.421875 42 -1.421875 
Q 24.90625 -1.421875 15.25 8.5625 
Q 5.609375 18.5625 5.609375 36.375 
Q 5.609375 54.25 15.25 64.234375 
Q 24.90625 74.21875 42 74.21875 
Q 49.125 74.21875 55.546875 72.453125 
Q 61.96875 70.703125 67.390625 67.28125 
L 67.390625 56.78125 
Q 61.921875 61.421875 55.765625 63.765625 
Q 49.609375 66.109375 42.828125 66.109375 
Q 29.4375 66.109375 22.71875 58.640625 
Q 16.015625 51.171875 16.015625 36.375 
Q 16.015625 21.625 22.71875 14.15625 
Q 29.4375 6.6875 42.828125 6.6875 
Q 48.046875 6.6875 52.140625 7.59375 
Q 56.25 8.5 59.515625 10.40625 
z
" id="DejaVuSans-71"/>
      <path d="M 9.8125 72.90625 
L 24.515625 72.90625 
L 43.109375 23.296875 
L 61.8125 72.90625 
L 76.515625 72.90625 
L 76.515625 0 
L 66.890625 0 
L 66.890625 64.015625 
L 48.09375 14.015625 
L 38.1875 14.015625 
L 19.390625 64.015625 
L 19.390625 0 
L 9.8125 0 
z
" id="DejaVuSans-77"/>
     </defs>
     <g transform="translate(73.8 50.598437)scale(0.1 -0.1)">
      <use xlink:href="#DejaVuSans-67"/>
      <use x="69.824219" xlink:href="#DejaVuSans-71"/>
      <use x="147.314453" xlink:href="#DejaVuSans-77"/>
     </g>
    </g>
    <g id="line2d_31">
     <path d="M 45.8 61.776562 
L 65.8 61.776562 
" style="fill:none;stroke:#ff7f0e;stroke-linecap:square;stroke-width:1.5;"/>
    </g>
    <g id="line2d_32"/>
    <g id="text_7">
     <!-- HARK -->
     <defs>
      <path d="M 9.8125 72.90625 
L 19.671875 72.90625 
L 19.671875 43.015625 
L 55.515625 43.015625 
L 55.515625 72.90625 
L 65.375 72.90625 
L 65.375 0 
L 55.515625 0 
L 55.515625 34.71875 
L 19.671875 34.71875 
L 19.671875 0 
L 9.8125 0 
z
" id="DejaVuSans-72"/>
      <path d="M 34.1875 63.1875 
L 20.796875 26.90625 
L 47.609375 26.90625 
z
M 28.609375 72.90625 
L 39.796875 72.90625 
L 67.578125 0 
L 57.328125 0 
L 50.6875 18.703125 
L 17.828125 18.703125 
L 11.1875 0 
L 0.78125 0 
z
" id="DejaVuSans-65"/>
      <path d="M 44.390625 34.1875 
Q 47.5625 33.109375 50.5625 29.59375 
Q 53.5625 26.078125 56.59375 19.921875 
L 66.609375 0 
L 56 0 
L 46.6875 18.703125 
Q 43.0625 26.03125 39.671875 28.421875 
Q 36.28125 30.8125 30.421875 30.8125 
L 19.671875 30.8125 
L 19.671875 0 
L 9.8125 0 
L 9.8125 72.90625 
L 32.078125 72.90625 
Q 44.578125 72.90625 50.734375 67.671875 
Q 56.890625 62.453125 56.890625 51.90625 
Q 56.890625 45.015625 53.6875 40.46875 
Q 50.484375 35.9375 44.390625 34.1875 
z
M 19.671875 64.796875 
L 19.671875 38.921875 
L 32.078125 38.921875 
Q 39.203125 38.921875 42.84375 42.21875 
Q 46.484375 45.515625 46.484375 51.90625 
Q 46.484375 58.296875 42.84375 61.546875 
Q 39.203125 64.796875 32.078125 64.796875 
z
" id="DejaVuSans-82"/>
      <path d="M 9.8125 72.90625 
L 19.671875 72.90625 
L 19.671875 42.09375 
L 52.390625 72.90625 
L 65.09375 72.90625 
L 28.90625 38.921875 
L 67.671875 0 
L 54.6875 0 
L 19.671875 35.109375 
L 19.671875 0 
L 9.8125 0 
z
" id="DejaVuSans-75"/>
     </defs>
     <g transform="translate(73.8 65.276562)scale(0.1 -0.1)">
      <use xlink:href="#DejaVuSans-72"/>
      <use x="75.195312" xlink:href="#DejaVuSans-65"/>
      <use x="143.603516" xlink:href="#DejaVuSans-82"/>
      <use x="213.085938" xlink:href="#DejaVuSans-75"/>
     </g>
    </g>
   </g>
  </g>
  <g id="axes_2">
   <g id="patch_8">
    <path d="M 394.025 121.3696 
L 709.2 121.3696 
L 709.2 34 
L 394.025 34 
z
" style="fill:#ffffff;"/>
   </g>
   <g id="matplotlib.axis_3">
    <g id="xtick_10">
     <g id="line2d_33">
      <path clip-path="url(#p771f669efe)" d="M 405.485909 121.3696 
L 405.485909 34 
" style="fill:none;stroke:#b0b0b0;stroke-linecap:square;stroke-width:0.8;"/>
     </g>
     <g id="line2d_34">
      <g>
       <use style="stroke:#000000;stroke-width:0.8;" x="405.485909" xlink:href="#m745a5d5636" y="121.3696"/>
      </g>
     </g>
    </g>
    <g id="xtick_11">
     <g id="line2d_35">
      <path clip-path="url(#p771f669efe)" d="M 441.30125 121.3696 
L 441.30125 34 
" style="fill:none;stroke:#b0b0b0;stroke-linecap:square;stroke-width:0.8;"/>
     </g>
     <g id="line2d_36">
      <g>
       <use style="stroke:#000000;stroke-width:0.8;" x="441.30125" xlink:href="#m745a5d5636" y="121.3696"/>
      </g>
     </g>
    </g>
    <g id="xtick_12">
     <g id="line2d_37">
      <path clip-path="url(#p771f669efe)" d="M 477.116591 121.3696 
L 477.116591 34 
" style="fill:none;stroke:#b0b0b0;stroke-linecap:square;stroke-width:0.8;"/>
     </g>
     <g id="line2d_38">
      <g>
       <use style="stroke:#000000;stroke-width:0.8;" x="477.116591" xlink:href="#m745a5d5636" y="121.3696"/>
      </g>
     </g>
    </g>
    <g id="xtick_13">
     <g id="line2d_39">
      <path clip-path="url(#p771f669efe)" d="M 512.931932 121.3696 
L 512.931932 34 
" style="fill:none;stroke:#b0b0b0;stroke-linecap:square;stroke-width:0.8;"/>
     </g>
     <g id="line2d_40">
      <g>
       <use style="stroke:#000000;stroke-width:0.8;" x="512.931932" xlink:href="#m745a5d5636" y="121.3696"/>
      </g>
     </g>
    </g>
    <g id="xtick_14">
     <g id="line2d_41">
      <path clip-path="url(#p771f669efe)" d="M 548.747273 121.3696 
L 548.747273 34 
" style="fill:none;stroke:#b0b0b0;stroke-linecap:square;stroke-width:0.8;"/>
     </g>
     <g id="line2d_42">
      <g>
       <use style="stroke:#000000;stroke-width:0.8;" x="548.747273" xlink:href="#m745a5d5636" y="121.3696"/>
      </g>
     </g>
    </g>
    <g id="xtick_15">
     <g id="line2d_43">
      <path clip-path="url(#p771f669efe)" d="M 584.562614 121.3696 
L 584.562614 34 
" style="fill:none;stroke:#b0b0b0;stroke-linecap:square;stroke-width:0.8;"/>
     </g>
     <g id="line2d_44">
      <g>
       <use style="stroke:#000000;stroke-width:0.8;" x="584.562614" xlink:href="#m745a5d5636" y="121.3696"/>
      </g>
     </g>
    </g>
    <g id="xtick_16">
     <g id="line2d_45">
      <path clip-path="url(#p771f669efe)" d="M 620.377955 121.3696 
L 620.377955 34 
" style="fill:none;stroke:#b0b0b0;stroke-linecap:square;stroke-width:0.8;"/>
     </g>
     <g id="line2d_46">
      <g>
       <use style="stroke:#000000;stroke-width:0.8;" x="620.377955" xlink:href="#m745a5d5636" y="121.3696"/>
      </g>
     </g>
    </g>
    <g id="xtick_17">
     <g id="line2d_47">
      <path clip-path="url(#p771f669efe)" d="M 656.193295 121.3696 
L 656.193295 34 
" style="fill:none;stroke:#b0b0b0;stroke-linecap:square;stroke-width:0.8;"/>
     </g>
     <g id="line2d_48">
      <g>
       <use style="stroke:#000000;stroke-width:0.8;" x="656.193295" xlink:href="#m745a5d5636" y="121.3696"/>
      </g>
     </g>
    </g>
    <g id="xtick_18">
     <g id="line2d_49">
      <path clip-path="url(#p771f669efe)" d="M 692.008636 121.3696 
L 692.008636 34 
" style="fill:none;stroke:#b0b0b0;stroke-linecap:square;stroke-width:0.8;"/>
     </g>
     <g id="line2d_50">
      <g>
       <use style="stroke:#000000;stroke-width:0.8;" x="692.008636" xlink:href="#m745a5d5636" y="121.3696"/>
      </g>
     </g>
    </g>
   </g>
   <g id="matplotlib.axis_4">
    <g id="ytick_5">
     <g id="line2d_51">
      <path clip-path="url(#p771f669efe)" d="M 394.025 86.654365 
L 709.2 86.654365 
" style="fill:none;stroke:#b0b0b0;stroke-linecap:square;stroke-width:0.8;"/>
     </g>
     <g id="line2d_52">
      <g>
       <use style="stroke:#000000;stroke-width:0.8;" x="394.025" xlink:href="#m16a723b99b" y="86.654365"/>
      </g>
     </g>
     <g id="text_8">
      <!-- −1 -->
      <defs>
       <path d="M 10.59375 35.5 
L 73.1875 35.5 
L 73.1875 27.203125 
L 10.59375 27.203125 
z
" id="DejaVuSans-8722"/>
      </defs>
      <g transform="translate(372.282812 90.453584)scale(0.1 -0.1)">
       <use xlink:href="#DejaVuSans-8722"/>
       <use x="83.789062" xlink:href="#DejaVuSans-49"/>
      </g>
     </g>
    </g>
    <g id="ytick_6">
     <g id="line2d_53">
      <path clip-path="url(#p771f669efe)" d="M 394.025 45.831849 
L 709.2 45.831849 
" style="fill:none;stroke:#b0b0b0;stroke-linecap:square;stroke-width:0.8;"/>
     </g>
     <g id="line2d_54">
      <g>
       <use style="stroke:#000000;stroke-width:0.8;" x="394.025" xlink:href="#m16a723b99b" y="45.831849"/>
      </g>
     </g>
     <g id="text_9">
      <!-- 0 -->
      <g transform="translate(380.6625 49.631068)scale(0.1 -0.1)">
       <use xlink:href="#DejaVuSans-48"/>
      </g>
     </g>
    </g>
   </g>
   <g id="line2d_55">
    <path clip-path="url(#p771f669efe)" d="M 408.351136 45.831849 
L 417.663125 45.831849 
L 418.379432 46.027281 
L 419.095739 45.025669 
L 419.812045 39.90475 
L 421.244659 49.937253 
L 421.960966 44.684569 
L 422.677273 49.598538 
L 423.39358 44.270114 
L 424.109886 49.112444 
L 424.826193 43.716242 
L 425.5425 48.494599 
L 426.258807 43.037853 
L 427.69142 52.453637 
L 428.407727 46.917531 
L 429.124034 51.563234 
L 429.840341 45.98088 
L 430.556648 50.582721 
L 431.272955 44.958413 
L 432.705568 54.063829 
L 433.421875 48.384057 
L 434.138182 52.893346 
L 434.854489 47.180758 
L 436.287102 56.11504 
L 437.003409 50.353858 
L 437.719716 54.786185 
L 438.436023 48.962416 
L 439.15233 53.319341 
L 439.868636 47.465411 
L 440.584943 51.816338 
L 441.30125 117.398255 
L 442.017557 111.529972 
L 442.733864 95.452929 
L 443.45017 99.783466 
L 444.166477 83.704981 
L 445.599091 71.95777 
L 446.315398 55.879279 
L 447.031705 60.213822 
L 448.464318 48.464602 
L 449.896932 57.131683 
L 450.613239 51.258341 
L 452.045852 59.920105 
L 452.762159 43.841901 
L 453.478466 37.971345 
L 454.194773 72.921491 
L 457.06 49.424514 
L 457.776307 63.96518 
L 459.20892 52.219115 
L 460.641534 60.879707 
L 461.357841 55.00583 
L 462.074148 59.338746 
L 462.790455 53.467177 
L 463.506761 57.801823 
L 464.223068 51.930981 
L 464.939375 56.262583 
L 465.655682 50.386613 
L 467.088295 59.047944 
L 467.804602 53.174185 
L 468.520909 57.50673 
L 469.237216 51.634193 
L 470.66983 60.300937 
L 471.386136 54.429336 
L 472.102443 58.764194 
L 472.81875 52.891173 
L 474.251364 61.551932 
L 474.96767 55.676657 
L 475.683977 60.007714 
L 476.400284 54.133723 
L 477.116591 58.465869 
L 477.832898 52.592802 
L 479.265511 61.258005 
L 479.981818 55.384952 
L 480.698125 59.717816 
L 481.414432 53.845725 
L 482.130739 58.179664 
L 482.847045 52.308352 
L 484.279659 60.97672 
L 484.995966 55.102939 
L 485.712273 59.432992 
L 486.42858 53.557575 
L 487.861193 62.218991 
L 488.5775 56.344523 
L 489.293807 60.676166 
L 490.010114 54.802355 
L 491.442727 63.466027 
L 492.159034 57.592011 
L 492.875341 61.924032 
L 493.591648 56.05057 
L 494.307955 60.383156 
L 495.024261 54.510317 
L 496.456875 63.176628 
L 497.173182 57.304398 
L 497.889489 61.638064 
L 498.605795 55.766239 
L 499.322102 60.100429 
L 500.038409 54.229148 
L 501.471023 62.898768 
L 502.18733 57.0263 
L 502.903636 61.358644 
L 503.619943 55.484212 
L 505.052557 64.145134 
L 505.768864 58.270138 
L 506.48517 62.60089 
L 507.201477 56.726323 
L 508.634091 65.388753 
L 509.350398 59.514479 
L 510.066705 63.845675 
L 510.783011 57.971192 
L 511.499318 62.302321 
L 512.215625 56.427796 
L 513.648239 65.090413 
L 514.364545 59.216286 
L 515.080852 63.548014 
L 515.797159 57.674283 
L 517.229773 66.338494 
L 517.94608 60.465152 
L 518.662386 64.797631 
L 519.378693 58.924676 
L 520.095 63.257351 
L 520.811307 57.384726 
L 522.24392 66.050904 
L 522.960227 60.178717 
L 523.676534 64.512158 
L 524.392841 58.640092 
L 525.825455 67.307577 
L 526.541761 61.435798 
L 527.258068 65.769728 
L 527.974375 59.898029 
L 528.690682 64.232132 
L 529.406989 58.360693 
L 530.839602 67.029316 
L 531.555909 61.158228 
L 532.272216 65.492768 
L 532.988523 59.620993 
L 534.421136 68.287939 
L 535.137443 62.414397 
L 535.85375 66.745188 
L 536.570057 60.87035 
L 537.286364 65.201165 
L 538.00267 59.326401 
L 539.435284 67.988139 
L 540.151591 62.113642 
L 540.867898 66.444774 
L 541.584205 60.570276 
L 543.016818 69.232377 
L 543.733125 63.357781 
L 544.449432 67.688766 
L 545.165739 61.813919 
L 545.882045 66.144701 
L 546.598352 60.269854 
L 548.030966 68.931647 
L 548.747273 63.05694 
L 549.46358 67.387862 
L 550.179886 61.5134 
L 551.6125 70.175736 
L 552.328807 64.301337 
L 553.045114 68.632749 
L 553.76142 62.758531 
L 554.477727 67.089942 
L 555.194034 61.215824 
L 556.626648 69.879125 
L 557.342955 64.005146 
L 558.059261 68.336908 
L 558.775568 62.463164 
L 560.208182 71.126934 
L 560.924489 65.253288 
L 561.640795 69.585403 
L 562.357102 63.711889 
L 563.073409 68.044004 
L 563.789716 62.170551 
L 565.22233 70.835234 
L 565.938636 64.961946 
L 566.654943 69.294287 
L 567.37125 63.421223 
L 568.803864 72.086354 
L 569.52017 66.213291 
L 570.236477 70.545989 
L 570.952784 64.673144 
L 571.669091 69.005929 
L 572.385398 63.133085 
L 573.818011 71.798888 
L 574.534318 65.926257 
L 575.250625 70.259255 
L 575.966932 64.386624 
L 577.399545 73.052928 
L 578.115852 67.180508 
L 578.832159 71.513717 
L 579.548466 65.641298 
L 580.264773 69.974649 
L 580.98108 64.102435 
L 582.413693 72.769265 
L 583.13 66.89705 
L 583.846307 71.230625 
L 584.562614 65.358612 
L 585.995227 74.025845 
L 586.711534 68.153832 
L 587.427841 72.487589 
L 588.144148 66.615764 
L 588.860455 70.949569 
L 589.576761 65.077744 
L 591.009375 73.745408 
L 591.725682 67.873681 
L 592.441989 72.207583 
L 593.158295 66.335856 
L 594.590909 75.003676 
L 595.307216 69.132022 
L 596.023523 73.465996 
L 596.73983 67.594342 
L 597.456136 71.928316 
L 598.172443 66.056662 
L 599.605057 74.72485 
L 600.321364 68.853333 
L 601.03767 73.187445 
L 601.753977 67.315928 
L 603.186591 75.982559 
L 603.902898 70.109584 
L 604.619205 74.442238 
L 605.335511 68.569263 
L 606.051818 72.901917 
L 606.768125 67.028566 
L 608.200739 75.69117 
L 608.917045 69.816842 
L 609.633352 74.148144 
L 610.349659 68.273817 
L 611.782273 76.936436 
L 612.49858 71.062121 
L 613.214886 75.393435 
L 613.931193 69.51912 
L 614.6475 73.850434 
L 615.363807 67.976104 
L 616.79642 76.638511 
L 617.512727 70.764084 
L 618.229034 75.095287 
L 618.945341 69.220861 
L 620.377955 77.883104 
L 621.094261 72.008469 
L 621.810568 76.339462 
L 622.526875 70.464826 
L 623.243182 74.79582 
L 623.959489 68.921184 
L 625.392102 77.583209 
L 626.108409 71.708603 
L 626.824716 76.039627 
L 627.541023 70.165022 
L 628.973636 78.82707 
L 629.689943 72.952523 
L 630.40625 77.283663 
L 631.122557 71.409175 
L 631.838864 75.740316 
L 632.55517 69.865828 
L 633.987784 78.52811 
L 634.704091 72.653685 
L 635.420398 76.984941 
L 636.136705 71.110569 
L 637.569318 79.773081 
L 638.285625 73.898708 
L 639.001932 78.229965 
L 639.718239 72.355636 
L 640.434545 76.687005 
L 641.150852 70.812745 
L 642.583466 79.475483 
L 643.299773 73.601222 
L 644.01608 77.932591 
L 644.732386 72.058332 
L 646.165 80.721288 
L 646.881307 74.847136 
L 647.597614 79.178614 
L 648.31392 73.304463 
L 649.030227 77.63594 
L 649.746534 71.761789 
L 651.179148 80.424892 
L 651.895455 74.550847 
L 652.611761 78.88243 
L 653.328068 73.008385 
L 654.760682 81.671552 
L 655.476989 75.797506 
L 656.193295 80.129146 
L 656.909602 74.255204 
L 657.625909 78.58689 
L 658.342216 72.712948 
L 659.77483 81.376321 
L 660.491136 75.502379 
L 661.207443 79.834066 
L 661.92375 73.960168 
L 663.356364 82.623742 
L 664.07267 76.749899 
L 664.788977 81.081686 
L 665.505284 75.207844 
L 666.221591 79.539631 
L 666.937898 73.665789 
L 668.370511 82.329469 
L 669.086818 76.455725 
L 669.803125 80.78761 
L 670.519432 74.913866 
L 671.952045 83.577636 
L 672.668352 77.703892 
L 673.384659 82.035777 
L 674.100966 76.162077 
L 674.817273 80.494057 
L 675.53358 74.620408 
L 676.966193 83.284367 
L 677.6825 77.410718 
L 678.398807 81.742698 
L 679.115114 75.869049 
L 680.547727 84.533059 
L 681.264034 78.659502 
L 681.980341 82.991573 
L 682.696648 77.118015 
L 683.412955 81.450087 
L 684.129261 75.576529 
L 685.561875 84.240672 
L 686.278182 78.367114 
L 686.994489 82.699217 
L 687.710795 76.825748 
L 689.143409 85.490069 
L 689.859716 79.616601 
L 690.576023 83.948761 
L 691.29233 78.075293 
L 692.008636 82.407453 
L 692.724943 76.533985 
L 694.157557 85.19838 
L 694.873864 79.324997 
L 694.873864 79.324997 
" style="fill:none;stroke:#1f77b4;stroke-linecap:square;stroke-width:1.5;"/>
   </g>
   <g id="patch_9">
    <path d="M 394.025 121.3696 
L 394.025 34 
" style="fill:none;stroke:#000000;stroke-linecap:square;stroke-linejoin:miter;stroke-width:0.8;"/>
   </g>
   <g id="patch_10">
    <path d="M 709.2 121.3696 
L 709.2 34 
" style="fill:none;stroke:#000000;stroke-linecap:square;stroke-linejoin:miter;stroke-width:0.8;"/>
   </g>
   <g id="patch_11">
    <path d="M 394.025 121.3696 
L 709.2 121.3696 
" style="fill:none;stroke:#000000;stroke-linecap:square;stroke-linejoin:miter;stroke-width:0.8;"/>
   </g>
   <g id="patch_12">
    <path d="M 394.025 34 
L 709.2 34 
" style="fill:none;stroke:#000000;stroke-linecap:square;stroke-linejoin:miter;stroke-width:0.8;"/>
   </g>
   <g id="text_10">
    <!-- Cons. Difference -->
    <defs>
     <path d="M 19.671875 64.796875 
L 19.671875 8.109375 
L 31.59375 8.109375 
Q 46.6875 8.109375 53.6875 14.9375 
Q 60.6875 21.78125 60.6875 36.53125 
Q 60.6875 51.171875 53.6875 57.984375 
Q 46.6875 64.796875 31.59375 64.796875 
z
M 9.8125 72.90625 
L 30.078125 72.90625 
Q 51.265625 72.90625 61.171875 64.09375 
Q 71.09375 55.28125 71.09375 36.53125 
Q 71.09375 17.671875 61.125 8.828125 
Q 51.171875 0 30.078125 0 
L 9.8125 0 
z
" id="DejaVuSans-68"/>
     <path d="M 37.109375 75.984375 
L 37.109375 68.5 
L 28.515625 68.5 
Q 23.6875 68.5 21.796875 66.546875 
Q 19.921875 64.59375 19.921875 59.515625 
L 19.921875 54.6875 
L 34.71875 54.6875 
L 34.71875 47.703125 
L 19.921875 47.703125 
L 19.921875 0 
L 10.890625 0 
L 10.890625 47.703125 
L 2.296875 47.703125 
L 2.296875 54.6875 
L 10.890625 54.6875 
L 10.890625 58.5 
Q 10.890625 67.625 15.140625 71.796875 
Q 19.390625 75.984375 28.609375 75.984375 
z
" id="DejaVuSans-102"/>
     <path d="M 56.203125 29.59375 
L 56.203125 25.203125 
L 14.890625 25.203125 
Q 15.484375 15.921875 20.484375 11.0625 
Q 25.484375 6.203125 34.421875 6.203125 
Q 39.59375 6.203125 44.453125 7.46875 
Q 49.3125 8.734375 54.109375 11.28125 
L 54.109375 2.78125 
Q 49.265625 0.734375 44.1875 -0.34375 
Q 39.109375 -1.421875 33.890625 -1.421875 
Q 20.796875 -1.421875 13.15625 6.1875 
Q 5.515625 13.8125 5.515625 26.8125 
Q 5.515625 40.234375 12.765625 48.109375 
Q 20.015625 56 32.328125 56 
Q 43.359375 56 49.78125 48.890625 
Q 56.203125 41.796875 56.203125 29.59375 
z
M 47.21875 32.234375 
Q 47.125 39.59375 43.09375 43.984375 
Q 39.0625 48.390625 32.421875 48.390625 
Q 24.90625 48.390625 20.390625 44.140625 
Q 15.875 39.890625 15.1875 32.171875 
z
" id="DejaVuSans-101"/>
     <path d="M 41.109375 46.296875 
Q 39.59375 47.171875 37.8125 47.578125 
Q 36.03125 48 33.890625 48 
Q 26.265625 48 22.1875 43.046875 
Q 18.109375 38.09375 18.109375 28.8125 
L 18.109375 0 
L 9.078125 0 
L 9.078125 54.6875 
L 18.109375 54.6875 
L 18.109375 46.1875 
Q 20.953125 51.171875 25.484375 53.578125 
Q 30.03125 56 36.53125 56 
Q 37.453125 56 38.578125 55.875 
Q 39.703125 55.765625 41.0625 55.515625 
z
" id="DejaVuSans-114"/>
    </defs>
    <g transform="translate(501.856562 28)scale(0.12 -0.12)">
     <use xlink:href="#DejaVuSans-67"/>
     <use x="69.824219" xlink:href="#DejaVuSans-111"/>
     <use x="131.005859" xlink:href="#DejaVuSans-110"/>
     <use x="194.384766" xlink:href="#DejaVuSans-115"/>
     <use x="246.484375" xlink:href="#DejaVuSans-46"/>
     <use x="278.271484" xlink:href="#DejaVuSans-32"/>
     <use x="310.058594" xlink:href="#DejaVuSans-68"/>
     <use x="387.060547" xlink:href="#DejaVuSans-105"/>
     <use x="414.84375" xlink:href="#DejaVuSans-102"/>
     <use x="450.048828" xlink:href="#DejaVuSans-102"/>
     <use x="485.253906" xlink:href="#DejaVuSans-101"/>
     <use x="546.777344" xlink:href="#DejaVuSans-114"/>
     <use x="587.859375" xlink:href="#DejaVuSans-101"/>
     <use x="649.382812" xlink:href="#DejaVuSans-110"/>
     <use x="712.761719" xlink:href="#DejaVuSans-99"/>
     <use x="767.742188" xlink:href="#DejaVuSans-101"/>
    </g>
   </g>
   <g id="legend_2">
    <g id="patch_13">
     <path d="M 609.009375 56.678125 
L 702.2 56.678125 
Q 704.2 56.678125 704.2 54.678125 
L 704.2 41 
Q 704.2 39 702.2 39 
L 609.009375 39 
Q 607.009375 39 607.009375 41 
L 607.009375 54.678125 
Q 607.009375 56.678125 609.009375 56.678125 
z
" style="fill:#ffffff;opacity:0.8;stroke:#cccccc;stroke-linejoin:miter;"/>
    </g>
    <g id="line2d_56">
     <path d="M 611.009375 47.098437 
L 631.009375 47.098437 
" style="fill:none;stroke:#1f77b4;stroke-linecap:square;stroke-width:1.5;"/>
    </g>
    <g id="line2d_57"/>
    <g id="text_11">
     <!-- CGM - HARK -->
     <defs>
      <path d="M 4.890625 31.390625 
L 31.203125 31.390625 
L 31.203125 23.390625 
L 4.890625 23.390625 
z
" id="DejaVuSans-45"/>
     </defs>
     <g transform="translate(639.009375 50.598437)scale(0.1 -0.1)">
      <use xlink:href="#DejaVuSans-67"/>
      <use x="69.824219" xlink:href="#DejaVuSans-71"/>
      <use x="147.314453" xlink:href="#DejaVuSans-77"/>
      <use x="233.59375" xlink:href="#DejaVuSans-32"/>
      <use x="265.380859" xlink:href="#DejaVuSans-45"/>
      <use x="301.464844" xlink:href="#DejaVuSans-32"/>
      <use x="333.251953" xlink:href="#DejaVuSans-72"/>
      <use x="408.447266" xlink:href="#DejaVuSans-65"/>
      <use x="476.855469" xlink:href="#DejaVuSans-82"/>
      <use x="546.337891" xlink:href="#DejaVuSans-75"/>
     </g>
    </g>
   </g>
  </g>
  <g id="axes_3">
   <g id="patch_14">
    <path d="M 36.8 252.424 
L 351.975 252.424 
L 351.975 165.0544 
L 36.8 165.0544 
z
" style="fill:#ffffff;"/>
   </g>
   <g id="matplotlib.axis_5">
    <g id="xtick_19">
     <g id="line2d_58">
      <path clip-path="url(#pa640969953)" d="M 48.260909 252.424 
L 48.260909 165.0544 
" style="fill:none;stroke:#b0b0b0;stroke-linecap:square;stroke-width:0.8;"/>
     </g>
     <g id="line2d_59">
      <g>
       <use style="stroke:#000000;stroke-width:0.8;" x="48.260909" xlink:href="#m745a5d5636" y="252.424"/>
      </g>
     </g>
     <g id="text_12">
      <!-- 0 -->
      <g transform="translate(45.079659 267.022438)scale(0.1 -0.1)">
       <use xlink:href="#DejaVuSans-48"/>
      </g>
     </g>
    </g>
    <g id="xtick_20">
     <g id="line2d_60">
      <path clip-path="url(#pa640969953)" d="M 84.07625 252.424 
L 84.07625 165.0544 
" style="fill:none;stroke:#b0b0b0;stroke-linecap:square;stroke-width:0.8;"/>
     </g>
     <g id="line2d_61">
      <g>
       <use style="stroke:#000000;stroke-width:0.8;" x="84.07625" xlink:href="#m745a5d5636" y="252.424"/>
      </g>
     </g>
     <g id="text_13">
      <!-- 50 -->
      <g transform="translate(77.71375 267.022438)scale(0.1 -0.1)">
       <use xlink:href="#DejaVuSans-53"/>
       <use x="63.623047" xlink:href="#DejaVuSans-48"/>
      </g>
     </g>
    </g>
    <g id="xtick_21">
     <g id="line2d_62">
      <path clip-path="url(#pa640969953)" d="M 119.891591 252.424 
L 119.891591 165.0544 
" style="fill:none;stroke:#b0b0b0;stroke-linecap:square;stroke-width:0.8;"/>
     </g>
     <g id="line2d_63">
      <g>
       <use style="stroke:#000000;stroke-width:0.8;" x="119.891591" xlink:href="#m745a5d5636" y="252.424"/>
      </g>
     </g>
     <g id="text_14">
      <!-- 100 -->
      <g transform="translate(110.347841 267.022438)scale(0.1 -0.1)">
       <use xlink:href="#DejaVuSans-49"/>
       <use x="63.623047" xlink:href="#DejaVuSans-48"/>
       <use x="127.246094" xlink:href="#DejaVuSans-48"/>
      </g>
     </g>
    </g>
    <g id="xtick_22">
     <g id="line2d_64">
      <path clip-path="url(#pa640969953)" d="M 155.706932 252.424 
L 155.706932 165.0544 
" style="fill:none;stroke:#b0b0b0;stroke-linecap:square;stroke-width:0.8;"/>
     </g>
     <g id="line2d_65">
      <g>
       <use style="stroke:#000000;stroke-width:0.8;" x="155.706932" xlink:href="#m745a5d5636" y="252.424"/>
      </g>
     </g>
     <g id="text_15">
      <!-- 150 -->
      <g transform="translate(146.163182 267.022438)scale(0.1 -0.1)">
       <use xlink:href="#DejaVuSans-49"/>
       <use x="63.623047" xlink:href="#DejaVuSans-53"/>
       <use x="127.246094" xlink:href="#DejaVuSans-48"/>
      </g>
     </g>
    </g>
    <g id="xtick_23">
     <g id="line2d_66">
      <path clip-path="url(#pa640969953)" d="M 191.522273 252.424 
L 191.522273 165.0544 
" style="fill:none;stroke:#b0b0b0;stroke-linecap:square;stroke-width:0.8;"/>
     </g>
     <g id="line2d_67">
      <g>
       <use style="stroke:#000000;stroke-width:0.8;" x="191.522273" xlink:href="#m745a5d5636" y="252.424"/>
      </g>
     </g>
     <g id="text_16">
      <!-- 200 -->
      <defs>
       <path d="M 19.1875 8.296875 
L 53.609375 8.296875 
L 53.609375 0 
L 7.328125 0 
L 7.328125 8.296875 
Q 12.9375 14.109375 22.625 23.890625 
Q 32.328125 33.6875 34.8125 36.53125 
Q 39.546875 41.84375 41.421875 45.53125 
Q 43.3125 49.21875 43.3125 52.78125 
Q 43.3125 58.59375 39.234375 62.25 
Q 35.15625 65.921875 28.609375 65.921875 
Q 23.96875 65.921875 18.8125 64.3125 
Q 13.671875 62.703125 7.8125 59.421875 
L 7.8125 69.390625 
Q 13.765625 71.78125 18.9375 73 
Q 24.125 74.21875 28.421875 74.21875 
Q 39.75 74.21875 46.484375 68.546875 
Q 53.21875 62.890625 53.21875 53.421875 
Q 53.21875 48.921875 51.53125 44.890625 
Q 49.859375 40.875 45.40625 35.40625 
Q 44.1875 33.984375 37.640625 27.21875 
Q 31.109375 20.453125 19.1875 8.296875 
z
" id="DejaVuSans-50"/>
      </defs>
      <g transform="translate(181.978523 267.022438)scale(0.1 -0.1)">
       <use xlink:href="#DejaVuSans-50"/>
       <use x="63.623047" xlink:href="#DejaVuSans-48"/>
       <use x="127.246094" xlink:href="#DejaVuSans-48"/>
      </g>
     </g>
    </g>
    <g id="xtick_24">
     <g id="line2d_68">
      <path clip-path="url(#pa640969953)" d="M 227.337614 252.424 
L 227.337614 165.0544 
" style="fill:none;stroke:#b0b0b0;stroke-linecap:square;stroke-width:0.8;"/>
     </g>
     <g id="line2d_69">
      <g>
       <use style="stroke:#000000;stroke-width:0.8;" x="227.337614" xlink:href="#m745a5d5636" y="252.424"/>
      </g>
     </g>
     <g id="text_17">
      <!-- 250 -->
      <g transform="translate(217.793864 267.022438)scale(0.1 -0.1)">
       <use xlink:href="#DejaVuSans-50"/>
       <use x="63.623047" xlink:href="#DejaVuSans-53"/>
       <use x="127.246094" xlink:href="#DejaVuSans-48"/>
      </g>
     </g>
    </g>
    <g id="xtick_25">
     <g id="line2d_70">
      <path clip-path="url(#pa640969953)" d="M 263.152955 252.424 
L 263.152955 165.0544 
" style="fill:none;stroke:#b0b0b0;stroke-linecap:square;stroke-width:0.8;"/>
     </g>
     <g id="line2d_71">
      <g>
       <use style="stroke:#000000;stroke-width:0.8;" x="263.152955" xlink:href="#m745a5d5636" y="252.424"/>
      </g>
     </g>
     <g id="text_18">
      <!-- 300 -->
      <defs>
       <path d="M 40.578125 39.3125 
Q 47.65625 37.796875 51.625 33 
Q 55.609375 28.21875 55.609375 21.1875 
Q 55.609375 10.40625 48.1875 4.484375 
Q 40.765625 -1.421875 27.09375 -1.421875 
Q 22.515625 -1.421875 17.65625 -0.515625 
Q 12.796875 0.390625 7.625 2.203125 
L 7.625 11.71875 
Q 11.71875 9.328125 16.59375 8.109375 
Q 21.484375 6.890625 26.8125 6.890625 
Q 36.078125 6.890625 40.9375 10.546875 
Q 45.796875 14.203125 45.796875 21.1875 
Q 45.796875 27.640625 41.28125 31.265625 
Q 36.765625 34.90625 28.71875 34.90625 
L 20.21875 34.90625 
L 20.21875 43.015625 
L 29.109375 43.015625 
Q 36.375 43.015625 40.234375 45.921875 
Q 44.09375 48.828125 44.09375 54.296875 
Q 44.09375 59.90625 40.109375 62.90625 
Q 36.140625 65.921875 28.71875 65.921875 
Q 24.65625 65.921875 20.015625 65.03125 
Q 15.375 64.15625 9.8125 62.3125 
L 9.8125 71.09375 
Q 15.4375 72.65625 20.34375 73.4375 
Q 25.25 74.21875 29.59375 74.21875 
Q 40.828125 74.21875 47.359375 69.109375 
Q 53.90625 64.015625 53.90625 55.328125 
Q 53.90625 49.265625 50.4375 45.09375 
Q 46.96875 40.921875 40.578125 39.3125 
z
" id="DejaVuSans-51"/>
      </defs>
      <g transform="translate(253.609205 267.022438)scale(0.1 -0.1)">
       <use xlink:href="#DejaVuSans-51"/>
       <use x="63.623047" xlink:href="#DejaVuSans-48"/>
       <use x="127.246094" xlink:href="#DejaVuSans-48"/>
      </g>
     </g>
    </g>
    <g id="xtick_26">
     <g id="line2d_72">
      <path clip-path="url(#pa640969953)" d="M 298.968295 252.424 
L 298.968295 165.0544 
" style="fill:none;stroke:#b0b0b0;stroke-linecap:square;stroke-width:0.8;"/>
     </g>
     <g id="line2d_73">
      <g>
       <use style="stroke:#000000;stroke-width:0.8;" x="298.968295" xlink:href="#m745a5d5636" y="252.424"/>
      </g>
     </g>
     <g id="text_19">
      <!-- 350 -->
      <g transform="translate(289.424545 267.022438)scale(0.1 -0.1)">
       <use xlink:href="#DejaVuSans-51"/>
       <use x="63.623047" xlink:href="#DejaVuSans-53"/>
       <use x="127.246094" xlink:href="#DejaVuSans-48"/>
      </g>
     </g>
    </g>
    <g id="xtick_27">
     <g id="line2d_74">
      <path clip-path="url(#pa640969953)" d="M 334.783636 252.424 
L 334.783636 165.0544 
" style="fill:none;stroke:#b0b0b0;stroke-linecap:square;stroke-width:0.8;"/>
     </g>
     <g id="line2d_75">
      <g>
       <use style="stroke:#000000;stroke-width:0.8;" x="334.783636" xlink:href="#m745a5d5636" y="252.424"/>
      </g>
     </g>
     <g id="text_20">
      <!-- 400 -->
      <defs>
       <path d="M 37.796875 64.3125 
L 12.890625 25.390625 
L 37.796875 25.390625 
z
M 35.203125 72.90625 
L 47.609375 72.90625 
L 47.609375 25.390625 
L 58.015625 25.390625 
L 58.015625 17.1875 
L 47.609375 17.1875 
L 47.609375 0 
L 37.796875 0 
L 37.796875 17.1875 
L 4.890625 17.1875 
L 4.890625 26.703125 
z
" id="DejaVuSans-52"/>
      </defs>
      <g transform="translate(325.239886 267.022438)scale(0.1 -0.1)">
       <use xlink:href="#DejaVuSans-52"/>
       <use x="63.623047" xlink:href="#DejaVuSans-48"/>
       <use x="127.246094" xlink:href="#DejaVuSans-48"/>
      </g>
     </g>
    </g>
   </g>
   <g id="matplotlib.axis_6">
    <g id="ytick_7">
     <g id="line2d_76">
      <path clip-path="url(#pa640969953)" d="M 36.8 248.452655 
L 351.975 248.452655 
" style="fill:none;stroke:#b0b0b0;stroke-linecap:square;stroke-width:0.8;"/>
     </g>
     <g id="line2d_77">
      <g>
       <use style="stroke:#000000;stroke-width:0.8;" x="36.8" xlink:href="#m16a723b99b" y="248.452655"/>
      </g>
     </g>
     <g id="text_21">
      <!-- 0.0 -->
      <g transform="translate(13.896875 252.251873)scale(0.1 -0.1)">
       <use xlink:href="#DejaVuSans-48"/>
       <use x="63.623047" xlink:href="#DejaVuSans-46"/>
       <use x="95.410156" xlink:href="#DejaVuSans-48"/>
      </g>
     </g>
    </g>
    <g id="ytick_8">
     <g id="line2d_78">
      <path clip-path="url(#pa640969953)" d="M 36.8 208.7392 
L 351.975 208.7392 
" style="fill:none;stroke:#b0b0b0;stroke-linecap:square;stroke-width:0.8;"/>
     </g>
     <g id="line2d_79">
      <g>
       <use style="stroke:#000000;stroke-width:0.8;" x="36.8" xlink:href="#m16a723b99b" y="208.7392"/>
      </g>
     </g>
     <g id="text_22">
      <!-- 0.5 -->
      <g transform="translate(13.896875 212.538419)scale(0.1 -0.1)">
       <use xlink:href="#DejaVuSans-48"/>
       <use x="63.623047" xlink:href="#DejaVuSans-46"/>
       <use x="95.410156" xlink:href="#DejaVuSans-53"/>
      </g>
     </g>
    </g>
    <g id="ytick_9">
     <g id="line2d_80">
      <path clip-path="url(#pa640969953)" d="M 36.8 169.025745 
L 351.975 169.025745 
" style="fill:none;stroke:#b0b0b0;stroke-linecap:square;stroke-width:0.8;"/>
     </g>
     <g id="line2d_81">
      <g>
       <use style="stroke:#000000;stroke-width:0.8;" x="36.8" xlink:href="#m16a723b99b" y="169.025745"/>
      </g>
     </g>
     <g id="text_23">
      <!-- 1.0 -->
      <g transform="translate(13.896875 172.824964)scale(0.1 -0.1)">
       <use xlink:href="#DejaVuSans-49"/>
       <use x="63.623047" xlink:href="#DejaVuSans-46"/>
       <use x="95.410156" xlink:href="#DejaVuSans-48"/>
      </g>
     </g>
    </g>
   </g>
   <g id="line2d_82">
    <path clip-path="url(#pa640969953)" d="M 51.126136 248.452655 
L 60.438125 248.452655 
L 61.154432 169.025745 
L 67.601193 169.025745 
L 68.3175 169.820015 
L 69.033807 174.585629 
L 70.46642 184.911127 
L 71.182727 187.293935 
L 71.899034 191.26528 
L 72.615341 192.853818 
L 73.331648 196.030895 
L 74.047955 197.619433 
L 75.480568 202.385047 
L 76.196875 203.179316 
L 77.629489 206.356393 
L 78.345795 207.150662 
L 79.062102 208.7392 
L 83.359943 213.504815 
L 84.07625 215.887622 
L 84.792557 216.681891 
L 85.508864 216.681891 
L 86.22517 217.47616 
L 87.657784 217.47616 
L 88.374091 218.270429 
L 89.090398 218.270429 
L 89.806705 219.064698 
L 90.523011 219.064698 
L 91.239318 219.858967 
L 91.955625 219.064698 
L 92.671932 223.036044 
L 93.388239 226.21312 
L 94.104545 215.887622 
L 95.537159 220.653236 
L 96.253466 225.418851 
L 96.969773 215.887622 
L 97.68608 221.447505 
L 98.402386 221.447505 
L 99.835 215.093353 
L 100.551307 227.801658 
L 101.98392 224.624582 
L 102.700227 223.830313 
L 103.416534 227.007389 
L 104.132841 227.007389 
L 104.849148 225.418851 
L 105.565455 224.624582 
L 106.281761 224.624582 
L 106.998068 225.418851 
L 111.295909 225.418851 
L 112.012216 226.21312 
L 116.310057 226.21312 
L 117.026364 227.007389 
L 121.324205 227.007389 
L 122.040511 227.801658 
L 128.487273 227.801658 
L 129.20358 228.595927 
L 136.366648 228.595927 
L 137.082955 229.390196 
L 147.11125 229.390196 
L 147.827557 230.184465 
L 162.153693 230.184465 
L 162.87 230.978735 
L 182.210284 230.978735 
L 182.926591 231.773004 
L 213.011477 231.773004 
L 213.727784 232.567273 
L 264.585568 232.567273 
L 265.301875 233.361542 
L 337.648864 233.361542 
L 337.648864 233.361542 
" style="fill:none;stroke:#1f77b4;stroke-linecap:square;stroke-width:1.5;"/>
   </g>
   <g id="line2d_83">
    <path clip-path="url(#pa640969953)" d="M 51.126136 169.025745 
L 80.494716 169.025745 
L 81.211023 170.28901 
L 82.643636 173.585414 
L 84.792557 177.823073 
L 86.941477 181.420242 
L 89.090398 184.460385 
L 91.239318 187.064663 
L 93.388239 189.325398 
L 96.253466 191.903146 
L 99.118693 194.085828 
L 101.98392 195.96908 
L 104.849148 197.596086 
L 108.430682 199.360959 
L 112.012216 200.869453 
L 116.310057 202.430515 
L 121.324205 203.957387 
L 127.054659 205.431855 
L 132.785114 206.652923 
L 139.948182 207.944718 
L 147.827557 209.115291 
L 157.139545 210.24226 
L 167.884148 211.31041 
L 179.345057 212.234069 
L 193.671193 213.150332 
L 210.14625 213.995977 
L 231.635455 214.859027 
L 255.27358 215.582181 
L 287.507386 216.317103 
L 329.769489 217.018605 
L 337.648864 217.125819 
L 337.648864 217.125819 
" style="fill:none;stroke:#ff7f0e;stroke-linecap:square;stroke-width:1.5;"/>
   </g>
   <g id="patch_15">
    <path d="M 36.8 252.424 
L 36.8 165.0544 
" style="fill:none;stroke:#000000;stroke-linecap:square;stroke-linejoin:miter;stroke-width:0.8;"/>
   </g>
   <g id="patch_16">
    <path d="M 351.975 252.424 
L 351.975 165.0544 
" style="fill:none;stroke:#000000;stroke-linecap:square;stroke-linejoin:miter;stroke-width:0.8;"/>
   </g>
   <g id="patch_17">
    <path d="M 36.8 252.424 
L 351.975 252.424 
" style="fill:none;stroke:#000000;stroke-linecap:square;stroke-linejoin:miter;stroke-width:0.8;"/>
   </g>
   <g id="patch_18">
    <path d="M 36.8 165.0544 
L 351.975 165.0544 
" style="fill:none;stroke:#000000;stroke-linecap:square;stroke-linejoin:miter;stroke-width:0.8;"/>
   </g>
   <g id="text_24">
    <!-- Risky Sh. Functions -->
    <defs>
     <path d="M 9.078125 75.984375 
L 18.109375 75.984375 
L 18.109375 31.109375 
L 44.921875 54.6875 
L 56.390625 54.6875 
L 27.390625 29.109375 
L 57.625 0 
L 45.90625 0 
L 18.109375 26.703125 
L 18.109375 0 
L 9.078125 0 
z
" id="DejaVuSans-107"/>
     <path d="M 32.171875 -5.078125 
Q 28.375 -14.84375 24.75 -17.8125 
Q 21.140625 -20.796875 15.09375 -20.796875 
L 7.90625 -20.796875 
L 7.90625 -13.28125 
L 13.1875 -13.28125 
Q 16.890625 -13.28125 18.9375 -11.515625 
Q 21 -9.765625 23.484375 -3.21875 
L 25.09375 0.875 
L 2.984375 54.6875 
L 12.5 54.6875 
L 29.59375 11.921875 
L 46.6875 54.6875 
L 56.203125 54.6875 
z
" id="DejaVuSans-121"/>
     <path d="M 53.515625 70.515625 
L 53.515625 60.890625 
Q 47.90625 63.578125 42.921875 64.890625 
Q 37.9375 66.21875 33.296875 66.21875 
Q 25.25 66.21875 20.875 63.09375 
Q 16.5 59.96875 16.5 54.203125 
Q 16.5 49.359375 19.40625 46.890625 
Q 22.3125 44.4375 30.421875 42.921875 
L 36.375 41.703125 
Q 47.40625 39.59375 52.65625 34.296875 
Q 57.90625 29 57.90625 20.125 
Q 57.90625 9.515625 50.796875 4.046875 
Q 43.703125 -1.421875 29.984375 -1.421875 
Q 24.8125 -1.421875 18.96875 -0.25 
Q 13.140625 0.921875 6.890625 3.21875 
L 6.890625 13.375 
Q 12.890625 10.015625 18.65625 8.296875 
Q 24.421875 6.59375 29.984375 6.59375 
Q 38.421875 6.59375 43.015625 9.90625 
Q 47.609375 13.234375 47.609375 19.390625 
Q 47.609375 24.75 44.3125 27.78125 
Q 41.015625 30.8125 33.5 32.328125 
L 27.484375 33.5 
Q 16.453125 35.6875 11.515625 40.375 
Q 6.59375 45.0625 6.59375 53.421875 
Q 6.59375 63.09375 13.40625 68.65625 
Q 20.21875 74.21875 32.171875 74.21875 
Q 37.3125 74.21875 42.625 73.28125 
Q 47.953125 72.359375 53.515625 70.515625 
z
" id="DejaVuSans-83"/>
     <path d="M 54.890625 33.015625 
L 54.890625 0 
L 45.90625 0 
L 45.90625 32.71875 
Q 45.90625 40.484375 42.875 44.328125 
Q 39.84375 48.1875 33.796875 48.1875 
Q 26.515625 48.1875 22.3125 43.546875 
Q 18.109375 38.921875 18.109375 30.90625 
L 18.109375 0 
L 9.078125 0 
L 9.078125 75.984375 
L 18.109375 75.984375 
L 18.109375 46.1875 
Q 21.34375 51.125 25.703125 53.5625 
Q 30.078125 56 35.796875 56 
Q 45.21875 56 50.046875 50.171875 
Q 54.890625 44.34375 54.890625 33.015625 
z
" id="DejaVuSans-104"/>
    </defs>
    <g transform="translate(136.102187 159.0544)scale(0.12 -0.12)">
     <use xlink:href="#DejaVuSans-82"/>
     <use x="69.482422" xlink:href="#DejaVuSans-105"/>
     <use x="97.265625" xlink:href="#DejaVuSans-115"/>
     <use x="149.365234" xlink:href="#DejaVuSans-107"/>
     <use x="207.228516" xlink:href="#DejaVuSans-121"/>
     <use x="266.408203" xlink:href="#DejaVuSans-32"/>
     <use x="298.195312" xlink:href="#DejaVuSans-83"/>
     <use x="361.671875" xlink:href="#DejaVuSans-104"/>
     <use x="425.050781" xlink:href="#DejaVuSans-46"/>
     <use x="456.837891" xlink:href="#DejaVuSans-32"/>
     <use x="488.625" xlink:href="#DejaVuSans-70"/>
     <use x="546.066406" xlink:href="#DejaVuSans-117"/>
     <use x="609.445312" xlink:href="#DejaVuSans-110"/>
     <use x="672.824219" xlink:href="#DejaVuSans-99"/>
     <use x="727.804688" xlink:href="#DejaVuSans-116"/>
     <use x="767.013672" xlink:href="#DejaVuSans-105"/>
     <use x="794.796875" xlink:href="#DejaVuSans-111"/>
     <use x="855.978516" xlink:href="#DejaVuSans-110"/>
     <use x="919.357422" xlink:href="#DejaVuSans-115"/>
    </g>
   </g>
   <g id="legend_3">
    <g id="patch_19">
     <path d="M 285.107812 202.41065 
L 344.975 202.41065 
Q 346.975 202.41065 346.975 200.41065 
L 346.975 172.0544 
Q 346.975 170.0544 344.975 170.0544 
L 285.107812 170.0544 
Q 283.107812 170.0544 283.107812 172.0544 
L 283.107812 200.41065 
Q 283.107812 202.41065 285.107812 202.41065 
z
" style="fill:#ffffff;opacity:0.8;stroke:#cccccc;stroke-linejoin:miter;"/>
    </g>
    <g id="line2d_84">
     <path d="M 287.107812 178.152837 
L 307.107812 178.152837 
" style="fill:none;stroke:#1f77b4;stroke-linecap:square;stroke-width:1.5;"/>
    </g>
    <g id="line2d_85"/>
    <g id="text_25">
     <!-- CGM -->
     <g transform="translate(315.107812 181.652837)scale(0.1 -0.1)">
      <use xlink:href="#DejaVuSans-67"/>
      <use x="69.824219" xlink:href="#DejaVuSans-71"/>
      <use x="147.314453" xlink:href="#DejaVuSans-77"/>
     </g>
    </g>
    <g id="line2d_86">
     <path d="M 287.107812 192.830962 
L 307.107812 192.830962 
" style="fill:none;stroke:#ff7f0e;stroke-linecap:square;stroke-width:1.5;"/>
    </g>
    <g id="line2d_87"/>
    <g id="text_26">
     <!-- HARK -->
     <g transform="translate(315.107812 196.330962)scale(0.1 -0.1)">
      <use xlink:href="#DejaVuSans-72"/>
      <use x="75.195312" xlink:href="#DejaVuSans-65"/>
      <use x="143.603516" xlink:href="#DejaVuSans-82"/>
      <use x="213.085938" xlink:href="#DejaVuSans-75"/>
     </g>
    </g>
   </g>
  </g>
  <g id="axes_4">
   <g id="patch_20">
    <path d="M 394.025 252.424 
L 709.2 252.424 
L 709.2 165.0544 
L 394.025 165.0544 
z
" style="fill:#ffffff;"/>
   </g>
   <g id="matplotlib.axis_7">
    <g id="xtick_28">
     <g id="line2d_88">
      <path clip-path="url(#p859eb85614)" d="M 405.485909 252.424 
L 405.485909 165.0544 
" style="fill:none;stroke:#b0b0b0;stroke-linecap:square;stroke-width:0.8;"/>
     </g>
     <g id="line2d_89">
      <g>
       <use style="stroke:#000000;stroke-width:0.8;" x="405.485909" xlink:href="#m745a5d5636" y="252.424"/>
      </g>
     </g>
     <g id="text_27">
      <!-- 0 -->
      <g transform="translate(402.304659 267.022438)scale(0.1 -0.1)">
       <use xlink:href="#DejaVuSans-48"/>
      </g>
     </g>
    </g>
    <g id="xtick_29">
     <g id="line2d_90">
      <path clip-path="url(#p859eb85614)" d="M 441.30125 252.424 
L 441.30125 165.0544 
" style="fill:none;stroke:#b0b0b0;stroke-linecap:square;stroke-width:0.8;"/>
     </g>
     <g id="line2d_91">
      <g>
       <use style="stroke:#000000;stroke-width:0.8;" x="441.30125" xlink:href="#m745a5d5636" y="252.424"/>
      </g>
     </g>
     <g id="text_28">
      <!-- 50 -->
      <g transform="translate(434.93875 267.022438)scale(0.1 -0.1)">
       <use xlink:href="#DejaVuSans-53"/>
       <use x="63.623047" xlink:href="#DejaVuSans-48"/>
      </g>
     </g>
    </g>
    <g id="xtick_30">
     <g id="line2d_92">
      <path clip-path="url(#p859eb85614)" d="M 477.116591 252.424 
L 477.116591 165.0544 
" style="fill:none;stroke:#b0b0b0;stroke-linecap:square;stroke-width:0.8;"/>
     </g>
     <g id="line2d_93">
      <g>
       <use style="stroke:#000000;stroke-width:0.8;" x="477.116591" xlink:href="#m745a5d5636" y="252.424"/>
      </g>
     </g>
     <g id="text_29">
      <!-- 100 -->
      <g transform="translate(467.572841 267.022438)scale(0.1 -0.1)">
       <use xlink:href="#DejaVuSans-49"/>
       <use x="63.623047" xlink:href="#DejaVuSans-48"/>
       <use x="127.246094" xlink:href="#DejaVuSans-48"/>
      </g>
     </g>
    </g>
    <g id="xtick_31">
     <g id="line2d_94">
      <path clip-path="url(#p859eb85614)" d="M 512.931932 252.424 
L 512.931932 165.0544 
" style="fill:none;stroke:#b0b0b0;stroke-linecap:square;stroke-width:0.8;"/>
     </g>
     <g id="line2d_95">
      <g>
       <use style="stroke:#000000;stroke-width:0.8;" x="512.931932" xlink:href="#m745a5d5636" y="252.424"/>
      </g>
     </g>
     <g id="text_30">
      <!-- 150 -->
      <g transform="translate(503.388182 267.022438)scale(0.1 -0.1)">
       <use xlink:href="#DejaVuSans-49"/>
       <use x="63.623047" xlink:href="#DejaVuSans-53"/>
       <use x="127.246094" xlink:href="#DejaVuSans-48"/>
      </g>
     </g>
    </g>
    <g id="xtick_32">
     <g id="line2d_96">
      <path clip-path="url(#p859eb85614)" d="M 548.747273 252.424 
L 548.747273 165.0544 
" style="fill:none;stroke:#b0b0b0;stroke-linecap:square;stroke-width:0.8;"/>
     </g>
     <g id="line2d_97">
      <g>
       <use style="stroke:#000000;stroke-width:0.8;" x="548.747273" xlink:href="#m745a5d5636" y="252.424"/>
      </g>
     </g>
     <g id="text_31">
      <!-- 200 -->
      <g transform="translate(539.203523 267.022438)scale(0.1 -0.1)">
       <use xlink:href="#DejaVuSans-50"/>
       <use x="63.623047" xlink:href="#DejaVuSans-48"/>
       <use x="127.246094" xlink:href="#DejaVuSans-48"/>
      </g>
     </g>
    </g>
    <g id="xtick_33">
     <g id="line2d_98">
      <path clip-path="url(#p859eb85614)" d="M 584.562614 252.424 
L 584.562614 165.0544 
" style="fill:none;stroke:#b0b0b0;stroke-linecap:square;stroke-width:0.8;"/>
     </g>
     <g id="line2d_99">
      <g>
       <use style="stroke:#000000;stroke-width:0.8;" x="584.562614" xlink:href="#m745a5d5636" y="252.424"/>
      </g>
     </g>
     <g id="text_32">
      <!-- 250 -->
      <g transform="translate(575.018864 267.022438)scale(0.1 -0.1)">
       <use xlink:href="#DejaVuSans-50"/>
       <use x="63.623047" xlink:href="#DejaVuSans-53"/>
       <use x="127.246094" xlink:href="#DejaVuSans-48"/>
      </g>
     </g>
    </g>
    <g id="xtick_34">
     <g id="line2d_100">
      <path clip-path="url(#p859eb85614)" d="M 620.377955 252.424 
L 620.377955 165.0544 
" style="fill:none;stroke:#b0b0b0;stroke-linecap:square;stroke-width:0.8;"/>
     </g>
     <g id="line2d_101">
      <g>
       <use style="stroke:#000000;stroke-width:0.8;" x="620.377955" xlink:href="#m745a5d5636" y="252.424"/>
      </g>
     </g>
     <g id="text_33">
      <!-- 300 -->
      <g transform="translate(610.834205 267.022438)scale(0.1 -0.1)">
       <use xlink:href="#DejaVuSans-51"/>
       <use x="63.623047" xlink:href="#DejaVuSans-48"/>
       <use x="127.246094" xlink:href="#DejaVuSans-48"/>
      </g>
     </g>
    </g>
    <g id="xtick_35">
     <g id="line2d_102">
      <path clip-path="url(#p859eb85614)" d="M 656.193295 252.424 
L 656.193295 165.0544 
" style="fill:none;stroke:#b0b0b0;stroke-linecap:square;stroke-width:0.8;"/>
     </g>
     <g id="line2d_103">
      <g>
       <use style="stroke:#000000;stroke-width:0.8;" x="656.193295" xlink:href="#m745a5d5636" y="252.424"/>
      </g>
     </g>
     <g id="text_34">
      <!-- 350 -->
      <g transform="translate(646.649545 267.022438)scale(0.1 -0.1)">
       <use xlink:href="#DejaVuSans-51"/>
       <use x="63.623047" xlink:href="#DejaVuSans-53"/>
       <use x="127.246094" xlink:href="#DejaVuSans-48"/>
      </g>
     </g>
    </g>
    <g id="xtick_36">
     <g id="line2d_104">
      <path clip-path="url(#p859eb85614)" d="M 692.008636 252.424 
L 692.008636 165.0544 
" style="fill:none;stroke:#b0b0b0;stroke-linecap:square;stroke-width:0.8;"/>
     </g>
     <g id="line2d_105">
      <g>
       <use style="stroke:#000000;stroke-width:0.8;" x="692.008636" xlink:href="#m745a5d5636" y="252.424"/>
      </g>
     </g>
     <g id="text_35">
      <!-- 400 -->
      <g transform="translate(682.464886 267.022438)scale(0.1 -0.1)">
       <use xlink:href="#DejaVuSans-52"/>
       <use x="63.623047" xlink:href="#DejaVuSans-48"/>
       <use x="127.246094" xlink:href="#DejaVuSans-48"/>
      </g>
     </g>
    </g>
   </g>
   <g id="matplotlib.axis_8">
    <g id="ytick_10">
     <g id="line2d_106">
      <path clip-path="url(#p859eb85614)" d="M 394.025 248.452655 
L 709.2 248.452655 
" style="fill:none;stroke:#b0b0b0;stroke-linecap:square;stroke-width:0.8;"/>
     </g>
     <g id="line2d_107">
      <g>
       <use style="stroke:#000000;stroke-width:0.8;" x="394.025" xlink:href="#m16a723b99b" y="248.452655"/>
      </g>
     </g>
     <g id="text_36">
      <!-- −1.0 -->
      <g transform="translate(362.742188 252.251873)scale(0.1 -0.1)">
       <use xlink:href="#DejaVuSans-8722"/>
       <use x="83.789062" xlink:href="#DejaVuSans-49"/>
       <use x="147.412109" xlink:href="#DejaVuSans-46"/>
       <use x="179.199219" xlink:href="#DejaVuSans-48"/>
      </g>
     </g>
    </g>
    <g id="ytick_11">
     <g id="line2d_108">
      <path clip-path="url(#p859eb85614)" d="M 394.025 208.7392 
L 709.2 208.7392 
" style="fill:none;stroke:#b0b0b0;stroke-linecap:square;stroke-width:0.8;"/>
     </g>
     <g id="line2d_109">
      <g>
       <use style="stroke:#000000;stroke-width:0.8;" x="394.025" xlink:href="#m16a723b99b" y="208.7392"/>
      </g>
     </g>
     <g id="text_37">
      <!-- −0.5 -->
      <g transform="translate(362.742188 212.538419)scale(0.1 -0.1)">
       <use xlink:href="#DejaVuSans-8722"/>
       <use x="83.789062" xlink:href="#DejaVuSans-48"/>
       <use x="147.412109" xlink:href="#DejaVuSans-46"/>
       <use x="179.199219" xlink:href="#DejaVuSans-53"/>
      </g>
     </g>
    </g>
    <g id="ytick_12">
     <g id="line2d_110">
      <path clip-path="url(#p859eb85614)" d="M 394.025 169.025745 
L 709.2 169.025745 
" style="fill:none;stroke:#b0b0b0;stroke-linecap:square;stroke-width:0.8;"/>
     </g>
     <g id="line2d_111">
      <g>
       <use style="stroke:#000000;stroke-width:0.8;" x="394.025" xlink:href="#m16a723b99b" y="169.025745"/>
      </g>
     </g>
     <g id="text_38">
      <!-- 0.0 -->
      <g transform="translate(371.121875 172.824964)scale(0.1 -0.1)">
       <use xlink:href="#DejaVuSans-48"/>
       <use x="63.623047" xlink:href="#DejaVuSans-46"/>
       <use x="95.410156" xlink:href="#DejaVuSans-48"/>
      </g>
     </g>
    </g>
   </g>
   <g id="line2d_112">
    <path clip-path="url(#p859eb85614)" d="M 408.351136 248.452655 
L 417.663125 248.452655 
L 418.379432 169.025745 
L 424.826193 169.025745 
L 425.5425 169.820015 
L 426.258807 174.585629 
L 427.69142 184.911127 
L 428.407727 187.293935 
L 429.124034 191.26528 
L 429.840341 192.853818 
L 430.556648 196.030895 
L 431.272955 197.619433 
L 432.705568 202.385047 
L 433.421875 203.179316 
L 434.854489 206.356393 
L 435.570795 207.150662 
L 436.287102 208.7392 
L 437.719716 210.327738 
L 438.436023 209.858743 
L 439.868636 208.150877 
L 440.584943 207.450539 
L 441.30125 208.428947 
L 442.017557 207.884563 
L 442.733864 206.611223 
L 443.45017 206.213124 
L 444.882784 204.010032 
L 445.599091 203.795246 
L 446.315398 202.83579 
L 447.031705 202.713953 
L 447.748011 201.849604 
L 448.464318 201.82005 
L 449.180625 200.238163 
L 449.896932 203.453636 
L 450.613239 205.913467 
L 451.329545 194.906217 
L 452.762159 198.38349 
L 453.478466 202.54145 
L 454.194773 192.429934 
L 454.91108 197.437055 
L 455.627386 196.90296 
L 457.06 189.537051 
L 457.776307 201.76534 
L 459.20892 197.681247 
L 459.925227 196.459843 
L 460.641534 199.224091 
L 461.357841 198.824439 
L 462.074148 196.848511 
L 462.790455 195.678484 
L 463.506761 195.313334 
L 464.223068 195.752659 
L 467.804602 194.153259 
L 468.520909 193.860251 
L 469.237216 194.369413 
L 473.535057 192.808351 
L 474.251364 193.368415 
L 478.549205 192.075747 
L 479.265511 192.671405 
L 484.279659 191.395549 
L 485.712273 191.070657 
L 486.42858 191.70793 
L 492.875341 190.424153 
L 493.591648 190.293451 
L 494.307955 190.960175 
L 501.471023 189.800432 
L 504.33625 189.396844 
L 505.052557 190.09492 
L 514.364545 188.96795 
L 519.378693 188.442412 
L 520.095 189.164963 
L 532.272216 188.091639 
L 539.435284 187.570507 
L 540.151591 188.316986 
L 555.910341 187.370271 
L 570.236477 186.673775 
L 570.952784 187.436899 
L 592.441989 186.61049 
L 616.79642 185.900007 
L 621.810568 185.776157 
L 622.526875 186.553166 
L 655.476989 185.868695 
L 694.873864 185.261468 
L 694.873864 185.261468 
" style="fill:none;stroke:#1f77b4;stroke-linecap:square;stroke-width:1.5;"/>
   </g>
   <g id="patch_21">
    <path d="M 394.025 252.424 
L 394.025 165.0544 
" style="fill:none;stroke:#000000;stroke-linecap:square;stroke-linejoin:miter;stroke-width:0.8;"/>
   </g>
   <g id="patch_22">
    <path d="M 709.2 252.424 
L 709.2 165.0544 
" style="fill:none;stroke:#000000;stroke-linecap:square;stroke-linejoin:miter;stroke-width:0.8;"/>
   </g>
   <g id="patch_23">
    <path d="M 394.025 252.424 
L 709.2 252.424 
" style="fill:none;stroke:#000000;stroke-linecap:square;stroke-linejoin:miter;stroke-width:0.8;"/>
   </g>
   <g id="patch_24">
    <path d="M 394.025 165.0544 
L 709.2 165.0544 
" style="fill:none;stroke:#000000;stroke-linecap:square;stroke-linejoin:miter;stroke-width:0.8;"/>
   </g>
   <g id="text_39">
    <!-- Risky Sh. Difference -->
    <g transform="translate(491.142812 159.0544)scale(0.12 -0.12)">
     <use xlink:href="#DejaVuSans-82"/>
     <use x="69.482422" xlink:href="#DejaVuSans-105"/>
     <use x="97.265625" xlink:href="#DejaVuSans-115"/>
     <use x="149.365234" xlink:href="#DejaVuSans-107"/>
     <use x="207.228516" xlink:href="#DejaVuSans-121"/>
     <use x="266.408203" xlink:href="#DejaVuSans-32"/>
     <use x="298.195312" xlink:href="#DejaVuSans-83"/>
     <use x="361.671875" xlink:href="#DejaVuSans-104"/>
     <use x="425.050781" xlink:href="#DejaVuSans-46"/>
     <use x="456.837891" xlink:href="#DejaVuSans-32"/>
     <use x="488.625" xlink:href="#DejaVuSans-68"/>
     <use x="565.626953" xlink:href="#DejaVuSans-105"/>
     <use x="593.410156" xlink:href="#DejaVuSans-102"/>
     <use x="628.615234" xlink:href="#DejaVuSans-102"/>
     <use x="663.820312" xlink:href="#DejaVuSans-101"/>
     <use x="725.34375" xlink:href="#DejaVuSans-114"/>
     <use x="766.425781" xlink:href="#DejaVuSans-101"/>
     <use x="827.949219" xlink:href="#DejaVuSans-110"/>
     <use x="891.328125" xlink:href="#DejaVuSans-99"/>
     <use x="946.308594" xlink:href="#DejaVuSans-101"/>
    </g>
   </g>
   <g id="legend_4">
    <g id="patch_25">
     <path d="M 609.009375 247.424 
L 702.2 247.424 
Q 704.2 247.424 704.2 245.424 
L 704.2 231.745875 
Q 704.2 229.745875 702.2 229.745875 
L 609.009375 229.745875 
Q 607.009375 229.745875 607.009375 231.745875 
L 607.009375 245.424 
Q 607.009375 247.424 609.009375 247.424 
z
" style="fill:#ffffff;opacity:0.8;stroke:#cccccc;stroke-linejoin:miter;"/>
    </g>
    <g id="line2d_113">
     <path d="M 611.009375 237.844313 
L 631.009375 237.844313 
" style="fill:none;stroke:#1f77b4;stroke-linecap:square;stroke-width:1.5;"/>
    </g>
    <g id="line2d_114"/>
    <g id="text_40">
     <!-- CGM - HARK -->
     <g transform="translate(639.009375 241.344313)scale(0.1 -0.1)">
      <use xlink:href="#DejaVuSans-67"/>
      <use x="69.824219" xlink:href="#DejaVuSans-71"/>
      <use x="147.314453" xlink:href="#DejaVuSans-77"/>
      <use x="233.59375" xlink:href="#DejaVuSans-32"/>
      <use x="265.380859" xlink:href="#DejaVuSans-45"/>
      <use x="301.464844" xlink:href="#DejaVuSans-32"/>
      <use x="333.251953" xlink:href="#DejaVuSans-72"/>
      <use x="408.447266" xlink:href="#DejaVuSans-65"/>
      <use x="476.855469" xlink:href="#DejaVuSans-82"/>
      <use x="546.337891" xlink:href="#DejaVuSans-75"/>
     </g>
    </g>
   </g>
  </g>
  <g id="text_41">
   <!-- Year 98 -->
   <defs>
    <path d="M -0.203125 72.90625 
L 10.40625 72.90625 
L 30.609375 42.921875 
L 50.6875 72.90625 
L 61.28125 72.90625 
L 35.5 34.71875 
L 35.5 0 
L 25.59375 0 
L 25.59375 34.71875 
z
" id="DejaVuSans-89"/>
    <path d="M 34.28125 27.484375 
Q 23.390625 27.484375 19.1875 25 
Q 14.984375 22.515625 14.984375 16.5 
Q 14.984375 11.71875 18.140625 8.90625 
Q 21.296875 6.109375 26.703125 6.109375 
Q 34.1875 6.109375 38.703125 11.40625 
Q 43.21875 16.703125 43.21875 25.484375 
L 43.21875 27.484375 
z
M 52.203125 31.203125 
L 52.203125 0 
L 43.21875 0 
L 43.21875 8.296875 
Q 40.140625 3.328125 35.546875 0.953125 
Q 30.953125 -1.421875 24.3125 -1.421875 
Q 15.921875 -1.421875 10.953125 3.296875 
Q 6 8.015625 6 15.921875 
Q 6 25.140625 12.171875 29.828125 
Q 18.359375 34.515625 30.609375 34.515625 
L 43.21875 34.515625 
L 43.21875 35.40625 
Q 43.21875 41.609375 39.140625 45 
Q 35.0625 48.390625 27.6875 48.390625 
Q 23 48.390625 18.546875 47.265625 
Q 14.109375 46.140625 10.015625 43.890625 
L 10.015625 52.203125 
Q 14.9375 54.109375 19.578125 55.046875 
Q 24.21875 56 28.609375 56 
Q 40.484375 56 46.34375 49.84375 
Q 52.203125 43.703125 52.203125 31.203125 
z
" id="DejaVuSans-97"/>
    <path d="M 10.984375 1.515625 
L 10.984375 10.5 
Q 14.703125 8.734375 18.5 7.8125 
Q 22.3125 6.890625 25.984375 6.890625 
Q 35.75 6.890625 40.890625 13.453125 
Q 46.046875 20.015625 46.78125 33.40625 
Q 43.953125 29.203125 39.59375 26.953125 
Q 35.25 24.703125 29.984375 24.703125 
Q 19.046875 24.703125 12.671875 31.3125 
Q 6.296875 37.9375 6.296875 49.421875 
Q 6.296875 60.640625 12.9375 67.421875 
Q 19.578125 74.21875 30.609375 74.21875 
Q 43.265625 74.21875 49.921875 64.515625 
Q 56.59375 54.828125 56.59375 36.375 
Q 56.59375 19.140625 48.40625 8.859375 
Q 40.234375 -1.421875 26.421875 -1.421875 
Q 22.703125 -1.421875 18.890625 -0.6875 
Q 15.09375 0.046875 10.984375 1.515625 
z
M 30.609375 32.421875 
Q 37.25 32.421875 41.125 36.953125 
Q 45.015625 41.5 45.015625 49.421875 
Q 45.015625 57.28125 41.125 61.84375 
Q 37.25 66.40625 30.609375 66.40625 
Q 23.96875 66.40625 20.09375 61.84375 
Q 16.21875 57.28125 16.21875 49.421875 
Q 16.21875 41.5 20.09375 36.953125 
Q 23.96875 32.421875 30.609375 32.421875 
z
" id="DejaVuSans-57"/>
    <path d="M 31.78125 34.625 
Q 24.75 34.625 20.71875 30.859375 
Q 16.703125 27.09375 16.703125 20.515625 
Q 16.703125 13.921875 20.71875 10.15625 
Q 24.75 6.390625 31.78125 6.390625 
Q 38.8125 6.390625 42.859375 10.171875 
Q 46.921875 13.96875 46.921875 20.515625 
Q 46.921875 27.09375 42.890625 30.859375 
Q 38.875 34.625 31.78125 34.625 
z
M 21.921875 38.8125 
Q 15.578125 40.375 12.03125 44.71875 
Q 8.5 49.078125 8.5 55.328125 
Q 8.5 64.0625 14.71875 69.140625 
Q 20.953125 74.21875 31.78125 74.21875 
Q 42.671875 74.21875 48.875 69.140625 
Q 55.078125 64.0625 55.078125 55.328125 
Q 55.078125 49.078125 51.53125 44.71875 
Q 48 40.375 41.703125 38.8125 
Q 48.828125 37.15625 52.796875 32.3125 
Q 56.78125 27.484375 56.78125 20.515625 
Q 56.78125 9.90625 50.3125 4.234375 
Q 43.84375 -1.421875 31.78125 -1.421875 
Q 19.734375 -1.421875 13.25 4.234375 
Q 6.78125 9.90625 6.78125 20.515625 
Q 6.78125 27.484375 10.78125 32.3125 
Q 14.796875 37.15625 21.921875 38.8125 
z
M 18.3125 54.390625 
Q 18.3125 48.734375 21.84375 45.5625 
Q 25.390625 42.390625 31.78125 42.390625 
Q 38.140625 42.390625 41.71875 45.5625 
Q 45.3125 48.734375 45.3125 54.390625 
Q 45.3125 60.0625 41.71875 63.234375 
Q 38.140625 66.40625 31.78125 66.40625 
Q 25.390625 66.40625 21.84375 63.234375 
Q 18.3125 60.0625 18.3125 54.390625 
z
" id="DejaVuSans-56"/>
   </defs>
   <g transform="translate(336.970312 14.878125)scale(0.12 -0.12)">
    <use xlink:href="#DejaVuSans-89"/>
    <use x="60.880859" xlink:href="#DejaVuSans-101"/>
    <use x="122.404297" xlink:href="#DejaVuSans-97"/>
    <use x="183.683594" xlink:href="#DejaVuSans-114"/>
    <use x="224.796875" xlink:href="#DejaVuSans-32"/>
    <use x="256.583984" xlink:href="#DejaVuSans-57"/>
    <use x="320.207031" xlink:href="#DejaVuSans-56"/>
   </g>
  </g>
 </g>
 <defs>
  <clipPath id="peb96138296">
   <rect height="87.3696" width="315.175" x="36.8" y="34"/>
  </clipPath>
  <clipPath id="p771f669efe">
   <rect height="87.3696" width="315.175" x="394.025" y="34"/>
  </clipPath>
  <clipPath id="pa640969953">
   <rect height="87.3696" width="315.175" x="36.8" y="165.0544"/>
  </clipPath>
  <clipPath id="p859eb85614">
   <rect height="87.3696" width="315.175" x="394.025" y="165.0544"/>
  </clipPath>
 </defs>
</svg>
