<?xml version="1.0" encoding="utf-8" standalone="no"?>
<!DOCTYPE svg PUBLIC "-//W3C//DTD SVG 1.1//EN"
  "http://www.w3.org/Graphics/SVG/1.1/DTD/svg11.dtd">
<!-- Created with matplotlib (https://matplotlib.org/) -->
<svg height="576pt" version="1.1" viewBox="0 0 864 576" width="864pt" xmlns="http://www.w3.org/2000/svg" xmlns:xlink="http://www.w3.org/1999/xlink">
 <defs>
  <style type="text/css">
*{stroke-linecap:butt;stroke-linejoin:round;white-space:pre;}
  </style>
 </defs>
 <g id="figure_1">
  <g id="patch_1">
   <path d="M 0 576 
L 864 576 
L 864 0 
L 0 0 
z
" style="fill:#ffffff;"/>
  </g>
  <g id="axes_1">
   <g id="patch_2">
    <path d="M 108 512.64 
L 777.6 512.64 
L 777.6 69.12 
L 108 69.12 
z
" style="fill:#ffffff;"/>
   </g>
   <g id="patch_3">
    <path clip-path="url(#p01ac458574)" d="M 160.2288 428.260148 
L 162.262757 426.526621 
L 162.23653 428.457139 
L 173.621335 429.797943 
L 173.620265 429.876739 
L 162.23546 428.535936 
L 162.209232 430.466454 
z
" style="stroke:#000000;stroke-linejoin:miter;"/>
   </g>
   <g id="patch_4">
    <path clip-path="url(#p01ac458574)" d="M 152.1936 198.778493 
L 154.29471 198.00521 
L 154.166017 199.899753 
L 165.588226 206.625796 
L 165.582974 206.703125 
L 154.160764 199.977081 
L 154.032071 201.871624 
z
" style="stroke:#000000;stroke-linejoin:miter;"/>
   </g>
   <g id="patch_5">
    <path clip-path="url(#p01ac458574)" d="M 326.2896 181.429365 
L 328.336257 179.830647 
L 328.295323 181.758946 
L 347.717635 185.332995 
L 347.715965 185.411701 
L 328.293653 181.837652 
L 328.25272 183.765952 
z
" style="stroke:#000000;stroke-linejoin:miter;"/>
   </g>
   <g id="patch_6">
    <path clip-path="url(#p01ac458574)" d="M 256.6512 114.398641 
L 258.66 112.427149 
L 258.66 114.359211 
L 267.3648 114.359211 
L 267.3648 114.438071 
L 258.66 114.438071 
L 258.66 116.370133 
z
" style="stroke:#000000;stroke-linejoin:miter;"/>
   </g>
   <g id="patch_7">
    <path clip-path="url(#p01ac458574)" d="M 496.368 465.324195 
L 494.26689 466.097478 
L 494.395583 464.202935 
L 482.973374 457.476892 
L 482.978626 457.399563 
L 494.400836 464.125607 
L 494.529529 462.231064 
z
" style="stroke:#000000;stroke-linejoin:miter;"/>
   </g>
   <g id="matplotlib.axis_1">
    <g id="xtick_1">
     <g id="line2d_1">
      <defs>
       <path d="M 0 0 
L 0 3.5 
" id="m583f4d31d2" style="stroke:#000000;stroke-width:0.8;"/>
      </defs>
      <g>
       <use style="stroke:#000000;stroke-width:0.8;" x="108" xlink:href="#m583f4d31d2" y="512.64"/>
      </g>
     </g>
     <g id="line2d_2">
      <defs>
       <path d="M 0 0 
L 0 -3.5 
" id="m8a6132d317" style="stroke:#000000;stroke-width:0.8;"/>
      </defs>
      <g>
       <use style="stroke:#000000;stroke-width:0.8;" x="108" xlink:href="#m8a6132d317" y="69.12"/>
      </g>
     </g>
    </g>
    <g id="xtick_2">
     <g id="line2d_3">
      <g>
       <use style="stroke:#000000;stroke-width:0.8;" x="241.92" xlink:href="#m583f4d31d2" y="512.64"/>
      </g>
     </g>
     <g id="line2d_4">
      <g>
       <use style="stroke:#000000;stroke-width:0.8;" x="241.92" xlink:href="#m8a6132d317" y="69.12"/>
      </g>
     </g>
    </g>
    <g id="xtick_3">
     <g id="line2d_5">
      <g>
       <use style="stroke:#000000;stroke-width:0.8;" x="375.84" xlink:href="#m583f4d31d2" y="512.64"/>
      </g>
     </g>
     <g id="line2d_6">
      <g>
       <use style="stroke:#000000;stroke-width:0.8;" x="375.84" xlink:href="#m8a6132d317" y="69.12"/>
      </g>
     </g>
    </g>
    <g id="xtick_4">
     <g id="line2d_7">
      <g>
       <use style="stroke:#000000;stroke-width:0.8;" x="509.76" xlink:href="#m583f4d31d2" y="512.64"/>
      </g>
     </g>
     <g id="line2d_8">
      <g>
       <use style="stroke:#000000;stroke-width:0.8;" x="509.76" xlink:href="#m8a6132d317" y="69.12"/>
      </g>
     </g>
    </g>
    <g id="xtick_5">
     <g id="line2d_9">
      <g>
       <use style="stroke:#000000;stroke-width:0.8;" x="643.68" xlink:href="#m583f4d31d2" y="512.64"/>
      </g>
     </g>
     <g id="line2d_10">
      <g>
       <use style="stroke:#000000;stroke-width:0.8;" x="643.68" xlink:href="#m8a6132d317" y="69.12"/>
      </g>
     </g>
    </g>
    <g id="xtick_6">
     <g id="line2d_11">
      <g>
       <use style="stroke:#000000;stroke-width:0.8;" x="777.6" xlink:href="#m583f4d31d2" y="512.64"/>
      </g>
     </g>
     <g id="line2d_12">
      <g>
       <use style="stroke:#000000;stroke-width:0.8;" x="777.6" xlink:href="#m8a6132d317" y="69.12"/>
      </g>
     </g>
    </g>
   </g>
   <g id="matplotlib.axis_2">
    <g id="ytick_1">
     <g id="line2d_13">
      <defs>
       <path d="M 0 0 
L -3.5 0 
" id="ma2d38b1716" style="stroke:#000000;stroke-width:0.8;"/>
      </defs>
      <g>
       <use style="stroke:#000000;stroke-width:0.8;" x="108" xlink:href="#ma2d38b1716" y="512.64"/>
      </g>
     </g>
     <g id="line2d_14">
      <defs>
       <path d="M 0 0 
L 3.5 0 
" id="m4bed02e38f" style="stroke:#000000;stroke-width:0.8;"/>
      </defs>
      <g>
       <use style="stroke:#000000;stroke-width:0.8;" x="777.6" xlink:href="#m4bed02e38f" y="512.64"/>
      </g>
     </g>
    </g>
    <g id="ytick_2">
     <g id="line2d_15">
      <g>
       <use style="stroke:#000000;stroke-width:0.8;" x="108" xlink:href="#ma2d38b1716" y="433.780325"/>
      </g>
     </g>
     <g id="line2d_16">
      <g>
       <use style="stroke:#000000;stroke-width:0.8;" x="777.6" xlink:href="#m4bed02e38f" y="433.780325"/>
      </g>
     </g>
    </g>
    <g id="ytick_3">
     <g id="line2d_17">
      <g>
       <use style="stroke:#000000;stroke-width:0.8;" x="108" xlink:href="#ma2d38b1716" y="354.92065"/>
      </g>
     </g>
     <g id="line2d_18">
      <g>
       <use style="stroke:#000000;stroke-width:0.8;" x="777.6" xlink:href="#m4bed02e38f" y="354.92065"/>
      </g>
     </g>
    </g>
    <g id="ytick_4">
     <g id="line2d_19">
      <g>
       <use style="stroke:#000000;stroke-width:0.8;" x="108" xlink:href="#ma2d38b1716" y="276.060975"/>
      </g>
     </g>
     <g id="line2d_20">
      <g>
       <use style="stroke:#000000;stroke-width:0.8;" x="777.6" xlink:href="#m4bed02e38f" y="276.060975"/>
      </g>
     </g>
    </g>
    <g id="ytick_5">
     <g id="line2d_21">
      <g>
       <use style="stroke:#000000;stroke-width:0.8;" x="108" xlink:href="#ma2d38b1716" y="197.2013"/>
      </g>
     </g>
     <g id="line2d_22">
      <g>
       <use style="stroke:#000000;stroke-width:0.8;" x="777.6" xlink:href="#m4bed02e38f" y="197.2013"/>
      </g>
     </g>
    </g>
    <g id="ytick_6">
     <g id="line2d_23">
      <g>
       <use style="stroke:#000000;stroke-width:0.8;" x="108" xlink:href="#ma2d38b1716" y="118.341624"/>
      </g>
     </g>
     <g id="line2d_24">
      <g>
       <use style="stroke:#000000;stroke-width:0.8;" x="777.6" xlink:href="#m4bed02e38f" y="118.341624"/>
      </g>
     </g>
    </g>
   </g>
   <g id="line2d_25">
    <path clip-path="url(#p01ac458574)" d="M 108 512.64 
L 120.064865 479.829109 
L 125.427027 465.878583 
L 128.778378 457.711868 
L 131.459459 451.740428 
L 133.47027 447.738461 
L 135.481081 444.232589 
L 137.491892 441.236998 
L 139.502703 438.697793 
L 141.513514 436.52835 
L 143.524324 434.644892 
L 146.205405 432.466001 
L 148.886486 430.567457 
L 152.237838 428.479525 
L 156.259459 426.277625 
L 160.951351 424.012521 
L 165.643243 421.99131 
L 171.675676 419.658553 
L 178.378378 417.32138 
L 186.421622 414.767354 
L 195.805405 412.033682 
L 206.52973 409.142951 
L 219.264865 405.94554 
L 234.010811 402.477765 
L 251.437838 398.619353 
L 271.545946 394.407815 
L 294.335135 389.868816 
L 320.475676 384.894662 
L 350.637838 379.391076 
L 384.821622 373.388709 
L 423.027027 366.909302 
L 466.594595 359.750971 
L 515.524324 351.941682 
L 570.486486 343.398391 
L 632.821622 333.937722 
L 707.891892 322.777961 
L 777.6 312.530711 
L 777.6 312.530711 
" style="fill:none;stroke:#000000;stroke-linecap:square;stroke-width:1.5;"/>
   </g>
   <g id="line2d_26">
    <path clip-path="url(#p01ac458574)" d="M 108 512.64 
L 777.6 435.29625 
L 777.6 435.29625 
" style="fill:none;stroke:#000000;stroke-linecap:square;stroke-width:2.5;"/>
   </g>
   <g id="line2d_27">
    <path clip-path="url(#p01ac458574)" d="M 108 512.64 
L 229.219643 179.981985 
L 229.219643 179.981985 
" style="fill:none;stroke:#000000;stroke-linecap:square;stroke-width:2.5;"/>
   </g>
   <g id="line2d_28">
    <path clip-path="url(#p01ac458574)" d="M 229.219643 179.981985 
L 777.6 116.64 
L 777.6 116.64 
" style="fill:none;stroke:#000000;stroke-linecap:square;stroke-width:2.5;"/>
   </g>
   <g id="line2d_29">
    <path clip-path="url(#p01ac458574)" d="M 229.219643 179.981985 
L 295.168968 -1 
L 295.168968 -1 
" style="fill:none;stroke:#000000;stroke-dasharray:5.55,2.4;stroke-dashoffset:0;stroke-width:1.5;"/>
   </g>
   <g id="line2d_30">
    <path clip-path="url(#p01ac458574)" d="M 108 193.98375 
L 229.219643 179.981985 
L 229.219643 179.981985 
" style="fill:none;stroke:#000000;stroke-dasharray:5.55,2.4;stroke-dashoffset:0;stroke-width:1.5;"/>
   </g>
   <g id="patch_8">
    <path d="M 108 512.64 
L 108 69.12 
" style="fill:none;stroke:#000000;stroke-linecap:square;stroke-linejoin:miter;stroke-width:0.8;"/>
   </g>
   <g id="patch_9">
    <path d="M 777.6 512.64 
L 777.6 69.12 
" style="fill:none;stroke:#000000;stroke-linecap:square;stroke-linejoin:miter;stroke-width:0.8;"/>
   </g>
   <g id="patch_10">
    <path d="M 108 512.64 
L 777.6 512.64 
" style="fill:none;stroke:#000000;stroke-linecap:square;stroke-linejoin:miter;stroke-width:0.8;"/>
   </g>
   <g id="patch_11">
    <path d="M 108 69.12 
L 777.6 69.12 
" style="fill:none;stroke:#000000;stroke-linecap:square;stroke-linejoin:miter;stroke-width:0.8;"/>
   </g>
   <g id="text_1">
    <!-- $c$ -->
    <defs>
     <path d="M 39.09375 38 
C 37.203125 38 36.296875 38 34.90625 36.796875 
C 34.296875 36.296875 33.203125 34.796875 33.203125 33.1875 
C 33.203125 31.1875 34.703125 29.984375 36.59375 29.984375 
C 39 29.984375 41.703125 31.984375 41.703125 35.984375 
C 41.703125 40.484375 37.09375 44 30.203125 44 
C 17.09375 44 4 30.1875 4 15.796875 
C 4 6.96875 9.40625 -1 19.59375 -1 
C 33.203125 -1 41.796875 9.71875 41.796875 11.03125 
C 41.796875 11.640625 41.203125 12.140625 40.796875 12.140625 
C 40.5 12.140625 40.40625 12.046875 39.5 11.125 
C 33.09375 2.515625 23.59375 1 19.796875 1 
C 12.90625 1 10.703125 7.078125 10.703125 12.140625 
C 10.703125 15.6875 12.40625 25.53125 16 32.390625 
C 18.59375 37.09375 24 41.984375 30.296875 41.984375 
C 31.59375 41.984375 37.09375 41.8125 39.09375 38 
z
" id="CMMI12-99"/>
    </defs>
    <g transform="translate(108 65.177016)scale(0.22 -0.22)">
     <use transform="scale(0.996264)" xlink:href="#CMMI12-99"/>
    </g>
   </g>
   <g id="text_2">
    <!-- $m$ -->
    <defs>
     <path d="M 20.59375 29.21875 
C 20.796875 29.828125 23.296875 34.8125 27 38 
C 29.59375 40.390625 33 41.984375 36.90625 41.984375 
C 40.90625 41.984375 42.296875 39 42.296875 35.015625 
C 42.296875 34.40625 42.296875 32.421875 41.09375 27.734375 
L 38.59375 17.453125 
C 37.796875 14.453125 35.90625 7.078125 35.703125 5.984375 
C 35.296875 4.484375 34.703125 1.890625 34.703125 1.484375 
C 34.703125 0.09375 35.796875 -1 37.296875 -1 
C 40.296875 -1 40.796875 1.296875 41.703125 4.890625 
L 47.703125 28.71875 
C 47.90625 29.53125 53.09375 41.984375 64.09375 41.984375 
C 68.09375 41.984375 69.5 39 69.5 35.015625 
C 69.5 29.421875 65.59375 18.546875 63.40625 12.5625 
C 62.5 10.171875 62 8.875 62 7.078125 
C 62 2.59375 65.09375 -1 69.90625 -1 
C 79.203125 -1 82.703125 13.65625 82.703125 14.265625 
C 82.703125 14.765625 82.296875 15.15625 81.703125 15.15625 
C 80.796875 15.15625 80.703125 14.859375 80.203125 13.15625 
C 77.90625 5.1875 74.203125 1 70.203125 1 
C 69.203125 1 67.59375 1.09375 67.59375 4.28125 
C 67.59375 6.875 68.796875 10.078125 69.203125 11.171875 
C 71 15.953125 75.5 27.734375 75.5 33.515625 
C 75.5 39.5 72 44 64.40625 44 
C 57.703125 44 52.296875 40.203125 48.296875 34.3125 
C 48 39.703125 44.703125 44 37.203125 44 
C 28.296875 44 23.59375 37.703125 21.796875 35.203125 
C 21.5 40.890625 17.40625 44 13 44 
C 10.09375 44 7.796875 42.59375 5.90625 38.796875 
C 4.09375 35.203125 2.703125 29.125 2.703125 28.71875 
C 2.703125 28.328125 3.09375 27.828125 3.796875 27.828125 
C 4.59375 27.828125 4.703125 27.921875 5.296875 30.21875 
C 6.796875 36.109375 8.703125 41.984375 12.703125 41.984375 
C 15 41.984375 15.796875 40.390625 15.796875 37.40625 
C 15.796875 35.203125 14.796875 31.3125 14.09375 28.234375 
L 11.296875 17.453125 
C 10.90625 15.5625 9.796875 11.0625 9.296875 9.265625 
C 8.59375 6.671875 7.5 1.984375 7.5 1.484375 
C 7.5 0.09375 8.59375 -1 10.09375 -1 
C 11.296875 -1 12.703125 -0.40625 13.5 1.09375 
C 13.703125 1.59375 14.59375 5.078125 15.09375 7.078125 
L 17.296875 16.0625 
z
" id="CMMI12-109"/>
    </defs>
    <g transform="translate(780.2784 512.64)scale(0.22 -0.22)">
     <use transform="scale(0.996264)" xlink:href="#CMMI12-109"/>
    </g>
   </g>
   <g id="text_3">
    <!-- $c(m)$ -->
    <defs>
     <path d="M 30.59375 -24.40625 
C 30.59375 -24.3125 30.59375 -24.109375 30.296875 -23.8125 
C 25.703125 -19.109375 13.40625 -6.296875 13.40625 24.9375 
C 13.40625 56.171875 25.5 68.875 30.40625 73.890625 
C 30.40625 73.984375 30.59375 74.1875 30.59375 74.484375 
C 30.59375 74.796875 30.296875 75 29.90625 75 
C 28.796875 75 20.296875 67.578125 15.40625 56.5625 
C 10.40625 45.453125 9 34.65625 9 25.046875 
C 9 17.828125 9.703125 5.625 15.703125 -7.296875 
C 20.5 -17.703125 28.703125 -25 29.90625 -25 
C 30.40625 -25 30.59375 -24.8125 30.59375 -24.40625 
z
" id="CMR17-40"/>
     <path d="M 26.296875 24.9375 
C 26.296875 32.140625 25.59375 44.359375 19.59375 57.265625 
C 14.796875 67.6875 6.59375 75 5.40625 75 
C 5.09375 75 4.703125 74.890625 4.703125 74.390625 
C 4.703125 74.1875 4.796875 74.09375 4.90625 73.890625 
C 9.703125 68.875 21.90625 56.171875 21.90625 25.046875 
C 21.90625 -6.1875 9.796875 -18.90625 4.90625 -23.90625 
C 4.796875 -24.109375 4.703125 -24.203125 4.703125 -24.40625 
C 4.703125 -24.90625 5.09375 -25 5.40625 -25 
C 6.5 -25 15 -17.609375 19.90625 -6.59375 
C 24.90625 4.515625 26.296875 15.328125 26.296875 24.9375 
z
" id="CMR17-41"/>
    </defs>
    <g transform="translate(174.96 433.780325)scale(0.22 -0.22)">
     <use transform="scale(0.996264)" xlink:href="#CMMI12-99"/>
     <use transform="translate(41.983234 0)scale(0.996264)" xlink:href="#CMR17-40"/>
     <use transform="translate(77.264001 0)scale(0.996264)" xlink:href="#CMMI12-109"/>
     <use transform="translate(162.591226 0)scale(0.996264)" xlink:href="#CMR17-41"/>
    </g>
   </g>
   <g id="text_4">
    <!-- $\overline{\overline{c}}(m)= \overline{\kappa}m = (1-\wp^{1/\rho}\pmb{\text{\TH}}_{R})m$ -->
    <defs>
     <path d="M 64.296875 32 
C 65.796875 32 67.296875 32 67.296875 33.6875 
C 67.296875 35.5 65.59375 35.5 63.90625 35.5 
L 8 35.5 
C 6.296875 35.5 4.59375 35.5 4.59375 33.6875 
C 4.59375 32 6.09375 32 7.59375 32 
z
M 63.90625 14.484375 
C 65.59375 14.484375 67.296875 14.484375 67.296875 16.296875 
C 67.296875 18 65.796875 18 64.296875 18 
L 7.59375 18 
C 6.09375 18 4.59375 18 4.59375 16.296875 
C 4.59375 14.484375 6.296875 14.484375 8 14.484375 
z
" id="CMR17-61"/>
     <path d="M 21.296875 24.921875 
C 24.59375 26.71875 28.296875 29.8125 30.796875 31.90625 
C 36.796875 37.09375 39 38.6875 42.796875 40.1875 
C 42.40625 39.59375 42.296875 38.796875 42.296875 38.09375 
C 42.296875 35.390625 44.59375 34.890625 45.59375 34.890625 
C 48.796875 34.890625 50.59375 37.890625 50.59375 39.796875 
C 50.59375 40.390625 50.40625 43 46.90625 43 
C 40.90625 43 35 37.890625 30.59375 34.1875 
C 24.796875 29.109375 21.90625 26.921875 17.796875 25.625 
L 21.59375 41.484375 
C 21.59375 43.09375 20.296875 44 19 44 
C 18.09375 44 15.90625 43.6875 15.09375 40.484375 
L 5.796875 3.484375 
C 5.5 2.28125 5.5 2.09375 5.5 1.484375 
C 5.5 0.09375 6.59375 -1 8.09375 -1 
C 11.09375 -1 11.703125 1.59375 12.203125 3.6875 
C 12.796875 5.765625 16.90625 22.390625 17.09375 23 
C 29.796875 22.390625 34.09375 19.203125 34.09375 14.328125 
C 34.09375 13.640625 34.09375 13.34375 33.796875 12.234375 
C 33.40625 10.34375 33.40625 9.25 33.40625 8.65625 
C 33.40625 2.6875 37.296875 -1 42.203125 -1 
C 46.296875 -1 48.59375 1.890625 50.09375 4.46875 
C 52.203125 8.359375 53.5 13.828125 53.5 14.234375 
C 53.5 14.734375 53.09375 15.125 52.5 15.125 
C 51.59375 15.125 51.5 14.734375 51.09375 13.140625 
C 49.796875 8.359375 47.59375 1 42.5 1 
C 40.296875 1 39.203125 2.28125 39.203125 5.765625 
C 39.203125 7.65625 39.59375 9.859375 40 11.34375 
C 40.203125 12.34375 40.5 13.53125 40.5 14.625 
C 40.5 23.71875 27.90625 24.625 21.296875 24.921875 
z
" id="CMMI12-20"/>
     <path d="M 26.59375 63.796875 
C 26.59375 65.890625 26.5 66 25.09375 66 
C 21.203125 61.359375 15.296875 59.890625 9.703125 59.6875 
C 9.40625 59.6875 8.90625 59.6875 8.796875 59.5 
C 8.703125 59.296875 8.703125 59.09375 8.703125 57 
C 11.796875 57 17 57.59375 21 59.984375 
L 21 7.296875 
C 21 3.796875 20.796875 2.59375 12.203125 2.59375 
L 9.203125 2.59375 
L 9.203125 0 
C 14 0.09375 19 0.1875 23.796875 0.1875 
C 28.59375 0.1875 33.59375 0.09375 38.40625 0 
L 38.40625 2.59375 
L 35.40625 2.59375 
C 26.796875 2.59375 26.59375 3.6875 26.59375 7.296875 
z
" id="CMR17-49"/>
     <path d="M 65.90625 23 
C 67.59375 23 69.40625 23 69.40625 25 
C 69.40625 27 67.59375 27 65.90625 27 
L 11.796875 27 
C 10.09375 27 8.296875 27 8.296875 25 
C 8.296875 23 10.09375 23 11.796875 23 
z
" id="CMSY10-0"/>
     <path d="M 16.40625 12.125 
C 22.59375 26.359375 34.296875 38.984375 47.59375 38.984375 
C 52.59375 38.984375 54.796875 34.78125 54.796875 29.265625 
C 54.796875 24.953125 52.796875 15.625 49.59375 9.8125 
C 47.09375 5.296875 42.703125 1 38 1 
C 36 1 31.40625 1.890625 31.40625 7.40625 
C 32.796875 7.703125 33.40625 8.71875 33.40625 9.609375 
C 33.40625 10.71875 32.59375 11.3125 31.703125 11.3125 
C 29.203125 11.3125 29.203125 8.21875 29.203125 7.203125 
C 29.203125 1.6875 33.5 -1 38 -1 
C 49 -1 60.5 12.515625 60.5 26.15625 
C 60.5 33.671875 56.296875 41 47.796875 41 
C 41.703125 41 34.90625 38.6875 27.90625 32.171875 
C 24.09375 28.765625 19.90625 23.859375 14.90625 14.125 
C 12.5 16.828125 12.5 20.046875 12.5 21.453125 
C 12.5 28.96875 17.296875 41.78125 24.203125 42.984375 
C 24.796875 43.09375 25.40625 43.1875 25.40625 44.1875 
C 25.40625 44.296875 25.40625 45 24.296875 45 
C 17.203125 45 8.203125 31.46875 8.203125 18.640625 
C 8.203125 13.421875 9.296875 11.921875 12.40625 7.8125 
C 8.90625 -2.234375 7.5 -10.96875 7.5 -14.15625 
C 7.5 -18.359375 9.09375 -22 13.796875 -22 
C 20.40625 -22 26.796875 -13.234375 26.796875 -5.328125 
C 26.796875 -1.625 25.90625 -0.40625 22.5 4.203125 
C 21.09375 5.90625 17.703125 10.3125 16.40625 12.125 
z
M 13.90625 5.703125 
L 21.203125 -3.875 
C 22.296875 -5.53125 22.40625 -6.765625 22.40625 -8.203125 
C 22.40625 -14.15625 18 -20 13.796875 -20 
C 11 -20 9.703125 -17.953125 9.703125 -14.046875 
C 9.703125 -9.328125 12.5 1.6875 13.90625 5.703125 
z
" id="CMMI12-125"/>
     <path d="M 42.90625 71.296875 
C 42.90625 71.390625 43.5 72.890625 43.5 73.09375 
C 43.5 74.296875 42.5 75 41.703125 75 
C 41.203125 75 40.296875 75 39.5 72.796875 
L 6 -21.3125 
C 6 -21.40625 5.40625 -22.90625 5.40625 -23.109375 
C 5.40625 -24.3125 6.40625 -25 7.203125 -25 
C 7.796875 -25 8.703125 -24.90625 9.40625 -22.8125 
z
" id="CMMI12-61"/>
     <path d="M 3.09375 -16.953125 
C 3 -17.4375 2.796875 -18.03125 2.796875 -18.609375 
C 2.796875 -20.109375 4 -21.109375 5.5 -21.109375 
C 7 -21.109375 8.40625 -20.109375 9 -18.71875 
C 9.40625 -17.828125 12.203125 -6.09375 15.40625 6.078125 
C 17.40625 1.09375 21.09375 -1 25 -1 
C 36.296875 -1 49.09375 12.96875 49.09375 28.03125 
C 49.09375 38.703125 42.59375 44 35.703125 44 
C 26.90625 44 16.203125 34.90625 12.90625 21.640625 
z
M 24.90625 1 
C 18.09375 1 16.40625 8.875 16.40625 10.078125 
C 16.40625 10.671875 18.90625 20.140625 19.203125 21.640625 
C 24.296875 41.5 34.09375 41.984375 35.59375 41.984375 
C 40.09375 41.984375 42.59375 37.90625 42.59375 32.015625 
C 42.59375 26.9375 39.90625 17.046875 38.203125 12.859375 
C 35.203125 5.984375 30 1 24.90625 1 
z
" id="CMMI12-26"/>
     <path d="M 7.40625 68 
L 7.40625 65.796875 
L 9.09375 65.796875 
C 11.703125 65.796875 13.796875 65.5 13.796875 61.734375 
L 13.796875 6.390625 
C 13.796875 2.5 12.09375 2.1875 7.40625 2.1875 
L 7.40625 0 
L 24.90625 0 
L 24.90625 2.1875 
L 22.90625 2.1875 
C 20.59375 2.1875 18.5 2.5 18.5 5.6875 
L 18.5 17.796875 
L 34 17.796875 
C 43.703125 18.6875 50.796875 26.90625 50.796875 36.34375 
C 50.796875 44.875 44.703125 53.296875 35.40625 54.6875 
C 33.796875 55 32.203125 55 30.59375 55 
L 18.5 55 
L 18.5 61.9375 
C 18.5 64.640625 18.90625 65.796875 24.90625 65.796875 
L 24.90625 68 
z
M 18.5 20 
L 18.5 52.796875 
L 27.90625 52.796875 
C 32.703125 52.796875 37.40625 52.390625 41 48.078125 
C 43.796875 44.875 45.296875 40.5625 45.296875 36.34375 
C 45.296875 29.21875 40.40625 21.09375 31.296875 20 
z
" id="Computer_Modern_Roman-222"/>
     <path d="M 36.796875 61.203125 
C 37.703125 64.890625 38.09375 65.09375 42 65.09375 
L 49.203125 65.09375 
C 57.796875 65.09375 64.203125 62.5 64.203125 54.734375 
C 64.203125 49.640625 61.59375 35 41.5 35 
L 30.203125 35 
z
M 50.703125 33.796875 
C 63.09375 36.484375 72.796875 44.46875 72.796875 53.03125 
C 72.796875 60.8125 64.90625 68 51 68 
L 23.90625 68 
C 21.90625 68 21 68 21 66.09375 
C 21 65.09375 21.703125 65.09375 23.59375 65.09375 
C 29.59375 65.09375 29.59375 64.296875 29.59375 63.203125 
C 29.59375 63 29.59375 62.40625 29.203125 60.90625 
L 15.703125 7.421875 
C 14.796875 3.953125 14.59375 2.96875 7.703125 2.96875 
C 5.40625 2.96875 4.703125 2.96875 4.703125 1.078125 
C 4.703125 0.09375 5.796875 0.09375 6.09375 0.09375 
C 7.90625 0.09375 10 0.296875 11.90625 0.296875 
L 23.703125 0.296875 
C 25.5 0.296875 27.59375 0.09375 29.40625 0.09375 
C 30.203125 0.09375 31.296875 0.09375 31.296875 1.96875 
C 31.296875 2.96875 30.40625 2.96875 28.90625 2.96875 
C 22.796875 2.96875 22.796875 3.765625 22.796875 4.75 
C 22.796875 4.84375 22.796875 5.546875 23 6.328125 
L 29.703125 33 
L 41.703125 33 
C 51.203125 33 53 27.046875 53 23.78125 
C 53 22.28125 52 18.421875 51.296875 15.84375 
C 50.203125 11.296875 49.90625 10.203125 49.90625 8.3125 
C 49.90625 1.28125 55.703125 -2 62.40625 -2 
C 70.5 -2 74 7.828125 74 9.203125 
C 74 9.90625 73.5 10.203125 72.90625 10.203125 
C 72.09375 10.203125 71.90625 9.609375 71.703125 8.8125 
C 69.296875 1.78125 65.203125 0 62.703125 0 
C 60.203125 0 58.59375 1.078125 58.59375 5.546875 
C 58.59375 7.921875 59.796875 16.9375 59.90625 17.4375 
C 60.40625 21.09375 60.40625 21.5 60.40625 22.28125 
C 60.40625 29.515625 54.5 32.59375 50.703125 33.796875 
z
" id="CMMI12-82"/>
    </defs>
    <g transform="translate(268.704 118.341624)scale(0.22 -0.22)">
     <use transform="translate(0 14.943915)scale(0.996264)" xlink:href="#CMMI12-99"/>
     <use transform="translate(41.983234 14.943915)scale(0.996264)" xlink:href="#CMR17-40"/>
     <use transform="translate(77.264001 14.943915)scale(0.996264)" xlink:href="#CMMI12-109"/>
     <use transform="translate(162.591226 14.943915)scale(0.996264)" xlink:href="#CMR17-41"/>
     <use transform="translate(225.546002 14.943915)scale(0.996264)" xlink:href="#CMR17-61"/>
     <use transform="translate(324.9348 14.943915)scale(0.996264)" xlink:href="#CMMI12-20"/>
     <use transform="translate(381.089424 14.943915)scale(0.996264)" xlink:href="#CMMI12-109"/>
     <use transform="translate(494.090657 14.943915)scale(0.996264)" xlink:href="#CMR17-61"/>
     <use transform="translate(593.479454 14.943915)scale(0.996264)" xlink:href="#CMR17-40"/>
     <use transform="translate(628.760222 14.943915)scale(0.996264)" xlink:href="#CMR17-49"/>
     <use transform="translate(696.589906 14.943915)scale(0.996264)" xlink:href="#CMSY10-0"/>
     <use transform="translate(796.21658 14.943915)scale(0.996264)" xlink:href="#CMMI12-125"/>
     <use transform="translate(858.321076 51.097553)scale(0.697382)" xlink:href="#CMR17-49"/>
     <use transform="translate(890.304258 51.097553)scale(0.697382)" xlink:href="#CMMI12-61"/>
     <use transform="translate(924.446549 51.097553)scale(0.697382)" xlink:href="#CMMI12-26"/>
     <use transform="translate(955.736742 14.943915)scale(0.356961)" xlink:href="#Computer_Modern_Roman-222"/>
     <use transform="translate(957.950623 17.711308)scale(0.356961)" xlink:href="#Computer_Modern_Roman-222"/>
     <use transform="translate(960.164505 14.943915)scale(0.356961)" xlink:href="#Computer_Modern_Roman-222"/>
     <use transform="translate(980.125281 0)scale(0.697382)" xlink:href="#CMMI12-82"/>
     <use transform="translate(1033.172843 14.943915)scale(0.996264)" xlink:href="#CMR17-41"/>
     <use transform="translate(1068.453611 14.943915)scale(0.996264)" xlink:href="#CMMI12-109"/>
     <path d="M 0 89.718274 
L 41.983234 89.718274 
L 41.983234 93.703224 
L 0 93.703224 
L 0 89.718274 
z
"/>
     <path d="M 0 69.793526 
L 41.983234 69.793526 
L 41.983234 73.778476 
L 0 73.778476 
L 0 69.793526 
z
"/>
     <path d="M 324.9348 69.793526 
L 381.089424 69.793526 
L 381.089424 73.778476 
L 324.9348 73.778476 
L 324.9348 69.793526 
z
"/>
    </g>
   </g>
   <g id="text_5">
    <!-- $\overline{c}(m) = (m-1+h)\underline{\kappa}$ -->
    <defs>
     <path d="M 37.703125 23 
L 64.203125 23 
C 65.59375 23 67.296875 23 67.296875 24.6875 
C 67.296875 26.5 65.703125 26.5 64.203125 26.5 
L 37.703125 26.5 
L 37.703125 52.890625 
C 37.703125 54.296875 37.703125 56 36 56 
C 34.203125 56 34.203125 54.390625 34.203125 52.890625 
L 34.203125 26.5 
L 7.703125 26.5 
C 6.296875 26.5 4.59375 26.5 4.59375 24.796875 
C 4.59375 23 6.203125 23 7.703125 23 
L 34.203125 23 
L 34.203125 -3.03125 
C 34.203125 -4.40625 34.203125 -6.109375 35.90625 -6.109375 
C 37.703125 -6.109375 37.703125 -4.515625 37.703125 -3.03125 
z
" id="CMR17-43"/>
     <path d="M 28.09375 66.484375 
C 28.203125 66.890625 28.40625 67.484375 28.40625 67.984375 
C 28.40625 69 27.40625 69 27.203125 69 
C 27.09375 69 22.203125 68.59375 21.703125 68.484375 
C 20 68.390625 18.5 68.1875 16.703125 68.09375 
C 14.203125 67.890625 13.5 67.796875 13.5 65.984375 
C 13.5 64.984375 14.296875 64.984375 15.703125 64.984375 
C 20.59375 64.984375 20.703125 64.109375 20.703125 63.125 
C 20.703125 62.53125 20.5 61.734375 20.40625 61.4375 
L 5.90625 3.890625 
C 5.5 2.390625 5.5 2.1875 5.5 1.59375 
C 5.5 -0.609375 7.203125 -1 8.203125 -1 
C 9.90625 -1 11.203125 0.296875 11.703125 1.390625 
L 16.203125 19.453125 
C 16.703125 21.640625 17.296875 23.734375 17.796875 25.9375 
C 18.90625 30.125 18.90625 30.21875 20.796875 33.109375 
C 22.703125 36.015625 27.203125 41.984375 34.90625 41.984375 
C 38.90625 41.984375 40.296875 39 40.296875 35.015625 
C 40.296875 29.421875 36.40625 18.546875 34.203125 12.5625 
C 33.296875 10.171875 32.796875 8.875 32.796875 7.078125 
C 32.796875 2.59375 35.90625 -1 40.703125 -1 
C 50 -1 53.5 13.65625 53.5 14.265625 
C 53.5 14.765625 53.09375 15.15625 52.5 15.15625 
C 51.59375 15.15625 51.5 14.859375 51 13.15625 
C 48.703125 5.1875 45 1 41 1 
C 40 1 38.40625 1.09375 38.40625 4.28125 
C 38.40625 6.875 39.59375 10.078125 40 11.171875 
C 41.796875 15.953125 46.296875 27.734375 46.296875 33.515625 
C 46.296875 39.5 42.796875 44 35.203125 44 
C 29.5 44 24.5 41.296875 20.40625 36.109375 
z
" id="CMMI12-104"/>
    </defs>
    <g transform="translate(166.9248 212.973235)scale(0.22 -0.22)">
     <use transform="translate(0 15.939799)scale(0.996264)" xlink:href="#CMMI12-99"/>
     <use transform="translate(41.983234 15.939799)scale(0.996264)" xlink:href="#CMR17-40"/>
     <use transform="translate(77.264001 15.939799)scale(0.996264)" xlink:href="#CMMI12-109"/>
     <use transform="translate(162.591226 15.939799)scale(0.996264)" xlink:href="#CMR17-41"/>
     <use transform="translate(225.546002 15.939799)scale(0.996264)" xlink:href="#CMR17-61"/>
     <use transform="translate(324.9348 15.939799)scale(0.996264)" xlink:href="#CMR17-40"/>
     <use transform="translate(360.215567 15.939799)scale(0.996264)" xlink:href="#CMMI12-109"/>
     <use transform="translate(467.681999 15.939799)scale(0.996264)" xlink:href="#CMSY10-0"/>
     <use transform="translate(567.308673 15.939799)scale(0.996264)" xlink:href="#CMR17-49"/>
     <use transform="translate(635.138358 15.939799)scale(0.996264)" xlink:href="#CMR17-43"/>
     <use transform="translate(728.992353 15.939799)scale(0.996264)" xlink:href="#CMMI12-104"/>
     <use transform="translate(785.146977 15.939799)scale(0.996264)" xlink:href="#CMR17-41"/>
     <use transform="translate(820.427745 15.939799)scale(0.996264)" xlink:href="#CMMI12-20"/>
     <path d="M 0 70.78941 
L 41.983234 70.78941 
L 41.983234 74.77436 
L 0 74.77436 
L 0 70.78941 
z
"/>
     <path d="M 820.427745 0 
L 876.582369 0 
L 876.582369 3.98495 
L 820.427745 3.98495 
L 820.427745 0 
z
"/>
    </g>
   </g>
   <g id="text_6">
    <!-- Upper Bound $ = $ Min $[\overline{\overline{c}}(m),\overline{c}(m)]$ -->
    <defs>
     <path d="M 7.296875 68 
L 7.296875 65.796875 
L 9.296875 65.796875 
C 11.59375 65.796875 13.703125 65.484375 13.703125 62.21875 
L 13.703125 23.453125 
C 13.703125 12.625 19.90625 -1 34.796875 -1 
C 46.5 -1 52.796875 11.625 53.40625 21.359375 
L 53.40625 59.03125 
C 53.40625 64.203125 56.203125 65.796875 59.796875 65.796875 
L 59.796875 68 
L 45.59375 68 
L 45.59375 65.796875 
C 49.09375 65.796875 52 64.203125 52 59.125 
L 52 25.734375 
C 52 18.6875 51.09375 11.328125 45.703125 5.96875 
C 42.703125 2.984375 38.5 1.1875 34.296875 1.1875 
C 27.296875 1.1875 21.703125 6.75 19.90625 13.21875 
C 18.703125 17.1875 18.59375 21.265625 18.59375 25.34375 
L 18.59375 62.109375 
C 18.59375 65.09375 19.703125 65.796875 25 65.796875 
L 25 68 
z
" id="Computer_Modern_Roman-85"/>
     <path d="M 4.5 42.890625 
L 4.5 40.703125 
L 5.796875 40.703125 
C 9 40.703125 10.40625 39.40625 10.40625 36.3125 
L 10.40625 -11.3125 
C 10.40625 -12.015625 10.5 -12.71875 10.5 -13.40625 
C 10.5 -16.609375 8 -16.8125 5.40625 -16.8125 
L 4.5 -16.8125 
L 4.5 -19 
L 20.40625 -19 
L 20.40625 -16.8125 
L 19 -16.8125 
C 16.703125 -16.8125 14.5 -16.515625 14.5 -13.3125 
L 14.59375 7.65625 
C 16.703125 2.46875 22.796875 -0.140625 27 -0.140625 
C 38.09375 -0.140625 45.5 11.046875 45.5 22.03125 
C 45.5 31.8125 39.59375 44 28.09375 44 
C 22.703125 44 16.40625 40.59375 14.5 35.90625 
L 14.40625 44 
z
M 40.296875 20.125 
C 39.796875 12.4375 35.59375 1.0625 26.703125 1.0625 
C 21.40625 1.0625 14.40625 5.75 14.40625 11.953125 
C 14.40625 12.546875 14.5 13.140625 14.5 13.75 
L 14.5 28.515625 
C 14.5 29.515625 14.40625 30.515625 14.40625 31.515625 
C 14.40625 37.109375 21.203125 42.703125 27.09375 42.703125 
C 36.703125 42.703125 40.40625 29.71875 40.40625 21.921875 
C 40.40625 21.328125 40.40625 20.734375 40.296875 20.125 
z
" id="Computer_Modern_Roman-112"/>
     <path d="M 8.796875 23.671875 
L 35.09375 23.671875 
C 35.296875 23.671875 35.703125 23.5625 36.09375 23.5625 
C 36.796875 23.5625 37.09375 23.96875 37.09375 24.578125 
C 37.09375 33.578125 32.796875 44 21.59375 44 
C 9.59375 44 3.703125 31.546875 3.703125 21.640625 
C 3.703125 11.734375 9.203125 0.515625 21.09375 -1 
C 21.5 -0.90625 21.90625 -1 22.296875 -1 
C 29.203125 -1 34.5 3.828125 36.796875 10.390625 
C 36.90625 10.703125 37 11.09375 37 11.40625 
C 37 11.703125 36.90625 12 36.5 12 
C 35.5 12 35.40625 10.390625 35.09375 9.484375 
C 33.09375 4.640625 28.796875 0.40625 23.203125 0.40625 
C 19 0.40625 15 2.828125 12.703125 6.25 
C 9 11.296875 8.796875 17.765625 8.796875 23.703125 
z
M 8.90625 24.921875 
C 9.09375 32.796875 13 42.78125 21.40625 42.78125 
C 28.40625 42.78125 31.40625 35.3125 32.203125 29.46875 
C 32.296875 27.953125 32.296875 26.4375 32.5 24.921875 
z
" id="Computer_Modern_Roman-101"/>
     <path d="M 4.5 42.875 
L 4.5 40.65625 
L 5.5 40.65625 
C 8.703125 40.65625 10.40625 39.953125 10.40625 35.515625 
L 10.40625 5.625 
C 10.40625 2.390625 8 2.1875 4.5 2.1875 
L 4.5 0 
L 21.703125 0 
L 21.703125 2.1875 
L 19.703125 2.1875 
C 16.796875 2.1875 14.40625 2.5 14.40625 6.328125 
L 14.40625 21.078125 
C 14.40625 29.65625 16.203125 42.78125 25.90625 42.78125 
C 27 42.78125 28.09375 42.484375 29.09375 42.078125 
C 27.90625 41.5625 26.90625 40.765625 26.90625 39.34375 
C 26.90625 37.9375 28 36.515625 29.703125 36.515625 
C 31.203125 36.515625 32.40625 37.828125 32.40625 39.34375 
C 32.40625 42.6875 28.703125 44 26 44 
C 19.90625 44 15.296875 38.03125 14.40625 32.484375 
L 14.296875 44 
z
" id="Computer_Modern_Roman-114"/>
     <path d="M 7.40625 68 
L 7.40625 65.796875 
L 9.09375 65.796875 
C 11.703125 65.796875 13.796875 65.5 13.796875 61.609375 
L 13.796875 6.375 
C 13.796875 2.484375 12.09375 2.1875 7.40625 2.1875 
L 7.40625 0 
L 32.296875 0 
C 34 0.09375 35.59375 0 37.296875 0 
C 46.796875 0 58.40625 5.75 58.40625 17.984375 
C 58.40625 27.625 49.5 35.46875 39.90625 35.46875 
C 46.5 37.234375 55.90625 40.3125 55.90625 51.15625 
C 55.90625 60.8125 46.703125 67.390625 37.296875 68 
z
M 18.5 34.734375 
L 35.703125 34.734375 
C 38.59375 34.734375 41.5 34.546875 44.09375 33.046875 
C 49.5 30.15625 52.796875 24.28125 52.796875 18.3125 
C 52.796875 8.65625 44.59375 2.09375 34.796875 2.09375 
C 33.296875 2.09375 31.703125 2.1875 30.203125 2.1875 
L 21.203125 2.1875 
C 19.296875 2.1875 18.5 3.28125 18.5 5.078125 
z
M 18.5 35.9375 
L 18.5 62.515625 
C 18.5 64.296875 18.90625 65.796875 21.203125 65.796875 
L 29.796875 65.796875 
C 31.296875 65.796875 32.796875 65.890625 34.40625 65.890625 
C 41.59375 65.890625 50.5 61.71875 50.5 51.265625 
C 50.5 43.59375 44 37.421875 36.59375 36.234375 
C 35 35.9375 33.296875 35.9375 31.703125 35.9375 
z
" id="Computer_Modern_Roman-66"/>
     <path d="M 21.09375 44 
C 9.59375 42.578125 3.703125 31.75 3.703125 21.234375 
C 3.703125 10.515625 10.703125 -1 22.5 -1 
L 23.5 -1 
C 35 0.40625 41 11.125 41 21.34375 
C 41 31.578125 34.09375 44 22.5 44 
C 22 44.09375 21.59375 44 21.09375 44 
z
M 8.796875 19.625 
L 8.796875 21.234375 
C 8.796875 28.828125 9.703125 37.3125 17.40625 41.5625 
C 18.703125 42.171875 20.203125 42.671875 21.703125 42.78125 
L 22.40625 42.78125 
C 32.09375 42.78125 35.90625 31.34375 35.90625 23.15625 
C 35.90625 15.171875 35.09375 3.75 25.09375 0.71875 
C 24.203125 0.515625 23.296875 0.3125 22.40625 0.3125 
C 15 0.3125 10.203125 7.796875 9.296875 14.96875 
C 9 16.484375 9 18.109375 8.796875 19.625 
z
" id="Computer_Modern_Roman-111"/>
     <path d="M 4.703125 42.875 
L 4.703125 40.625 
L 5.59375 40.625 
C 8.90625 40.625 10.703125 40.125 10.703125 34.109375 
C 10.703125 32.796875 10.59375 31.46875 10.59375 30.140625 
L 10.59375 13.859375 
C 10.59375 6.53125 11.90625 -1 22.796875 -1 
C 29 -1 33.90625 3.375 35.40625 9.171875 
L 35.5 -1 
L 45.40625 -0.390625 
L 45.40625 1.84375 
L 44.40625 1.84375 
C 41.796875 1.84375 39.5 2.140625 39.5 6.421875 
L 39.5 44 
L 29.5 42.875 
L 29.5 40.625 
L 30.59375 40.625 
C 34 40.625 35.40625 39.515625 35.40625 35.34375 
L 35.40625 16.609375 
C 35.40625 9.171875 31.90625 0.21875 23.296875 0.21875 
C 20.59375 0.21875 17.703125 1.125 16.09375 3.46875 
C 14.796875 5.296875 14.703125 7.84375 14.703125 10.1875 
L 14.703125 44 
z
" id="Computer_Modern_Roman-117"/>
     <path d="M 4.703125 42.875 
L 4.703125 40.65625 
L 5.703125 40.65625 
C 8.90625 40.65625 10.59375 39.953125 10.59375 35.515625 
L 10.59375 5.625 
C 10.59375 2.390625 8.203125 2.1875 4.703125 2.1875 
L 4.703125 0 
L 20.59375 0 
L 20.59375 2.1875 
L 19.203125 2.1875 
C 16.90625 2.1875 14.703125 2.5 14.703125 5.625 
L 14.703125 27.734375 
C 15.296875 34.609375 18.796875 42.78125 26.703125 42.78125 
C 33 42.78125 35.40625 37.734375 35.40625 30.46875 
L 35.40625 5.625 
C 35.40625 2.390625 33 2.1875 29.5 2.1875 
L 29.5 0 
L 45.40625 0 
L 45.40625 2.1875 
L 43.796875 2.1875 
C 41.5 2.1875 39.5 2.5 39.5 6.03125 
L 39.5 29.453125 
C 39.5 35.921875 38.296875 44 27.5 44 
C 22.09375 44 18.40625 41.0625 16 36.71875 
C 15.40625 35.609375 14.796875 34.40625 14.59375 33.1875 
L 14.5 44 
z
" id="Computer_Modern_Roman-110"/>
     <path d="M 29.40625 68.875 
L 29.40625 66.640625 
L 30.5 66.640625 
C 33.59375 66.640625 35.296875 65.734375 35.296875 61.875 
L 35.203125 36.015625 
C 33.296875 40.671875 27.59375 43.828125 22.796875 43.828125 
C 11.09375 43.828125 4.203125 31.859375 4.203125 21.203125 
C 4.203125 11.15625 10.203125 -0.296875 20.90625 -1 
L 21.796875 -1 
C 27.203125 -1 33.09375 2.34375 35.09375 7.3125 
L 35.203125 -1 
L 45.203125 -0.40625 
L 45.203125 1.828125 
L 44 1.828125 
C 40.703125 1.828125 39.296875 3.046875 39.296875 6.59375 
L 39.296875 70 
z
M 9.296875 18.96875 
L 9.296875 20.5 
C 9.296875 27.5 10.296875 35.8125 16.5 40.265625 
C 18.59375 41.796875 21 42.609375 23.40625 42.609375 
C 29.09375 42.609375 35.296875 37.125 35.296875 31.25 
C 35.296875 30.125 35.203125 28.90625 35.203125 27.796875 
L 35.203125 11.46875 
C 35.203125 5.984375 28.296875 0.203125 22.5 0.203125 
C 14.796875 0.203125 10.59375 8.125 9.703125 14.8125 
C 9.5 16.234375 9.5 17.546875 9.296875 18.96875 
z
" id="Computer_Modern_Roman-100"/>
     <path d="M 7.40625 68 
L 7.40625 65.796875 
L 9.09375 65.796875 
C 11.5 65.796875 13.90625 65.5 13.90625 62.109375 
C 13.90625 61.3125 13.796875 60.515625 13.796875 59.828125 
L 13.796875 12.4375 
C 13.796875 11.453125 13.90625 10.453125 13.90625 9.359375 
C 13.90625 6.171875 13 2.1875 7.40625 2.1875 
L 7.40625 0 
L 21.59375 0 
L 21.59375 2.1875 
C 15.703125 2.1875 15.203125 6.265625 15.203125 9.75 
L 15.296875 65.890625 
C 15.703125 63.796875 16.703125 61.71875 17.40625 59.71875 
C 24.40625 41.109375 30.703125 22.296875 37.40625 3.578125 
C 37.796875 2.390625 38.40625 0 39.296875 0 
C 40.5 0 43.59375 10.359375 45.40625 15.4375 
C 51.296875 31.453125 56.90625 47.78125 62.703125 64 
C 62.90625 64.703125 63.296875 65.390625 63.40625 66.1875 
L 63.5 5.671875 
C 63.5 2.984375 62.40625 2.1875 57.09375 2.1875 
L 57.09375 0 
L 74.59375 0 
L 74.59375 2.1875 
L 72.90625 2.1875 
C 70.296875 2.1875 68.203125 2.484375 68.203125 6.375 
L 68.203125 59.328125 
C 68.203125 60.015625 68.09375 60.8125 68.09375 61.609375 
C 68.09375 65.59375 70.40625 65.796875 74.59375 65.796875 
L 74.59375 68 
L 64 68 
L 63 67.796875 
L 61.203125 63.3125 
L 41 6.578125 
L 20.796875 63.3125 
L 19 67.796875 
L 18 68 
z
" id="Computer_Modern_Roman-77"/>
     <path d="M 5.09375 42.6875 
L 5.09375 40.46875 
L 5.59375 40.46875 
C 8.796875 40.46875 10.59375 39.96875 10.59375 35.15625 
L 10.59375 5.609375 
C 10.59375 2.390625 8.296875 2.1875 4.796875 2.1875 
L 4.796875 0 
L 19.90625 0 
L 19.90625 2.1875 
L 18.59375 2.1875 
C 16.5 2.1875 14.59375 2.390625 14.59375 5.8125 
L 14.59375 43.796875 
z
M 10.90625 65 
C 9.296875 65 8.296875 63.1875 8.296875 61.875 
C 8.296875 60.375 9.5 58.5625 11.40625 58.5625 
C 13.40625 58.5625 14.59375 60.265625 14.59375 61.78125 
C 14.59375 63.1875 13.40625 65 11.5 65 
C 11.296875 65.09375 11.09375 65 10.90625 65 
z
" id="Computer_Modern_Roman-105"/>
     <path d="M 23.5 -25 
L 23.5 -21.5 
L 14.09375 -21.5 
L 14.09375 71.484375 
L 23.5 71.484375 
L 23.5 75 
L 10.59375 75 
L 10.59375 -25 
z
" id="CMR17-91"/>
     <path d="M 19.5 -0.40625 
C 19.5 5.390625 17.59375 9.6875 13.5 9.6875 
C 10.296875 9.6875 8.703125 7.09375 8.703125 4.890625 
C 8.703125 2.6875 10.203125 0 13.59375 0 
C 14.90625 0 16 0.390625 16.90625 1.296875 
C 17.09375 1.5 17.203125 1.5 17.296875 1.5 
C 17.5 1.5 17.5 0.09375 17.5 -0.40625 
C 17.5 -3.640625 16.90625 -10.03125 11.09375 -16.421875 
C 10 -17.609375 10 -17.8125 10 -18 
C 10 -18.5 10.5 -19 11 -19 
C 11.796875 -19 19.5 -11.703125 19.5 -0.40625 
z
" id="CMMI12-59"/>
     <path d="M 14.296875 75 
L 1.40625 75 
L 1.40625 71.484375 
L 10.796875 71.484375 
L 10.796875 -21.5 
L 1.40625 -21.5 
L 1.40625 -25 
L 14.296875 -25 
z
" id="CMR17-93"/>
    </defs>
    <g transform="translate(349.056 189.315332)scale(0.22 -0.22)">
     <use transform="scale(0.356961)" xlink:href="#Computer_Modern_Roman-85"/>
     <use transform="translate(23.949131 0)scale(0.356961)" xlink:href="#Computer_Modern_Roman-112"/>
     <use transform="translate(41.698747 0)scale(0.356961)" xlink:href="#Computer_Modern_Roman-112"/>
     <use transform="translate(60.336938 0)scale(0.356961)" xlink:href="#Computer_Modern_Roman-101"/>
     <use transform="translate(74.532211 0)scale(0.356961)" xlink:href="#Computer_Modern_Roman-114"/>
     <use transform="translate(97.591186 0)scale(0.356961)" xlink:href="#Computer_Modern_Roman-66"/>
     <use transform="translate(120.217732 0)scale(0.356961)" xlink:href="#Computer_Modern_Roman-111"/>
     <use transform="translate(136.190184 0)scale(0.356961)" xlink:href="#Computer_Modern_Roman-117"/>
     <use transform="translate(153.9398 0)scale(0.356961)" xlink:href="#Computer_Modern_Roman-110"/>
     <use transform="translate(171.689417 0)scale(0.356961)" xlink:href="#Computer_Modern_Roman-100"/>
     <use transform="translate(200.079931 0)scale(0.996264)" xlink:href="#CMR17-61"/>
     <use transform="translate(282.435617 0)scale(0.356961)" xlink:href="#Computer_Modern_Roman-77"/>
     <use transform="translate(311.716272 0)scale(0.356961)" xlink:href="#Computer_Modern_Roman-105"/>
     <use transform="translate(320.580006 0)scale(0.356961)" xlink:href="#Computer_Modern_Roman-110"/>
     <use transform="translate(348.97052 0)scale(0.996264)" xlink:href="#CMR17-91"/>
     <use transform="translate(373.841579 0)scale(0.996264)" xlink:href="#CMMI12-99"/>
     <use transform="translate(415.824812 0)scale(0.996264)" xlink:href="#CMR17-40"/>
     <use transform="translate(451.10558 0)scale(0.996264)" xlink:href="#CMMI12-109"/>
     <use transform="translate(536.432804 0)scale(0.996264)" xlink:href="#CMR17-41"/>
     <use transform="translate(571.713572 0)scale(0.996264)" xlink:href="#CMMI12-59"/>
     <use transform="translate(615.415155 0)scale(0.996264)" xlink:href="#CMMI12-99"/>
     <use transform="translate(657.398388 0)scale(0.996264)" xlink:href="#CMR17-40"/>
     <use transform="translate(692.679156 0)scale(0.996264)" xlink:href="#CMMI12-109"/>
     <use transform="translate(778.00638 0)scale(0.996264)" xlink:href="#CMR17-41"/>
     <use transform="translate(813.287148 0)scale(0.996264)" xlink:href="#CMR17-93"/>
     <path d="M 373.841579 74.77436 
L 415.824812 74.77436 
L 415.824812 78.75931 
L 373.841579 78.75931 
L 373.841579 74.77436 
z
"/>
     <path d="M 373.841579 54.849612 
L 415.824812 54.849612 
L 415.824812 58.834561 
L 373.841579 58.834561 
L 373.841579 54.849612 
z
"/>
     <path d="M 615.415155 54.849612 
L 657.398388 54.849612 
L 657.398388 58.834561 
L 615.415155 58.834561 
L 615.415155 54.849612 
z
"/>
    </g>
   </g>
   <g id="text_7">
    <!-- $\underline{c}(m)= (1-\pmb{\text{\TH}}_{R})\underline{\kappa}m$ -->
    <g transform="translate(295.488 457.438227)scale(0.22 -0.22)">
     <use transform="translate(0 15.939799)scale(0.996264)" xlink:href="#CMMI12-99"/>
     <use transform="translate(41.983234 15.939799)scale(0.996264)" xlink:href="#CMR17-40"/>
     <use transform="translate(77.264001 15.939799)scale(0.996264)" xlink:href="#CMMI12-109"/>
     <use transform="translate(162.591226 15.939799)scale(0.996264)" xlink:href="#CMR17-41"/>
     <use transform="translate(225.546002 15.939799)scale(0.996264)" xlink:href="#CMR17-61"/>
     <use transform="translate(324.9348 15.939799)scale(0.996264)" xlink:href="#CMR17-40"/>
     <use transform="translate(360.215567 15.939799)scale(0.996264)" xlink:href="#CMR17-49"/>
     <use transform="translate(428.045251 15.939799)scale(0.996264)" xlink:href="#CMSY10-0"/>
     <use transform="translate(523.244073 15.939799)scale(0.356961)" xlink:href="#Computer_Modern_Roman-222"/>
     <use transform="translate(525.457954 18.707192)scale(0.356961)" xlink:href="#Computer_Modern_Roman-222"/>
     <use transform="translate(527.671835 15.939799)scale(0.356961)" xlink:href="#Computer_Modern_Roman-222"/>
     <use transform="translate(547.632611 0.995884)scale(0.697382)" xlink:href="#CMMI12-82"/>
     <use transform="translate(600.680173 15.939799)scale(0.996264)" xlink:href="#CMR17-41"/>
     <use transform="translate(635.960941 15.939799)scale(0.996264)" xlink:href="#CMMI12-20"/>
     <use transform="translate(692.115565 15.939799)scale(0.996264)" xlink:href="#CMMI12-109"/>
     <path d="M 0 0 
L 41.983234 0 
L 41.983234 3.98495 
L 0 3.98495 
L 0 0 
z
"/>
     <path d="M 635.960941 0 
L 692.115565 0 
L 692.115565 3.98495 
L 635.960941 3.98495 
L 635.960941 0 
z
"/>
    </g>
   </g>
  </g>
 </g>
 <defs>
  <clipPath id="p01ac458574">
   <rect height="443.52" width="669.6" x="108" y="69.12"/>
  </clipPath>
 </defs>
</svg>
