<?xml version="1.0" encoding="utf-8" standalone="no"?>
<!DOCTYPE svg PUBLIC "-//W3C//DTD SVG 1.1//EN"
  "http://www.w3.org/Graphics/SVG/1.1/DTD/svg11.dtd">
<!-- Created with matplotlib (https://matplotlib.org/) -->
<svg height="345.6pt" version="1.1" viewBox="0 0 460.8 345.6" width="460.8pt" xmlns="http://www.w3.org/2000/svg" xmlns:xlink="http://www.w3.org/1999/xlink">
 <defs>
  <style type="text/css">
*{stroke-linecap:butt;stroke-linejoin:round;}
  </style>
 </defs>
 <g id="figure_1">
  <g id="patch_1">
   <path d="M 0 345.6 
L 460.8 345.6 
L 460.8 0 
L 0 0 
z
" style="fill:#ffffff;"/>
  </g>
  <g id="axes_1">
   <g id="patch_2">
    <path d="M 57.6 307.584 
L 414.72 307.584 
L 414.72 41.472 
L 57.6 41.472 
z
" style="fill:#ffffff;"/>
   </g>
   <g id="matplotlib.axis_1">
    <g id="xtick_1">
     <g id="line2d_1">
      <path clip-path="url(#p5f47cc6dec)" d="M 73.832727 307.584 
L 73.832727 41.472 
" style="fill:none;stroke:#b0b0b0;stroke-linecap:square;stroke-width:0.8;"/>
     </g>
     <g id="line2d_2">
      <defs>
       <path d="M 0 0 
L 0 3.5 
" id="m27d7371b03" style="stroke:#000000;stroke-width:0.8;"/>
      </defs>
      <g>
       <use style="stroke:#000000;stroke-width:0.8;" x="73.832727" xlink:href="#m27d7371b03" y="307.584"/>
      </g>
     </g>
     <g id="text_1">
      <!-- 0 -->
      <defs>
       <path d="M 31.78125 66.40625 
Q 24.171875 66.40625 20.328125 58.90625 
Q 16.5 51.421875 16.5 36.375 
Q 16.5 21.390625 20.328125 13.890625 
Q 24.171875 6.390625 31.78125 6.390625 
Q 39.453125 6.390625 43.28125 13.890625 
Q 47.125 21.390625 47.125 36.375 
Q 47.125 51.421875 43.28125 58.90625 
Q 39.453125 66.40625 31.78125 66.40625 
z
M 31.78125 74.21875 
Q 44.046875 74.21875 50.515625 64.515625 
Q 56.984375 54.828125 56.984375 36.375 
Q 56.984375 17.96875 50.515625 8.265625 
Q 44.046875 -1.421875 31.78125 -1.421875 
Q 19.53125 -1.421875 13.0625 8.265625 
Q 6.59375 17.96875 6.59375 36.375 
Q 6.59375 54.828125 13.0625 64.515625 
Q 19.53125 74.21875 31.78125 74.21875 
z
" id="DejaVuSans-48"/>
      </defs>
      <g transform="translate(70.651477 322.182437)scale(0.1 -0.1)">
       <use xlink:href="#DejaVuSans-48"/>
      </g>
     </g>
    </g>
    <g id="xtick_2">
     <g id="line2d_3">
      <path clip-path="url(#p5f47cc6dec)" d="M 127.941818 307.584 
L 127.941818 41.472 
" style="fill:none;stroke:#b0b0b0;stroke-linecap:square;stroke-width:0.8;"/>
     </g>
     <g id="line2d_4">
      <g>
       <use style="stroke:#000000;stroke-width:0.8;" x="127.941818" xlink:href="#m27d7371b03" y="307.584"/>
      </g>
     </g>
     <g id="text_2">
      <!-- 50 -->
      <defs>
       <path d="M 10.796875 72.90625 
L 49.515625 72.90625 
L 49.515625 64.59375 
L 19.828125 64.59375 
L 19.828125 46.734375 
Q 21.96875 47.46875 24.109375 47.828125 
Q 26.265625 48.1875 28.421875 48.1875 
Q 40.625 48.1875 47.75 41.5 
Q 54.890625 34.8125 54.890625 23.390625 
Q 54.890625 11.625 47.5625 5.09375 
Q 40.234375 -1.421875 26.90625 -1.421875 
Q 22.3125 -1.421875 17.546875 -0.640625 
Q 12.796875 0.140625 7.71875 1.703125 
L 7.71875 11.625 
Q 12.109375 9.234375 16.796875 8.0625 
Q 21.484375 6.890625 26.703125 6.890625 
Q 35.15625 6.890625 40.078125 11.328125 
Q 45.015625 15.765625 45.015625 23.390625 
Q 45.015625 31 40.078125 35.4375 
Q 35.15625 39.890625 26.703125 39.890625 
Q 22.75 39.890625 18.8125 39.015625 
Q 14.890625 38.140625 10.796875 36.28125 
z
" id="DejaVuSans-53"/>
      </defs>
      <g transform="translate(121.579318 322.182437)scale(0.1 -0.1)">
       <use xlink:href="#DejaVuSans-53"/>
       <use x="63.623047" xlink:href="#DejaVuSans-48"/>
      </g>
     </g>
    </g>
    <g id="xtick_3">
     <g id="line2d_5">
      <path clip-path="url(#p5f47cc6dec)" d="M 182.050909 307.584 
L 182.050909 41.472 
" style="fill:none;stroke:#b0b0b0;stroke-linecap:square;stroke-width:0.8;"/>
     </g>
     <g id="line2d_6">
      <g>
       <use style="stroke:#000000;stroke-width:0.8;" x="182.050909" xlink:href="#m27d7371b03" y="307.584"/>
      </g>
     </g>
     <g id="text_3">
      <!-- 100 -->
      <defs>
       <path d="M 12.40625 8.296875 
L 28.515625 8.296875 
L 28.515625 63.921875 
L 10.984375 60.40625 
L 10.984375 69.390625 
L 28.421875 72.90625 
L 38.28125 72.90625 
L 38.28125 8.296875 
L 54.390625 8.296875 
L 54.390625 0 
L 12.40625 0 
z
" id="DejaVuSans-49"/>
      </defs>
      <g transform="translate(172.507159 322.182437)scale(0.1 -0.1)">
       <use xlink:href="#DejaVuSans-49"/>
       <use x="63.623047" xlink:href="#DejaVuSans-48"/>
       <use x="127.246094" xlink:href="#DejaVuSans-48"/>
      </g>
     </g>
    </g>
    <g id="xtick_4">
     <g id="line2d_7">
      <path clip-path="url(#p5f47cc6dec)" d="M 236.16 307.584 
L 236.16 41.472 
" style="fill:none;stroke:#b0b0b0;stroke-linecap:square;stroke-width:0.8;"/>
     </g>
     <g id="line2d_8">
      <g>
       <use style="stroke:#000000;stroke-width:0.8;" x="236.16" xlink:href="#m27d7371b03" y="307.584"/>
      </g>
     </g>
     <g id="text_4">
      <!-- 150 -->
      <g transform="translate(226.61625 322.182437)scale(0.1 -0.1)">
       <use xlink:href="#DejaVuSans-49"/>
       <use x="63.623047" xlink:href="#DejaVuSans-53"/>
       <use x="127.246094" xlink:href="#DejaVuSans-48"/>
      </g>
     </g>
    </g>
    <g id="xtick_5">
     <g id="line2d_9">
      <path clip-path="url(#p5f47cc6dec)" d="M 290.269091 307.584 
L 290.269091 41.472 
" style="fill:none;stroke:#b0b0b0;stroke-linecap:square;stroke-width:0.8;"/>
     </g>
     <g id="line2d_10">
      <g>
       <use style="stroke:#000000;stroke-width:0.8;" x="290.269091" xlink:href="#m27d7371b03" y="307.584"/>
      </g>
     </g>
     <g id="text_5">
      <!-- 200 -->
      <defs>
       <path d="M 19.1875 8.296875 
L 53.609375 8.296875 
L 53.609375 0 
L 7.328125 0 
L 7.328125 8.296875 
Q 12.9375 14.109375 22.625 23.890625 
Q 32.328125 33.6875 34.8125 36.53125 
Q 39.546875 41.84375 41.421875 45.53125 
Q 43.3125 49.21875 43.3125 52.78125 
Q 43.3125 58.59375 39.234375 62.25 
Q 35.15625 65.921875 28.609375 65.921875 
Q 23.96875 65.921875 18.8125 64.3125 
Q 13.671875 62.703125 7.8125 59.421875 
L 7.8125 69.390625 
Q 13.765625 71.78125 18.9375 73 
Q 24.125 74.21875 28.421875 74.21875 
Q 39.75 74.21875 46.484375 68.546875 
Q 53.21875 62.890625 53.21875 53.421875 
Q 53.21875 48.921875 51.53125 44.890625 
Q 49.859375 40.875 45.40625 35.40625 
Q 44.1875 33.984375 37.640625 27.21875 
Q 31.109375 20.453125 19.1875 8.296875 
z
" id="DejaVuSans-50"/>
      </defs>
      <g transform="translate(280.725341 322.182437)scale(0.1 -0.1)">
       <use xlink:href="#DejaVuSans-50"/>
       <use x="63.623047" xlink:href="#DejaVuSans-48"/>
       <use x="127.246094" xlink:href="#DejaVuSans-48"/>
      </g>
     </g>
    </g>
    <g id="xtick_6">
     <g id="line2d_11">
      <path clip-path="url(#p5f47cc6dec)" d="M 344.378182 307.584 
L 344.378182 41.472 
" style="fill:none;stroke:#b0b0b0;stroke-linecap:square;stroke-width:0.8;"/>
     </g>
     <g id="line2d_12">
      <g>
       <use style="stroke:#000000;stroke-width:0.8;" x="344.378182" xlink:href="#m27d7371b03" y="307.584"/>
      </g>
     </g>
     <g id="text_6">
      <!-- 250 -->
      <g transform="translate(334.834432 322.182437)scale(0.1 -0.1)">
       <use xlink:href="#DejaVuSans-50"/>
       <use x="63.623047" xlink:href="#DejaVuSans-53"/>
       <use x="127.246094" xlink:href="#DejaVuSans-48"/>
      </g>
     </g>
    </g>
    <g id="xtick_7">
     <g id="line2d_13">
      <path clip-path="url(#p5f47cc6dec)" d="M 398.487273 307.584 
L 398.487273 41.472 
" style="fill:none;stroke:#b0b0b0;stroke-linecap:square;stroke-width:0.8;"/>
     </g>
     <g id="line2d_14">
      <g>
       <use style="stroke:#000000;stroke-width:0.8;" x="398.487273" xlink:href="#m27d7371b03" y="307.584"/>
      </g>
     </g>
     <g id="text_7">
      <!-- 300 -->
      <defs>
       <path d="M 40.578125 39.3125 
Q 47.65625 37.796875 51.625 33 
Q 55.609375 28.21875 55.609375 21.1875 
Q 55.609375 10.40625 48.1875 4.484375 
Q 40.765625 -1.421875 27.09375 -1.421875 
Q 22.515625 -1.421875 17.65625 -0.515625 
Q 12.796875 0.390625 7.625 2.203125 
L 7.625 11.71875 
Q 11.71875 9.328125 16.59375 8.109375 
Q 21.484375 6.890625 26.8125 6.890625 
Q 36.078125 6.890625 40.9375 10.546875 
Q 45.796875 14.203125 45.796875 21.1875 
Q 45.796875 27.640625 41.28125 31.265625 
Q 36.765625 34.90625 28.71875 34.90625 
L 20.21875 34.90625 
L 20.21875 43.015625 
L 29.109375 43.015625 
Q 36.375 43.015625 40.234375 45.921875 
Q 44.09375 48.828125 44.09375 54.296875 
Q 44.09375 59.90625 40.109375 62.90625 
Q 36.140625 65.921875 28.71875 65.921875 
Q 24.65625 65.921875 20.015625 65.03125 
Q 15.375 64.15625 9.8125 62.3125 
L 9.8125 71.09375 
Q 15.4375 72.65625 20.34375 73.4375 
Q 25.25 74.21875 29.59375 74.21875 
Q 40.828125 74.21875 47.359375 69.109375 
Q 53.90625 64.015625 53.90625 55.328125 
Q 53.90625 49.265625 50.4375 45.09375 
Q 46.96875 40.921875 40.578125 39.3125 
z
" id="DejaVuSans-51"/>
      </defs>
      <g transform="translate(388.943523 322.182437)scale(0.1 -0.1)">
       <use xlink:href="#DejaVuSans-51"/>
       <use x="63.623047" xlink:href="#DejaVuSans-48"/>
       <use x="127.246094" xlink:href="#DejaVuSans-48"/>
      </g>
     </g>
    </g>
    <g id="text_8">
     <!-- Wealth -->
     <defs>
      <path d="M 3.328125 72.90625 
L 13.28125 72.90625 
L 28.609375 11.28125 
L 43.890625 72.90625 
L 54.984375 72.90625 
L 70.3125 11.28125 
L 85.59375 72.90625 
L 95.609375 72.90625 
L 77.296875 0 
L 64.890625 0 
L 49.515625 63.28125 
L 33.984375 0 
L 21.578125 0 
z
" id="DejaVuSans-87"/>
      <path d="M 56.203125 29.59375 
L 56.203125 25.203125 
L 14.890625 25.203125 
Q 15.484375 15.921875 20.484375 11.0625 
Q 25.484375 6.203125 34.421875 6.203125 
Q 39.59375 6.203125 44.453125 7.46875 
Q 49.3125 8.734375 54.109375 11.28125 
L 54.109375 2.78125 
Q 49.265625 0.734375 44.1875 -0.34375 
Q 39.109375 -1.421875 33.890625 -1.421875 
Q 20.796875 -1.421875 13.15625 6.1875 
Q 5.515625 13.8125 5.515625 26.8125 
Q 5.515625 40.234375 12.765625 48.109375 
Q 20.015625 56 32.328125 56 
Q 43.359375 56 49.78125 48.890625 
Q 56.203125 41.796875 56.203125 29.59375 
z
M 47.21875 32.234375 
Q 47.125 39.59375 43.09375 43.984375 
Q 39.0625 48.390625 32.421875 48.390625 
Q 24.90625 48.390625 20.390625 44.140625 
Q 15.875 39.890625 15.1875 32.171875 
z
" id="DejaVuSans-101"/>
      <path d="M 34.28125 27.484375 
Q 23.390625 27.484375 19.1875 25 
Q 14.984375 22.515625 14.984375 16.5 
Q 14.984375 11.71875 18.140625 8.90625 
Q 21.296875 6.109375 26.703125 6.109375 
Q 34.1875 6.109375 38.703125 11.40625 
Q 43.21875 16.703125 43.21875 25.484375 
L 43.21875 27.484375 
z
M 52.203125 31.203125 
L 52.203125 0 
L 43.21875 0 
L 43.21875 8.296875 
Q 40.140625 3.328125 35.546875 0.953125 
Q 30.953125 -1.421875 24.3125 -1.421875 
Q 15.921875 -1.421875 10.953125 3.296875 
Q 6 8.015625 6 15.921875 
Q 6 25.140625 12.171875 29.828125 
Q 18.359375 34.515625 30.609375 34.515625 
L 43.21875 34.515625 
L 43.21875 35.40625 
Q 43.21875 41.609375 39.140625 45 
Q 35.0625 48.390625 27.6875 48.390625 
Q 23 48.390625 18.546875 47.265625 
Q 14.109375 46.140625 10.015625 43.890625 
L 10.015625 52.203125 
Q 14.9375 54.109375 19.578125 55.046875 
Q 24.21875 56 28.609375 56 
Q 40.484375 56 46.34375 49.84375 
Q 52.203125 43.703125 52.203125 31.203125 
z
" id="DejaVuSans-97"/>
      <path d="M 9.421875 75.984375 
L 18.40625 75.984375 
L 18.40625 0 
L 9.421875 0 
z
" id="DejaVuSans-108"/>
      <path d="M 18.3125 70.21875 
L 18.3125 54.6875 
L 36.8125 54.6875 
L 36.8125 47.703125 
L 18.3125 47.703125 
L 18.3125 18.015625 
Q 18.3125 11.328125 20.140625 9.421875 
Q 21.96875 7.515625 27.59375 7.515625 
L 36.8125 7.515625 
L 36.8125 0 
L 27.59375 0 
Q 17.1875 0 13.234375 3.875 
Q 9.28125 7.765625 9.28125 18.015625 
L 9.28125 47.703125 
L 2.6875 47.703125 
L 2.6875 54.6875 
L 9.28125 54.6875 
L 9.28125 70.21875 
z
" id="DejaVuSans-116"/>
      <path d="M 54.890625 33.015625 
L 54.890625 0 
L 45.90625 0 
L 45.90625 32.71875 
Q 45.90625 40.484375 42.875 44.328125 
Q 39.84375 48.1875 33.796875 48.1875 
Q 26.515625 48.1875 22.3125 43.546875 
Q 18.109375 38.921875 18.109375 30.90625 
L 18.109375 0 
L 9.078125 0 
L 9.078125 75.984375 
L 18.109375 75.984375 
L 18.109375 46.1875 
Q 21.34375 51.125 25.703125 53.5625 
Q 30.078125 56 35.796875 56 
Q 45.21875 56 50.046875 50.171875 
Q 54.890625 44.34375 54.890625 33.015625 
z
" id="DejaVuSans-104"/>
     </defs>
     <g transform="translate(218.561563 335.860562)scale(0.1 -0.1)">
      <use xlink:href="#DejaVuSans-87"/>
      <use x="98.798828" xlink:href="#DejaVuSans-101"/>
      <use x="160.322266" xlink:href="#DejaVuSans-97"/>
      <use x="221.601562" xlink:href="#DejaVuSans-108"/>
      <use x="249.384766" xlink:href="#DejaVuSans-116"/>
      <use x="288.59375" xlink:href="#DejaVuSans-104"/>
     </g>
    </g>
   </g>
   <g id="matplotlib.axis_2">
    <g id="ytick_1">
     <g id="line2d_15">
      <path clip-path="url(#p5f47cc6dec)" d="M 57.6 295.488 
L 414.72 295.488 
" style="fill:none;stroke:#b0b0b0;stroke-linecap:square;stroke-width:0.8;"/>
     </g>
     <g id="line2d_16">
      <defs>
       <path d="M 0 0 
L -3.5 0 
" id="m5e20a17b84" style="stroke:#000000;stroke-width:0.8;"/>
      </defs>
      <g>
       <use style="stroke:#000000;stroke-width:0.8;" x="57.6" xlink:href="#m5e20a17b84" y="295.488"/>
      </g>
     </g>
     <g id="text_9">
      <!-- 0 -->
      <g transform="translate(44.2375 299.287219)scale(0.1 -0.1)">
       <use xlink:href="#DejaVuSans-48"/>
      </g>
     </g>
    </g>
    <g id="ytick_2">
     <g id="line2d_17">
      <path clip-path="url(#p5f47cc6dec)" d="M 57.6 250.418408 
L 414.72 250.418408 
" style="fill:none;stroke:#b0b0b0;stroke-linecap:square;stroke-width:0.8;"/>
     </g>
     <g id="line2d_18">
      <g>
       <use style="stroke:#000000;stroke-width:0.8;" x="57.6" xlink:href="#m5e20a17b84" y="250.418408"/>
      </g>
     </g>
     <g id="text_10">
      <!-- 10 -->
      <g transform="translate(37.875 254.217626)scale(0.1 -0.1)">
       <use xlink:href="#DejaVuSans-49"/>
       <use x="63.623047" xlink:href="#DejaVuSans-48"/>
      </g>
     </g>
    </g>
    <g id="ytick_3">
     <g id="line2d_19">
      <path clip-path="url(#p5f47cc6dec)" d="M 57.6 205.348815 
L 414.72 205.348815 
" style="fill:none;stroke:#b0b0b0;stroke-linecap:square;stroke-width:0.8;"/>
     </g>
     <g id="line2d_20">
      <g>
       <use style="stroke:#000000;stroke-width:0.8;" x="57.6" xlink:href="#m5e20a17b84" y="205.348815"/>
      </g>
     </g>
     <g id="text_11">
      <!-- 20 -->
      <g transform="translate(37.875 209.148034)scale(0.1 -0.1)">
       <use xlink:href="#DejaVuSans-50"/>
       <use x="63.623047" xlink:href="#DejaVuSans-48"/>
      </g>
     </g>
    </g>
    <g id="ytick_4">
     <g id="line2d_21">
      <path clip-path="url(#p5f47cc6dec)" d="M 57.6 160.279223 
L 414.72 160.279223 
" style="fill:none;stroke:#b0b0b0;stroke-linecap:square;stroke-width:0.8;"/>
     </g>
     <g id="line2d_22">
      <g>
       <use style="stroke:#000000;stroke-width:0.8;" x="57.6" xlink:href="#m5e20a17b84" y="160.279223"/>
      </g>
     </g>
     <g id="text_12">
      <!-- 30 -->
      <g transform="translate(37.875 164.078441)scale(0.1 -0.1)">
       <use xlink:href="#DejaVuSans-51"/>
       <use x="63.623047" xlink:href="#DejaVuSans-48"/>
      </g>
     </g>
    </g>
    <g id="ytick_5">
     <g id="line2d_23">
      <path clip-path="url(#p5f47cc6dec)" d="M 57.6 115.20963 
L 414.72 115.20963 
" style="fill:none;stroke:#b0b0b0;stroke-linecap:square;stroke-width:0.8;"/>
     </g>
     <g id="line2d_24">
      <g>
       <use style="stroke:#000000;stroke-width:0.8;" x="57.6" xlink:href="#m5e20a17b84" y="115.20963"/>
      </g>
     </g>
     <g id="text_13">
      <!-- 40 -->
      <defs>
       <path d="M 37.796875 64.3125 
L 12.890625 25.390625 
L 37.796875 25.390625 
z
M 35.203125 72.90625 
L 47.609375 72.90625 
L 47.609375 25.390625 
L 58.015625 25.390625 
L 58.015625 17.1875 
L 47.609375 17.1875 
L 47.609375 0 
L 37.796875 0 
L 37.796875 17.1875 
L 4.890625 17.1875 
L 4.890625 26.703125 
z
" id="DejaVuSans-52"/>
      </defs>
      <g transform="translate(37.875 119.008849)scale(0.1 -0.1)">
       <use xlink:href="#DejaVuSans-52"/>
       <use x="63.623047" xlink:href="#DejaVuSans-48"/>
      </g>
     </g>
    </g>
    <g id="ytick_6">
     <g id="line2d_25">
      <path clip-path="url(#p5f47cc6dec)" d="M 57.6 70.140038 
L 414.72 70.140038 
" style="fill:none;stroke:#b0b0b0;stroke-linecap:square;stroke-width:0.8;"/>
     </g>
     <g id="line2d_26">
      <g>
       <use style="stroke:#000000;stroke-width:0.8;" x="57.6" xlink:href="#m5e20a17b84" y="70.140038"/>
      </g>
     </g>
     <g id="text_14">
      <!-- 50 -->
      <g transform="translate(37.875 73.939256)scale(0.1 -0.1)">
       <use xlink:href="#DejaVuSans-53"/>
       <use x="63.623047" xlink:href="#DejaVuSans-48"/>
      </g>
     </g>
    </g>
    <g id="text_15">
     <!-- Consumption -->
     <defs>
      <path d="M 64.40625 67.28125 
L 64.40625 56.890625 
Q 59.421875 61.53125 53.78125 63.8125 
Q 48.140625 66.109375 41.796875 66.109375 
Q 29.296875 66.109375 22.65625 58.46875 
Q 16.015625 50.828125 16.015625 36.375 
Q 16.015625 21.96875 22.65625 14.328125 
Q 29.296875 6.6875 41.796875 6.6875 
Q 48.140625 6.6875 53.78125 8.984375 
Q 59.421875 11.28125 64.40625 15.921875 
L 64.40625 5.609375 
Q 59.234375 2.09375 53.4375 0.328125 
Q 47.65625 -1.421875 41.21875 -1.421875 
Q 24.65625 -1.421875 15.125 8.703125 
Q 5.609375 18.84375 5.609375 36.375 
Q 5.609375 53.953125 15.125 64.078125 
Q 24.65625 74.21875 41.21875 74.21875 
Q 47.75 74.21875 53.53125 72.484375 
Q 59.328125 70.75 64.40625 67.28125 
z
" id="DejaVuSans-67"/>
      <path d="M 30.609375 48.390625 
Q 23.390625 48.390625 19.1875 42.75 
Q 14.984375 37.109375 14.984375 27.296875 
Q 14.984375 17.484375 19.15625 11.84375 
Q 23.34375 6.203125 30.609375 6.203125 
Q 37.796875 6.203125 41.984375 11.859375 
Q 46.1875 17.53125 46.1875 27.296875 
Q 46.1875 37.015625 41.984375 42.703125 
Q 37.796875 48.390625 30.609375 48.390625 
z
M 30.609375 56 
Q 42.328125 56 49.015625 48.375 
Q 55.71875 40.765625 55.71875 27.296875 
Q 55.71875 13.875 49.015625 6.21875 
Q 42.328125 -1.421875 30.609375 -1.421875 
Q 18.84375 -1.421875 12.171875 6.21875 
Q 5.515625 13.875 5.515625 27.296875 
Q 5.515625 40.765625 12.171875 48.375 
Q 18.84375 56 30.609375 56 
z
" id="DejaVuSans-111"/>
      <path d="M 54.890625 33.015625 
L 54.890625 0 
L 45.90625 0 
L 45.90625 32.71875 
Q 45.90625 40.484375 42.875 44.328125 
Q 39.84375 48.1875 33.796875 48.1875 
Q 26.515625 48.1875 22.3125 43.546875 
Q 18.109375 38.921875 18.109375 30.90625 
L 18.109375 0 
L 9.078125 0 
L 9.078125 54.6875 
L 18.109375 54.6875 
L 18.109375 46.1875 
Q 21.34375 51.125 25.703125 53.5625 
Q 30.078125 56 35.796875 56 
Q 45.21875 56 50.046875 50.171875 
Q 54.890625 44.34375 54.890625 33.015625 
z
" id="DejaVuSans-110"/>
      <path d="M 44.28125 53.078125 
L 44.28125 44.578125 
Q 40.484375 46.53125 36.375 47.5 
Q 32.28125 48.484375 27.875 48.484375 
Q 21.1875 48.484375 17.84375 46.4375 
Q 14.5 44.390625 14.5 40.28125 
Q 14.5 37.15625 16.890625 35.375 
Q 19.28125 33.59375 26.515625 31.984375 
L 29.59375 31.296875 
Q 39.15625 29.25 43.1875 25.515625 
Q 47.21875 21.78125 47.21875 15.09375 
Q 47.21875 7.46875 41.1875 3.015625 
Q 35.15625 -1.421875 24.609375 -1.421875 
Q 20.21875 -1.421875 15.453125 -0.5625 
Q 10.6875 0.296875 5.421875 2 
L 5.421875 11.28125 
Q 10.40625 8.6875 15.234375 7.390625 
Q 20.0625 6.109375 24.8125 6.109375 
Q 31.15625 6.109375 34.5625 8.28125 
Q 37.984375 10.453125 37.984375 14.40625 
Q 37.984375 18.0625 35.515625 20.015625 
Q 33.0625 21.96875 24.703125 23.78125 
L 21.578125 24.515625 
Q 13.234375 26.265625 9.515625 29.90625 
Q 5.8125 33.546875 5.8125 39.890625 
Q 5.8125 47.609375 11.28125 51.796875 
Q 16.75 56 26.8125 56 
Q 31.78125 56 36.171875 55.265625 
Q 40.578125 54.546875 44.28125 53.078125 
z
" id="DejaVuSans-115"/>
      <path d="M 8.5 21.578125 
L 8.5 54.6875 
L 17.484375 54.6875 
L 17.484375 21.921875 
Q 17.484375 14.15625 20.5 10.265625 
Q 23.53125 6.390625 29.59375 6.390625 
Q 36.859375 6.390625 41.078125 11.03125 
Q 45.3125 15.671875 45.3125 23.6875 
L 45.3125 54.6875 
L 54.296875 54.6875 
L 54.296875 0 
L 45.3125 0 
L 45.3125 8.40625 
Q 42.046875 3.421875 37.71875 1 
Q 33.40625 -1.421875 27.6875 -1.421875 
Q 18.265625 -1.421875 13.375 4.4375 
Q 8.5 10.296875 8.5 21.578125 
z
M 31.109375 56 
z
" id="DejaVuSans-117"/>
      <path d="M 52 44.1875 
Q 55.375 50.25 60.0625 53.125 
Q 64.75 56 71.09375 56 
Q 79.640625 56 84.28125 50.015625 
Q 88.921875 44.046875 88.921875 33.015625 
L 88.921875 0 
L 79.890625 0 
L 79.890625 32.71875 
Q 79.890625 40.578125 77.09375 44.375 
Q 74.3125 48.1875 68.609375 48.1875 
Q 61.625 48.1875 57.5625 43.546875 
Q 53.515625 38.921875 53.515625 30.90625 
L 53.515625 0 
L 44.484375 0 
L 44.484375 32.71875 
Q 44.484375 40.625 41.703125 44.40625 
Q 38.921875 48.1875 33.109375 48.1875 
Q 26.21875 48.1875 22.15625 43.53125 
Q 18.109375 38.875 18.109375 30.90625 
L 18.109375 0 
L 9.078125 0 
L 9.078125 54.6875 
L 18.109375 54.6875 
L 18.109375 46.1875 
Q 21.1875 51.21875 25.484375 53.609375 
Q 29.78125 56 35.6875 56 
Q 41.65625 56 45.828125 52.96875 
Q 50 49.953125 52 44.1875 
z
" id="DejaVuSans-109"/>
      <path d="M 18.109375 8.203125 
L 18.109375 -20.796875 
L 9.078125 -20.796875 
L 9.078125 54.6875 
L 18.109375 54.6875 
L 18.109375 46.390625 
Q 20.953125 51.265625 25.265625 53.625 
Q 29.59375 56 35.59375 56 
Q 45.5625 56 51.78125 48.09375 
Q 58.015625 40.1875 58.015625 27.296875 
Q 58.015625 14.40625 51.78125 6.484375 
Q 45.5625 -1.421875 35.59375 -1.421875 
Q 29.59375 -1.421875 25.265625 0.953125 
Q 20.953125 3.328125 18.109375 8.203125 
z
M 48.6875 27.296875 
Q 48.6875 37.203125 44.609375 42.84375 
Q 40.53125 48.484375 33.40625 48.484375 
Q 26.265625 48.484375 22.1875 42.84375 
Q 18.109375 37.203125 18.109375 27.296875 
Q 18.109375 17.390625 22.1875 11.75 
Q 26.265625 6.109375 33.40625 6.109375 
Q 40.53125 6.109375 44.609375 11.75 
Q 48.6875 17.390625 48.6875 27.296875 
z
" id="DejaVuSans-112"/>
      <path d="M 9.421875 54.6875 
L 18.40625 54.6875 
L 18.40625 0 
L 9.421875 0 
z
M 9.421875 75.984375 
L 18.40625 75.984375 
L 18.40625 64.59375 
L 9.421875 64.59375 
z
" id="DejaVuSans-105"/>
     </defs>
     <g transform="translate(31.795312 207.642844)rotate(-90)scale(0.1 -0.1)">
      <use xlink:href="#DejaVuSans-67"/>
      <use x="69.824219" xlink:href="#DejaVuSans-111"/>
      <use x="131.005859" xlink:href="#DejaVuSans-110"/>
      <use x="194.384766" xlink:href="#DejaVuSans-115"/>
      <use x="246.484375" xlink:href="#DejaVuSans-117"/>
      <use x="309.863281" xlink:href="#DejaVuSans-109"/>
      <use x="407.275391" xlink:href="#DejaVuSans-112"/>
      <use x="470.751953" xlink:href="#DejaVuSans-116"/>
      <use x="509.960938" xlink:href="#DejaVuSans-105"/>
      <use x="537.744141" xlink:href="#DejaVuSans-111"/>
      <use x="598.925781" xlink:href="#DejaVuSans-110"/>
     </g>
    </g>
   </g>
   <g id="line2d_27">
    <path clip-path="url(#p5f47cc6dec)" d="M 73.832727 295.488 
L 77.112066 281.830548 
L 80.391405 268.173095 
L 83.670744 254.515643 
L 86.950083 240.858191 
L 90.229421 229.171936 
L 93.50876 228.170923 
L 96.788099 227.194113 
L 100.067438 226.239107 
L 103.346777 225.30389 
L 106.626116 224.38678 
L 109.905455 223.486295 
L 113.184793 222.601169 
L 116.464132 221.730263 
L 119.743471 220.87266 
L 123.02281 220.027438 
L 126.302149 219.193809 
L 129.581488 218.371115 
L 132.860826 217.558748 
L 136.140165 216.756094 
L 139.419504 215.962562 
L 142.698843 215.177854 
L 145.978182 214.401384 
L 149.257521 213.632849 
L 152.53686 212.871795 
L 155.816198 212.117967 
L 159.095537 211.370946 
L 162.374876 210.630539 
L 165.654215 209.896446 
L 168.933554 209.168423 
L 172.212893 208.44612 
L 175.492231 207.729404 
L 178.77157 207.018178 
L 182.050909 206.312062 
L 185.330248 205.610918 
L 188.609587 204.914573 
L 191.888926 204.222797 
L 195.168264 203.535638 
L 198.447603 202.852898 
L 201.726942 202.174181 
L 205.006281 201.499723 
L 208.28562 200.829061 
L 211.564959 200.162325 
L 214.844298 199.499043 
L 218.123636 198.839699 
L 221.402975 198.183634 
L 224.682314 197.530835 
L 227.961653 196.881695 
L 231.240992 196.235671 
L 234.520331 195.592664 
L 237.799669 194.952622 
L 241.079008 194.315504 
L 244.358347 193.681244 
L 247.637686 193.049815 
L 250.917025 192.421158 
L 254.196364 191.795233 
L 257.475702 191.171885 
L 260.755041 190.551024 
L 264.03438 189.932622 
L 267.313719 189.316718 
L 270.593058 188.703191 
L 273.872397 188.091883 
L 277.151736 187.482676 
L 280.431074 186.875765 
L 283.710413 186.271107 
L 286.989752 185.668338 
L 290.269091 185.067387 
L 293.54843 184.468318 
L 296.827769 183.871852 
L 300.107107 183.277021 
L 303.386446 182.683697 
L 306.665785 182.092561 
L 309.945124 181.503068 
L 313.224463 180.914773 
L 316.503802 180.32853 
L 319.78314 179.743942 
L 323.062479 179.160469 
L 326.341818 178.580942 
L 329.621157 178.002288 
L 332.900496 177.425265 
L 336.179835 176.849679 
L 339.459174 176.2749 
L 342.738512 175.702046 
L 346.017851 175.129613 
L 349.29719 174.559211 
L 352.576529 173.989244 
L 355.855868 173.420865 
L 359.135207 172.853064 
L 362.414545 172.286664 
L 365.693884 171.720878 
L 368.973223 171.156469 
L 372.252562 170.592565 
L 375.531901 170.030081 
L 378.81124 169.467865 
L 382.090579 168.90716 
L 385.369917 168.346454 
L 388.649256 167.787441 
L 391.928595 167.228479 
L 395.207934 166.670858 
L 398.487273 166.113757 
" style="fill:none;stroke:#1f77b4;stroke-linecap:square;stroke-width:1.5;"/>
   </g>
   <g id="line2d_28">
    <path clip-path="url(#p5f47cc6dec)" d="M 73.832727 295.488 
L 77.112066 281.830548 
L 80.391405 268.173095 
L 83.670744 254.515643 
L 86.950083 240.858191 
L 90.229421 227.200739 
L 93.50876 213.543286 
L 96.788099 206.262375 
L 100.067438 205.334108 
L 103.346777 204.419835 
L 106.626116 203.518623 
L 109.905455 202.629642 
L 113.184793 201.752179 
L 116.464132 200.885533 
L 119.743471 200.029129 
L 123.02281 199.18242 
L 126.302149 198.344896 
L 129.581488 197.516111 
L 132.860826 196.695654 
L 136.140165 195.883114 
L 139.419504 195.078121 
L 142.698843 194.280403 
L 145.978182 193.489632 
L 149.257521 192.705462 
L 152.53686 191.927702 
L 155.816198 191.1561 
L 159.095537 190.39043 
L 162.374876 189.630369 
L 165.654215 188.87579 
L 168.933554 188.126509 
L 172.212893 187.38235 
L 175.492231 186.643145 
L 178.77157 185.908594 
L 182.050909 185.17879 
L 185.330248 184.453324 
L 188.609587 183.732168 
L 191.888926 183.015312 
L 195.168264 182.302506 
L 198.447603 181.593606 
L 201.726942 180.888517 
L 205.006281 180.187251 
L 208.28562 179.489617 
L 211.564959 178.795389 
L 214.844298 178.104505 
L 218.123636 177.417192 
L 221.402975 176.73285 
L 224.682314 176.051998 
L 227.961653 175.373925 
L 231.240992 174.699059 
L 234.520331 174.027051 
L 237.799669 173.35773 
L 241.079008 172.691392 
L 244.358347 172.027808 
L 247.637686 171.366849 
L 250.917025 170.708433 
L 254.196364 170.052506 
L 257.475702 169.399049 
L 260.755041 168.748153 
L 264.03438 168.09959 
L 267.313719 167.453303 
L 270.593058 166.809275 
L 273.872397 166.167465 
L 277.151736 165.527785 
L 280.431074 164.890307 
L 283.710413 164.255035 
L 286.989752 163.621793 
L 290.269091 162.990507 
L 293.54843 162.361107 
L 296.827769 161.733537 
L 300.107107 161.107742 
L 303.386446 160.48396 
L 306.665785 159.862171 
L 309.945124 159.241993 
L 313.224463 158.623352 
L 316.503802 158.00641 
L 319.78314 157.391522 
L 323.062479 156.778044 
L 326.341818 156.165897 
L 329.621157 155.555988 
L 332.900496 154.947461 
L 336.179835 154.340064 
L 339.459174 153.734759 
L 342.738512 153.130654 
L 346.017851 152.527641 
L 349.29719 151.926732 
L 352.576529 151.326612 
L 355.855868 150.728066 
L 359.135207 150.130826 
L 362.414545 149.534478 
L 365.693884 148.94009 
L 368.973223 148.346191 
L 372.252562 147.754396 
L 375.531901 147.163115 
L 378.81124 146.573504 
L 382.090579 145.984622 
L 385.369917 145.397121 
L 388.649256 144.810463 
L 391.928595 144.225065 
L 395.207934 143.640477 
L 398.487273 143.057104 
" style="fill:none;stroke:#ff7f0e;stroke-linecap:square;stroke-width:1.5;"/>
   </g>
   <g id="line2d_29">
    <path clip-path="url(#p5f47cc6dec)" d="M 73.832727 295.488 
L 77.112066 281.830548 
L 80.391405 268.173095 
L 83.670744 254.515643 
L 86.950083 240.858191 
L 90.229421 227.200739 
L 93.50876 213.543286 
L 96.788099 204.015241 
L 100.067438 203.028252 
L 103.346777 202.055654 
L 106.626116 201.096517 
L 109.905455 200.150016 
L 113.184793 199.21541 
L 116.464132 198.292011 
L 119.743471 197.379237 
L 123.02281 196.476508 
L 126.302149 195.583334 
L 129.581488 194.699229 
L 132.860826 193.823778 
L 136.140165 192.956583 
L 139.419504 192.097251 
L 142.698843 191.245505 
L 145.978182 190.400981 
L 149.257521 189.563418 
L 152.53686 188.7325 
L 155.816198 187.907972 
L 159.095537 187.089582 
L 162.374876 186.277237 
L 165.654215 185.470561 
L 168.933554 184.669397 
L 172.212893 183.873575 
L 175.492231 183.082905 
L 178.77157 182.297123 
L 182.050909 181.516356 
L 185.330248 180.740094 
L 188.609587 179.968465 
L 191.888926 179.201213 
L 195.168264 178.438176 
L 198.447603 177.679254 
L 201.726942 176.924362 
L 205.006281 176.17338 
L 208.28562 175.426129 
L 211.564959 174.682621 
L 214.844298 173.942779 
L 218.123636 173.206259 
L 221.402975 172.473248 
L 224.682314 171.743475 
L 227.961653 171.016951 
L 231.240992 170.293519 
L 234.520331 169.573324 
L 237.799669 168.855894 
L 241.079008 168.141471 
L 244.358347 167.429988 
L 247.637686 166.721158 
L 250.917025 166.01496 
L 254.196364 165.311352 
L 257.475702 164.6106 
L 260.755041 163.912393 
L 264.03438 163.216623 
L 267.313719 162.523253 
L 270.593058 161.83224 
L 273.872397 161.143514 
L 277.151736 160.457017 
L 280.431074 159.772713 
L 283.710413 159.090569 
L 286.989752 158.410531 
L 290.269091 157.732505 
L 293.54843 157.056642 
L 296.827769 156.382892 
L 300.107107 155.711051 
L 303.386446 155.041013 
L 306.665785 154.372706 
L 309.945124 153.70609 
L 313.224463 153.04189 
L 316.503802 152.379379 
L 319.78314 151.718417 
L 323.062479 151.058889 
L 326.341818 150.401626 
L 329.621157 149.745751 
L 332.900496 149.091162 
L 336.179835 148.438478 
L 339.459174 147.787251 
L 342.738512 147.137093 
L 346.017851 146.488941 
L 349.29719 145.842158 
L 352.576529 145.196359 
L 355.855868 144.552749 
L 359.135207 143.909878 
L 362.414545 143.26841 
L 365.693884 142.628295 
L 368.973223 141.988958 
L 372.252562 141.351517 
L 375.531901 140.714511 
L 378.81124 140.079305 
L 382.090579 139.445117 
L 385.369917 138.813752 
L 388.649256 138.183353 
L 391.928595 137.554568 
L 395.207934 136.926594 
L 398.487273 136.2997 
" style="fill:none;stroke:#2ca02c;stroke-linecap:square;stroke-width:1.5;"/>
   </g>
   <g id="line2d_30">
    <path clip-path="url(#p5f47cc6dec)" d="M 73.832727 295.488 
L 77.112066 281.830548 
L 80.391405 268.173095 
L 83.670744 254.515643 
L 86.950083 240.858191 
L 90.229421 227.200739 
L 93.50876 213.543286 
L 96.788099 208.577874 
L 100.067438 207.448391 
L 103.346777 206.338158 
L 106.626116 205.24571 
L 109.905455 204.169771 
L 113.184793 203.109225 
L 116.464132 202.063061 
L 119.743471 201.030418 
L 123.02281 200.010492 
L 126.302149 199.002545 
L 129.581488 198.005941 
L 132.860826 197.020067 
L 136.140165 196.044434 
L 139.419504 195.078495 
L 142.698843 194.121834 
L 145.978182 193.174038 
L 149.257521 192.234641 
L 152.53686 191.303369 
L 155.816198 190.3799 
L 159.095537 189.46392 
L 162.374876 188.555051 
L 165.654215 187.653063 
L 168.933554 186.757748 
L 172.212893 185.868875 
L 175.492231 184.986168 
L 178.77157 184.109355 
L 182.050909 183.238497 
L 185.330248 182.373105 
L 188.609587 181.513051 
L 191.888926 180.658356 
L 195.168264 179.808735 
L 198.447603 178.964075 
L 201.726942 178.124147 
L 205.006281 177.289002 
L 208.28562 176.458386 
L 211.564959 175.632054 
L 214.844298 174.809904 
L 218.123636 173.992157 
L 221.402975 173.178141 
L 224.682314 172.36846 
L 227.961653 171.562262 
L 231.240992 170.760185 
L 234.520331 169.961535 
L 237.799669 169.166256 
L 241.079008 168.37486 
L 244.358347 167.586654 
L 247.637686 166.801651 
L 250.917025 166.019909 
L 254.196364 165.241373 
L 257.475702 164.466056 
L 260.755041 163.693677 
L 264.03438 162.924229 
L 267.313719 162.15761 
L 270.593058 161.39371 
L 273.872397 160.632595 
L 277.151736 159.87429 
L 280.431074 159.118639 
L 283.710413 158.365412 
L 286.989752 157.61467 
L 290.269091 156.866676 
L 293.54843 156.121107 
L 296.827769 155.377723 
L 300.107107 154.636421 
L 303.386446 153.897182 
L 306.665785 153.160274 
L 309.945124 152.426057 
L 313.224463 151.69366 
L 316.503802 150.962938 
L 319.78314 150.23398 
L 323.062479 149.507461 
L 326.341818 148.782553 
L 329.621157 148.059148 
L 332.900496 147.338153 
L 336.179835 146.619444 
L 339.459174 145.902628 
L 342.738512 145.189299 
L 346.017851 144.477083 
L 349.29719 143.766101 
L 352.576529 143.056886 
L 355.855868 142.348432 
L 359.135207 141.64181 
L 362.414545 140.936439 
L 365.693884 140.232285 
L 368.973223 139.529673 
L 372.252562 138.827554 
L 375.531901 138.127308 
L 378.81124 137.427374 
L 382.090579 136.729322 
L 385.369917 136.031728 
L 388.649256 135.335884 
L 391.928595 134.640478 
L 395.207934 133.946388 
L 398.487273 133.252703 
" style="fill:none;stroke:#d62728;stroke-linecap:square;stroke-width:1.5;"/>
   </g>
   <g id="line2d_31">
    <path clip-path="url(#p5f47cc6dec)" d="M 73.832727 295.488 
L 77.112066 281.830548 
L 80.391405 268.173095 
L 83.670744 254.515643 
L 86.950083 240.858191 
L 90.229421 227.200739 
L 93.50876 213.543286 
L 96.788099 199.885834 
L 100.067438 186.228382 
L 103.346777 180.977843 
L 106.626116 179.148919 
L 109.905455 177.502675 
L 113.184793 175.952903 
L 116.464132 174.468087 
L 119.743471 173.031859 
L 123.02281 171.634455 
L 126.302149 170.26941 
L 129.581488 168.932236 
L 132.860826 167.619487 
L 136.140165 166.328581 
L 139.419504 165.057385 
L 142.698843 163.804307 
L 145.978182 162.567875 
L 149.257521 161.346831 
L 152.53686 160.140102 
L 155.816198 158.946983 
L 159.095537 157.766502 
L 162.374876 156.597958 
L 165.654215 155.440867 
L 168.933554 154.294364 
L 172.212893 153.158232 
L 175.492231 152.031802 
L 178.77157 150.914708 
L 182.050909 149.806662 
L 185.330248 148.706983 
L 188.609587 147.61564 
L 191.888926 146.531973 
L 195.168264 145.45604 
L 198.447603 144.387458 
L 201.726942 143.325913 
L 205.006281 142.271131 
L 208.28562 141.222863 
L 211.564959 140.180867 
L 214.844298 139.145275 
L 218.123636 138.11549 
L 221.402975 137.091212 
L 224.682314 136.073009 
L 227.961653 135.05984 
L 231.240992 134.052248 
L 234.520331 133.049319 
L 237.799669 132.051912 
L 241.079008 131.058975 
L 244.358347 130.070536 
L 247.637686 129.087207 
L 250.917025 128.10822 
L 254.196364 127.133486 
L 257.475702 126.162924 
L 260.755041 125.196464 
L 264.03438 124.234294 
L 267.313719 123.276025 
L 270.593058 122.321535 
L 273.872397 121.370775 
L 277.151736 120.423707 
L 280.431074 119.480261 
L 283.710413 118.540369 
L 286.989752 117.60388 
L 290.269091 116.670893 
L 293.54843 115.741345 
L 296.827769 114.814981 
L 300.107107 113.891747 
L 303.386446 112.971599 
L 306.665785 112.05445 
L 309.945124 111.140291 
L 313.224463 110.229695 
L 316.503802 109.321705 
L 319.78314 108.416201 
L 323.062479 107.513109 
L 326.341818 106.613736 
L 329.621157 105.716649 
L 332.900496 104.821771 
L 336.179835 103.930451 
L 339.459174 103.042114 
L 342.738512 102.155823 
L 346.017851 101.272768 
L 349.29719 100.391877 
L 352.576529 99.512402 
L 355.855868 98.636354 
L 359.135207 97.761629 
L 362.414545 96.889144 
L 365.693884 96.019204 
L 368.973223 95.150448 
L 372.252562 94.285662 
L 375.531901 93.422104 
L 378.81124 92.563839 
L 382.090579 91.707108 
L 385.369917 90.853617 
L 388.649256 90.001492 
L 391.928595 89.151171 
L 395.207934 88.302281 
L 398.487273 87.454908 
" style="fill:none;stroke:#9467bd;stroke-linecap:square;stroke-width:1.5;"/>
   </g>
   <g id="line2d_32">
    <path clip-path="url(#p5f47cc6dec)" d="M 73.832727 295.488 
L 77.112066 281.830548 
L 80.391405 268.173095 
L 83.670744 254.515643 
L 86.950083 240.858191 
L 90.229421 227.200739 
L 93.50876 217.060238 
L 96.788099 214.390817 
L 100.067438 212.263032 
L 103.346777 210.349741 
L 106.626116 208.563369 
L 109.905455 206.864977 
L 113.184793 205.233317 
L 116.464132 203.655033 
L 119.743471 202.121157 
L 123.02281 200.625231 
L 126.302149 199.162336 
L 129.581488 197.728492 
L 132.860826 196.320677 
L 136.140165 194.936369 
L 139.419504 193.573171 
L 142.698843 192.229162 
L 145.978182 190.903006 
L 149.257521 189.593002 
L 152.53686 188.298053 
L 155.816198 187.016911 
L 159.095537 185.748752 
L 162.374876 184.492662 
L 165.654215 183.247767 
L 168.933554 182.013471 
L 172.212893 180.789151 
L 175.492231 179.574074 
L 178.77157 178.367809 
L 182.050909 177.170158 
L 185.330248 175.980385 
L 188.609587 174.798112 
L 191.888926 173.62296 
L 195.168264 172.45475 
L 198.447603 171.293505 
L 201.726942 170.138402 
L 205.006281 168.988994 
L 208.28562 167.846134 
L 211.564959 166.708435 
L 214.844298 165.576644 
L 218.123636 164.4496 
L 221.402975 163.327813 
L 224.682314 162.211317 
L 227.961653 161.099999 
L 231.240992 159.993261 
L 234.520331 158.891246 
L 237.799669 157.793202 
L 241.079008 156.698914 
L 244.358347 155.609765 
L 247.637686 154.527133 
L 250.917025 153.449269 
L 254.196364 152.374756 
L 257.475702 151.303277 
L 260.755041 150.234819 
L 264.03438 149.169133 
L 267.313719 148.106193 
L 270.593058 147.046535 
L 273.872397 145.990699 
L 277.151736 144.938497 
L 280.431074 143.88891 
L 283.710413 142.84134 
L 286.989752 141.795594 
L 290.269091 140.751558 
L 293.54843 139.709799 
L 296.827769 138.670626 
L 300.107107 137.63342 
L 303.386446 136.59803 
L 306.665785 135.565306 
L 309.945124 134.533841 
L 313.224463 133.503543 
L 316.503802 132.47575 
L 319.78314 131.448935 
L 323.062479 130.423153 
L 326.341818 129.399226 
L 329.621157 128.376063 
L 332.900496 127.354545 
L 336.179835 126.334387 
L 339.459174 125.315342 
L 342.738512 124.298165 
L 346.017851 123.28145 
L 349.29719 122.266376 
L 352.576529 121.251497 
L 355.855868 120.237802 
L 359.135207 119.224424 
L 362.414545 118.212158 
L 365.693884 117.200456 
L 368.973223 116.190528 
L 372.252562 115.180982 
L 375.531901 114.172988 
L 378.81124 113.165099 
L 382.090579 112.158315 
L 385.369917 111.15153 
L 388.649256 110.145573 
L 391.928595 109.1397 
L 395.207934 108.134547 
L 398.487273 107.12977 
" style="fill:none;stroke:#8c564b;stroke-linecap:square;stroke-width:1.5;"/>
   </g>
   <g id="line2d_33">
    <path clip-path="url(#p5f47cc6dec)" d="M 73.832727 295.488 
L 77.112066 281.830548 
L 80.391405 268.173095 
L 83.670744 254.515643 
L 86.950083 240.858191 
L 90.229421 227.200739 
L 93.50876 215.886344 
L 96.788099 211.894505 
L 100.067438 208.889943 
L 103.346777 206.272487 
L 106.626116 203.880715 
L 109.905455 201.641923 
L 113.184793 199.514709 
L 116.464132 197.470347 
L 119.743471 195.486747 
L 123.02281 193.547308 
L 126.302149 191.640249 
L 129.581488 189.75793 
L 132.860826 187.895381 
L 136.140165 186.049562 
L 139.419504 184.218214 
L 142.698843 182.400042 
L 145.978182 180.593867 
L 149.257521 178.799023 
L 152.53686 177.014764 
L 155.816198 175.240358 
L 159.095537 173.47551 
L 162.374876 171.719621 
L 165.654215 169.972256 
L 168.933554 168.233189 
L 172.212893 166.502111 
L 175.492231 164.778253 
L 178.77157 163.062142 
L 182.050909 161.353795 
L 185.330248 159.651992 
L 188.609587 157.956197 
L 191.888926 156.271159 
L 195.168264 154.59372 
L 198.447603 152.921331 
L 201.726942 151.25342 
L 205.006281 149.588792 
L 208.28562 147.929062 
L 211.564959 146.274889 
L 214.844298 144.62371 
L 218.123636 142.976011 
L 221.402975 141.330484 
L 224.682314 139.686752 
L 227.961653 138.045803 
L 231.240992 136.407596 
L 234.520331 134.771187 
L 237.799669 133.13621 
L 241.079008 131.502451 
L 244.358347 129.870379 
L 247.637686 128.239432 
L 250.917025 126.609524 
L 254.196364 124.980333 
L 257.475702 123.352064 
L 260.755041 121.72501 
L 264.03438 120.098659 
L 267.313719 118.472716 
L 270.593058 116.846969 
L 273.872397 115.221317 
L 277.151736 113.596372 
L 280.431074 111.97235 
L 283.710413 110.348832 
L 286.989752 108.725494 
L 290.269091 107.102121 
L 293.54843 105.478469 
L 296.827769 103.854694 
L 300.107107 102.231295 
L 303.386446 100.608733 
L 306.665785 98.986666 
L 309.945124 97.364588 
L 313.224463 95.742463 
L 316.503802 94.119965 
L 319.78314 92.497338 
L 323.062479 90.874566 
L 326.341818 89.251914 
L 329.621157 87.629484 
L 332.900496 86.007608 
L 336.179835 84.385884 
L 339.459174 82.764261 
L 342.738512 81.142314 
L 346.017851 79.5203 
L 349.29719 77.898091 
L 352.576529 76.275901 
L 355.855868 74.653767 
L 359.135207 73.031651 
L 362.414545 71.409564 
L 365.693884 69.787362 
L 368.973223 68.164995 
L 372.252562 66.542837 
L 375.531901 64.921 
L 378.81124 63.299207 
L 382.090579 61.677513 
L 385.369917 60.055794 
L 388.649256 58.433952 
L 391.928595 56.812111 
L 395.207934 55.190061 
L 398.487273 53.568 
" style="fill:none;stroke:#e377c2;stroke-linecap:square;stroke-width:1.5;"/>
   </g>
   <g id="patch_3">
    <path d="M 57.6 307.584 
L 57.6 41.472 
" style="fill:none;stroke:#000000;stroke-linecap:square;stroke-linejoin:miter;stroke-width:0.8;"/>
   </g>
   <g id="patch_4">
    <path d="M 414.72 307.584 
L 414.72 41.472 
" style="fill:none;stroke:#000000;stroke-linecap:square;stroke-linejoin:miter;stroke-width:0.8;"/>
   </g>
   <g id="patch_5">
    <path d="M 57.6 307.584 
L 414.72 307.584 
" style="fill:none;stroke:#000000;stroke-linecap:square;stroke-linejoin:miter;stroke-width:0.8;"/>
   </g>
   <g id="patch_6">
    <path d="M 57.6 41.472 
L 414.72 41.472 
" style="fill:none;stroke:#000000;stroke-linecap:square;stroke-linejoin:miter;stroke-width:0.8;"/>
   </g>
   <g id="legend_1">
    <g id="patch_7">
     <path d="M 64.6 152.218875 
L 143.403125 152.218875 
Q 145.403125 152.218875 145.403125 150.218875 
L 145.403125 48.472 
Q 145.403125 46.472 143.403125 46.472 
L 64.6 46.472 
Q 62.6 46.472 62.6 48.472 
L 62.6 150.218875 
Q 62.6 152.218875 64.6 152.218875 
z
" style="fill:#ffffff;opacity:0.8;stroke:#cccccc;stroke-linejoin:miter;"/>
    </g>
    <g id="line2d_34">
     <path d="M 66.6 54.570438 
L 86.6 54.570438 
" style="fill:none;stroke:#1f77b4;stroke-linecap:square;stroke-width:1.5;"/>
    </g>
    <g id="line2d_35"/>
    <g id="text_16">
     <!-- Age = 30 -->
     <defs>
      <path d="M 34.1875 63.1875 
L 20.796875 26.90625 
L 47.609375 26.90625 
z
M 28.609375 72.90625 
L 39.796875 72.90625 
L 67.578125 0 
L 57.328125 0 
L 50.6875 18.703125 
L 17.828125 18.703125 
L 11.1875 0 
L 0.78125 0 
z
" id="DejaVuSans-65"/>
      <path d="M 45.40625 27.984375 
Q 45.40625 37.75 41.375 43.109375 
Q 37.359375 48.484375 30.078125 48.484375 
Q 22.859375 48.484375 18.828125 43.109375 
Q 14.796875 37.75 14.796875 27.984375 
Q 14.796875 18.265625 18.828125 12.890625 
Q 22.859375 7.515625 30.078125 7.515625 
Q 37.359375 7.515625 41.375 12.890625 
Q 45.40625 18.265625 45.40625 27.984375 
z
M 54.390625 6.78125 
Q 54.390625 -7.171875 48.1875 -13.984375 
Q 42 -20.796875 29.203125 -20.796875 
Q 24.46875 -20.796875 20.265625 -20.09375 
Q 16.0625 -19.390625 12.109375 -17.921875 
L 12.109375 -9.1875 
Q 16.0625 -11.328125 19.921875 -12.34375 
Q 23.78125 -13.375 27.78125 -13.375 
Q 36.625 -13.375 41.015625 -8.765625 
Q 45.40625 -4.15625 45.40625 5.171875 
L 45.40625 9.625 
Q 42.625 4.78125 38.28125 2.390625 
Q 33.9375 0 27.875 0 
Q 17.828125 0 11.671875 7.65625 
Q 5.515625 15.328125 5.515625 27.984375 
Q 5.515625 40.671875 11.671875 48.328125 
Q 17.828125 56 27.875 56 
Q 33.9375 56 38.28125 53.609375 
Q 42.625 51.21875 45.40625 46.390625 
L 45.40625 54.6875 
L 54.390625 54.6875 
z
" id="DejaVuSans-103"/>
      <path id="DejaVuSans-32"/>
      <path d="M 10.59375 45.40625 
L 73.1875 45.40625 
L 73.1875 37.203125 
L 10.59375 37.203125 
z
M 10.59375 25.484375 
L 73.1875 25.484375 
L 73.1875 17.1875 
L 10.59375 17.1875 
z
" id="DejaVuSans-61"/>
     </defs>
     <g transform="translate(94.6 58.070438)scale(0.1 -0.1)">
      <use xlink:href="#DejaVuSans-65"/>
      <use x="68.408203" xlink:href="#DejaVuSans-103"/>
      <use x="131.884766" xlink:href="#DejaVuSans-101"/>
      <use x="193.408203" xlink:href="#DejaVuSans-32"/>
      <use x="225.195312" xlink:href="#DejaVuSans-61"/>
      <use x="308.984375" xlink:href="#DejaVuSans-32"/>
      <use x="340.771484" xlink:href="#DejaVuSans-51"/>
      <use x="404.394531" xlink:href="#DejaVuSans-48"/>
     </g>
    </g>
    <g id="line2d_36">
     <path d="M 66.6 69.248563 
L 86.6 69.248563 
" style="fill:none;stroke:#ff7f0e;stroke-linecap:square;stroke-width:1.5;"/>
    </g>
    <g id="line2d_37"/>
    <g id="text_17">
     <!-- Age = 40 -->
     <g transform="translate(94.6 72.748563)scale(0.1 -0.1)">
      <use xlink:href="#DejaVuSans-65"/>
      <use x="68.408203" xlink:href="#DejaVuSans-103"/>
      <use x="131.884766" xlink:href="#DejaVuSans-101"/>
      <use x="193.408203" xlink:href="#DejaVuSans-32"/>
      <use x="225.195312" xlink:href="#DejaVuSans-61"/>
      <use x="308.984375" xlink:href="#DejaVuSans-32"/>
      <use x="340.771484" xlink:href="#DejaVuSans-52"/>
      <use x="404.394531" xlink:href="#DejaVuSans-48"/>
     </g>
    </g>
    <g id="line2d_38">
     <path d="M 66.6 83.926688 
L 86.6 83.926688 
" style="fill:none;stroke:#2ca02c;stroke-linecap:square;stroke-width:1.5;"/>
    </g>
    <g id="line2d_39"/>
    <g id="text_18">
     <!-- Age = 50 -->
     <g transform="translate(94.6 87.426688)scale(0.1 -0.1)">
      <use xlink:href="#DejaVuSans-65"/>
      <use x="68.408203" xlink:href="#DejaVuSans-103"/>
      <use x="131.884766" xlink:href="#DejaVuSans-101"/>
      <use x="193.408203" xlink:href="#DejaVuSans-32"/>
      <use x="225.195312" xlink:href="#DejaVuSans-61"/>
      <use x="308.984375" xlink:href="#DejaVuSans-32"/>
      <use x="340.771484" xlink:href="#DejaVuSans-53"/>
      <use x="404.394531" xlink:href="#DejaVuSans-48"/>
     </g>
    </g>
    <g id="line2d_40">
     <path d="M 66.6 98.604813 
L 86.6 98.604813 
" style="fill:none;stroke:#d62728;stroke-linecap:square;stroke-width:1.5;"/>
    </g>
    <g id="line2d_41"/>
    <g id="text_19">
     <!-- Age = 60 -->
     <defs>
      <path d="M 33.015625 40.375 
Q 26.375 40.375 22.484375 35.828125 
Q 18.609375 31.296875 18.609375 23.390625 
Q 18.609375 15.53125 22.484375 10.953125 
Q 26.375 6.390625 33.015625 6.390625 
Q 39.65625 6.390625 43.53125 10.953125 
Q 47.40625 15.53125 47.40625 23.390625 
Q 47.40625 31.296875 43.53125 35.828125 
Q 39.65625 40.375 33.015625 40.375 
z
M 52.59375 71.296875 
L 52.59375 62.3125 
Q 48.875 64.0625 45.09375 64.984375 
Q 41.3125 65.921875 37.59375 65.921875 
Q 27.828125 65.921875 22.671875 59.328125 
Q 17.53125 52.734375 16.796875 39.40625 
Q 19.671875 43.65625 24.015625 45.921875 
Q 28.375 48.1875 33.59375 48.1875 
Q 44.578125 48.1875 50.953125 41.515625 
Q 57.328125 34.859375 57.328125 23.390625 
Q 57.328125 12.15625 50.6875 5.359375 
Q 44.046875 -1.421875 33.015625 -1.421875 
Q 20.359375 -1.421875 13.671875 8.265625 
Q 6.984375 17.96875 6.984375 36.375 
Q 6.984375 53.65625 15.1875 63.9375 
Q 23.390625 74.21875 37.203125 74.21875 
Q 40.921875 74.21875 44.703125 73.484375 
Q 48.484375 72.75 52.59375 71.296875 
z
" id="DejaVuSans-54"/>
     </defs>
     <g transform="translate(94.6 102.104813)scale(0.1 -0.1)">
      <use xlink:href="#DejaVuSans-65"/>
      <use x="68.408203" xlink:href="#DejaVuSans-103"/>
      <use x="131.884766" xlink:href="#DejaVuSans-101"/>
      <use x="193.408203" xlink:href="#DejaVuSans-32"/>
      <use x="225.195312" xlink:href="#DejaVuSans-61"/>
      <use x="308.984375" xlink:href="#DejaVuSans-32"/>
      <use x="340.771484" xlink:href="#DejaVuSans-54"/>
      <use x="404.394531" xlink:href="#DejaVuSans-48"/>
     </g>
    </g>
    <g id="line2d_42">
     <path d="M 66.6 113.282938 
L 86.6 113.282938 
" style="fill:none;stroke:#9467bd;stroke-linecap:square;stroke-width:1.5;"/>
    </g>
    <g id="line2d_43"/>
    <g id="text_20">
     <!-- Age = 70 -->
     <defs>
      <path d="M 8.203125 72.90625 
L 55.078125 72.90625 
L 55.078125 68.703125 
L 28.609375 0 
L 18.3125 0 
L 43.21875 64.59375 
L 8.203125 64.59375 
z
" id="DejaVuSans-55"/>
     </defs>
     <g transform="translate(94.6 116.782938)scale(0.1 -0.1)">
      <use xlink:href="#DejaVuSans-65"/>
      <use x="68.408203" xlink:href="#DejaVuSans-103"/>
      <use x="131.884766" xlink:href="#DejaVuSans-101"/>
      <use x="193.408203" xlink:href="#DejaVuSans-32"/>
      <use x="225.195312" xlink:href="#DejaVuSans-61"/>
      <use x="308.984375" xlink:href="#DejaVuSans-32"/>
      <use x="340.771484" xlink:href="#DejaVuSans-55"/>
      <use x="404.394531" xlink:href="#DejaVuSans-48"/>
     </g>
    </g>
    <g id="line2d_44">
     <path d="M 66.6 127.961063 
L 86.6 127.961063 
" style="fill:none;stroke:#8c564b;stroke-linecap:square;stroke-width:1.5;"/>
    </g>
    <g id="line2d_45"/>
    <g id="text_21">
     <!-- Age = 80 -->
     <defs>
      <path d="M 31.78125 34.625 
Q 24.75 34.625 20.71875 30.859375 
Q 16.703125 27.09375 16.703125 20.515625 
Q 16.703125 13.921875 20.71875 10.15625 
Q 24.75 6.390625 31.78125 6.390625 
Q 38.8125 6.390625 42.859375 10.171875 
Q 46.921875 13.96875 46.921875 20.515625 
Q 46.921875 27.09375 42.890625 30.859375 
Q 38.875 34.625 31.78125 34.625 
z
M 21.921875 38.8125 
Q 15.578125 40.375 12.03125 44.71875 
Q 8.5 49.078125 8.5 55.328125 
Q 8.5 64.0625 14.71875 69.140625 
Q 20.953125 74.21875 31.78125 74.21875 
Q 42.671875 74.21875 48.875 69.140625 
Q 55.078125 64.0625 55.078125 55.328125 
Q 55.078125 49.078125 51.53125 44.71875 
Q 48 40.375 41.703125 38.8125 
Q 48.828125 37.15625 52.796875 32.3125 
Q 56.78125 27.484375 56.78125 20.515625 
Q 56.78125 9.90625 50.3125 4.234375 
Q 43.84375 -1.421875 31.78125 -1.421875 
Q 19.734375 -1.421875 13.25 4.234375 
Q 6.78125 9.90625 6.78125 20.515625 
Q 6.78125 27.484375 10.78125 32.3125 
Q 14.796875 37.15625 21.921875 38.8125 
z
M 18.3125 54.390625 
Q 18.3125 48.734375 21.84375 45.5625 
Q 25.390625 42.390625 31.78125 42.390625 
Q 38.140625 42.390625 41.71875 45.5625 
Q 45.3125 48.734375 45.3125 54.390625 
Q 45.3125 60.0625 41.71875 63.234375 
Q 38.140625 66.40625 31.78125 66.40625 
Q 25.390625 66.40625 21.84375 63.234375 
Q 18.3125 60.0625 18.3125 54.390625 
z
" id="DejaVuSans-56"/>
     </defs>
     <g transform="translate(94.6 131.461063)scale(0.1 -0.1)">
      <use xlink:href="#DejaVuSans-65"/>
      <use x="68.408203" xlink:href="#DejaVuSans-103"/>
      <use x="131.884766" xlink:href="#DejaVuSans-101"/>
      <use x="193.408203" xlink:href="#DejaVuSans-32"/>
      <use x="225.195312" xlink:href="#DejaVuSans-61"/>
      <use x="308.984375" xlink:href="#DejaVuSans-32"/>
      <use x="340.771484" xlink:href="#DejaVuSans-56"/>
      <use x="404.394531" xlink:href="#DejaVuSans-48"/>
     </g>
    </g>
    <g id="line2d_46">
     <path d="M 66.6 142.639188 
L 86.6 142.639188 
" style="fill:none;stroke:#e377c2;stroke-linecap:square;stroke-width:1.5;"/>
    </g>
    <g id="line2d_47"/>
    <g id="text_22">
     <!-- Age = 90 -->
     <defs>
      <path d="M 10.984375 1.515625 
L 10.984375 10.5 
Q 14.703125 8.734375 18.5 7.8125 
Q 22.3125 6.890625 25.984375 6.890625 
Q 35.75 6.890625 40.890625 13.453125 
Q 46.046875 20.015625 46.78125 33.40625 
Q 43.953125 29.203125 39.59375 26.953125 
Q 35.25 24.703125 29.984375 24.703125 
Q 19.046875 24.703125 12.671875 31.3125 
Q 6.296875 37.9375 6.296875 49.421875 
Q 6.296875 60.640625 12.9375 67.421875 
Q 19.578125 74.21875 30.609375 74.21875 
Q 43.265625 74.21875 49.921875 64.515625 
Q 56.59375 54.828125 56.59375 36.375 
Q 56.59375 19.140625 48.40625 8.859375 
Q 40.234375 -1.421875 26.421875 -1.421875 
Q 22.703125 -1.421875 18.890625 -0.6875 
Q 15.09375 0.046875 10.984375 1.515625 
z
M 30.609375 32.421875 
Q 37.25 32.421875 41.125 36.953125 
Q 45.015625 41.5 45.015625 49.421875 
Q 45.015625 57.28125 41.125 61.84375 
Q 37.25 66.40625 30.609375 66.40625 
Q 23.96875 66.40625 20.09375 61.84375 
Q 16.21875 57.28125 16.21875 49.421875 
Q 16.21875 41.5 20.09375 36.953125 
Q 23.96875 32.421875 30.609375 32.421875 
z
" id="DejaVuSans-57"/>
     </defs>
     <g transform="translate(94.6 146.139188)scale(0.1 -0.1)">
      <use xlink:href="#DejaVuSans-65"/>
      <use x="68.408203" xlink:href="#DejaVuSans-103"/>
      <use x="131.884766" xlink:href="#DejaVuSans-101"/>
      <use x="193.408203" xlink:href="#DejaVuSans-32"/>
      <use x="225.195312" xlink:href="#DejaVuSans-61"/>
      <use x="308.984375" xlink:href="#DejaVuSans-32"/>
      <use x="340.771484" xlink:href="#DejaVuSans-57"/>
      <use x="404.394531" xlink:href="#DejaVuSans-48"/>
     </g>
    </g>
   </g>
  </g>
 </g>
 <defs>
  <clipPath id="p5f47cc6dec">
   <rect height="266.112" width="357.12" x="57.6" y="41.472"/>
  </clipPath>
 </defs>
</svg>
