<?xml version="1.0" encoding="utf-8" standalone="no"?>
<!DOCTYPE svg PUBLIC "-//W3C//DTD SVG 1.1//EN"
  "http://www.w3.org/Graphics/SVG/1.1/DTD/svg11.dtd">
<!-- Created with matplotlib (https://matplotlib.org/) -->
<svg height="345.6pt" version="1.1" viewBox="0 0 460.8 345.6" width="460.8pt" xmlns="http://www.w3.org/2000/svg" xmlns:xlink="http://www.w3.org/1999/xlink">
 <defs>
  <style type="text/css">
*{stroke-linecap:butt;stroke-linejoin:round;}
  </style>
 </defs>
 <g id="figure_1">
  <g id="patch_1">
   <path d="M 0 345.6 
L 460.8 345.6 
L 460.8 0 
L 0 0 
z
" style="fill:#ffffff;"/>
  </g>
  <g id="axes_1">
   <g id="patch_2">
    <path d="M 57.6 307.584 
L 414.72 307.584 
L 414.72 41.472 
L 57.6 41.472 
z
" style="fill:#ffffff;"/>
   </g>
   <g id="matplotlib.axis_1">
    <g id="xtick_1">
     <g id="line2d_1">
      <path clip-path="url(#p7a2d78ec40)" d="M 73.832727 307.584 
L 73.832727 41.472 
" style="fill:none;stroke:#b0b0b0;stroke-linecap:square;stroke-width:0.8;"/>
     </g>
     <g id="line2d_2">
      <defs>
       <path d="M 0 0 
L 0 3.5 
" id="mc7a87cf889" style="stroke:#000000;stroke-width:0.8;"/>
      </defs>
      <g>
       <use style="stroke:#000000;stroke-width:0.8;" x="73.832727" xlink:href="#mc7a87cf889" y="307.584"/>
      </g>
     </g>
     <g id="text_1">
      <!-- 0 -->
      <defs>
       <path d="M 31.78125 66.40625 
Q 24.171875 66.40625 20.328125 58.90625 
Q 16.5 51.421875 16.5 36.375 
Q 16.5 21.390625 20.328125 13.890625 
Q 24.171875 6.390625 31.78125 6.390625 
Q 39.453125 6.390625 43.28125 13.890625 
Q 47.125 21.390625 47.125 36.375 
Q 47.125 51.421875 43.28125 58.90625 
Q 39.453125 66.40625 31.78125 66.40625 
z
M 31.78125 74.21875 
Q 44.046875 74.21875 50.515625 64.515625 
Q 56.984375 54.828125 56.984375 36.375 
Q 56.984375 17.96875 50.515625 8.265625 
Q 44.046875 -1.421875 31.78125 -1.421875 
Q 19.53125 -1.421875 13.0625 8.265625 
Q 6.59375 17.96875 6.59375 36.375 
Q 6.59375 54.828125 13.0625 64.515625 
Q 19.53125 74.21875 31.78125 74.21875 
z
" id="DejaVuSans-48"/>
      </defs>
      <g transform="translate(70.651477 322.182437)scale(0.1 -0.1)">
       <use xlink:href="#DejaVuSans-48"/>
      </g>
     </g>
    </g>
    <g id="xtick_2">
     <g id="line2d_3">
      <path clip-path="url(#p7a2d78ec40)" d="M 127.941818 307.584 
L 127.941818 41.472 
" style="fill:none;stroke:#b0b0b0;stroke-linecap:square;stroke-width:0.8;"/>
     </g>
     <g id="line2d_4">
      <g>
       <use style="stroke:#000000;stroke-width:0.8;" x="127.941818" xlink:href="#mc7a87cf889" y="307.584"/>
      </g>
     </g>
     <g id="text_2">
      <!-- 50 -->
      <defs>
       <path d="M 10.796875 72.90625 
L 49.515625 72.90625 
L 49.515625 64.59375 
L 19.828125 64.59375 
L 19.828125 46.734375 
Q 21.96875 47.46875 24.109375 47.828125 
Q 26.265625 48.1875 28.421875 48.1875 
Q 40.625 48.1875 47.75 41.5 
Q 54.890625 34.8125 54.890625 23.390625 
Q 54.890625 11.625 47.5625 5.09375 
Q 40.234375 -1.421875 26.90625 -1.421875 
Q 22.3125 -1.421875 17.546875 -0.640625 
Q 12.796875 0.140625 7.71875 1.703125 
L 7.71875 11.625 
Q 12.109375 9.234375 16.796875 8.0625 
Q 21.484375 6.890625 26.703125 6.890625 
Q 35.15625 6.890625 40.078125 11.328125 
Q 45.015625 15.765625 45.015625 23.390625 
Q 45.015625 31 40.078125 35.4375 
Q 35.15625 39.890625 26.703125 39.890625 
Q 22.75 39.890625 18.8125 39.015625 
Q 14.890625 38.140625 10.796875 36.28125 
z
" id="DejaVuSans-53"/>
      </defs>
      <g transform="translate(121.579318 322.182437)scale(0.1 -0.1)">
       <use xlink:href="#DejaVuSans-53"/>
       <use x="63.623047" xlink:href="#DejaVuSans-48"/>
      </g>
     </g>
    </g>
    <g id="xtick_3">
     <g id="line2d_5">
      <path clip-path="url(#p7a2d78ec40)" d="M 182.050909 307.584 
L 182.050909 41.472 
" style="fill:none;stroke:#b0b0b0;stroke-linecap:square;stroke-width:0.8;"/>
     </g>
     <g id="line2d_6">
      <g>
       <use style="stroke:#000000;stroke-width:0.8;" x="182.050909" xlink:href="#mc7a87cf889" y="307.584"/>
      </g>
     </g>
     <g id="text_3">
      <!-- 100 -->
      <defs>
       <path d="M 12.40625 8.296875 
L 28.515625 8.296875 
L 28.515625 63.921875 
L 10.984375 60.40625 
L 10.984375 69.390625 
L 28.421875 72.90625 
L 38.28125 72.90625 
L 38.28125 8.296875 
L 54.390625 8.296875 
L 54.390625 0 
L 12.40625 0 
z
" id="DejaVuSans-49"/>
      </defs>
      <g transform="translate(172.507159 322.182437)scale(0.1 -0.1)">
       <use xlink:href="#DejaVuSans-49"/>
       <use x="63.623047" xlink:href="#DejaVuSans-48"/>
       <use x="127.246094" xlink:href="#DejaVuSans-48"/>
      </g>
     </g>
    </g>
    <g id="xtick_4">
     <g id="line2d_7">
      <path clip-path="url(#p7a2d78ec40)" d="M 236.16 307.584 
L 236.16 41.472 
" style="fill:none;stroke:#b0b0b0;stroke-linecap:square;stroke-width:0.8;"/>
     </g>
     <g id="line2d_8">
      <g>
       <use style="stroke:#000000;stroke-width:0.8;" x="236.16" xlink:href="#mc7a87cf889" y="307.584"/>
      </g>
     </g>
     <g id="text_4">
      <!-- 150 -->
      <g transform="translate(226.61625 322.182437)scale(0.1 -0.1)">
       <use xlink:href="#DejaVuSans-49"/>
       <use x="63.623047" xlink:href="#DejaVuSans-53"/>
       <use x="127.246094" xlink:href="#DejaVuSans-48"/>
      </g>
     </g>
    </g>
    <g id="xtick_5">
     <g id="line2d_9">
      <path clip-path="url(#p7a2d78ec40)" d="M 290.269091 307.584 
L 290.269091 41.472 
" style="fill:none;stroke:#b0b0b0;stroke-linecap:square;stroke-width:0.8;"/>
     </g>
     <g id="line2d_10">
      <g>
       <use style="stroke:#000000;stroke-width:0.8;" x="290.269091" xlink:href="#mc7a87cf889" y="307.584"/>
      </g>
     </g>
     <g id="text_5">
      <!-- 200 -->
      <defs>
       <path d="M 19.1875 8.296875 
L 53.609375 8.296875 
L 53.609375 0 
L 7.328125 0 
L 7.328125 8.296875 
Q 12.9375 14.109375 22.625 23.890625 
Q 32.328125 33.6875 34.8125 36.53125 
Q 39.546875 41.84375 41.421875 45.53125 
Q 43.3125 49.21875 43.3125 52.78125 
Q 43.3125 58.59375 39.234375 62.25 
Q 35.15625 65.921875 28.609375 65.921875 
Q 23.96875 65.921875 18.8125 64.3125 
Q 13.671875 62.703125 7.8125 59.421875 
L 7.8125 69.390625 
Q 13.765625 71.78125 18.9375 73 
Q 24.125 74.21875 28.421875 74.21875 
Q 39.75 74.21875 46.484375 68.546875 
Q 53.21875 62.890625 53.21875 53.421875 
Q 53.21875 48.921875 51.53125 44.890625 
Q 49.859375 40.875 45.40625 35.40625 
Q 44.1875 33.984375 37.640625 27.21875 
Q 31.109375 20.453125 19.1875 8.296875 
z
" id="DejaVuSans-50"/>
      </defs>
      <g transform="translate(280.725341 322.182437)scale(0.1 -0.1)">
       <use xlink:href="#DejaVuSans-50"/>
       <use x="63.623047" xlink:href="#DejaVuSans-48"/>
       <use x="127.246094" xlink:href="#DejaVuSans-48"/>
      </g>
     </g>
    </g>
    <g id="xtick_6">
     <g id="line2d_11">
      <path clip-path="url(#p7a2d78ec40)" d="M 344.378182 307.584 
L 344.378182 41.472 
" style="fill:none;stroke:#b0b0b0;stroke-linecap:square;stroke-width:0.8;"/>
     </g>
     <g id="line2d_12">
      <g>
       <use style="stroke:#000000;stroke-width:0.8;" x="344.378182" xlink:href="#mc7a87cf889" y="307.584"/>
      </g>
     </g>
     <g id="text_6">
      <!-- 250 -->
      <g transform="translate(334.834432 322.182437)scale(0.1 -0.1)">
       <use xlink:href="#DejaVuSans-50"/>
       <use x="63.623047" xlink:href="#DejaVuSans-53"/>
       <use x="127.246094" xlink:href="#DejaVuSans-48"/>
      </g>
     </g>
    </g>
    <g id="xtick_7">
     <g id="line2d_13">
      <path clip-path="url(#p7a2d78ec40)" d="M 398.487273 307.584 
L 398.487273 41.472 
" style="fill:none;stroke:#b0b0b0;stroke-linecap:square;stroke-width:0.8;"/>
     </g>
     <g id="line2d_14">
      <g>
       <use style="stroke:#000000;stroke-width:0.8;" x="398.487273" xlink:href="#mc7a87cf889" y="307.584"/>
      </g>
     </g>
     <g id="text_7">
      <!-- 300 -->
      <defs>
       <path d="M 40.578125 39.3125 
Q 47.65625 37.796875 51.625 33 
Q 55.609375 28.21875 55.609375 21.1875 
Q 55.609375 10.40625 48.1875 4.484375 
Q 40.765625 -1.421875 27.09375 -1.421875 
Q 22.515625 -1.421875 17.65625 -0.515625 
Q 12.796875 0.390625 7.625 2.203125 
L 7.625 11.71875 
Q 11.71875 9.328125 16.59375 8.109375 
Q 21.484375 6.890625 26.8125 6.890625 
Q 36.078125 6.890625 40.9375 10.546875 
Q 45.796875 14.203125 45.796875 21.1875 
Q 45.796875 27.640625 41.28125 31.265625 
Q 36.765625 34.90625 28.71875 34.90625 
L 20.21875 34.90625 
L 20.21875 43.015625 
L 29.109375 43.015625 
Q 36.375 43.015625 40.234375 45.921875 
Q 44.09375 48.828125 44.09375 54.296875 
Q 44.09375 59.90625 40.109375 62.90625 
Q 36.140625 65.921875 28.71875 65.921875 
Q 24.65625 65.921875 20.015625 65.03125 
Q 15.375 64.15625 9.8125 62.3125 
L 9.8125 71.09375 
Q 15.4375 72.65625 20.34375 73.4375 
Q 25.25 74.21875 29.59375 74.21875 
Q 40.828125 74.21875 47.359375 69.109375 
Q 53.90625 64.015625 53.90625 55.328125 
Q 53.90625 49.265625 50.4375 45.09375 
Q 46.96875 40.921875 40.578125 39.3125 
z
" id="DejaVuSans-51"/>
      </defs>
      <g transform="translate(388.943523 322.182437)scale(0.1 -0.1)">
       <use xlink:href="#DejaVuSans-51"/>
       <use x="63.623047" xlink:href="#DejaVuSans-48"/>
       <use x="127.246094" xlink:href="#DejaVuSans-48"/>
      </g>
     </g>
    </g>
    <g id="text_8">
     <!-- Wealth -->
     <defs>
      <path d="M 3.328125 72.90625 
L 13.28125 72.90625 
L 28.609375 11.28125 
L 43.890625 72.90625 
L 54.984375 72.90625 
L 70.3125 11.28125 
L 85.59375 72.90625 
L 95.609375 72.90625 
L 77.296875 0 
L 64.890625 0 
L 49.515625 63.28125 
L 33.984375 0 
L 21.578125 0 
z
" id="DejaVuSans-87"/>
      <path d="M 56.203125 29.59375 
L 56.203125 25.203125 
L 14.890625 25.203125 
Q 15.484375 15.921875 20.484375 11.0625 
Q 25.484375 6.203125 34.421875 6.203125 
Q 39.59375 6.203125 44.453125 7.46875 
Q 49.3125 8.734375 54.109375 11.28125 
L 54.109375 2.78125 
Q 49.265625 0.734375 44.1875 -0.34375 
Q 39.109375 -1.421875 33.890625 -1.421875 
Q 20.796875 -1.421875 13.15625 6.1875 
Q 5.515625 13.8125 5.515625 26.8125 
Q 5.515625 40.234375 12.765625 48.109375 
Q 20.015625 56 32.328125 56 
Q 43.359375 56 49.78125 48.890625 
Q 56.203125 41.796875 56.203125 29.59375 
z
M 47.21875 32.234375 
Q 47.125 39.59375 43.09375 43.984375 
Q 39.0625 48.390625 32.421875 48.390625 
Q 24.90625 48.390625 20.390625 44.140625 
Q 15.875 39.890625 15.1875 32.171875 
z
" id="DejaVuSans-101"/>
      <path d="M 34.28125 27.484375 
Q 23.390625 27.484375 19.1875 25 
Q 14.984375 22.515625 14.984375 16.5 
Q 14.984375 11.71875 18.140625 8.90625 
Q 21.296875 6.109375 26.703125 6.109375 
Q 34.1875 6.109375 38.703125 11.40625 
Q 43.21875 16.703125 43.21875 25.484375 
L 43.21875 27.484375 
z
M 52.203125 31.203125 
L 52.203125 0 
L 43.21875 0 
L 43.21875 8.296875 
Q 40.140625 3.328125 35.546875 0.953125 
Q 30.953125 -1.421875 24.3125 -1.421875 
Q 15.921875 -1.421875 10.953125 3.296875 
Q 6 8.015625 6 15.921875 
Q 6 25.140625 12.171875 29.828125 
Q 18.359375 34.515625 30.609375 34.515625 
L 43.21875 34.515625 
L 43.21875 35.40625 
Q 43.21875 41.609375 39.140625 45 
Q 35.0625 48.390625 27.6875 48.390625 
Q 23 48.390625 18.546875 47.265625 
Q 14.109375 46.140625 10.015625 43.890625 
L 10.015625 52.203125 
Q 14.9375 54.109375 19.578125 55.046875 
Q 24.21875 56 28.609375 56 
Q 40.484375 56 46.34375 49.84375 
Q 52.203125 43.703125 52.203125 31.203125 
z
" id="DejaVuSans-97"/>
      <path d="M 9.421875 75.984375 
L 18.40625 75.984375 
L 18.40625 0 
L 9.421875 0 
z
" id="DejaVuSans-108"/>
      <path d="M 18.3125 70.21875 
L 18.3125 54.6875 
L 36.8125 54.6875 
L 36.8125 47.703125 
L 18.3125 47.703125 
L 18.3125 18.015625 
Q 18.3125 11.328125 20.140625 9.421875 
Q 21.96875 7.515625 27.59375 7.515625 
L 36.8125 7.515625 
L 36.8125 0 
L 27.59375 0 
Q 17.1875 0 13.234375 3.875 
Q 9.28125 7.765625 9.28125 18.015625 
L 9.28125 47.703125 
L 2.6875 47.703125 
L 2.6875 54.6875 
L 9.28125 54.6875 
L 9.28125 70.21875 
z
" id="DejaVuSans-116"/>
      <path d="M 54.890625 33.015625 
L 54.890625 0 
L 45.90625 0 
L 45.90625 32.71875 
Q 45.90625 40.484375 42.875 44.328125 
Q 39.84375 48.1875 33.796875 48.1875 
Q 26.515625 48.1875 22.3125 43.546875 
Q 18.109375 38.921875 18.109375 30.90625 
L 18.109375 0 
L 9.078125 0 
L 9.078125 75.984375 
L 18.109375 75.984375 
L 18.109375 46.1875 
Q 21.34375 51.125 25.703125 53.5625 
Q 30.078125 56 35.796875 56 
Q 45.21875 56 50.046875 50.171875 
Q 54.890625 44.34375 54.890625 33.015625 
z
" id="DejaVuSans-104"/>
     </defs>
     <g transform="translate(218.561563 335.860562)scale(0.1 -0.1)">
      <use xlink:href="#DejaVuSans-87"/>
      <use x="98.798828" xlink:href="#DejaVuSans-101"/>
      <use x="160.322266" xlink:href="#DejaVuSans-97"/>
      <use x="221.601562" xlink:href="#DejaVuSans-108"/>
      <use x="249.384766" xlink:href="#DejaVuSans-116"/>
      <use x="288.59375" xlink:href="#DejaVuSans-104"/>
     </g>
    </g>
   </g>
   <g id="matplotlib.axis_2">
    <g id="ytick_1">
     <g id="line2d_15">
      <path clip-path="url(#p7a2d78ec40)" d="M 57.6 295.488 
L 414.72 295.488 
" style="fill:none;stroke:#b0b0b0;stroke-linecap:square;stroke-width:0.8;"/>
     </g>
     <g id="line2d_16">
      <defs>
       <path d="M 0 0 
L -3.5 0 
" id="m63c8feb94a" style="stroke:#000000;stroke-width:0.8;"/>
      </defs>
      <g>
       <use style="stroke:#000000;stroke-width:0.8;" x="57.6" xlink:href="#m63c8feb94a" y="295.488"/>
      </g>
     </g>
     <g id="text_9">
      <!-- 0 -->
      <g transform="translate(44.2375 299.287219)scale(0.1 -0.1)">
       <use xlink:href="#DejaVuSans-48"/>
      </g>
     </g>
    </g>
    <g id="ytick_2">
     <g id="line2d_17">
      <path clip-path="url(#p7a2d78ec40)" d="M 57.6 250.419645 
L 414.72 250.419645 
" style="fill:none;stroke:#b0b0b0;stroke-linecap:square;stroke-width:0.8;"/>
     </g>
     <g id="line2d_18">
      <g>
       <use style="stroke:#000000;stroke-width:0.8;" x="57.6" xlink:href="#m63c8feb94a" y="250.419645"/>
      </g>
     </g>
     <g id="text_10">
      <!-- 10 -->
      <g transform="translate(37.875 254.218863)scale(0.1 -0.1)">
       <use xlink:href="#DejaVuSans-49"/>
       <use x="63.623047" xlink:href="#DejaVuSans-48"/>
      </g>
     </g>
    </g>
    <g id="ytick_3">
     <g id="line2d_19">
      <path clip-path="url(#p7a2d78ec40)" d="M 57.6 205.351289 
L 414.72 205.351289 
" style="fill:none;stroke:#b0b0b0;stroke-linecap:square;stroke-width:0.8;"/>
     </g>
     <g id="line2d_20">
      <g>
       <use style="stroke:#000000;stroke-width:0.8;" x="57.6" xlink:href="#m63c8feb94a" y="205.351289"/>
      </g>
     </g>
     <g id="text_11">
      <!-- 20 -->
      <g transform="translate(37.875 209.150508)scale(0.1 -0.1)">
       <use xlink:href="#DejaVuSans-50"/>
       <use x="63.623047" xlink:href="#DejaVuSans-48"/>
      </g>
     </g>
    </g>
    <g id="ytick_4">
     <g id="line2d_21">
      <path clip-path="url(#p7a2d78ec40)" d="M 57.6 160.282934 
L 414.72 160.282934 
" style="fill:none;stroke:#b0b0b0;stroke-linecap:square;stroke-width:0.8;"/>
     </g>
     <g id="line2d_22">
      <g>
       <use style="stroke:#000000;stroke-width:0.8;" x="57.6" xlink:href="#m63c8feb94a" y="160.282934"/>
      </g>
     </g>
     <g id="text_12">
      <!-- 30 -->
      <g transform="translate(37.875 164.082153)scale(0.1 -0.1)">
       <use xlink:href="#DejaVuSans-51"/>
       <use x="63.623047" xlink:href="#DejaVuSans-48"/>
      </g>
     </g>
    </g>
    <g id="ytick_5">
     <g id="line2d_23">
      <path clip-path="url(#p7a2d78ec40)" d="M 57.6 115.214578 
L 414.72 115.214578 
" style="fill:none;stroke:#b0b0b0;stroke-linecap:square;stroke-width:0.8;"/>
     </g>
     <g id="line2d_24">
      <g>
       <use style="stroke:#000000;stroke-width:0.8;" x="57.6" xlink:href="#m63c8feb94a" y="115.214578"/>
      </g>
     </g>
     <g id="text_13">
      <!-- 40 -->
      <defs>
       <path d="M 37.796875 64.3125 
L 12.890625 25.390625 
L 37.796875 25.390625 
z
M 35.203125 72.90625 
L 47.609375 72.90625 
L 47.609375 25.390625 
L 58.015625 25.390625 
L 58.015625 17.1875 
L 47.609375 17.1875 
L 47.609375 0 
L 37.796875 0 
L 37.796875 17.1875 
L 4.890625 17.1875 
L 4.890625 26.703125 
z
" id="DejaVuSans-52"/>
      </defs>
      <g transform="translate(37.875 119.013797)scale(0.1 -0.1)">
       <use xlink:href="#DejaVuSans-52"/>
       <use x="63.623047" xlink:href="#DejaVuSans-48"/>
      </g>
     </g>
    </g>
    <g id="ytick_6">
     <g id="line2d_25">
      <path clip-path="url(#p7a2d78ec40)" d="M 57.6 70.146223 
L 414.72 70.146223 
" style="fill:none;stroke:#b0b0b0;stroke-linecap:square;stroke-width:0.8;"/>
     </g>
     <g id="line2d_26">
      <g>
       <use style="stroke:#000000;stroke-width:0.8;" x="57.6" xlink:href="#m63c8feb94a" y="70.146223"/>
      </g>
     </g>
     <g id="text_14">
      <!-- 50 -->
      <g transform="translate(37.875 73.945442)scale(0.1 -0.1)">
       <use xlink:href="#DejaVuSans-53"/>
       <use x="63.623047" xlink:href="#DejaVuSans-48"/>
      </g>
     </g>
    </g>
    <g id="text_15">
     <!-- Consumption -->
     <defs>
      <path d="M 64.40625 67.28125 
L 64.40625 56.890625 
Q 59.421875 61.53125 53.78125 63.8125 
Q 48.140625 66.109375 41.796875 66.109375 
Q 29.296875 66.109375 22.65625 58.46875 
Q 16.015625 50.828125 16.015625 36.375 
Q 16.015625 21.96875 22.65625 14.328125 
Q 29.296875 6.6875 41.796875 6.6875 
Q 48.140625 6.6875 53.78125 8.984375 
Q 59.421875 11.28125 64.40625 15.921875 
L 64.40625 5.609375 
Q 59.234375 2.09375 53.4375 0.328125 
Q 47.65625 -1.421875 41.21875 -1.421875 
Q 24.65625 -1.421875 15.125 8.703125 
Q 5.609375 18.84375 5.609375 36.375 
Q 5.609375 53.953125 15.125 64.078125 
Q 24.65625 74.21875 41.21875 74.21875 
Q 47.75 74.21875 53.53125 72.484375 
Q 59.328125 70.75 64.40625 67.28125 
z
" id="DejaVuSans-67"/>
      <path d="M 30.609375 48.390625 
Q 23.390625 48.390625 19.1875 42.75 
Q 14.984375 37.109375 14.984375 27.296875 
Q 14.984375 17.484375 19.15625 11.84375 
Q 23.34375 6.203125 30.609375 6.203125 
Q 37.796875 6.203125 41.984375 11.859375 
Q 46.1875 17.53125 46.1875 27.296875 
Q 46.1875 37.015625 41.984375 42.703125 
Q 37.796875 48.390625 30.609375 48.390625 
z
M 30.609375 56 
Q 42.328125 56 49.015625 48.375 
Q 55.71875 40.765625 55.71875 27.296875 
Q 55.71875 13.875 49.015625 6.21875 
Q 42.328125 -1.421875 30.609375 -1.421875 
Q 18.84375 -1.421875 12.171875 6.21875 
Q 5.515625 13.875 5.515625 27.296875 
Q 5.515625 40.765625 12.171875 48.375 
Q 18.84375 56 30.609375 56 
z
" id="DejaVuSans-111"/>
      <path d="M 54.890625 33.015625 
L 54.890625 0 
L 45.90625 0 
L 45.90625 32.71875 
Q 45.90625 40.484375 42.875 44.328125 
Q 39.84375 48.1875 33.796875 48.1875 
Q 26.515625 48.1875 22.3125 43.546875 
Q 18.109375 38.921875 18.109375 30.90625 
L 18.109375 0 
L 9.078125 0 
L 9.078125 54.6875 
L 18.109375 54.6875 
L 18.109375 46.1875 
Q 21.34375 51.125 25.703125 53.5625 
Q 30.078125 56 35.796875 56 
Q 45.21875 56 50.046875 50.171875 
Q 54.890625 44.34375 54.890625 33.015625 
z
" id="DejaVuSans-110"/>
      <path d="M 44.28125 53.078125 
L 44.28125 44.578125 
Q 40.484375 46.53125 36.375 47.5 
Q 32.28125 48.484375 27.875 48.484375 
Q 21.1875 48.484375 17.84375 46.4375 
Q 14.5 44.390625 14.5 40.28125 
Q 14.5 37.15625 16.890625 35.375 
Q 19.28125 33.59375 26.515625 31.984375 
L 29.59375 31.296875 
Q 39.15625 29.25 43.1875 25.515625 
Q 47.21875 21.78125 47.21875 15.09375 
Q 47.21875 7.46875 41.1875 3.015625 
Q 35.15625 -1.421875 24.609375 -1.421875 
Q 20.21875 -1.421875 15.453125 -0.5625 
Q 10.6875 0.296875 5.421875 2 
L 5.421875 11.28125 
Q 10.40625 8.6875 15.234375 7.390625 
Q 20.0625 6.109375 24.8125 6.109375 
Q 31.15625 6.109375 34.5625 8.28125 
Q 37.984375 10.453125 37.984375 14.40625 
Q 37.984375 18.0625 35.515625 20.015625 
Q 33.0625 21.96875 24.703125 23.78125 
L 21.578125 24.515625 
Q 13.234375 26.265625 9.515625 29.90625 
Q 5.8125 33.546875 5.8125 39.890625 
Q 5.8125 47.609375 11.28125 51.796875 
Q 16.75 56 26.8125 56 
Q 31.78125 56 36.171875 55.265625 
Q 40.578125 54.546875 44.28125 53.078125 
z
" id="DejaVuSans-115"/>
      <path d="M 8.5 21.578125 
L 8.5 54.6875 
L 17.484375 54.6875 
L 17.484375 21.921875 
Q 17.484375 14.15625 20.5 10.265625 
Q 23.53125 6.390625 29.59375 6.390625 
Q 36.859375 6.390625 41.078125 11.03125 
Q 45.3125 15.671875 45.3125 23.6875 
L 45.3125 54.6875 
L 54.296875 54.6875 
L 54.296875 0 
L 45.3125 0 
L 45.3125 8.40625 
Q 42.046875 3.421875 37.71875 1 
Q 33.40625 -1.421875 27.6875 -1.421875 
Q 18.265625 -1.421875 13.375 4.4375 
Q 8.5 10.296875 8.5 21.578125 
z
M 31.109375 56 
z
" id="DejaVuSans-117"/>
      <path d="M 52 44.1875 
Q 55.375 50.25 60.0625 53.125 
Q 64.75 56 71.09375 56 
Q 79.640625 56 84.28125 50.015625 
Q 88.921875 44.046875 88.921875 33.015625 
L 88.921875 0 
L 79.890625 0 
L 79.890625 32.71875 
Q 79.890625 40.578125 77.09375 44.375 
Q 74.3125 48.1875 68.609375 48.1875 
Q 61.625 48.1875 57.5625 43.546875 
Q 53.515625 38.921875 53.515625 30.90625 
L 53.515625 0 
L 44.484375 0 
L 44.484375 32.71875 
Q 44.484375 40.625 41.703125 44.40625 
Q 38.921875 48.1875 33.109375 48.1875 
Q 26.21875 48.1875 22.15625 43.53125 
Q 18.109375 38.875 18.109375 30.90625 
L 18.109375 0 
L 9.078125 0 
L 9.078125 54.6875 
L 18.109375 54.6875 
L 18.109375 46.1875 
Q 21.1875 51.21875 25.484375 53.609375 
Q 29.78125 56 35.6875 56 
Q 41.65625 56 45.828125 52.96875 
Q 50 49.953125 52 44.1875 
z
" id="DejaVuSans-109"/>
      <path d="M 18.109375 8.203125 
L 18.109375 -20.796875 
L 9.078125 -20.796875 
L 9.078125 54.6875 
L 18.109375 54.6875 
L 18.109375 46.390625 
Q 20.953125 51.265625 25.265625 53.625 
Q 29.59375 56 35.59375 56 
Q 45.5625 56 51.78125 48.09375 
Q 58.015625 40.1875 58.015625 27.296875 
Q 58.015625 14.40625 51.78125 6.484375 
Q 45.5625 -1.421875 35.59375 -1.421875 
Q 29.59375 -1.421875 25.265625 0.953125 
Q 20.953125 3.328125 18.109375 8.203125 
z
M 48.6875 27.296875 
Q 48.6875 37.203125 44.609375 42.84375 
Q 40.53125 48.484375 33.40625 48.484375 
Q 26.265625 48.484375 22.1875 42.84375 
Q 18.109375 37.203125 18.109375 27.296875 
Q 18.109375 17.390625 22.1875 11.75 
Q 26.265625 6.109375 33.40625 6.109375 
Q 40.53125 6.109375 44.609375 11.75 
Q 48.6875 17.390625 48.6875 27.296875 
z
" id="DejaVuSans-112"/>
      <path d="M 9.421875 54.6875 
L 18.40625 54.6875 
L 18.40625 0 
L 9.421875 0 
z
M 9.421875 75.984375 
L 18.40625 75.984375 
L 18.40625 64.59375 
L 9.421875 64.59375 
z
" id="DejaVuSans-105"/>
     </defs>
     <g transform="translate(31.795312 207.642844)rotate(-90)scale(0.1 -0.1)">
      <use xlink:href="#DejaVuSans-67"/>
      <use x="69.824219" xlink:href="#DejaVuSans-111"/>
      <use x="131.005859" xlink:href="#DejaVuSans-110"/>
      <use x="194.384766" xlink:href="#DejaVuSans-115"/>
      <use x="246.484375" xlink:href="#DejaVuSans-117"/>
      <use x="309.863281" xlink:href="#DejaVuSans-109"/>
      <use x="407.275391" xlink:href="#DejaVuSans-112"/>
      <use x="470.751953" xlink:href="#DejaVuSans-116"/>
      <use x="509.960938" xlink:href="#DejaVuSans-105"/>
      <use x="537.744141" xlink:href="#DejaVuSans-111"/>
      <use x="598.925781" xlink:href="#DejaVuSans-110"/>
     </g>
    </g>
   </g>
   <g id="line2d_27">
    <path clip-path="url(#p7a2d78ec40)" d="M 73.832727 295.488 
L 77.112066 281.84828 
L 80.391405 268.208561 
L 83.670744 254.568841 
L 86.950083 240.929121 
L 90.229421 229.172726 
L 93.50876 228.171658 
L 96.788099 227.194789 
L 100.067438 226.239724 
L 103.346777 225.304447 
L 106.626116 224.387272 
L 109.905455 223.486721 
L 113.184793 222.60153 
L 116.464132 221.730559 
L 119.743471 220.87289 
L 123.02281 220.027605 
L 126.302149 219.193905 
L 129.581488 218.371152 
L 132.860826 217.558703 
L 136.140165 216.755962 
L 139.419504 215.962362 
L 142.698843 215.177575 
L 145.978182 214.40103 
L 149.257521 213.632407 
L 152.53686 212.87128 
L 155.816198 212.117379 
L 159.095537 211.370294 
L 162.374876 210.62978 
L 165.654215 209.895589 
L 168.933554 209.167482 
L 172.212893 208.445108 
L 175.492231 207.728293 
L 178.77157 207.016972 
L 182.050909 206.310786 
L 185.330248 205.609559 
L 188.609587 204.913123 
L 191.888926 204.221263 
L 195.168264 203.534044 
L 198.447603 202.851194 
L 201.726942 202.17235 
L 205.006281 201.497769 
L 208.28562 200.826994 
L 211.564959 200.160164 
L 214.844298 199.496786 
L 218.123636 198.837372 
L 221.402975 198.181222 
L 224.682314 197.528297 
L 227.961653 196.879028 
L 231.240992 196.232904 
L 234.520331 195.589809 
L 237.799669 194.949684 
L 241.079008 194.312482 
L 244.358347 193.678146 
L 247.637686 193.046634 
L 250.917025 192.417886 
L 254.196364 191.791809 
L 257.475702 191.168317 
L 260.755041 190.547324 
L 264.03438 189.928784 
L 267.313719 189.312725 
L 270.593058 188.699041 
L 273.872397 188.087596 
L 277.151736 187.478289 
L 280.431074 186.871289 
L 283.710413 186.266543 
L 286.989752 185.663696 
L 290.269091 185.062652 
L 293.54843 184.463443 
L 296.827769 183.866822 
L 300.107107 183.271846 
L 303.386446 182.678386 
L 306.665785 182.08712 
L 309.945124 181.497504 
L 313.224463 180.90909 
L 316.503802 180.322735 
L 319.78314 179.738032 
L 323.062479 179.154445 
L 326.341818 178.574694 
L 329.621157 177.995848 
L 332.900496 177.418696 
L 336.179835 176.843013 
L 339.459174 176.268157 
L 342.738512 175.69519 
L 346.017851 175.122627 
L 349.29719 174.551968 
L 352.576529 173.981757 
L 355.855868 173.413197 
L 359.135207 172.845258 
L 362.414545 172.278831 
L 365.693884 171.713003 
L 368.973223 171.148521 
L 372.252562 170.584521 
L 375.531901 170.021878 
L 378.81124 169.459499 
L 382.090579 168.898624 
L 385.369917 168.337748 
L 388.649256 167.778647 
L 391.928595 167.2196 
L 395.207934 166.661828 
L 398.487273 166.104551 
" style="fill:none;stroke:#1f77b4;stroke-linecap:square;stroke-width:1.5;"/>
   </g>
   <g id="line2d_28">
    <path clip-path="url(#p7a2d78ec40)" d="M 73.832727 295.488 
L 77.112066 281.849086 
L 80.391405 268.210173 
L 83.670744 254.571259 
L 86.950083 240.932346 
L 90.229421 227.293432 
L 93.50876 213.654519 
L 96.788099 206.26362 
L 100.067438 205.335307 
L 103.346777 204.420983 
L 106.626116 203.51972 
L 109.905455 202.630688 
L 113.184793 201.753169 
L 116.464132 200.88647 
L 119.743471 200.030009 
L 123.02281 199.183245 
L 126.302149 198.345661 
L 129.581488 197.516823 
L 132.860826 196.696305 
L 136.140165 195.883702 
L 139.419504 195.078649 
L 142.698843 194.280871 
L 145.978182 193.490037 
L 149.257521 192.705815 
L 152.53686 191.92799 
L 155.816198 191.15632 
L 159.095537 190.390556 
L 162.374876 189.630448 
L 165.654215 188.875783 
L 168.933554 188.126442 
L 172.212893 187.382225 
L 175.492231 186.64294 
L 178.77157 185.908302 
L 182.050909 185.178422 
L 185.330248 184.45291 
L 188.609587 183.731695 
L 191.888926 183.014782 
L 195.168264 182.301889 
L 198.447603 181.592904 
L 201.726942 180.887725 
L 205.006281 180.186353 
L 208.28562 179.48863 
L 211.564959 178.794336 
L 214.844298 178.103405 
L 218.123636 177.416003 
L 221.402975 176.731563 
L 224.682314 176.050627 
L 227.961653 175.372477 
L 231.240992 174.697539 
L 234.520331 174.025463 
L 237.799669 173.356077 
L 241.079008 172.689681 
L 244.358347 172.026015 
L 247.637686 171.364938 
L 250.917025 170.706405 
L 254.196364 170.050378 
L 257.475702 169.396818 
L 260.755041 168.745822 
L 264.03438 168.097171 
L 267.313719 167.450812 
L 270.593058 166.8067 
L 273.872397 166.164798 
L 277.151736 165.525041 
L 280.431074 164.88747 
L 283.710413 164.252077 
L 286.989752 163.618715 
L 290.269091 162.987321 
L 293.54843 162.357834 
L 296.827769 161.730184 
L 300.107107 161.104304 
L 303.386446 160.480425 
L 306.665785 159.858559 
L 309.945124 159.238312 
L 313.224463 158.619602 
L 316.503802 158.002585 
L 319.78314 157.387609 
L 323.062479 156.774017 
L 326.341818 156.161732 
L 329.621157 155.551675 
L 332.900496 154.943001 
L 336.179835 154.335461 
L 339.459174 153.730038 
L 342.738512 153.125817 
L 346.017851 152.522691 
L 349.29719 151.921649 
L 352.576529 151.321403 
L 355.855868 150.722749 
L 359.135207 150.125405 
L 362.414545 149.528957 
L 365.693884 148.934474 
L 368.973223 148.340481 
L 372.252562 147.748602 
L 375.531901 147.157227 
L 378.81124 146.567497 
L 382.090579 145.9785 
L 385.369917 145.390897 
L 388.649256 144.804127 
L 391.928595 144.218606 
L 395.207934 143.6339 
L 398.487273 143.050422 
" style="fill:none;stroke:#ff7f0e;stroke-linecap:square;stroke-width:1.5;"/>
   </g>
   <g id="line2d_29">
    <path clip-path="url(#p7a2d78ec40)" d="M 73.832727 295.488 
L 77.112066 281.850133 
L 80.391405 268.212265 
L 83.670744 254.574398 
L 86.950083 240.93653 
L 90.229421 227.298663 
L 93.50876 213.660796 
L 96.788099 204.01721 
L 100.067438 203.030195 
L 103.346777 202.057567 
L 106.626116 201.0984 
L 109.905455 200.151865 
L 113.184793 199.217226 
L 116.464132 198.293789 
L 119.743471 197.380976 
L 123.02281 196.47821 
L 126.302149 195.584991 
L 129.581488 194.70084 
L 132.860826 193.825348 
L 136.140165 192.958109 
L 139.419504 192.09873 
L 142.698843 191.246929 
L 145.978182 190.402353 
L 149.257521 189.564741 
L 152.53686 188.733777 
L 155.816198 187.909197 
L 159.095537 187.090752 
L 162.374876 186.278339 
L 165.654215 185.471595 
L 168.933554 184.670353 
L 172.212893 183.874494 
L 175.492231 183.083755 
L 178.77157 182.297909 
L 182.050909 181.517074 
L 185.330248 180.740745 
L 188.609587 179.969047 
L 191.888926 179.20172 
L 195.168264 178.43863 
L 198.447603 177.679665 
L 201.726942 176.924712 
L 205.006281 176.173631 
L 208.28562 175.426289 
L 211.564959 174.682696 
L 214.844298 173.942766 
L 218.123636 173.206177 
L 221.402975 172.473089 
L 224.682314 171.743255 
L 227.961653 171.01666 
L 231.240992 170.293127 
L 234.520331 169.57284 
L 237.799669 168.855329 
L 241.079008 168.140822 
L 244.358347 167.429277 
L 247.637686 166.720391 
L 250.917025 166.014124 
L 254.196364 165.310451 
L 257.475702 164.609624 
L 260.755041 163.911313 
L 264.03438 163.215426 
L 267.313719 162.521943 
L 270.593058 161.83082 
L 273.872397 161.141989 
L 277.151736 160.455392 
L 280.431074 159.770991 
L 283.710413 159.088758 
L 286.989752 158.408635 
L 290.269091 157.730537 
L 293.54843 157.054624 
L 296.827769 156.380771 
L 300.107107 155.708819 
L 303.386446 155.038671 
L 306.665785 154.370257 
L 309.945124 153.703535 
L 313.224463 153.039234 
L 316.503802 152.376627 
L 319.78314 151.715574 
L 323.062479 151.055962 
L 326.341818 150.398628 
L 329.621157 149.742677 
L 332.900496 149.088008 
L 336.179835 148.435246 
L 339.459174 147.783939 
L 342.738512 147.133693 
L 346.017851 146.485408 
L 349.29719 145.838492 
L 352.576529 145.192563 
L 355.855868 144.548816 
L 359.135207 143.905813 
L 362.414545 143.264229 
L 365.693884 142.623999 
L 368.973223 141.98455 
L 372.252562 141.346983 
L 375.531901 140.70985 
L 378.81124 140.074521 
L 382.090579 139.440186 
L 385.369917 138.808614 
L 388.649256 138.17803 
L 391.928595 137.549104 
L 395.207934 136.921019 
L 398.487273 136.294057 
" style="fill:none;stroke:#2ca02c;stroke-linecap:square;stroke-width:1.5;"/>
   </g>
   <g id="line2d_30">
    <path clip-path="url(#p7a2d78ec40)" d="M 73.832727 295.488 
L 77.112066 281.850154 
L 80.391405 268.212308 
L 83.670744 254.574462 
L 86.950083 240.936616 
L 90.229421 227.29877 
L 93.50876 213.660924 
L 96.788099 208.580565 
L 100.067438 207.451088 
L 103.346777 206.340858 
L 106.626116 205.248417 
L 109.905455 204.172479 
L 113.184793 203.111934 
L 116.464132 202.065772 
L 119.743471 201.033128 
L 123.02281 200.013191 
L 126.302149 199.005239 
L 129.581488 198.008626 
L 132.860826 197.022741 
L 136.140165 196.047099 
L 139.419504 195.081147 
L 142.698843 194.124469 
L 145.978182 193.176644 
L 149.257521 192.237245 
L 152.53686 191.305962 
L 155.816198 190.382467 
L 159.095537 189.466441 
L 162.374876 188.557545 
L 165.654215 187.65552 
L 168.933554 186.760185 
L 172.212893 185.871284 
L 175.492231 184.98855 
L 178.77157 184.111691 
L 182.050909 183.240789 
L 185.330248 182.375368 
L 188.609587 181.515293 
L 191.888926 180.660577 
L 195.168264 179.810939 
L 198.447603 178.966211 
L 201.726942 178.126207 
L 205.006281 177.291004 
L 208.28562 176.460338 
L 211.564959 175.633953 
L 214.844298 174.811741 
L 218.123636 173.993971 
L 221.402975 173.179909 
L 224.682314 172.370141 
L 227.961653 171.56388 
L 231.240992 170.761727 
L 234.520331 169.963011 
L 237.799669 169.167703 
L 241.079008 168.376265 
L 244.358347 167.588009 
L 247.637686 166.802965 
L 250.917025 166.021149 
L 254.196364 165.242501 
L 257.475702 164.467054 
L 260.755041 163.694569 
L 264.03438 162.925037 
L 267.313719 162.158302 
L 270.593058 161.394288 
L 273.872397 160.633095 
L 277.151736 159.874755 
L 280.431074 159.119063 
L 283.710413 158.365771 
L 286.989752 157.614928 
L 290.269091 156.866836 
L 293.54843 156.121137 
L 296.827769 155.377611 
L 300.107107 154.636161 
L 303.386446 153.896788 
L 306.665785 153.159819 
L 309.945124 152.425556 
L 313.224463 151.693079 
L 316.503802 150.962267 
L 319.78314 150.233251 
L 323.062479 149.506713 
L 326.341818 148.78176 
L 329.621157 148.058271 
L 332.900496 147.337065 
L 336.179835 146.618112 
L 339.459174 145.901027 
L 342.738512 145.187487 
L 346.017851 144.475096 
L 349.29719 143.763983 
L 352.576529 143.054707 
L 355.855868 142.346201 
L 359.135207 141.639515 
L 362.414545 140.934021 
L 365.693884 140.22969 
L 368.973223 139.526932 
L 372.252562 138.824679 
L 375.531901 138.12436 
L 378.81124 137.424356 
L 382.090579 136.72625 
L 385.369917 136.02856 
L 388.649256 135.332472 
L 391.928595 134.636851 
L 395.207934 133.942637 
L 398.487273 133.248864 
" style="fill:none;stroke:#d62728;stroke-linecap:square;stroke-width:1.5;"/>
   </g>
   <g id="line2d_31">
    <path clip-path="url(#p7a2d78ec40)" d="M 73.832727 295.488 
L 77.112066 281.844564 
L 80.391405 268.201128 
L 83.670744 254.557692 
L 86.950083 240.914256 
L 90.229421 227.270819 
L 93.50876 213.627383 
L 96.788099 199.983947 
L 100.067438 186.340511 
L 103.346777 180.987272 
L 106.626116 179.156644 
L 109.905455 177.509651 
L 113.184793 175.959472 
L 116.464132 174.474353 
L 119.743471 173.03791 
L 123.02281 171.640352 
L 126.302149 170.275197 
L 129.581488 168.93792 
L 132.860826 167.625095 
L 136.140165 166.334124 
L 139.419504 165.062853 
L 142.698843 163.80973 
L 145.978182 162.573267 
L 149.257521 161.352221 
L 152.53686 160.145483 
L 155.816198 158.952356 
L 159.095537 157.771836 
L 162.374876 156.603247 
L 165.654215 155.44615 
L 168.933554 154.299639 
L 172.212893 153.163492 
L 175.492231 152.037056 
L 178.77157 150.91992 
L 182.050909 149.811864 
L 185.330248 148.712184 
L 188.609587 147.62084 
L 191.888926 146.537159 
L 195.168264 145.461222 
L 198.447603 144.392589 
L 201.726942 143.330967 
L 205.006281 142.276145 
L 208.28562 141.227825 
L 211.564959 140.185825 
L 214.844298 139.150231 
L 218.123636 138.120457 
L 221.402975 137.096162 
L 224.682314 136.077889 
L 227.961653 135.064665 
L 231.240992 134.05707 
L 234.520331 133.054134 
L 237.799669 132.056753 
L 241.079008 131.063858 
L 244.358347 130.075471 
L 247.637686 129.092149 
L 250.917025 128.113105 
L 254.196364 127.138285 
L 257.475702 126.167634 
L 260.755041 125.201096 
L 264.03438 124.238855 
L 267.313719 123.280599 
L 270.593058 122.326138 
L 273.872397 121.375421 
L 277.151736 120.428402 
L 280.431074 119.484994 
L 283.710413 118.545083 
L 286.989752 117.608548 
L 290.269091 116.675498 
L 293.54843 115.745888 
L 296.827769 114.819436 
L 300.107107 113.896111 
L 303.386446 112.975895 
L 306.665785 112.058711 
L 309.945124 111.144536 
L 313.224463 110.23397 
L 316.503802 109.326057 
L 319.78314 108.420631 
L 323.062479 107.517573 
L 326.341818 106.618113 
L 329.621157 105.720897 
L 332.900496 104.825861 
L 336.179835 103.93438 
L 339.459174 103.045909 
L 342.738512 102.159503 
L 346.017851 101.276359 
L 349.29719 100.39541 
L 352.576529 99.515897 
L 355.855868 98.639816 
L 359.135207 97.765039 
L 362.414545 96.892466 
L 365.693884 96.02238 
L 368.973223 95.153455 
L 372.252562 94.288469 
L 375.531901 93.424687 
L 378.81124 92.566084 
L 382.090579 91.709062 
L 385.369917 90.855385 
L 388.649256 90.003099 
L 391.928595 89.15265 
L 395.207934 88.303695 
L 398.487273 87.456324 
" style="fill:none;stroke:#9467bd;stroke-linecap:square;stroke-width:1.5;"/>
   </g>
   <g id="line2d_32">
    <path clip-path="url(#p7a2d78ec40)" d="M 73.832727 295.488 
L 77.112066 281.844496 
L 80.391405 268.200992 
L 83.670744 254.557489 
L 86.950083 240.913985 
L 90.229421 227.270481 
L 93.50876 217.075345 
L 96.788099 214.399737 
L 100.067438 212.270397 
L 103.346777 210.356376 
L 106.626116 208.569537 
L 109.905455 206.870838 
L 113.184793 205.238926 
L 116.464132 203.660433 
L 119.743471 202.126427 
L 123.02281 200.630374 
L 126.302149 199.167384 
L 129.581488 197.733507 
L 132.860826 196.325592 
L 136.140165 194.941247 
L 139.419504 193.577924 
L 142.698843 192.233826 
L 145.978182 190.9076 
L 149.257521 189.597523 
L 152.53686 188.302508 
L 155.816198 187.021308 
L 159.095537 185.753096 
L 162.374876 184.496858 
L 165.654215 183.251914 
L 168.933554 182.017577 
L 172.212893 180.7932 
L 175.492231 179.57808 
L 178.77157 178.371756 
L 182.050909 177.174027 
L 185.330248 175.984168 
L 188.609587 174.801856 
L 191.888926 173.626698 
L 195.168264 172.458444 
L 198.447603 171.297139 
L 201.726942 170.141983 
L 205.006281 168.992534 
L 208.28562 167.849608 
L 211.564959 166.711851 
L 214.844298 165.580039 
L 218.123636 164.452974 
L 221.402975 163.331151 
L 224.682314 162.214576 
L 227.961653 161.103132 
L 231.240992 159.99632 
L 234.520331 158.89432 
L 237.799669 157.796251 
L 241.079008 156.70195 
L 244.358347 155.61262 
L 247.637686 154.529647 
L 250.917025 153.451548 
L 254.196364 152.377016 
L 257.475702 151.305613 
L 260.755041 150.237063 
L 264.03438 149.171198 
L 267.313719 148.10803 
L 270.593058 147.048146 
L 273.872397 145.992385 
L 277.151736 144.939914 
L 280.431074 143.890264 
L 283.710413 142.84272 
L 286.989752 141.797069 
L 290.269091 140.753145 
L 293.54843 139.7113 
L 296.827769 138.671745 
L 300.107107 137.634171 
L 303.386446 136.598544 
L 306.665785 135.565918 
L 309.945124 134.534618 
L 313.224463 133.504525 
L 316.503802 132.476535 
L 319.78314 131.449533 
L 323.062479 130.423576 
L 326.341818 129.399556 
L 329.621157 128.37637 
L 332.900496 127.355011 
L 336.179835 126.334899 
L 339.459174 125.315807 
L 342.738512 124.298346 
L 346.017851 123.281288 
L 349.29719 122.266077 
L 352.576529 121.251096 
L 355.855868 120.237525 
L 359.135207 119.224338 
L 362.414545 118.212506 
L 365.693884 117.201104 
L 368.973223 116.191054 
L 372.252562 115.181326 
L 375.531901 114.172907 
L 378.81124 113.164614 
L 382.090579 112.15763 
L 385.369917 111.150647 
L 388.649256 110.144837 
L 391.928595 109.139145 
L 395.207934 108.134314 
L 398.487273 107.129932 
" style="fill:none;stroke:#8c564b;stroke-linecap:square;stroke-width:1.5;"/>
   </g>
   <g id="line2d_33">
    <path clip-path="url(#p7a2d78ec40)" d="M 73.832727 295.488 
L 77.112066 281.844337 
L 80.391405 268.200675 
L 83.670744 254.557012 
L 86.950083 240.91335 
L 90.229421 227.269687 
L 93.50876 215.91172 
L 96.788099 211.909557 
L 100.067438 208.90195 
L 103.346777 206.283075 
L 106.626116 203.890347 
L 109.905455 201.650731 
L 113.184793 199.522608 
L 116.464132 197.477118 
L 119.743471 195.492395 
L 123.02281 193.551973 
L 126.302149 191.644171 
L 129.581488 189.761443 
L 132.860826 187.898663 
L 136.140165 186.052686 
L 139.419504 184.221293 
L 142.698843 182.40309 
L 145.978182 180.596954 
L 149.257521 178.802137 
L 152.53686 177.017911 
L 155.816198 175.243542 
L 159.095537 173.478737 
L 162.374876 171.722921 
L 165.654215 169.97559 
L 168.933554 168.236499 
L 172.212893 166.50541 
L 175.492231 164.781592 
L 178.77157 163.065507 
L 182.050909 161.357162 
L 185.330248 159.655366 
L 188.609587 157.959593 
L 191.888926 156.274329 
L 195.168264 154.596846 
L 198.447603 152.924494 
L 201.726942 151.256516 
L 205.006281 149.592069 
L 208.28562 147.932102 
L 211.564959 146.277755 
L 214.844298 144.626745 
L 218.123636 142.978968 
L 221.402975 141.333263 
L 224.682314 139.689675 
L 227.961653 138.048764 
L 231.240992 136.410234 
L 234.520331 134.773733 
L 237.799669 133.138912 
L 241.079008 131.505473 
L 244.358347 129.873086 
L 247.637686 128.241851 
L 250.917025 126.611832 
L 254.196364 124.98291 
L 257.475702 123.3549 
L 260.755041 121.72764 
L 264.03438 120.100966 
L 267.313719 118.474764 
L 270.593058 116.849035 
L 273.872397 115.223844 
L 277.151736 113.599201 
L 280.431074 111.974953 
L 283.710413 110.351002 
L 286.989752 108.727263 
L 290.269091 107.103668 
L 293.54843 105.480324 
L 296.827769 103.857179 
L 300.107107 102.234207 
L 303.386446 100.611411 
L 306.665785 98.988781 
L 309.945124 97.366196 
L 313.224463 95.743645 
L 316.503802 94.121173 
L 319.78314 92.498758 
L 323.062479 90.876405 
L 326.341818 89.254158 
L 329.621157 87.631941 
L 332.900496 86.009772 
L 336.179835 84.387596 
L 339.459174 82.765415 
L 342.738512 81.143258 
L 346.017851 79.521109 
L 349.29719 77.899001 
L 352.576529 76.276902 
L 355.855868 74.65483 
L 359.135207 73.03276 
L 362.414545 71.410694 
L 365.693884 69.788625 
L 368.973223 68.166554 
L 372.252562 66.54448 
L 375.531901 64.922404 
L 378.81124 63.300334 
L 382.090579 61.678275 
L 385.369917 60.056218 
L 388.649256 58.434164 
L 391.928595 56.81211 
L 395.207934 55.190055 
L 398.487273 53.568 
" style="fill:none;stroke:#e377c2;stroke-linecap:square;stroke-width:1.5;"/>
   </g>
   <g id="patch_3">
    <path d="M 57.6 307.584 
L 57.6 41.472 
" style="fill:none;stroke:#000000;stroke-linecap:square;stroke-linejoin:miter;stroke-width:0.8;"/>
   </g>
   <g id="patch_4">
    <path d="M 414.72 307.584 
L 414.72 41.472 
" style="fill:none;stroke:#000000;stroke-linecap:square;stroke-linejoin:miter;stroke-width:0.8;"/>
   </g>
   <g id="patch_5">
    <path d="M 57.6 307.584 
L 414.72 307.584 
" style="fill:none;stroke:#000000;stroke-linecap:square;stroke-linejoin:miter;stroke-width:0.8;"/>
   </g>
   <g id="patch_6">
    <path d="M 57.6 41.472 
L 414.72 41.472 
" style="fill:none;stroke:#000000;stroke-linecap:square;stroke-linejoin:miter;stroke-width:0.8;"/>
   </g>
   <g id="legend_1">
    <g id="patch_7">
     <path d="M 64.6 152.218875 
L 143.403125 152.218875 
Q 145.403125 152.218875 145.403125 150.218875 
L 145.403125 48.472 
Q 145.403125 46.472 143.403125 46.472 
L 64.6 46.472 
Q 62.6 46.472 62.6 48.472 
L 62.6 150.218875 
Q 62.6 152.218875 64.6 152.218875 
z
" style="fill:#ffffff;opacity:0.8;stroke:#cccccc;stroke-linejoin:miter;"/>
    </g>
    <g id="line2d_34">
     <path d="M 66.6 54.570438 
L 86.6 54.570438 
" style="fill:none;stroke:#1f77b4;stroke-linecap:square;stroke-width:1.5;"/>
    </g>
    <g id="line2d_35"/>
    <g id="text_16">
     <!-- Age = 30 -->
     <defs>
      <path d="M 34.1875 63.1875 
L 20.796875 26.90625 
L 47.609375 26.90625 
z
M 28.609375 72.90625 
L 39.796875 72.90625 
L 67.578125 0 
L 57.328125 0 
L 50.6875 18.703125 
L 17.828125 18.703125 
L 11.1875 0 
L 0.78125 0 
z
" id="DejaVuSans-65"/>
      <path d="M 45.40625 27.984375 
Q 45.40625 37.75 41.375 43.109375 
Q 37.359375 48.484375 30.078125 48.484375 
Q 22.859375 48.484375 18.828125 43.109375 
Q 14.796875 37.75 14.796875 27.984375 
Q 14.796875 18.265625 18.828125 12.890625 
Q 22.859375 7.515625 30.078125 7.515625 
Q 37.359375 7.515625 41.375 12.890625 
Q 45.40625 18.265625 45.40625 27.984375 
z
M 54.390625 6.78125 
Q 54.390625 -7.171875 48.1875 -13.984375 
Q 42 -20.796875 29.203125 -20.796875 
Q 24.46875 -20.796875 20.265625 -20.09375 
Q 16.0625 -19.390625 12.109375 -17.921875 
L 12.109375 -9.1875 
Q 16.0625 -11.328125 19.921875 -12.34375 
Q 23.78125 -13.375 27.78125 -13.375 
Q 36.625 -13.375 41.015625 -8.765625 
Q 45.40625 -4.15625 45.40625 5.171875 
L 45.40625 9.625 
Q 42.625 4.78125 38.28125 2.390625 
Q 33.9375 0 27.875 0 
Q 17.828125 0 11.671875 7.65625 
Q 5.515625 15.328125 5.515625 27.984375 
Q 5.515625 40.671875 11.671875 48.328125 
Q 17.828125 56 27.875 56 
Q 33.9375 56 38.28125 53.609375 
Q 42.625 51.21875 45.40625 46.390625 
L 45.40625 54.6875 
L 54.390625 54.6875 
z
" id="DejaVuSans-103"/>
      <path id="DejaVuSans-32"/>
      <path d="M 10.59375 45.40625 
L 73.1875 45.40625 
L 73.1875 37.203125 
L 10.59375 37.203125 
z
M 10.59375 25.484375 
L 73.1875 25.484375 
L 73.1875 17.1875 
L 10.59375 17.1875 
z
" id="DejaVuSans-61"/>
     </defs>
     <g transform="translate(94.6 58.070438)scale(0.1 -0.1)">
      <use xlink:href="#DejaVuSans-65"/>
      <use x="68.408203" xlink:href="#DejaVuSans-103"/>
      <use x="131.884766" xlink:href="#DejaVuSans-101"/>
      <use x="193.408203" xlink:href="#DejaVuSans-32"/>
      <use x="225.195312" xlink:href="#DejaVuSans-61"/>
      <use x="308.984375" xlink:href="#DejaVuSans-32"/>
      <use x="340.771484" xlink:href="#DejaVuSans-51"/>
      <use x="404.394531" xlink:href="#DejaVuSans-48"/>
     </g>
    </g>
    <g id="line2d_36">
     <path d="M 66.6 69.248563 
L 86.6 69.248563 
" style="fill:none;stroke:#ff7f0e;stroke-linecap:square;stroke-width:1.5;"/>
    </g>
    <g id="line2d_37"/>
    <g id="text_17">
     <!-- Age = 40 -->
     <g transform="translate(94.6 72.748563)scale(0.1 -0.1)">
      <use xlink:href="#DejaVuSans-65"/>
      <use x="68.408203" xlink:href="#DejaVuSans-103"/>
      <use x="131.884766" xlink:href="#DejaVuSans-101"/>
      <use x="193.408203" xlink:href="#DejaVuSans-32"/>
      <use x="225.195312" xlink:href="#DejaVuSans-61"/>
      <use x="308.984375" xlink:href="#DejaVuSans-32"/>
      <use x="340.771484" xlink:href="#DejaVuSans-52"/>
      <use x="404.394531" xlink:href="#DejaVuSans-48"/>
     </g>
    </g>
    <g id="line2d_38">
     <path d="M 66.6 83.926688 
L 86.6 83.926688 
" style="fill:none;stroke:#2ca02c;stroke-linecap:square;stroke-width:1.5;"/>
    </g>
    <g id="line2d_39"/>
    <g id="text_18">
     <!-- Age = 50 -->
     <g transform="translate(94.6 87.426688)scale(0.1 -0.1)">
      <use xlink:href="#DejaVuSans-65"/>
      <use x="68.408203" xlink:href="#DejaVuSans-103"/>
      <use x="131.884766" xlink:href="#DejaVuSans-101"/>
      <use x="193.408203" xlink:href="#DejaVuSans-32"/>
      <use x="225.195312" xlink:href="#DejaVuSans-61"/>
      <use x="308.984375" xlink:href="#DejaVuSans-32"/>
      <use x="340.771484" xlink:href="#DejaVuSans-53"/>
      <use x="404.394531" xlink:href="#DejaVuSans-48"/>
     </g>
    </g>
    <g id="line2d_40">
     <path d="M 66.6 98.604813 
L 86.6 98.604813 
" style="fill:none;stroke:#d62728;stroke-linecap:square;stroke-width:1.5;"/>
    </g>
    <g id="line2d_41"/>
    <g id="text_19">
     <!-- Age = 60 -->
     <defs>
      <path d="M 33.015625 40.375 
Q 26.375 40.375 22.484375 35.828125 
Q 18.609375 31.296875 18.609375 23.390625 
Q 18.609375 15.53125 22.484375 10.953125 
Q 26.375 6.390625 33.015625 6.390625 
Q 39.65625 6.390625 43.53125 10.953125 
Q 47.40625 15.53125 47.40625 23.390625 
Q 47.40625 31.296875 43.53125 35.828125 
Q 39.65625 40.375 33.015625 40.375 
z
M 52.59375 71.296875 
L 52.59375 62.3125 
Q 48.875 64.0625 45.09375 64.984375 
Q 41.3125 65.921875 37.59375 65.921875 
Q 27.828125 65.921875 22.671875 59.328125 
Q 17.53125 52.734375 16.796875 39.40625 
Q 19.671875 43.65625 24.015625 45.921875 
Q 28.375 48.1875 33.59375 48.1875 
Q 44.578125 48.1875 50.953125 41.515625 
Q 57.328125 34.859375 57.328125 23.390625 
Q 57.328125 12.15625 50.6875 5.359375 
Q 44.046875 -1.421875 33.015625 -1.421875 
Q 20.359375 -1.421875 13.671875 8.265625 
Q 6.984375 17.96875 6.984375 36.375 
Q 6.984375 53.65625 15.1875 63.9375 
Q 23.390625 74.21875 37.203125 74.21875 
Q 40.921875 74.21875 44.703125 73.484375 
Q 48.484375 72.75 52.59375 71.296875 
z
" id="DejaVuSans-54"/>
     </defs>
     <g transform="translate(94.6 102.104813)scale(0.1 -0.1)">
      <use xlink:href="#DejaVuSans-65"/>
      <use x="68.408203" xlink:href="#DejaVuSans-103"/>
      <use x="131.884766" xlink:href="#DejaVuSans-101"/>
      <use x="193.408203" xlink:href="#DejaVuSans-32"/>
      <use x="225.195312" xlink:href="#DejaVuSans-61"/>
      <use x="308.984375" xlink:href="#DejaVuSans-32"/>
      <use x="340.771484" xlink:href="#DejaVuSans-54"/>
      <use x="404.394531" xlink:href="#DejaVuSans-48"/>
     </g>
    </g>
    <g id="line2d_42">
     <path d="M 66.6 113.282938 
L 86.6 113.282938 
" style="fill:none;stroke:#9467bd;stroke-linecap:square;stroke-width:1.5;"/>
    </g>
    <g id="line2d_43"/>
    <g id="text_20">
     <!-- Age = 70 -->
     <defs>
      <path d="M 8.203125 72.90625 
L 55.078125 72.90625 
L 55.078125 68.703125 
L 28.609375 0 
L 18.3125 0 
L 43.21875 64.59375 
L 8.203125 64.59375 
z
" id="DejaVuSans-55"/>
     </defs>
     <g transform="translate(94.6 116.782938)scale(0.1 -0.1)">
      <use xlink:href="#DejaVuSans-65"/>
      <use x="68.408203" xlink:href="#DejaVuSans-103"/>
      <use x="131.884766" xlink:href="#DejaVuSans-101"/>
      <use x="193.408203" xlink:href="#DejaVuSans-32"/>
      <use x="225.195312" xlink:href="#DejaVuSans-61"/>
      <use x="308.984375" xlink:href="#DejaVuSans-32"/>
      <use x="340.771484" xlink:href="#DejaVuSans-55"/>
      <use x="404.394531" xlink:href="#DejaVuSans-48"/>
     </g>
    </g>
    <g id="line2d_44">
     <path d="M 66.6 127.961063 
L 86.6 127.961063 
" style="fill:none;stroke:#8c564b;stroke-linecap:square;stroke-width:1.5;"/>
    </g>
    <g id="line2d_45"/>
    <g id="text_21">
     <!-- Age = 80 -->
     <defs>
      <path d="M 31.78125 34.625 
Q 24.75 34.625 20.71875 30.859375 
Q 16.703125 27.09375 16.703125 20.515625 
Q 16.703125 13.921875 20.71875 10.15625 
Q 24.75 6.390625 31.78125 6.390625 
Q 38.8125 6.390625 42.859375 10.171875 
Q 46.921875 13.96875 46.921875 20.515625 
Q 46.921875 27.09375 42.890625 30.859375 
Q 38.875 34.625 31.78125 34.625 
z
M 21.921875 38.8125 
Q 15.578125 40.375 12.03125 44.71875 
Q 8.5 49.078125 8.5 55.328125 
Q 8.5 64.0625 14.71875 69.140625 
Q 20.953125 74.21875 31.78125 74.21875 
Q 42.671875 74.21875 48.875 69.140625 
Q 55.078125 64.0625 55.078125 55.328125 
Q 55.078125 49.078125 51.53125 44.71875 
Q 48 40.375 41.703125 38.8125 
Q 48.828125 37.15625 52.796875 32.3125 
Q 56.78125 27.484375 56.78125 20.515625 
Q 56.78125 9.90625 50.3125 4.234375 
Q 43.84375 -1.421875 31.78125 -1.421875 
Q 19.734375 -1.421875 13.25 4.234375 
Q 6.78125 9.90625 6.78125 20.515625 
Q 6.78125 27.484375 10.78125 32.3125 
Q 14.796875 37.15625 21.921875 38.8125 
z
M 18.3125 54.390625 
Q 18.3125 48.734375 21.84375 45.5625 
Q 25.390625 42.390625 31.78125 42.390625 
Q 38.140625 42.390625 41.71875 45.5625 
Q 45.3125 48.734375 45.3125 54.390625 
Q 45.3125 60.0625 41.71875 63.234375 
Q 38.140625 66.40625 31.78125 66.40625 
Q 25.390625 66.40625 21.84375 63.234375 
Q 18.3125 60.0625 18.3125 54.390625 
z
" id="DejaVuSans-56"/>
     </defs>
     <g transform="translate(94.6 131.461063)scale(0.1 -0.1)">
      <use xlink:href="#DejaVuSans-65"/>
      <use x="68.408203" xlink:href="#DejaVuSans-103"/>
      <use x="131.884766" xlink:href="#DejaVuSans-101"/>
      <use x="193.408203" xlink:href="#DejaVuSans-32"/>
      <use x="225.195312" xlink:href="#DejaVuSans-61"/>
      <use x="308.984375" xlink:href="#DejaVuSans-32"/>
      <use x="340.771484" xlink:href="#DejaVuSans-56"/>
      <use x="404.394531" xlink:href="#DejaVuSans-48"/>
     </g>
    </g>
    <g id="line2d_46">
     <path d="M 66.6 142.639188 
L 86.6 142.639188 
" style="fill:none;stroke:#e377c2;stroke-linecap:square;stroke-width:1.5;"/>
    </g>
    <g id="line2d_47"/>
    <g id="text_22">
     <!-- Age = 90 -->
     <defs>
      <path d="M 10.984375 1.515625 
L 10.984375 10.5 
Q 14.703125 8.734375 18.5 7.8125 
Q 22.3125 6.890625 25.984375 6.890625 
Q 35.75 6.890625 40.890625 13.453125 
Q 46.046875 20.015625 46.78125 33.40625 
Q 43.953125 29.203125 39.59375 26.953125 
Q 35.25 24.703125 29.984375 24.703125 
Q 19.046875 24.703125 12.671875 31.3125 
Q 6.296875 37.9375 6.296875 49.421875 
Q 6.296875 60.640625 12.9375 67.421875 
Q 19.578125 74.21875 30.609375 74.21875 
Q 43.265625 74.21875 49.921875 64.515625 
Q 56.59375 54.828125 56.59375 36.375 
Q 56.59375 19.140625 48.40625 8.859375 
Q 40.234375 -1.421875 26.421875 -1.421875 
Q 22.703125 -1.421875 18.890625 -0.6875 
Q 15.09375 0.046875 10.984375 1.515625 
z
M 30.609375 32.421875 
Q 37.25 32.421875 41.125 36.953125 
Q 45.015625 41.5 45.015625 49.421875 
Q 45.015625 57.28125 41.125 61.84375 
Q 37.25 66.40625 30.609375 66.40625 
Q 23.96875 66.40625 20.09375 61.84375 
Q 16.21875 57.28125 16.21875 49.421875 
Q 16.21875 41.5 20.09375 36.953125 
Q 23.96875 32.421875 30.609375 32.421875 
z
" id="DejaVuSans-57"/>
     </defs>
     <g transform="translate(94.6 146.139188)scale(0.1 -0.1)">
      <use xlink:href="#DejaVuSans-65"/>
      <use x="68.408203" xlink:href="#DejaVuSans-103"/>
      <use x="131.884766" xlink:href="#DejaVuSans-101"/>
      <use x="193.408203" xlink:href="#DejaVuSans-32"/>
      <use x="225.195312" xlink:href="#DejaVuSans-61"/>
      <use x="308.984375" xlink:href="#DejaVuSans-32"/>
      <use x="340.771484" xlink:href="#DejaVuSans-57"/>
      <use x="404.394531" xlink:href="#DejaVuSans-48"/>
     </g>
    </g>
   </g>
  </g>
 </g>
 <defs>
  <clipPath id="p7a2d78ec40">
   <rect height="266.112" width="357.12" x="57.6" y="41.472"/>
  </clipPath>
 </defs>
</svg>
