<?xml version="1.0" encoding="utf-8" standalone="no"?>
<!DOCTYPE svg PUBLIC "-//W3C//DTD SVG 1.1//EN"
  "http://www.w3.org/Graphics/SVG/1.1/DTD/svg11.dtd">
<!-- Created with matplotlib (https://matplotlib.org/) -->
<svg height="288pt" version="1.1" viewBox="0 0 720 288" width="720pt" xmlns="http://www.w3.org/2000/svg" xmlns:xlink="http://www.w3.org/1999/xlink">
 <defs>
  <style type="text/css">
*{stroke-linecap:butt;stroke-linejoin:round;}
  </style>
 </defs>
 <g id="figure_1">
  <g id="patch_1">
   <path d="M 0 288 
L 720 288 
L 720 0 
L 0 0 
z
" style="fill:#ffffff;"/>
  </g>
  <g id="axes_1">
   <g id="patch_2">
    <path d="M 40.12 120.5216 
L 353.61 120.5216 
L 353.61 32.64 
L 40.12 32.64 
z
" style="fill:#ffffff;"/>
   </g>
   <g id="matplotlib.axis_1">
    <g id="xtick_1">
     <g id="line2d_1">
      <path clip-path="url(#pfc1cebd1d3)" d="M 51.519636 120.5216 
L 51.519636 32.64 
" style="fill:none;stroke:#b0b0b0;stroke-linecap:square;stroke-width:0.8;"/>
     </g>
     <g id="line2d_2">
      <defs>
       <path d="M 0 0 
L 0 3.5 
" id="mb836ab7246" style="stroke:#000000;stroke-width:0.8;"/>
      </defs>
      <g>
       <use style="stroke:#000000;stroke-width:0.8;" x="51.519636" xlink:href="#mb836ab7246" y="120.5216"/>
      </g>
     </g>
    </g>
    <g id="xtick_2">
     <g id="line2d_3">
      <path clip-path="url(#pfc1cebd1d3)" d="M 87.1435 120.5216 
L 87.1435 32.64 
" style="fill:none;stroke:#b0b0b0;stroke-linecap:square;stroke-width:0.8;"/>
     </g>
     <g id="line2d_4">
      <g>
       <use style="stroke:#000000;stroke-width:0.8;" x="87.1435" xlink:href="#mb836ab7246" y="120.5216"/>
      </g>
     </g>
    </g>
    <g id="xtick_3">
     <g id="line2d_5">
      <path clip-path="url(#pfc1cebd1d3)" d="M 122.767364 120.5216 
L 122.767364 32.64 
" style="fill:none;stroke:#b0b0b0;stroke-linecap:square;stroke-width:0.8;"/>
     </g>
     <g id="line2d_6">
      <g>
       <use style="stroke:#000000;stroke-width:0.8;" x="122.767364" xlink:href="#mb836ab7246" y="120.5216"/>
      </g>
     </g>
    </g>
    <g id="xtick_4">
     <g id="line2d_7">
      <path clip-path="url(#pfc1cebd1d3)" d="M 158.391227 120.5216 
L 158.391227 32.64 
" style="fill:none;stroke:#b0b0b0;stroke-linecap:square;stroke-width:0.8;"/>
     </g>
     <g id="line2d_8">
      <g>
       <use style="stroke:#000000;stroke-width:0.8;" x="158.391227" xlink:href="#mb836ab7246" y="120.5216"/>
      </g>
     </g>
    </g>
    <g id="xtick_5">
     <g id="line2d_9">
      <path clip-path="url(#pfc1cebd1d3)" d="M 194.015091 120.5216 
L 194.015091 32.64 
" style="fill:none;stroke:#b0b0b0;stroke-linecap:square;stroke-width:0.8;"/>
     </g>
     <g id="line2d_10">
      <g>
       <use style="stroke:#000000;stroke-width:0.8;" x="194.015091" xlink:href="#mb836ab7246" y="120.5216"/>
      </g>
     </g>
    </g>
    <g id="xtick_6">
     <g id="line2d_11">
      <path clip-path="url(#pfc1cebd1d3)" d="M 229.638955 120.5216 
L 229.638955 32.64 
" style="fill:none;stroke:#b0b0b0;stroke-linecap:square;stroke-width:0.8;"/>
     </g>
     <g id="line2d_12">
      <g>
       <use style="stroke:#000000;stroke-width:0.8;" x="229.638955" xlink:href="#mb836ab7246" y="120.5216"/>
      </g>
     </g>
    </g>
    <g id="xtick_7">
     <g id="line2d_13">
      <path clip-path="url(#pfc1cebd1d3)" d="M 265.262818 120.5216 
L 265.262818 32.64 
" style="fill:none;stroke:#b0b0b0;stroke-linecap:square;stroke-width:0.8;"/>
     </g>
     <g id="line2d_14">
      <g>
       <use style="stroke:#000000;stroke-width:0.8;" x="265.262818" xlink:href="#mb836ab7246" y="120.5216"/>
      </g>
     </g>
    </g>
    <g id="xtick_8">
     <g id="line2d_15">
      <path clip-path="url(#pfc1cebd1d3)" d="M 300.886682 120.5216 
L 300.886682 32.64 
" style="fill:none;stroke:#b0b0b0;stroke-linecap:square;stroke-width:0.8;"/>
     </g>
     <g id="line2d_16">
      <g>
       <use style="stroke:#000000;stroke-width:0.8;" x="300.886682" xlink:href="#mb836ab7246" y="120.5216"/>
      </g>
     </g>
    </g>
    <g id="xtick_9">
     <g id="line2d_17">
      <path clip-path="url(#pfc1cebd1d3)" d="M 336.510545 120.5216 
L 336.510545 32.64 
" style="fill:none;stroke:#b0b0b0;stroke-linecap:square;stroke-width:0.8;"/>
     </g>
     <g id="line2d_18">
      <g>
       <use style="stroke:#000000;stroke-width:0.8;" x="336.510545" xlink:href="#mb836ab7246" y="120.5216"/>
      </g>
     </g>
    </g>
   </g>
   <g id="matplotlib.axis_2">
    <g id="ytick_1">
     <g id="line2d_19">
      <path clip-path="url(#pfc1cebd1d3)" d="M 40.12 118.637906 
L 353.61 118.637906 
" style="fill:none;stroke:#b0b0b0;stroke-linecap:square;stroke-width:0.8;"/>
     </g>
     <g id="line2d_20">
      <defs>
       <path d="M 0 0 
L -3.5 0 
" id="mf8541f432d" style="stroke:#000000;stroke-width:0.8;"/>
      </defs>
      <g>
       <use style="stroke:#000000;stroke-width:0.8;" x="40.12" xlink:href="#mf8541f432d" y="118.637906"/>
      </g>
     </g>
     <g id="text_1">
      <!-- 0 -->
      <defs>
       <path d="M 31.78125 66.40625 
Q 24.171875 66.40625 20.328125 58.90625 
Q 16.5 51.421875 16.5 36.375 
Q 16.5 21.390625 20.328125 13.890625 
Q 24.171875 6.390625 31.78125 6.390625 
Q 39.453125 6.390625 43.28125 13.890625 
Q 47.125 21.390625 47.125 36.375 
Q 47.125 51.421875 43.28125 58.90625 
Q 39.453125 66.40625 31.78125 66.40625 
z
M 31.78125 74.21875 
Q 44.046875 74.21875 50.515625 64.515625 
Q 56.984375 54.828125 56.984375 36.375 
Q 56.984375 17.96875 50.515625 8.265625 
Q 44.046875 -1.421875 31.78125 -1.421875 
Q 19.53125 -1.421875 13.0625 8.265625 
Q 6.59375 17.96875 6.59375 36.375 
Q 6.59375 54.828125 13.0625 64.515625 
Q 19.53125 74.21875 31.78125 74.21875 
z
" id="DejaVuSans-48"/>
      </defs>
      <g transform="translate(26.7575 122.437125)scale(0.1 -0.1)">
       <use xlink:href="#DejaVuSans-48"/>
      </g>
     </g>
    </g>
    <g id="ytick_2">
     <g id="line2d_21">
      <path clip-path="url(#pfc1cebd1d3)" d="M 40.12 92.225816 
L 353.61 92.225816 
" style="fill:none;stroke:#b0b0b0;stroke-linecap:square;stroke-width:0.8;"/>
     </g>
     <g id="line2d_22">
      <g>
       <use style="stroke:#000000;stroke-width:0.8;" x="40.12" xlink:href="#mf8541f432d" y="92.225816"/>
      </g>
     </g>
     <g id="text_2">
      <!-- 50 -->
      <defs>
       <path d="M 10.796875 72.90625 
L 49.515625 72.90625 
L 49.515625 64.59375 
L 19.828125 64.59375 
L 19.828125 46.734375 
Q 21.96875 47.46875 24.109375 47.828125 
Q 26.265625 48.1875 28.421875 48.1875 
Q 40.625 48.1875 47.75 41.5 
Q 54.890625 34.8125 54.890625 23.390625 
Q 54.890625 11.625 47.5625 5.09375 
Q 40.234375 -1.421875 26.90625 -1.421875 
Q 22.3125 -1.421875 17.546875 -0.640625 
Q 12.796875 0.140625 7.71875 1.703125 
L 7.71875 11.625 
Q 12.109375 9.234375 16.796875 8.0625 
Q 21.484375 6.890625 26.703125 6.890625 
Q 35.15625 6.890625 40.078125 11.328125 
Q 45.015625 15.765625 45.015625 23.390625 
Q 45.015625 31 40.078125 35.4375 
Q 35.15625 39.890625 26.703125 39.890625 
Q 22.75 39.890625 18.8125 39.015625 
Q 14.890625 38.140625 10.796875 36.28125 
z
" id="DejaVuSans-53"/>
      </defs>
      <g transform="translate(20.395 96.025034)scale(0.1 -0.1)">
       <use xlink:href="#DejaVuSans-53"/>
       <use x="63.623047" xlink:href="#DejaVuSans-48"/>
      </g>
     </g>
    </g>
    <g id="ytick_3">
     <g id="line2d_23">
      <path clip-path="url(#pfc1cebd1d3)" d="M 40.12 65.813725 
L 353.61 65.813725 
" style="fill:none;stroke:#b0b0b0;stroke-linecap:square;stroke-width:0.8;"/>
     </g>
     <g id="line2d_24">
      <g>
       <use style="stroke:#000000;stroke-width:0.8;" x="40.12" xlink:href="#mf8541f432d" y="65.813725"/>
      </g>
     </g>
     <g id="text_3">
      <!-- 100 -->
      <defs>
       <path d="M 12.40625 8.296875 
L 28.515625 8.296875 
L 28.515625 63.921875 
L 10.984375 60.40625 
L 10.984375 69.390625 
L 28.421875 72.90625 
L 38.28125 72.90625 
L 38.28125 8.296875 
L 54.390625 8.296875 
L 54.390625 0 
L 12.40625 0 
z
" id="DejaVuSans-49"/>
      </defs>
      <g transform="translate(14.0325 69.612944)scale(0.1 -0.1)">
       <use xlink:href="#DejaVuSans-49"/>
       <use x="63.623047" xlink:href="#DejaVuSans-48"/>
       <use x="127.246094" xlink:href="#DejaVuSans-48"/>
      </g>
     </g>
    </g>
    <g id="ytick_4">
     <g id="line2d_25">
      <path clip-path="url(#pfc1cebd1d3)" d="M 40.12 39.401635 
L 353.61 39.401635 
" style="fill:none;stroke:#b0b0b0;stroke-linecap:square;stroke-width:0.8;"/>
     </g>
     <g id="line2d_26">
      <g>
       <use style="stroke:#000000;stroke-width:0.8;" x="40.12" xlink:href="#mf8541f432d" y="39.401635"/>
      </g>
     </g>
     <g id="text_4">
      <!-- 150 -->
      <g transform="translate(14.0325 43.200853)scale(0.1 -0.1)">
       <use xlink:href="#DejaVuSans-49"/>
       <use x="63.623047" xlink:href="#DejaVuSans-53"/>
       <use x="127.246094" xlink:href="#DejaVuSans-48"/>
      </g>
     </g>
    </g>
   </g>
   <g id="line2d_27">
    <path clip-path="url(#pfc1cebd1d3)" d="M 54.369545 116.524939 
L 64.344227 109.261614 
L 70.756523 108.07307 
L 71.469 108.07307 
L 72.893955 107.808949 
L 73.606432 107.808949 
L 75.031386 107.544828 
L 75.743864 107.544828 
L 77.168818 107.280707 
L 77.881295 107.280707 
L 78.593773 107.148647 
L 79.30625 107.148647 
L 80.731205 106.884526 
L 81.443682 106.884526 
L 82.156159 106.752465 
L 82.868636 106.752465 
L 83.581114 106.620405 
L 84.293591 106.620405 
L 85.718545 106.356284 
L 86.431023 106.356284 
L 87.1435 106.224224 
L 87.855977 106.224224 
L 88.568455 106.092163 
L 89.280932 106.092163 
L 89.993409 105.960103 
L 90.705886 105.960103 
L 91.418364 105.828042 
L 92.130841 105.828042 
L 92.843318 105.695982 
L 93.555795 105.695982 
L 94.268273 105.563921 
L 94.98075 105.563921 
L 96.405705 105.2998 
L 97.830659 105.2998 
L 98.543136 105.16774 
L 99.255614 105.16774 
L 99.968091 105.03568 
L 100.680568 105.03568 
L 102.105523 104.771559 
L 103.530477 104.771559 
L 104.955432 104.507438 
L 105.667909 104.507438 
L 106.380386 104.375377 
L 107.805341 104.375377 
L 109.230295 104.111256 
L 110.65525 104.111256 
L 112.080205 103.847135 
L 112.792682 103.847135 
L 113.505159 103.715075 
L 114.930114 103.715075 
L 116.355068 103.450954 
L 117.780023 103.450954 
L 119.917455 103.054773 
L 120.629932 103.054773 
L 121.342409 102.922712 
L 122.054886 103.054773 
L 122.767364 103.054773 
L 124.192318 102.790652 
L 124.904795 102.790652 
L 127.042227 102.39447 
L 127.754705 102.39447 
L 128.467182 102.26241 
L 130.604614 102.26241 
L 131.317091 102.13035 
L 132.742045 102.13035 
L 134.879477 101.734168 
L 135.591955 101.734168 
L 137.016909 101.470047 
L 139.866818 101.470047 
L 140.579295 101.337987 
L 141.291773 101.337987 
L 143.429205 100.941806 
L 144.141682 100.941806 
L 144.854159 100.809745 
L 145.566636 100.809745 
L 146.279114 100.677685 
L 147.704068 100.677685 
L 148.416545 100.545624 
L 149.129023 100.545624 
L 149.8415 100.413564 
L 150.553977 100.413564 
L 151.978932 100.149443 
L 152.691409 100.149443 
L 153.403886 100.017382 
L 154.116364 100.017382 
L 154.828841 99.885322 
L 156.253795 99.885322 
L 156.966273 99.753261 
L 157.67875 99.753261 
L 158.391227 99.621201 
L 159.103705 99.621201 
L 160.528659 99.35708 
L 161.241136 99.35708 
L 161.953614 99.22502 
L 162.666091 99.22502 
L 163.378568 99.092959 
L 164.803523 99.092959 
L 165.516 98.960899 
L 166.228477 98.960899 
L 166.940955 98.828838 
L 167.653432 98.828838 
L 168.365909 98.696778 
L 169.078386 98.696778 
L 170.503341 98.432657 
L 171.215818 98.432657 
L 171.928295 98.300596 
L 172.640773 98.300596 
L 173.35325 98.168536 
L 174.778205 98.168536 
L 175.490682 98.036476 
L 176.203159 98.036476 
L 176.915636 97.904415 
L 177.628114 97.904415 
L 178.340591 97.772355 
L 179.053068 97.772355 
L 180.478023 97.508234 
L 181.1905 97.508234 
L 181.902977 97.376173 
L 182.615455 97.376173 
L 183.327932 97.244113 
L 184.040409 97.244113 
L 184.752886 97.112052 
L 185.465364 97.112052 
L 186.177841 96.979992 
L 186.890318 96.979992 
L 187.602795 96.847931 
L 188.315273 96.847931 
L 189.02775 96.715871 
L 190.452705 96.715871 
L 191.877659 96.45175 
L 192.590136 96.45175 
L 193.302614 96.31969 
L 194.015091 96.31969 
L 194.727568 96.187629 
L 195.440045 96.187629 
L 196.152523 96.055569 
L 196.865 96.055569 
L 197.577477 95.923508 
L 198.289955 95.923508 
L 199.002432 95.791448 
L 200.427386 95.791448 
L 201.139864 95.659387 
L 201.852341 95.659387 
L 203.277295 95.395266 
L 203.989773 95.395266 
L 204.70225 95.263206 
L 205.414727 95.263206 
L 206.127205 95.131146 
L 206.839682 95.131146 
L 207.552159 94.999085 
L 208.264636 94.999085 
L 208.977114 94.867025 
L 209.689591 94.867025 
L 210.402068 94.734964 
L 211.827023 94.734964 
L 212.5395 94.602904 
L 213.251977 94.602904 
L 214.676932 94.338783 
L 215.389409 94.338783 
L 216.101886 94.206722 
L 216.814364 94.206722 
L 217.526841 94.074662 
L 218.239318 94.074662 
L 218.951795 93.942602 
L 219.664273 93.942602 
L 220.37675 93.810541 
L 221.089227 93.810541 
L 221.801705 93.678481 
L 223.226659 93.678481 
L 223.939136 93.54642 
L 224.651614 93.54642 
L 226.076568 93.282299 
L 226.789045 93.282299 
L 227.501523 93.150239 
L 228.214 93.150239 
L 228.926477 93.018178 
L 229.638955 93.018178 
L 230.351432 92.886118 
L 231.063909 92.886118 
L 231.776386 92.754057 
L 232.488864 92.754057 
L 233.201341 92.621997 
L 233.913818 92.621997 
L 234.626295 92.489937 
L 235.338773 92.489937 
L 236.05125 92.357876 
L 236.763727 92.357876 
L 237.476205 92.225816 
L 238.188682 92.225816 
L 238.901159 92.093755 
L 239.613636 92.093755 
L 240.326114 91.961695 
L 241.038591 91.961695 
L 241.751068 91.829634 
L 242.463545 91.829634 
L 243.176023 91.697574 
L 243.8885 91.697574 
L 244.600977 91.565513 
L 245.313455 91.565513 
L 246.025932 91.433453 
L 246.738409 91.433453 
L 247.450886 91.301392 
L 248.163364 91.301392 
L 248.875841 91.169332 
L 249.588318 91.169332 
L 250.300795 91.037272 
L 251.013273 91.037272 
L 251.72575 90.905211 
L 252.438227 90.905211 
L 253.150705 90.773151 
L 253.863182 90.773151 
L 254.575659 90.64109 
L 255.288136 90.64109 
L 256.000614 90.50903 
L 256.713091 90.50903 
L 257.425568 90.376969 
L 258.138045 90.376969 
L 258.850523 90.244909 
L 259.563 90.244909 
L 260.275477 90.112848 
L 260.987955 90.112848 
L 261.700432 89.980788 
L 262.412909 89.980788 
L 263.125386 89.848727 
L 263.837864 89.848727 
L 264.550341 89.716667 
L 265.262818 89.716667 
L 265.975295 89.584607 
L 266.687773 89.584607 
L 267.40025 89.452546 
L 268.112727 89.452546 
L 268.825205 89.320486 
L 269.537682 89.320486 
L 270.250159 89.188425 
L 270.962636 89.188425 
L 271.675114 89.056365 
L 272.387591 89.056365 
L 273.100068 88.924304 
L 273.812545 88.924304 
L 274.525023 88.792244 
L 275.2375 88.792244 
L 275.949977 88.660183 
L 276.662455 88.660183 
L 277.374932 88.528123 
L 278.087409 88.528123 
L 278.799886 88.396063 
L 279.512364 88.396063 
L 280.224841 88.264002 
L 280.937318 88.264002 
L 281.649795 88.131942 
L 282.362273 88.131942 
L 283.07475 87.999881 
L 283.787227 87.999881 
L 284.499705 87.867821 
L 285.212182 87.867821 
L 285.924659 87.73576 
L 286.637136 87.73576 
L 287.349614 87.6037 
L 288.062091 87.6037 
L 288.774568 87.471639 
L 289.487045 87.471639 
L 290.199523 87.339579 
L 290.912 87.339579 
L 291.624477 87.207518 
L 292.336955 87.207518 
L 293.049432 87.075458 
L 293.761909 87.075458 
L 294.474386 86.943398 
L 295.186864 86.943398 
L 295.899341 86.811337 
L 296.611818 86.811337 
L 297.324295 86.679277 
L 298.036773 86.679277 
L 298.74925 86.547216 
L 299.461727 86.547216 
L 300.174205 86.415156 
L 300.886682 86.415156 
L 301.599159 86.283095 
L 302.311636 86.283095 
L 303.024114 86.151035 
L 303.736591 86.151035 
L 304.449068 86.018974 
L 305.161545 86.018974 
L 305.874023 85.886914 
L 306.5865 85.886914 
L 307.298977 85.754853 
L 308.011455 85.754853 
L 308.723932 85.622793 
L 309.436409 85.622793 
L 310.148886 85.490733 
L 310.861364 85.490733 
L 311.573841 85.358672 
L 312.286318 85.358672 
L 312.998795 85.226612 
L 313.711273 85.226612 
L 314.42375 85.094551 
L 315.136227 85.094551 
L 315.848705 84.962491 
L 316.561182 84.962491 
L 317.273659 84.83043 
L 317.986136 84.83043 
L 318.698614 84.69837 
L 319.411091 84.69837 
L 320.123568 84.566309 
L 320.836045 84.566309 
L 321.548523 84.434249 
L 322.261 84.434249 
L 322.973477 84.302188 
L 323.685955 84.302188 
L 324.398432 84.170128 
L 325.110909 84.170128 
L 325.823386 84.038068 
L 326.535864 84.038068 
L 327.248341 83.906007 
L 327.960818 83.906007 
L 328.673295 83.773947 
L 329.385773 83.773947 
L 330.09825 83.641886 
L 330.810727 83.641886 
L 331.523205 83.509826 
L 332.235682 83.509826 
L 332.948159 83.377765 
L 333.660636 83.377765 
L 334.373114 83.245705 
L 335.085591 83.245705 
L 335.798068 83.113644 
L 336.510545 83.113644 
L 337.223023 82.981584 
L 337.9355 82.981584 
L 338.647977 82.849523 
L 339.360455 82.849523 
L 339.360455 82.849523 
" style="fill:none;stroke:#1f77b4;stroke-linecap:square;stroke-width:1.5;"/>
   </g>
   <g id="line2d_28">
    <path clip-path="url(#pfc1cebd1d3)" d="M 54.369545 116.526982 
L 64.344227 109.263033 
L 66.481659 108.611098 
L 81.443682 104.58838 
L 339.360455 36.634618 
L 339.360455 36.634618 
" style="fill:none;stroke:#ff7f0e;stroke-linecap:square;stroke-width:1.5;"/>
   </g>
   <g id="patch_3">
    <path d="M 40.12 120.5216 
L 40.12 32.64 
" style="fill:none;stroke:#000000;stroke-linecap:square;stroke-linejoin:miter;stroke-width:0.8;"/>
   </g>
   <g id="patch_4">
    <path d="M 353.61 120.5216 
L 353.61 32.64 
" style="fill:none;stroke:#000000;stroke-linecap:square;stroke-linejoin:miter;stroke-width:0.8;"/>
   </g>
   <g id="patch_5">
    <path d="M 40.12 120.5216 
L 353.61 120.5216 
" style="fill:none;stroke:#000000;stroke-linecap:square;stroke-linejoin:miter;stroke-width:0.8;"/>
   </g>
   <g id="patch_6">
    <path d="M 40.12 32.64 
L 353.61 32.64 
" style="fill:none;stroke:#000000;stroke-linecap:square;stroke-linejoin:miter;stroke-width:0.8;"/>
   </g>
   <g id="text_5">
    <!-- Cons. Functions -->
    <defs>
     <path d="M 64.40625 67.28125 
L 64.40625 56.890625 
Q 59.421875 61.53125 53.78125 63.8125 
Q 48.140625 66.109375 41.796875 66.109375 
Q 29.296875 66.109375 22.65625 58.46875 
Q 16.015625 50.828125 16.015625 36.375 
Q 16.015625 21.96875 22.65625 14.328125 
Q 29.296875 6.6875 41.796875 6.6875 
Q 48.140625 6.6875 53.78125 8.984375 
Q 59.421875 11.28125 64.40625 15.921875 
L 64.40625 5.609375 
Q 59.234375 2.09375 53.4375 0.328125 
Q 47.65625 -1.421875 41.21875 -1.421875 
Q 24.65625 -1.421875 15.125 8.703125 
Q 5.609375 18.84375 5.609375 36.375 
Q 5.609375 53.953125 15.125 64.078125 
Q 24.65625 74.21875 41.21875 74.21875 
Q 47.75 74.21875 53.53125 72.484375 
Q 59.328125 70.75 64.40625 67.28125 
z
" id="DejaVuSans-67"/>
     <path d="M 30.609375 48.390625 
Q 23.390625 48.390625 19.1875 42.75 
Q 14.984375 37.109375 14.984375 27.296875 
Q 14.984375 17.484375 19.15625 11.84375 
Q 23.34375 6.203125 30.609375 6.203125 
Q 37.796875 6.203125 41.984375 11.859375 
Q 46.1875 17.53125 46.1875 27.296875 
Q 46.1875 37.015625 41.984375 42.703125 
Q 37.796875 48.390625 30.609375 48.390625 
z
M 30.609375 56 
Q 42.328125 56 49.015625 48.375 
Q 55.71875 40.765625 55.71875 27.296875 
Q 55.71875 13.875 49.015625 6.21875 
Q 42.328125 -1.421875 30.609375 -1.421875 
Q 18.84375 -1.421875 12.171875 6.21875 
Q 5.515625 13.875 5.515625 27.296875 
Q 5.515625 40.765625 12.171875 48.375 
Q 18.84375 56 30.609375 56 
z
" id="DejaVuSans-111"/>
     <path d="M 54.890625 33.015625 
L 54.890625 0 
L 45.90625 0 
L 45.90625 32.71875 
Q 45.90625 40.484375 42.875 44.328125 
Q 39.84375 48.1875 33.796875 48.1875 
Q 26.515625 48.1875 22.3125 43.546875 
Q 18.109375 38.921875 18.109375 30.90625 
L 18.109375 0 
L 9.078125 0 
L 9.078125 54.6875 
L 18.109375 54.6875 
L 18.109375 46.1875 
Q 21.34375 51.125 25.703125 53.5625 
Q 30.078125 56 35.796875 56 
Q 45.21875 56 50.046875 50.171875 
Q 54.890625 44.34375 54.890625 33.015625 
z
" id="DejaVuSans-110"/>
     <path d="M 44.28125 53.078125 
L 44.28125 44.578125 
Q 40.484375 46.53125 36.375 47.5 
Q 32.28125 48.484375 27.875 48.484375 
Q 21.1875 48.484375 17.84375 46.4375 
Q 14.5 44.390625 14.5 40.28125 
Q 14.5 37.15625 16.890625 35.375 
Q 19.28125 33.59375 26.515625 31.984375 
L 29.59375 31.296875 
Q 39.15625 29.25 43.1875 25.515625 
Q 47.21875 21.78125 47.21875 15.09375 
Q 47.21875 7.46875 41.1875 3.015625 
Q 35.15625 -1.421875 24.609375 -1.421875 
Q 20.21875 -1.421875 15.453125 -0.5625 
Q 10.6875 0.296875 5.421875 2 
L 5.421875 11.28125 
Q 10.40625 8.6875 15.234375 7.390625 
Q 20.0625 6.109375 24.8125 6.109375 
Q 31.15625 6.109375 34.5625 8.28125 
Q 37.984375 10.453125 37.984375 14.40625 
Q 37.984375 18.0625 35.515625 20.015625 
Q 33.0625 21.96875 24.703125 23.78125 
L 21.578125 24.515625 
Q 13.234375 26.265625 9.515625 29.90625 
Q 5.8125 33.546875 5.8125 39.890625 
Q 5.8125 47.609375 11.28125 51.796875 
Q 16.75 56 26.8125 56 
Q 31.78125 56 36.171875 55.265625 
Q 40.578125 54.546875 44.28125 53.078125 
z
" id="DejaVuSans-115"/>
     <path d="M 10.6875 12.40625 
L 21 12.40625 
L 21 0 
L 10.6875 0 
z
" id="DejaVuSans-46"/>
     <path id="DejaVuSans-32"/>
     <path d="M 9.8125 72.90625 
L 51.703125 72.90625 
L 51.703125 64.59375 
L 19.671875 64.59375 
L 19.671875 43.109375 
L 48.578125 43.109375 
L 48.578125 34.8125 
L 19.671875 34.8125 
L 19.671875 0 
L 9.8125 0 
z
" id="DejaVuSans-70"/>
     <path d="M 8.5 21.578125 
L 8.5 54.6875 
L 17.484375 54.6875 
L 17.484375 21.921875 
Q 17.484375 14.15625 20.5 10.265625 
Q 23.53125 6.390625 29.59375 6.390625 
Q 36.859375 6.390625 41.078125 11.03125 
Q 45.3125 15.671875 45.3125 23.6875 
L 45.3125 54.6875 
L 54.296875 54.6875 
L 54.296875 0 
L 45.3125 0 
L 45.3125 8.40625 
Q 42.046875 3.421875 37.71875 1 
Q 33.40625 -1.421875 27.6875 -1.421875 
Q 18.265625 -1.421875 13.375 4.4375 
Q 8.5 10.296875 8.5 21.578125 
z
M 31.109375 56 
z
" id="DejaVuSans-117"/>
     <path d="M 48.78125 52.59375 
L 48.78125 44.1875 
Q 44.96875 46.296875 41.140625 47.34375 
Q 37.3125 48.390625 33.40625 48.390625 
Q 24.65625 48.390625 19.8125 42.84375 
Q 14.984375 37.3125 14.984375 27.296875 
Q 14.984375 17.28125 19.8125 11.734375 
Q 24.65625 6.203125 33.40625 6.203125 
Q 37.3125 6.203125 41.140625 7.25 
Q 44.96875 8.296875 48.78125 10.40625 
L 48.78125 2.09375 
Q 45.015625 0.34375 40.984375 -0.53125 
Q 36.96875 -1.421875 32.421875 -1.421875 
Q 20.0625 -1.421875 12.78125 6.34375 
Q 5.515625 14.109375 5.515625 27.296875 
Q 5.515625 40.671875 12.859375 48.328125 
Q 20.21875 56 33.015625 56 
Q 37.15625 56 41.109375 55.140625 
Q 45.0625 54.296875 48.78125 52.59375 
z
" id="DejaVuSans-99"/>
     <path d="M 18.3125 70.21875 
L 18.3125 54.6875 
L 36.8125 54.6875 
L 36.8125 47.703125 
L 18.3125 47.703125 
L 18.3125 18.015625 
Q 18.3125 11.328125 20.140625 9.421875 
Q 21.96875 7.515625 27.59375 7.515625 
L 36.8125 7.515625 
L 36.8125 0 
L 27.59375 0 
Q 17.1875 0 13.234375 3.875 
Q 9.28125 7.765625 9.28125 18.015625 
L 9.28125 47.703125 
L 2.6875 47.703125 
L 2.6875 54.6875 
L 9.28125 54.6875 
L 9.28125 70.21875 
z
" id="DejaVuSans-116"/>
     <path d="M 9.421875 54.6875 
L 18.40625 54.6875 
L 18.40625 0 
L 9.421875 0 
z
M 9.421875 75.984375 
L 18.40625 75.984375 
L 18.40625 64.59375 
L 9.421875 64.59375 
z
" id="DejaVuSans-105"/>
    </defs>
    <g transform="translate(149.293438 26.64)scale(0.12 -0.12)">
     <use xlink:href="#DejaVuSans-67"/>
     <use x="69.824219" xlink:href="#DejaVuSans-111"/>
     <use x="131.005859" xlink:href="#DejaVuSans-110"/>
     <use x="194.384766" xlink:href="#DejaVuSans-115"/>
     <use x="246.484375" xlink:href="#DejaVuSans-46"/>
     <use x="278.271484" xlink:href="#DejaVuSans-32"/>
     <use x="310.058594" xlink:href="#DejaVuSans-70"/>
     <use x="367.5" xlink:href="#DejaVuSans-117"/>
     <use x="430.878906" xlink:href="#DejaVuSans-110"/>
     <use x="494.257812" xlink:href="#DejaVuSans-99"/>
     <use x="549.238281" xlink:href="#DejaVuSans-116"/>
     <use x="588.447266" xlink:href="#DejaVuSans-105"/>
     <use x="616.230469" xlink:href="#DejaVuSans-111"/>
     <use x="677.412109" xlink:href="#DejaVuSans-110"/>
     <use x="740.791016" xlink:href="#DejaVuSans-115"/>
    </g>
   </g>
   <g id="legend_1">
    <g id="patch_7">
     <path d="M 47.12 69.99625 
L 106.987188 69.99625 
Q 108.987188 69.99625 108.987188 67.99625 
L 108.987188 39.64 
Q 108.987188 37.64 106.987188 37.64 
L 47.12 37.64 
Q 45.12 37.64 45.12 39.64 
L 45.12 67.99625 
Q 45.12 69.99625 47.12 69.99625 
z
" style="fill:#ffffff;opacity:0.8;stroke:#cccccc;stroke-linejoin:miter;"/>
    </g>
    <g id="line2d_29">
     <path d="M 49.12 45.738438 
L 69.12 45.738438 
" style="fill:none;stroke:#1f77b4;stroke-linecap:square;stroke-width:1.5;"/>
    </g>
    <g id="line2d_30"/>
    <g id="text_6">
     <!-- CGM -->
     <defs>
      <path d="M 59.515625 10.40625 
L 59.515625 29.984375 
L 43.40625 29.984375 
L 43.40625 38.09375 
L 69.28125 38.09375 
L 69.28125 6.78125 
Q 63.578125 2.734375 56.6875 0.65625 
Q 49.8125 -1.421875 42 -1.421875 
Q 24.90625 -1.421875 15.25 8.5625 
Q 5.609375 18.5625 5.609375 36.375 
Q 5.609375 54.25 15.25 64.234375 
Q 24.90625 74.21875 42 74.21875 
Q 49.125 74.21875 55.546875 72.453125 
Q 61.96875 70.703125 67.390625 67.28125 
L 67.390625 56.78125 
Q 61.921875 61.421875 55.765625 63.765625 
Q 49.609375 66.109375 42.828125 66.109375 
Q 29.4375 66.109375 22.71875 58.640625 
Q 16.015625 51.171875 16.015625 36.375 
Q 16.015625 21.625 22.71875 14.15625 
Q 29.4375 6.6875 42.828125 6.6875 
Q 48.046875 6.6875 52.140625 7.59375 
Q 56.25 8.5 59.515625 10.40625 
z
" id="DejaVuSans-71"/>
      <path d="M 9.8125 72.90625 
L 24.515625 72.90625 
L 43.109375 23.296875 
L 61.8125 72.90625 
L 76.515625 72.90625 
L 76.515625 0 
L 66.890625 0 
L 66.890625 64.015625 
L 48.09375 14.015625 
L 38.1875 14.015625 
L 19.390625 64.015625 
L 19.390625 0 
L 9.8125 0 
z
" id="DejaVuSans-77"/>
     </defs>
     <g transform="translate(77.12 49.238438)scale(0.1 -0.1)">
      <use xlink:href="#DejaVuSans-67"/>
      <use x="69.824219" xlink:href="#DejaVuSans-71"/>
      <use x="147.314453" xlink:href="#DejaVuSans-77"/>
     </g>
    </g>
    <g id="line2d_31">
     <path d="M 49.12 60.416563 
L 69.12 60.416563 
" style="fill:none;stroke:#ff7f0e;stroke-linecap:square;stroke-width:1.5;"/>
    </g>
    <g id="line2d_32"/>
    <g id="text_7">
     <!-- HARK -->
     <defs>
      <path d="M 9.8125 72.90625 
L 19.671875 72.90625 
L 19.671875 43.015625 
L 55.515625 43.015625 
L 55.515625 72.90625 
L 65.375 72.90625 
L 65.375 0 
L 55.515625 0 
L 55.515625 34.71875 
L 19.671875 34.71875 
L 19.671875 0 
L 9.8125 0 
z
" id="DejaVuSans-72"/>
      <path d="M 34.1875 63.1875 
L 20.796875 26.90625 
L 47.609375 26.90625 
z
M 28.609375 72.90625 
L 39.796875 72.90625 
L 67.578125 0 
L 57.328125 0 
L 50.6875 18.703125 
L 17.828125 18.703125 
L 11.1875 0 
L 0.78125 0 
z
" id="DejaVuSans-65"/>
      <path d="M 44.390625 34.1875 
Q 47.5625 33.109375 50.5625 29.59375 
Q 53.5625 26.078125 56.59375 19.921875 
L 66.609375 0 
L 56 0 
L 46.6875 18.703125 
Q 43.0625 26.03125 39.671875 28.421875 
Q 36.28125 30.8125 30.421875 30.8125 
L 19.671875 30.8125 
L 19.671875 0 
L 9.8125 0 
L 9.8125 72.90625 
L 32.078125 72.90625 
Q 44.578125 72.90625 50.734375 67.671875 
Q 56.890625 62.453125 56.890625 51.90625 
Q 56.890625 45.015625 53.6875 40.46875 
Q 50.484375 35.9375 44.390625 34.1875 
z
M 19.671875 64.796875 
L 19.671875 38.921875 
L 32.078125 38.921875 
Q 39.203125 38.921875 42.84375 42.21875 
Q 46.484375 45.515625 46.484375 51.90625 
Q 46.484375 58.296875 42.84375 61.546875 
Q 39.203125 64.796875 32.078125 64.796875 
z
" id="DejaVuSans-82"/>
      <path d="M 9.8125 72.90625 
L 19.671875 72.90625 
L 19.671875 42.09375 
L 52.390625 72.90625 
L 65.09375 72.90625 
L 28.90625 38.921875 
L 67.671875 0 
L 54.6875 0 
L 19.671875 35.109375 
L 19.671875 0 
L 9.8125 0 
z
" id="DejaVuSans-75"/>
     </defs>
     <g transform="translate(77.12 63.916563)scale(0.1 -0.1)">
      <use xlink:href="#DejaVuSans-72"/>
      <use x="75.195312" xlink:href="#DejaVuSans-65"/>
      <use x="143.603516" xlink:href="#DejaVuSans-82"/>
      <use x="213.085938" xlink:href="#DejaVuSans-75"/>
     </g>
    </g>
   </g>
  </g>
  <g id="axes_2">
   <g id="patch_8">
    <path d="M 395.71 120.5216 
L 709.2 120.5216 
L 709.2 32.64 
L 395.71 32.64 
z
" style="fill:#ffffff;"/>
   </g>
   <g id="matplotlib.axis_3">
    <g id="xtick_10">
     <g id="line2d_33">
      <path clip-path="url(#pba59ad6fe1)" d="M 407.109636 120.5216 
L 407.109636 32.64 
" style="fill:none;stroke:#b0b0b0;stroke-linecap:square;stroke-width:0.8;"/>
     </g>
     <g id="line2d_34">
      <g>
       <use style="stroke:#000000;stroke-width:0.8;" x="407.109636" xlink:href="#mb836ab7246" y="120.5216"/>
      </g>
     </g>
    </g>
    <g id="xtick_11">
     <g id="line2d_35">
      <path clip-path="url(#pba59ad6fe1)" d="M 442.7335 120.5216 
L 442.7335 32.64 
" style="fill:none;stroke:#b0b0b0;stroke-linecap:square;stroke-width:0.8;"/>
     </g>
     <g id="line2d_36">
      <g>
       <use style="stroke:#000000;stroke-width:0.8;" x="442.7335" xlink:href="#mb836ab7246" y="120.5216"/>
      </g>
     </g>
    </g>
    <g id="xtick_12">
     <g id="line2d_37">
      <path clip-path="url(#pba59ad6fe1)" d="M 478.357364 120.5216 
L 478.357364 32.64 
" style="fill:none;stroke:#b0b0b0;stroke-linecap:square;stroke-width:0.8;"/>
     </g>
     <g id="line2d_38">
      <g>
       <use style="stroke:#000000;stroke-width:0.8;" x="478.357364" xlink:href="#mb836ab7246" y="120.5216"/>
      </g>
     </g>
    </g>
    <g id="xtick_13">
     <g id="line2d_39">
      <path clip-path="url(#pba59ad6fe1)" d="M 513.981227 120.5216 
L 513.981227 32.64 
" style="fill:none;stroke:#b0b0b0;stroke-linecap:square;stroke-width:0.8;"/>
     </g>
     <g id="line2d_40">
      <g>
       <use style="stroke:#000000;stroke-width:0.8;" x="513.981227" xlink:href="#mb836ab7246" y="120.5216"/>
      </g>
     </g>
    </g>
    <g id="xtick_14">
     <g id="line2d_41">
      <path clip-path="url(#pba59ad6fe1)" d="M 549.605091 120.5216 
L 549.605091 32.64 
" style="fill:none;stroke:#b0b0b0;stroke-linecap:square;stroke-width:0.8;"/>
     </g>
     <g id="line2d_42">
      <g>
       <use style="stroke:#000000;stroke-width:0.8;" x="549.605091" xlink:href="#mb836ab7246" y="120.5216"/>
      </g>
     </g>
    </g>
    <g id="xtick_15">
     <g id="line2d_43">
      <path clip-path="url(#pba59ad6fe1)" d="M 585.228955 120.5216 
L 585.228955 32.64 
" style="fill:none;stroke:#b0b0b0;stroke-linecap:square;stroke-width:0.8;"/>
     </g>
     <g id="line2d_44">
      <g>
       <use style="stroke:#000000;stroke-width:0.8;" x="585.228955" xlink:href="#mb836ab7246" y="120.5216"/>
      </g>
     </g>
    </g>
    <g id="xtick_16">
     <g id="line2d_45">
      <path clip-path="url(#pba59ad6fe1)" d="M 620.852818 120.5216 
L 620.852818 32.64 
" style="fill:none;stroke:#b0b0b0;stroke-linecap:square;stroke-width:0.8;"/>
     </g>
     <g id="line2d_46">
      <g>
       <use style="stroke:#000000;stroke-width:0.8;" x="620.852818" xlink:href="#mb836ab7246" y="120.5216"/>
      </g>
     </g>
    </g>
    <g id="xtick_17">
     <g id="line2d_47">
      <path clip-path="url(#pba59ad6fe1)" d="M 656.476682 120.5216 
L 656.476682 32.64 
" style="fill:none;stroke:#b0b0b0;stroke-linecap:square;stroke-width:0.8;"/>
     </g>
     <g id="line2d_48">
      <g>
       <use style="stroke:#000000;stroke-width:0.8;" x="656.476682" xlink:href="#mb836ab7246" y="120.5216"/>
      </g>
     </g>
    </g>
    <g id="xtick_18">
     <g id="line2d_49">
      <path clip-path="url(#pba59ad6fe1)" d="M 692.100545 120.5216 
L 692.100545 32.64 
" style="fill:none;stroke:#b0b0b0;stroke-linecap:square;stroke-width:0.8;"/>
     </g>
     <g id="line2d_50">
      <g>
       <use style="stroke:#000000;stroke-width:0.8;" x="692.100545" xlink:href="#mb836ab7246" y="120.5216"/>
      </g>
     </g>
    </g>
   </g>
   <g id="matplotlib.axis_4">
    <g id="ytick_5">
     <g id="line2d_51">
      <path clip-path="url(#pba59ad6fe1)" d="M 395.71 105.125195 
L 709.2 105.125195 
" style="fill:none;stroke:#b0b0b0;stroke-linecap:square;stroke-width:0.8;"/>
     </g>
     <g id="line2d_52">
      <g>
       <use style="stroke:#000000;stroke-width:0.8;" x="395.71" xlink:href="#mf8541f432d" y="105.125195"/>
      </g>
     </g>
     <g id="text_8">
      <!-- −75 -->
      <defs>
       <path d="M 10.59375 35.5 
L 73.1875 35.5 
L 73.1875 27.203125 
L 10.59375 27.203125 
z
" id="DejaVuSans-8722"/>
       <path d="M 8.203125 72.90625 
L 55.078125 72.90625 
L 55.078125 68.703125 
L 28.609375 0 
L 18.3125 0 
L 43.21875 64.59375 
L 8.203125 64.59375 
z
" id="DejaVuSans-55"/>
      </defs>
      <g transform="translate(367.605312 108.924413)scale(0.1 -0.1)">
       <use xlink:href="#DejaVuSans-8722"/>
       <use x="83.789062" xlink:href="#DejaVuSans-55"/>
       <use x="147.412109" xlink:href="#DejaVuSans-53"/>
      </g>
     </g>
    </g>
    <g id="ytick_6">
     <g id="line2d_53">
      <path clip-path="url(#pba59ad6fe1)" d="M 395.71 82.300005 
L 709.2 82.300005 
" style="fill:none;stroke:#b0b0b0;stroke-linecap:square;stroke-width:0.8;"/>
     </g>
     <g id="line2d_54">
      <g>
       <use style="stroke:#000000;stroke-width:0.8;" x="395.71" xlink:href="#mf8541f432d" y="82.300005"/>
      </g>
     </g>
     <g id="text_9">
      <!-- −50 -->
      <g transform="translate(367.605312 86.099223)scale(0.1 -0.1)">
       <use xlink:href="#DejaVuSans-8722"/>
       <use x="83.789062" xlink:href="#DejaVuSans-53"/>
       <use x="147.412109" xlink:href="#DejaVuSans-48"/>
      </g>
     </g>
    </g>
    <g id="ytick_7">
     <g id="line2d_55">
      <path clip-path="url(#pba59ad6fe1)" d="M 395.71 59.474815 
L 709.2 59.474815 
" style="fill:none;stroke:#b0b0b0;stroke-linecap:square;stroke-width:0.8;"/>
     </g>
     <g id="line2d_56">
      <g>
       <use style="stroke:#000000;stroke-width:0.8;" x="395.71" xlink:href="#mf8541f432d" y="59.474815"/>
      </g>
     </g>
     <g id="text_10">
      <!-- −25 -->
      <defs>
       <path d="M 19.1875 8.296875 
L 53.609375 8.296875 
L 53.609375 0 
L 7.328125 0 
L 7.328125 8.296875 
Q 12.9375 14.109375 22.625 23.890625 
Q 32.328125 33.6875 34.8125 36.53125 
Q 39.546875 41.84375 41.421875 45.53125 
Q 43.3125 49.21875 43.3125 52.78125 
Q 43.3125 58.59375 39.234375 62.25 
Q 35.15625 65.921875 28.609375 65.921875 
Q 23.96875 65.921875 18.8125 64.3125 
Q 13.671875 62.703125 7.8125 59.421875 
L 7.8125 69.390625 
Q 13.765625 71.78125 18.9375 73 
Q 24.125 74.21875 28.421875 74.21875 
Q 39.75 74.21875 46.484375 68.546875 
Q 53.21875 62.890625 53.21875 53.421875 
Q 53.21875 48.921875 51.53125 44.890625 
Q 49.859375 40.875 45.40625 35.40625 
Q 44.1875 33.984375 37.640625 27.21875 
Q 31.109375 20.453125 19.1875 8.296875 
z
" id="DejaVuSans-50"/>
      </defs>
      <g transform="translate(367.605312 63.274033)scale(0.1 -0.1)">
       <use xlink:href="#DejaVuSans-8722"/>
       <use x="83.789062" xlink:href="#DejaVuSans-50"/>
       <use x="147.412109" xlink:href="#DejaVuSans-53"/>
      </g>
     </g>
    </g>
    <g id="ytick_8">
     <g id="line2d_57">
      <path clip-path="url(#pba59ad6fe1)" d="M 395.71 36.649625 
L 709.2 36.649625 
" style="fill:none;stroke:#b0b0b0;stroke-linecap:square;stroke-width:0.8;"/>
     </g>
     <g id="line2d_58">
      <g>
       <use style="stroke:#000000;stroke-width:0.8;" x="395.71" xlink:href="#mf8541f432d" y="36.649625"/>
      </g>
     </g>
     <g id="text_11">
      <!-- 0 -->
      <g transform="translate(382.3475 40.448843)scale(0.1 -0.1)">
       <use xlink:href="#DejaVuSans-48"/>
      </g>
     </g>
    </g>
   </g>
   <g id="line2d_59">
    <path clip-path="url(#pba59ad6fe1)" d="M 409.959545 36.646094 
L 419.934227 36.647172 
L 421.359182 36.975777 
L 426.346523 37.746252 
L 427.059 38.080586 
L 428.483955 38.290215 
L 429.196432 38.622087 
L 430.621386 38.826937 
L 431.333864 39.156525 
L 432.758818 39.354067 
L 433.471295 39.679131 
L 434.183773 39.775882 
L 434.89625 40.100826 
L 436.321205 40.29381 
L 437.033682 40.618259 
L 437.746159 40.714457 
L 438.458636 41.038905 
L 439.171114 41.135103 
L 439.883591 41.459551 
L 441.308545 41.651946 
L 442.021023 41.976395 
L 442.7335 42.072592 
L 443.445977 42.397041 
L 444.158455 42.493239 
L 444.870932 42.817688 
L 445.583409 42.913884 
L 446.295886 43.238334 
L 447.008364 43.334531 
L 447.720841 43.65898 
L 448.433318 43.755177 
L 449.145795 44.079626 
L 449.858273 44.175824 
L 450.57075 44.500273 
L 451.995705 44.692666 
L 453.420659 45.341565 
L 454.133136 45.437763 
L 454.845614 45.762211 
L 455.558091 45.858408 
L 456.270568 46.182857 
L 457.695523 46.375252 
L 459.120477 47.024151 
L 460.545432 47.216544 
L 461.257909 47.540993 
L 461.970386 47.63719 
L 463.395341 48.286089 
L 464.820295 48.478484 
L 466.24525 49.127382 
L 467.670205 49.319776 
L 468.382682 49.644224 
L 469.095159 49.740421 
L 470.520114 50.38932 
L 471.945068 50.581714 
L 473.370023 51.230613 
L 475.507455 51.519205 
L 476.219932 51.843654 
L 476.932409 51.939851 
L 477.644886 52.492551 
L 478.357364 52.817 
L 479.782318 53.009394 
L 480.494795 53.333843 
L 482.632227 53.622435 
L 483.344705 53.946884 
L 484.057182 54.043081 
L 486.194614 55.016429 
L 486.907091 55.112626 
L 488.332045 55.761525 
L 490.469477 56.050117 
L 491.181955 56.374566 
L 492.606909 56.56696 
L 495.456818 57.864755 
L 496.169295 57.960953 
L 496.881773 58.285402 
L 499.019205 58.573993 
L 499.731682 58.898442 
L 500.444159 58.994639 
L 501.156636 59.319088 
L 501.869114 59.415285 
L 503.294068 60.064184 
L 504.006545 60.160381 
L 504.719023 60.48483 
L 505.4315 60.581027 
L 506.143977 60.905476 
L 507.568932 61.097871 
L 508.281409 61.42232 
L 508.993886 61.518517 
L 509.706364 61.842967 
L 510.418841 61.939164 
L 511.843795 62.588062 
L 512.556273 62.68426 
L 513.26875 63.008709 
L 513.981227 63.104906 
L 514.693705 63.429355 
L 516.118659 63.62175 
L 516.831136 63.946199 
L 517.543614 64.042396 
L 518.256091 64.366845 
L 518.968568 64.463042 
L 520.393523 65.11194 
L 521.106 65.208137 
L 521.818477 65.532586 
L 522.530955 65.628783 
L 523.243432 65.953232 
L 523.955909 66.049429 
L 524.668386 66.373878 
L 526.093341 66.566272 
L 526.805818 66.890721 
L 527.518295 66.986919 
L 528.230773 67.311368 
L 528.94325 67.407565 
L 530.368205 68.056463 
L 531.080682 68.15266 
L 531.793159 68.477109 
L 532.505636 68.573306 
L 533.218114 68.897755 
L 533.930591 68.993952 
L 534.643068 69.318401 
L 536.068023 69.510796 
L 536.7805 69.835245 
L 537.492977 69.931442 
L 538.205455 70.255891 
L 538.917932 70.352088 
L 539.630409 70.676537 
L 540.342886 70.772734 
L 541.055364 71.097184 
L 541.767841 71.193381 
L 542.480318 71.51783 
L 543.192795 71.614027 
L 543.905273 71.938476 
L 544.61775 72.034673 
L 546.042705 72.683572 
L 547.467659 72.875966 
L 548.180136 73.200415 
L 548.892614 73.296612 
L 549.605091 73.621062 
L 550.317568 73.717259 
L 551.030045 74.041708 
L 551.742523 74.137905 
L 552.455 74.462354 
L 553.167477 74.558552 
L 553.879955 74.883001 
L 554.592432 74.979198 
L 556.017386 75.628096 
L 556.729864 75.724294 
L 557.442341 76.048743 
L 558.867295 76.241137 
L 559.579773 76.565586 
L 560.29225 76.661784 
L 561.004727 76.986233 
L 561.717205 77.08243 
L 562.429682 77.406879 
L 563.142159 77.503077 
L 563.854636 77.827526 
L 564.567114 77.923723 
L 565.279591 78.248172 
L 565.992068 78.344369 
L 567.417023 78.993268 
L 568.1295 79.089465 
L 568.841977 79.413914 
L 570.266932 79.606308 
L 570.979409 79.930757 
L 571.691886 80.026954 
L 572.404364 80.351403 
L 573.116841 80.447601 
L 573.829318 80.77205 
L 574.541795 80.868247 
L 575.254273 81.192696 
L 575.96675 81.288893 
L 576.679227 81.613342 
L 577.391705 81.709539 
L 578.816659 82.358437 
L 579.529136 82.454634 
L 580.241614 82.779084 
L 581.666568 82.971478 
L 582.379045 83.295927 
L 583.091523 83.392124 
L 583.804 83.716573 
L 584.516477 83.81277 
L 585.228955 84.137219 
L 585.941432 84.233416 
L 586.653909 84.557865 
L 587.366386 84.654063 
L 588.078864 84.978512 
L 588.791341 85.074709 
L 589.503818 85.399158 
L 590.216295 85.495355 
L 590.928773 85.819804 
L 591.64125 85.916001 
L 592.353727 86.24045 
L 593.066205 86.336647 
L 593.778682 86.661096 
L 594.491159 86.757294 
L 595.203636 87.081743 
L 595.916114 87.17794 
L 596.628591 87.502389 
L 597.341068 87.598586 
L 598.053545 87.923035 
L 598.766023 88.019232 
L 599.4785 88.343681 
L 600.190977 88.439878 
L 600.903455 88.764327 
L 601.615932 88.860525 
L 602.328409 89.184974 
L 603.040886 89.281171 
L 603.753364 89.60562 
L 604.465841 89.701817 
L 605.178318 90.026266 
L 605.890795 90.122463 
L 606.603273 90.446912 
L 607.31575 90.54311 
L 608.028227 90.867559 
L 608.740705 90.963756 
L 609.453182 91.288205 
L 610.165659 91.384402 
L 610.878136 91.708851 
L 611.590614 91.805048 
L 612.303091 92.129497 
L 613.015568 92.225694 
L 613.728045 92.550144 
L 614.440523 92.646341 
L 615.153 92.97079 
L 615.865477 93.066987 
L 616.577955 93.391436 
L 617.290432 93.487633 
L 618.002909 93.812082 
L 618.715386 93.908279 
L 619.427864 94.232729 
L 620.140341 94.328926 
L 620.852818 94.653375 
L 621.565295 94.749572 
L 622.277773 95.074021 
L 622.99025 95.170218 
L 623.702727 95.494667 
L 624.415205 95.590864 
L 625.127682 95.915314 
L 625.840159 96.011511 
L 626.552636 96.33596 
L 627.265114 96.432157 
L 627.977591 96.756606 
L 628.690068 96.852803 
L 629.402545 97.177252 
L 630.115023 97.27345 
L 630.8275 97.597899 
L 631.539977 97.694096 
L 632.252455 98.018545 
L 632.964932 98.114742 
L 633.677409 98.439191 
L 634.389886 98.535388 
L 635.102364 98.859837 
L 635.814841 98.956035 
L 636.527318 99.280484 
L 637.239795 99.376681 
L 637.952273 99.70113 
L 638.66475 99.797327 
L 639.377227 100.121776 
L 640.089705 100.217973 
L 640.802182 100.542422 
L 641.514659 100.63862 
L 642.227136 100.963069 
L 642.939614 101.059266 
L 643.652091 101.383715 
L 644.364568 101.479912 
L 645.077045 101.804361 
L 645.789523 101.900559 
L 646.502 102.225008 
L 647.214477 102.321205 
L 647.926955 102.645654 
L 648.639432 102.741851 
L 649.351909 103.0663 
L 650.064386 103.162497 
L 650.776864 103.486946 
L 651.489341 103.583144 
L 652.201818 103.907593 
L 652.914295 104.00379 
L 653.626773 104.328239 
L 654.33925 104.424436 
L 655.051727 104.748885 
L 655.764205 104.845083 
L 656.476682 105.169532 
L 657.189159 105.265729 
L 657.901636 105.590178 
L 658.614114 105.686375 
L 659.326591 106.010824 
L 660.039068 106.107021 
L 660.751545 106.43147 
L 661.464023 106.527668 
L 662.1765 106.852117 
L 662.888977 106.948314 
L 663.601455 107.272763 
L 664.313932 107.36896 
L 665.026409 107.693409 
L 665.738886 107.789607 
L 666.451364 108.114056 
L 667.163841 108.210253 
L 667.876318 108.534702 
L 668.588795 108.630899 
L 669.301273 108.955348 
L 670.01375 109.051545 
L 670.726227 109.375995 
L 671.438705 109.472192 
L 672.151182 109.796641 
L 672.863659 109.892838 
L 673.576136 110.217287 
L 674.288614 110.313484 
L 675.001091 110.637933 
L 675.713568 110.734131 
L 676.426045 111.05858 
L 677.138523 111.154777 
L 677.851 111.479226 
L 678.563477 111.575423 
L 679.275955 111.899872 
L 679.988432 111.99607 
L 680.700909 112.320519 
L 681.413386 112.416716 
L 682.125864 112.741165 
L 682.838341 112.837362 
L 683.550818 113.161811 
L 684.263295 113.258009 
L 684.975773 113.582458 
L 685.68825 113.678655 
L 686.400727 114.003104 
L 687.113205 114.099301 
L 687.825682 114.42375 
L 688.538159 114.519947 
L 689.250636 114.844397 
L 689.963114 114.940594 
L 690.675591 115.265043 
L 691.388068 115.36124 
L 692.100545 115.685689 
L 692.813023 115.781886 
L 693.5255 116.106336 
L 694.237977 116.202533 
L 694.950455 116.526982 
L 694.950455 116.526982 
" style="fill:none;stroke:#1f77b4;stroke-linecap:square;stroke-width:1.5;"/>
   </g>
   <g id="patch_9">
    <path d="M 395.71 120.5216 
L 395.71 32.64 
" style="fill:none;stroke:#000000;stroke-linecap:square;stroke-linejoin:miter;stroke-width:0.8;"/>
   </g>
   <g id="patch_10">
    <path d="M 709.2 120.5216 
L 709.2 32.64 
" style="fill:none;stroke:#000000;stroke-linecap:square;stroke-linejoin:miter;stroke-width:0.8;"/>
   </g>
   <g id="patch_11">
    <path d="M 395.71 120.5216 
L 709.2 120.5216 
" style="fill:none;stroke:#000000;stroke-linecap:square;stroke-linejoin:miter;stroke-width:0.8;"/>
   </g>
   <g id="patch_12">
    <path d="M 395.71 32.64 
L 709.2 32.64 
" style="fill:none;stroke:#000000;stroke-linecap:square;stroke-linejoin:miter;stroke-width:0.8;"/>
   </g>
   <g id="text_12">
    <!-- Cons. Difference -->
    <defs>
     <path d="M 19.671875 64.796875 
L 19.671875 8.109375 
L 31.59375 8.109375 
Q 46.6875 8.109375 53.6875 14.9375 
Q 60.6875 21.78125 60.6875 36.53125 
Q 60.6875 51.171875 53.6875 57.984375 
Q 46.6875 64.796875 31.59375 64.796875 
z
M 9.8125 72.90625 
L 30.078125 72.90625 
Q 51.265625 72.90625 61.171875 64.09375 
Q 71.09375 55.28125 71.09375 36.53125 
Q 71.09375 17.671875 61.125 8.828125 
Q 51.171875 0 30.078125 0 
L 9.8125 0 
z
" id="DejaVuSans-68"/>
     <path d="M 37.109375 75.984375 
L 37.109375 68.5 
L 28.515625 68.5 
Q 23.6875 68.5 21.796875 66.546875 
Q 19.921875 64.59375 19.921875 59.515625 
L 19.921875 54.6875 
L 34.71875 54.6875 
L 34.71875 47.703125 
L 19.921875 47.703125 
L 19.921875 0 
L 10.890625 0 
L 10.890625 47.703125 
L 2.296875 47.703125 
L 2.296875 54.6875 
L 10.890625 54.6875 
L 10.890625 58.5 
Q 10.890625 67.625 15.140625 71.796875 
Q 19.390625 75.984375 28.609375 75.984375 
z
" id="DejaVuSans-102"/>
     <path d="M 56.203125 29.59375 
L 56.203125 25.203125 
L 14.890625 25.203125 
Q 15.484375 15.921875 20.484375 11.0625 
Q 25.484375 6.203125 34.421875 6.203125 
Q 39.59375 6.203125 44.453125 7.46875 
Q 49.3125 8.734375 54.109375 11.28125 
L 54.109375 2.78125 
Q 49.265625 0.734375 44.1875 -0.34375 
Q 39.109375 -1.421875 33.890625 -1.421875 
Q 20.796875 -1.421875 13.15625 6.1875 
Q 5.515625 13.8125 5.515625 26.8125 
Q 5.515625 40.234375 12.765625 48.109375 
Q 20.015625 56 32.328125 56 
Q 43.359375 56 49.78125 48.890625 
Q 56.203125 41.796875 56.203125 29.59375 
z
M 47.21875 32.234375 
Q 47.125 39.59375 43.09375 43.984375 
Q 39.0625 48.390625 32.421875 48.390625 
Q 24.90625 48.390625 20.390625 44.140625 
Q 15.875 39.890625 15.1875 32.171875 
z
" id="DejaVuSans-101"/>
     <path d="M 41.109375 46.296875 
Q 39.59375 47.171875 37.8125 47.578125 
Q 36.03125 48 33.890625 48 
Q 26.265625 48 22.1875 43.046875 
Q 18.109375 38.09375 18.109375 28.8125 
L 18.109375 0 
L 9.078125 0 
L 9.078125 54.6875 
L 18.109375 54.6875 
L 18.109375 46.1875 
Q 20.953125 51.171875 25.484375 53.578125 
Q 30.03125 56 36.53125 56 
Q 37.453125 56 38.578125 55.875 
Q 39.703125 55.765625 41.0625 55.515625 
z
" id="DejaVuSans-114"/>
    </defs>
    <g transform="translate(502.699063 26.64)scale(0.12 -0.12)">
     <use xlink:href="#DejaVuSans-67"/>
     <use x="69.824219" xlink:href="#DejaVuSans-111"/>
     <use x="131.005859" xlink:href="#DejaVuSans-110"/>
     <use x="194.384766" xlink:href="#DejaVuSans-115"/>
     <use x="246.484375" xlink:href="#DejaVuSans-46"/>
     <use x="278.271484" xlink:href="#DejaVuSans-32"/>
     <use x="310.058594" xlink:href="#DejaVuSans-68"/>
     <use x="387.060547" xlink:href="#DejaVuSans-105"/>
     <use x="414.84375" xlink:href="#DejaVuSans-102"/>
     <use x="450.048828" xlink:href="#DejaVuSans-102"/>
     <use x="485.253906" xlink:href="#DejaVuSans-101"/>
     <use x="546.777344" xlink:href="#DejaVuSans-114"/>
     <use x="587.859375" xlink:href="#DejaVuSans-101"/>
     <use x="649.382812" xlink:href="#DejaVuSans-110"/>
     <use x="712.761719" xlink:href="#DejaVuSans-99"/>
     <use x="767.742188" xlink:href="#DejaVuSans-101"/>
    </g>
   </g>
   <g id="legend_2">
    <g id="patch_13">
     <path d="M 609.009375 55.318125 
L 702.2 55.318125 
Q 704.2 55.318125 704.2 53.318125 
L 704.2 39.64 
Q 704.2 37.64 702.2 37.64 
L 609.009375 37.64 
Q 607.009375 37.64 607.009375 39.64 
L 607.009375 53.318125 
Q 607.009375 55.318125 609.009375 55.318125 
z
" style="fill:#ffffff;opacity:0.8;stroke:#cccccc;stroke-linejoin:miter;"/>
    </g>
    <g id="line2d_60">
     <path d="M 611.009375 45.738438 
L 631.009375 45.738438 
" style="fill:none;stroke:#1f77b4;stroke-linecap:square;stroke-width:1.5;"/>
    </g>
    <g id="line2d_61"/>
    <g id="text_13">
     <!-- CGM - HARK -->
     <defs>
      <path d="M 4.890625 31.390625 
L 31.203125 31.390625 
L 31.203125 23.390625 
L 4.890625 23.390625 
z
" id="DejaVuSans-45"/>
     </defs>
     <g transform="translate(639.009375 49.238438)scale(0.1 -0.1)">
      <use xlink:href="#DejaVuSans-67"/>
      <use x="69.824219" xlink:href="#DejaVuSans-71"/>
      <use x="147.314453" xlink:href="#DejaVuSans-77"/>
      <use x="233.59375" xlink:href="#DejaVuSans-32"/>
      <use x="265.380859" xlink:href="#DejaVuSans-45"/>
      <use x="301.464844" xlink:href="#DejaVuSans-32"/>
      <use x="333.251953" xlink:href="#DejaVuSans-72"/>
      <use x="408.447266" xlink:href="#DejaVuSans-65"/>
      <use x="476.855469" xlink:href="#DejaVuSans-82"/>
      <use x="546.337891" xlink:href="#DejaVuSans-75"/>
     </g>
    </g>
   </g>
  </g>
  <g id="axes_3">
   <g id="patch_14">
    <path d="M 40.12 252.344 
L 353.61 252.344 
L 353.61 164.4624 
L 40.12 164.4624 
z
" style="fill:#ffffff;"/>
   </g>
   <g id="matplotlib.axis_5">
    <g id="xtick_19">
     <g id="line2d_62">
      <path clip-path="url(#p19b0492c17)" d="M 51.519636 252.344 
L 51.519636 164.4624 
" style="fill:none;stroke:#b0b0b0;stroke-linecap:square;stroke-width:0.8;"/>
     </g>
     <g id="line2d_63">
      <g>
       <use style="stroke:#000000;stroke-width:0.8;" x="51.519636" xlink:href="#mb836ab7246" y="252.344"/>
      </g>
     </g>
     <g id="text_14">
      <!-- 0 -->
      <g transform="translate(48.338386 266.942437)scale(0.1 -0.1)">
       <use xlink:href="#DejaVuSans-48"/>
      </g>
     </g>
    </g>
    <g id="xtick_20">
     <g id="line2d_64">
      <path clip-path="url(#p19b0492c17)" d="M 87.1435 252.344 
L 87.1435 164.4624 
" style="fill:none;stroke:#b0b0b0;stroke-linecap:square;stroke-width:0.8;"/>
     </g>
     <g id="line2d_65">
      <g>
       <use style="stroke:#000000;stroke-width:0.8;" x="87.1435" xlink:href="#mb836ab7246" y="252.344"/>
      </g>
     </g>
     <g id="text_15">
      <!-- 50 -->
      <g transform="translate(80.781 266.942437)scale(0.1 -0.1)">
       <use xlink:href="#DejaVuSans-53"/>
       <use x="63.623047" xlink:href="#DejaVuSans-48"/>
      </g>
     </g>
    </g>
    <g id="xtick_21">
     <g id="line2d_66">
      <path clip-path="url(#p19b0492c17)" d="M 122.767364 252.344 
L 122.767364 164.4624 
" style="fill:none;stroke:#b0b0b0;stroke-linecap:square;stroke-width:0.8;"/>
     </g>
     <g id="line2d_67">
      <g>
       <use style="stroke:#000000;stroke-width:0.8;" x="122.767364" xlink:href="#mb836ab7246" y="252.344"/>
      </g>
     </g>
     <g id="text_16">
      <!-- 100 -->
      <g transform="translate(113.223614 266.942437)scale(0.1 -0.1)">
       <use xlink:href="#DejaVuSans-49"/>
       <use x="63.623047" xlink:href="#DejaVuSans-48"/>
       <use x="127.246094" xlink:href="#DejaVuSans-48"/>
      </g>
     </g>
    </g>
    <g id="xtick_22">
     <g id="line2d_68">
      <path clip-path="url(#p19b0492c17)" d="M 158.391227 252.344 
L 158.391227 164.4624 
" style="fill:none;stroke:#b0b0b0;stroke-linecap:square;stroke-width:0.8;"/>
     </g>
     <g id="line2d_69">
      <g>
       <use style="stroke:#000000;stroke-width:0.8;" x="158.391227" xlink:href="#mb836ab7246" y="252.344"/>
      </g>
     </g>
     <g id="text_17">
      <!-- 150 -->
      <g transform="translate(148.847477 266.942437)scale(0.1 -0.1)">
       <use xlink:href="#DejaVuSans-49"/>
       <use x="63.623047" xlink:href="#DejaVuSans-53"/>
       <use x="127.246094" xlink:href="#DejaVuSans-48"/>
      </g>
     </g>
    </g>
    <g id="xtick_23">
     <g id="line2d_70">
      <path clip-path="url(#p19b0492c17)" d="M 194.015091 252.344 
L 194.015091 164.4624 
" style="fill:none;stroke:#b0b0b0;stroke-linecap:square;stroke-width:0.8;"/>
     </g>
     <g id="line2d_71">
      <g>
       <use style="stroke:#000000;stroke-width:0.8;" x="194.015091" xlink:href="#mb836ab7246" y="252.344"/>
      </g>
     </g>
     <g id="text_18">
      <!-- 200 -->
      <g transform="translate(184.471341 266.942437)scale(0.1 -0.1)">
       <use xlink:href="#DejaVuSans-50"/>
       <use x="63.623047" xlink:href="#DejaVuSans-48"/>
       <use x="127.246094" xlink:href="#DejaVuSans-48"/>
      </g>
     </g>
    </g>
    <g id="xtick_24">
     <g id="line2d_72">
      <path clip-path="url(#p19b0492c17)" d="M 229.638955 252.344 
L 229.638955 164.4624 
" style="fill:none;stroke:#b0b0b0;stroke-linecap:square;stroke-width:0.8;"/>
     </g>
     <g id="line2d_73">
      <g>
       <use style="stroke:#000000;stroke-width:0.8;" x="229.638955" xlink:href="#mb836ab7246" y="252.344"/>
      </g>
     </g>
     <g id="text_19">
      <!-- 250 -->
      <g transform="translate(220.095205 266.942437)scale(0.1 -0.1)">
       <use xlink:href="#DejaVuSans-50"/>
       <use x="63.623047" xlink:href="#DejaVuSans-53"/>
       <use x="127.246094" xlink:href="#DejaVuSans-48"/>
      </g>
     </g>
    </g>
    <g id="xtick_25">
     <g id="line2d_74">
      <path clip-path="url(#p19b0492c17)" d="M 265.262818 252.344 
L 265.262818 164.4624 
" style="fill:none;stroke:#b0b0b0;stroke-linecap:square;stroke-width:0.8;"/>
     </g>
     <g id="line2d_75">
      <g>
       <use style="stroke:#000000;stroke-width:0.8;" x="265.262818" xlink:href="#mb836ab7246" y="252.344"/>
      </g>
     </g>
     <g id="text_20">
      <!-- 300 -->
      <defs>
       <path d="M 40.578125 39.3125 
Q 47.65625 37.796875 51.625 33 
Q 55.609375 28.21875 55.609375 21.1875 
Q 55.609375 10.40625 48.1875 4.484375 
Q 40.765625 -1.421875 27.09375 -1.421875 
Q 22.515625 -1.421875 17.65625 -0.515625 
Q 12.796875 0.390625 7.625 2.203125 
L 7.625 11.71875 
Q 11.71875 9.328125 16.59375 8.109375 
Q 21.484375 6.890625 26.8125 6.890625 
Q 36.078125 6.890625 40.9375 10.546875 
Q 45.796875 14.203125 45.796875 21.1875 
Q 45.796875 27.640625 41.28125 31.265625 
Q 36.765625 34.90625 28.71875 34.90625 
L 20.21875 34.90625 
L 20.21875 43.015625 
L 29.109375 43.015625 
Q 36.375 43.015625 40.234375 45.921875 
Q 44.09375 48.828125 44.09375 54.296875 
Q 44.09375 59.90625 40.109375 62.90625 
Q 36.140625 65.921875 28.71875 65.921875 
Q 24.65625 65.921875 20.015625 65.03125 
Q 15.375 64.15625 9.8125 62.3125 
L 9.8125 71.09375 
Q 15.4375 72.65625 20.34375 73.4375 
Q 25.25 74.21875 29.59375 74.21875 
Q 40.828125 74.21875 47.359375 69.109375 
Q 53.90625 64.015625 53.90625 55.328125 
Q 53.90625 49.265625 50.4375 45.09375 
Q 46.96875 40.921875 40.578125 39.3125 
z
" id="DejaVuSans-51"/>
      </defs>
      <g transform="translate(255.719068 266.942437)scale(0.1 -0.1)">
       <use xlink:href="#DejaVuSans-51"/>
       <use x="63.623047" xlink:href="#DejaVuSans-48"/>
       <use x="127.246094" xlink:href="#DejaVuSans-48"/>
      </g>
     </g>
    </g>
    <g id="xtick_26">
     <g id="line2d_76">
      <path clip-path="url(#p19b0492c17)" d="M 300.886682 252.344 
L 300.886682 164.4624 
" style="fill:none;stroke:#b0b0b0;stroke-linecap:square;stroke-width:0.8;"/>
     </g>
     <g id="line2d_77">
      <g>
       <use style="stroke:#000000;stroke-width:0.8;" x="300.886682" xlink:href="#mb836ab7246" y="252.344"/>
      </g>
     </g>
     <g id="text_21">
      <!-- 350 -->
      <g transform="translate(291.342932 266.942437)scale(0.1 -0.1)">
       <use xlink:href="#DejaVuSans-51"/>
       <use x="63.623047" xlink:href="#DejaVuSans-53"/>
       <use x="127.246094" xlink:href="#DejaVuSans-48"/>
      </g>
     </g>
    </g>
    <g id="xtick_27">
     <g id="line2d_78">
      <path clip-path="url(#p19b0492c17)" d="M 336.510545 252.344 
L 336.510545 164.4624 
" style="fill:none;stroke:#b0b0b0;stroke-linecap:square;stroke-width:0.8;"/>
     </g>
     <g id="line2d_79">
      <g>
       <use style="stroke:#000000;stroke-width:0.8;" x="336.510545" xlink:href="#mb836ab7246" y="252.344"/>
      </g>
     </g>
     <g id="text_22">
      <!-- 400 -->
      <defs>
       <path d="M 37.796875 64.3125 
L 12.890625 25.390625 
L 37.796875 25.390625 
z
M 35.203125 72.90625 
L 47.609375 72.90625 
L 47.609375 25.390625 
L 58.015625 25.390625 
L 58.015625 17.1875 
L 47.609375 17.1875 
L 47.609375 0 
L 37.796875 0 
L 37.796875 17.1875 
L 4.890625 17.1875 
L 4.890625 26.703125 
z
" id="DejaVuSans-52"/>
      </defs>
      <g transform="translate(326.966795 266.942437)scale(0.1 -0.1)">
       <use xlink:href="#DejaVuSans-52"/>
       <use x="63.623047" xlink:href="#DejaVuSans-48"/>
       <use x="127.246094" xlink:href="#DejaVuSans-48"/>
      </g>
     </g>
    </g>
   </g>
   <g id="matplotlib.axis_6">
    <g id="ytick_9">
     <g id="line2d_80">
      <path clip-path="url(#p19b0492c17)" d="M 40.12 248.349382 
L 353.61 248.349382 
" style="fill:none;stroke:#b0b0b0;stroke-linecap:square;stroke-width:0.8;"/>
     </g>
     <g id="line2d_81">
      <g>
       <use style="stroke:#000000;stroke-width:0.8;" x="40.12" xlink:href="#mf8541f432d" y="248.349382"/>
      </g>
     </g>
     <g id="text_23">
      <!-- 0.0 -->
      <g transform="translate(17.216875 252.148601)scale(0.1 -0.1)">
       <use xlink:href="#DejaVuSans-48"/>
       <use x="63.623047" xlink:href="#DejaVuSans-46"/>
       <use x="95.410156" xlink:href="#DejaVuSans-48"/>
      </g>
     </g>
    </g>
    <g id="ytick_10">
     <g id="line2d_82">
      <path clip-path="url(#p19b0492c17)" d="M 40.12 208.4032 
L 353.61 208.4032 
" style="fill:none;stroke:#b0b0b0;stroke-linecap:square;stroke-width:0.8;"/>
     </g>
     <g id="line2d_83">
      <g>
       <use style="stroke:#000000;stroke-width:0.8;" x="40.12" xlink:href="#mf8541f432d" y="208.4032"/>
      </g>
     </g>
     <g id="text_24">
      <!-- 0.5 -->
      <g transform="translate(17.216875 212.202419)scale(0.1 -0.1)">
       <use xlink:href="#DejaVuSans-48"/>
       <use x="63.623047" xlink:href="#DejaVuSans-46"/>
       <use x="95.410156" xlink:href="#DejaVuSans-53"/>
      </g>
     </g>
    </g>
    <g id="ytick_11">
     <g id="line2d_84">
      <path clip-path="url(#p19b0492c17)" d="M 40.12 168.457018 
L 353.61 168.457018 
" style="fill:none;stroke:#b0b0b0;stroke-linecap:square;stroke-width:0.8;"/>
     </g>
     <g id="line2d_85">
      <g>
       <use style="stroke:#000000;stroke-width:0.8;" x="40.12" xlink:href="#mf8541f432d" y="168.457018"/>
      </g>
     </g>
     <g id="text_25">
      <!-- 1.0 -->
      <g transform="translate(17.216875 172.256237)scale(0.1 -0.1)">
       <use xlink:href="#DejaVuSans-49"/>
       <use x="63.623047" xlink:href="#DejaVuSans-46"/>
       <use x="95.410156" xlink:href="#DejaVuSans-48"/>
      </g>
     </g>
    </g>
   </g>
   <g id="line2d_86">
    <path clip-path="url(#p19b0492c17)" d="M 54.369545 248.349382 
L 63.63175 248.349382 
L 64.344227 168.457018 
L 84.293591 168.457018 
L 85.006068 169.255942 
L 85.718545 170.853789 
L 86.431023 171.652713 
L 87.1435 174.049484 
L 87.855977 174.848407 
L 89.280932 178.044102 
L 89.993409 178.843025 
L 90.705886 181.239796 
L 91.418364 182.03872 
L 92.130841 182.03872 
L 93.555795 185.234415 
L 94.268273 186.033338 
L 94.98075 186.033338 
L 95.693227 187.631185 
L 96.405705 190.82688 
L 97.118182 186.832262 
L 97.830659 190.027956 
L 98.543136 192.424727 
L 99.255614 192.424727 
L 100.680568 194.022575 
L 101.393045 193.223651 
L 102.818 198.017193 
L 103.530477 192.424727 
L 104.242955 197.218269 
L 105.667909 200.413964 
L 106.380386 200.413964 
L 107.092864 201.212887 
L 108.517818 199.61504 
L 109.230295 199.61504 
L 109.942773 206.006429 
L 110.65525 202.810735 
L 111.367727 202.810735 
L 112.792682 206.006429 
L 113.505159 206.805353 
L 114.217636 210.001047 
L 114.930114 201.212887 
L 115.642591 203.609658 
L 116.355068 202.810735 
L 117.067545 203.609658 
L 117.780023 207.604276 
L 118.4925 206.805353 
L 119.204977 206.805353 
L 119.917455 209.202124 
L 120.629932 210.799971 
L 121.342409 213.196742 
L 122.054886 204.408582 
L 122.767364 209.202124 
L 123.479841 208.4032 
L 124.192318 206.006429 
L 124.904795 206.006429 
L 125.617273 209.202124 
L 127.042227 209.202124 
L 127.754705 210.799971 
L 128.467182 210.799971 
L 129.179659 218.789207 
L 129.892136 216.392436 
L 131.317091 214.794589 
L 132.029568 212.397818 
L 132.742045 211.598895 
L 133.454523 211.598895 
L 134.167 212.397818 
L 135.591955 212.397818 
L 136.304432 211.598895 
L 137.016909 210.001047 
L 137.729386 217.19136 
L 138.441864 215.593513 
L 139.154341 215.593513 
L 139.866818 217.990284 
L 140.579295 216.392436 
L 142.00425 216.392436 
L 142.716727 215.593513 
L 144.141682 215.593513 
L 144.854159 214.794589 
L 145.566636 214.794589 
L 146.279114 213.995665 
L 146.991591 216.392436 
L 147.704068 217.19136 
L 148.416545 218.789207 
L 150.553977 218.789207 
L 151.266455 217.990284 
L 154.116364 217.990284 
L 154.828841 218.789207 
L 155.541318 217.990284 
L 156.253795 218.789207 
L 156.966273 218.789207 
L 157.67875 220.387055 
L 158.391227 220.387055 
L 159.103705 219.588131 
L 163.378568 219.588131 
L 164.091045 220.387055 
L 165.516 220.387055 
L 166.228477 221.185978 
L 169.790864 221.185978 
L 170.503341 220.387055 
L 171.215818 220.387055 
L 171.928295 221.185978 
L 172.640773 220.387055 
L 174.065727 221.984902 
L 175.490682 221.984902 
L 176.203159 222.783825 
L 176.915636 221.984902 
L 177.628114 222.783825 
L 178.340591 222.783825 
L 179.053068 221.984902 
L 183.327932 221.984902 
L 184.040409 222.783825 
L 184.752886 222.783825 
L 185.465364 223.582749 
L 188.315273 223.582749 
L 189.02775 222.783825 
L 189.740227 222.783825 
L 190.452705 223.582749 
L 191.165182 222.783825 
L 191.877659 223.582749 
L 195.440045 223.582749 
L 196.152523 224.381673 
L 199.002432 224.381673 
L 199.714909 223.582749 
L 200.427386 224.381673 
L 207.552159 224.381673 
L 208.264636 225.180596 
L 208.977114 224.381673 
L 209.689591 225.180596 
L 210.402068 224.381673 
L 211.114545 225.180596 
L 221.801705 225.180596 
L 222.514182 225.97952 
L 233.913818 225.97952 
L 234.626295 226.778444 
L 248.875841 226.778444 
L 249.588318 227.577367 
L 250.300795 226.778444 
L 251.013273 226.778444 
L 251.72575 227.577367 
L 252.438227 226.778444 
L 253.150705 227.577367 
L 253.863182 227.577367 
L 254.575659 226.778444 
L 255.288136 227.577367 
L 271.675114 227.577367 
L 272.387591 228.376291 
L 273.100068 227.577367 
L 273.812545 228.376291 
L 274.525023 227.577367 
L 275.2375 228.376291 
L 300.174205 228.376291 
L 300.886682 229.175215 
L 330.810727 229.175215 
L 331.523205 229.974138 
L 332.235682 229.175215 
L 332.948159 229.175215 
L 333.660636 229.974138 
L 334.373114 229.974138 
L 335.085591 229.175215 
L 335.798068 229.974138 
L 339.360455 229.974138 
L 339.360455 229.974138 
" style="fill:none;stroke:#1f77b4;stroke-linecap:square;stroke-width:1.5;"/>
   </g>
   <g id="line2d_87">
    <path clip-path="url(#p19b0492c17)" d="M 54.369545 168.457018 
L 58.644409 168.457018 
L 59.356886 169.774429 
L 60.781841 178.501726 
L 62.206795 185.024762 
L 63.63175 190.139284 
L 65.056705 194.177398 
L 66.481659 197.44602 
L 67.906614 200.147364 
L 69.331568 202.41473 
L 70.756523 204.345783 
L 72.181477 206.01255 
L 74.318909 208.120833 
L 76.456341 209.866573 
L 78.593773 211.337742 
L 81.443682 212.972162 
L 84.293591 214.32252 
L 87.855977 215.711169 
L 91.418364 216.854232 
L 95.693227 217.979407 
L 100.680568 219.047321 
L 106.380386 220.029341 
L 112.792682 220.914211 
L 120.629932 221.775673 
L 130.604614 222.624022 
L 142.716727 223.402715 
L 158.391227 224.150167 
L 176.203159 224.772095 
L 199.002432 225.348412 
L 228.214 225.868611 
L 270.250159 226.372324 
L 327.248341 226.81241 
L 339.360455 226.883522 
L 339.360455 226.883522 
" style="fill:none;stroke:#ff7f0e;stroke-linecap:square;stroke-width:1.5;"/>
   </g>
   <g id="patch_15">
    <path d="M 40.12 252.344 
L 40.12 164.4624 
" style="fill:none;stroke:#000000;stroke-linecap:square;stroke-linejoin:miter;stroke-width:0.8;"/>
   </g>
   <g id="patch_16">
    <path d="M 353.61 252.344 
L 353.61 164.4624 
" style="fill:none;stroke:#000000;stroke-linecap:square;stroke-linejoin:miter;stroke-width:0.8;"/>
   </g>
   <g id="patch_17">
    <path d="M 40.12 252.344 
L 353.61 252.344 
" style="fill:none;stroke:#000000;stroke-linecap:square;stroke-linejoin:miter;stroke-width:0.8;"/>
   </g>
   <g id="patch_18">
    <path d="M 40.12 164.4624 
L 353.61 164.4624 
" style="fill:none;stroke:#000000;stroke-linecap:square;stroke-linejoin:miter;stroke-width:0.8;"/>
   </g>
   <g id="text_26">
    <!-- Risky Sh. Functions -->
    <defs>
     <path d="M 9.078125 75.984375 
L 18.109375 75.984375 
L 18.109375 31.109375 
L 44.921875 54.6875 
L 56.390625 54.6875 
L 27.390625 29.109375 
L 57.625 0 
L 45.90625 0 
L 18.109375 26.703125 
L 18.109375 0 
L 9.078125 0 
z
" id="DejaVuSans-107"/>
     <path d="M 32.171875 -5.078125 
Q 28.375 -14.84375 24.75 -17.8125 
Q 21.140625 -20.796875 15.09375 -20.796875 
L 7.90625 -20.796875 
L 7.90625 -13.28125 
L 13.1875 -13.28125 
Q 16.890625 -13.28125 18.9375 -11.515625 
Q 21 -9.765625 23.484375 -3.21875 
L 25.09375 0.875 
L 2.984375 54.6875 
L 12.5 54.6875 
L 29.59375 11.921875 
L 46.6875 54.6875 
L 56.203125 54.6875 
z
" id="DejaVuSans-121"/>
     <path d="M 53.515625 70.515625 
L 53.515625 60.890625 
Q 47.90625 63.578125 42.921875 64.890625 
Q 37.9375 66.21875 33.296875 66.21875 
Q 25.25 66.21875 20.875 63.09375 
Q 16.5 59.96875 16.5 54.203125 
Q 16.5 49.359375 19.40625 46.890625 
Q 22.3125 44.4375 30.421875 42.921875 
L 36.375 41.703125 
Q 47.40625 39.59375 52.65625 34.296875 
Q 57.90625 29 57.90625 20.125 
Q 57.90625 9.515625 50.796875 4.046875 
Q 43.703125 -1.421875 29.984375 -1.421875 
Q 24.8125 -1.421875 18.96875 -0.25 
Q 13.140625 0.921875 6.890625 3.21875 
L 6.890625 13.375 
Q 12.890625 10.015625 18.65625 8.296875 
Q 24.421875 6.59375 29.984375 6.59375 
Q 38.421875 6.59375 43.015625 9.90625 
Q 47.609375 13.234375 47.609375 19.390625 
Q 47.609375 24.75 44.3125 27.78125 
Q 41.015625 30.8125 33.5 32.328125 
L 27.484375 33.5 
Q 16.453125 35.6875 11.515625 40.375 
Q 6.59375 45.0625 6.59375 53.421875 
Q 6.59375 63.09375 13.40625 68.65625 
Q 20.21875 74.21875 32.171875 74.21875 
Q 37.3125 74.21875 42.625 73.28125 
Q 47.953125 72.359375 53.515625 70.515625 
z
" id="DejaVuSans-83"/>
     <path d="M 54.890625 33.015625 
L 54.890625 0 
L 45.90625 0 
L 45.90625 32.71875 
Q 45.90625 40.484375 42.875 44.328125 
Q 39.84375 48.1875 33.796875 48.1875 
Q 26.515625 48.1875 22.3125 43.546875 
Q 18.109375 38.921875 18.109375 30.90625 
L 18.109375 0 
L 9.078125 0 
L 9.078125 75.984375 
L 18.109375 75.984375 
L 18.109375 46.1875 
Q 21.34375 51.125 25.703125 53.5625 
Q 30.078125 56 35.796875 56 
Q 45.21875 56 50.046875 50.171875 
Q 54.890625 44.34375 54.890625 33.015625 
z
" id="DejaVuSans-104"/>
    </defs>
    <g transform="translate(138.579688 158.4624)scale(0.12 -0.12)">
     <use xlink:href="#DejaVuSans-82"/>
     <use x="69.482422" xlink:href="#DejaVuSans-105"/>
     <use x="97.265625" xlink:href="#DejaVuSans-115"/>
     <use x="149.365234" xlink:href="#DejaVuSans-107"/>
     <use x="207.228516" xlink:href="#DejaVuSans-121"/>
     <use x="266.408203" xlink:href="#DejaVuSans-32"/>
     <use x="298.195312" xlink:href="#DejaVuSans-83"/>
     <use x="361.671875" xlink:href="#DejaVuSans-104"/>
     <use x="425.050781" xlink:href="#DejaVuSans-46"/>
     <use x="456.837891" xlink:href="#DejaVuSans-32"/>
     <use x="488.625" xlink:href="#DejaVuSans-70"/>
     <use x="546.066406" xlink:href="#DejaVuSans-117"/>
     <use x="609.445312" xlink:href="#DejaVuSans-110"/>
     <use x="672.824219" xlink:href="#DejaVuSans-99"/>
     <use x="727.804688" xlink:href="#DejaVuSans-116"/>
     <use x="767.013672" xlink:href="#DejaVuSans-105"/>
     <use x="794.796875" xlink:href="#DejaVuSans-111"/>
     <use x="855.978516" xlink:href="#DejaVuSans-110"/>
     <use x="919.357422" xlink:href="#DejaVuSans-115"/>
    </g>
   </g>
   <g id="legend_3">
    <g id="patch_19">
     <path d="M 286.742813 201.81865 
L 346.61 201.81865 
Q 348.61 201.81865 348.61 199.81865 
L 348.61 171.4624 
Q 348.61 169.4624 346.61 169.4624 
L 286.742813 169.4624 
Q 284.742813 169.4624 284.742813 171.4624 
L 284.742813 199.81865 
Q 284.742813 201.81865 286.742813 201.81865 
z
" style="fill:#ffffff;opacity:0.8;stroke:#cccccc;stroke-linejoin:miter;"/>
    </g>
    <g id="line2d_88">
     <path d="M 288.742813 177.560837 
L 308.742813 177.560837 
" style="fill:none;stroke:#1f77b4;stroke-linecap:square;stroke-width:1.5;"/>
    </g>
    <g id="line2d_89"/>
    <g id="text_27">
     <!-- CGM -->
     <g transform="translate(316.742813 181.060837)scale(0.1 -0.1)">
      <use xlink:href="#DejaVuSans-67"/>
      <use x="69.824219" xlink:href="#DejaVuSans-71"/>
      <use x="147.314453" xlink:href="#DejaVuSans-77"/>
     </g>
    </g>
    <g id="line2d_90">
     <path d="M 288.742813 192.238962 
L 308.742813 192.238962 
" style="fill:none;stroke:#ff7f0e;stroke-linecap:square;stroke-width:1.5;"/>
    </g>
    <g id="line2d_91"/>
    <g id="text_28">
     <!-- HARK -->
     <g transform="translate(316.742813 195.738962)scale(0.1 -0.1)">
      <use xlink:href="#DejaVuSans-72"/>
      <use x="75.195312" xlink:href="#DejaVuSans-65"/>
      <use x="143.603516" xlink:href="#DejaVuSans-82"/>
      <use x="213.085938" xlink:href="#DejaVuSans-75"/>
     </g>
    </g>
   </g>
  </g>
  <g id="axes_4">
   <g id="patch_20">
    <path d="M 395.71 252.344 
L 709.2 252.344 
L 709.2 164.4624 
L 395.71 164.4624 
z
" style="fill:#ffffff;"/>
   </g>
   <g id="matplotlib.axis_7">
    <g id="xtick_28">
     <g id="line2d_92">
      <path clip-path="url(#p8b0b7403ed)" d="M 407.109636 252.344 
L 407.109636 164.4624 
" style="fill:none;stroke:#b0b0b0;stroke-linecap:square;stroke-width:0.8;"/>
     </g>
     <g id="line2d_93">
      <g>
       <use style="stroke:#000000;stroke-width:0.8;" x="407.109636" xlink:href="#mb836ab7246" y="252.344"/>
      </g>
     </g>
     <g id="text_29">
      <!-- 0 -->
      <g transform="translate(403.928386 266.942437)scale(0.1 -0.1)">
       <use xlink:href="#DejaVuSans-48"/>
      </g>
     </g>
    </g>
    <g id="xtick_29">
     <g id="line2d_94">
      <path clip-path="url(#p8b0b7403ed)" d="M 442.7335 252.344 
L 442.7335 164.4624 
" style="fill:none;stroke:#b0b0b0;stroke-linecap:square;stroke-width:0.8;"/>
     </g>
     <g id="line2d_95">
      <g>
       <use style="stroke:#000000;stroke-width:0.8;" x="442.7335" xlink:href="#mb836ab7246" y="252.344"/>
      </g>
     </g>
     <g id="text_30">
      <!-- 50 -->
      <g transform="translate(436.371 266.942437)scale(0.1 -0.1)">
       <use xlink:href="#DejaVuSans-53"/>
       <use x="63.623047" xlink:href="#DejaVuSans-48"/>
      </g>
     </g>
    </g>
    <g id="xtick_30">
     <g id="line2d_96">
      <path clip-path="url(#p8b0b7403ed)" d="M 478.357364 252.344 
L 478.357364 164.4624 
" style="fill:none;stroke:#b0b0b0;stroke-linecap:square;stroke-width:0.8;"/>
     </g>
     <g id="line2d_97">
      <g>
       <use style="stroke:#000000;stroke-width:0.8;" x="478.357364" xlink:href="#mb836ab7246" y="252.344"/>
      </g>
     </g>
     <g id="text_31">
      <!-- 100 -->
      <g transform="translate(468.813614 266.942437)scale(0.1 -0.1)">
       <use xlink:href="#DejaVuSans-49"/>
       <use x="63.623047" xlink:href="#DejaVuSans-48"/>
       <use x="127.246094" xlink:href="#DejaVuSans-48"/>
      </g>
     </g>
    </g>
    <g id="xtick_31">
     <g id="line2d_98">
      <path clip-path="url(#p8b0b7403ed)" d="M 513.981227 252.344 
L 513.981227 164.4624 
" style="fill:none;stroke:#b0b0b0;stroke-linecap:square;stroke-width:0.8;"/>
     </g>
     <g id="line2d_99">
      <g>
       <use style="stroke:#000000;stroke-width:0.8;" x="513.981227" xlink:href="#mb836ab7246" y="252.344"/>
      </g>
     </g>
     <g id="text_32">
      <!-- 150 -->
      <g transform="translate(504.437477 266.942437)scale(0.1 -0.1)">
       <use xlink:href="#DejaVuSans-49"/>
       <use x="63.623047" xlink:href="#DejaVuSans-53"/>
       <use x="127.246094" xlink:href="#DejaVuSans-48"/>
      </g>
     </g>
    </g>
    <g id="xtick_32">
     <g id="line2d_100">
      <path clip-path="url(#p8b0b7403ed)" d="M 549.605091 252.344 
L 549.605091 164.4624 
" style="fill:none;stroke:#b0b0b0;stroke-linecap:square;stroke-width:0.8;"/>
     </g>
     <g id="line2d_101">
      <g>
       <use style="stroke:#000000;stroke-width:0.8;" x="549.605091" xlink:href="#mb836ab7246" y="252.344"/>
      </g>
     </g>
     <g id="text_33">
      <!-- 200 -->
      <g transform="translate(540.061341 266.942437)scale(0.1 -0.1)">
       <use xlink:href="#DejaVuSans-50"/>
       <use x="63.623047" xlink:href="#DejaVuSans-48"/>
       <use x="127.246094" xlink:href="#DejaVuSans-48"/>
      </g>
     </g>
    </g>
    <g id="xtick_33">
     <g id="line2d_102">
      <path clip-path="url(#p8b0b7403ed)" d="M 585.228955 252.344 
L 585.228955 164.4624 
" style="fill:none;stroke:#b0b0b0;stroke-linecap:square;stroke-width:0.8;"/>
     </g>
     <g id="line2d_103">
      <g>
       <use style="stroke:#000000;stroke-width:0.8;" x="585.228955" xlink:href="#mb836ab7246" y="252.344"/>
      </g>
     </g>
     <g id="text_34">
      <!-- 250 -->
      <g transform="translate(575.685205 266.942437)scale(0.1 -0.1)">
       <use xlink:href="#DejaVuSans-50"/>
       <use x="63.623047" xlink:href="#DejaVuSans-53"/>
       <use x="127.246094" xlink:href="#DejaVuSans-48"/>
      </g>
     </g>
    </g>
    <g id="xtick_34">
     <g id="line2d_104">
      <path clip-path="url(#p8b0b7403ed)" d="M 620.852818 252.344 
L 620.852818 164.4624 
" style="fill:none;stroke:#b0b0b0;stroke-linecap:square;stroke-width:0.8;"/>
     </g>
     <g id="line2d_105">
      <g>
       <use style="stroke:#000000;stroke-width:0.8;" x="620.852818" xlink:href="#mb836ab7246" y="252.344"/>
      </g>
     </g>
     <g id="text_35">
      <!-- 300 -->
      <g transform="translate(611.309068 266.942437)scale(0.1 -0.1)">
       <use xlink:href="#DejaVuSans-51"/>
       <use x="63.623047" xlink:href="#DejaVuSans-48"/>
       <use x="127.246094" xlink:href="#DejaVuSans-48"/>
      </g>
     </g>
    </g>
    <g id="xtick_35">
     <g id="line2d_106">
      <path clip-path="url(#p8b0b7403ed)" d="M 656.476682 252.344 
L 656.476682 164.4624 
" style="fill:none;stroke:#b0b0b0;stroke-linecap:square;stroke-width:0.8;"/>
     </g>
     <g id="line2d_107">
      <g>
       <use style="stroke:#000000;stroke-width:0.8;" x="656.476682" xlink:href="#mb836ab7246" y="252.344"/>
      </g>
     </g>
     <g id="text_36">
      <!-- 350 -->
      <g transform="translate(646.932932 266.942437)scale(0.1 -0.1)">
       <use xlink:href="#DejaVuSans-51"/>
       <use x="63.623047" xlink:href="#DejaVuSans-53"/>
       <use x="127.246094" xlink:href="#DejaVuSans-48"/>
      </g>
     </g>
    </g>
    <g id="xtick_36">
     <g id="line2d_108">
      <path clip-path="url(#p8b0b7403ed)" d="M 692.100545 252.344 
L 692.100545 164.4624 
" style="fill:none;stroke:#b0b0b0;stroke-linecap:square;stroke-width:0.8;"/>
     </g>
     <g id="line2d_109">
      <g>
       <use style="stroke:#000000;stroke-width:0.8;" x="692.100545" xlink:href="#mb836ab7246" y="252.344"/>
      </g>
     </g>
     <g id="text_37">
      <!-- 400 -->
      <g transform="translate(682.556795 266.942437)scale(0.1 -0.1)">
       <use xlink:href="#DejaVuSans-52"/>
       <use x="63.623047" xlink:href="#DejaVuSans-48"/>
       <use x="127.246094" xlink:href="#DejaVuSans-48"/>
      </g>
     </g>
    </g>
   </g>
   <g id="matplotlib.axis_8">
    <g id="ytick_12">
     <g id="line2d_110">
      <path clip-path="url(#p8b0b7403ed)" d="M 395.71 248.349382 
L 709.2 248.349382 
" style="fill:none;stroke:#b0b0b0;stroke-linecap:square;stroke-width:0.8;"/>
     </g>
     <g id="line2d_111">
      <g>
       <use style="stroke:#000000;stroke-width:0.8;" x="395.71" xlink:href="#mf8541f432d" y="248.349382"/>
      </g>
     </g>
     <g id="text_38">
      <!-- −1.0 -->
      <g transform="translate(364.427188 252.148601)scale(0.1 -0.1)">
       <use xlink:href="#DejaVuSans-8722"/>
       <use x="83.789062" xlink:href="#DejaVuSans-49"/>
       <use x="147.412109" xlink:href="#DejaVuSans-46"/>
       <use x="179.199219" xlink:href="#DejaVuSans-48"/>
      </g>
     </g>
    </g>
    <g id="ytick_13">
     <g id="line2d_112">
      <path clip-path="url(#p8b0b7403ed)" d="M 395.71 222.972083 
L 709.2 222.972083 
" style="fill:none;stroke:#b0b0b0;stroke-linecap:square;stroke-width:0.8;"/>
     </g>
     <g id="line2d_113">
      <g>
       <use style="stroke:#000000;stroke-width:0.8;" x="395.71" xlink:href="#mf8541f432d" y="222.972083"/>
      </g>
     </g>
     <g id="text_39">
      <!-- −0.5 -->
      <g transform="translate(364.427188 226.771302)scale(0.1 -0.1)">
       <use xlink:href="#DejaVuSans-8722"/>
       <use x="83.789062" xlink:href="#DejaVuSans-48"/>
       <use x="147.412109" xlink:href="#DejaVuSans-46"/>
       <use x="179.199219" xlink:href="#DejaVuSans-53"/>
      </g>
     </g>
    </g>
    <g id="ytick_14">
     <g id="line2d_114">
      <path clip-path="url(#p8b0b7403ed)" d="M 395.71 197.594785 
L 709.2 197.594785 
" style="fill:none;stroke:#b0b0b0;stroke-linecap:square;stroke-width:0.8;"/>
     </g>
     <g id="line2d_115">
      <g>
       <use style="stroke:#000000;stroke-width:0.8;" x="395.71" xlink:href="#mf8541f432d" y="197.594785"/>
      </g>
     </g>
     <g id="text_40">
      <!-- 0.0 -->
      <g transform="translate(372.806875 201.394004)scale(0.1 -0.1)">
       <use xlink:href="#DejaVuSans-48"/>
       <use x="63.623047" xlink:href="#DejaVuSans-46"/>
       <use x="95.410156" xlink:href="#DejaVuSans-48"/>
      </g>
     </g>
    </g>
    <g id="ytick_15">
     <g id="line2d_116">
      <path clip-path="url(#p8b0b7403ed)" d="M 395.71 172.217487 
L 709.2 172.217487 
" style="fill:none;stroke:#b0b0b0;stroke-linecap:square;stroke-width:0.8;"/>
     </g>
     <g id="line2d_117">
      <g>
       <use style="stroke:#000000;stroke-width:0.8;" x="395.71" xlink:href="#mf8541f432d" y="172.217487"/>
      </g>
     </g>
     <g id="text_41">
      <!-- 0.5 -->
      <g transform="translate(372.806875 176.016705)scale(0.1 -0.1)">
       <use xlink:href="#DejaVuSans-48"/>
       <use x="63.623047" xlink:href="#DejaVuSans-46"/>
       <use x="95.410156" xlink:href="#DejaVuSans-53"/>
      </g>
     </g>
    </g>
   </g>
   <g id="line2d_118">
    <path clip-path="url(#p8b0b7403ed)" d="M 409.959545 248.349382 
L 414.234409 248.349382 
L 414.946886 247.512448 
L 416.371841 241.968107 
L 417.796795 237.824106 
L 419.22175 234.574916 
L 419.934227 182.466296 
L 421.359182 180.164342 
L 422.784136 178.281925 
L 424.209091 176.712339 
L 426.346523 174.795112 
L 428.483955 173.26085 
L 430.621386 172.004367 
L 433.471295 170.647851 
L 436.321205 169.556314 
L 439.883591 168.457018 
L 440.596068 168.773168 
L 441.308545 169.605089 
L 442.021023 169.936652 
L 442.7335 171.290068 
L 443.445977 171.635195 
L 444.870932 173.358458 
L 445.583409 173.720968 
L 446.295886 175.103848 
L 447.008364 175.476936 
L 447.720841 175.3473 
L 449.145795 177.131433 
L 449.858273 177.522149 
L 450.57075 177.409186 
L 451.283227 178.314948 
L 451.995705 180.239053 
L 452.708182 177.598284 
L 453.420659 179.528749 
L 454.133136 180.954836 
L 454.845614 180.861151 
L 456.270568 181.696884 
L 456.983045 181.103382 
L 458.408 183.984079 
L 459.120477 180.352606 
L 459.832955 183.321208 
L 461.257909 185.203866 
L 461.970386 185.133386 
L 462.682864 185.572029 
L 464.107818 184.424295 
L 464.820295 184.360608 
L 465.532773 188.358517 
L 466.24525 186.267743 
L 466.957727 186.20862 
L 468.382682 188.124062 
L 469.095159 188.576174 
L 469.807636 190.551841 
L 470.520114 184.916186 
L 471.232591 186.386843 
L 471.945068 185.828702 
L 472.657545 186.28675 
L 473.370023 188.775755 
L 474.0825 188.221023 
L 474.794977 188.174233 
L 475.507455 189.65171 
L 476.219932 190.622062 
L 476.932409 192.101237 
L 477.644886 186.475392 
L 478.357364 189.478849 
L 479.069841 188.930224 
L 479.782318 187.367358 
L 480.494795 187.327902 
L 481.207273 189.319398 
L 482.632227 189.24424 
L 483.344705 190.222746 
L 484.057182 190.186988 
L 484.769659 195.22712 
L 485.482136 193.670118 
L 486.907091 192.58783 
L 487.619568 191.032176 
L 488.332045 190.492797 
L 489.044523 190.461084 
L 489.757 190.9377 
L 491.181955 190.877127 
L 491.894432 190.340343 
L 492.606909 189.296013 
L 493.319386 193.835709 
L 494.031864 192.792554 
L 494.744341 192.764941 
L 495.456818 194.260651 
L 496.169295 193.218631 
L 497.59425 193.166812 
L 498.306727 192.633699 
L 499.731682 192.584151 
L 500.444159 192.05238 
L 501.156636 192.028562 
L 501.869114 191.497199 
L 502.581591 192.996759 
L 503.294068 193.481388 
L 504.006545 194.473562 
L 506.143977 194.407728 
L 506.856455 193.879123 
L 509.706364 193.796743 
L 510.418841 194.284142 
L 511.131318 193.757267 
L 511.843795 194.245483 
L 512.556273 194.226154 
L 513.26875 195.222638 
L 513.981227 195.204128 
L 514.693705 194.678071 
L 518.968568 194.573204 
L 519.681045 195.06379 
L 521.106 195.031234 
L 521.818477 195.522552 
L 525.380864 195.44494 
L 526.093341 194.922551 
L 526.805818 194.907709 
L 527.518295 195.400413 
L 528.230773 194.878645 
L 529.655727 195.865362 
L 531.080682 195.837675 
L 531.793159 196.331663 
L 532.505636 195.810558 
L 533.218114 196.304622 
L 533.930591 196.29167 
L 534.643068 195.771171 
L 538.917932 195.69581 
L 539.630409 196.191449 
L 540.342886 196.17964 
L 541.055364 196.675376 
L 543.905273 196.629479 
L 544.61775 196.110662 
L 545.330227 196.099399 
L 546.042705 196.596192 
L 546.755182 196.077893 
L 547.467659 196.574686 
L 551.030045 196.522615 
L 551.742523 197.019906 
L 554.592432 196.980628 
L 555.304909 196.463304 
L 556.017386 196.961416 
L 563.142159 196.870933 
L 563.854636 197.370022 
L 564.567114 196.85402 
L 565.279591 197.353109 
L 565.992068 196.837107 
L 566.704545 197.336235 
L 577.391705 197.220591 
L 578.104182 197.720847 
L 589.503818 197.613316 
L 590.216295 198.114598 
L 604.465841 197.998594 
L 605.178318 198.500777 
L 605.890795 197.987867 
L 606.603273 197.982504 
L 607.31575 198.484686 
L 608.028227 197.972047 
L 608.740705 198.474504 
L 609.453182 198.469415 
L 610.165659 197.95678 
L 610.878136 198.459237 
L 627.265114 198.351597 
L 627.977591 198.854775 
L 628.690068 198.34286 
L 629.402545 198.846038 
L 630.115023 198.334251 
L 630.8275 198.837657 
L 655.764205 198.704959 
L 656.476682 199.209181 
L 686.400727 199.082099 
L 687.113205 199.586996 
L 687.825682 199.0768 
L 688.538159 199.074151 
L 689.250636 199.579048 
L 689.963114 199.576399 
L 690.675591 199.066204 
L 691.388068 199.571101 
L 694.950455 199.558214 
L 694.950455 199.558214 
" style="fill:none;stroke:#1f77b4;stroke-linecap:square;stroke-width:1.5;"/>
   </g>
   <g id="patch_21">
    <path d="M 395.71 252.344 
L 395.71 164.4624 
" style="fill:none;stroke:#000000;stroke-linecap:square;stroke-linejoin:miter;stroke-width:0.8;"/>
   </g>
   <g id="patch_22">
    <path d="M 709.2 252.344 
L 709.2 164.4624 
" style="fill:none;stroke:#000000;stroke-linecap:square;stroke-linejoin:miter;stroke-width:0.8;"/>
   </g>
   <g id="patch_23">
    <path d="M 395.71 252.344 
L 709.2 252.344 
" style="fill:none;stroke:#000000;stroke-linecap:square;stroke-linejoin:miter;stroke-width:0.8;"/>
   </g>
   <g id="patch_24">
    <path d="M 395.71 164.4624 
L 709.2 164.4624 
" style="fill:none;stroke:#000000;stroke-linecap:square;stroke-linejoin:miter;stroke-width:0.8;"/>
   </g>
   <g id="text_42">
    <!-- Risky Sh. Difference -->
    <g transform="translate(491.985313 158.4624)scale(0.12 -0.12)">
     <use xlink:href="#DejaVuSans-82"/>
     <use x="69.482422" xlink:href="#DejaVuSans-105"/>
     <use x="97.265625" xlink:href="#DejaVuSans-115"/>
     <use x="149.365234" xlink:href="#DejaVuSans-107"/>
     <use x="207.228516" xlink:href="#DejaVuSans-121"/>
     <use x="266.408203" xlink:href="#DejaVuSans-32"/>
     <use x="298.195312" xlink:href="#DejaVuSans-83"/>
     <use x="361.671875" xlink:href="#DejaVuSans-104"/>
     <use x="425.050781" xlink:href="#DejaVuSans-46"/>
     <use x="456.837891" xlink:href="#DejaVuSans-32"/>
     <use x="488.625" xlink:href="#DejaVuSans-68"/>
     <use x="565.626953" xlink:href="#DejaVuSans-105"/>
     <use x="593.410156" xlink:href="#DejaVuSans-102"/>
     <use x="628.615234" xlink:href="#DejaVuSans-102"/>
     <use x="663.820312" xlink:href="#DejaVuSans-101"/>
     <use x="725.34375" xlink:href="#DejaVuSans-114"/>
     <use x="766.425781" xlink:href="#DejaVuSans-101"/>
     <use x="827.949219" xlink:href="#DejaVuSans-110"/>
     <use x="891.328125" xlink:href="#DejaVuSans-99"/>
     <use x="946.308594" xlink:href="#DejaVuSans-101"/>
    </g>
   </g>
   <g id="legend_4">
    <g id="patch_25">
     <path d="M 609.009375 187.140525 
L 702.2 187.140525 
Q 704.2 187.140525 704.2 185.140525 
L 704.2 171.4624 
Q 704.2 169.4624 702.2 169.4624 
L 609.009375 169.4624 
Q 607.009375 169.4624 607.009375 171.4624 
L 607.009375 185.140525 
Q 607.009375 187.140525 609.009375 187.140525 
z
" style="fill:#ffffff;opacity:0.8;stroke:#cccccc;stroke-linejoin:miter;"/>
    </g>
    <g id="line2d_119">
     <path d="M 611.009375 177.560837 
L 631.009375 177.560837 
" style="fill:none;stroke:#1f77b4;stroke-linecap:square;stroke-width:1.5;"/>
    </g>
    <g id="line2d_120"/>
    <g id="text_43">
     <!-- CGM - HARK -->
     <g transform="translate(639.009375 181.060837)scale(0.1 -0.1)">
      <use xlink:href="#DejaVuSans-67"/>
      <use x="69.824219" xlink:href="#DejaVuSans-71"/>
      <use x="147.314453" xlink:href="#DejaVuSans-77"/>
      <use x="233.59375" xlink:href="#DejaVuSans-32"/>
      <use x="265.380859" xlink:href="#DejaVuSans-45"/>
      <use x="301.464844" xlink:href="#DejaVuSans-32"/>
      <use x="333.251953" xlink:href="#DejaVuSans-72"/>
      <use x="408.447266" xlink:href="#DejaVuSans-65"/>
      <use x="476.855469" xlink:href="#DejaVuSans-82"/>
      <use x="546.337891" xlink:href="#DejaVuSans-75"/>
     </g>
    </g>
   </g>
  </g>
  <g id="text_44">
   <!-- Year 98 -->
   <defs>
    <path d="M -0.203125 72.90625 
L 10.40625 72.90625 
L 30.609375 42.921875 
L 50.6875 72.90625 
L 61.28125 72.90625 
L 35.5 34.71875 
L 35.5 0 
L 25.59375 0 
L 25.59375 34.71875 
z
" id="DejaVuSans-89"/>
    <path d="M 34.28125 27.484375 
Q 23.390625 27.484375 19.1875 25 
Q 14.984375 22.515625 14.984375 16.5 
Q 14.984375 11.71875 18.140625 8.90625 
Q 21.296875 6.109375 26.703125 6.109375 
Q 34.1875 6.109375 38.703125 11.40625 
Q 43.21875 16.703125 43.21875 25.484375 
L 43.21875 27.484375 
z
M 52.203125 31.203125 
L 52.203125 0 
L 43.21875 0 
L 43.21875 8.296875 
Q 40.140625 3.328125 35.546875 0.953125 
Q 30.953125 -1.421875 24.3125 -1.421875 
Q 15.921875 -1.421875 10.953125 3.296875 
Q 6 8.015625 6 15.921875 
Q 6 25.140625 12.171875 29.828125 
Q 18.359375 34.515625 30.609375 34.515625 
L 43.21875 34.515625 
L 43.21875 35.40625 
Q 43.21875 41.609375 39.140625 45 
Q 35.0625 48.390625 27.6875 48.390625 
Q 23 48.390625 18.546875 47.265625 
Q 14.109375 46.140625 10.015625 43.890625 
L 10.015625 52.203125 
Q 14.9375 54.109375 19.578125 55.046875 
Q 24.21875 56 28.609375 56 
Q 40.484375 56 46.34375 49.84375 
Q 52.203125 43.703125 52.203125 31.203125 
z
" id="DejaVuSans-97"/>
    <path d="M 10.984375 1.515625 
L 10.984375 10.5 
Q 14.703125 8.734375 18.5 7.8125 
Q 22.3125 6.890625 25.984375 6.890625 
Q 35.75 6.890625 40.890625 13.453125 
Q 46.046875 20.015625 46.78125 33.40625 
Q 43.953125 29.203125 39.59375 26.953125 
Q 35.25 24.703125 29.984375 24.703125 
Q 19.046875 24.703125 12.671875 31.3125 
Q 6.296875 37.9375 6.296875 49.421875 
Q 6.296875 60.640625 12.9375 67.421875 
Q 19.578125 74.21875 30.609375 74.21875 
Q 43.265625 74.21875 49.921875 64.515625 
Q 56.59375 54.828125 56.59375 36.375 
Q 56.59375 19.140625 48.40625 8.859375 
Q 40.234375 -1.421875 26.421875 -1.421875 
Q 22.703125 -1.421875 18.890625 -0.6875 
Q 15.09375 0.046875 10.984375 1.515625 
z
M 30.609375 32.421875 
Q 37.25 32.421875 41.125 36.953125 
Q 45.015625 41.5 45.015625 49.421875 
Q 45.015625 57.28125 41.125 61.84375 
Q 37.25 66.40625 30.609375 66.40625 
Q 23.96875 66.40625 20.09375 61.84375 
Q 16.21875 57.28125 16.21875 49.421875 
Q 16.21875 41.5 20.09375 36.953125 
Q 23.96875 32.421875 30.609375 32.421875 
z
" id="DejaVuSans-57"/>
    <path d="M 31.78125 34.625 
Q 24.75 34.625 20.71875 30.859375 
Q 16.703125 27.09375 16.703125 20.515625 
Q 16.703125 13.921875 20.71875 10.15625 
Q 24.75 6.390625 31.78125 6.390625 
Q 38.8125 6.390625 42.859375 10.171875 
Q 46.921875 13.96875 46.921875 20.515625 
Q 46.921875 27.09375 42.890625 30.859375 
Q 38.875 34.625 31.78125 34.625 
z
M 21.921875 38.8125 
Q 15.578125 40.375 12.03125 44.71875 
Q 8.5 49.078125 8.5 55.328125 
Q 8.5 64.0625 14.71875 69.140625 
Q 20.953125 74.21875 31.78125 74.21875 
Q 42.671875 74.21875 48.875 69.140625 
Q 55.078125 64.0625 55.078125 55.328125 
Q 55.078125 49.078125 51.53125 44.71875 
Q 48 40.375 41.703125 38.8125 
Q 48.828125 37.15625 52.796875 32.3125 
Q 56.78125 27.484375 56.78125 20.515625 
Q 56.78125 9.90625 50.3125 4.234375 
Q 43.84375 -1.421875 31.78125 -1.421875 
Q 19.734375 -1.421875 13.25 4.234375 
Q 6.78125 9.90625 6.78125 20.515625 
Q 6.78125 27.484375 10.78125 32.3125 
Q 14.796875 37.15625 21.921875 38.8125 
z
M 18.3125 54.390625 
Q 18.3125 48.734375 21.84375 45.5625 
Q 25.390625 42.390625 31.78125 42.390625 
Q 38.140625 42.390625 41.71875 45.5625 
Q 45.3125 48.734375 45.3125 54.390625 
Q 45.3125 60.0625 41.71875 63.234375 
Q 38.140625 66.40625 31.78125 66.40625 
Q 25.390625 66.40625 21.84375 63.234375 
Q 18.3125 60.0625 18.3125 54.390625 
z
" id="DejaVuSans-56"/>
   </defs>
   <g transform="translate(336.970312 14.878125)scale(0.12 -0.12)">
    <use xlink:href="#DejaVuSans-89"/>
    <use x="60.880859" xlink:href="#DejaVuSans-101"/>
    <use x="122.404297" xlink:href="#DejaVuSans-97"/>
    <use x="183.683594" xlink:href="#DejaVuSans-114"/>
    <use x="224.796875" xlink:href="#DejaVuSans-32"/>
    <use x="256.583984" xlink:href="#DejaVuSans-57"/>
    <use x="320.207031" xlink:href="#DejaVuSans-56"/>
   </g>
  </g>
 </g>
 <defs>
  <clipPath id="pfc1cebd1d3">
   <rect height="87.8816" width="313.49" x="40.12" y="32.64"/>
  </clipPath>
  <clipPath id="pba59ad6fe1">
   <rect height="87.8816" width="313.49" x="395.71" y="32.64"/>
  </clipPath>
  <clipPath id="p19b0492c17">
   <rect height="87.8816" width="313.49" x="40.12" y="164.4624"/>
  </clipPath>
  <clipPath id="p8b0b7403ed">
   <rect height="87.8816" width="313.49" x="395.71" y="164.4624"/>
  </clipPath>
 </defs>
</svg>
