<?xml version="1.0" encoding="utf-8" standalone="no"?>
<!DOCTYPE svg PUBLIC "-//W3C//DTD SVG 1.1//EN"
  "http://www.w3.org/Graphics/SVG/1.1/DTD/svg11.dtd">
<!-- Created with matplotlib (https://matplotlib.org/) -->
<svg height="288pt" version="1.1" viewBox="0 0 720 288" width="720pt" xmlns="http://www.w3.org/2000/svg" xmlns:xlink="http://www.w3.org/1999/xlink">
 <defs>
  <style type="text/css">
*{stroke-linecap:butt;stroke-linejoin:round;}
  </style>
 </defs>
 <g id="figure_1">
  <g id="patch_1">
   <path d="M 0 288 
L 720 288 
L 720 0 
L 0 0 
z
" style="fill:#ffffff;"/>
  </g>
  <g id="axes_1">
   <g id="patch_2">
    <path d="M 40.12 120.5216 
L 353.61 120.5216 
L 353.61 32.64 
L 40.12 32.64 
z
" style="fill:#ffffff;"/>
   </g>
   <g id="matplotlib.axis_1">
    <g id="xtick_1">
     <g id="line2d_1">
      <path clip-path="url(#p3668543517)" d="M 51.519636 120.5216 
L 51.519636 32.64 
" style="fill:none;stroke:#b0b0b0;stroke-linecap:square;stroke-width:0.8;"/>
     </g>
     <g id="line2d_2">
      <defs>
       <path d="M 0 0 
L 0 3.5 
" id="m894a5c0a90" style="stroke:#000000;stroke-width:0.8;"/>
      </defs>
      <g>
       <use style="stroke:#000000;stroke-width:0.8;" x="51.519636" xlink:href="#m894a5c0a90" y="120.5216"/>
      </g>
     </g>
    </g>
    <g id="xtick_2">
     <g id="line2d_3">
      <path clip-path="url(#p3668543517)" d="M 87.1435 120.5216 
L 87.1435 32.64 
" style="fill:none;stroke:#b0b0b0;stroke-linecap:square;stroke-width:0.8;"/>
     </g>
     <g id="line2d_4">
      <g>
       <use style="stroke:#000000;stroke-width:0.8;" x="87.1435" xlink:href="#m894a5c0a90" y="120.5216"/>
      </g>
     </g>
    </g>
    <g id="xtick_3">
     <g id="line2d_5">
      <path clip-path="url(#p3668543517)" d="M 122.767364 120.5216 
L 122.767364 32.64 
" style="fill:none;stroke:#b0b0b0;stroke-linecap:square;stroke-width:0.8;"/>
     </g>
     <g id="line2d_6">
      <g>
       <use style="stroke:#000000;stroke-width:0.8;" x="122.767364" xlink:href="#m894a5c0a90" y="120.5216"/>
      </g>
     </g>
    </g>
    <g id="xtick_4">
     <g id="line2d_7">
      <path clip-path="url(#p3668543517)" d="M 158.391227 120.5216 
L 158.391227 32.64 
" style="fill:none;stroke:#b0b0b0;stroke-linecap:square;stroke-width:0.8;"/>
     </g>
     <g id="line2d_8">
      <g>
       <use style="stroke:#000000;stroke-width:0.8;" x="158.391227" xlink:href="#m894a5c0a90" y="120.5216"/>
      </g>
     </g>
    </g>
    <g id="xtick_5">
     <g id="line2d_9">
      <path clip-path="url(#p3668543517)" d="M 194.015091 120.5216 
L 194.015091 32.64 
" style="fill:none;stroke:#b0b0b0;stroke-linecap:square;stroke-width:0.8;"/>
     </g>
     <g id="line2d_10">
      <g>
       <use style="stroke:#000000;stroke-width:0.8;" x="194.015091" xlink:href="#m894a5c0a90" y="120.5216"/>
      </g>
     </g>
    </g>
    <g id="xtick_6">
     <g id="line2d_11">
      <path clip-path="url(#p3668543517)" d="M 229.638955 120.5216 
L 229.638955 32.64 
" style="fill:none;stroke:#b0b0b0;stroke-linecap:square;stroke-width:0.8;"/>
     </g>
     <g id="line2d_12">
      <g>
       <use style="stroke:#000000;stroke-width:0.8;" x="229.638955" xlink:href="#m894a5c0a90" y="120.5216"/>
      </g>
     </g>
    </g>
    <g id="xtick_7">
     <g id="line2d_13">
      <path clip-path="url(#p3668543517)" d="M 265.262818 120.5216 
L 265.262818 32.64 
" style="fill:none;stroke:#b0b0b0;stroke-linecap:square;stroke-width:0.8;"/>
     </g>
     <g id="line2d_14">
      <g>
       <use style="stroke:#000000;stroke-width:0.8;" x="265.262818" xlink:href="#m894a5c0a90" y="120.5216"/>
      </g>
     </g>
    </g>
    <g id="xtick_8">
     <g id="line2d_15">
      <path clip-path="url(#p3668543517)" d="M 300.886682 120.5216 
L 300.886682 32.64 
" style="fill:none;stroke:#b0b0b0;stroke-linecap:square;stroke-width:0.8;"/>
     </g>
     <g id="line2d_16">
      <g>
       <use style="stroke:#000000;stroke-width:0.8;" x="300.886682" xlink:href="#m894a5c0a90" y="120.5216"/>
      </g>
     </g>
    </g>
    <g id="xtick_9">
     <g id="line2d_17">
      <path clip-path="url(#p3668543517)" d="M 336.510545 120.5216 
L 336.510545 32.64 
" style="fill:none;stroke:#b0b0b0;stroke-linecap:square;stroke-width:0.8;"/>
     </g>
     <g id="line2d_18">
      <g>
       <use style="stroke:#000000;stroke-width:0.8;" x="336.510545" xlink:href="#m894a5c0a90" y="120.5216"/>
      </g>
     </g>
    </g>
   </g>
   <g id="matplotlib.axis_2">
    <g id="ytick_1">
     <g id="line2d_19">
      <path clip-path="url(#p3668543517)" d="M 40.12 118.644749 
L 353.61 118.644749 
" style="fill:none;stroke:#b0b0b0;stroke-linecap:square;stroke-width:0.8;"/>
     </g>
     <g id="line2d_20">
      <defs>
       <path d="M 0 0 
L -3.5 0 
" id="m65f02b7dc7" style="stroke:#000000;stroke-width:0.8;"/>
      </defs>
      <g>
       <use style="stroke:#000000;stroke-width:0.8;" x="40.12" xlink:href="#m65f02b7dc7" y="118.644749"/>
      </g>
     </g>
     <g id="text_1">
      <!-- 0 -->
      <defs>
       <path d="M 31.78125 66.40625 
Q 24.171875 66.40625 20.328125 58.90625 
Q 16.5 51.421875 16.5 36.375 
Q 16.5 21.390625 20.328125 13.890625 
Q 24.171875 6.390625 31.78125 6.390625 
Q 39.453125 6.390625 43.28125 13.890625 
Q 47.125 21.390625 47.125 36.375 
Q 47.125 51.421875 43.28125 58.90625 
Q 39.453125 66.40625 31.78125 66.40625 
z
M 31.78125 74.21875 
Q 44.046875 74.21875 50.515625 64.515625 
Q 56.984375 54.828125 56.984375 36.375 
Q 56.984375 17.96875 50.515625 8.265625 
Q 44.046875 -1.421875 31.78125 -1.421875 
Q 19.53125 -1.421875 13.0625 8.265625 
Q 6.59375 17.96875 6.59375 36.375 
Q 6.59375 54.828125 13.0625 64.515625 
Q 19.53125 74.21875 31.78125 74.21875 
z
" id="DejaVuSans-48"/>
      </defs>
      <g transform="translate(26.7575 122.443968)scale(0.1 -0.1)">
       <use xlink:href="#DejaVuSans-48"/>
      </g>
     </g>
    </g>
    <g id="ytick_2">
     <g id="line2d_21">
      <path clip-path="url(#p3668543517)" d="M 40.12 92.14713 
L 353.61 92.14713 
" style="fill:none;stroke:#b0b0b0;stroke-linecap:square;stroke-width:0.8;"/>
     </g>
     <g id="line2d_22">
      <g>
       <use style="stroke:#000000;stroke-width:0.8;" x="40.12" xlink:href="#m65f02b7dc7" y="92.14713"/>
      </g>
     </g>
     <g id="text_2">
      <!-- 50 -->
      <defs>
       <path d="M 10.796875 72.90625 
L 49.515625 72.90625 
L 49.515625 64.59375 
L 19.828125 64.59375 
L 19.828125 46.734375 
Q 21.96875 47.46875 24.109375 47.828125 
Q 26.265625 48.1875 28.421875 48.1875 
Q 40.625 48.1875 47.75 41.5 
Q 54.890625 34.8125 54.890625 23.390625 
Q 54.890625 11.625 47.5625 5.09375 
Q 40.234375 -1.421875 26.90625 -1.421875 
Q 22.3125 -1.421875 17.546875 -0.640625 
Q 12.796875 0.140625 7.71875 1.703125 
L 7.71875 11.625 
Q 12.109375 9.234375 16.796875 8.0625 
Q 21.484375 6.890625 26.703125 6.890625 
Q 35.15625 6.890625 40.078125 11.328125 
Q 45.015625 15.765625 45.015625 23.390625 
Q 45.015625 31 40.078125 35.4375 
Q 35.15625 39.890625 26.703125 39.890625 
Q 22.75 39.890625 18.8125 39.015625 
Q 14.890625 38.140625 10.796875 36.28125 
z
" id="DejaVuSans-53"/>
      </defs>
      <g transform="translate(20.395 95.946349)scale(0.1 -0.1)">
       <use xlink:href="#DejaVuSans-53"/>
       <use x="63.623047" xlink:href="#DejaVuSans-48"/>
      </g>
     </g>
    </g>
    <g id="ytick_3">
     <g id="line2d_23">
      <path clip-path="url(#p3668543517)" d="M 40.12 65.649511 
L 353.61 65.649511 
" style="fill:none;stroke:#b0b0b0;stroke-linecap:square;stroke-width:0.8;"/>
     </g>
     <g id="line2d_24">
      <g>
       <use style="stroke:#000000;stroke-width:0.8;" x="40.12" xlink:href="#m65f02b7dc7" y="65.649511"/>
      </g>
     </g>
     <g id="text_3">
      <!-- 100 -->
      <defs>
       <path d="M 12.40625 8.296875 
L 28.515625 8.296875 
L 28.515625 63.921875 
L 10.984375 60.40625 
L 10.984375 69.390625 
L 28.421875 72.90625 
L 38.28125 72.90625 
L 38.28125 8.296875 
L 54.390625 8.296875 
L 54.390625 0 
L 12.40625 0 
z
" id="DejaVuSans-49"/>
      </defs>
      <g transform="translate(14.0325 69.44873)scale(0.1 -0.1)">
       <use xlink:href="#DejaVuSans-49"/>
       <use x="63.623047" xlink:href="#DejaVuSans-48"/>
       <use x="127.246094" xlink:href="#DejaVuSans-48"/>
      </g>
     </g>
    </g>
    <g id="ytick_4">
     <g id="line2d_25">
      <path clip-path="url(#p3668543517)" d="M 40.12 39.151892 
L 353.61 39.151892 
" style="fill:none;stroke:#b0b0b0;stroke-linecap:square;stroke-width:0.8;"/>
     </g>
     <g id="line2d_26">
      <g>
       <use style="stroke:#000000;stroke-width:0.8;" x="40.12" xlink:href="#m65f02b7dc7" y="39.151892"/>
      </g>
     </g>
     <g id="text_4">
      <!-- 150 -->
      <g transform="translate(14.0325 42.951111)scale(0.1 -0.1)">
       <use xlink:href="#DejaVuSans-49"/>
       <use x="63.623047" xlink:href="#DejaVuSans-53"/>
       <use x="127.246094" xlink:href="#DejaVuSans-48"/>
      </g>
     </g>
    </g>
   </g>
   <g id="line2d_27">
    <path clip-path="url(#p3668543517)" d="M 54.369545 116.52494 
L 64.344227 109.238095 
L 65.769182 108.708142 
L 67.194136 108.443166 
L 67.906614 108.17819 
L 68.619091 108.045702 
L 69.331568 107.780726 
L 70.044045 107.648238 
L 70.756523 107.383261 
L 71.469 107.250773 
L 72.181477 106.985797 
L 73.606432 106.720821 
L 74.318909 106.455845 
L 75.031386 106.323357 
L 75.743864 106.05838 
L 76.456341 105.925892 
L 77.168818 105.660916 
L 78.593773 105.39594 
L 79.30625 105.130964 
L 80.018727 104.998476 
L 80.731205 104.733499 
L 82.156159 104.468523 
L 82.868636 104.203547 
L 83.581114 104.071059 
L 84.293591 103.806083 
L 85.006068 103.673595 
L 85.718545 103.408618 
L 86.431023 103.27613 
L 87.1435 103.938571 
L 87.855977 103.673595 
L 88.568455 103.27613 
L 89.280932 103.143642 
L 89.993409 102.746178 
L 91.418364 102.216226 
L 92.130841 101.818761 
L 92.843318 101.686273 
L 94.268273 101.156321 
L 95.693227 100.891345 
L 96.405705 100.626368 
L 97.830659 100.361392 
L 98.543136 99.963928 
L 99.255614 99.698952 
L 99.968091 99.963928 
L 102.818 98.904023 
L 103.530477 98.904023 
L 104.955432 98.374071 
L 106.380386 98.109095 
L 107.092864 97.844118 
L 107.805341 97.71163 
L 108.517818 97.446654 
L 109.230295 97.314166 
L 109.942773 97.04919 
L 110.65525 96.916702 
L 111.367727 96.651726 
L 112.792682 96.386749 
L 113.505159 96.121773 
L 114.217636 95.989285 
L 114.930114 95.724309 
L 116.355068 95.459333 
L 117.067545 95.194357 
L 117.780023 95.061868 
L 118.4925 94.796892 
L 119.917455 94.531916 
L 120.629932 94.26694 
L 121.342409 94.134452 
L 122.054886 93.869476 
L 122.767364 93.736987 
L 123.479841 93.472011 
L 124.904795 93.207035 
L 125.617273 92.942059 
L 126.32975 92.809571 
L 127.042227 92.544595 
L 127.754705 92.412107 
L 128.467182 92.14713 
L 129.892136 91.882154 
L 130.604614 91.617178 
L 131.317091 91.48469 
L 132.029568 91.219714 
L 133.454523 90.954737 
L 134.167 90.689761 
L 134.879477 90.557273 
L 135.591955 90.292297 
L 137.016909 90.027321 
L 137.729386 89.762345 
L 138.441864 89.629856 
L 139.154341 89.36488 
L 139.866818 89.232392 
L 140.579295 88.967416 
L 142.00425 88.70244 
L 142.716727 88.437464 
L 143.429205 88.304976 
L 144.141682 88.039999 
L 144.854159 87.907511 
L 145.566636 87.642535 
L 146.991591 87.377559 
L 147.704068 87.112583 
L 148.416545 86.980095 
L 149.129023 86.715118 
L 150.553977 86.450142 
L 151.266455 86.185166 
L 151.978932 86.052678 
L 152.691409 85.787702 
L 154.116364 85.522726 
L 154.828841 85.257749 
L 155.541318 85.125261 
L 156.253795 84.860285 
L 156.966273 84.727797 
L 157.67875 84.462821 
L 159.103705 84.197845 
L 159.816182 83.932868 
L 160.528659 83.80038 
L 161.241136 83.535404 
L 162.666091 83.270428 
L 163.378568 83.005452 
L 164.091045 82.872964 
L 164.803523 82.607987 
L 165.516 82.475499 
L 166.228477 82.210523 
L 167.653432 81.945547 
L 168.365909 81.680571 
L 169.078386 81.548083 
L 169.790864 81.283106 
L 171.215818 81.01813 
L 171.928295 80.753154 
L 172.640773 80.620666 
L 173.35325 80.35569 
L 174.065727 80.223202 
L 174.778205 79.958225 
L 176.203159 79.693249 
L 176.915636 79.428273 
L 177.628114 79.295785 
L 178.340591 79.030809 
L 179.765545 78.765833 
L 180.478023 78.500856 
L 181.1905 78.368368 
L 181.902977 78.103392 
L 182.615455 77.970904 
L 183.327932 77.705928 
L 184.752886 77.440952 
L 185.465364 77.175975 
L 186.177841 77.043487 
L 186.890318 76.778511 
L 188.315273 76.513535 
L 189.02775 76.248559 
L 189.740227 76.116071 
L 190.452705 75.851095 
L 191.165182 75.718606 
L 191.877659 75.45363 
L 193.302614 75.188654 
L 194.015091 74.923678 
L 194.727568 74.79119 
L 195.440045 74.526214 
L 196.865 74.261237 
L 197.577477 73.996261 
L 198.289955 73.863773 
L 199.002432 73.598797 
L 199.714909 73.466309 
L 200.427386 73.201333 
L 201.852341 72.936356 
L 202.564818 72.67138 
L 203.277295 72.538892 
L 203.989773 72.273916 
L 205.414727 72.00894 
L 206.127205 71.743964 
L 206.839682 71.611475 
L 207.552159 71.346499 
L 208.264636 71.214011 
L 208.977114 70.949035 
L 210.402068 70.684059 
L 211.114545 70.419083 
L 211.827023 70.286595 
L 212.5395 70.021618 
L 213.964455 69.756642 
L 214.676932 69.491666 
L 215.389409 69.359178 
L 216.101886 69.094202 
L 216.814364 68.961714 
L 217.526841 68.696737 
L 218.951795 68.431761 
L 219.664273 68.166785 
L 220.37675 68.034297 
L 221.089227 67.769321 
L 222.514182 67.504344 
L 223.226659 67.239368 
L 223.939136 67.10688 
L 224.651614 66.841904 
L 225.364091 66.709416 
L 226.076568 66.44444 
L 227.501523 66.179464 
L 228.214 65.914487 
L 228.926477 65.781999 
L 229.638955 65.517023 
L 231.063909 65.252047 
L 231.776386 64.987071 
L 232.488864 64.854583 
L 233.201341 64.589606 
L 233.913818 64.457118 
L 234.626295 64.192142 
L 236.05125 63.927166 
L 236.763727 63.66219 
L 237.476205 63.529702 
L 238.188682 63.264725 
L 239.613636 62.999749 
L 240.326114 62.734773 
L 241.038591 62.602285 
L 241.751068 62.337309 
L 242.463545 62.204821 
L 243.176023 61.939844 
L 244.600977 61.674868 
L 245.313455 61.409892 
L 246.025932 61.277404 
L 246.738409 61.012428 
L 248.163364 60.747452 
L 248.875841 60.482475 
L 249.588318 60.349987 
L 250.300795 60.085011 
L 251.013273 59.952523 
L 251.72575 59.687547 
L 253.150705 59.422571 
L 253.863182 59.157594 
L 254.575659 59.025106 
L 255.288136 58.76013 
L 256.713091 58.495154 
L 257.425568 58.230178 
L 258.138045 58.09769 
L 258.850523 57.832714 
L 259.563 57.700225 
L 260.275477 57.435249 
L 261.700432 57.170273 
L 262.412909 56.905297 
L 263.125386 56.772809 
L 263.837864 56.507833 
L 265.262818 56.242856 
L 265.975295 55.97788 
L 266.687773 55.845392 
L 267.40025 55.580416 
L 268.112727 55.447928 
L 268.825205 55.182952 
L 270.250159 54.917975 
L 270.962636 54.652999 
L 271.675114 54.520511 
L 272.387591 54.255535 
L 273.812545 53.990559 
L 274.525023 53.725583 
L 275.2375 53.593094 
L 275.949977 53.328118 
L 276.662455 53.19563 
L 277.374932 52.930654 
L 278.799886 52.665678 
L 279.512364 52.400702 
L 280.224841 52.268213 
L 280.937318 52.003237 
L 282.362273 51.738261 
L 283.07475 51.473285 
L 283.787227 51.340797 
L 284.499705 51.075821 
L 285.212182 50.943333 
L 285.924659 50.678356 
L 287.349614 50.41338 
L 288.062091 50.148404 
L 288.774568 50.015916 
L 289.487045 49.75094 
L 290.912 49.485963 
L 291.624477 49.220987 
L 292.336955 49.088499 
L 293.049432 48.823523 
L 293.761909 48.691035 
L 294.474386 48.426059 
L 295.899341 48.161083 
L 296.611818 47.896106 
L 297.324295 47.763618 
L 298.036773 47.498642 
L 299.461727 47.233666 
L 300.174205 46.96869 
L 300.886682 46.836202 
L 301.599159 46.571225 
L 302.311636 46.438737 
L 303.024114 46.173761 
L 304.449068 45.908785 
L 305.161545 45.643809 
L 305.874023 45.511321 
L 306.5865 45.246344 
L 308.011455 44.981368 
L 308.723932 44.716392 
L 309.436409 44.583904 
L 310.148886 44.318928 
L 310.861364 44.18644 
L 311.573841 43.921463 
L 312.998795 43.656487 
L 313.711273 43.391511 
L 314.42375 43.259023 
L 315.136227 42.994047 
L 316.561182 42.729071 
L 317.273659 42.464094 
L 317.986136 42.331606 
L 318.698614 42.06663 
L 319.411091 41.934142 
L 320.123568 41.669166 
L 321.548523 41.40419 
L 322.261 41.139213 
L 322.973477 41.006725 
L 323.685955 40.741749 
L 325.110909 40.476773 
L 325.823386 40.211797 
L 326.535864 40.079309 
L 327.248341 39.814332 
L 327.960818 39.681844 
L 328.673295 39.416868 
L 330.09825 39.151892 
L 330.810727 38.886916 
L 331.523205 38.754428 
L 332.235682 38.489452 
L 333.660636 38.224475 
L 334.373114 37.959499 
L 335.085591 37.827011 
L 335.798068 37.562035 
L 336.510545 37.429547 
L 337.223023 37.164571 
L 338.647977 36.899594 
L 339.360455 36.634618 
L 339.360455 36.634618 
" style="fill:none;stroke:#1f77b4;stroke-linecap:square;stroke-width:1.5;"/>
   </g>
   <g id="line2d_28">
    <path clip-path="url(#p3668543517)" d="M 54.369545 116.526982 
L 64.344227 109.225141 
L 65.769182 108.761638 
L 82.868636 104.253859 
L 339.360455 36.835149 
L 339.360455 36.835149 
" style="fill:none;stroke:#ff7f0e;stroke-linecap:square;stroke-width:1.5;"/>
   </g>
   <g id="patch_3">
    <path d="M 40.12 120.5216 
L 40.12 32.64 
" style="fill:none;stroke:#000000;stroke-linecap:square;stroke-linejoin:miter;stroke-width:0.8;"/>
   </g>
   <g id="patch_4">
    <path d="M 353.61 120.5216 
L 353.61 32.64 
" style="fill:none;stroke:#000000;stroke-linecap:square;stroke-linejoin:miter;stroke-width:0.8;"/>
   </g>
   <g id="patch_5">
    <path d="M 40.12 120.5216 
L 353.61 120.5216 
" style="fill:none;stroke:#000000;stroke-linecap:square;stroke-linejoin:miter;stroke-width:0.8;"/>
   </g>
   <g id="patch_6">
    <path d="M 40.12 32.64 
L 353.61 32.64 
" style="fill:none;stroke:#000000;stroke-linecap:square;stroke-linejoin:miter;stroke-width:0.8;"/>
   </g>
   <g id="text_5">
    <!-- Cons. Functions -->
    <defs>
     <path d="M 64.40625 67.28125 
L 64.40625 56.890625 
Q 59.421875 61.53125 53.78125 63.8125 
Q 48.140625 66.109375 41.796875 66.109375 
Q 29.296875 66.109375 22.65625 58.46875 
Q 16.015625 50.828125 16.015625 36.375 
Q 16.015625 21.96875 22.65625 14.328125 
Q 29.296875 6.6875 41.796875 6.6875 
Q 48.140625 6.6875 53.78125 8.984375 
Q 59.421875 11.28125 64.40625 15.921875 
L 64.40625 5.609375 
Q 59.234375 2.09375 53.4375 0.328125 
Q 47.65625 -1.421875 41.21875 -1.421875 
Q 24.65625 -1.421875 15.125 8.703125 
Q 5.609375 18.84375 5.609375 36.375 
Q 5.609375 53.953125 15.125 64.078125 
Q 24.65625 74.21875 41.21875 74.21875 
Q 47.75 74.21875 53.53125 72.484375 
Q 59.328125 70.75 64.40625 67.28125 
z
" id="DejaVuSans-67"/>
     <path d="M 30.609375 48.390625 
Q 23.390625 48.390625 19.1875 42.75 
Q 14.984375 37.109375 14.984375 27.296875 
Q 14.984375 17.484375 19.15625 11.84375 
Q 23.34375 6.203125 30.609375 6.203125 
Q 37.796875 6.203125 41.984375 11.859375 
Q 46.1875 17.53125 46.1875 27.296875 
Q 46.1875 37.015625 41.984375 42.703125 
Q 37.796875 48.390625 30.609375 48.390625 
z
M 30.609375 56 
Q 42.328125 56 49.015625 48.375 
Q 55.71875 40.765625 55.71875 27.296875 
Q 55.71875 13.875 49.015625 6.21875 
Q 42.328125 -1.421875 30.609375 -1.421875 
Q 18.84375 -1.421875 12.171875 6.21875 
Q 5.515625 13.875 5.515625 27.296875 
Q 5.515625 40.765625 12.171875 48.375 
Q 18.84375 56 30.609375 56 
z
" id="DejaVuSans-111"/>
     <path d="M 54.890625 33.015625 
L 54.890625 0 
L 45.90625 0 
L 45.90625 32.71875 
Q 45.90625 40.484375 42.875 44.328125 
Q 39.84375 48.1875 33.796875 48.1875 
Q 26.515625 48.1875 22.3125 43.546875 
Q 18.109375 38.921875 18.109375 30.90625 
L 18.109375 0 
L 9.078125 0 
L 9.078125 54.6875 
L 18.109375 54.6875 
L 18.109375 46.1875 
Q 21.34375 51.125 25.703125 53.5625 
Q 30.078125 56 35.796875 56 
Q 45.21875 56 50.046875 50.171875 
Q 54.890625 44.34375 54.890625 33.015625 
z
" id="DejaVuSans-110"/>
     <path d="M 44.28125 53.078125 
L 44.28125 44.578125 
Q 40.484375 46.53125 36.375 47.5 
Q 32.28125 48.484375 27.875 48.484375 
Q 21.1875 48.484375 17.84375 46.4375 
Q 14.5 44.390625 14.5 40.28125 
Q 14.5 37.15625 16.890625 35.375 
Q 19.28125 33.59375 26.515625 31.984375 
L 29.59375 31.296875 
Q 39.15625 29.25 43.1875 25.515625 
Q 47.21875 21.78125 47.21875 15.09375 
Q 47.21875 7.46875 41.1875 3.015625 
Q 35.15625 -1.421875 24.609375 -1.421875 
Q 20.21875 -1.421875 15.453125 -0.5625 
Q 10.6875 0.296875 5.421875 2 
L 5.421875 11.28125 
Q 10.40625 8.6875 15.234375 7.390625 
Q 20.0625 6.109375 24.8125 6.109375 
Q 31.15625 6.109375 34.5625 8.28125 
Q 37.984375 10.453125 37.984375 14.40625 
Q 37.984375 18.0625 35.515625 20.015625 
Q 33.0625 21.96875 24.703125 23.78125 
L 21.578125 24.515625 
Q 13.234375 26.265625 9.515625 29.90625 
Q 5.8125 33.546875 5.8125 39.890625 
Q 5.8125 47.609375 11.28125 51.796875 
Q 16.75 56 26.8125 56 
Q 31.78125 56 36.171875 55.265625 
Q 40.578125 54.546875 44.28125 53.078125 
z
" id="DejaVuSans-115"/>
     <path d="M 10.6875 12.40625 
L 21 12.40625 
L 21 0 
L 10.6875 0 
z
" id="DejaVuSans-46"/>
     <path id="DejaVuSans-32"/>
     <path d="M 9.8125 72.90625 
L 51.703125 72.90625 
L 51.703125 64.59375 
L 19.671875 64.59375 
L 19.671875 43.109375 
L 48.578125 43.109375 
L 48.578125 34.8125 
L 19.671875 34.8125 
L 19.671875 0 
L 9.8125 0 
z
" id="DejaVuSans-70"/>
     <path d="M 8.5 21.578125 
L 8.5 54.6875 
L 17.484375 54.6875 
L 17.484375 21.921875 
Q 17.484375 14.15625 20.5 10.265625 
Q 23.53125 6.390625 29.59375 6.390625 
Q 36.859375 6.390625 41.078125 11.03125 
Q 45.3125 15.671875 45.3125 23.6875 
L 45.3125 54.6875 
L 54.296875 54.6875 
L 54.296875 0 
L 45.3125 0 
L 45.3125 8.40625 
Q 42.046875 3.421875 37.71875 1 
Q 33.40625 -1.421875 27.6875 -1.421875 
Q 18.265625 -1.421875 13.375 4.4375 
Q 8.5 10.296875 8.5 21.578125 
z
M 31.109375 56 
z
" id="DejaVuSans-117"/>
     <path d="M 48.78125 52.59375 
L 48.78125 44.1875 
Q 44.96875 46.296875 41.140625 47.34375 
Q 37.3125 48.390625 33.40625 48.390625 
Q 24.65625 48.390625 19.8125 42.84375 
Q 14.984375 37.3125 14.984375 27.296875 
Q 14.984375 17.28125 19.8125 11.734375 
Q 24.65625 6.203125 33.40625 6.203125 
Q 37.3125 6.203125 41.140625 7.25 
Q 44.96875 8.296875 48.78125 10.40625 
L 48.78125 2.09375 
Q 45.015625 0.34375 40.984375 -0.53125 
Q 36.96875 -1.421875 32.421875 -1.421875 
Q 20.0625 -1.421875 12.78125 6.34375 
Q 5.515625 14.109375 5.515625 27.296875 
Q 5.515625 40.671875 12.859375 48.328125 
Q 20.21875 56 33.015625 56 
Q 37.15625 56 41.109375 55.140625 
Q 45.0625 54.296875 48.78125 52.59375 
z
" id="DejaVuSans-99"/>
     <path d="M 18.3125 70.21875 
L 18.3125 54.6875 
L 36.8125 54.6875 
L 36.8125 47.703125 
L 18.3125 47.703125 
L 18.3125 18.015625 
Q 18.3125 11.328125 20.140625 9.421875 
Q 21.96875 7.515625 27.59375 7.515625 
L 36.8125 7.515625 
L 36.8125 0 
L 27.59375 0 
Q 17.1875 0 13.234375 3.875 
Q 9.28125 7.765625 9.28125 18.015625 
L 9.28125 47.703125 
L 2.6875 47.703125 
L 2.6875 54.6875 
L 9.28125 54.6875 
L 9.28125 70.21875 
z
" id="DejaVuSans-116"/>
     <path d="M 9.421875 54.6875 
L 18.40625 54.6875 
L 18.40625 0 
L 9.421875 0 
z
M 9.421875 75.984375 
L 18.40625 75.984375 
L 18.40625 64.59375 
L 9.421875 64.59375 
z
" id="DejaVuSans-105"/>
    </defs>
    <g transform="translate(149.293438 26.64)scale(0.12 -0.12)">
     <use xlink:href="#DejaVuSans-67"/>
     <use x="69.824219" xlink:href="#DejaVuSans-111"/>
     <use x="131.005859" xlink:href="#DejaVuSans-110"/>
     <use x="194.384766" xlink:href="#DejaVuSans-115"/>
     <use x="246.484375" xlink:href="#DejaVuSans-46"/>
     <use x="278.271484" xlink:href="#DejaVuSans-32"/>
     <use x="310.058594" xlink:href="#DejaVuSans-70"/>
     <use x="367.5" xlink:href="#DejaVuSans-117"/>
     <use x="430.878906" xlink:href="#DejaVuSans-110"/>
     <use x="494.257812" xlink:href="#DejaVuSans-99"/>
     <use x="549.238281" xlink:href="#DejaVuSans-116"/>
     <use x="588.447266" xlink:href="#DejaVuSans-105"/>
     <use x="616.230469" xlink:href="#DejaVuSans-111"/>
     <use x="677.412109" xlink:href="#DejaVuSans-110"/>
     <use x="740.791016" xlink:href="#DejaVuSans-115"/>
    </g>
   </g>
   <g id="legend_1">
    <g id="patch_7">
     <path d="M 47.12 69.99625 
L 106.987188 69.99625 
Q 108.987188 69.99625 108.987188 67.99625 
L 108.987188 39.64 
Q 108.987188 37.64 106.987188 37.64 
L 47.12 37.64 
Q 45.12 37.64 45.12 39.64 
L 45.12 67.99625 
Q 45.12 69.99625 47.12 69.99625 
z
" style="fill:#ffffff;opacity:0.8;stroke:#cccccc;stroke-linejoin:miter;"/>
    </g>
    <g id="line2d_29">
     <path d="M 49.12 45.738438 
L 69.12 45.738438 
" style="fill:none;stroke:#1f77b4;stroke-linecap:square;stroke-width:1.5;"/>
    </g>
    <g id="line2d_30"/>
    <g id="text_6">
     <!-- CGM -->
     <defs>
      <path d="M 59.515625 10.40625 
L 59.515625 29.984375 
L 43.40625 29.984375 
L 43.40625 38.09375 
L 69.28125 38.09375 
L 69.28125 6.78125 
Q 63.578125 2.734375 56.6875 0.65625 
Q 49.8125 -1.421875 42 -1.421875 
Q 24.90625 -1.421875 15.25 8.5625 
Q 5.609375 18.5625 5.609375 36.375 
Q 5.609375 54.25 15.25 64.234375 
Q 24.90625 74.21875 42 74.21875 
Q 49.125 74.21875 55.546875 72.453125 
Q 61.96875 70.703125 67.390625 67.28125 
L 67.390625 56.78125 
Q 61.921875 61.421875 55.765625 63.765625 
Q 49.609375 66.109375 42.828125 66.109375 
Q 29.4375 66.109375 22.71875 58.640625 
Q 16.015625 51.171875 16.015625 36.375 
Q 16.015625 21.625 22.71875 14.15625 
Q 29.4375 6.6875 42.828125 6.6875 
Q 48.046875 6.6875 52.140625 7.59375 
Q 56.25 8.5 59.515625 10.40625 
z
" id="DejaVuSans-71"/>
      <path d="M 9.8125 72.90625 
L 24.515625 72.90625 
L 43.109375 23.296875 
L 61.8125 72.90625 
L 76.515625 72.90625 
L 76.515625 0 
L 66.890625 0 
L 66.890625 64.015625 
L 48.09375 14.015625 
L 38.1875 14.015625 
L 19.390625 64.015625 
L 19.390625 0 
L 9.8125 0 
z
" id="DejaVuSans-77"/>
     </defs>
     <g transform="translate(77.12 49.238438)scale(0.1 -0.1)">
      <use xlink:href="#DejaVuSans-67"/>
      <use x="69.824219" xlink:href="#DejaVuSans-71"/>
      <use x="147.314453" xlink:href="#DejaVuSans-77"/>
     </g>
    </g>
    <g id="line2d_31">
     <path d="M 49.12 60.416563 
L 69.12 60.416563 
" style="fill:none;stroke:#ff7f0e;stroke-linecap:square;stroke-width:1.5;"/>
    </g>
    <g id="line2d_32"/>
    <g id="text_7">
     <!-- HARK -->
     <defs>
      <path d="M 9.8125 72.90625 
L 19.671875 72.90625 
L 19.671875 43.015625 
L 55.515625 43.015625 
L 55.515625 72.90625 
L 65.375 72.90625 
L 65.375 0 
L 55.515625 0 
L 55.515625 34.71875 
L 19.671875 34.71875 
L 19.671875 0 
L 9.8125 0 
z
" id="DejaVuSans-72"/>
      <path d="M 34.1875 63.1875 
L 20.796875 26.90625 
L 47.609375 26.90625 
z
M 28.609375 72.90625 
L 39.796875 72.90625 
L 67.578125 0 
L 57.328125 0 
L 50.6875 18.703125 
L 17.828125 18.703125 
L 11.1875 0 
L 0.78125 0 
z
" id="DejaVuSans-65"/>
      <path d="M 44.390625 34.1875 
Q 47.5625 33.109375 50.5625 29.59375 
Q 53.5625 26.078125 56.59375 19.921875 
L 66.609375 0 
L 56 0 
L 46.6875 18.703125 
Q 43.0625 26.03125 39.671875 28.421875 
Q 36.28125 30.8125 30.421875 30.8125 
L 19.671875 30.8125 
L 19.671875 0 
L 9.8125 0 
L 9.8125 72.90625 
L 32.078125 72.90625 
Q 44.578125 72.90625 50.734375 67.671875 
Q 56.890625 62.453125 56.890625 51.90625 
Q 56.890625 45.015625 53.6875 40.46875 
Q 50.484375 35.9375 44.390625 34.1875 
z
M 19.671875 64.796875 
L 19.671875 38.921875 
L 32.078125 38.921875 
Q 39.203125 38.921875 42.84375 42.21875 
Q 46.484375 45.515625 46.484375 51.90625 
Q 46.484375 58.296875 42.84375 61.546875 
Q 39.203125 64.796875 32.078125 64.796875 
z
" id="DejaVuSans-82"/>
      <path d="M 9.8125 72.90625 
L 19.671875 72.90625 
L 19.671875 42.09375 
L 52.390625 72.90625 
L 65.09375 72.90625 
L 28.90625 38.921875 
L 67.671875 0 
L 54.6875 0 
L 19.671875 35.109375 
L 19.671875 0 
L 9.8125 0 
z
" id="DejaVuSans-75"/>
     </defs>
     <g transform="translate(77.12 63.916563)scale(0.1 -0.1)">
      <use xlink:href="#DejaVuSans-72"/>
      <use x="75.195312" xlink:href="#DejaVuSans-65"/>
      <use x="143.603516" xlink:href="#DejaVuSans-82"/>
      <use x="213.085938" xlink:href="#DejaVuSans-75"/>
     </g>
    </g>
   </g>
  </g>
  <g id="axes_2">
   <g id="patch_8">
    <path d="M 395.71 120.5216 
L 709.2 120.5216 
L 709.2 32.64 
L 395.71 32.64 
z
" style="fill:#ffffff;"/>
   </g>
   <g id="matplotlib.axis_3">
    <g id="xtick_10">
     <g id="line2d_33">
      <path clip-path="url(#peebc5af7ea)" d="M 407.109636 120.5216 
L 407.109636 32.64 
" style="fill:none;stroke:#b0b0b0;stroke-linecap:square;stroke-width:0.8;"/>
     </g>
     <g id="line2d_34">
      <g>
       <use style="stroke:#000000;stroke-width:0.8;" x="407.109636" xlink:href="#m894a5c0a90" y="120.5216"/>
      </g>
     </g>
    </g>
    <g id="xtick_11">
     <g id="line2d_35">
      <path clip-path="url(#peebc5af7ea)" d="M 442.7335 120.5216 
L 442.7335 32.64 
" style="fill:none;stroke:#b0b0b0;stroke-linecap:square;stroke-width:0.8;"/>
     </g>
     <g id="line2d_36">
      <g>
       <use style="stroke:#000000;stroke-width:0.8;" x="442.7335" xlink:href="#m894a5c0a90" y="120.5216"/>
      </g>
     </g>
    </g>
    <g id="xtick_12">
     <g id="line2d_37">
      <path clip-path="url(#peebc5af7ea)" d="M 478.357364 120.5216 
L 478.357364 32.64 
" style="fill:none;stroke:#b0b0b0;stroke-linecap:square;stroke-width:0.8;"/>
     </g>
     <g id="line2d_38">
      <g>
       <use style="stroke:#000000;stroke-width:0.8;" x="478.357364" xlink:href="#m894a5c0a90" y="120.5216"/>
      </g>
     </g>
    </g>
    <g id="xtick_13">
     <g id="line2d_39">
      <path clip-path="url(#peebc5af7ea)" d="M 513.981227 120.5216 
L 513.981227 32.64 
" style="fill:none;stroke:#b0b0b0;stroke-linecap:square;stroke-width:0.8;"/>
     </g>
     <g id="line2d_40">
      <g>
       <use style="stroke:#000000;stroke-width:0.8;" x="513.981227" xlink:href="#m894a5c0a90" y="120.5216"/>
      </g>
     </g>
    </g>
    <g id="xtick_14">
     <g id="line2d_41">
      <path clip-path="url(#peebc5af7ea)" d="M 549.605091 120.5216 
L 549.605091 32.64 
" style="fill:none;stroke:#b0b0b0;stroke-linecap:square;stroke-width:0.8;"/>
     </g>
     <g id="line2d_42">
      <g>
       <use style="stroke:#000000;stroke-width:0.8;" x="549.605091" xlink:href="#m894a5c0a90" y="120.5216"/>
      </g>
     </g>
    </g>
    <g id="xtick_15">
     <g id="line2d_43">
      <path clip-path="url(#peebc5af7ea)" d="M 585.228955 120.5216 
L 585.228955 32.64 
" style="fill:none;stroke:#b0b0b0;stroke-linecap:square;stroke-width:0.8;"/>
     </g>
     <g id="line2d_44">
      <g>
       <use style="stroke:#000000;stroke-width:0.8;" x="585.228955" xlink:href="#m894a5c0a90" y="120.5216"/>
      </g>
     </g>
    </g>
    <g id="xtick_16">
     <g id="line2d_45">
      <path clip-path="url(#peebc5af7ea)" d="M 620.852818 120.5216 
L 620.852818 32.64 
" style="fill:none;stroke:#b0b0b0;stroke-linecap:square;stroke-width:0.8;"/>
     </g>
     <g id="line2d_46">
      <g>
       <use style="stroke:#000000;stroke-width:0.8;" x="620.852818" xlink:href="#m894a5c0a90" y="120.5216"/>
      </g>
     </g>
    </g>
    <g id="xtick_17">
     <g id="line2d_47">
      <path clip-path="url(#peebc5af7ea)" d="M 656.476682 120.5216 
L 656.476682 32.64 
" style="fill:none;stroke:#b0b0b0;stroke-linecap:square;stroke-width:0.8;"/>
     </g>
     <g id="line2d_48">
      <g>
       <use style="stroke:#000000;stroke-width:0.8;" x="656.476682" xlink:href="#m894a5c0a90" y="120.5216"/>
      </g>
     </g>
    </g>
    <g id="xtick_18">
     <g id="line2d_49">
      <path clip-path="url(#peebc5af7ea)" d="M 692.100545 120.5216 
L 692.100545 32.64 
" style="fill:none;stroke:#b0b0b0;stroke-linecap:square;stroke-width:0.8;"/>
     </g>
     <g id="line2d_50">
      <g>
       <use style="stroke:#000000;stroke-width:0.8;" x="692.100545" xlink:href="#m894a5c0a90" y="120.5216"/>
      </g>
     </g>
    </g>
   </g>
   <g id="matplotlib.axis_4">
    <g id="ytick_5">
     <g id="line2d_51">
      <path clip-path="url(#peebc5af7ea)" d="M 395.71 95.463256 
L 709.2 95.463256 
" style="fill:none;stroke:#b0b0b0;stroke-linecap:square;stroke-width:0.8;"/>
     </g>
     <g id="line2d_52">
      <g>
       <use style="stroke:#000000;stroke-width:0.8;" x="395.71" xlink:href="#m65f02b7dc7" y="95.463256"/>
      </g>
     </g>
     <g id="text_8">
      <!-- −1 -->
      <defs>
       <path d="M 10.59375 35.5 
L 73.1875 35.5 
L 73.1875 27.203125 
L 10.59375 27.203125 
z
" id="DejaVuSans-8722"/>
      </defs>
      <g transform="translate(373.967812 99.262475)scale(0.1 -0.1)">
       <use xlink:href="#DejaVuSans-8722"/>
       <use x="83.789062" xlink:href="#DejaVuSans-49"/>
      </g>
     </g>
    </g>
    <g id="ytick_6">
     <g id="line2d_53">
      <path clip-path="url(#peebc5af7ea)" d="M 395.71 55.367758 
L 709.2 55.367758 
" style="fill:none;stroke:#b0b0b0;stroke-linecap:square;stroke-width:0.8;"/>
     </g>
     <g id="line2d_54">
      <g>
       <use style="stroke:#000000;stroke-width:0.8;" x="395.71" xlink:href="#m65f02b7dc7" y="55.367758"/>
      </g>
     </g>
     <g id="text_9">
      <!-- 0 -->
      <g transform="translate(382.3475 59.166977)scale(0.1 -0.1)">
       <use xlink:href="#DejaVuSans-48"/>
      </g>
     </g>
    </g>
   </g>
   <g id="line2d_55">
    <path clip-path="url(#peebc5af7ea)" d="M 409.959545 55.213272 
L 419.22175 54.711191 
L 419.934227 56.347784 
L 420.646705 56.498243 
L 421.359182 51.320317 
L 422.784136 60.34359 
L 423.496614 54.653148 
L 424.209091 58.858235 
L 424.921568 52.996255 
L 425.634045 57.141429 
L 426.346523 51.262599 
L 427.059 55.407642 
L 427.771477 49.528811 
L 429.196432 57.818899 
L 429.908909 51.940071 
L 430.621386 56.085111 
L 431.333864 50.206284 
L 432.046341 54.351325 
L 432.758818 48.472495 
L 434.183773 56.762582 
L 434.89625 50.883752 
L 435.608727 55.028798 
L 436.321205 49.149965 
L 437.746159 57.440052 
L 438.458636 51.561224 
L 439.171114 55.706269 
L 439.883591 49.827437 
L 440.596068 53.972479 
L 441.308545 48.093647 
L 442.021023 52.23869 
L 442.7335 116.526982 
L 443.445977 110.648154 
L 444.158455 94.745452 
L 444.870932 98.890495 
L 445.583409 82.987789 
L 447.008364 71.230124 
L 447.720841 55.327418 
L 448.433318 59.472461 
L 449.858273 47.7148 
L 451.283227 56.00489 
L 451.995705 50.126061 
L 453.420659 58.416154 
L 454.133136 42.513449 
L 454.845614 36.634618 
L 455.558091 70.851284 
L 458.408 47.335958 
L 459.120477 61.504875 
L 460.545432 49.747212 
L 461.970386 58.037299 
L 462.682864 52.158468 
L 463.395341 56.303512 
L 464.107818 50.424681 
L 464.820295 54.569725 
L 465.532773 48.690895 
L 466.24525 52.835939 
L 466.957727 46.957109 
L 468.382682 55.247198 
L 469.095159 49.368369 
L 469.807636 53.513414 
L 470.520114 47.634584 
L 471.945068 55.924675 
L 472.657545 50.045846 
L 473.370023 54.190892 
L 474.0825 48.312063 
L 475.507455 56.602151 
L 476.219932 50.72332 
L 476.932409 54.868364 
L 477.644886 48.989533 
L 478.357364 53.134577 
L 479.069841 47.255746 
L 480.494795 55.545832 
L 481.207273 49.667001 
L 481.91975 53.812045 
L 482.632227 47.933214 
L 483.344705 52.078257 
L 484.057182 46.199426 
L 485.482136 54.489513 
L 486.194614 48.610682 
L 486.907091 52.755725 
L 487.619568 46.876894 
L 489.044523 55.166981 
L 489.757 49.28815 
L 490.469477 53.433194 
L 491.181955 47.554363 
L 492.606909 55.84445 
L 493.319386 49.965619 
L 494.031864 54.110663 
L 494.744341 48.231832 
L 495.456818 52.376876 
L 496.169295 46.498045 
L 497.59425 54.788133 
L 498.306727 48.909302 
L 499.019205 53.054346 
L 499.731682 47.175515 
L 500.444159 51.320559 
L 501.156636 45.441728 
L 502.581591 53.731816 
L 503.294068 47.852985 
L 504.006545 51.998029 
L 504.719023 46.119198 
L 506.143977 54.409286 
L 506.856455 48.530455 
L 507.568932 52.675499 
L 508.281409 46.796669 
L 509.706364 55.086757 
L 510.418841 49.207926 
L 511.131318 53.35297 
L 511.843795 47.47414 
L 512.556273 51.619184 
L 513.26875 45.740353 
L 514.693705 54.030441 
L 515.406182 48.151611 
L 516.118659 52.296655 
L 516.831136 46.417824 
L 518.256091 54.707913 
L 518.968568 48.829082 
L 519.681045 52.974126 
L 520.393523 47.095296 
L 521.106 51.24034 
L 521.818477 45.36151 
L 523.243432 53.651598 
L 523.955909 47.772768 
L 524.668386 51.917812 
L 525.380864 46.038982 
L 526.805818 54.32907 
L 527.518295 48.45024 
L 528.230773 52.595284 
L 528.94325 46.716454 
L 529.655727 50.861498 
L 530.368205 44.982668 
L 531.793159 53.272756 
L 532.505636 47.393926 
L 533.218114 51.53897 
L 533.930591 45.66014 
L 535.355545 53.950228 
L 536.068023 48.071398 
L 536.7805 52.216442 
L 537.492977 46.337612 
L 538.205455 50.482657 
L 538.917932 44.603826 
L 540.342886 52.893915 
L 541.055364 47.015085 
L 541.767841 51.160129 
L 542.480318 45.281299 
L 543.905273 53.571388 
L 544.61775 47.692557 
L 545.330227 51.837602 
L 546.042705 45.958772 
L 546.755182 50.103816 
L 547.467659 44.224986 
L 548.892614 52.515075 
L 549.605091 46.636244 
L 550.317568 50.781289 
L 551.030045 44.902459 
L 552.455 53.192547 
L 553.167477 47.313717 
L 553.879955 51.458762 
L 554.592432 45.579932 
L 555.304909 49.724976 
L 556.017386 43.846146 
L 557.442341 52.136235 
L 558.154818 46.257404 
L 558.867295 50.402449 
L 559.579773 44.523619 
L 561.004727 52.813708 
L 561.717205 46.934877 
L 562.429682 51.079922 
L 563.142159 45.201092 
L 563.854636 49.346136 
L 564.567114 43.467306 
L 565.992068 51.757394 
L 566.704545 45.878564 
L 567.417023 50.023608 
L 568.1295 44.144777 
L 569.554455 52.434865 
L 570.266932 46.556035 
L 570.979409 50.701079 
L 571.691886 44.822248 
L 572.404364 48.967292 
L 573.116841 43.088462 
L 574.541795 51.37855 
L 575.254273 45.499719 
L 575.96675 49.644763 
L 576.679227 43.765933 
L 578.104182 52.05602 
L 578.816659 46.17719 
L 579.529136 50.322234 
L 580.241614 44.443403 
L 580.954091 48.588447 
L 581.666568 42.709617 
L 583.091523 50.999704 
L 583.804 45.120874 
L 584.516477 49.265918 
L 585.228955 43.387087 
L 586.653909 51.677175 
L 587.366386 45.798345 
L 588.078864 49.943389 
L 588.791341 44.064558 
L 589.503818 48.209602 
L 590.216295 42.330771 
L 591.64125 50.620859 
L 592.353727 44.742029 
L 593.066205 48.887073 
L 593.778682 43.008242 
L 595.203636 51.29833 
L 595.916114 45.419499 
L 596.628591 49.564543 
L 597.341068 43.685713 
L 598.053545 47.830757 
L 598.766023 41.951926 
L 600.190977 50.242014 
L 600.903455 44.363184 
L 601.615932 48.508228 
L 602.328409 42.629397 
L 603.753364 50.919485 
L 604.465841 45.040654 
L 605.178318 49.185698 
L 605.890795 43.306868 
L 606.603273 47.451912 
L 607.31575 41.573081 
L 608.740705 49.863169 
L 609.453182 43.984338 
L 610.165659 48.129382 
L 610.878136 42.250552 
L 612.303091 50.54064 
L 613.015568 44.661809 
L 613.728045 48.806853 
L 614.440523 42.928023 
L 615.153 47.073067 
L 615.865477 41.194236 
L 617.290432 49.484324 
L 618.002909 43.605493 
L 618.715386 47.750537 
L 619.427864 41.871707 
L 620.852818 50.161795 
L 621.565295 44.282964 
L 622.277773 48.428008 
L 622.99025 42.549177 
L 623.702727 46.694221 
L 624.415205 40.815391 
L 625.840159 49.105479 
L 626.552636 43.226648 
L 627.265114 47.371692 
L 627.977591 41.492862 
L 629.402545 49.78295 
L 630.115023 43.904119 
L 630.8275 48.049163 
L 631.539977 42.170332 
L 632.252455 46.315376 
L 632.964932 40.436546 
L 634.389886 48.726634 
L 635.102364 42.847803 
L 635.814841 46.992847 
L 636.527318 41.114017 
L 637.952273 49.404104 
L 638.66475 43.525274 
L 639.377227 47.670318 
L 640.089705 41.791487 
L 640.802182 45.936531 
L 641.514659 40.057701 
L 642.939614 48.347789 
L 643.652091 42.468958 
L 644.364568 46.614002 
L 645.077045 40.735172 
L 646.502 49.025259 
L 647.214477 43.146429 
L 647.926955 47.291473 
L 648.639432 41.412642 
L 649.351909 45.557686 
L 650.064386 39.678856 
L 651.489341 47.968944 
L 652.201818 42.090113 
L 652.914295 46.235157 
L 653.626773 40.356327 
L 655.051727 48.646415 
L 655.764205 42.767584 
L 656.476682 46.912628 
L 657.189159 41.033797 
L 657.901636 45.178841 
L 658.614114 39.300011 
L 660.039068 47.590099 
L 660.751545 41.711268 
L 661.464023 45.856312 
L 662.1765 39.977482 
L 663.601455 48.26757 
L 664.313932 42.388739 
L 665.026409 46.533783 
L 665.738886 40.654953 
L 666.451364 44.799996 
L 667.163841 38.921166 
L 668.588795 47.211254 
L 669.301273 41.332423 
L 670.01375 45.477467 
L 670.726227 39.598637 
L 672.151182 47.888725 
L 672.863659 42.009894 
L 673.576136 46.154938 
L 674.288614 40.276108 
L 675.001091 44.421152 
L 675.713568 38.542321 
L 677.138523 46.832409 
L 677.851 40.953579 
L 678.563477 45.098622 
L 679.275955 39.219792 
L 680.700909 47.50988 
L 681.413386 41.631049 
L 682.125864 45.776093 
L 682.838341 39.897263 
L 683.550818 44.042307 
L 684.263295 38.163476 
L 685.68825 46.453564 
L 686.400727 40.574734 
L 687.113205 44.719778 
L 687.825682 38.840947 
L 689.250636 47.131035 
L 689.963114 41.252205 
L 690.675591 45.397248 
L 691.388068 39.518418 
L 692.100545 43.663462 
L 692.813023 37.784631 
L 694.237977 46.074719 
L 694.950455 40.195889 
L 694.950455 40.195889 
" style="fill:none;stroke:#1f77b4;stroke-linecap:square;stroke-width:1.5;"/>
   </g>
   <g id="patch_9">
    <path d="M 395.71 120.5216 
L 395.71 32.64 
" style="fill:none;stroke:#000000;stroke-linecap:square;stroke-linejoin:miter;stroke-width:0.8;"/>
   </g>
   <g id="patch_10">
    <path d="M 709.2 120.5216 
L 709.2 32.64 
" style="fill:none;stroke:#000000;stroke-linecap:square;stroke-linejoin:miter;stroke-width:0.8;"/>
   </g>
   <g id="patch_11">
    <path d="M 395.71 120.5216 
L 709.2 120.5216 
" style="fill:none;stroke:#000000;stroke-linecap:square;stroke-linejoin:miter;stroke-width:0.8;"/>
   </g>
   <g id="patch_12">
    <path d="M 395.71 32.64 
L 709.2 32.64 
" style="fill:none;stroke:#000000;stroke-linecap:square;stroke-linejoin:miter;stroke-width:0.8;"/>
   </g>
   <g id="text_10">
    <!-- Cons. Difference -->
    <defs>
     <path d="M 19.671875 64.796875 
L 19.671875 8.109375 
L 31.59375 8.109375 
Q 46.6875 8.109375 53.6875 14.9375 
Q 60.6875 21.78125 60.6875 36.53125 
Q 60.6875 51.171875 53.6875 57.984375 
Q 46.6875 64.796875 31.59375 64.796875 
z
M 9.8125 72.90625 
L 30.078125 72.90625 
Q 51.265625 72.90625 61.171875 64.09375 
Q 71.09375 55.28125 71.09375 36.53125 
Q 71.09375 17.671875 61.125 8.828125 
Q 51.171875 0 30.078125 0 
L 9.8125 0 
z
" id="DejaVuSans-68"/>
     <path d="M 37.109375 75.984375 
L 37.109375 68.5 
L 28.515625 68.5 
Q 23.6875 68.5 21.796875 66.546875 
Q 19.921875 64.59375 19.921875 59.515625 
L 19.921875 54.6875 
L 34.71875 54.6875 
L 34.71875 47.703125 
L 19.921875 47.703125 
L 19.921875 0 
L 10.890625 0 
L 10.890625 47.703125 
L 2.296875 47.703125 
L 2.296875 54.6875 
L 10.890625 54.6875 
L 10.890625 58.5 
Q 10.890625 67.625 15.140625 71.796875 
Q 19.390625 75.984375 28.609375 75.984375 
z
" id="DejaVuSans-102"/>
     <path d="M 56.203125 29.59375 
L 56.203125 25.203125 
L 14.890625 25.203125 
Q 15.484375 15.921875 20.484375 11.0625 
Q 25.484375 6.203125 34.421875 6.203125 
Q 39.59375 6.203125 44.453125 7.46875 
Q 49.3125 8.734375 54.109375 11.28125 
L 54.109375 2.78125 
Q 49.265625 0.734375 44.1875 -0.34375 
Q 39.109375 -1.421875 33.890625 -1.421875 
Q 20.796875 -1.421875 13.15625 6.1875 
Q 5.515625 13.8125 5.515625 26.8125 
Q 5.515625 40.234375 12.765625 48.109375 
Q 20.015625 56 32.328125 56 
Q 43.359375 56 49.78125 48.890625 
Q 56.203125 41.796875 56.203125 29.59375 
z
M 47.21875 32.234375 
Q 47.125 39.59375 43.09375 43.984375 
Q 39.0625 48.390625 32.421875 48.390625 
Q 24.90625 48.390625 20.390625 44.140625 
Q 15.875 39.890625 15.1875 32.171875 
z
" id="DejaVuSans-101"/>
     <path d="M 41.109375 46.296875 
Q 39.59375 47.171875 37.8125 47.578125 
Q 36.03125 48 33.890625 48 
Q 26.265625 48 22.1875 43.046875 
Q 18.109375 38.09375 18.109375 28.8125 
L 18.109375 0 
L 9.078125 0 
L 9.078125 54.6875 
L 18.109375 54.6875 
L 18.109375 46.1875 
Q 20.953125 51.171875 25.484375 53.578125 
Q 30.03125 56 36.53125 56 
Q 37.453125 56 38.578125 55.875 
Q 39.703125 55.765625 41.0625 55.515625 
z
" id="DejaVuSans-114"/>
    </defs>
    <g transform="translate(502.699063 26.64)scale(0.12 -0.12)">
     <use xlink:href="#DejaVuSans-67"/>
     <use x="69.824219" xlink:href="#DejaVuSans-111"/>
     <use x="131.005859" xlink:href="#DejaVuSans-110"/>
     <use x="194.384766" xlink:href="#DejaVuSans-115"/>
     <use x="246.484375" xlink:href="#DejaVuSans-46"/>
     <use x="278.271484" xlink:href="#DejaVuSans-32"/>
     <use x="310.058594" xlink:href="#DejaVuSans-68"/>
     <use x="387.060547" xlink:href="#DejaVuSans-105"/>
     <use x="414.84375" xlink:href="#DejaVuSans-102"/>
     <use x="450.048828" xlink:href="#DejaVuSans-102"/>
     <use x="485.253906" xlink:href="#DejaVuSans-101"/>
     <use x="546.777344" xlink:href="#DejaVuSans-114"/>
     <use x="587.859375" xlink:href="#DejaVuSans-101"/>
     <use x="649.382812" xlink:href="#DejaVuSans-110"/>
     <use x="712.761719" xlink:href="#DejaVuSans-99"/>
     <use x="767.742188" xlink:href="#DejaVuSans-101"/>
    </g>
   </g>
   <g id="legend_2">
    <g id="patch_13">
     <path d="M 609.009375 115.5216 
L 702.2 115.5216 
Q 704.2 115.5216 704.2 113.5216 
L 704.2 99.843475 
Q 704.2 97.843475 702.2 97.843475 
L 609.009375 97.843475 
Q 607.009375 97.843475 607.009375 99.843475 
L 607.009375 113.5216 
Q 607.009375 115.5216 609.009375 115.5216 
z
" style="fill:#ffffff;opacity:0.8;stroke:#cccccc;stroke-linejoin:miter;"/>
    </g>
    <g id="line2d_56">
     <path d="M 611.009375 105.941912 
L 631.009375 105.941912 
" style="fill:none;stroke:#1f77b4;stroke-linecap:square;stroke-width:1.5;"/>
    </g>
    <g id="line2d_57"/>
    <g id="text_11">
     <!-- CGM - HARK -->
     <defs>
      <path d="M 4.890625 31.390625 
L 31.203125 31.390625 
L 31.203125 23.390625 
L 4.890625 23.390625 
z
" id="DejaVuSans-45"/>
     </defs>
     <g transform="translate(639.009375 109.441912)scale(0.1 -0.1)">
      <use xlink:href="#DejaVuSans-67"/>
      <use x="69.824219" xlink:href="#DejaVuSans-71"/>
      <use x="147.314453" xlink:href="#DejaVuSans-77"/>
      <use x="233.59375" xlink:href="#DejaVuSans-32"/>
      <use x="265.380859" xlink:href="#DejaVuSans-45"/>
      <use x="301.464844" xlink:href="#DejaVuSans-32"/>
      <use x="333.251953" xlink:href="#DejaVuSans-72"/>
      <use x="408.447266" xlink:href="#DejaVuSans-65"/>
      <use x="476.855469" xlink:href="#DejaVuSans-82"/>
      <use x="546.337891" xlink:href="#DejaVuSans-75"/>
     </g>
    </g>
   </g>
  </g>
  <g id="axes_3">
   <g id="patch_14">
    <path d="M 40.12 252.344 
L 353.61 252.344 
L 353.61 164.4624 
L 40.12 164.4624 
z
" style="fill:#ffffff;"/>
   </g>
   <g id="matplotlib.axis_5">
    <g id="xtick_19">
     <g id="line2d_58">
      <path clip-path="url(#pec292f3c75)" d="M 51.519636 252.344 
L 51.519636 164.4624 
" style="fill:none;stroke:#b0b0b0;stroke-linecap:square;stroke-width:0.8;"/>
     </g>
     <g id="line2d_59">
      <g>
       <use style="stroke:#000000;stroke-width:0.8;" x="51.519636" xlink:href="#m894a5c0a90" y="252.344"/>
      </g>
     </g>
     <g id="text_12">
      <!-- 0 -->
      <g transform="translate(48.338386 266.942437)scale(0.1 -0.1)">
       <use xlink:href="#DejaVuSans-48"/>
      </g>
     </g>
    </g>
    <g id="xtick_20">
     <g id="line2d_60">
      <path clip-path="url(#pec292f3c75)" d="M 87.1435 252.344 
L 87.1435 164.4624 
" style="fill:none;stroke:#b0b0b0;stroke-linecap:square;stroke-width:0.8;"/>
     </g>
     <g id="line2d_61">
      <g>
       <use style="stroke:#000000;stroke-width:0.8;" x="87.1435" xlink:href="#m894a5c0a90" y="252.344"/>
      </g>
     </g>
     <g id="text_13">
      <!-- 50 -->
      <g transform="translate(80.781 266.942437)scale(0.1 -0.1)">
       <use xlink:href="#DejaVuSans-53"/>
       <use x="63.623047" xlink:href="#DejaVuSans-48"/>
      </g>
     </g>
    </g>
    <g id="xtick_21">
     <g id="line2d_62">
      <path clip-path="url(#pec292f3c75)" d="M 122.767364 252.344 
L 122.767364 164.4624 
" style="fill:none;stroke:#b0b0b0;stroke-linecap:square;stroke-width:0.8;"/>
     </g>
     <g id="line2d_63">
      <g>
       <use style="stroke:#000000;stroke-width:0.8;" x="122.767364" xlink:href="#m894a5c0a90" y="252.344"/>
      </g>
     </g>
     <g id="text_14">
      <!-- 100 -->
      <g transform="translate(113.223614 266.942437)scale(0.1 -0.1)">
       <use xlink:href="#DejaVuSans-49"/>
       <use x="63.623047" xlink:href="#DejaVuSans-48"/>
       <use x="127.246094" xlink:href="#DejaVuSans-48"/>
      </g>
     </g>
    </g>
    <g id="xtick_22">
     <g id="line2d_64">
      <path clip-path="url(#pec292f3c75)" d="M 158.391227 252.344 
L 158.391227 164.4624 
" style="fill:none;stroke:#b0b0b0;stroke-linecap:square;stroke-width:0.8;"/>
     </g>
     <g id="line2d_65">
      <g>
       <use style="stroke:#000000;stroke-width:0.8;" x="158.391227" xlink:href="#m894a5c0a90" y="252.344"/>
      </g>
     </g>
     <g id="text_15">
      <!-- 150 -->
      <g transform="translate(148.847477 266.942437)scale(0.1 -0.1)">
       <use xlink:href="#DejaVuSans-49"/>
       <use x="63.623047" xlink:href="#DejaVuSans-53"/>
       <use x="127.246094" xlink:href="#DejaVuSans-48"/>
      </g>
     </g>
    </g>
    <g id="xtick_23">
     <g id="line2d_66">
      <path clip-path="url(#pec292f3c75)" d="M 194.015091 252.344 
L 194.015091 164.4624 
" style="fill:none;stroke:#b0b0b0;stroke-linecap:square;stroke-width:0.8;"/>
     </g>
     <g id="line2d_67">
      <g>
       <use style="stroke:#000000;stroke-width:0.8;" x="194.015091" xlink:href="#m894a5c0a90" y="252.344"/>
      </g>
     </g>
     <g id="text_16">
      <!-- 200 -->
      <defs>
       <path d="M 19.1875 8.296875 
L 53.609375 8.296875 
L 53.609375 0 
L 7.328125 0 
L 7.328125 8.296875 
Q 12.9375 14.109375 22.625 23.890625 
Q 32.328125 33.6875 34.8125 36.53125 
Q 39.546875 41.84375 41.421875 45.53125 
Q 43.3125 49.21875 43.3125 52.78125 
Q 43.3125 58.59375 39.234375 62.25 
Q 35.15625 65.921875 28.609375 65.921875 
Q 23.96875 65.921875 18.8125 64.3125 
Q 13.671875 62.703125 7.8125 59.421875 
L 7.8125 69.390625 
Q 13.765625 71.78125 18.9375 73 
Q 24.125 74.21875 28.421875 74.21875 
Q 39.75 74.21875 46.484375 68.546875 
Q 53.21875 62.890625 53.21875 53.421875 
Q 53.21875 48.921875 51.53125 44.890625 
Q 49.859375 40.875 45.40625 35.40625 
Q 44.1875 33.984375 37.640625 27.21875 
Q 31.109375 20.453125 19.1875 8.296875 
z
" id="DejaVuSans-50"/>
      </defs>
      <g transform="translate(184.471341 266.942437)scale(0.1 -0.1)">
       <use xlink:href="#DejaVuSans-50"/>
       <use x="63.623047" xlink:href="#DejaVuSans-48"/>
       <use x="127.246094" xlink:href="#DejaVuSans-48"/>
      </g>
     </g>
    </g>
    <g id="xtick_24">
     <g id="line2d_68">
      <path clip-path="url(#pec292f3c75)" d="M 229.638955 252.344 
L 229.638955 164.4624 
" style="fill:none;stroke:#b0b0b0;stroke-linecap:square;stroke-width:0.8;"/>
     </g>
     <g id="line2d_69">
      <g>
       <use style="stroke:#000000;stroke-width:0.8;" x="229.638955" xlink:href="#m894a5c0a90" y="252.344"/>
      </g>
     </g>
     <g id="text_17">
      <!-- 250 -->
      <g transform="translate(220.095205 266.942437)scale(0.1 -0.1)">
       <use xlink:href="#DejaVuSans-50"/>
       <use x="63.623047" xlink:href="#DejaVuSans-53"/>
       <use x="127.246094" xlink:href="#DejaVuSans-48"/>
      </g>
     </g>
    </g>
    <g id="xtick_25">
     <g id="line2d_70">
      <path clip-path="url(#pec292f3c75)" d="M 265.262818 252.344 
L 265.262818 164.4624 
" style="fill:none;stroke:#b0b0b0;stroke-linecap:square;stroke-width:0.8;"/>
     </g>
     <g id="line2d_71">
      <g>
       <use style="stroke:#000000;stroke-width:0.8;" x="265.262818" xlink:href="#m894a5c0a90" y="252.344"/>
      </g>
     </g>
     <g id="text_18">
      <!-- 300 -->
      <defs>
       <path d="M 40.578125 39.3125 
Q 47.65625 37.796875 51.625 33 
Q 55.609375 28.21875 55.609375 21.1875 
Q 55.609375 10.40625 48.1875 4.484375 
Q 40.765625 -1.421875 27.09375 -1.421875 
Q 22.515625 -1.421875 17.65625 -0.515625 
Q 12.796875 0.390625 7.625 2.203125 
L 7.625 11.71875 
Q 11.71875 9.328125 16.59375 8.109375 
Q 21.484375 6.890625 26.8125 6.890625 
Q 36.078125 6.890625 40.9375 10.546875 
Q 45.796875 14.203125 45.796875 21.1875 
Q 45.796875 27.640625 41.28125 31.265625 
Q 36.765625 34.90625 28.71875 34.90625 
L 20.21875 34.90625 
L 20.21875 43.015625 
L 29.109375 43.015625 
Q 36.375 43.015625 40.234375 45.921875 
Q 44.09375 48.828125 44.09375 54.296875 
Q 44.09375 59.90625 40.109375 62.90625 
Q 36.140625 65.921875 28.71875 65.921875 
Q 24.65625 65.921875 20.015625 65.03125 
Q 15.375 64.15625 9.8125 62.3125 
L 9.8125 71.09375 
Q 15.4375 72.65625 20.34375 73.4375 
Q 25.25 74.21875 29.59375 74.21875 
Q 40.828125 74.21875 47.359375 69.109375 
Q 53.90625 64.015625 53.90625 55.328125 
Q 53.90625 49.265625 50.4375 45.09375 
Q 46.96875 40.921875 40.578125 39.3125 
z
" id="DejaVuSans-51"/>
      </defs>
      <g transform="translate(255.719068 266.942437)scale(0.1 -0.1)">
       <use xlink:href="#DejaVuSans-51"/>
       <use x="63.623047" xlink:href="#DejaVuSans-48"/>
       <use x="127.246094" xlink:href="#DejaVuSans-48"/>
      </g>
     </g>
    </g>
    <g id="xtick_26">
     <g id="line2d_72">
      <path clip-path="url(#pec292f3c75)" d="M 300.886682 252.344 
L 300.886682 164.4624 
" style="fill:none;stroke:#b0b0b0;stroke-linecap:square;stroke-width:0.8;"/>
     </g>
     <g id="line2d_73">
      <g>
       <use style="stroke:#000000;stroke-width:0.8;" x="300.886682" xlink:href="#m894a5c0a90" y="252.344"/>
      </g>
     </g>
     <g id="text_19">
      <!-- 350 -->
      <g transform="translate(291.342932 266.942437)scale(0.1 -0.1)">
       <use xlink:href="#DejaVuSans-51"/>
       <use x="63.623047" xlink:href="#DejaVuSans-53"/>
       <use x="127.246094" xlink:href="#DejaVuSans-48"/>
      </g>
     </g>
    </g>
    <g id="xtick_27">
     <g id="line2d_74">
      <path clip-path="url(#pec292f3c75)" d="M 336.510545 252.344 
L 336.510545 164.4624 
" style="fill:none;stroke:#b0b0b0;stroke-linecap:square;stroke-width:0.8;"/>
     </g>
     <g id="line2d_75">
      <g>
       <use style="stroke:#000000;stroke-width:0.8;" x="336.510545" xlink:href="#m894a5c0a90" y="252.344"/>
      </g>
     </g>
     <g id="text_20">
      <!-- 400 -->
      <defs>
       <path d="M 37.796875 64.3125 
L 12.890625 25.390625 
L 37.796875 25.390625 
z
M 35.203125 72.90625 
L 47.609375 72.90625 
L 47.609375 25.390625 
L 58.015625 25.390625 
L 58.015625 17.1875 
L 47.609375 17.1875 
L 47.609375 0 
L 37.796875 0 
L 37.796875 17.1875 
L 4.890625 17.1875 
L 4.890625 26.703125 
z
" id="DejaVuSans-52"/>
      </defs>
      <g transform="translate(326.966795 266.942437)scale(0.1 -0.1)">
       <use xlink:href="#DejaVuSans-52"/>
       <use x="63.623047" xlink:href="#DejaVuSans-48"/>
       <use x="127.246094" xlink:href="#DejaVuSans-48"/>
      </g>
     </g>
    </g>
   </g>
   <g id="matplotlib.axis_6">
    <g id="ytick_7">
     <g id="line2d_76">
      <path clip-path="url(#pec292f3c75)" d="M 40.12 248.349382 
L 353.61 248.349382 
" style="fill:none;stroke:#b0b0b0;stroke-linecap:square;stroke-width:0.8;"/>
     </g>
     <g id="line2d_77">
      <g>
       <use style="stroke:#000000;stroke-width:0.8;" x="40.12" xlink:href="#m65f02b7dc7" y="248.349382"/>
      </g>
     </g>
     <g id="text_21">
      <!-- 0.0 -->
      <g transform="translate(17.216875 252.148601)scale(0.1 -0.1)">
       <use xlink:href="#DejaVuSans-48"/>
       <use x="63.623047" xlink:href="#DejaVuSans-46"/>
       <use x="95.410156" xlink:href="#DejaVuSans-48"/>
      </g>
     </g>
    </g>
    <g id="ytick_8">
     <g id="line2d_78">
      <path clip-path="url(#pec292f3c75)" d="M 40.12 208.4032 
L 353.61 208.4032 
" style="fill:none;stroke:#b0b0b0;stroke-linecap:square;stroke-width:0.8;"/>
     </g>
     <g id="line2d_79">
      <g>
       <use style="stroke:#000000;stroke-width:0.8;" x="40.12" xlink:href="#m65f02b7dc7" y="208.4032"/>
      </g>
     </g>
     <g id="text_22">
      <!-- 0.5 -->
      <g transform="translate(17.216875 212.202419)scale(0.1 -0.1)">
       <use xlink:href="#DejaVuSans-48"/>
       <use x="63.623047" xlink:href="#DejaVuSans-46"/>
       <use x="95.410156" xlink:href="#DejaVuSans-53"/>
      </g>
     </g>
    </g>
    <g id="ytick_9">
     <g id="line2d_80">
      <path clip-path="url(#pec292f3c75)" d="M 40.12 168.457018 
L 353.61 168.457018 
" style="fill:none;stroke:#b0b0b0;stroke-linecap:square;stroke-width:0.8;"/>
     </g>
     <g id="line2d_81">
      <g>
       <use style="stroke:#000000;stroke-width:0.8;" x="40.12" xlink:href="#m65f02b7dc7" y="168.457018"/>
      </g>
     </g>
     <g id="text_23">
      <!-- 1.0 -->
      <g transform="translate(17.216875 172.256237)scale(0.1 -0.1)">
       <use xlink:href="#DejaVuSans-49"/>
       <use x="63.623047" xlink:href="#DejaVuSans-46"/>
       <use x="95.410156" xlink:href="#DejaVuSans-48"/>
      </g>
     </g>
    </g>
   </g>
   <g id="line2d_82">
    <path clip-path="url(#pec292f3c75)" d="M 54.369545 248.349382 
L 63.63175 248.349382 
L 64.344227 168.457018 
L 70.756523 168.457018 
L 71.469 169.255942 
L 72.181477 174.049484 
L 73.606432 184.435491 
L 74.318909 186.832262 
L 75.031386 190.82688 
L 75.743864 192.424727 
L 76.456341 195.620422 
L 77.168818 197.218269 
L 78.593773 202.011811 
L 79.30625 202.810735 
L 80.731205 206.006429 
L 81.443682 206.805353 
L 82.156159 208.4032 
L 86.431023 213.196742 
L 87.1435 215.593513 
L 87.855977 216.392436 
L 88.568455 216.392436 
L 89.280932 217.19136 
L 90.705886 217.19136 
L 91.418364 217.990284 
L 92.130841 217.990284 
L 92.843318 218.789207 
L 93.555795 218.789207 
L 94.268273 219.588131 
L 94.98075 218.789207 
L 95.693227 222.783825 
L 96.405705 225.97952 
L 97.118182 215.593513 
L 98.543136 220.387055 
L 99.255614 225.180596 
L 99.968091 215.593513 
L 100.680568 221.185978 
L 101.393045 221.185978 
L 102.818 214.794589 
L 103.530477 227.577367 
L 104.955432 224.381673 
L 105.667909 223.582749 
L 106.380386 226.778444 
L 107.092864 226.778444 
L 107.805341 225.180596 
L 108.517818 224.381673 
L 109.230295 224.381673 
L 109.942773 225.180596 
L 114.217636 225.180596 
L 114.930114 225.97952 
L 119.204977 225.97952 
L 119.917455 226.778444 
L 124.192318 226.778444 
L 124.904795 227.577367 
L 131.317091 227.577367 
L 132.029568 228.376291 
L 139.154341 228.376291 
L 139.866818 229.175215 
L 149.8415 229.175215 
L 150.553977 229.974138 
L 164.803523 229.974138 
L 165.516 230.773062 
L 184.752886 230.773062 
L 185.465364 231.571985 
L 215.389409 231.571985 
L 216.101886 232.370909 
L 266.687773 232.370909 
L 267.40025 233.169833 
L 339.360455 233.169833 
L 339.360455 233.169833 
" style="fill:none;stroke:#1f77b4;stroke-linecap:square;stroke-width:1.5;"/>
   </g>
   <g id="line2d_83">
    <path clip-path="url(#pec292f3c75)" d="M 54.369545 187.662816 
L 55.082023 198.308058 
L 55.7945 205.546279 
L 56.506977 210.717946 
L 57.219455 214.594816 
L 57.931932 217.611807 
L 58.644409 220.024275 
L 59.356886 221.997828 
L 60.781841 225.035023 
L 62.206795 227.262043 
L 63.63175 228.964904 
L 65.056705 230.309914 
L 66.481659 231.398174 
L 68.619091 232.691197 
L 70.756523 233.69644 
L 73.606432 234.73359 
L 76.456341 235.534834 
L 80.018727 236.310417 
L 84.293591 237.018137 
L 89.993409 237.717266 
L 97.118182 238.346151 
L 106.380386 238.919109 
L 118.4925 239.429062 
L 134.879477 239.882649 
L 157.67875 240.280891 
L 191.877659 240.636286 
L 243.176023 240.931658 
L 330.09825 241.183908 
L 339.360455 241.201756 
L 339.360455 241.201756 
" style="fill:none;stroke:#ff7f0e;stroke-linecap:square;stroke-width:1.5;"/>
   </g>
   <g id="patch_15">
    <path d="M 40.12 252.344 
L 40.12 164.4624 
" style="fill:none;stroke:#000000;stroke-linecap:square;stroke-linejoin:miter;stroke-width:0.8;"/>
   </g>
   <g id="patch_16">
    <path d="M 353.61 252.344 
L 353.61 164.4624 
" style="fill:none;stroke:#000000;stroke-linecap:square;stroke-linejoin:miter;stroke-width:0.8;"/>
   </g>
   <g id="patch_17">
    <path d="M 40.12 252.344 
L 353.61 252.344 
" style="fill:none;stroke:#000000;stroke-linecap:square;stroke-linejoin:miter;stroke-width:0.8;"/>
   </g>
   <g id="patch_18">
    <path d="M 40.12 164.4624 
L 353.61 164.4624 
" style="fill:none;stroke:#000000;stroke-linecap:square;stroke-linejoin:miter;stroke-width:0.8;"/>
   </g>
   <g id="text_24">
    <!-- Risky Sh. Functions -->
    <defs>
     <path d="M 9.078125 75.984375 
L 18.109375 75.984375 
L 18.109375 31.109375 
L 44.921875 54.6875 
L 56.390625 54.6875 
L 27.390625 29.109375 
L 57.625 0 
L 45.90625 0 
L 18.109375 26.703125 
L 18.109375 0 
L 9.078125 0 
z
" id="DejaVuSans-107"/>
     <path d="M 32.171875 -5.078125 
Q 28.375 -14.84375 24.75 -17.8125 
Q 21.140625 -20.796875 15.09375 -20.796875 
L 7.90625 -20.796875 
L 7.90625 -13.28125 
L 13.1875 -13.28125 
Q 16.890625 -13.28125 18.9375 -11.515625 
Q 21 -9.765625 23.484375 -3.21875 
L 25.09375 0.875 
L 2.984375 54.6875 
L 12.5 54.6875 
L 29.59375 11.921875 
L 46.6875 54.6875 
L 56.203125 54.6875 
z
" id="DejaVuSans-121"/>
     <path d="M 53.515625 70.515625 
L 53.515625 60.890625 
Q 47.90625 63.578125 42.921875 64.890625 
Q 37.9375 66.21875 33.296875 66.21875 
Q 25.25 66.21875 20.875 63.09375 
Q 16.5 59.96875 16.5 54.203125 
Q 16.5 49.359375 19.40625 46.890625 
Q 22.3125 44.4375 30.421875 42.921875 
L 36.375 41.703125 
Q 47.40625 39.59375 52.65625 34.296875 
Q 57.90625 29 57.90625 20.125 
Q 57.90625 9.515625 50.796875 4.046875 
Q 43.703125 -1.421875 29.984375 -1.421875 
Q 24.8125 -1.421875 18.96875 -0.25 
Q 13.140625 0.921875 6.890625 3.21875 
L 6.890625 13.375 
Q 12.890625 10.015625 18.65625 8.296875 
Q 24.421875 6.59375 29.984375 6.59375 
Q 38.421875 6.59375 43.015625 9.90625 
Q 47.609375 13.234375 47.609375 19.390625 
Q 47.609375 24.75 44.3125 27.78125 
Q 41.015625 30.8125 33.5 32.328125 
L 27.484375 33.5 
Q 16.453125 35.6875 11.515625 40.375 
Q 6.59375 45.0625 6.59375 53.421875 
Q 6.59375 63.09375 13.40625 68.65625 
Q 20.21875 74.21875 32.171875 74.21875 
Q 37.3125 74.21875 42.625 73.28125 
Q 47.953125 72.359375 53.515625 70.515625 
z
" id="DejaVuSans-83"/>
     <path d="M 54.890625 33.015625 
L 54.890625 0 
L 45.90625 0 
L 45.90625 32.71875 
Q 45.90625 40.484375 42.875 44.328125 
Q 39.84375 48.1875 33.796875 48.1875 
Q 26.515625 48.1875 22.3125 43.546875 
Q 18.109375 38.921875 18.109375 30.90625 
L 18.109375 0 
L 9.078125 0 
L 9.078125 75.984375 
L 18.109375 75.984375 
L 18.109375 46.1875 
Q 21.34375 51.125 25.703125 53.5625 
Q 30.078125 56 35.796875 56 
Q 45.21875 56 50.046875 50.171875 
Q 54.890625 44.34375 54.890625 33.015625 
z
" id="DejaVuSans-104"/>
    </defs>
    <g transform="translate(138.579688 158.4624)scale(0.12 -0.12)">
     <use xlink:href="#DejaVuSans-82"/>
     <use x="69.482422" xlink:href="#DejaVuSans-105"/>
     <use x="97.265625" xlink:href="#DejaVuSans-115"/>
     <use x="149.365234" xlink:href="#DejaVuSans-107"/>
     <use x="207.228516" xlink:href="#DejaVuSans-121"/>
     <use x="266.408203" xlink:href="#DejaVuSans-32"/>
     <use x="298.195312" xlink:href="#DejaVuSans-83"/>
     <use x="361.671875" xlink:href="#DejaVuSans-104"/>
     <use x="425.050781" xlink:href="#DejaVuSans-46"/>
     <use x="456.837891" xlink:href="#DejaVuSans-32"/>
     <use x="488.625" xlink:href="#DejaVuSans-70"/>
     <use x="546.066406" xlink:href="#DejaVuSans-117"/>
     <use x="609.445312" xlink:href="#DejaVuSans-110"/>
     <use x="672.824219" xlink:href="#DejaVuSans-99"/>
     <use x="727.804688" xlink:href="#DejaVuSans-116"/>
     <use x="767.013672" xlink:href="#DejaVuSans-105"/>
     <use x="794.796875" xlink:href="#DejaVuSans-111"/>
     <use x="855.978516" xlink:href="#DejaVuSans-110"/>
     <use x="919.357422" xlink:href="#DejaVuSans-115"/>
    </g>
   </g>
   <g id="legend_3">
    <g id="patch_19">
     <path d="M 286.742813 201.81865 
L 346.61 201.81865 
Q 348.61 201.81865 348.61 199.81865 
L 348.61 171.4624 
Q 348.61 169.4624 346.61 169.4624 
L 286.742813 169.4624 
Q 284.742813 169.4624 284.742813 171.4624 
L 284.742813 199.81865 
Q 284.742813 201.81865 286.742813 201.81865 
z
" style="fill:#ffffff;opacity:0.8;stroke:#cccccc;stroke-linejoin:miter;"/>
    </g>
    <g id="line2d_84">
     <path d="M 288.742813 177.560837 
L 308.742813 177.560837 
" style="fill:none;stroke:#1f77b4;stroke-linecap:square;stroke-width:1.5;"/>
    </g>
    <g id="line2d_85"/>
    <g id="text_25">
     <!-- CGM -->
     <g transform="translate(316.742813 181.060837)scale(0.1 -0.1)">
      <use xlink:href="#DejaVuSans-67"/>
      <use x="69.824219" xlink:href="#DejaVuSans-71"/>
      <use x="147.314453" xlink:href="#DejaVuSans-77"/>
     </g>
    </g>
    <g id="line2d_86">
     <path d="M 288.742813 192.238962 
L 308.742813 192.238962 
" style="fill:none;stroke:#ff7f0e;stroke-linecap:square;stroke-width:1.5;"/>
    </g>
    <g id="line2d_87"/>
    <g id="text_26">
     <!-- HARK -->
     <g transform="translate(316.742813 195.738962)scale(0.1 -0.1)">
      <use xlink:href="#DejaVuSans-72"/>
      <use x="75.195312" xlink:href="#DejaVuSans-65"/>
      <use x="143.603516" xlink:href="#DejaVuSans-82"/>
      <use x="213.085938" xlink:href="#DejaVuSans-75"/>
     </g>
    </g>
   </g>
  </g>
  <g id="axes_4">
   <g id="patch_20">
    <path d="M 395.71 252.344 
L 709.2 252.344 
L 709.2 164.4624 
L 395.71 164.4624 
z
" style="fill:#ffffff;"/>
   </g>
   <g id="matplotlib.axis_7">
    <g id="xtick_28">
     <g id="line2d_88">
      <path clip-path="url(#pd6311a65d7)" d="M 407.109636 252.344 
L 407.109636 164.4624 
" style="fill:none;stroke:#b0b0b0;stroke-linecap:square;stroke-width:0.8;"/>
     </g>
     <g id="line2d_89">
      <g>
       <use style="stroke:#000000;stroke-width:0.8;" x="407.109636" xlink:href="#m894a5c0a90" y="252.344"/>
      </g>
     </g>
     <g id="text_27">
      <!-- 0 -->
      <g transform="translate(403.928386 266.942437)scale(0.1 -0.1)">
       <use xlink:href="#DejaVuSans-48"/>
      </g>
     </g>
    </g>
    <g id="xtick_29">
     <g id="line2d_90">
      <path clip-path="url(#pd6311a65d7)" d="M 442.7335 252.344 
L 442.7335 164.4624 
" style="fill:none;stroke:#b0b0b0;stroke-linecap:square;stroke-width:0.8;"/>
     </g>
     <g id="line2d_91">
      <g>
       <use style="stroke:#000000;stroke-width:0.8;" x="442.7335" xlink:href="#m894a5c0a90" y="252.344"/>
      </g>
     </g>
     <g id="text_28">
      <!-- 50 -->
      <g transform="translate(436.371 266.942437)scale(0.1 -0.1)">
       <use xlink:href="#DejaVuSans-53"/>
       <use x="63.623047" xlink:href="#DejaVuSans-48"/>
      </g>
     </g>
    </g>
    <g id="xtick_30">
     <g id="line2d_92">
      <path clip-path="url(#pd6311a65d7)" d="M 478.357364 252.344 
L 478.357364 164.4624 
" style="fill:none;stroke:#b0b0b0;stroke-linecap:square;stroke-width:0.8;"/>
     </g>
     <g id="line2d_93">
      <g>
       <use style="stroke:#000000;stroke-width:0.8;" x="478.357364" xlink:href="#m894a5c0a90" y="252.344"/>
      </g>
     </g>
     <g id="text_29">
      <!-- 100 -->
      <g transform="translate(468.813614 266.942437)scale(0.1 -0.1)">
       <use xlink:href="#DejaVuSans-49"/>
       <use x="63.623047" xlink:href="#DejaVuSans-48"/>
       <use x="127.246094" xlink:href="#DejaVuSans-48"/>
      </g>
     </g>
    </g>
    <g id="xtick_31">
     <g id="line2d_94">
      <path clip-path="url(#pd6311a65d7)" d="M 513.981227 252.344 
L 513.981227 164.4624 
" style="fill:none;stroke:#b0b0b0;stroke-linecap:square;stroke-width:0.8;"/>
     </g>
     <g id="line2d_95">
      <g>
       <use style="stroke:#000000;stroke-width:0.8;" x="513.981227" xlink:href="#m894a5c0a90" y="252.344"/>
      </g>
     </g>
     <g id="text_30">
      <!-- 150 -->
      <g transform="translate(504.437477 266.942437)scale(0.1 -0.1)">
       <use xlink:href="#DejaVuSans-49"/>
       <use x="63.623047" xlink:href="#DejaVuSans-53"/>
       <use x="127.246094" xlink:href="#DejaVuSans-48"/>
      </g>
     </g>
    </g>
    <g id="xtick_32">
     <g id="line2d_96">
      <path clip-path="url(#pd6311a65d7)" d="M 549.605091 252.344 
L 549.605091 164.4624 
" style="fill:none;stroke:#b0b0b0;stroke-linecap:square;stroke-width:0.8;"/>
     </g>
     <g id="line2d_97">
      <g>
       <use style="stroke:#000000;stroke-width:0.8;" x="549.605091" xlink:href="#m894a5c0a90" y="252.344"/>
      </g>
     </g>
     <g id="text_31">
      <!-- 200 -->
      <g transform="translate(540.061341 266.942437)scale(0.1 -0.1)">
       <use xlink:href="#DejaVuSans-50"/>
       <use x="63.623047" xlink:href="#DejaVuSans-48"/>
       <use x="127.246094" xlink:href="#DejaVuSans-48"/>
      </g>
     </g>
    </g>
    <g id="xtick_33">
     <g id="line2d_98">
      <path clip-path="url(#pd6311a65d7)" d="M 585.228955 252.344 
L 585.228955 164.4624 
" style="fill:none;stroke:#b0b0b0;stroke-linecap:square;stroke-width:0.8;"/>
     </g>
     <g id="line2d_99">
      <g>
       <use style="stroke:#000000;stroke-width:0.8;" x="585.228955" xlink:href="#m894a5c0a90" y="252.344"/>
      </g>
     </g>
     <g id="text_32">
      <!-- 250 -->
      <g transform="translate(575.685205 266.942437)scale(0.1 -0.1)">
       <use xlink:href="#DejaVuSans-50"/>
       <use x="63.623047" xlink:href="#DejaVuSans-53"/>
       <use x="127.246094" xlink:href="#DejaVuSans-48"/>
      </g>
     </g>
    </g>
    <g id="xtick_34">
     <g id="line2d_100">
      <path clip-path="url(#pd6311a65d7)" d="M 620.852818 252.344 
L 620.852818 164.4624 
" style="fill:none;stroke:#b0b0b0;stroke-linecap:square;stroke-width:0.8;"/>
     </g>
     <g id="line2d_101">
      <g>
       <use style="stroke:#000000;stroke-width:0.8;" x="620.852818" xlink:href="#m894a5c0a90" y="252.344"/>
      </g>
     </g>
     <g id="text_33">
      <!-- 300 -->
      <g transform="translate(611.309068 266.942437)scale(0.1 -0.1)">
       <use xlink:href="#DejaVuSans-51"/>
       <use x="63.623047" xlink:href="#DejaVuSans-48"/>
       <use x="127.246094" xlink:href="#DejaVuSans-48"/>
      </g>
     </g>
    </g>
    <g id="xtick_35">
     <g id="line2d_102">
      <path clip-path="url(#pd6311a65d7)" d="M 656.476682 252.344 
L 656.476682 164.4624 
" style="fill:none;stroke:#b0b0b0;stroke-linecap:square;stroke-width:0.8;"/>
     </g>
     <g id="line2d_103">
      <g>
       <use style="stroke:#000000;stroke-width:0.8;" x="656.476682" xlink:href="#m894a5c0a90" y="252.344"/>
      </g>
     </g>
     <g id="text_34">
      <!-- 350 -->
      <g transform="translate(646.932932 266.942437)scale(0.1 -0.1)">
       <use xlink:href="#DejaVuSans-51"/>
       <use x="63.623047" xlink:href="#DejaVuSans-53"/>
       <use x="127.246094" xlink:href="#DejaVuSans-48"/>
      </g>
     </g>
    </g>
    <g id="xtick_36">
     <g id="line2d_104">
      <path clip-path="url(#pd6311a65d7)" d="M 692.100545 252.344 
L 692.100545 164.4624 
" style="fill:none;stroke:#b0b0b0;stroke-linecap:square;stroke-width:0.8;"/>
     </g>
     <g id="line2d_105">
      <g>
       <use style="stroke:#000000;stroke-width:0.8;" x="692.100545" xlink:href="#m894a5c0a90" y="252.344"/>
      </g>
     </g>
     <g id="text_35">
      <!-- 400 -->
      <g transform="translate(682.556795 266.942437)scale(0.1 -0.1)">
       <use xlink:href="#DejaVuSans-52"/>
       <use x="63.623047" xlink:href="#DejaVuSans-48"/>
       <use x="127.246094" xlink:href="#DejaVuSans-48"/>
      </g>
     </g>
    </g>
   </g>
   <g id="matplotlib.axis_8">
    <g id="ytick_10">
     <g id="line2d_106">
      <path clip-path="url(#pd6311a65d7)" d="M 395.71 235.190873 
L 709.2 235.190873 
" style="fill:none;stroke:#b0b0b0;stroke-linecap:square;stroke-width:0.8;"/>
     </g>
     <g id="line2d_107">
      <g>
       <use style="stroke:#000000;stroke-width:0.8;" x="395.71" xlink:href="#m65f02b7dc7" y="235.190873"/>
      </g>
     </g>
     <g id="text_36">
      <!-- −0.5 -->
      <g transform="translate(364.427188 238.990091)scale(0.1 -0.1)">
       <use xlink:href="#DejaVuSans-8722"/>
       <use x="83.789062" xlink:href="#DejaVuSans-48"/>
       <use x="147.412109" xlink:href="#DejaVuSans-46"/>
       <use x="179.199219" xlink:href="#DejaVuSans-53"/>
      </g>
     </g>
    </g>
    <g id="ytick_11">
     <g id="line2d_108">
      <path clip-path="url(#pd6311a65d7)" d="M 395.71 209.847455 
L 709.2 209.847455 
" style="fill:none;stroke:#b0b0b0;stroke-linecap:square;stroke-width:0.8;"/>
     </g>
     <g id="line2d_109">
      <g>
       <use style="stroke:#000000;stroke-width:0.8;" x="395.71" xlink:href="#m65f02b7dc7" y="209.847455"/>
      </g>
     </g>
     <g id="text_37">
      <!-- 0.0 -->
      <g transform="translate(372.806875 213.646674)scale(0.1 -0.1)">
       <use xlink:href="#DejaVuSans-48"/>
       <use x="63.623047" xlink:href="#DejaVuSans-46"/>
       <use x="95.410156" xlink:href="#DejaVuSans-48"/>
      </g>
     </g>
    </g>
    <g id="ytick_12">
     <g id="line2d_110">
      <path clip-path="url(#pd6311a65d7)" d="M 395.71 184.504038 
L 709.2 184.504038 
" style="fill:none;stroke:#b0b0b0;stroke-linecap:square;stroke-width:0.8;"/>
     </g>
     <g id="line2d_111">
      <g>
       <use style="stroke:#000000;stroke-width:0.8;" x="395.71" xlink:href="#m65f02b7dc7" y="184.504038"/>
      </g>
     </g>
     <g id="text_38">
      <!-- 0.5 -->
      <g transform="translate(372.806875 188.303256)scale(0.1 -0.1)">
       <use xlink:href="#DejaVuSans-48"/>
       <use x="63.623047" xlink:href="#DejaVuSans-46"/>
       <use x="95.410156" xlink:href="#DejaVuSans-53"/>
      </g>
     </g>
    </g>
   </g>
   <g id="line2d_112">
    <path clip-path="url(#pd6311a65d7)" d="M 409.959545 248.349382 
L 410.672023 241.595625 
L 411.3845 237.003415 
L 412.096977 233.722307 
L 412.809455 231.26267 
L 413.521932 229.348572 
L 414.234409 227.818009 
L 415.659364 225.522346 
L 417.084318 223.882319 
L 418.509273 222.651686 
L 419.22175 222.145725 
L 419.934227 171.008557 
L 422.071659 169.915128 
L 424.209091 169.094784 
L 426.346523 168.457018 
L 427.059 168.781741 
L 427.771477 171.653359 
L 429.196432 177.936377 
L 429.908909 179.317915 
L 430.621386 181.721665 
L 431.333864 182.61256 
L 432.046341 184.524193 
L 432.758818 185.428624 
L 434.183773 188.268459 
L 434.89625 188.68226 
L 436.321205 190.537508 
L 437.033682 190.964203 
L 437.746159 191.901883 
L 442.021023 194.551152 
L 442.7335 196.015485 
L 443.445977 196.468389 
L 444.158455 196.416427 
L 444.870932 196.873245 
L 446.295886 196.778531 
L 447.008364 197.240658 
L 447.720841 197.197503 
L 448.433318 197.662689 
L 449.145795 197.622409 
L 449.858273 198.090332 
L 450.57075 197.545788 
L 451.283227 200.043661 
L 451.995705 202.035813 
L 452.708182 195.412293 
L 454.133136 198.388289 
L 454.845614 201.398366 
L 455.558091 195.285712 
L 456.270568 198.804408 
L 456.983045 198.775832 
L 458.408 194.666156 
L 459.120477 202.749887 
L 460.545432 200.672008 
L 461.257909 200.140936 
L 461.970386 202.144943 
L 462.682864 202.121996 
L 463.395341 201.0858 
L 464.107818 200.5572 
L 464.820295 200.535973 
L 465.532773 201.022019 
L 469.807636 200.907443 
L 470.520114 201.396839 
L 474.794977 201.299012 
L 475.507455 201.790891 
L 479.782318 201.706523 
L 480.494795 202.200292 
L 486.907091 202.092993 
L 487.619568 202.588892 
L 494.744341 202.49002 
L 495.456818 202.987931 
L 505.4315 202.875338 
L 506.143977 203.374937 
L 520.393523 203.250247 
L 521.106 203.751722 
L 540.342886 203.627283 
L 541.055364 204.130222 
L 570.979409 203.99621 
L 571.691886 204.500523 
L 622.277773 204.360146 
L 622.99025 204.865483 
L 694.950455 204.751689 
L 694.950455 204.751689 
" style="fill:none;stroke:#1f77b4;stroke-linecap:square;stroke-width:1.5;"/>
   </g>
   <g id="patch_21">
    <path d="M 395.71 252.344 
L 395.71 164.4624 
" style="fill:none;stroke:#000000;stroke-linecap:square;stroke-linejoin:miter;stroke-width:0.8;"/>
   </g>
   <g id="patch_22">
    <path d="M 709.2 252.344 
L 709.2 164.4624 
" style="fill:none;stroke:#000000;stroke-linecap:square;stroke-linejoin:miter;stroke-width:0.8;"/>
   </g>
   <g id="patch_23">
    <path d="M 395.71 252.344 
L 709.2 252.344 
" style="fill:none;stroke:#000000;stroke-linecap:square;stroke-linejoin:miter;stroke-width:0.8;"/>
   </g>
   <g id="patch_24">
    <path d="M 395.71 164.4624 
L 709.2 164.4624 
" style="fill:none;stroke:#000000;stroke-linecap:square;stroke-linejoin:miter;stroke-width:0.8;"/>
   </g>
   <g id="text_39">
    <!-- Risky Sh. Difference -->
    <g transform="translate(491.985313 158.4624)scale(0.12 -0.12)">
     <use xlink:href="#DejaVuSans-82"/>
     <use x="69.482422" xlink:href="#DejaVuSans-105"/>
     <use x="97.265625" xlink:href="#DejaVuSans-115"/>
     <use x="149.365234" xlink:href="#DejaVuSans-107"/>
     <use x="207.228516" xlink:href="#DejaVuSans-121"/>
     <use x="266.408203" xlink:href="#DejaVuSans-32"/>
     <use x="298.195312" xlink:href="#DejaVuSans-83"/>
     <use x="361.671875" xlink:href="#DejaVuSans-104"/>
     <use x="425.050781" xlink:href="#DejaVuSans-46"/>
     <use x="456.837891" xlink:href="#DejaVuSans-32"/>
     <use x="488.625" xlink:href="#DejaVuSans-68"/>
     <use x="565.626953" xlink:href="#DejaVuSans-105"/>
     <use x="593.410156" xlink:href="#DejaVuSans-102"/>
     <use x="628.615234" xlink:href="#DejaVuSans-102"/>
     <use x="663.820312" xlink:href="#DejaVuSans-101"/>
     <use x="725.34375" xlink:href="#DejaVuSans-114"/>
     <use x="766.425781" xlink:href="#DejaVuSans-101"/>
     <use x="827.949219" xlink:href="#DejaVuSans-110"/>
     <use x="891.328125" xlink:href="#DejaVuSans-99"/>
     <use x="946.308594" xlink:href="#DejaVuSans-101"/>
    </g>
   </g>
   <g id="legend_4">
    <g id="patch_25">
     <path d="M 609.009375 187.140525 
L 702.2 187.140525 
Q 704.2 187.140525 704.2 185.140525 
L 704.2 171.4624 
Q 704.2 169.4624 702.2 169.4624 
L 609.009375 169.4624 
Q 607.009375 169.4624 607.009375 171.4624 
L 607.009375 185.140525 
Q 607.009375 187.140525 609.009375 187.140525 
z
" style="fill:#ffffff;opacity:0.8;stroke:#cccccc;stroke-linejoin:miter;"/>
    </g>
    <g id="line2d_113">
     <path d="M 611.009375 177.560837 
L 631.009375 177.560837 
" style="fill:none;stroke:#1f77b4;stroke-linecap:square;stroke-width:1.5;"/>
    </g>
    <g id="line2d_114"/>
    <g id="text_40">
     <!-- CGM - HARK -->
     <g transform="translate(639.009375 181.060837)scale(0.1 -0.1)">
      <use xlink:href="#DejaVuSans-67"/>
      <use x="69.824219" xlink:href="#DejaVuSans-71"/>
      <use x="147.314453" xlink:href="#DejaVuSans-77"/>
      <use x="233.59375" xlink:href="#DejaVuSans-32"/>
      <use x="265.380859" xlink:href="#DejaVuSans-45"/>
      <use x="301.464844" xlink:href="#DejaVuSans-32"/>
      <use x="333.251953" xlink:href="#DejaVuSans-72"/>
      <use x="408.447266" xlink:href="#DejaVuSans-65"/>
      <use x="476.855469" xlink:href="#DejaVuSans-82"/>
      <use x="546.337891" xlink:href="#DejaVuSans-75"/>
     </g>
    </g>
   </g>
  </g>
  <g id="text_41">
   <!-- Year 98 -->
   <defs>
    <path d="M -0.203125 72.90625 
L 10.40625 72.90625 
L 30.609375 42.921875 
L 50.6875 72.90625 
L 61.28125 72.90625 
L 35.5 34.71875 
L 35.5 0 
L 25.59375 0 
L 25.59375 34.71875 
z
" id="DejaVuSans-89"/>
    <path d="M 34.28125 27.484375 
Q 23.390625 27.484375 19.1875 25 
Q 14.984375 22.515625 14.984375 16.5 
Q 14.984375 11.71875 18.140625 8.90625 
Q 21.296875 6.109375 26.703125 6.109375 
Q 34.1875 6.109375 38.703125 11.40625 
Q 43.21875 16.703125 43.21875 25.484375 
L 43.21875 27.484375 
z
M 52.203125 31.203125 
L 52.203125 0 
L 43.21875 0 
L 43.21875 8.296875 
Q 40.140625 3.328125 35.546875 0.953125 
Q 30.953125 -1.421875 24.3125 -1.421875 
Q 15.921875 -1.421875 10.953125 3.296875 
Q 6 8.015625 6 15.921875 
Q 6 25.140625 12.171875 29.828125 
Q 18.359375 34.515625 30.609375 34.515625 
L 43.21875 34.515625 
L 43.21875 35.40625 
Q 43.21875 41.609375 39.140625 45 
Q 35.0625 48.390625 27.6875 48.390625 
Q 23 48.390625 18.546875 47.265625 
Q 14.109375 46.140625 10.015625 43.890625 
L 10.015625 52.203125 
Q 14.9375 54.109375 19.578125 55.046875 
Q 24.21875 56 28.609375 56 
Q 40.484375 56 46.34375 49.84375 
Q 52.203125 43.703125 52.203125 31.203125 
z
" id="DejaVuSans-97"/>
    <path d="M 10.984375 1.515625 
L 10.984375 10.5 
Q 14.703125 8.734375 18.5 7.8125 
Q 22.3125 6.890625 25.984375 6.890625 
Q 35.75 6.890625 40.890625 13.453125 
Q 46.046875 20.015625 46.78125 33.40625 
Q 43.953125 29.203125 39.59375 26.953125 
Q 35.25 24.703125 29.984375 24.703125 
Q 19.046875 24.703125 12.671875 31.3125 
Q 6.296875 37.9375 6.296875 49.421875 
Q 6.296875 60.640625 12.9375 67.421875 
Q 19.578125 74.21875 30.609375 74.21875 
Q 43.265625 74.21875 49.921875 64.515625 
Q 56.59375 54.828125 56.59375 36.375 
Q 56.59375 19.140625 48.40625 8.859375 
Q 40.234375 -1.421875 26.421875 -1.421875 
Q 22.703125 -1.421875 18.890625 -0.6875 
Q 15.09375 0.046875 10.984375 1.515625 
z
M 30.609375 32.421875 
Q 37.25 32.421875 41.125 36.953125 
Q 45.015625 41.5 45.015625 49.421875 
Q 45.015625 57.28125 41.125 61.84375 
Q 37.25 66.40625 30.609375 66.40625 
Q 23.96875 66.40625 20.09375 61.84375 
Q 16.21875 57.28125 16.21875 49.421875 
Q 16.21875 41.5 20.09375 36.953125 
Q 23.96875 32.421875 30.609375 32.421875 
z
" id="DejaVuSans-57"/>
    <path d="M 31.78125 34.625 
Q 24.75 34.625 20.71875 30.859375 
Q 16.703125 27.09375 16.703125 20.515625 
Q 16.703125 13.921875 20.71875 10.15625 
Q 24.75 6.390625 31.78125 6.390625 
Q 38.8125 6.390625 42.859375 10.171875 
Q 46.921875 13.96875 46.921875 20.515625 
Q 46.921875 27.09375 42.890625 30.859375 
Q 38.875 34.625 31.78125 34.625 
z
M 21.921875 38.8125 
Q 15.578125 40.375 12.03125 44.71875 
Q 8.5 49.078125 8.5 55.328125 
Q 8.5 64.0625 14.71875 69.140625 
Q 20.953125 74.21875 31.78125 74.21875 
Q 42.671875 74.21875 48.875 69.140625 
Q 55.078125 64.0625 55.078125 55.328125 
Q 55.078125 49.078125 51.53125 44.71875 
Q 48 40.375 41.703125 38.8125 
Q 48.828125 37.15625 52.796875 32.3125 
Q 56.78125 27.484375 56.78125 20.515625 
Q 56.78125 9.90625 50.3125 4.234375 
Q 43.84375 -1.421875 31.78125 -1.421875 
Q 19.734375 -1.421875 13.25 4.234375 
Q 6.78125 9.90625 6.78125 20.515625 
Q 6.78125 27.484375 10.78125 32.3125 
Q 14.796875 37.15625 21.921875 38.8125 
z
M 18.3125 54.390625 
Q 18.3125 48.734375 21.84375 45.5625 
Q 25.390625 42.390625 31.78125 42.390625 
Q 38.140625 42.390625 41.71875 45.5625 
Q 45.3125 48.734375 45.3125 54.390625 
Q 45.3125 60.0625 41.71875 63.234375 
Q 38.140625 66.40625 31.78125 66.40625 
Q 25.390625 66.40625 21.84375 63.234375 
Q 18.3125 60.0625 18.3125 54.390625 
z
" id="DejaVuSans-56"/>
   </defs>
   <g transform="translate(336.970312 14.878125)scale(0.12 -0.12)">
    <use xlink:href="#DejaVuSans-89"/>
    <use x="60.880859" xlink:href="#DejaVuSans-101"/>
    <use x="122.404297" xlink:href="#DejaVuSans-97"/>
    <use x="183.683594" xlink:href="#DejaVuSans-114"/>
    <use x="224.796875" xlink:href="#DejaVuSans-32"/>
    <use x="256.583984" xlink:href="#DejaVuSans-57"/>
    <use x="320.207031" xlink:href="#DejaVuSans-56"/>
   </g>
  </g>
 </g>
 <defs>
  <clipPath id="p3668543517">
   <rect height="87.8816" width="313.49" x="40.12" y="32.64"/>
  </clipPath>
  <clipPath id="peebc5af7ea">
   <rect height="87.8816" width="313.49" x="395.71" y="32.64"/>
  </clipPath>
  <clipPath id="pec292f3c75">
   <rect height="87.8816" width="313.49" x="40.12" y="164.4624"/>
  </clipPath>
  <clipPath id="pd6311a65d7">
   <rect height="87.8816" width="313.49" x="395.71" y="164.4624"/>
  </clipPath>
 </defs>
</svg>
