<?xml version="1.0" encoding="utf-8" standalone="no"?>
<!DOCTYPE svg PUBLIC "-//W3C//DTD SVG 1.1//EN"
  "http://www.w3.org/Graphics/SVG/1.1/DTD/svg11.dtd">
<!-- Created with matplotlib (https://matplotlib.org/) -->
<svg height="345.6pt" version="1.1" viewBox="0 0 460.8 345.6" width="460.8pt" xmlns="http://www.w3.org/2000/svg" xmlns:xlink="http://www.w3.org/1999/xlink">
 <defs>
  <style type="text/css">
*{stroke-linecap:butt;stroke-linejoin:round;}
  </style>
 </defs>
 <g id="figure_1">
  <g id="patch_1">
   <path d="M 0 345.6 
L 460.8 345.6 
L 460.8 0 
L 0 0 
z
" style="fill:#ffffff;"/>
  </g>
  <g id="axes_1">
   <g id="patch_2">
    <path d="M 57.6 307.584 
L 414.72 307.584 
L 414.72 41.472 
L 57.6 41.472 
z
" style="fill:#ffffff;"/>
   </g>
   <g id="patch_3">
    <path clip-path="url(#p9134bd30a1)" d="M 305.7984 124.2624 
L 308.4768 121.3056 
L 308.4768 123.96672 
L 323.6544 123.96672 
L 323.6544 124.55808 
L 308.4768 124.55808 
L 308.4768 127.2192 
z
" style="stroke:#000000;stroke-linejoin:miter;"/>
   </g>
   <g id="patch_4">
    <path clip-path="url(#p9134bd30a1)" d="M 227.232 124.2624 
L 224.5536 127.2192 
L 224.5536 124.55808 
L 209.376 124.55808 
L 209.376 123.96672 
L 224.5536 123.96672 
L 224.5536 121.3056 
z
" style="stroke:#000000;stroke-linejoin:miter;"/>
   </g>
   <g id="matplotlib.axis_1">
    <g id="xtick_1"/>
    <g id="xtick_2"/>
    <g id="xtick_3"/>
    <g id="xtick_4"/>
    <g id="xtick_5"/>
    <g id="xtick_6"/>
    <g id="xtick_7"/>
    <g id="xtick_8"/>
    <g id="xtick_9"/>
   </g>
   <g id="matplotlib.axis_2">
    <g id="ytick_1"/>
    <g id="ytick_2"/>
    <g id="ytick_3"/>
    <g id="ytick_4"/>
    <g id="ytick_5"/>
    <g id="ytick_6"/>
    <g id="ytick_7"/>
    <g id="ytick_8"/>
    <g id="ytick_9"/>
    <g id="ytick_10"/>
   </g>
   <g id="line2d_1">
    <path clip-path="url(#p9134bd30a1)" d="M 57.6 271.488133 
L 171.391743 150.001529 
L 172.107415 149.519682 
L 414.72 65.20971 
L 414.72 65.20971 
" style="fill:none;stroke:#000000;stroke-linecap:square;stroke-width:1.5;"/>
   </g>
   <g id="line2d_2">
    <path clip-path="url(#p9134bd30a1)" d="M 57.6 285.432177 
L 160.656673 186.12206 
L 164.23503 184.311738 
L 378.936433 77.644809 
L 414.72 65.20971 
L 414.72 65.20971 
" style="fill:none;stroke:#000000;stroke-linecap:square;stroke-width:1.5;"/>
   </g>
   <g id="line2d_3">
    <path clip-path="url(#p9134bd30a1)" d="M 57.6 149.09952 
L 171.8784 149.09952 
" style="fill:none;stroke:#000000;stroke-dasharray:5.55,2.4;stroke-dashoffset:0;stroke-width:1.5;"/>
   </g>
   <g id="line2d_4">
    <path clip-path="url(#p9134bd30a1)" d="M 57.6 180.4416 
L 171.8784 180.4416 
" style="fill:none;stroke:#000000;stroke-dasharray:5.55,2.4;stroke-dashoffset:0;stroke-width:1.5;"/>
   </g>
   <g id="line2d_5">
    <path clip-path="url(#p9134bd30a1)" d="M 57.6 76.9536 
L 379.008 76.9536 
" style="fill:none;stroke:#000000;stroke-dasharray:5.55,2.4;stroke-dashoffset:0;stroke-width:1.5;"/>
   </g>
   <g id="line2d_6">
    <path clip-path="url(#p9134bd30a1)" d="M 161.1648 307.584 
L 161.1648 184.58112 
" style="fill:none;stroke:#000000;stroke-dasharray:5.55,2.4;stroke-dashoffset:0;stroke-width:1.5;"/>
   </g>
   <g id="line2d_7">
    <path clip-path="url(#p9134bd30a1)" d="M 379.008 307.584 
L 379.008 76.9536 
" style="fill:none;stroke:#000000;stroke-dasharray:5.55,2.4;stroke-dashoffset:0;stroke-width:1.5;"/>
   </g>
   <g id="line2d_8">
    <path clip-path="url(#p9134bd30a1)" d="M 171.8784 149.09952 
L 171.8784 307.584 
" style="fill:none;stroke:#000000;stroke-dasharray:5.55,2.4;stroke-dashoffset:0;stroke-width:1.5;"/>
   </g>
   <g id="patch_5">
    <path d="M 57.6 307.584 
L 57.6 41.472 
" style="fill:none;stroke:#000000;stroke-linecap:square;stroke-linejoin:miter;stroke-width:0.8;"/>
   </g>
   <g id="patch_6">
    <path d="M 414.72 307.584 
L 414.72 41.472 
" style="fill:none;stroke:#000000;stroke-linecap:square;stroke-linejoin:miter;stroke-width:0.8;"/>
   </g>
   <g id="patch_7">
    <path d="M 57.6 307.584 
L 414.72 307.584 
" style="fill:none;stroke:#000000;stroke-linecap:square;stroke-linejoin:miter;stroke-width:0.8;"/>
   </g>
   <g id="patch_8">
    <path d="M 57.6 41.472 
L 414.72 41.472 
" style="fill:none;stroke:#000000;stroke-linecap:square;stroke-linejoin:miter;stroke-width:0.8;"/>
   </g>
   <g id="text_1">
    <!-- $\hat{c}_{t,2}$ -->
    <defs>
     <path d="M 22.90625 69 
L 10.59375 55.1875 
L 11.796875 54 
L 22.90625 64.984375 
L 34 54 
L 35.203125 55.1875 
z
" id="CMR17-94"/>
     <path d="M 39.09375 38 
C 37.203125 38 36.296875 38 34.90625 36.796875 
C 34.296875 36.296875 33.203125 34.796875 33.203125 33.1875 
C 33.203125 31.1875 34.703125 29.984375 36.59375 29.984375 
C 39 29.984375 41.703125 31.984375 41.703125 35.984375 
C 41.703125 40.484375 37.09375 44 30.203125 44 
C 17.09375 44 4 30.1875 4 15.796875 
C 4 6.96875 9.40625 -1 19.59375 -1 
C 33.203125 -1 41.796875 9.71875 41.796875 11.03125 
C 41.796875 11.640625 41.203125 12.140625 40.796875 12.140625 
C 40.5 12.140625 40.40625 12.046875 39.5 11.125 
C 33.09375 2.515625 23.59375 1 19.796875 1 
C 12.90625 1 10.703125 7.078125 10.703125 12.140625 
C 10.703125 15.6875 12.40625 25.53125 16 32.390625 
C 18.59375 37.09375 24 41.984375 30.296875 41.984375 
C 31.59375 41.984375 37.09375 41.8125 39.09375 38 
z
" id="CMMI12-99"/>
     <path d="M 20.09375 40.09375 
L 29.296875 40.09375 
C 31.203125 40.09375 32.203125 40.09375 32.203125 41.890625 
C 32.203125 43 31.59375 43 29.59375 43 
L 20.796875 43 
L 24.5 57.25 
C 24.90625 58.625 24.90625 58.8125 24.90625 59.5 
C 24.90625 61.09375 23.59375 62 22.296875 62 
C 21.5 62 19.203125 61.6875 18.40625 58.53125 
L 14.5 43 
L 5.09375 43 
C 3.09375 43 2.203125 43 2.203125 41.09375 
C 2.203125 40.09375 2.90625 40.09375 4.796875 40.09375 
L 13.703125 40.09375 
L 7.09375 13.765625 
C 6.296875 10.265625 6 9.265625 6 7.96875 
C 6 3.28125 9.296875 -1 14.90625 -1 
C 25 -1 30.40625 13.5625 30.40625 14.265625 
C 30.40625 14.859375 30 15.15625 29.40625 15.15625 
C 29.203125 15.15625 28.796875 15.15625 28.59375 14.75 
C 28.5 14.65625 28.40625 14.5625 27.703125 12.96875 
C 25.59375 7.96875 21 1 15.203125 1 
C 12.203125 1 12 3.484375 12 5.6875 
C 12 5.78125 12 7.671875 12.296875 8.875 
z
" id="CMMI12-116"/>
     <path d="M 19.5 -0.40625 
C 19.5 5.390625 17.59375 9.6875 13.5 9.6875 
C 10.296875 9.6875 8.703125 7.09375 8.703125 4.890625 
C 8.703125 2.6875 10.203125 0 13.59375 0 
C 14.90625 0 16 0.390625 16.90625 1.296875 
C 17.09375 1.5 17.203125 1.5 17.296875 1.5 
C 17.5 1.5 17.5 0.09375 17.5 -0.40625 
C 17.5 -3.640625 16.90625 -10.03125 11.09375 -16.421875 
C 10 -17.609375 10 -17.8125 10 -18 
C 10 -18.5 10.5 -19 11 -19 
C 11.796875 -19 19.5 -11.703125 19.5 -0.40625 
z
" id="CMMI12-59"/>
     <path d="M 41.703125 15.46875 
L 39.90625 15.46875 
C 38.90625 8.390625 38.09375 7.1875 37.703125 6.59375 
C 37.203125 5.796875 30 5.796875 28.59375 5.796875 
L 9.40625 5.796875 
C 13 9.6875 20 16.765625 28.5 24.9375 
C 34.59375 30.71875 41.703125 37.5 41.703125 47.390625 
C 41.703125 59.1875 32.296875 66 21.796875 66 
C 10.796875 66 4.09375 56.296875 4.09375 47.296875 
C 4.09375 43.390625 7 42.890625 8.203125 42.890625 
C 9.203125 42.890625 12.203125 43.484375 12.203125 46.984375 
C 12.203125 50.09375 9.59375 51 8.203125 51 
C 7.59375 51 7 50.890625 6.59375 50.6875 
C 8.5 59.1875 14.296875 63.390625 20.40625 63.390625 
C 29.09375 63.390625 34.796875 56.5 34.796875 47.390625 
C 34.796875 38.703125 29.703125 31.21875 24 24.734375 
L 4.09375 2.296875 
L 4.09375 0 
L 39.296875 0 
z
" id="CMR17-50"/>
    </defs>
    <g transform="translate(325.44 130.176)scale(0.14 -0.14)">
     <use transform="translate(3.565821 14.950375)scale(0.996264)" xlink:href="#CMR17-94"/>
     <use transform="translate(0 14.943915)scale(0.996264)" xlink:href="#CMMI12-99"/>
     <use transform="translate(41.983234 0)scale(0.697382)" xlink:href="#CMMI12-116"/>
     <use transform="translate(66.641543 0)scale(0.697382)" xlink:href="#CMMI12-59"/>
     <use transform="translate(85.609476 0)scale(0.697382)" xlink:href="#CMR17-50"/>
    </g>
   </g>
   <g id="text_2">
    <!-- $c_{t,1}$ -->
    <defs>
     <path d="M 26.59375 63.796875 
C 26.59375 65.890625 26.5 66 25.09375 66 
C 21.203125 61.359375 15.296875 59.890625 9.703125 59.6875 
C 9.40625 59.6875 8.90625 59.6875 8.796875 59.5 
C 8.703125 59.296875 8.703125 59.09375 8.703125 57 
C 11.796875 57 17 57.59375 21 59.984375 
L 21 7.296875 
C 21 3.796875 20.796875 2.59375 12.203125 2.59375 
L 9.203125 2.59375 
L 9.203125 0 
C 14 0.09375 19 0.1875 23.796875 0.1875 
C 28.59375 0.1875 33.59375 0.09375 38.40625 0 
L 38.40625 2.59375 
L 35.40625 2.59375 
C 26.796875 2.59375 26.59375 3.6875 26.59375 7.296875 
z
" id="CMR17-49"/>
    </defs>
    <g transform="translate(182.592 130.176)scale(0.14 -0.14)">
     <use transform="translate(0 14.943915)scale(0.996264)" xlink:href="#CMMI12-99"/>
     <use transform="translate(41.983234 0)scale(0.697382)" xlink:href="#CMMI12-116"/>
     <use transform="translate(66.641543 0)scale(0.697382)" xlink:href="#CMMI12-59"/>
     <use transform="translate(85.609476 0)scale(0.697382)" xlink:href="#CMR17-49"/>
    </g>
   </g>
   <g id="text_3">
    <!-- $c$ -->
    <g transform="translate(39.744 41.472)scale(0.14 -0.14)">
     <use transform="scale(0.996264)" xlink:href="#CMMI12-99"/>
    </g>
   </g>
   <g id="text_4">
    <!-- $w$ -->
    <defs>
     <path d="M 34.40625 6.078125 
C 36.59375 0.09375 42.796875 -1 46.59375 -1 
C 54.203125 -1 58.703125 5.578125 61.5 12.46875 
C 63.796875 18.25 67.5 31.421875 67.5 37.3125 
C 67.5 43.390625 64.40625 44 63.5 44 
C 61.09375 44 58.90625 41.59375 58.90625 39.59375 
C 58.90625 38.40625 59.59375 37.703125 60.09375 37.3125 
C 61 36.40625 63.59375 33.71875 63.59375 28.53125 
C 63.59375 25.140625 60.796875 15.75 58.703125 11.0625 
C 55.90625 4.984375 52.203125 1 47 1 
C 41.40625 1 39.59375 5.1875 39.59375 9.765625 
C 39.59375 12.65625 40.5 16.15625 40.90625 17.84375 
L 45.09375 34.609375 
C 45.59375 36.609375 46.5 40.09375 46.5 40.484375 
C 46.5 41.984375 45.296875 43 43.796875 43 
C 40.90625 43 40.203125 40.484375 39.59375 38.09375 
C 38.59375 34.203125 34.40625 17.34375 34 15.15625 
C 33.59375 13.453125 33.59375 12.359375 33.59375 10.171875 
C 33.59375 7.78125 30.40625 3.984375 30.296875 3.78125 
C 29.203125 2.6875 27.59375 1 24.5 1 
C 16.59375 1 16.59375 8.46875 16.59375 10.171875 
C 16.59375 13.359375 17.296875 17.75 21.796875 29.625 
C 23 32.71875 23.5 34.015625 23.5 36.015625 
C 23.5 40.203125 20.5 44 15.59375 44 
C 6.40625 44 2.703125 29.53125 2.703125 28.71875 
C 2.703125 28.328125 3.09375 27.828125 3.796875 27.828125 
C 4.703125 27.828125 4.796875 28.234375 5.203125 29.625 
C 7.703125 38.40625 11.59375 41.984375 15.296875 41.984375 
C 16.296875 41.984375 17.90625 41.890625 17.90625 38.703125 
C 17.90625 38.203125 17.90625 36.109375 16.203125 31.71875 
C 11.5 19.25 10.5 15.15625 10.5 11.375 
C 10.5 0.890625 19.09375 -1 24.203125 -1 
C 25.90625 -1 30.40625 -1 34.40625 6.078125 
z
" id="CMMI12-119"/>
    </defs>
    <g transform="translate(414.72 319.4112)scale(0.14 -0.14)">
     <use transform="scale(0.996264)" xlink:href="#CMMI12-119"/>
    </g>
   </g>
   <g id="text_5">
    <!-- $\hat{c}_{t,2}(w_{t,1})$ -->
    <defs>
     <path d="M 30.59375 -24.40625 
C 30.59375 -24.3125 30.59375 -24.109375 30.296875 -23.8125 
C 25.703125 -19.109375 13.40625 -6.296875 13.40625 24.9375 
C 13.40625 56.171875 25.5 68.875 30.40625 73.890625 
C 30.40625 73.984375 30.59375 74.1875 30.59375 74.484375 
C 30.59375 74.796875 30.296875 75 29.90625 75 
C 28.796875 75 20.296875 67.578125 15.40625 56.5625 
C 10.40625 45.453125 9 34.65625 9 25.046875 
C 9 17.828125 9.703125 5.625 15.703125 -7.296875 
C 20.5 -17.703125 28.703125 -25 29.90625 -25 
C 30.40625 -25 30.59375 -24.8125 30.59375 -24.40625 
z
" id="CMR17-40"/>
     <path d="M 26.296875 24.9375 
C 26.296875 32.140625 25.59375 44.359375 19.59375 57.265625 
C 14.796875 67.6875 6.59375 75 5.40625 75 
C 5.09375 75 4.703125 74.890625 4.703125 74.390625 
C 4.703125 74.1875 4.796875 74.09375 4.90625 73.890625 
C 9.703125 68.875 21.90625 56.171875 21.90625 25.046875 
C 21.90625 -6.1875 9.796875 -18.90625 4.90625 -23.90625 
C 4.796875 -24.109375 4.703125 -24.203125 4.703125 -24.40625 
C 4.703125 -24.90625 5.09375 -25 5.40625 -25 
C 6.5 -25 15 -17.609375 19.90625 -6.59375 
C 24.90625 4.515625 26.296875 15.328125 26.296875 24.9375 
z
" id="CMR17-41"/>
    </defs>
    <g transform="translate(4.032 180.4416)scale(0.14 -0.14)">
     <use transform="translate(3.565821 14.950375)scale(0.996264)" xlink:href="#CMR17-94"/>
     <use transform="translate(0 14.943915)scale(0.996264)" xlink:href="#CMMI12-99"/>
     <use transform="translate(41.983234 0)scale(0.697382)" xlink:href="#CMMI12-116"/>
     <use transform="translate(66.641543 0)scale(0.697382)" xlink:href="#CMMI12-59"/>
     <use transform="translate(85.609476 0)scale(0.697382)" xlink:href="#CMR17-50"/>
     <use transform="translate(118.09079 14.943915)scale(0.996264)" xlink:href="#CMR17-40"/>
     <use transform="translate(153.371558 14.943915)scale(0.996264)" xlink:href="#CMMI12-119"/>
     <use transform="translate(223.103547 0)scale(0.697382)" xlink:href="#CMMI12-116"/>
     <use transform="translate(247.761857 0)scale(0.697382)" xlink:href="#CMMI12-59"/>
     <use transform="translate(266.72979 0)scale(0.697382)" xlink:href="#CMR17-49"/>
     <use transform="translate(299.211104 14.943915)scale(0.996264)" xlink:href="#CMR17-41"/>
    </g>
   </g>
   <g id="text_6">
    <!-- ${c}_{t,1}^{\#}$ -->
    <defs>
     <path d="M 48.5 14 
L 69.09375 14 
C 70.796875 14 72.5 14 72.5 15.796875 
C 72.5 17.5 71 17.5 69.5 17.5 
L 49.5 17.5 
L 52.90625 31.484375 
L 69.5 31.484375 
C 71 31.484375 72.5 31.484375 72.5 33.1875 
C 72.5 35 70.796875 35 69.09375 35 
L 53.90625 35 
L 61.59375 65.390625 
C 61.90625 66.390625 62 66.890625 62 67.1875 
C 62 68.1875 61.203125 69 60.203125 69 
C 58.796875 69 58.5 67.59375 58.296875 66.796875 
L 50.296875 35 
L 32.203125 35 
L 39.90625 65.390625 
C 40.203125 66.390625 40.296875 66.890625 40.296875 67.1875 
C 40.296875 68.1875 39.5 69 38.5 69 
C 37.09375 69 36.796875 67.59375 36.59375 66.796875 
L 28.59375 35 
L 8 35 
C 6.296875 35 4.59375 35 4.59375 33.1875 
C 4.59375 31.484375 6.09375 31.484375 7.59375 31.484375 
L 27.59375 31.484375 
L 24.203125 17.5 
L 7.59375 17.5 
C 6.09375 17.5 4.59375 17.5 4.59375 15.796875 
C 4.59375 14 6.296875 14 8 14 
L 23.203125 14 
L 15.5 -16.390625 
C 15.203125 -17.40625 15.09375 -17.90625 15.09375 -18.203125 
C 15.09375 -19.203125 15.90625 -20 16.90625 -20 
C 18.296875 -20 18.59375 -18.609375 18.796875 -17.8125 
L 26.796875 14 
L 44.90625 14 
L 37.203125 -16.390625 
C 36.90625 -17.40625 36.796875 -17.90625 36.796875 -18.203125 
C 36.796875 -19.203125 37.59375 -20 38.59375 -20 
C 40 -20 40.296875 -18.609375 40.5 -17.8125 
z
M 27.796875 17.5 
L 31.203125 31.484375 
L 49.296875 31.484375 
L 45.90625 17.5 
z
" id="CMR17-35"/>
    </defs>
    <g transform="translate(36.1728 153.8304)scale(0.14 -0.14)">
     <use transform="translate(0 26.578082)scale(0.996264)" xlink:href="#CMMI12-99"/>
     <use transform="translate(41.983234 74.458467)scale(0.697382)" xlink:href="#CMR17-35"/>
     <use transform="translate(41.983234 0)scale(0.697382)" xlink:href="#CMMI12-116"/>
     <use transform="translate(66.641543 0)scale(0.697382)" xlink:href="#CMMI12-59"/>
     <use transform="translate(85.609476 0)scale(0.697382)" xlink:href="#CMR17-49"/>
    </g>
   </g>
   <g id="text_7">
    <!-- $\hat{c}_{t,1}^{\#}$ -->
    <g transform="translate(36.1728 76.9536)scale(0.14 -0.14)">
     <use transform="translate(3.565821 26.584543)scale(0.996264)" xlink:href="#CMR17-94"/>
     <use transform="translate(0 26.578082)scale(0.996264)" xlink:href="#CMMI12-99"/>
     <use transform="translate(41.983234 74.458467)scale(0.697382)" xlink:href="#CMR17-35"/>
     <use transform="translate(41.983234 0)scale(0.697382)" xlink:href="#CMMI12-116"/>
     <use transform="translate(66.641543 0)scale(0.697382)" xlink:href="#CMMI12-59"/>
     <use transform="translate(85.609476 0)scale(0.697382)" xlink:href="#CMR17-49"/>
    </g>
   </g>
   <g id="text_8">
    <!-- $w_{t,1}$ -->
    <g transform="translate(171.8784 325.3248)scale(0.14 -0.14)">
     <use transform="translate(0 14.943915)scale(0.996264)" xlink:href="#CMMI12-119"/>
     <use transform="translate(69.73199 0)scale(0.697382)" xlink:href="#CMMI12-116"/>
     <use transform="translate(94.390299 0)scale(0.697382)" xlink:href="#CMMI12-59"/>
     <use transform="translate(113.358232 0)scale(0.697382)" xlink:href="#CMR17-49"/>
    </g>
   </g>
   <g id="text_9">
    <!-- $\hat{w}_{t,2}$ -->
    <g transform="translate(146.88 325.3248)scale(0.14 -0.14)">
     <use transform="translate(21.49038 14.950375)scale(0.996264)" xlink:href="#CMR17-94"/>
     <use transform="translate(0 14.943915)scale(0.996264)" xlink:href="#CMMI12-119"/>
     <use transform="translate(69.73199 0)scale(0.697382)" xlink:href="#CMMI12-116"/>
     <use transform="translate(94.390299 0)scale(0.697382)" xlink:href="#CMMI12-59"/>
     <use transform="translate(113.358232 0)scale(0.697382)" xlink:href="#CMR17-50"/>
    </g>
   </g>
   <g id="text_10">
    <!-- $\hat{w}_{t,1}$ -->
    <g transform="translate(379.008 325.3248)scale(0.14 -0.14)">
     <use transform="translate(21.49038 14.950375)scale(0.996264)" xlink:href="#CMR17-94"/>
     <use transform="translate(0 14.943915)scale(0.996264)" xlink:href="#CMMI12-119"/>
     <use transform="translate(69.73199 0)scale(0.697382)" xlink:href="#CMMI12-116"/>
     <use transform="translate(94.390299 0)scale(0.697382)" xlink:href="#CMMI12-59"/>
     <use transform="translate(113.358232 0)scale(0.697382)" xlink:href="#CMR17-49"/>
    </g>
   </g>
  </g>
 </g>
 <defs>
  <clipPath id="p9134bd30a1">
   <rect height="266.112" width="357.12" x="57.6" y="41.472"/>
  </clipPath>
 </defs>
</svg>
